<svg xmlns="http://www.w3.org/2000/svg" viewBox="-240 -480 990 640">
<rect id="kcore4-a-1-rect" style="fill:#00008B;fill-opacity:0.2" stroke="transparent" stroke-dasharray="0" stroke-width="0.5" x="-101.84" y="-135.78" width="33.33" height="81.47" />
<rect id="kcore4-a-2-rect" style="fill:#4169E1;fill-opacity:0.2" stroke="transparent" stroke-dasharray="0" stroke-width="0.5" x="-64.81" y="-126.28" width="33.33" height="71.97" />
<rect id="kcore4-a-3-rect" style="fill:#00008B;fill-opacity:0.2" stroke="transparent" stroke-dasharray="0" stroke-width="0.5" x="-27.77" y="-116.77" width="33.32" height="62.46" />
<rect id="kcore4-a-4-rect" style="fill:#4169E1;fill-opacity:0.2" stroke="transparent" stroke-dasharray="0" stroke-width="0.5" x="9.26" y="-107.27" width="33.33" height="52.96" />
<rect id="kcore4-a-5-rect" style="fill:#00008B;fill-opacity:0.2" stroke="transparent" stroke-dasharray="0" stroke-width="0.5" x="46.29" y="-97.76" width="33.33" height="43.45" />
<rect id="kcore4-a-6-rect" style="fill:#4169E1;fill-opacity:0.2" stroke="transparent" stroke-dasharray="0" stroke-width="0.5" x="83.32" y="-88.26" width="33.33" height="33.95" />
<text id="kcore4-a-1-text" y="-95.05" style="text-anchor:middle;dominant-baseline:middle;font-family:Tahoma;font-size:15px;fill:#00008B">
<tspan x="-85.17" dy="0">7</tspan>
</text>
<text id="kcore4-a-2-text" y="-90.3" style="text-anchor:middle;dominant-baseline:middle;font-family:Tahoma;font-size:15px;fill:#00008B">
<tspan x="-48.14" dy="0">4</tspan>
</text>
<text id="kcore4-a-3-text" y="-85.54" style="text-anchor:middle;dominant-baseline:middle;font-family:Tahoma;font-size:15px;fill:#00008B">
<tspan x="-11.11" dy="0">1</tspan>
</text>
<text id="kcore4-a-4-text" y="-80.79" style="text-anchor:middle;dominant-baseline:middle;font-family:Tahoma;font-size:15px;fill:#00008B">
<tspan x="25.92" dy="0">5</tspan>
</text>
<text id="kcore4-a-5-text" y="-76.04" style="text-anchor:middle;dominant-baseline:middle;font-family:Tahoma;font-size:15px;fill:#00008B">
<tspan x="62.95" dy="0">3</tspan>
</text>
<text id="kcore4-a-6-text" y="-71.29" style="text-anchor:middle;dominant-baseline:middle;font-family:Tahoma;font-size:15px;fill:#00008B">
<tspan x="99.99" dy="0">2</tspan>
</text>
<rect id="kcore4-b-1-rect" style="fill:#FF0000;fill-opacity:0.2" stroke="transparent" stroke-dasharray="0" stroke-width="0.5" x="-101.84" y="54.31" width="28.57" height="81.47" />
<rect id="kcore4-b-2-rect" style="fill:#F08080;fill-opacity:0.2" stroke="transparent" stroke-dasharray="0" stroke-width="0.5" x="-70.1" y="54.31" width="28.57" height="73.33" />
<rect id="kcore4-b-3-rect" style="fill:#FF0000;fill-opacity:0.2" stroke="transparent" stroke-dasharray="0" stroke-width="0.5" x="-38.35" y="54.31" width="28.56" height="65.18" />
<rect id="kcore4-b-4-rect" style="fill:#F08080;fill-opacity:0.2" stroke="transparent" stroke-dasharray="0" stroke-width="0.5" x="-6.61" y="54.31" width="28.56" height="57.03" />
<rect id="kcore4-b-5-rect" style="fill:#FF0000;fill-opacity:0.2" stroke="transparent" stroke-dasharray="0" stroke-width="0.5" x="25.13" y="54.31" width="28.57" height="48.88" />
<rect id="kcore4-b-6-rect" style="fill:#F08080;fill-opacity:0.2" stroke="transparent" stroke-dasharray="0" stroke-width="0.5" x="56.87" y="54.31" width="28.57" height="40.74" />
<rect id="kcore4-b-7-rect" style="fill:#FF0000;fill-opacity:0.2" stroke="transparent" stroke-dasharray="0" stroke-width="0.5" x="88.61" y="54.31" width="28.57" height="32.59" />
<text id="kcore4-b-1-text" y="95.05" style="text-anchor:middle;dominant-baseline:middle;font-family:Tahoma;font-size:15px;fill:#FF0000">
<tspan x="-87.55" dy="0">19</tspan>
</text>
<text id="kcore4-b-2-text" y="90.97" style="text-anchor:middle;dominant-baseline:middle;font-family:Tahoma;font-size:15px;fill:#FF0000">
<tspan x="-55.81" dy="0">20</tspan>
</text>
<text id="kcore4-b-3-text" y="86.9" style="text-anchor:middle;dominant-baseline:middle;font-family:Tahoma;font-size:15px;fill:#FF0000">
<tspan x="-24.07" dy="0">21</tspan>
</text>
<text id="kcore4-b-4-text" y="82.83" style="text-anchor:middle;dominant-baseline:middle;font-family:Tahoma;font-size:15px;fill:#FF0000">
<tspan x="7.67" dy="0">17</tspan>
</text>
<text id="kcore4-b-5-text" y="78.75" style="text-anchor:middle;dominant-baseline:middle;font-family:Tahoma;font-size:15px;fill:#FF0000">
<tspan x="39.41" dy="0">9</tspan>
</text>
<text id="kcore4-b-6-text" y="74.68" style="text-anchor:middle;dominant-baseline:middle;font-family:Tahoma;font-size:15px;fill:#FF0000">
<tspan x="71.15" dy="0">5</tspan>
</text>
<text id="kcore4-b-7-text" y="70.61" style="text-anchor:middle;dominant-baseline:middle;font-family:Tahoma;font-size:15px;fill:#FF0000">
<tspan x="102.9" dy="0">2</tspan>
</text>
<rect id="kcore3-b-1-rect" style="fill:#FF0000;fill-opacity:0.2" stroke="transparent" stroke-dasharray="0" stroke-width="0.5" x="185.16" y="-416.79" width="86.1" height="11.17" />
<rect id="kcore3-b-2-rect" style="fill:#F08080;fill-opacity:0.2" stroke="transparent" stroke-dasharray="0" stroke-width="0.5" x="193.77" y="-403.38" width="73.18" height="11.17" />
<rect id="kcore3-b-3-rect" style="fill:#FF0000;fill-opacity:0.2" stroke="transparent" stroke-dasharray="0" stroke-width="0.5" x="202.38" y="-389.98" width="60.27" height="11.17" />
<rect id="kcore3-b-4-rect" style="fill:#F08080;fill-opacity:0.2" stroke="transparent" stroke-dasharray="0" stroke-width="0.5" x="210.99" y="-376.57" width="47.35" height="11.17" />
<rect id="kcore3-b-5-rect" style="fill:#FF0000;fill-opacity:0.2" stroke="transparent" stroke-dasharray="0" stroke-width="0.5" x="219.6" y="-363.17" width="34.44" height="11.17" />
<text id="kcore3-b-1-text" y="-411.2" style="text-anchor:middle;dominant-baseline:middle;font-family:Tahoma;font-size:13.5px;fill:#FF0000">
<tspan x="198.07" dy="0">8</tspan>
</text>
<text id="kcore3-b-2-text" y="-397.8" style="text-anchor:middle;dominant-baseline:middle;font-family:Tahoma;font-size:13.5px;fill:#FF0000">
<tspan x="252.32" dy="0">15</tspan>
</text>
<text id="kcore3-b-3-text" y="-384.39" style="text-anchor:middle;dominant-baseline:middle;font-family:Tahoma;font-size:13.5px;fill:#FF0000">
<tspan x="211.42" dy="0">22</tspan>
</text>
<text id="kcore3-b-4-text" y="-370.99" style="text-anchor:middle;dominant-baseline:middle;font-family:Tahoma;font-size:13.5px;fill:#FF0000">
<tspan x="248.87" dy="0">23</tspan>
</text>
<text id="kcore3-b-5-text" y="-357.58" style="text-anchor:middle;dominant-baseline:middle;font-family:Tahoma;font-size:13.5px;fill:#FF0000">
<tspan x="224.76" dy="0">24</tspan>
</text>
<rect id="kcore2-a-1-rect" style="fill:#00008B;fill-opacity:0.2" stroke="transparent" stroke-dasharray="0" stroke-width="0.5" x="395.84" y="131.58" width="87.5" height="11.18" />
<text id="kcore2-a-1-text" y="137.17" style="text-anchor:middle;dominant-baseline:middle;font-family:Tahoma;font-size:13.5px;fill:#00008B">
<tspan x="408.96" dy="0">6</tspan>
</text>
<rect id="kcore2-b-1-rect" style="fill:#FF0000;fill-opacity:0.2" stroke="transparent" stroke-dasharray="0" stroke-width="0.5" x="409.21" y="-281.01" width="87.5" height="11.18" />
<rect id="kcore2-b-2-rect" style="fill:#F08080;fill-opacity:0.2" stroke="transparent" stroke-dasharray="0" stroke-width="0.5" x="414.07" y="-267.6" width="81.43" height="11.17" />
<rect id="kcore2-b-3-rect" style="fill:#FF0000;fill-opacity:0.2" stroke="transparent" stroke-dasharray="0" stroke-width="0.5" x="418.93" y="-254.19" width="75.35" height="11.17" />
<rect id="kcore2-b-4-rect" style="fill:#F08080;fill-opacity:0.2" stroke="transparent" stroke-dasharray="0" stroke-width="0.5" x="423.79" y="-240.79" width="69.28" height="11.17" />
<rect id="kcore2-b-5-rect" style="fill:#FF0000;fill-opacity:0.2" stroke="transparent" stroke-dasharray="0" stroke-width="0.5" x="428.65" y="-227.38" width="63.2" height="11.17" />
<rect id="kcore2-b-6-rect" style="fill:#F08080;fill-opacity:0.2" stroke="transparent" stroke-dasharray="0" stroke-width="0.5" x="433.51" y="-213.98" width="57.12" height="11.17" />
<rect id="kcore2-b-7-rect" style="fill:#FF0000;fill-opacity:0.2" stroke="transparent" stroke-dasharray="0" stroke-width="0.5" x="438.38" y="-200.57" width="51.04" height="11.17" />
<rect id="kcore2-b-8-rect" style="fill:#F08080;fill-opacity:0.2" stroke="transparent" stroke-dasharray="0" stroke-width="0.5" x="443.24" y="-187.17" width="44.96" height="11.17" />
<rect id="kcore2-b-9-rect" style="fill:#FF0000;fill-opacity:0.2" stroke="transparent" stroke-dasharray="0" stroke-width="0.5" x="448.1" y="-173.76" width="38.89" height="11.17" />
<rect id="kcore2-b-10-rect" style="fill:#F08080;fill-opacity:0.2" stroke="transparent" stroke-dasharray="0" stroke-width="0.5" x="452.96" y="-160.36" width="32.81" height="11.17" />
<rect id="kcore2-b-11-rect" style="fill:#FF0000;fill-opacity:0.2" stroke="transparent" stroke-dasharray="0" stroke-width="0.5" x="457.82" y="-146.95" width="26.74" height="11.17" />
<rect id="kcore2-b-12-rect" style="fill:#F08080;fill-opacity:0.2" stroke="transparent" stroke-dasharray="0" stroke-width="0.5" x="462.68" y="-133.55" width="20.66" height="11.17" />
<text id="kcore2-b-1-text" y="-275.42" style="text-anchor:middle;dominant-baseline:middle;font-family:Tahoma;font-size:13.5px;fill:#FF0000">
<tspan x="479.21" dy="0">1</tspan>
</text>
<text id="kcore2-b-2-text" y="-262.01" style="text-anchor:middle;dominant-baseline:middle;font-family:Tahoma;font-size:13.5px;fill:#FF0000">
<tspan x="426.28" dy="0">3</tspan>
</text>
<text id="kcore2-b-3-text" y="-248.61" style="text-anchor:middle;dominant-baseline:middle;font-family:Tahoma;font-size:13.5px;fill:#FF0000">
<tspan x="479.21" dy="0">4</tspan>
</text>
<text id="kcore2-b-4-text" y="-235.2" style="text-anchor:middle;dominant-baseline:middle;font-family:Tahoma;font-size:13.5px;fill:#FF0000">
<tspan x="434.18" dy="0">6</tspan>
</text>
<text id="kcore2-b-5-text" y="-221.8" style="text-anchor:middle;dominant-baseline:middle;font-family:Tahoma;font-size:13.5px;fill:#FF0000">
<tspan x="479.21" dy="0">7</tspan>
</text>
<text id="kcore2-b-6-text" y="-208.39" style="text-anchor:middle;dominant-baseline:middle;font-family:Tahoma;font-size:13.5px;fill:#FF0000">
<tspan x="442.08" dy="0">10</tspan>
</text>
<text id="kcore2-b-7-text" y="-194.99" style="text-anchor:middle;dominant-baseline:middle;font-family:Tahoma;font-size:13.5px;fill:#FF0000">
<tspan x="479.21" dy="0">11</tspan>
</text>
<text id="kcore2-b-8-text" y="-181.58" style="text-anchor:middle;dominant-baseline:middle;font-family:Tahoma;font-size:13.5px;fill:#FF0000">
<tspan x="449.98" dy="0">12</tspan>
</text>
<text id="kcore2-b-9-text" y="-168.18" style="text-anchor:middle;dominant-baseline:middle;font-family:Tahoma;font-size:13.5px;fill:#FF0000">
<tspan x="479.21" dy="0">13</tspan>
</text>
<text id="kcore2-b-10-text" y="-154.77" style="text-anchor:middle;dominant-baseline:middle;font-family:Tahoma;font-size:13.5px;fill:#FF0000">
<tspan x="457.88" dy="0">14</tspan>
</text>
<text id="kcore2-b-11-text" y="-141.37" style="text-anchor:middle;dominant-baseline:middle;font-family:Tahoma;font-size:13.5px;fill:#FF0000">
<tspan x="479.21" dy="0">16</tspan>
</text>
<text id="kcore2-b-12-text" y="-127.96" style="text-anchor:middle;dominant-baseline:middle;font-family:Tahoma;font-size:13.5px;fill:#FF0000">
<tspan x="465.78" dy="0">18</tspan>
</text>
<rect id="kcore4-1-rect" style="fill:none;fill-opacity:0.3" stroke="#8B4C39" stroke-dasharray="1 1" stroke-width="0.2" x="-152.11" y="-162.59" width="286.05" height="311.78" />
<text id="kcore4-1-text" y="-6.7" style="text-anchor:middle;dominant-baseline:middle;font-family:Tahoma;font-size:10.5px;fill:transparent">
</text>
<text id="kcore4-1-text" y="0" transform="rotate(-90 -116.92 0)" style="text-anchor:start;dominant-baseline:baseline;font-family:Tahoma;font-size:15px;fill:#8B4C39">
<tspan x="-116.92" dy="0">4-shell</tspan>
</text>
<rect id="kcore3-1-rect" style="fill:none;fill-opacity:0.3" stroke="#A15842" stroke-dasharray="1 1" stroke-width="0.2" x="168.4" y="-454.32" width="119.61" height="115.73" />
<text id="kcore3-1-text" y="-396.46" style="text-anchor:middle;dominant-baseline:middle;font-family:Tahoma;font-size:10.5px;fill:transparent">
</text>
<text id="kcore3-1-text" y="-440.92" style="text-anchor:start;dominant-baseline:baseline;font-family:Tahoma;font-size:15px;fill:#A15842">
<tspan x="211.45" dy="0">3-shell</tspan>
</text>
<rect id="kcore2-1-rect" style="fill:none;fill-opacity:0.3" stroke="#B7644B" stroke-dasharray="1 1" stroke-width="0.2" x="379.08" y="-318.54" width="134.39" height="474.7" />
<text id="kcore2-1-text" y="-81.19" style="text-anchor:middle;dominant-baseline:middle;font-family:Tahoma;font-size:10.5px;fill:transparent">
</text>
<text id="kcore2-1-text" y="-305.13" style="text-anchor:start;dominant-baseline:baseline;font-family:Tahoma;font-size:15px;fill:#B7644B">
<tspan x="429.52" dy="0">2-shell</tspan>
</text>
<rect id="annotation-1-rect" style="fill:none;fill-opacity:0.5" stroke="transparent" stroke-dasharray="0" stroke-width="0.5" x="740.63" y="-0.04" width="0.0399999999999636" height="0.04" />
<text id="annotation-1-text" y="-0.02" style="text-anchor:middle;dominant-baseline:middle;font-family:Tahoma;font-size:10.5px;fill:transparent">
</text>
<text id="annotation-1-text" y="0" style="text-anchor:middle;dominant-baseline:middle;font-family:Tahoma;font-size:3px;fill:red">
<tspan x="740.63" dy="0">.</tspan>
</text>
<text id="annotation-1-text" y="0" style="text-anchor:middle;dominant-baseline:middle;font-family:Tahoma;font-size:3px;fill:red">
<tspan x="-231.45" dy="0">.</tspan>
</text>
<g id="link-1-segment" fill="none" stroke="#888888" stroke-dasharray="0" stroke-width="0.75" stroke-opacity="0.5">
<path d="M-85.17 -54.31 L-87.55 54.31"/>
</g>
<g id="link-2-segment" fill="none" stroke="#888888" stroke-dasharray="0" stroke-width="0.75" stroke-opacity="0.5">
<path d="M-85.17 -54.31 L-55.81 54.31"/>
</g>
<g id="link-3-segment" fill="none" stroke="#888888" stroke-dasharray="0" stroke-width="0.75" stroke-opacity="0.5">
<path d="M-85.17 -54.31 L-24.07 54.31"/>
</g>
<g id="link-4-segment" fill="none" stroke="#888888" stroke-dasharray="0" stroke-width="0.75" stroke-opacity="0.5">
<path d="M-85.17 -54.31 L7.67 54.31"/>
</g>
<g id="link-5-segment" fill="none" stroke="#888888" stroke-dasharray="0" stroke-width="0.75" stroke-opacity="0.5">
<path d="M-85.17 -54.31 L39.41 54.31"/>
</g>
<g id="link-6-segment" fill="none" stroke="#888888" stroke-dasharray="0" stroke-width="0.75" stroke-opacity="0.5">
<path d="M-85.17 -54.31 L71.15 54.31"/>
</g>
<g id="link-7-segment" fill="none" stroke="#888888" stroke-dasharray="0" stroke-width="0.75" stroke-opacity="0.5">
<path d="M-85.17 -54.31 L102.9 54.31"/>
</g>
<g id="link-8-segment" fill="none" stroke="#888888" stroke-dasharray="0" stroke-width="0.75" stroke-opacity="0.5">
<path d="M-48.14 -54.31 L-87.55 54.31"/>
</g>
<g id="link-9-segment" fill="none" stroke="#888888" stroke-dasharray="0" stroke-width="0.75" stroke-opacity="0.5">
<path d="M-48.14 -54.31 L-55.81 54.31"/>
</g>
<g id="link-10-segment" fill="none" stroke="#888888" stroke-dasharray="0" stroke-width="0.75" stroke-opacity="0.5">
<path d="M-48.14 -54.31 L-24.07 54.31"/>
</g>
<g id="link-11-segment" fill="none" stroke="#888888" stroke-dasharray="0" stroke-width="0.75" stroke-opacity="0.5">
<path d="M-48.14 -54.31 L7.67 54.31"/>
</g>
<g id="link-12-segment" fill="none" stroke="#888888" stroke-dasharray="0" stroke-width="0.75" stroke-opacity="0.5">
<path d="M-48.14 -54.31 L39.41 54.31"/>
</g>
<g id="link-13-segment" fill="none" stroke="#888888" stroke-dasharray="0" stroke-width="0.75" stroke-opacity="0.5">
<path d="M-48.14 -54.31 L71.15 54.31"/>
</g>
<g id="link-14-segment" fill="none" stroke="#888888" stroke-dasharray="0" stroke-width="0.75" stroke-opacity="0.5">
<path d="M-48.14 -54.31 L102.9 54.31"/>
</g>
<g id="link-15-segment" fill="none" stroke="#888888" stroke-dasharray="0" stroke-width="0.75" stroke-opacity="0.5">
<path d="M-11.11 -54.31 L-87.55 54.31"/>
</g>
<g id="link-16-segment" fill="none" stroke="#888888" stroke-dasharray="0" stroke-width="0.75" stroke-opacity="0.5">
<path d="M-11.11 -54.31 L-24.07 54.31"/>
</g>
<g id="link-17-segment" fill="none" stroke="#888888" stroke-dasharray="0" stroke-width="0.75" stroke-opacity="0.5">
<path d="M-11.11 -54.31 L39.41 54.31"/>
</g>
<g id="link-18-segment" fill="none" stroke="#888888" stroke-dasharray="0" stroke-width="0.75" stroke-opacity="0.5">
<path d="M-11.11 -54.31 L102.9 54.31"/>
</g>
<g id="link-19-segment" fill="none" stroke="#888888" stroke-dasharray="0" stroke-width="0.75" stroke-opacity="0.5">
<path d="M25.92 -54.31 L-87.55 54.31"/>
</g>
<g id="link-20-segment" fill="none" stroke="#888888" stroke-dasharray="0" stroke-width="0.75" stroke-opacity="0.5">
<path d="M25.92 -54.31 L-24.07 54.31"/>
</g>
<g id="link-21-segment" fill="none" stroke="#888888" stroke-dasharray="0" stroke-width="0.75" stroke-opacity="0.5">
<path d="M25.92 -54.31 L71.15 54.31"/>
</g>
<g id="link-22-segment" fill="none" stroke="#888888" stroke-dasharray="0" stroke-width="0.75" stroke-opacity="0.5">
<path d="M25.92 -54.31 L102.9 54.31"/>
</g>
<g id="link-23-segment" fill="none" stroke="#888888" stroke-dasharray="0" stroke-width="0.75" stroke-opacity="0.5">
<path d="M62.95 -54.31 L-87.55 54.31"/>
</g>
<g id="link-24-segment" fill="none" stroke="#888888" stroke-dasharray="0" stroke-width="0.75" stroke-opacity="0.5">
<path d="M62.95 -54.31 L-55.81 54.31"/>
</g>
<g id="link-25-segment" fill="none" stroke="#888888" stroke-dasharray="0" stroke-width="0.75" stroke-opacity="0.5">
<path d="M62.95 -54.31 L7.67 54.31"/>
</g>
<g id="link-26-segment" fill="none" stroke="#888888" stroke-dasharray="0" stroke-width="0.75" stroke-opacity="0.5">
<path d="M62.95 -54.31 L39.41 54.31"/>
</g>
<g id="link-27-segment" fill="none" stroke="#888888" stroke-dasharray="0" stroke-width="0.75" stroke-opacity="0.5">
<path d="M99.99 -54.31 L-87.55 54.31"/>
</g>
<g id="link-28-segment" fill="none" stroke="#888888" stroke-dasharray="0" stroke-width="0.75" stroke-opacity="0.5">
<path d="M99.99 -54.31 L-55.81 54.31"/>
</g>
<g id="link-29-segment" fill="none" stroke="#888888" stroke-dasharray="0" stroke-width="0.75" stroke-opacity="0.5">
<path d="M99.99 -54.31 L7.67 54.31"/>
</g>
<g id="link-30-segment" fill="none" stroke="#888888" stroke-dasharray="0" stroke-width="0.75" stroke-opacity="0.5">
<path d="M99.99 -54.31 L71.15 54.31"/>
</g>
<g id="link-31-segment" fill="none" stroke="#888888" stroke-dasharray="0" stroke-width="0.75" stroke-opacity="0.5">
<path d="M-85.17 -135.78 L185.16 -405.62"/>
</g>
<g id="link-32-segment" fill="none" stroke="#888888" stroke-dasharray="0" stroke-width="0.75" stroke-opacity="0.5">
<path d="M-85.17 -135.78 L193.77 -392.21"/>
</g>
<g id="link-33-segment" fill="none" stroke="#888888" stroke-dasharray="0" stroke-width="0.75" stroke-opacity="0.5">
<path d="M-85.17 -135.78 L202.38 -378.81"/>
</g>
<g id="link-34-segment" fill="none" stroke="#888888" stroke-dasharray="0" stroke-width="0.75" stroke-opacity="0.5">
<path d="M-85.17 -135.78 L210.99 -365.4"/>
</g>
<g id="link-35-segment" fill="none" stroke="#888888" stroke-dasharray="0" stroke-width="0.75" stroke-opacity="0.5">
<path d="M-85.17 -135.78 L219.6 -352"/>
</g>
<g id="link-36-segment" fill="none" stroke="#888888" stroke-dasharray="0" stroke-width="0.75" stroke-opacity="0.5">
<path d="M-48.14 -126.28 L185.16 -405.62"/>
</g>
<g id="link-37-segment" fill="none" stroke="#888888" stroke-dasharray="0" stroke-width="0.75" stroke-opacity="0.5">
<path d="M-48.14 -126.28 L193.77 -392.21"/>
</g>
<g id="link-38-segment" fill="none" stroke="#888888" stroke-dasharray="0" stroke-width="0.75" stroke-opacity="0.5">
<path d="M-48.14 -126.28 L202.38 -378.81"/>
</g>
<g id="link-39-segment" fill="none" stroke="#888888" stroke-dasharray="0" stroke-width="0.75" stroke-opacity="0.5">
<path d="M-48.14 -126.28 L219.6 -352"/>
</g>
<g id="link-40-segment" fill="none" stroke="#888888" stroke-dasharray="0" stroke-width="0.75" stroke-opacity="0.5">
<path d="M-11.11 -116.77 L193.77 -392.21"/>
</g>
<g id="link-41-segment" fill="none" stroke="#888888" stroke-dasharray="0" stroke-width="0.75" stroke-opacity="0.5">
<path d="M-11.11 -116.77 L210.99 -365.4"/>
</g>
<g id="link-42-segment" fill="none" stroke="#888888" stroke-dasharray="0" stroke-width="0.75" stroke-opacity="0.5">
<path d="M25.92 -107.27 L202.38 -378.81"/>
</g>
<g id="link-43-segment" fill="none" stroke="#888888" stroke-dasharray="0" stroke-width="0.75" stroke-opacity="0.5">
<path d="M25.92 -107.27 L210.99 -365.4"/>
</g>
<g id="link-44-segment" fill="none" stroke="#888888" stroke-dasharray="0" stroke-width="0.75" stroke-opacity="0.5">
<path d="M62.95 -97.76 L185.16 -405.62"/>
</g>
<g id="link-45-segment" fill="none" stroke="#888888" stroke-dasharray="0" stroke-width="0.75" stroke-opacity="0.5">
<path d="M62.95 -97.76 L219.6 -352"/>
</g>
<g id="link-1-path" fill="none" stroke="#888888" stroke-dasharray="0" stroke-width="0.75" stroke-opacity="0.5">
<path d="M-87.55 135.78  L-62.11 135.43 L-36.67 135.1 L-11.23 134.78 L14.21 134.5 L39.66 134.26 L65.1 134.07 L90.54 133.92 L115.98 133.8 L141.42 133.7 L166.86 133.6 L192.31 133.51 L217.75 133.41 L243.19 133.29 L268.63 133.14 L294.07 132.95 L319.51 132.7 L344.96 132.4 L370.4 132.03 L395.84 131.58"/>
</g>
<g id="link-2-path" fill="none" stroke="#888888" stroke-dasharray="0" stroke-width="0.75" stroke-opacity="0.5">
<path d="M-55.81 127.64  L-32.04 127.96 L-8.27 128.28 L15.5 128.58 L39.27 128.85 L63.04 129.07 L86.81 129.25 L110.59 129.39 L134.36 129.5 L158.13 129.6 L181.9 129.68 L205.67 129.77 L229.44 129.87 L253.21 129.98 L276.98 130.12 L300.75 130.31 L324.53 130.53 L348.3 130.82 L372.07 131.17 L395.84 131.58"/>
</g>
<g id="link-3-path" fill="none" stroke="#888888" stroke-dasharray="0" stroke-width="0.75" stroke-opacity="0.5">
<path d="M-85.17 -135.78  L-59.15 -149.85 L-33.13 -161.78 L-7.11 -171.47 L18.91 -179.22 L44.93 -185.37 L70.95 -190.23 L96.97 -194.13 L122.99 -197.37 L149.01 -200.29 L175.03 -203.2 L201.05 -206.42 L227.07 -210.28 L253.09 -215.08 L279.11 -221.16 L305.13 -228.78 L331.15 -237.81 L357.17 -247.9 L383.19 -258.69 L409.21 -269.83"/>
</g>
<g id="link-4-path" fill="none" stroke="#888888" stroke-dasharray="0" stroke-width="0.75" stroke-opacity="0.5">
<path d="M-85.17 -135.78  L-58.9 -148.44 L-32.62 -159.18 L-6.35 -167.9 L19.93 -174.88 L46.21 -180.41 L72.48 -184.79 L98.76 -188.29 L125.03 -191.21 L151.31 -193.84 L177.59 -196.46 L203.86 -199.36 L230.14 -202.83 L256.41 -207.15 L282.69 -212.62 L308.97 -219.48 L335.24 -227.61 L361.52 -236.69 L387.79 -246.4 L414.07 -256.43"/>
</g>
<g id="link-5-path" fill="none" stroke="#888888" stroke-dasharray="0" stroke-width="0.75" stroke-opacity="0.5">
<path d="M-85.17 -135.78  L-58.64 -147.04 L-32.11 -156.58 L-5.58 -164.33 L20.95 -170.54 L47.49 -175.45 L74.02 -179.34 L100.55 -182.46 L127.08 -185.05 L153.61 -187.39 L180.14 -189.72 L206.68 -192.29 L233.21 -195.38 L259.74 -199.22 L286.27 -204.08 L312.8 -210.18 L339.33 -217.41 L365.87 -225.48 L392.4 -234.11 L418.93 -243.02"/>
</g>
<g id="link-6-path" fill="none" stroke="#888888" stroke-dasharray="0" stroke-width="0.75" stroke-opacity="0.5">
<path d="M-85.17 -135.78  L-58.39 -145.63 L-31.6 -153.98 L-4.81 -160.76 L21.98 -166.19 L48.77 -170.5 L75.55 -173.9 L102.34 -176.62 L129.13 -178.9 L155.92 -180.94 L182.7 -182.97 L209.49 -185.23 L236.28 -187.93 L263.07 -191.29 L289.85 -195.55 L316.64 -200.88 L343.43 -207.2 L370.22 -214.27 L397 -221.82 L423.79 -229.62"/>
</g>
<g id="link-7-path" fill="none" stroke="#888888" stroke-dasharray="0" stroke-width="0.75" stroke-opacity="0.5">
<path d="M-85.17 -135.78  L-58.13 -144.22 L-31.09 -151.38 L-4.04 -157.19 L23 -161.85 L50.04 -165.54 L77.09 -168.45 L104.13 -170.79 L131.17 -172.74 L158.22 -174.49 L185.26 -176.23 L212.31 -178.17 L239.35 -180.48 L266.39 -183.36 L293.44 -187.01 L320.48 -191.58 L347.52 -197 L374.57 -203.05 L401.61 -209.53 L428.65 -216.21"/>
</g>
<g id="link-8-path" fill="none" stroke="#888888" stroke-dasharray="0" stroke-width="0.75" stroke-opacity="0.5">
<path d="M-85.17 -135.78  L-57.87 -142.82 L-30.57 -148.78 L-3.27 -153.62 L24.02 -157.5 L51.32 -160.58 L78.62 -163.01 L105.92 -164.95 L133.22 -166.58 L160.52 -168.04 L187.82 -169.49 L215.12 -171.1 L242.42 -173.03 L269.72 -175.43 L297.02 -178.47 L324.32 -182.28 L351.62 -186.8 L378.92 -191.84 L406.21 -197.24 L433.51 -202.81"/>
</g>
<g id="link-9-path" fill="none" stroke="#888888" stroke-dasharray="0" stroke-width="0.75" stroke-opacity="0.5">
<path d="M-85.17 -135.78  L-57.62 -141.41 L-30.06 -146.18 L-2.51 -150.06 L25.05 -153.16 L52.6 -155.62 L80.16 -157.56 L107.71 -159.12 L135.27 -160.42 L162.82 -161.59 L190.38 -162.75 L217.93 -164.04 L245.49 -165.58 L273.04 -167.5 L300.6 -169.93 L328.15 -172.98 L355.71 -176.6 L383.27 -180.63 L410.82 -184.95 L438.38 -189.4"/>
</g>
<g id="link-10-path" fill="none" stroke="#888888" stroke-dasharray="0" stroke-width="0.75" stroke-opacity="0.5">
<path d="M-85.17 -135.78  L-57.36 -140 L-29.55 -143.58 L-1.74 -146.49 L26.07 -148.82 L53.88 -150.66 L81.69 -152.12 L109.5 -153.29 L137.32 -154.26 L165.13 -155.13 L192.94 -156.01 L220.75 -156.97 L248.56 -158.13 L276.37 -159.57 L304.18 -161.4 L331.99 -163.68 L359.8 -166.39 L387.61 -169.42 L415.43 -172.66 L443.24 -176"/>
</g>
<g id="link-11-path" fill="none" stroke="#888888" stroke-dasharray="0" stroke-width="0.75" stroke-opacity="0.5">
<path d="M-85.17 -135.78  L-57.11 -138.6 L-29.04 -140.98 L-0.97 -142.92 L27.09 -144.47 L55.16 -145.7 L83.23 -146.67 L111.3 -147.45 L139.36 -148.1 L167.43 -148.68 L195.5 -149.27 L223.56 -149.91 L251.63 -150.68 L279.7 -151.64 L307.76 -152.86 L335.83 -154.38 L363.9 -156.19 L391.96 -158.21 L420.03 -160.36 L448.1 -162.59"/>
</g>
<g id="link-12-path" fill="none" stroke="#888888" stroke-dasharray="0" stroke-width="0.75" stroke-opacity="0.5">
<path d="M-85.17 -135.78  L-56.85 -137.19 L-28.53 -138.38 L-0.2 -139.35 L28.12 -140.13 L56.44 -140.74 L84.76 -141.23 L113.09 -141.62 L141.41 -141.94 L169.73 -142.23 L198.05 -142.52 L226.38 -142.85 L254.7 -143.23 L283.02 -143.71 L311.35 -144.32 L339.67 -145.08 L367.99 -145.99 L396.31 -146.99 L424.64 -148.07 L452.96 -149.19"/>
</g>
<g id="link-13-path" fill="none" stroke="#888888" stroke-dasharray="0" stroke-width="0.75" stroke-opacity="0.5">
<path d="M-85.17 -135.78  L-56.59 -135.78 L-28.02 -135.78 L0.56 -135.78 L29.14 -135.78 L57.72 -135.78 L86.3 -135.78 L114.88 -135.78 L143.46 -135.78 L172.03 -135.78 L200.61 -135.78 L229.19 -135.78 L257.77 -135.78 L286.35 -135.78 L314.93 -135.78 L343.51 -135.78 L372.08 -135.78 L400.66 -135.78 L429.24 -135.78 L457.82 -135.78"/>
</g>
<g id="link-14-path" fill="none" stroke="#888888" stroke-dasharray="0" stroke-width="0.75" stroke-opacity="0.5">
<path d="M-85.17 -135.78  L-56.34 -134.38 L-27.5 -133.18 L1.33 -132.21 L30.17 -131.44 L59 -130.82 L87.83 -130.34 L116.67 -129.95 L145.5 -129.62 L174.34 -129.33 L203.17 -129.04 L232.01 -128.72 L260.84 -128.33 L289.68 -127.85 L318.51 -127.25 L347.34 -126.48 L376.18 -125.58 L405.01 -124.57 L433.85 -123.49 L462.68 -122.38"/>
</g>
<g id="link-15-path" fill="none" stroke="#888888" stroke-dasharray="0" stroke-width="0.75" stroke-opacity="0.5">
<path d="M-48.14 -126.28  L-24.07 -141.34 L0 -154.12 L24.07 -164.49 L48.14 -172.8 L72.21 -179.38 L96.28 -184.59 L120.36 -188.76 L144.43 -192.23 L168.5 -195.36 L192.57 -198.47 L216.64 -201.92 L240.71 -206.05 L264.78 -211.2 L288.85 -217.71 L312.92 -225.87 L336.99 -235.54 L361.07 -246.35 L385.14 -257.9 L409.21 -269.83"/>
</g>
<g id="link-16-path" fill="none" stroke="#888888" stroke-dasharray="0" stroke-width="0.75" stroke-opacity="0.5">
<path d="M-48.14 -126.28  L-23.56 -138.53 L1.02 -148.92 L25.61 -157.36 L50.19 -164.11 L74.77 -169.47 L99.36 -173.7 L123.94 -177.09 L148.52 -179.92 L173.1 -182.46 L197.69 -184.99 L222.27 -187.8 L246.85 -191.15 L271.43 -195.34 L296.02 -200.63 L320.6 -207.27 L345.18 -215.14 L369.76 -223.92 L394.35 -233.32 L418.93 -243.02"/>
</g>
<g id="link-17-path" fill="none" stroke="#888888" stroke-dasharray="0" stroke-width="0.75" stroke-opacity="0.5">
<path d="M-48.14 -126.28  L-23.05 -135.72 L2.05 -143.72 L27.14 -150.22 L52.24 -155.42 L77.33 -159.55 L102.43 -162.81 L127.52 -165.42 L152.61 -167.6 L177.71 -169.56 L202.8 -171.51 L227.9 -173.67 L252.99 -176.26 L278.09 -179.48 L303.18 -183.56 L328.28 -188.67 L353.37 -194.73 L378.46 -201.5 L403.56 -208.74 L428.65 -216.21"/>
</g>
<g id="link-18-path" fill="none" stroke="#888888" stroke-dasharray="0" stroke-width="0.75" stroke-opacity="0.5">
<path d="M-48.14 -126.28  L-22.54 -132.9 L3.07 -138.52 L28.68 -143.08 L54.28 -146.73 L79.89 -149.63 L105.5 -151.92 L131.1 -153.75 L156.71 -155.28 L182.31 -156.65 L207.92 -158.02 L233.53 -159.54 L259.13 -161.36 L284.74 -163.62 L310.34 -166.48 L335.95 -170.07 L361.56 -174.33 L387.16 -179.07 L412.77 -184.16 L438.38 -189.4"/>
</g>
<g id="link-19-path" fill="none" stroke="#888888" stroke-dasharray="0" stroke-width="0.75" stroke-opacity="0.5">
<path d="M-48.14 -126.28  L-22.28 -131.5 L3.58 -135.92 L29.44 -139.51 L55.31 -142.39 L81.17 -144.67 L107.03 -146.47 L132.89 -147.92 L158.75 -149.12 L184.62 -150.2 L210.48 -151.28 L236.34 -152.48 L262.2 -153.91 L288.06 -155.69 L313.93 -157.94 L339.79 -160.77 L365.65 -164.12 L391.51 -167.86 L417.37 -171.87 L443.24 -176"/>
</g>
<g id="link-20-path" fill="none" stroke="#888888" stroke-dasharray="0" stroke-width="0.75" stroke-opacity="0.5">
<path d="M-48.14 -126.28  L-22.02 -130.09 L4.09 -133.32 L30.21 -135.95 L56.33 -138.05 L82.45 -139.71 L108.57 -141.03 L134.68 -142.08 L160.8 -142.96 L186.92 -143.75 L213.04 -144.54 L239.16 -145.41 L265.27 -146.46 L291.39 -147.76 L317.51 -149.41 L343.63 -151.47 L369.74 -153.92 L395.86 -156.65 L421.98 -159.57 L448.1 -162.59"/>
</g>
<g id="link-21-path" fill="none" stroke="#888888" stroke-dasharray="0" stroke-width="0.75" stroke-opacity="0.5">
<path d="M-48.14 -126.28  L-21.77 -128.68 L4.61 -130.72 L30.98 -132.38 L57.35 -133.7 L83.73 -134.75 L110.1 -135.58 L136.47 -136.25 L162.85 -136.8 L189.22 -137.3 L215.6 -137.8 L241.97 -138.35 L268.34 -139.01 L294.72 -139.83 L321.09 -140.87 L347.46 -142.17 L373.84 -143.72 L400.21 -145.44 L426.59 -147.28 L452.96 -149.19"/>
</g>
<g id="link-22-path" fill="none" stroke="#888888" stroke-dasharray="0" stroke-width="0.75" stroke-opacity="0.5">
<path d="M-48.14 -126.28  L-21.51 -127.28 L5.12 -128.12 L31.75 -128.81 L58.38 -129.36 L85.01 -129.79 L111.64 -130.14 L138.27 -130.41 L164.9 -130.64 L191.52 -130.85 L218.15 -131.06 L244.78 -131.29 L271.41 -131.56 L298.04 -131.9 L324.67 -132.33 L351.3 -132.87 L377.93 -133.51 L404.56 -134.23 L431.19 -134.99 L457.82 -135.78"/>
</g>
<g id="link-23-path" fill="none" stroke="#888888" stroke-dasharray="0" stroke-width="0.75" stroke-opacity="0.5">
<path d="M-11.11 -116.77  L11.27 -131.43 L33.65 -143.86 L56.02 -153.95 L78.4 -162.03 L100.78 -168.44 L123.16 -173.5 L145.54 -177.56 L167.91 -180.94 L190.29 -183.98 L212.67 -187.01 L235.05 -190.36 L257.42 -194.38 L279.8 -199.39 L302.18 -205.72 L324.56 -213.66 L346.94 -223.07 L369.31 -233.58 L391.69 -244.82 L414.07 -256.43"/>
</g>
<g id="link-24-path" fill="none" stroke="#888888" stroke-dasharray="0" stroke-width="0.75" stroke-opacity="0.5">
<path d="M-11.11 -116.77  L12.29 -125.8 L35.69 -133.46 L59.09 -139.68 L82.5 -144.65 L105.9 -148.6 L129.3 -151.72 L152.7 -154.22 L176.1 -156.3 L199.5 -158.17 L222.9 -160.04 L246.3 -162.11 L269.71 -164.58 L293.11 -167.67 L316.51 -171.57 L339.91 -176.46 L363.31 -182.26 L386.71 -188.73 L410.11 -195.66 L433.51 -202.81"/>
</g>
<g id="link-25-path" fill="none" stroke="#888888" stroke-dasharray="0" stroke-width="0.75" stroke-opacity="0.5">
<path d="M25.92 -107.27  L46.86 -120.11 L67.8 -131 L88.74 -139.84 L109.68 -146.92 L130.62 -152.53 L151.57 -156.97 L172.51 -160.52 L193.45 -163.48 L214.39 -166.14 L235.33 -168.8 L256.27 -171.74 L277.21 -175.26 L298.15 -179.65 L319.09 -185.19 L340.03 -192.15 L360.97 -200.39 L381.91 -209.6 L402.85 -219.45 L423.79 -229.62"/>
</g>
<g id="link-26-path" fill="none" stroke="#888888" stroke-dasharray="0" stroke-width="0.75" stroke-opacity="0.5">
<path d="M62.95 -97.76  L83.99 -100.35 L105.03 -102.54 L126.07 -104.32 L147.11 -105.74 L168.15 -106.87 L189.18 -107.76 L210.22 -108.48 L231.26 -109.07 L252.3 -109.61 L273.34 -110.14 L294.38 -110.73 L315.41 -111.44 L336.45 -112.32 L357.49 -113.44 L378.53 -114.84 L399.57 -116.5 L420.61 -118.35 L441.64 -120.33 L462.68 -122.38"/>
</g>
</svg>