<svg xmlns="http://www.w3.org/2000/svg" viewBox="-520 -340 1120 700">
<rect id="kcore3-a-1-rect" style="fill:#00008B;fill-opacity:0.2" stroke="transparent" stroke-dasharray="0" stroke-width="0.5" x="-108.12" y="-86.5" width="70.77" height="51.9" />
<rect id="kcore3-a-2-rect" style="fill:#4169E1;fill-opacity:0.2" stroke="transparent" stroke-dasharray="0" stroke-width="0.5" x="-29.49" y="-74.39" width="70.77" height="39.79" />
<rect id="kcore3-a-3-rect" style="fill:#00008B;fill-opacity:0.2" stroke="transparent" stroke-dasharray="0" stroke-width="0.5" x="49.15" y="-62.28" width="70.76" height="27.68" />
<text id="kcore3-a-1-text" y="-60.55" style="text-anchor:middle;dominant-baseline:middle;font-family:Tahoma;font-size:15px;fill:#00008B">
<tspan x="-72.74" dy="0">2</tspan>
</text>
<text id="kcore3-a-2-text" y="-54.49" style="text-anchor:middle;dominant-baseline:middle;font-family:Tahoma;font-size:15px;fill:#00008B">
<tspan x="5.9" dy="0">10</tspan>
</text>
<text id="kcore3-a-3-text" y="-48.44" style="text-anchor:middle;dominant-baseline:middle;font-family:Tahoma;font-size:15px;fill:#00008B">
<tspan x="84.53" dy="0">3</tspan>
</text>
<rect id="kcore3-b-1-rect" style="fill:#FF0000;fill-opacity:0.2" stroke="transparent" stroke-dasharray="0" stroke-width="0.5" x="-108.12" y="34.6" width="70.77" height="51.9" />
<rect id="kcore3-b-2-rect" style="fill:#F08080;fill-opacity:0.2" stroke="transparent" stroke-dasharray="0" stroke-width="0.5" x="-29.49" y="34.6" width="70.77" height="39.79" />
<rect id="kcore3-b-3-rect" style="fill:#FF0000;fill-opacity:0.2" stroke="transparent" stroke-dasharray="0" stroke-width="0.5" x="49.15" y="34.6" width="70.76" height="27.68" />
<text id="kcore3-b-1-text" y="60.55" style="text-anchor:middle;dominant-baseline:middle;font-family:Tahoma;font-size:15px;fill:#FF0000">
<tspan x="-72.74" dy="0">1</tspan>
</text>
<text id="kcore3-b-2-text" y="54.49" style="text-anchor:middle;dominant-baseline:middle;font-family:Tahoma;font-size:15px;fill:#FF0000">
<tspan x="5.9" dy="0">2</tspan>
</text>
<text id="kcore3-b-3-text" y="48.44" style="text-anchor:middle;dominant-baseline:middle;font-family:Tahoma;font-size:15px;fill:#FF0000">
<tspan x="84.53" dy="0">5</tspan>
</text>
<rect id="kcore2-a-1-rect" style="fill:#00008B;fill-opacity:0.2" stroke="transparent" stroke-dasharray="0" stroke-width="0.5" x="233.5" y="304.22" width="98.44" height="17.28" />
<rect id="kcore2-a-2-rect" style="fill:#4169E1;fill-opacity:0.2" stroke="transparent" stroke-dasharray="0" stroke-width="0.5" x="242.87" y="283.48" width="86.73" height="17.29" />
<rect id="kcore2-a-3-rect" style="fill:#00008B;fill-opacity:0.2" stroke="transparent" stroke-dasharray="0" stroke-width="0.5" x="252.25" y="262.75" width="75" height="17.28" />
<rect id="kcore2-a-4-rect" style="fill:#4169E1;fill-opacity:0.2" stroke="transparent" stroke-dasharray="0" stroke-width="0.5" x="261.62" y="242.01" width="63.29" height="17.28" />
<rect id="kcore2-a-5-rect" style="fill:#00008B;fill-opacity:0.2" stroke="transparent" stroke-dasharray="0" stroke-width="0.5" x="271" y="221.27" width="51.56" height="17.28" />
<rect id="kcore2-a-6-rect" style="fill:#4169E1;fill-opacity:0.2" stroke="transparent" stroke-dasharray="0" stroke-width="0.5" x="280.37" y="200.53" width="39.85" height="17.28" />
<rect id="kcore2-a-7-rect" style="fill:#00008B;fill-opacity:0.2" stroke="transparent" stroke-dasharray="0" stroke-width="0.5" x="289.75" y="179.79" width="28.13" height="17.29" />
<text id="kcore2-a-1-text" y="312.86" style="text-anchor:middle;dominant-baseline:middle;font-family:Tahoma;font-size:13.5px;fill:#00008B">
<tspan x="248.26" dy="0">4</tspan>
</text>
<text id="kcore2-a-2-text" y="292.13" style="text-anchor:middle;dominant-baseline:middle;font-family:Tahoma;font-size:13.5px;fill:#00008B">
<tspan x="312.25" dy="0">5</tspan>
</text>
<text id="kcore2-a-3-text" y="271.39" style="text-anchor:middle;dominant-baseline:middle;font-family:Tahoma;font-size:13.5px;fill:#00008B">
<tspan x="263.5" dy="0">8</tspan>
</text>
<text id="kcore2-a-4-text" y="250.65" style="text-anchor:middle;dominant-baseline:middle;font-family:Tahoma;font-size:13.5px;fill:#00008B">
<tspan x="312.25" dy="0">6</tspan>
</text>
<text id="kcore2-a-5-text" y="229.91" style="text-anchor:middle;dominant-baseline:middle;font-family:Tahoma;font-size:13.5px;fill:#00008B">
<tspan x="278.73" dy="0">11</tspan>
</text>
<text id="kcore2-a-6-text" y="209.17" style="text-anchor:middle;dominant-baseline:middle;font-family:Tahoma;font-size:13.5px;fill:#00008B">
<tspan x="312.25" dy="0">12</tspan>
</text>
<text id="kcore2-a-7-text" y="188.43" style="text-anchor:middle;dominant-baseline:middle;font-family:Tahoma;font-size:13.5px;fill:#00008B">
<tspan x="293.97" dy="0">13</tspan>
</text>
<rect id="kcore2-b-1-rect" style="fill:#FF0000;fill-opacity:0.2" stroke="transparent" stroke-dasharray="0" stroke-width="0.5" x="230.76" y="-276.6" width="98.44" height="17.29" />
<rect id="kcore2-b-2-rect" style="fill:#F08080;fill-opacity:0.2" stroke="transparent" stroke-dasharray="0" stroke-width="0.5" x="243.89" y="-255.86" width="82.03" height="17.28" />
<rect id="kcore2-b-3-rect" style="fill:#FF0000;fill-opacity:0.2" stroke="transparent" stroke-dasharray="0" stroke-width="0.5" x="257.01" y="-235.12" width="65.63" height="17.28" />
<rect id="kcore2-b-4-rect" style="fill:#F08080;fill-opacity:0.2" stroke="transparent" stroke-dasharray="0" stroke-width="0.5" x="270.14" y="-214.38" width="49.22" height="17.28" />
<rect id="kcore2-b-5-rect" style="fill:#FF0000;fill-opacity:0.2" stroke="transparent" stroke-dasharray="0" stroke-width="0.5" x="283.27" y="-193.64" width="32.81" height="17.28" />
<text id="kcore2-b-1-text" y="-267.96" style="text-anchor:middle;dominant-baseline:middle;font-family:Tahoma;font-size:13.5px;fill:#FF0000">
<tspan x="245.53" dy="0">7</tspan>
</text>
<text id="kcore2-b-2-text" y="-247.22" style="text-anchor:middle;dominant-baseline:middle;font-family:Tahoma;font-size:13.5px;fill:#FF0000">
<tspan x="309.52" dy="0">3</tspan>
</text>
<text id="kcore2-b-3-text" y="-226.48" style="text-anchor:middle;dominant-baseline:middle;font-family:Tahoma;font-size:13.5px;fill:#FF0000">
<tspan x="266.86" dy="0">4</tspan>
</text>
<text id="kcore2-b-4-text" y="-205.74" style="text-anchor:middle;dominant-baseline:middle;font-family:Tahoma;font-size:13.5px;fill:#FF0000">
<tspan x="309.52" dy="0">6</tspan>
</text>
<text id="kcore2-b-5-text" y="-185" style="text-anchor:middle;dominant-baseline:middle;font-family:Tahoma;font-size:13.5px;fill:#FF0000">
<tspan x="288.19" dy="0">10</tspan>
</text>
<rect id="kcore3-1-rect" style="fill:none;fill-opacity:0.3" stroke="#8B4C39" stroke-dasharray="1 1" stroke-width="0.2" x="-152.35" y="-127.97" width="287.01" height="235.2" />
<text id="kcore3-1-text" y="-10.37" style="text-anchor:middle;dominant-baseline:middle;font-family:Tahoma;font-size:10.5px;fill:transparent">
</text>
<text id="kcore3-1-text" y="0" transform="rotate(-90 -121.39 0)" style="text-anchor:start;dominant-baseline:baseline;font-family:Tahoma;font-size:15px;fill:#8B4C39">
<tspan x="-121.39" dy="0">3-shell</tspan>
</text>
<rect id="kcore2-1-rect" style="fill:none;fill-opacity:0.3" stroke="#AC5E46" stroke-dasharray="1 1" stroke-width="0.2" x="216.02" y="-325.33" width="130.66" height="667.57" />
<text id="kcore2-1-text" y="8.46" style="text-anchor:middle;dominant-baseline:middle;font-family:Tahoma;font-size:10.5px;fill:transparent">
</text>
<text id="kcore2-1-text" y="-304.59" style="text-anchor:start;dominant-baseline:baseline;font-family:Tahoma;font-size:15px;fill:#AC5E46">
<tspan x="266.61" dy="0">2-shell</tspan>
</text>
<rect id="fat-kcore1-a-1-rect" style="fill:#00008B;fill-opacity:0.11" stroke="transparent" stroke-dasharray="0" stroke-width="0.5" x="-383.33" y="23.7" width="18.81" height="18.81" />
<text id="fat-kcore1-a-1-text" y="33.11" style="text-anchor:start;dominant-baseline:baseline;font-family:Tahoma;font-size:12px;fill:#00008B">
<tspan x="-373.93" dy="0"> 1 </tspan>
<tspan x="-373.93" dy="16.8"> 7</tspan>
</text>
<rect id="edge-kcore1-b-11-1-rect" style="fill:#FF0000;fill-opacity:0.11" stroke="transparent" stroke-dasharray="0" stroke-width="0.5" x="455.48" y="156.43" width="14.75" height="14.75" />
<text id="edge-kcore1-b-11-1-text" y="163.8" style="text-anchor:middle;dominant-baseline:middle;font-family:Tahoma;font-size:12px;fill:#FF0000">
<tspan x="462.85" dy="0"> 9</tspan>
</text>
<rect id="weird-chains-kcore1-a-1-1-rect" style="fill:#00008B;fill-opacity:0.2" stroke="transparent" stroke-dasharray="0" stroke-width="0.5" x="-453.76" y="267.74" width="19.66" height="19.66" />
<text id="weird-chains-kcore1-a-1-1-text" y="277.57" style="text-anchor:middle;dominant-baseline:middle;font-family:Tahoma;font-size:12px;fill:#00008B">
<tspan x="-443.93" dy="0"> 9</tspan>
</text>
<rect id="weird-chains-kcore1-b-2-1-rect" style="fill:#FF0000;fill-opacity:0.2" stroke="transparent" stroke-dasharray="0" stroke-width="0.5" x="-512.73" y="336.87" width="19.66" height="19.65" />
<text id="weird-chains-kcore1-b-2-1-text" y="346.7" style="text-anchor:middle;dominant-baseline:middle;font-family:Tahoma;font-size:12px;fill:#FF0000">
<tspan x="-502.9" dy="0"> 8</tspan>
</text>
<rect id="annotation-1-rect" style="fill:none;fill-opacity:0.5" stroke="transparent" stroke-dasharray="0" stroke-width="0.5" x="589.74" y="-0.02" width="0.0299999999999727" height="0.02" />
<text id="annotation-1-text" y="-0.01" style="text-anchor:middle;dominant-baseline:middle;font-family:Tahoma;font-size:10.5px;fill:transparent">
</text>
<text id="annotation-1-text" y="0" style="text-anchor:middle;dominant-baseline:middle;font-family:Tahoma;font-size:3px;fill:red">
<tspan x="589.74" dy="0">.</tspan>
</text>
<text id="annotation-1-text" y="0" style="text-anchor:middle;dominant-baseline:middle;font-family:Tahoma;font-size:3px;fill:red">
<tspan x="-245.73" dy="0">.</tspan>
</text>
<g id="link-1-segment" fill="none" stroke="#888888" stroke-dasharray="0" stroke-width="1.35" stroke-opacity="0.5">
<path d="M-364.52 33.11 L-108.12 64.09"/>
</g>
<g id="link-2-segment" fill="none" stroke="#888888" stroke-dasharray="0" stroke-width="1.35" stroke-opacity="0.5">
<path d="M-72.74 -34.6 L-72.74 34.6"/>
</g>
<g id="link-3-segment" fill="none" stroke="#888888" stroke-dasharray="0" stroke-width="1.35" stroke-opacity="0.5">
<path d="M-72.74 -34.6 L5.9 34.6"/>
</g>
<g id="link-4-segment" fill="none" stroke="#888888" stroke-dasharray="0" stroke-width="1.35" stroke-opacity="0.5">
<path d="M-72.74 -34.6 L84.53 34.6"/>
</g>
<g id="link-5-segment" fill="none" stroke="#888888" stroke-dasharray="0" stroke-width="1.35" stroke-opacity="0.5">
<path d="M5.9 -34.6 L-72.74 34.6"/>
</g>
<g id="link-6-segment" fill="none" stroke="#888888" stroke-dasharray="0" stroke-width="1.35" stroke-opacity="0.5">
<path d="M5.9 -34.6 L5.9 34.6"/>
</g>
<g id="link-7-segment" fill="none" stroke="#888888" stroke-dasharray="0" stroke-width="1.35" stroke-opacity="0.5">
<path d="M5.9 -34.6 L84.53 34.6"/>
</g>
<g id="link-8-segment" fill="none" stroke="#888888" stroke-dasharray="0" stroke-width="1.35" stroke-opacity="0.5">
<path d="M84.53 -34.6 L-72.74 34.6"/>
</g>
<g id="link-9-segment" fill="none" stroke="#888888" stroke-dasharray="0" stroke-width="1.35" stroke-opacity="0.5">
<path d="M84.53 -34.6 L5.9 34.6"/>
</g>
<g id="link-10-segment" fill="none" stroke="#888888" stroke-dasharray="0" stroke-width="1.35" stroke-opacity="0.5">
<path d="M84.53 -34.6 L84.53 34.6"/>
</g>
<g id="link-11-segment" fill="none" stroke="#888888" stroke-dasharray="0" stroke-width="1.35" stroke-opacity="0.5">
<path d="M233.5 304.22 L270.14 -197.1"/>
</g>
<g id="link-12-segment" fill="none" stroke="#888888" stroke-dasharray="0" stroke-width="1.35" stroke-opacity="0.5">
<path d="M242.87 283.48 L230.76 -259.31"/>
</g>
<g id="link-13-segment" fill="none" stroke="#888888" stroke-dasharray="0" stroke-width="1.35" stroke-opacity="0.5">
<path d="M242.87 283.48 L283.27 -176.36"/>
</g>
<g id="link-14-segment" fill="none" stroke="#888888" stroke-dasharray="0" stroke-width="1.35" stroke-opacity="0.5">
<path d="M252.25 262.75 L243.89 -238.58"/>
</g>
<g id="link-15-segment" fill="none" stroke="#888888" stroke-dasharray="0" stroke-width="1.35" stroke-opacity="0.5">
<path d="M252.25 262.75 L270.14 -197.1"/>
</g>
<g id="link-16-segment" fill="none" stroke="#888888" stroke-dasharray="0" stroke-width="1.35" stroke-opacity="0.5">
<path d="M261.62 242.01 L243.89 -238.58"/>
</g>
<g id="link-17-segment" fill="none" stroke="#888888" stroke-dasharray="0" stroke-width="1.35" stroke-opacity="0.5">
<path d="M261.62 242.01 L257.01 -217.84"/>
</g>
<g id="link-18-segment" fill="none" stroke="#888888" stroke-dasharray="0" stroke-width="1.35" stroke-opacity="0.5">
<path d="M271 221.27 L243.89 -238.58"/>
</g>
<g id="link-19-segment" fill="none" stroke="#888888" stroke-dasharray="0" stroke-width="1.35" stroke-opacity="0.5">
<path d="M271 221.27 L257.01 -217.84"/>
</g>
<g id="link-20-segment" fill="none" stroke="#888888" stroke-dasharray="0" stroke-width="1.35" stroke-opacity="0.5">
<path d="M280.37 200.53 L257.01 -217.84"/>
</g>
<g id="link-21-segment" fill="none" stroke="#888888" stroke-dasharray="0" stroke-width="1.35" stroke-opacity="0.5">
<path d="M280.37 200.53 L283.27 -176.36"/>
</g>
<g id="link-22-segment" fill="none" stroke="#888888" stroke-dasharray="0" stroke-width="1.35" stroke-opacity="0.5">
<path d="M289.75 179.79 L230.76 -259.31"/>
</g>
<g id="link-1-path" fill="none" stroke="#888888" stroke-dasharray="0" stroke-width="1.35" stroke-opacity="0.5">
<path d="M322.56 229.91  L329.56 229.73 L336.56 229.17 L343.55 227.97 L350.55 226.22 L357.54 224.02 L364.54 221.42 L371.53 218.44 L378.53 215.11 L385.53 211.46 L392.52 207.52 L399.52 203.32 L406.51 198.89 L413.51 194.25 L420.5 189.44 L427.5 184.49 L434.5 179.42 L441.49 174.26 L448.49 169.05 L455.48 163.8"/>
</g>
<g id="link-2-path" fill="none" stroke="#888888" stroke-dasharray="0" stroke-width="1.35" stroke-opacity="0.5">
<path d="M-72.74 86.5  L-56.62 104.59 L-40.5 122.12 L-24.38 138.5 L-8.27 153.17 L7.85 165.55 L23.97 175.43 L40.09 183.23 L56.2 189.49 L72.32 194.72 L88.44 199.45 L104.56 204.19 L120.67 209.46 L136.79 215.78 L152.91 223.68 L169.03 233.67 L185.14 246.26 L201.26 261.99 L217.38 281.38 L233.5 304.22"/>
</g>
<g id="link-3-path" fill="none" stroke="#888888" stroke-dasharray="0" stroke-width="1.35" stroke-opacity="0.5">
<path d="M5.9 74.39  L17.88 93.49 L29.86 111.99 L41.83 129.29 L53.81 144.77 L65.79 157.84 L77.77 168.26 L89.75 176.5 L101.73 183.11 L113.71 188.63 L125.69 193.62 L137.67 198.63 L149.64 204.19 L161.62 210.86 L173.6 219.2 L185.58 229.74 L197.56 243.04 L209.54 259.65 L221.52 280.11 L233.5 304.22"/>
</g>
<g id="link-4-path" fill="none" stroke="#888888" stroke-dasharray="0" stroke-width="1.35" stroke-opacity="0.5">
<path d="M-72.74 86.5  L-56.12 102.87 L-39.51 118.73 L-22.9 133.55 L-6.29 146.82 L10.32 158.02 L26.93 166.95 L43.54 174.02 L60.15 179.68 L76.76 184.42 L93.37 188.69 L109.99 192.98 L126.6 197.75 L143.21 203.47 L159.82 210.61 L176.43 219.65 L193.04 231.05 L209.65 245.28 L226.26 262.81 L242.87 283.48"/>
</g>
<g id="link-5-path" fill="none" stroke="#888888" stroke-dasharray="0" stroke-width="1.35" stroke-opacity="0.5">
<path d="M5.9 74.39  L18.37 91.77 L30.84 108.6 L43.31 124.33 L55.79 138.42 L68.26 150.31 L80.73 159.79 L93.2 167.29 L105.68 173.3 L118.15 178.33 L130.62 182.86 L143.09 187.42 L155.57 192.48 L168.04 198.55 L180.51 206.13 L192.98 215.72 L205.46 227.82 L217.93 242.93 L230.4 261.54 L242.87 283.48"/>
</g>
<g id="link-6-path" fill="none" stroke="#888888" stroke-dasharray="0" stroke-width="1.35" stroke-opacity="0.5">
<path d="M-72.74 86.5  L-55.63 101.15 L-38.53 115.33 L-21.42 128.6 L-4.32 140.47 L12.79 150.49 L29.89 158.48 L47 164.8 L64.1 169.87 L81.2 174.11 L98.31 177.93 L115.41 181.77 L132.52 186.04 L149.62 191.15 L166.73 197.55 L183.83 205.63 L200.93 215.83 L218.04 228.56 L235.14 244.25 L252.25 262.75"/>
</g>
<g id="link-7-path" fill="none" stroke="#888888" stroke-dasharray="0" stroke-width="1.35" stroke-opacity="0.5">
<path d="M5.9 74.39  L18.86 90.04 L31.83 105.21 L44.79 119.38 L57.76 132.07 L70.73 142.78 L83.69 151.32 L96.66 158.07 L109.62 163.49 L122.59 168.02 L135.56 172.11 L148.52 176.2 L161.49 180.76 L174.45 186.24 L187.42 193.07 L200.38 201.71 L213.35 212.61 L226.32 226.21 L239.28 242.98 L252.25 262.75"/>
</g>
<g id="link-8-path" fill="none" stroke="#888888" stroke-dasharray="0" stroke-width="1.35" stroke-opacity="0.5">
<path d="M-72.74 86.5  L-55.14 99.42 L-37.54 111.94 L-19.94 123.64 L-2.34 134.12 L15.25 142.96 L32.85 150.01 L50.45 155.59 L68.05 160.06 L85.65 163.8 L103.24 167.17 L120.84 170.56 L138.44 174.32 L156.04 178.84 L173.63 184.48 L191.23 191.61 L208.83 200.61 L226.43 211.85 L244.03 225.69 L261.62 242.01"/>
</g>
<g id="link-9-path" fill="none" stroke="#888888" stroke-dasharray="0" stroke-width="1.35" stroke-opacity="0.5">
<path d="M-72.74 86.5  L-54.64 97.7 L-36.55 108.55 L-18.46 118.69 L-0.37 127.77 L17.72 135.43 L35.81 141.54 L53.9 146.38 L72 150.25 L90.09 153.49 L108.18 156.42 L126.27 159.35 L144.36 162.61 L162.45 166.53 L180.54 171.41 L198.63 177.59 L216.73 185.39 L234.82 195.13 L252.91 207.13 L271 221.27"/>
</g>
<g id="link-10-path" fill="none" stroke="#888888" stroke-dasharray="0" stroke-width="1.35" stroke-opacity="0.5">
<path d="M-72.74 86.5  L-54.15 95.97 L-35.57 105.15 L-16.98 113.73 L1.6 121.42 L20.19 127.9 L38.77 133.07 L57.36 137.16 L75.94 140.44 L94.53 143.18 L113.11 145.66 L131.7 148.14 L150.28 150.9 L168.87 154.21 L187.45 158.35 L206.04 163.58 L224.62 170.18 L243.2 178.41 L261.79 188.57 L280.37 200.53"/>
</g>
<g id="link-11-path" fill="none" stroke="#888888" stroke-dasharray="0" stroke-width="1.35" stroke-opacity="0.5">
<path d="M5.9 74.39  L20.84 83.15 L35.78 91.63 L50.72 99.56 L65.66 106.66 L80.6 112.66 L95.54 117.44 L110.47 121.22 L125.41 124.25 L140.35 126.78 L155.29 129.07 L170.23 131.36 L185.17 133.92 L200.11 136.98 L215.05 140.8 L229.99 145.63 L244.93 151.73 L259.87 159.35 L274.81 168.73 L289.75 179.79"/>
</g>
<g id="link-12-path" fill="none" stroke="#888888" stroke-dasharray="0" stroke-width="1.35" stroke-opacity="0.5">
<path d="M-72.74 -86.5  L-56.76 -104.63 L-40.79 -120.01 L-24.81 -132.5 L-8.84 -142.5 L7.13 -150.43 L23.11 -156.69 L39.08 -161.71 L55.05 -165.9 L71.03 -169.66 L87 -173.41 L102.97 -177.56 L118.95 -182.53 L134.92 -188.73 L150.89 -196.56 L166.87 -206.39 L182.84 -218.03 L198.82 -231.04 L214.79 -244.95 L230.76 -259.31"/>
</g>
<g id="link-13-path" fill="none" stroke="#888888" stroke-dasharray="0" stroke-width="1.35" stroke-opacity="0.5">
<path d="M-434.1 267.74  L-415.08 261.11 L-396.06 254.43 L-377.04 247.65 L-358.02 240.72 L-339 233.6 L-319.98 226.23 L-300.96 218.57 L-281.95 210.57 L-262.93 202.17 L-243.91 193.34 L-224.89 184.02 L-205.87 174.15 L-186.85 163.7 L-167.83 152.62 L-148.81 140.85 L-129.79 128.34 L-110.77 115.06 L-91.75 101 L-72.74 86.5"/>
</g>
<g id="link-14-path" fill="none" stroke="#888888" stroke-dasharray="0" stroke-width="1.35" stroke-opacity="0.5">
<path d="M-493.07 346.7  L-491 344.17 L-488.93 341.62 L-486.87 339.03 L-484.8 336.39 L-482.73 333.67 L-480.66 330.86 L-478.59 327.94 L-476.52 324.89 L-474.45 321.69 L-472.38 318.32 L-470.31 314.76 L-468.24 311 L-466.17 307.02 L-464.1 302.79 L-462.03 298.3 L-459.96 293.53 L-457.9 288.46 L-455.83 283.1 L-453.76 277.57"/>
</g>
</svg>