<svg xmlns="http://www.w3.org/2000/svg" viewBox="-450 -430 1160 790">
<rect id="kcore4-a-1-rect" style="fill:#00008B;fill-opacity:0.2" stroke="transparent" stroke-dasharray="0" stroke-width="0.5" x="-166.62" y="-128.62" width="31.57" height="77.17" />
<rect id="kcore4-a-2-rect" style="fill:#4169E1;fill-opacity:0.2" stroke="transparent" stroke-dasharray="0" stroke-width="0.5" x="-131.54" y="-121.86" width="31.57" height="70.41" />
<rect id="kcore4-a-3-rect" style="fill:#00008B;fill-opacity:0.2" stroke="transparent" stroke-dasharray="0" stroke-width="0.5" x="-96.46" y="-115.11" width="31.57" height="63.66" />
<rect id="kcore4-a-4-rect" style="fill:#4169E1;fill-opacity:0.2" stroke="transparent" stroke-dasharray="0" stroke-width="0.5" x="-61.38" y="-108.36" width="31.56" height="56.91" />
<rect id="kcore4-a-5-rect" style="fill:#00008B;fill-opacity:0.2" stroke="transparent" stroke-dasharray="0" stroke-width="0.5" x="-26.31" y="-101.61" width="31.57" height="50.16" />
<rect id="kcore4-a-6-rect" style="fill:#4169E1;fill-opacity:0.2" stroke="transparent" stroke-dasharray="0" stroke-width="0.5" x="8.77" y="-94.85" width="31.57" height="43.4" />
<rect id="kcore4-a-7-rect" style="fill:#00008B;fill-opacity:0.2" stroke="transparent" stroke-dasharray="0" stroke-width="0.5" x="43.85" y="-88.1" width="31.57" height="36.65" />
<rect id="kcore4-a-8-rect" style="fill:#4169E1;fill-opacity:0.2" stroke="transparent" stroke-dasharray="0" stroke-width="0.5" x="78.92" y="-81.35" width="31.57" height="29.9" />
<text id="kcore4-a-1-text" y="-90.03" style="text-anchor:middle;dominant-baseline:middle;font-family:Tahoma;font-size:15px;fill:#00008B">
<tspan x="-150.83" dy="0">1</tspan>
</text>
<text id="kcore4-a-2-text" y="-86.65" style="text-anchor:middle;dominant-baseline:middle;font-family:Tahoma;font-size:15px;fill:#00008B">
<tspan x="-115.75" dy="0">3</tspan>
</text>
<text id="kcore4-a-3-text" y="-83.28" style="text-anchor:middle;dominant-baseline:middle;font-family:Tahoma;font-size:15px;fill:#00008B">
<tspan x="-80.68" dy="0">2</tspan>
</text>
<text id="kcore4-a-4-text" y="-79.9" style="text-anchor:middle;dominant-baseline:middle;font-family:Tahoma;font-size:15px;fill:#00008B">
<tspan x="-45.6" dy="0">5</tspan>
</text>
<text id="kcore4-a-5-text" y="-76.53" style="text-anchor:middle;dominant-baseline:middle;font-family:Tahoma;font-size:15px;fill:#00008B">
<tspan x="-10.52" dy="0">6</tspan>
</text>
<text id="kcore4-a-6-text" y="-73.15" style="text-anchor:middle;dominant-baseline:middle;font-family:Tahoma;font-size:15px;fill:#00008B">
<tspan x="24.55" dy="0">7</tspan>
</text>
<text id="kcore4-a-7-text" y="-69.77" style="text-anchor:middle;dominant-baseline:middle;font-family:Tahoma;font-size:15px;fill:#00008B">
<tspan x="59.63" dy="0">9</tspan>
</text>
<text id="kcore4-a-8-text" y="-66.4" style="text-anchor:middle;dominant-baseline:middle;font-family:Tahoma;font-size:15px;fill:#00008B">
<tspan x="94.71" dy="0">10</tspan>
</text>
<rect id="kcore4-b-1-rect" style="fill:#FF0000;fill-opacity:0.2" stroke="transparent" stroke-dasharray="0" stroke-width="0.5" x="-166.62" y="51.45" width="22.96" height="77.17" />
<rect id="kcore4-b-2-rect" style="fill:#F08080;fill-opacity:0.2" stroke="transparent" stroke-dasharray="0" stroke-width="0.5" x="-141.1" y="51.45" width="22.95" height="72.25" />
<rect id="kcore4-b-3-rect" style="fill:#FF0000;fill-opacity:0.2" stroke="transparent" stroke-dasharray="0" stroke-width="0.5" x="-115.59" y="51.45" width="22.96" height="67.34" />
<rect id="kcore4-b-4-rect" style="fill:#F08080;fill-opacity:0.2" stroke="transparent" stroke-dasharray="0" stroke-width="0.5" x="-90.08" y="51.45" width="22.96" height="62.43" />
<rect id="kcore4-b-5-rect" style="fill:#FF0000;fill-opacity:0.2" stroke="transparent" stroke-dasharray="0" stroke-width="0.5" x="-64.57" y="51.45" width="22.96" height="57.52" />
<rect id="kcore4-b-6-rect" style="fill:#F08080;fill-opacity:0.2" stroke="transparent" stroke-dasharray="0" stroke-width="0.5" x="-39.06" y="51.45" width="22.96" height="52.61" />
<rect id="kcore4-b-7-rect" style="fill:#FF0000;fill-opacity:0.2" stroke="transparent" stroke-dasharray="0" stroke-width="0.5" x="-13.55" y="51.45" width="22.96" height="47.7" />
<rect id="kcore4-b-8-rect" style="fill:#F08080;fill-opacity:0.2" stroke="transparent" stroke-dasharray="0" stroke-width="0.5" x="11.96" y="51.45" width="22.96" height="42.79" />
<rect id="kcore4-b-9-rect" style="fill:#FF0000;fill-opacity:0.2" stroke="transparent" stroke-dasharray="0" stroke-width="0.5" x="37.47" y="51.45" width="22.96" height="37.88" />
<rect id="kcore4-b-10-rect" style="fill:#F08080;fill-opacity:0.2" stroke="transparent" stroke-dasharray="0" stroke-width="0.5" x="62.98" y="51.45" width="22.96" height="32.97" />
<rect id="kcore4-b-11-rect" style="fill:#FF0000;fill-opacity:0.2" stroke="transparent" stroke-dasharray="0" stroke-width="0.5" x="88.49" y="51.45" width="22.96" height="28.06" />
<text id="kcore4-b-1-text" y="90.03" style="text-anchor:middle;dominant-baseline:middle;font-family:Tahoma;font-size:15px;fill:#FF0000">
<tspan x="-155.14" dy="0">1</tspan>
</text>
<text id="kcore4-b-2-text" y="87.58" style="text-anchor:middle;dominant-baseline:middle;font-family:Tahoma;font-size:15px;fill:#FF0000">
<tspan x="-129.63" dy="0">3</tspan>
</text>
<text id="kcore4-b-3-text" y="85.12" style="text-anchor:middle;dominant-baseline:middle;font-family:Tahoma;font-size:15px;fill:#FF0000">
<tspan x="-104.11" dy="0">2</tspan>
</text>
<text id="kcore4-b-4-text" y="82.66" style="text-anchor:middle;dominant-baseline:middle;font-family:Tahoma;font-size:15px;fill:#FF0000">
<tspan x="-78.6" dy="0">4</tspan>
</text>
<text id="kcore4-b-5-text" y="80.21" style="text-anchor:middle;dominant-baseline:middle;font-family:Tahoma;font-size:15px;fill:#FF0000">
<tspan x="-53.09" dy="0">5</tspan>
</text>
<text id="kcore4-b-6-text" y="77.75" style="text-anchor:middle;dominant-baseline:middle;font-family:Tahoma;font-size:15px;fill:#FF0000">
<tspan x="-27.58" dy="0">7</tspan>
</text>
<text id="kcore4-b-7-text" y="75.3" style="text-anchor:middle;dominant-baseline:middle;font-family:Tahoma;font-size:15px;fill:#FF0000">
<tspan x="-2.07" dy="0">6</tspan>
</text>
<text id="kcore4-b-8-text" y="72.84" style="text-anchor:middle;dominant-baseline:middle;font-family:Tahoma;font-size:15px;fill:#FF0000">
<tspan x="23.44" dy="0">10</tspan>
</text>
<text id="kcore4-b-9-text" y="70.39" style="text-anchor:middle;dominant-baseline:middle;font-family:Tahoma;font-size:15px;fill:#FF0000">
<tspan x="48.95" dy="0">11</tspan>
</text>
<text id="kcore4-b-10-text" y="67.93" style="text-anchor:middle;dominant-baseline:middle;font-family:Tahoma;font-size:15px;fill:#FF0000">
<tspan x="74.46" dy="0">8</tspan>
</text>
<text id="kcore4-b-11-text" y="65.48" style="text-anchor:middle;dominant-baseline:middle;font-family:Tahoma;font-size:15px;fill:#FF0000">
<tspan x="99.97" dy="0">9</tspan>
</text>
<rect id="kcore3-a-1-rect" style="fill:#00008B;fill-opacity:0.2" stroke="transparent" stroke-dasharray="0" stroke-width="0.5" x="191.7" y="269.22" width="65.24" height="11.99" />
<rect id="kcore3-a-2-rect" style="fill:#4169E1;fill-opacity:0.2" stroke="transparent" stroke-dasharray="0" stroke-width="0.5" x="212.08" y="254.83" width="34.66" height="11.99" />
<text id="kcore3-a-1-text" y="275.22" style="text-anchor:middle;dominant-baseline:middle;font-family:Tahoma;font-size:13.5px;fill:#00008B">
<tspan x="243.89" dy="0">4</tspan>
</text>
<text id="kcore3-a-2-text" y="260.83" style="text-anchor:middle;dominant-baseline:middle;font-family:Tahoma;font-size:13.5px;fill:#00008B">
<tspan x="217.28" dy="0">8</tspan>
</text>
<rect id="kcore3-b-1-rect" style="fill:#FF0000;fill-opacity:0.2" stroke="transparent" stroke-dasharray="0" stroke-width="0.5" x="175.38" y="-362.76" width="81.56" height="11.99" />
<rect id="kcore3-b-2-rect" style="fill:#F08080;fill-opacity:0.2" stroke="transparent" stroke-dasharray="0" stroke-width="0.5" x="182.18" y="-348.37" width="71.36" height="11.99" />
<rect id="kcore3-b-3-rect" style="fill:#FF0000;fill-opacity:0.2" stroke="transparent" stroke-dasharray="0" stroke-width="0.5" x="188.98" y="-333.98" width="61.16" height="11.99" />
<rect id="kcore3-b-4-rect" style="fill:#F08080;fill-opacity:0.2" stroke="transparent" stroke-dasharray="0" stroke-width="0.5" x="195.77" y="-319.59" width="50.97" height="11.99" />
<rect id="kcore3-b-5-rect" style="fill:#FF0000;fill-opacity:0.2" stroke="transparent" stroke-dasharray="0" stroke-width="0.5" x="202.57" y="-305.2" width="40.78" height="11.99" />
<rect id="kcore3-b-6-rect" style="fill:#F08080;fill-opacity:0.2" stroke="transparent" stroke-dasharray="0" stroke-width="0.5" x="209.37" y="-290.81" width="30.58" height="11.99" />
<text id="kcore3-b-1-text" y="-356.77" style="text-anchor:middle;dominant-baseline:middle;font-family:Tahoma;font-size:13.5px;fill:#FF0000">
<tspan x="240.63" dy="0">17</tspan>
</text>
<text id="kcore3-b-2-text" y="-342.37" style="text-anchor:middle;dominant-baseline:middle;font-family:Tahoma;font-size:13.5px;fill:#FF0000">
<tspan x="192.88" dy="0">12</tspan>
</text>
<text id="kcore3-b-3-text" y="-327.98" style="text-anchor:middle;dominant-baseline:middle;font-family:Tahoma;font-size:13.5px;fill:#FF0000">
<tspan x="237.91" dy="0">13</tspan>
</text>
<text id="kcore3-b-4-text" y="-313.59" style="text-anchor:middle;dominant-baseline:middle;font-family:Tahoma;font-size:13.5px;fill:#FF0000">
<tspan x="203.42" dy="0">14</tspan>
</text>
<text id="kcore3-b-5-text" y="-299.2" style="text-anchor:middle;dominant-baseline:middle;font-family:Tahoma;font-size:13.5px;fill:#FF0000">
<tspan x="235.19" dy="0">15</tspan>
</text>
<text id="kcore3-b-6-text" y="-284.81" style="text-anchor:middle;dominant-baseline:middle;font-family:Tahoma;font-size:13.5px;fill:#FF0000">
<tspan x="213.95" dy="0">16</tspan>
</text>
<rect id="kcore2-a-1-rect" style="fill:#00008B;fill-opacity:0.2" stroke="transparent" stroke-dasharray="0" stroke-width="0.5" x="374.11" y="127.48" width="80.03" height="11.99" />
<text id="kcore2-a-1-text" y="133.47" style="text-anchor:middle;dominant-baseline:middle;font-family:Tahoma;font-size:13.5px;fill:#00008B">
<tspan x="386.11" dy="0">11</tspan>
</text>
<rect id="kcore2-b-1-rect" style="fill:#FF0000;fill-opacity:0.2" stroke="transparent" stroke-dasharray="0" stroke-width="0.5" x="383" y="-248.54" width="80.03" height="12" />
<rect id="kcore2-b-2-rect" style="fill:#F08080;fill-opacity:0.2" stroke="transparent" stroke-dasharray="0" stroke-width="0.5" x="388.93" y="-234.15" width="72.62" height="12" />
<rect id="kcore2-b-3-rect" style="fill:#FF0000;fill-opacity:0.2" stroke="transparent" stroke-dasharray="0" stroke-width="0.5" x="394.86" y="-219.76" width="65.21" height="12" />
<rect id="kcore2-b-4-rect" style="fill:#F08080;fill-opacity:0.2" stroke="transparent" stroke-dasharray="0" stroke-width="0.5" x="400.79" y="-205.36" width="57.79" height="11.99" />
<rect id="kcore2-b-5-rect" style="fill:#FF0000;fill-opacity:0.2" stroke="transparent" stroke-dasharray="0" stroke-width="0.5" x="406.71" y="-190.97" width="50.39" height="11.99" />
<rect id="kcore2-b-6-rect" style="fill:#F08080;fill-opacity:0.2" stroke="transparent" stroke-dasharray="0" stroke-width="0.5" x="412.64" y="-176.58" width="42.98" height="11.99" />
<rect id="kcore2-b-7-rect" style="fill:#FF0000;fill-opacity:0.2" stroke="transparent" stroke-dasharray="0" stroke-width="0.5" x="418.57" y="-162.19" width="35.57" height="11.99" />
<rect id="kcore2-b-8-rect" style="fill:#F08080;fill-opacity:0.2" stroke="transparent" stroke-dasharray="0" stroke-width="0.5" x="424.5" y="-147.8" width="28.16" height="11.99" />
<rect id="kcore2-b-9-rect" style="fill:#FF0000;fill-opacity:0.2" stroke="transparent" stroke-dasharray="0" stroke-width="0.5" x="430.43" y="-133.41" width="20.74" height="11.99" />
<text id="kcore2-b-1-text" y="-242.54" style="text-anchor:middle;dominant-baseline:middle;font-family:Tahoma;font-size:13.5px;fill:#FF0000">
<tspan x="395.01" dy="0">18</tspan>
</text>
<text id="kcore2-b-2-text" y="-228.15" style="text-anchor:middle;dominant-baseline:middle;font-family:Tahoma;font-size:13.5px;fill:#FF0000">
<tspan x="447.03" dy="0">19</tspan>
</text>
<text id="kcore2-b-3-text" y="-213.76" style="text-anchor:middle;dominant-baseline:middle;font-family:Tahoma;font-size:13.5px;fill:#FF0000">
<tspan x="404.64" dy="0">21</tspan>
</text>
<text id="kcore2-b-4-text" y="-199.37" style="text-anchor:middle;dominant-baseline:middle;font-family:Tahoma;font-size:13.5px;fill:#FF0000">
<tspan x="447.03" dy="0">23</tspan>
</text>
<text id="kcore2-b-5-text" y="-184.98" style="text-anchor:middle;dominant-baseline:middle;font-family:Tahoma;font-size:13.5px;fill:#FF0000">
<tspan x="414.27" dy="0">24</tspan>
</text>
<text id="kcore2-b-6-text" y="-170.59" style="text-anchor:middle;dominant-baseline:middle;font-family:Tahoma;font-size:13.5px;fill:#FF0000">
<tspan x="447.03" dy="0">20</tspan>
</text>
<text id="kcore2-b-7-text" y="-156.2" style="text-anchor:middle;dominant-baseline:middle;font-family:Tahoma;font-size:13.5px;fill:#FF0000">
<tspan x="423.91" dy="0">22</tspan>
</text>
<text id="kcore2-b-8-text" y="-141.81" style="text-anchor:middle;dominant-baseline:middle;font-family:Tahoma;font-size:13.5px;fill:#FF0000">
<tspan x="447.03" dy="0">25</tspan>
</text>
<text id="kcore2-b-9-text" y="-127.42" style="text-anchor:middle;dominant-baseline:middle;font-family:Tahoma;font-size:13.5px;fill:#FF0000">
<tspan x="433.54" dy="0">26</tspan>
</text>
<rect id="kcore4-1-rect" style="fill:none;fill-opacity:0.3" stroke="#8B4C39" stroke-dasharray="1 1" stroke-width="0.2" x="-220.58" y="-157.4" width="350.02" height="300.41" />
<text id="kcore4-1-text" y="-7.2" style="text-anchor:middle;dominant-baseline:middle;font-family:Tahoma;font-size:10.5px;fill:transparent">
</text>
<text id="kcore4-1-text" y="0" transform="rotate(-90 -182.8 0)" style="text-anchor:start;dominant-baseline:baseline;font-family:Tahoma;font-size:15px;fill:#8B4C39">
<tspan x="-182.8" dy="0">4-shell</tspan>
</text>
<rect id="kcore3-1-rect" style="fill:none;fill-opacity:0.3" stroke="#A15842" stroke-dasharray="1 1" stroke-width="0.2" x="157.4" y="-403.05" width="117.53" height="698.66" />
<text id="kcore3-1-text" y="-53.72" style="text-anchor:middle;dominant-baseline:middle;font-family:Tahoma;font-size:10.5px;fill:transparent">
</text>
<text id="kcore3-1-text" y="-388.66" style="text-anchor:start;dominant-baseline:baseline;font-family:Tahoma;font-size:15px;fill:#A15842">
<tspan x="198.17" dy="0">3-shell</tspan>
</text>
<rect id="kcore2-1-rect" style="fill:none;fill-opacity:0.3" stroke="#B7644B" stroke-dasharray="1 1" stroke-width="0.2" x="356.12" y="-288.83" width="124.9" height="442.69" />
<text id="kcore2-1-text" y="-67.49" style="text-anchor:middle;dominant-baseline:middle;font-family:Tahoma;font-size:10.5px;fill:transparent">
</text>
<text id="kcore2-1-text" y="-274.44" style="text-anchor:start;dominant-baseline:baseline;font-family:Tahoma;font-size:15px;fill:#B7644B">
<tspan x="400.58" dy="0">2-shell</tspan>
</text>
<rect id="edge-kcore1-b-10-1-rect" style="fill:#FF0000;fill-opacity:0.11" stroke="transparent" stroke-dasharray="0" stroke-width="0.5" x="-69.42" y="-279.18" width="17.99" height="17.99" />
<text id="edge-kcore1-b-10-1-text" y="-270.18" transform="rotate(-30 -60.43 -270.18)" style="text-anchor:middle;dominant-baseline:middle;font-family:Tahoma;font-size:12px;fill:#FF0000">
<tspan x="-60.43" dy="0"> 27</tspan>
</text>
<rect id="edge-kcore1-b-9-1-rect" style="fill:#FF0000;fill-opacity:0.11" stroke="transparent" stroke-dasharray="0" stroke-width="0.5" x="-99.69" y="-288.24" width="17.99" height="17.99" />
<text id="edge-kcore1-b-9-1-text" y="-279.25" transform="rotate(-30 -90.69 -279.25)" style="text-anchor:middle;dominant-baseline:middle;font-family:Tahoma;font-size:12px;fill:#FF0000">
<tspan x="-90.69" dy="0"> 38</tspan>
</text>
<rect id="edge-kcore1-b-2-1-rect" style="fill:#FF0000;fill-opacity:0.11" stroke="transparent" stroke-dasharray="0" stroke-width="0.5" x="-134.34" y="-306.09" width="26.77" height="26.77" />
<text id="edge-kcore1-b-2-1-text" y="-292.7" transform="rotate(-30 -120.96 -292.7)" style="text-anchor:start;dominant-baseline:baseline;font-family:Tahoma;font-size:12px;fill:#FF0000">
<tspan x="-120.96" dy="0"> 29 32  33</tspan>
</text>
<rect id="fat-kcore1-b-1-rect" style="fill:#FF0000;fill-opacity:0.11" stroke="transparent" stroke-dasharray="0" stroke-width="0.5" x="-412.15" y="-64.87" width="26.76" height="26.77" />
<text id="fat-kcore1-b-1-text" y="-51.48" style="text-anchor:start;dominant-baseline:baseline;font-family:Tahoma;font-size:12px;fill:#FF0000">
<tspan x="-398.77" dy="0"> 31 35 </tspan>
<tspan x="-398.77" dy="16.8"> 36</tspan>
</text>
<rect id="edge-kcore1-b-8-1-rect" style="fill:#FF0000;fill-opacity:0.11" stroke="transparent" stroke-dasharray="0" stroke-width="0.5" x="334.44" y="275.22" width="17.98" height="17.99" />
<text id="edge-kcore1-b-8-1-text" y="284.21" style="text-anchor:middle;dominant-baseline:middle;font-family:Tahoma;font-size:12px;fill:#FF0000">
<tspan x="343.43" dy="0"> 30</tspan>
</text>
<rect id="edge-kcore1-b-4-1-rect" style="fill:#FF0000;fill-opacity:0.11" stroke="transparent" stroke-dasharray="0" stroke-width="0.5" x="334.44" y="300.4" width="26.76" height="26.77" />
<text id="edge-kcore1-b-4-1-text" y="313.79" style="text-anchor:start;dominant-baseline:baseline;font-family:Tahoma;font-size:12px;fill:#FF0000">
<tspan x="347.82" dy="0"> 28 34  37</tspan>
</text>
<rect id="annotation-1-rect" style="fill:none;fill-opacity:0.5" stroke="transparent" stroke-dasharray="0" stroke-width="0.5" x="701.54" y="-0.04" width="0.0400000000000773" height="0.04" />
<text id="annotation-1-text" y="-0.02" style="text-anchor:middle;dominant-baseline:middle;font-family:Tahoma;font-size:10.5px;fill:transparent">
</text>
<text id="annotation-1-text" y="0" style="text-anchor:middle;dominant-baseline:middle;font-family:Tahoma;font-size:3px;fill:red">
<tspan x="701.54" dy="0">.</tspan>
</text>
<text id="annotation-1-text" y="0" style="text-anchor:middle;dominant-baseline:middle;font-family:Tahoma;font-size:3px;fill:red">
<tspan x="-289.38" dy="0">.</tspan>
</text>
<g id="link-1-segment" fill="none" stroke="#888888" stroke-dasharray="0" stroke-width="0.75" stroke-opacity="0.5">
<path d="M-385.39 -51.48 L-166.62 -92.64"/>
</g>
<g id="link-2-segment" fill="none" stroke="#888888" stroke-dasharray="0" stroke-width="0.75" stroke-opacity="0.5">
<path d="M-150.83 -51.45 L-155.14 51.45"/>
</g>
<g id="link-3-segment" fill="none" stroke="#888888" stroke-dasharray="0" stroke-width="0.75" stroke-opacity="0.5">
<path d="M-150.83 -51.45 L-129.63 51.45"/>
</g>
<g id="link-4-segment" fill="none" stroke="#888888" stroke-dasharray="0" stroke-width="0.75" stroke-opacity="0.5">
<path d="M-150.83 -51.45 L-104.11 51.45"/>
</g>
<g id="link-5-segment" fill="none" stroke="#888888" stroke-dasharray="0" stroke-width="0.75" stroke-opacity="0.5">
<path d="M-150.83 -51.45 L-27.58 51.45"/>
</g>
<g id="link-6-segment" fill="none" stroke="#888888" stroke-dasharray="0" stroke-width="0.75" stroke-opacity="0.5">
<path d="M-150.83 -51.45 L-2.07 51.45"/>
</g>
<g id="link-7-segment" fill="none" stroke="#888888" stroke-dasharray="0" stroke-width="0.75" stroke-opacity="0.5">
<path d="M-150.83 -51.45 L23.44 51.45"/>
</g>
<g id="link-8-segment" fill="none" stroke="#888888" stroke-dasharray="0" stroke-width="0.75" stroke-opacity="0.5">
<path d="M-150.83 -51.45 L48.95 51.45"/>
</g>
<g id="link-9-segment" fill="none" stroke="#888888" stroke-dasharray="0" stroke-width="0.75" stroke-opacity="0.5">
<path d="M-150.83 -51.45 L74.46 51.45"/>
</g>
<g id="link-10-segment" fill="none" stroke="#888888" stroke-dasharray="0" stroke-width="0.75" stroke-opacity="0.5">
<path d="M-150.83 -51.45 L99.97 51.45"/>
</g>
<g id="link-11-segment" fill="none" stroke="#888888" stroke-dasharray="0" stroke-width="0.75" stroke-opacity="0.5">
<path d="M-115.75 -51.45 L-155.14 51.45"/>
</g>
<g id="link-12-segment" fill="none" stroke="#888888" stroke-dasharray="0" stroke-width="0.75" stroke-opacity="0.5">
<path d="M-115.75 -51.45 L-129.63 51.45"/>
</g>
<g id="link-13-segment" fill="none" stroke="#888888" stroke-dasharray="0" stroke-width="0.75" stroke-opacity="0.5">
<path d="M-115.75 -51.45 L-53.09 51.45"/>
</g>
<g id="link-14-segment" fill="none" stroke="#888888" stroke-dasharray="0" stroke-width="0.75" stroke-opacity="0.5">
<path d="M-115.75 -51.45 L-27.58 51.45"/>
</g>
<g id="link-15-segment" fill="none" stroke="#888888" stroke-dasharray="0" stroke-width="0.75" stroke-opacity="0.5">
<path d="M-115.75 -51.45 L-2.07 51.45"/>
</g>
<g id="link-16-segment" fill="none" stroke="#888888" stroke-dasharray="0" stroke-width="0.75" stroke-opacity="0.5">
<path d="M-115.75 -51.45 L48.95 51.45"/>
</g>
<g id="link-17-segment" fill="none" stroke="#888888" stroke-dasharray="0" stroke-width="0.75" stroke-opacity="0.5">
<path d="M-115.75 -51.45 L74.46 51.45"/>
</g>
<g id="link-18-segment" fill="none" stroke="#888888" stroke-dasharray="0" stroke-width="0.75" stroke-opacity="0.5">
<path d="M-80.68 -51.45 L-129.63 51.45"/>
</g>
<g id="link-19-segment" fill="none" stroke="#888888" stroke-dasharray="0" stroke-width="0.75" stroke-opacity="0.5">
<path d="M-80.68 -51.45 L-78.6 51.45"/>
</g>
<g id="link-20-segment" fill="none" stroke="#888888" stroke-dasharray="0" stroke-width="0.75" stroke-opacity="0.5">
<path d="M-80.68 -51.45 L-53.09 51.45"/>
</g>
<g id="link-21-segment" fill="none" stroke="#888888" stroke-dasharray="0" stroke-width="0.75" stroke-opacity="0.5">
<path d="M-80.68 -51.45 L-2.07 51.45"/>
</g>
<g id="link-22-segment" fill="none" stroke="#888888" stroke-dasharray="0" stroke-width="0.75" stroke-opacity="0.5">
<path d="M-80.68 -51.45 L23.44 51.45"/>
</g>
<g id="link-23-segment" fill="none" stroke="#888888" stroke-dasharray="0" stroke-width="0.75" stroke-opacity="0.5">
<path d="M-80.68 -51.45 L48.95 51.45"/>
</g>
<g id="link-24-segment" fill="none" stroke="#888888" stroke-dasharray="0" stroke-width="0.75" stroke-opacity="0.5">
<path d="M-80.68 -51.45 L74.46 51.45"/>
</g>
<g id="link-25-segment" fill="none" stroke="#888888" stroke-dasharray="0" stroke-width="0.75" stroke-opacity="0.5">
<path d="M-45.6 -51.45 L-155.14 51.45"/>
</g>
<g id="link-26-segment" fill="none" stroke="#888888" stroke-dasharray="0" stroke-width="0.75" stroke-opacity="0.5">
<path d="M-45.6 -51.45 L-129.63 51.45"/>
</g>
<g id="link-27-segment" fill="none" stroke="#888888" stroke-dasharray="0" stroke-width="0.75" stroke-opacity="0.5">
<path d="M-45.6 -51.45 L-104.11 51.45"/>
</g>
<g id="link-28-segment" fill="none" stroke="#888888" stroke-dasharray="0" stroke-width="0.75" stroke-opacity="0.5">
<path d="M-45.6 -51.45 L-53.09 51.45"/>
</g>
<g id="link-29-segment" fill="none" stroke="#888888" stroke-dasharray="0" stroke-width="0.75" stroke-opacity="0.5">
<path d="M-45.6 -51.45 L-27.58 51.45"/>
</g>
<g id="link-30-segment" fill="none" stroke="#888888" stroke-dasharray="0" stroke-width="0.75" stroke-opacity="0.5">
<path d="M-45.6 -51.45 L99.97 51.45"/>
</g>
<g id="link-31-segment" fill="none" stroke="#888888" stroke-dasharray="0" stroke-width="0.75" stroke-opacity="0.5">
<path d="M-10.52 -51.45 L-155.14 51.45"/>
</g>
<g id="link-32-segment" fill="none" stroke="#888888" stroke-dasharray="0" stroke-width="0.75" stroke-opacity="0.5">
<path d="M-10.52 -51.45 L-129.63 51.45"/>
</g>
<g id="link-33-segment" fill="none" stroke="#888888" stroke-dasharray="0" stroke-width="0.75" stroke-opacity="0.5">
<path d="M-10.52 -51.45 L-104.11 51.45"/>
</g>
<g id="link-34-segment" fill="none" stroke="#888888" stroke-dasharray="0" stroke-width="0.75" stroke-opacity="0.5">
<path d="M-10.52 -51.45 L-78.6 51.45"/>
</g>
<g id="link-35-segment" fill="none" stroke="#888888" stroke-dasharray="0" stroke-width="0.75" stroke-opacity="0.5">
<path d="M-10.52 -51.45 L-27.58 51.45"/>
</g>
<g id="link-36-segment" fill="none" stroke="#888888" stroke-dasharray="0" stroke-width="0.75" stroke-opacity="0.5">
<path d="M-10.52 -51.45 L23.44 51.45"/>
</g>
<g id="link-37-segment" fill="none" stroke="#888888" stroke-dasharray="0" stroke-width="0.75" stroke-opacity="0.5">
<path d="M-10.52 -51.45 L99.97 51.45"/>
</g>
<g id="link-38-segment" fill="none" stroke="#888888" stroke-dasharray="0" stroke-width="0.75" stroke-opacity="0.5">
<path d="M24.55 -51.45 L-155.14 51.45"/>
</g>
<g id="link-39-segment" fill="none" stroke="#888888" stroke-dasharray="0" stroke-width="0.75" stroke-opacity="0.5">
<path d="M24.55 -51.45 L-78.6 51.45"/>
</g>
<g id="link-40-segment" fill="none" stroke="#888888" stroke-dasharray="0" stroke-width="0.75" stroke-opacity="0.5">
<path d="M24.55 -51.45 L-53.09 51.45"/>
</g>
<g id="link-41-segment" fill="none" stroke="#888888" stroke-dasharray="0" stroke-width="0.75" stroke-opacity="0.5">
<path d="M24.55 -51.45 L-27.58 51.45"/>
</g>
<g id="link-42-segment" fill="none" stroke="#888888" stroke-dasharray="0" stroke-width="0.75" stroke-opacity="0.5">
<path d="M24.55 -51.45 L-2.07 51.45"/>
</g>
<g id="link-43-segment" fill="none" stroke="#888888" stroke-dasharray="0" stroke-width="0.75" stroke-opacity="0.5">
<path d="M24.55 -51.45 L23.44 51.45"/>
</g>
<g id="link-44-segment" fill="none" stroke="#888888" stroke-dasharray="0" stroke-width="0.75" stroke-opacity="0.5">
<path d="M59.63 -51.45 L-104.11 51.45"/>
</g>
<g id="link-45-segment" fill="none" stroke="#888888" stroke-dasharray="0" stroke-width="0.75" stroke-opacity="0.5">
<path d="M59.63 -51.45 L-78.6 51.45"/>
</g>
<g id="link-46-segment" fill="none" stroke="#888888" stroke-dasharray="0" stroke-width="0.75" stroke-opacity="0.5">
<path d="M59.63 -51.45 L48.95 51.45"/>
</g>
<g id="link-47-segment" fill="none" stroke="#888888" stroke-dasharray="0" stroke-width="0.75" stroke-opacity="0.5">
<path d="M59.63 -51.45 L74.46 51.45"/>
</g>
<g id="link-48-segment" fill="none" stroke="#888888" stroke-dasharray="0" stroke-width="0.75" stroke-opacity="0.5">
<path d="M94.71 -51.45 L-155.14 51.45"/>
</g>
<g id="link-49-segment" fill="none" stroke="#888888" stroke-dasharray="0" stroke-width="0.75" stroke-opacity="0.5">
<path d="M94.71 -51.45 L-104.11 51.45"/>
</g>
<g id="link-50-segment" fill="none" stroke="#888888" stroke-dasharray="0" stroke-width="0.75" stroke-opacity="0.5">
<path d="M94.71 -51.45 L-78.6 51.45"/>
</g>
<g id="link-51-segment" fill="none" stroke="#888888" stroke-dasharray="0" stroke-width="0.75" stroke-opacity="0.5">
<path d="M94.71 -51.45 L99.97 51.45"/>
</g>
<g id="link-52-segment" fill="none" stroke="#888888" stroke-dasharray="0" stroke-width="0.75" stroke-opacity="0.5">
<path d="M191.7 269.22 L-104.11 118.79"/>
</g>
<g id="link-53-segment" fill="none" stroke="#888888" stroke-dasharray="0" stroke-width="0.75" stroke-opacity="0.5">
<path d="M191.7 269.22 L-78.6 113.88"/>
</g>
<g id="link-54-segment" fill="none" stroke="#888888" stroke-dasharray="0" stroke-width="0.75" stroke-opacity="0.5">
<path d="M191.7 269.22 L-2.07 99.15"/>
</g>
<g id="link-55-segment" fill="none" stroke="#888888" stroke-dasharray="0" stroke-width="0.75" stroke-opacity="0.5">
<path d="M212.08 254.83 L-129.63 123.7"/>
</g>
<g id="link-56-segment" fill="none" stroke="#888888" stroke-dasharray="0" stroke-width="0.75" stroke-opacity="0.5">
<path d="M212.08 254.83 L-53.09 108.97"/>
</g>
<g id="link-57-segment" fill="none" stroke="#888888" stroke-dasharray="0" stroke-width="0.75" stroke-opacity="0.5">
<path d="M-150.83 -128.62 L175.38 -350.77"/>
</g>
<g id="link-58-segment" fill="none" stroke="#888888" stroke-dasharray="0" stroke-width="0.75" stroke-opacity="0.5">
<path d="M-150.83 -128.62 L182.18 -336.38"/>
</g>
<g id="link-59-segment" fill="none" stroke="#888888" stroke-dasharray="0" stroke-width="0.75" stroke-opacity="0.5">
<path d="M-150.83 -128.62 L202.57 -293.21"/>
</g>
<g id="link-60-segment" fill="none" stroke="#888888" stroke-dasharray="0" stroke-width="0.75" stroke-opacity="0.5">
<path d="M-115.75 -121.86 L175.38 -350.77"/>
</g>
<g id="link-61-segment" fill="none" stroke="#888888" stroke-dasharray="0" stroke-width="0.75" stroke-opacity="0.5">
<path d="M-115.75 -121.86 L195.77 -307.6"/>
</g>
<g id="link-62-segment" fill="none" stroke="#888888" stroke-dasharray="0" stroke-width="0.75" stroke-opacity="0.5">
<path d="M-115.75 -121.86 L202.57 -293.21"/>
</g>
<g id="link-63-segment" fill="none" stroke="#888888" stroke-dasharray="0" stroke-width="0.75" stroke-opacity="0.5">
<path d="M-80.68 -115.11 L182.18 -336.38"/>
</g>
<g id="link-64-segment" fill="none" stroke="#888888" stroke-dasharray="0" stroke-width="0.75" stroke-opacity="0.5">
<path d="M-80.68 -115.11 L188.98 -321.99"/>
</g>
<g id="link-65-segment" fill="none" stroke="#888888" stroke-dasharray="0" stroke-width="0.75" stroke-opacity="0.5">
<path d="M-80.68 -115.11 L209.37 -278.82"/>
</g>
<g id="link-66-segment" fill="none" stroke="#888888" stroke-dasharray="0" stroke-width="0.75" stroke-opacity="0.5">
<path d="M-45.6 -108.36 L175.38 -350.77"/>
</g>
<g id="link-67-segment" fill="none" stroke="#888888" stroke-dasharray="0" stroke-width="0.75" stroke-opacity="0.5">
<path d="M-45.6 -108.36 L195.77 -307.6"/>
</g>
<g id="link-68-segment" fill="none" stroke="#888888" stroke-dasharray="0" stroke-width="0.75" stroke-opacity="0.5">
<path d="M24.55 -94.85 L188.98 -321.99"/>
</g>
<g id="link-69-segment" fill="none" stroke="#888888" stroke-dasharray="0" stroke-width="0.75" stroke-opacity="0.5">
<path d="M59.63 -88.1 L209.37 -278.82"/>
</g>
<g id="link-70-segment" fill="none" stroke="#888888" stroke-dasharray="0" stroke-width="0.75" stroke-opacity="0.5">
<path d="M191.7 269.22 L182.18 -336.38"/>
</g>
<g id="link-71-segment" fill="none" stroke="#888888" stroke-dasharray="0" stroke-width="0.75" stroke-opacity="0.5">
<path d="M191.7 269.22 L195.77 -307.6"/>
</g>
<g id="link-72-segment" fill="none" stroke="#888888" stroke-dasharray="0" stroke-width="0.75" stroke-opacity="0.5">
<path d="M191.7 269.22 L202.57 -293.21"/>
</g>
<g id="link-73-segment" fill="none" stroke="#888888" stroke-dasharray="0" stroke-width="0.75" stroke-opacity="0.5">
<path d="M191.7 269.22 L209.37 -278.82"/>
</g>
<g id="link-74-segment" fill="none" stroke="#888888" stroke-dasharray="0" stroke-width="0.75" stroke-opacity="0.5">
<path d="M212.08 254.83 L182.18 -336.38"/>
</g>
<g id="link-75-segment" fill="none" stroke="#888888" stroke-dasharray="0" stroke-width="0.75" stroke-opacity="0.5">
<path d="M212.08 254.83 L188.98 -321.99"/>
</g>
<g id="link-76-segment" fill="none" stroke="#888888" stroke-dasharray="0" stroke-width="0.75" stroke-opacity="0.5">
<path d="M374.11 127.48 L383 -236.54"/>
</g>
<g id="link-1-path" fill="none" stroke="#888888" stroke-dasharray="0" stroke-width="0.75" stroke-opacity="0.5">
<path d="M-60.43 -261.19  L-52.26 -254.61 L-44.1 -247.98 L-35.93 -241.25 L-27.77 -234.38 L-19.6 -227.31 L-11.44 -220 L-3.27 -212.4 L4.89 -204.46 L13.06 -196.13 L21.22 -187.37 L29.39 -178.11 L37.55 -168.33 L45.72 -157.96 L53.88 -146.96 L62.05 -135.28 L70.21 -122.87 L78.38 -109.69 L86.54 -95.74 L94.71 -81.35"/>
</g>
<g id="link-2-path" fill="none" stroke="#888888" stroke-dasharray="0" stroke-width="0.75" stroke-opacity="0.5">
<path d="M-90.69 -270.25  L-82.78 -263.59 L-74.87 -256.87 L-66.96 -250.06 L-59.05 -243.1 L-51.13 -235.94 L-43.22 -228.54 L-35.31 -220.84 L-27.4 -212.8 L-19.49 -204.36 L-11.58 -195.48 L-3.66 -186.11 L4.25 -176.2 L12.16 -165.7 L20.07 -154.56 L27.98 -142.73 L35.9 -130.16 L43.81 -116.81 L51.72 -102.67 L59.63 -88.1"/>
</g>
<g id="link-3-path" fill="none" stroke="#888888" stroke-dasharray="0" stroke-width="0.75" stroke-opacity="0.5">
<path d="M-120.96 -279.32  L-118.84 -273.31 L-116.72 -267.26 L-114.6 -261.12 L-112.48 -254.84 L-110.36 -248.39 L-108.24 -241.71 L-106.12 -234.77 L-104 -227.52 L-101.88 -219.92 L-99.76 -211.91 L-97.64 -203.47 L-95.52 -194.53 L-93.4 -185.06 L-91.28 -175.02 L-89.16 -164.35 L-87.04 -153.03 L-84.92 -140.99 L-82.8 -128.25 L-80.68 -115.11"/>
</g>
<g id="link-4-path" fill="none" stroke="#888888" stroke-dasharray="0" stroke-width="0.75" stroke-opacity="0.5">
<path d="M246.74 260.83  L251.36 260.89 L255.98 261.09 L260.59 261.52 L265.21 262.13 L269.82 262.91 L274.44 263.83 L279.05 264.89 L283.67 266.07 L288.28 267.36 L292.9 268.75 L297.51 270.23 L302.13 271.8 L306.74 273.44 L311.36 275.14 L315.98 276.9 L320.59 278.69 L325.21 280.51 L329.82 282.36 L334.44 284.21"/>
</g>
<g id="link-5-path" fill="none" stroke="#888888" stroke-dasharray="0" stroke-width="0.75" stroke-opacity="0.5">
<path d="M256.94 275.22  L261.02 275.33 L265.1 275.65 L269.18 276.35 L273.25 277.37 L277.33 278.66 L281.41 280.17 L285.49 281.91 L289.57 283.86 L293.65 285.98 L297.73 288.28 L301.81 290.73 L305.88 293.32 L309.96 296.02 L314.04 298.83 L318.12 301.72 L322.2 304.68 L326.28 307.68 L330.36 310.73 L334.44 313.79"/>
</g>
<g id="link-6-path" fill="none" stroke="#888888" stroke-dasharray="0" stroke-width="0.75" stroke-opacity="0.5">
<path d="M-53.09 108.97  L-30.61 110.51 L-8.12 112 L14.36 113.39 L36.84 114.64 L59.33 115.69 L81.81 116.53 L104.3 117.19 L126.78 117.73 L149.27 118.17 L171.75 118.57 L194.24 118.97 L216.72 119.42 L239.2 119.96 L261.69 120.63 L284.17 121.48 L306.66 122.55 L329.14 123.89 L351.63 125.53 L374.11 127.48"/>
</g>
<g id="link-7-path" fill="none" stroke="#888888" stroke-dasharray="0" stroke-width="0.75" stroke-opacity="0.5">
<path d="M-150.83 -128.62  L-121.8 -135.41 L-92.77 -141.18 L-63.73 -145.85 L-34.7 -149.6 L-5.67 -152.57 L23.36 -154.92 L52.4 -156.8 L81.43 -158.37 L110.46 -159.78 L139.49 -161.18 L168.53 -162.74 L197.56 -164.6 L226.59 -166.92 L255.62 -169.86 L284.66 -173.54 L313.69 -177.9 L342.72 -182.78 L371.75 -187.99 L400.79 -193.37"/>
</g>
<g id="link-8-path" fill="none" stroke="#888888" stroke-dasharray="0" stroke-width="0.75" stroke-opacity="0.5">
<path d="M-150.83 -128.62  L-120.55 -129.37 L-90.27 -130.01 L-59.99 -130.53 L-29.71 -130.95 L0.57 -131.28 L30.85 -131.54 L61.13 -131.75 L91.41 -131.92 L121.69 -132.08 L151.97 -132.23 L182.25 -132.41 L212.54 -132.61 L242.82 -132.87 L273.1 -133.2 L303.38 -133.61 L333.66 -134.09 L363.94 -134.63 L394.22 -135.21 L424.5 -135.81"/>
</g>
<g id="link-9-path" fill="none" stroke="#888888" stroke-dasharray="0" stroke-width="0.75" stroke-opacity="0.5">
<path d="M-150.83 -128.62  L-120.24 -127.86 L-89.65 -127.22 L-59.05 -126.7 L-28.46 -126.28 L2.13 -125.95 L32.72 -125.69 L63.32 -125.48 L93.91 -125.31 L124.5 -125.15 L155.09 -125 L185.69 -124.82 L216.28 -124.62 L246.87 -124.36 L277.46 -124.03 L308.06 -123.62 L338.65 -123.14 L369.24 -122.6 L399.83 -122.02 L430.43 -121.42"/>
</g>
<g id="link-10-path" fill="none" stroke="#888888" stroke-dasharray="0" stroke-width="0.75" stroke-opacity="0.5">
<path d="M-115.75 -121.86  L-89.5 -133.9 L-63.25 -144.11 L-37 -152.39 L-10.75 -159.03 L15.5 -164.29 L41.75 -168.45 L68 -171.78 L94.25 -174.55 L120.5 -177.05 L146.75 -179.54 L173 -182.29 L199.25 -185.59 L225.5 -189.7 L251.75 -194.9 L278 -201.43 L304.25 -209.15 L330.5 -217.78 L356.75 -227.01 L383 -236.54"/>
</g>
<g id="link-11-path" fill="none" stroke="#888888" stroke-dasharray="0" stroke-width="0.75" stroke-opacity="0.5">
<path d="M-115.75 -121.86  L-88.88 -130.88 L-62.01 -138.52 L-35.13 -144.73 L-8.26 -149.7 L18.62 -153.64 L45.49 -156.76 L72.37 -159.25 L99.24 -161.33 L126.12 -163.2 L152.99 -165.06 L179.86 -167.13 L206.74 -169.6 L233.61 -172.68 L260.49 -176.57 L287.36 -181.46 L314.24 -187.24 L341.11 -193.71 L367.98 -200.62 L394.86 -207.76"/>
</g>
<g id="link-12-path" fill="none" stroke="#888888" stroke-dasharray="0" stroke-width="0.75" stroke-opacity="0.5">
<path d="M-115.75 -121.86  L-88.26 -127.86 L-60.76 -132.94 L-33.26 -137.07 L-5.76 -140.37 L21.74 -142.99 L49.24 -145.06 L76.73 -146.72 L104.23 -148.11 L131.73 -149.35 L159.23 -150.59 L186.73 -151.96 L214.23 -153.6 L241.72 -155.65 L269.22 -158.24 L296.72 -161.49 L324.22 -165.34 L351.72 -169.64 L379.22 -174.23 L406.71 -178.98"/>
</g>
<g id="link-13-path" fill="none" stroke="#888888" stroke-dasharray="0" stroke-width="0.75" stroke-opacity="0.5">
<path d="M-115.75 -121.86  L-87.63 -124.84 L-59.51 -127.36 L-31.39 -129.41 L-3.26 -131.05 L24.86 -132.35 L52.98 -133.37 L81.1 -134.2 L109.22 -134.88 L137.35 -135.5 L165.47 -136.11 L193.59 -136.8 L221.71 -137.61 L249.84 -138.63 L277.96 -139.91 L306.08 -141.52 L334.2 -143.43 L362.33 -145.56 L390.45 -147.85 L418.57 -150.2"/>
</g>
<g id="link-14-path" fill="none" stroke="#888888" stroke-dasharray="0" stroke-width="0.75" stroke-opacity="0.5">
<path d="M-80.68 -115.11  L-55.65 -124.83 L-30.62 -133.08 L-5.59 -139.77 L19.44 -145.14 L44.46 -149.39 L69.49 -152.75 L94.52 -155.44 L119.55 -157.68 L144.58 -159.7 L169.61 -161.71 L194.63 -163.93 L219.66 -166.6 L244.69 -169.92 L269.72 -174.12 L294.75 -179.39 L319.77 -185.63 L344.8 -192.6 L369.83 -200.06 L394.86 -207.76"/>
</g>
<g id="link-15-path" fill="none" stroke="#888888" stroke-dasharray="0" stroke-width="0.75" stroke-opacity="0.5">
<path d="M-45.6 -108.36  L-23.04 -121.81 L-0.48 -133.22 L22.07 -142.48 L44.63 -149.9 L67.19 -155.78 L89.75 -160.43 L112.31 -164.15 L134.86 -167.25 L157.42 -170.04 L179.98 -172.83 L202.54 -175.91 L225.1 -179.59 L247.65 -184.19 L270.21 -190 L292.77 -197.29 L315.33 -205.93 L337.89 -215.57 L360.44 -225.89 L383 -236.54"/>
</g>
<g id="link-16-path" fill="none" stroke="#888888" stroke-dasharray="0" stroke-width="0.75" stroke-opacity="0.5">
<path d="M-45.6 -108.36  L-22.11 -117.28 L1.39 -124.85 L24.88 -130.99 L48.38 -135.91 L71.87 -139.81 L95.36 -142.89 L118.86 -145.36 L142.35 -147.42 L165.85 -149.27 L189.34 -151.11 L212.83 -153.16 L236.33 -155.6 L259.82 -158.65 L283.32 -162.5 L306.81 -167.34 L330.3 -173.07 L353.8 -179.46 L377.29 -186.31 L400.79 -193.37"/>
</g>
<g id="link-17-path" fill="none" stroke="#888888" stroke-dasharray="0" stroke-width="0.75" stroke-opacity="0.5">
<path d="M-10.52 -101.61  L10.5 -114.26 L31.52 -124.99 L52.55 -133.7 L73.57 -140.67 L94.6 -146.2 L115.62 -150.57 L136.64 -154.07 L157.67 -156.99 L178.69 -159.61 L199.72 -162.23 L220.74 -165.13 L241.76 -168.59 L262.79 -172.92 L283.81 -178.38 L304.84 -185.24 L325.86 -193.36 L346.88 -202.43 L367.91 -212.13 L388.93 -222.15"/>
</g>
<g id="link-18-path" fill="none" stroke="#888888" stroke-dasharray="0" stroke-width="0.75" stroke-opacity="0.5">
<path d="M-10.52 -101.61  L11.75 -108.22 L34.02 -113.82 L56.29 -118.37 L78.56 -122.02 L100.84 -124.91 L123.11 -127.19 L145.38 -129.02 L167.65 -130.54 L189.92 -131.92 L212.2 -133.28 L234.47 -134.8 L256.74 -136.61 L279.01 -138.87 L301.28 -141.72 L323.56 -145.3 L345.83 -149.55 L368.1 -154.29 L390.37 -159.36 L412.64 -164.59"/>
</g>
<g id="link-19-path" fill="none" stroke="#888888" stroke-dasharray="0" stroke-width="0.75" stroke-opacity="0.5">
<path d="M24.55 -94.85  L43.73 -108.21 L62.91 -119.54 L82.09 -128.74 L101.26 -136.11 L120.44 -141.95 L139.62 -146.56 L158.8 -150.26 L177.98 -153.34 L197.15 -156.11 L216.33 -158.87 L235.51 -161.93 L254.69 -165.59 L273.86 -170.16 L293.04 -175.93 L312.22 -183.17 L331.4 -191.75 L350.58 -201.33 L369.75 -211.57 L388.93 -222.15"/>
</g>
<g id="link-20-path" fill="none" stroke="#888888" stroke-dasharray="0" stroke-width="0.75" stroke-opacity="0.5">
<path d="M59.63 -88.1  L77.9 -97.64 L96.17 -105.73 L114.43 -112.29 L132.7 -117.55 L150.97 -121.72 L169.24 -125.02 L187.5 -127.66 L205.77 -129.86 L224.04 -131.83 L242.31 -133.81 L260.57 -135.99 L278.84 -138.6 L297.11 -141.86 L315.38 -145.98 L333.64 -151.15 L351.91 -157.27 L370.18 -164.11 L388.45 -171.43 L406.71 -178.98"/>
</g>
<g id="link-21-path" fill="none" stroke="#888888" stroke-dasharray="0" stroke-width="0.75" stroke-opacity="0.5">
<path d="M256.94 269.22  L265.13 242.98 L273.33 216.81 L281.52 190.79 L289.72 165 L297.91 139.52 L306.11 114.41 L314.3 89.76 L322.5 65.64 L330.69 42.13 L338.89 19.3 L347.08 -2.86 L355.28 -24.4 L363.47 -45.41 L371.67 -65.97 L379.86 -86.15 L388.06 -106.03 L396.25 -125.68 L404.45 -145.17 L412.64 -164.59"/>
</g>
<g id="link-22-path" fill="none" stroke="#888888" stroke-dasharray="0" stroke-width="0.75" stroke-opacity="0.5">
<path d="M256.94 269.22  L265.76 244.72 L274.58 220.29 L283.4 196 L292.21 171.92 L301.03 148.12 L309.85 124.68 L318.67 101.67 L327.49 79.15 L336.31 57.2 L345.13 35.88 L353.95 15.2 L362.77 -4.92 L371.58 -24.54 L380.4 -43.73 L389.22 -62.58 L398.04 -81.13 L406.86 -99.48 L415.68 -117.68 L424.5 -135.81"/>
</g>
<g id="link-23-path" fill="none" stroke="#888888" stroke-dasharray="0" stroke-width="0.75" stroke-opacity="0.5">
<path d="M246.74 254.83  L255.79 230.33 L264.83 205.9 L273.87 181.61 L282.92 157.53 L291.96 133.73 L301.01 110.29 L310.05 87.28 L319.09 64.76 L328.14 42.81 L337.18 21.49 L346.22 0.81 L355.27 -19.31 L364.31 -38.93 L373.35 -58.13 L382.4 -76.97 L391.44 -95.52 L400.48 -113.87 L409.53 -132.07 L418.57 -150.2"/>
</g>
<g id="link-24-path" fill="none" stroke="#888888" stroke-dasharray="0" stroke-width="0.75" stroke-opacity="0.5">
<path d="M246.74 254.83  L256.41 232.07 L266.08 209.37 L275.75 186.81 L285.41 164.44 L295.08 142.34 L304.75 120.56 L314.42 99.18 L324.08 78.26 L333.75 57.87 L343.42 38.07 L353.09 18.86 L362.75 0.17 L372.42 -18.06 L382.09 -35.89 L391.76 -53.39 L401.42 -70.63 L411.09 -87.67 L420.76 -104.58 L430.43 -121.42"/>
</g>
</svg>