<svg xmlns="http://www.w3.org/2000/svg" viewBox="-380 -400 940 720">
<rect id="kcore2-a-1-rect" style="fill:#00008B;fill-opacity:0.2" stroke="transparent" stroke-dasharray="0" stroke-width="0.5" x="-249.23" y="-101.54" width="18.46" height="60.92" />
<rect id="kcore2-a-2-rect" style="fill:#4169E1;fill-opacity:0.2" stroke="transparent" stroke-dasharray="0" stroke-width="0.5" x="-228.72" y="-99.17" width="18.46" height="58.55" />
<rect id="kcore2-a-3-rect" style="fill:#00008B;fill-opacity:0.2" stroke="transparent" stroke-dasharray="0" stroke-width="0.5" x="-208.21" y="-96.8" width="18.47" height="56.18" />
<rect id="kcore2-a-4-rect" style="fill:#4169E1;fill-opacity:0.2" stroke="transparent" stroke-dasharray="0" stroke-width="0.5" x="-187.69" y="-94.43" width="18.46" height="53.81" />
<rect id="kcore2-a-5-rect" style="fill:#00008B;fill-opacity:0.2" stroke="transparent" stroke-dasharray="0" stroke-width="0.5" x="-167.18" y="-92.06" width="18.46" height="51.44" />
<rect id="kcore2-a-6-rect" style="fill:#4169E1;fill-opacity:0.2" stroke="transparent" stroke-dasharray="0" stroke-width="0.5" x="-146.67" y="-89.69" width="18.46" height="49.07" />
<rect id="kcore2-a-7-rect" style="fill:#00008B;fill-opacity:0.2" stroke="transparent" stroke-dasharray="0" stroke-width="0.5" x="-126.15" y="-87.32" width="18.46" height="46.7" />
<rect id="kcore2-a-8-rect" style="fill:#4169E1;fill-opacity:0.2" stroke="transparent" stroke-dasharray="0" stroke-width="0.5" x="-105.64" y="-84.95" width="18.46" height="44.33" />
<rect id="kcore2-a-9-rect" style="fill:#00008B;fill-opacity:0.2" stroke="transparent" stroke-dasharray="0" stroke-width="0.5" x="-85.13" y="-82.58" width="18.46" height="41.96" />
<rect id="kcore2-a-10-rect" style="fill:#4169E1;fill-opacity:0.2" stroke="transparent" stroke-dasharray="0" stroke-width="0.5" x="-64.62" y="-80.22" width="18.47" height="39.6" />
<rect id="kcore2-a-11-rect" style="fill:#00008B;fill-opacity:0.2" stroke="transparent" stroke-dasharray="0" stroke-width="0.5" x="-44.1" y="-77.85" width="18.46" height="37.23" />
<rect id="kcore2-a-12-rect" style="fill:#4169E1;fill-opacity:0.2" stroke="transparent" stroke-dasharray="0" stroke-width="0.5" x="-23.59" y="-75.48" width="18.46" height="34.86" />
<rect id="kcore2-a-13-rect" style="fill:#00008B;fill-opacity:0.2" stroke="transparent" stroke-dasharray="0" stroke-width="0.5" x="-3.08" y="-73.11" width="18.46" height="32.49" />
<rect id="kcore2-a-14-rect" style="fill:#4169E1;fill-opacity:0.2" stroke="transparent" stroke-dasharray="0" stroke-width="0.5" x="17.44" y="-70.74" width="18.46" height="30.12" />
<rect id="kcore2-a-15-rect" style="fill:#00008B;fill-opacity:0.2" stroke="transparent" stroke-dasharray="0" stroke-width="0.5" x="37.95" y="-68.37" width="18.46" height="27.75" />
<rect id="kcore2-a-16-rect" style="fill:#4169E1;fill-opacity:0.2" stroke="transparent" stroke-dasharray="0" stroke-width="0.5" x="58.46" y="-66" width="18.46" height="25.38" />
<rect id="kcore2-a-17-rect" style="fill:#00008B;fill-opacity:0.2" stroke="transparent" stroke-dasharray="0" stroke-width="0.5" x="78.97" y="-63.63" width="18.47" height="23.01" />
<rect id="kcore2-a-18-rect" style="fill:#4169E1;fill-opacity:0.2" stroke="transparent" stroke-dasharray="0" stroke-width="0.5" x="99.49" y="-61.26" width="18.46" height="20.64" />
<text id="kcore2-a-1-text" y="-71.08" style="text-anchor:middle;dominant-baseline:middle;font-family:Tahoma;font-size:15px;fill:#00008B">
<tspan x="-240" dy="0">1</tspan>
</text>
<text id="kcore2-a-2-text" y="-69.89" style="text-anchor:middle;dominant-baseline:middle;font-family:Tahoma;font-size:15px;fill:#00008B">
<tspan x="-219.49" dy="0">2</tspan>
</text>
<text id="kcore2-a-3-text" y="-68.71" style="text-anchor:middle;dominant-baseline:middle;font-family:Tahoma;font-size:15px;fill:#00008B">
<tspan x="-198.97" dy="0">4</tspan>
</text>
<text id="kcore2-a-4-text" y="-67.52" style="text-anchor:middle;dominant-baseline:middle;font-family:Tahoma;font-size:15px;fill:#00008B">
<tspan x="-178.46" dy="0">3</tspan>
</text>
<text id="kcore2-a-5-text" y="-66.34" style="text-anchor:middle;dominant-baseline:middle;font-family:Tahoma;font-size:15px;fill:#00008B">
<tspan x="-157.95" dy="0">8</tspan>
</text>
<text id="kcore2-a-6-text" y="-65.15" style="text-anchor:middle;dominant-baseline:middle;font-family:Tahoma;font-size:15px;fill:#00008B">
<tspan x="-137.44" dy="0">7</tspan>
</text>
<text id="kcore2-a-7-text" y="-63.97" style="text-anchor:middle;dominant-baseline:middle;font-family:Tahoma;font-size:15px;fill:#00008B">
<tspan x="-116.92" dy="0">11</tspan>
</text>
<text id="kcore2-a-8-text" y="-62.78" style="text-anchor:middle;dominant-baseline:middle;font-family:Tahoma;font-size:15px;fill:#00008B">
<tspan x="-96.41" dy="0">10</tspan>
</text>
<text id="kcore2-a-9-text" y="-61.6" style="text-anchor:middle;dominant-baseline:middle;font-family:Tahoma;font-size:15px;fill:#00008B">
<tspan x="-75.9" dy="0">12</tspan>
</text>
<text id="kcore2-a-10-text" y="-60.42" style="text-anchor:middle;dominant-baseline:middle;font-family:Tahoma;font-size:15px;fill:#00008B">
<tspan x="-55.38" dy="0">5</tspan>
</text>
<text id="kcore2-a-11-text" y="-59.23" style="text-anchor:middle;dominant-baseline:middle;font-family:Tahoma;font-size:15px;fill:#00008B">
<tspan x="-34.87" dy="0">6</tspan>
</text>
<text id="kcore2-a-12-text" y="-58.05" style="text-anchor:middle;dominant-baseline:middle;font-family:Tahoma;font-size:15px;fill:#00008B">
<tspan x="-14.36" dy="0">9</tspan>
</text>
<text id="kcore2-a-13-text" y="-56.86" style="text-anchor:middle;dominant-baseline:middle;font-family:Tahoma;font-size:15px;fill:#00008B">
<tspan x="6.15" dy="0">15</tspan>
</text>
<text id="kcore2-a-14-text" y="-55.68" style="text-anchor:middle;dominant-baseline:middle;font-family:Tahoma;font-size:15px;fill:#00008B">
<tspan x="26.67" dy="0">18</tspan>
</text>
<text id="kcore2-a-15-text" y="-54.49" style="text-anchor:middle;dominant-baseline:middle;font-family:Tahoma;font-size:15px;fill:#00008B">
<tspan x="47.18" dy="0">16</tspan>
</text>
<text id="kcore2-a-16-text" y="-53.31" style="text-anchor:middle;dominant-baseline:middle;font-family:Tahoma;font-size:15px;fill:#00008B">
<tspan x="67.69" dy="0">14</tspan>
</text>
<text id="kcore2-a-17-text" y="-52.12" style="text-anchor:middle;dominant-baseline:middle;font-family:Tahoma;font-size:15px;fill:#00008B">
<tspan x="88.21" dy="0">13</tspan>
</text>
<text id="kcore2-a-18-text" y="-50.94" style="text-anchor:middle;dominant-baseline:middle;font-family:Tahoma;font-size:15px;fill:#00008B">
<tspan x="108.72" dy="0">17</tspan>
</text>
<rect id="kcore2-b-1-rect" style="fill:#FF0000;fill-opacity:0.2" stroke="transparent" stroke-dasharray="0" stroke-width="0.5" x="-175.38" y="40.62" width="18.98" height="60.92" />
<rect id="kcore2-b-2-rect" style="fill:#F08080;fill-opacity:0.2" stroke="transparent" stroke-dasharray="0" stroke-width="0.5" x="-154.29" y="40.62" width="18.99" height="57.87" />
<rect id="kcore2-b-3-rect" style="fill:#FF0000;fill-opacity:0.2" stroke="transparent" stroke-dasharray="0" stroke-width="0.5" x="-133.19" y="40.62" width="18.99" height="54.83" />
<rect id="kcore2-b-4-rect" style="fill:#F08080;fill-opacity:0.2" stroke="transparent" stroke-dasharray="0" stroke-width="0.5" x="-112.09" y="40.62" width="18.99" height="51.78" />
<rect id="kcore2-b-5-rect" style="fill:#FF0000;fill-opacity:0.2" stroke="transparent" stroke-dasharray="0" stroke-width="0.5" x="-90.99" y="40.62" width="18.99" height="48.73" />
<rect id="kcore2-b-6-rect" style="fill:#F08080;fill-opacity:0.2" stroke="transparent" stroke-dasharray="0" stroke-width="0.5" x="-69.89" y="40.62" width="18.99" height="45.69" />
<rect id="kcore2-b-7-rect" style="fill:#FF0000;fill-opacity:0.2" stroke="transparent" stroke-dasharray="0" stroke-width="0.5" x="-48.79" y="40.62" width="18.99" height="42.64" />
<rect id="kcore2-b-8-rect" style="fill:#F08080;fill-opacity:0.2" stroke="transparent" stroke-dasharray="0" stroke-width="0.5" x="-27.69" y="40.62" width="18.99" height="39.6" />
<rect id="kcore2-b-9-rect" style="fill:#FF0000;fill-opacity:0.2" stroke="transparent" stroke-dasharray="0" stroke-width="0.5" x="-6.59" y="40.62" width="18.99" height="36.55" />
<rect id="kcore2-b-10-rect" style="fill:#F08080;fill-opacity:0.2" stroke="transparent" stroke-dasharray="0" stroke-width="0.5" x="14.51" y="40.62" width="18.98" height="33.5" />
<rect id="kcore2-b-11-rect" style="fill:#FF0000;fill-opacity:0.2" stroke="transparent" stroke-dasharray="0" stroke-width="0.5" x="35.6" y="40.62" width="18.99" height="30.46" />
<rect id="kcore2-b-12-rect" style="fill:#F08080;fill-opacity:0.2" stroke="transparent" stroke-dasharray="0" stroke-width="0.5" x="56.7" y="40.62" width="18.99" height="27.41" />
<rect id="kcore2-b-13-rect" style="fill:#FF0000;fill-opacity:0.2" stroke="transparent" stroke-dasharray="0" stroke-width="0.5" x="77.8" y="40.62" width="18.99" height="24.36" />
<rect id="kcore2-b-14-rect" style="fill:#F08080;fill-opacity:0.2" stroke="transparent" stroke-dasharray="0" stroke-width="0.5" x="98.9" y="40.62" width="18.99" height="21.32" />
<text id="kcore2-b-1-text" y="71.08" style="text-anchor:middle;dominant-baseline:middle;font-family:Tahoma;font-size:15px;fill:#FF0000">
<tspan x="-165.89" dy="0">1</tspan>
</text>
<text id="kcore2-b-2-text" y="69.55" style="text-anchor:middle;dominant-baseline:middle;font-family:Tahoma;font-size:15px;fill:#FF0000">
<tspan x="-144.79" dy="0">2</tspan>
</text>
<text id="kcore2-b-3-text" y="68.03" style="text-anchor:middle;dominant-baseline:middle;font-family:Tahoma;font-size:15px;fill:#FF0000">
<tspan x="-123.69" dy="0">3</tspan>
</text>
<text id="kcore2-b-4-text" y="66.51" style="text-anchor:middle;dominant-baseline:middle;font-family:Tahoma;font-size:15px;fill:#FF0000">
<tspan x="-102.59" dy="0">4</tspan>
</text>
<text id="kcore2-b-5-text" y="64.98" style="text-anchor:middle;dominant-baseline:middle;font-family:Tahoma;font-size:15px;fill:#FF0000">
<tspan x="-81.49" dy="0">5</tspan>
</text>
<text id="kcore2-b-6-text" y="63.46" style="text-anchor:middle;dominant-baseline:middle;font-family:Tahoma;font-size:15px;fill:#FF0000">
<tspan x="-60.4" dy="0">6</tspan>
</text>
<text id="kcore2-b-7-text" y="61.94" style="text-anchor:middle;dominant-baseline:middle;font-family:Tahoma;font-size:15px;fill:#FF0000">
<tspan x="-39.3" dy="0">8</tspan>
</text>
<text id="kcore2-b-8-text" y="60.42" style="text-anchor:middle;dominant-baseline:middle;font-family:Tahoma;font-size:15px;fill:#FF0000">
<tspan x="-18.2" dy="0">7</tspan>
</text>
<text id="kcore2-b-9-text" y="58.89" style="text-anchor:middle;dominant-baseline:middle;font-family:Tahoma;font-size:15px;fill:#FF0000">
<tspan x="2.9" dy="0">11</tspan>
</text>
<text id="kcore2-b-10-text" y="57.37" style="text-anchor:middle;dominant-baseline:middle;font-family:Tahoma;font-size:15px;fill:#FF0000">
<tspan x="24" dy="0">13</tspan>
</text>
<text id="kcore2-b-11-text" y="55.85" style="text-anchor:middle;dominant-baseline:middle;font-family:Tahoma;font-size:15px;fill:#FF0000">
<tspan x="45.1" dy="0">12</tspan>
</text>
<text id="kcore2-b-12-text" y="54.32" style="text-anchor:middle;dominant-baseline:middle;font-family:Tahoma;font-size:15px;fill:#FF0000">
<tspan x="66.2" dy="0">9</tspan>
</text>
<text id="kcore2-b-13-text" y="52.8" style="text-anchor:middle;dominant-baseline:middle;font-family:Tahoma;font-size:15px;fill:#FF0000">
<tspan x="87.3" dy="0">10</tspan>
</text>
<text id="kcore2-b-14-text" y="51.28" style="text-anchor:middle;dominant-baseline:middle;font-family:Tahoma;font-size:15px;fill:#FF0000">
<tspan x="108.4" dy="0">14</tspan>
</text>
<rect id="kcore2-1-rect" style="fill:none;fill-opacity:0.3" stroke="#8B4C39" stroke-dasharray="1 1" stroke-width="0" x="-266.98" y="-111.01" width="390.85" height="217.28" />
<text id="kcore2-1-text" y="-2.37" style="text-anchor:middle;dominant-baseline:middle;font-family:Tahoma;font-size:10.5px;fill:transparent">
</text>
<text id="kcore2-1-text" y="0" transform="rotate(-90 -254.56 0)" style="text-anchor:start;dominant-baseline:baseline;font-family:Tahoma;font-size:15px;fill:#8B4C39">
<tspan x="-254.56" dy="0">2-shell</tspan>
</text>
<rect id="edge-kcore1-a-5-1-rect" style="fill:#00008B;fill-opacity:0.11" stroke="transparent" stroke-dasharray="0" stroke-width="0.5" x="225.98" y="108.69" width="8.80000000000001" height="8.8" />
<text id="edge-kcore1-a-5-1-text" y="113.09" style="text-anchor:start;dominant-baseline:baseline;font-family:Tahoma;font-size:12px;fill:#00008B">
<tspan x="230.38" dy="0"> 24 28  33</tspan>
</text>
<rect id="edge-kcore1-a-3-1-rect" style="fill:#00008B;fill-opacity:0.11" stroke="transparent" stroke-dasharray="0" stroke-width="0.5" x="225.98" y="136.79" width="7.55000000000001" height="7.55000000000001" />
<text id="edge-kcore1-a-3-1-text" y="140.57" style="text-anchor:start;dominant-baseline:baseline;font-family:Tahoma;font-size:12px;fill:#00008B">
<tspan x="229.75" dy="0"> 35  36</tspan>
</text>
<rect id="edge-kcore1-a-2-1-rect" style="fill:#00008B;fill-opacity:0.11" stroke="transparent" stroke-dasharray="0" stroke-width="0.5" x="225.98" y="163.14" width="9.86000000000001" height="9.87" />
<text id="edge-kcore1-a-2-1-text" y="168.07" style="text-anchor:start;dominant-baseline:baseline;font-family:Tahoma;font-size:12px;fill:#00008B">
<tspan x="230.91" dy="0"> 19 20  27 29</tspan>
</text>
<rect id="edge-kcore1-a-1-1-rect" style="fill:#00008B;fill-opacity:0.11" stroke="transparent" stroke-dasharray="0" stroke-width="0.5" x="225.98" y="192.73" width="13.8" height="13.81" />
<text id="edge-kcore1-a-1-1-text" y="199.63" style="text-anchor:start;dominant-baseline:baseline;font-family:Tahoma;font-size:12px;fill:#00008B">
<tspan x="232.88" dy="0"> 21 22 23 25 26 30  31 32 34</tspan>
</text>
<rect id="edge-kcore1-b-6-1-rect" style="fill:#FF0000;fill-opacity:0.11" stroke="transparent" stroke-dasharray="0" stroke-width="0.5" x="226.04" y="-183.53" width="7.55000000000001" height="7.55000000000001" />
<text id="edge-kcore1-b-6-1-text" y="-179.75" style="text-anchor:start;dominant-baseline:baseline;font-family:Tahoma;font-size:12px;fill:#FF0000">
<tspan x="229.81" dy="0"> 24  25</tspan>
</text>
<rect id="edge-kcore1-b-5-1-rect" style="fill:#FF0000;fill-opacity:0.11" stroke="transparent" stroke-dasharray="0" stroke-width="0.5" x="226.04" y="-217.77" width="7.55000000000001" height="7.55000000000001" />
<text id="edge-kcore1-b-5-1-text" y="-213.99" style="text-anchor:start;dominant-baseline:baseline;font-family:Tahoma;font-size:12px;fill:#FF0000">
<tspan x="229.81" dy="0"> 22  23</tspan>
</text>
<rect id="edge-kcore1-b-12-1-rect" style="fill:#FF0000;fill-opacity:0.11" stroke="transparent" stroke-dasharray="0" stroke-width="0.5" x="226.04" y="-250.37" width="5.91" height="5.91" />
<text id="edge-kcore1-b-12-1-text" y="-247.42" style="text-anchor:middle;dominant-baseline:middle;font-family:Tahoma;font-size:12px;fill:#FF0000">
<tspan x="228.99" dy="0"> 19</tspan>
</text>
<rect id="edge-kcore1-b-7-1-rect" style="fill:#FF0000;fill-opacity:0.11" stroke="transparent" stroke-dasharray="0" stroke-width="0.5" x="226.04" y="-282.33" width="5.91" height="5.91999999999996" />
<text id="edge-kcore1-b-7-1-text" y="-279.37" style="text-anchor:middle;dominant-baseline:middle;font-family:Tahoma;font-size:12px;fill:#FF0000">
<tspan x="228.99" dy="0"> 21</tspan>
</text>
<rect id="edge-kcore1-b-3-1-rect" style="fill:#FF0000;fill-opacity:0.11" stroke="transparent" stroke-dasharray="0" stroke-width="0.5" x="226.04" y="-314.28" width="5.91" height="5.91999999999996" />
<text id="edge-kcore1-b-3-1-text" y="-311.32" style="text-anchor:middle;dominant-baseline:middle;font-family:Tahoma;font-size:12px;fill:#FF0000">
<tspan x="228.99" dy="0"> 17</tspan>
</text>
<rect id="edge-kcore1-b-1-1-rect" style="fill:#FF0000;fill-opacity:0.11" stroke="transparent" stroke-dasharray="0" stroke-width="0.5" x="226.04" y="-350.18" width="9.86000000000001" height="9.87" />
<text id="edge-kcore1-b-1-1-text" y="-345.25" style="text-anchor:start;dominant-baseline:baseline;font-family:Tahoma;font-size:12px;fill:#FF0000">
<tspan x="230.97" dy="0"> 15 16  18 20</tspan>
</text>
<rect id="annotation-1-rect" style="fill:none;fill-opacity:0.5" stroke="transparent" stroke-dasharray="0" stroke-width="0.5" x="553.85" y="-0.03" width="0.0299999999999727" height="0.03" />
<text id="annotation-1-text" y="-0.02" style="text-anchor:middle;dominant-baseline:middle;font-family:Tahoma;font-size:10.5px;fill:transparent">
</text>
<text id="annotation-1-text" y="0" style="text-anchor:middle;dominant-baseline:middle;font-family:Tahoma;font-size:3px;fill:red">
<tspan x="553.85" dy="0">.</tspan>
</text>
<text id="annotation-1-text" y="0" style="text-anchor:middle;dominant-baseline:middle;font-family:Tahoma;font-size:3px;fill:red">
<tspan x="-378.46" dy="0">.</tspan>
</text>
<g id="link-1-segment" fill="none" stroke="#888888" stroke-dasharray="0" stroke-width="0.9" stroke-opacity="0.5">
<path d="M-240 -40.62 L-123.69 40.62"/>
</g>
<g id="link-2-segment" fill="none" stroke="#888888" stroke-dasharray="0" stroke-width="0.9" stroke-opacity="0.5">
<path d="M-240 -40.62 L-102.59 40.62"/>
</g>
<g id="link-3-segment" fill="none" stroke="#888888" stroke-dasharray="0" stroke-width="0.9" stroke-opacity="0.5">
<path d="M-240 -40.62 L-60.4 40.62"/>
</g>
<g id="link-4-segment" fill="none" stroke="#888888" stroke-dasharray="0" stroke-width="0.9" stroke-opacity="0.5">
<path d="M-219.49 -40.62 L-144.79 40.62"/>
</g>
<g id="link-5-segment" fill="none" stroke="#888888" stroke-dasharray="0" stroke-width="0.9" stroke-opacity="0.5">
<path d="M-219.49 -40.62 L-60.4 40.62"/>
</g>
<g id="link-6-segment" fill="none" stroke="#888888" stroke-dasharray="0" stroke-width="0.9" stroke-opacity="0.5">
<path d="M-219.49 -40.62 L-39.3 40.62"/>
</g>
<g id="link-7-segment" fill="none" stroke="#888888" stroke-dasharray="0" stroke-width="0.9" stroke-opacity="0.5">
<path d="M-219.49 -40.62 L-18.2 40.62"/>
</g>
<g id="link-8-segment" fill="none" stroke="#888888" stroke-dasharray="0" stroke-width="0.9" stroke-opacity="0.5">
<path d="M-219.49 -40.62 L2.9 40.62"/>
</g>
<g id="link-9-segment" fill="none" stroke="#888888" stroke-dasharray="0" stroke-width="0.9" stroke-opacity="0.5">
<path d="M-219.49 -40.62 L45.1 40.62"/>
</g>
<g id="link-10-segment" fill="none" stroke="#888888" stroke-dasharray="0" stroke-width="0.9" stroke-opacity="0.5">
<path d="M-198.97 -40.62 L-144.79 40.62"/>
</g>
<g id="link-11-segment" fill="none" stroke="#888888" stroke-dasharray="0" stroke-width="0.9" stroke-opacity="0.5">
<path d="M-198.97 -40.62 L-123.69 40.62"/>
</g>
<g id="link-12-segment" fill="none" stroke="#888888" stroke-dasharray="0" stroke-width="0.9" stroke-opacity="0.5">
<path d="M-198.97 -40.62 L-39.3 40.62"/>
</g>
<g id="link-13-segment" fill="none" stroke="#888888" stroke-dasharray="0" stroke-width="0.9" stroke-opacity="0.5">
<path d="M-198.97 -40.62 L2.9 40.62"/>
</g>
<g id="link-14-segment" fill="none" stroke="#888888" stroke-dasharray="0" stroke-width="0.9" stroke-opacity="0.5">
<path d="M-198.97 -40.62 L24 40.62"/>
</g>
<g id="link-15-segment" fill="none" stroke="#888888" stroke-dasharray="0" stroke-width="0.9" stroke-opacity="0.5">
<path d="M-178.46 -40.62 L-165.89 40.62"/>
</g>
<g id="link-16-segment" fill="none" stroke="#888888" stroke-dasharray="0" stroke-width="0.9" stroke-opacity="0.5">
<path d="M-178.46 -40.62 L-144.79 40.62"/>
</g>
<g id="link-17-segment" fill="none" stroke="#888888" stroke-dasharray="0" stroke-width="0.9" stroke-opacity="0.5">
<path d="M-178.46 -40.62 L-81.49 40.62"/>
</g>
<g id="link-18-segment" fill="none" stroke="#888888" stroke-dasharray="0" stroke-width="0.9" stroke-opacity="0.5">
<path d="M-178.46 -40.62 L87.3 40.62"/>
</g>
<g id="link-19-segment" fill="none" stroke="#888888" stroke-dasharray="0" stroke-width="0.9" stroke-opacity="0.5">
<path d="M-157.95 -40.62 L-123.69 40.62"/>
</g>
<g id="link-20-segment" fill="none" stroke="#888888" stroke-dasharray="0" stroke-width="0.9" stroke-opacity="0.5">
<path d="M-157.95 -40.62 L-102.59 40.62"/>
</g>
<g id="link-21-segment" fill="none" stroke="#888888" stroke-dasharray="0" stroke-width="0.9" stroke-opacity="0.5">
<path d="M-157.95 -40.62 L-81.49 40.62"/>
</g>
<g id="link-22-segment" fill="none" stroke="#888888" stroke-dasharray="0" stroke-width="0.9" stroke-opacity="0.5">
<path d="M-157.95 -40.62 L108.4 40.62"/>
</g>
<g id="link-23-segment" fill="none" stroke="#888888" stroke-dasharray="0" stroke-width="0.9" stroke-opacity="0.5">
<path d="M-137.44 -40.62 L-144.79 40.62"/>
</g>
<g id="link-24-segment" fill="none" stroke="#888888" stroke-dasharray="0" stroke-width="0.9" stroke-opacity="0.5">
<path d="M-137.44 -40.62 L-102.59 40.62"/>
</g>
<g id="link-25-segment" fill="none" stroke="#888888" stroke-dasharray="0" stroke-width="0.9" stroke-opacity="0.5">
<path d="M-137.44 -40.62 L66.2 40.62"/>
</g>
<g id="link-26-segment" fill="none" stroke="#888888" stroke-dasharray="0" stroke-width="0.9" stroke-opacity="0.5">
<path d="M-116.92 -40.62 L-165.89 40.62"/>
</g>
<g id="link-27-segment" fill="none" stroke="#888888" stroke-dasharray="0" stroke-width="0.9" stroke-opacity="0.5">
<path d="M-116.92 -40.62 L-123.69 40.62"/>
</g>
<g id="link-28-segment" fill="none" stroke="#888888" stroke-dasharray="0" stroke-width="0.9" stroke-opacity="0.5">
<path d="M-116.92 -40.62 L-102.59 40.62"/>
</g>
<g id="link-29-segment" fill="none" stroke="#888888" stroke-dasharray="0" stroke-width="0.9" stroke-opacity="0.5">
<path d="M-96.41 -40.62 L-144.79 40.62"/>
</g>
<g id="link-30-segment" fill="none" stroke="#888888" stroke-dasharray="0" stroke-width="0.9" stroke-opacity="0.5">
<path d="M-96.41 -40.62 L-102.59 40.62"/>
</g>
<g id="link-31-segment" fill="none" stroke="#888888" stroke-dasharray="0" stroke-width="0.9" stroke-opacity="0.5">
<path d="M-96.41 -40.62 L-81.49 40.62"/>
</g>
<g id="link-32-segment" fill="none" stroke="#888888" stroke-dasharray="0" stroke-width="0.9" stroke-opacity="0.5">
<path d="M-75.9 -40.62 L-123.69 40.62"/>
</g>
<g id="link-33-segment" fill="none" stroke="#888888" stroke-dasharray="0" stroke-width="0.9" stroke-opacity="0.5">
<path d="M-75.9 -40.62 L-102.59 40.62"/>
</g>
<g id="link-34-segment" fill="none" stroke="#888888" stroke-dasharray="0" stroke-width="0.9" stroke-opacity="0.5">
<path d="M-55.38 -40.62 L-165.89 40.62"/>
</g>
<g id="link-35-segment" fill="none" stroke="#888888" stroke-dasharray="0" stroke-width="0.9" stroke-opacity="0.5">
<path d="M-55.38 -40.62 L108.4 40.62"/>
</g>
<g id="link-36-segment" fill="none" stroke="#888888" stroke-dasharray="0" stroke-width="0.9" stroke-opacity="0.5">
<path d="M-34.87 -40.62 L-165.89 40.62"/>
</g>
<g id="link-37-segment" fill="none" stroke="#888888" stroke-dasharray="0" stroke-width="0.9" stroke-opacity="0.5">
<path d="M-34.87 -40.62 L87.3 40.62"/>
</g>
<g id="link-38-segment" fill="none" stroke="#888888" stroke-dasharray="0" stroke-width="0.9" stroke-opacity="0.5">
<path d="M-14.36 -40.62 L-60.4 40.62"/>
</g>
<g id="link-39-segment" fill="none" stroke="#888888" stroke-dasharray="0" stroke-width="0.9" stroke-opacity="0.5">
<path d="M-14.36 -40.62 L-18.2 40.62"/>
</g>
<g id="link-40-segment" fill="none" stroke="#888888" stroke-dasharray="0" stroke-width="0.9" stroke-opacity="0.5">
<path d="M-14.36 -40.62 L24 40.62"/>
</g>
<g id="link-41-segment" fill="none" stroke="#888888" stroke-dasharray="0" stroke-width="0.9" stroke-opacity="0.5">
<path d="M6.15 -40.62 L-165.89 40.62"/>
</g>
<g id="link-42-segment" fill="none" stroke="#888888" stroke-dasharray="0" stroke-width="0.9" stroke-opacity="0.5">
<path d="M6.15 -40.62 L-102.59 40.62"/>
</g>
<g id="link-43-segment" fill="none" stroke="#888888" stroke-dasharray="0" stroke-width="0.9" stroke-opacity="0.5">
<path d="M26.67 -40.62 L-165.89 40.62"/>
</g>
<g id="link-44-segment" fill="none" stroke="#888888" stroke-dasharray="0" stroke-width="0.9" stroke-opacity="0.5">
<path d="M26.67 -40.62 L-123.69 40.62"/>
</g>
<g id="link-45-segment" fill="none" stroke="#888888" stroke-dasharray="0" stroke-width="0.9" stroke-opacity="0.5">
<path d="M47.18 -40.62 L-60.4 40.62"/>
</g>
<g id="link-46-segment" fill="none" stroke="#888888" stroke-dasharray="0" stroke-width="0.9" stroke-opacity="0.5">
<path d="M47.18 -40.62 L-39.3 40.62"/>
</g>
<g id="link-47-segment" fill="none" stroke="#888888" stroke-dasharray="0" stroke-width="0.9" stroke-opacity="0.5">
<path d="M67.69 -40.62 L-60.4 40.62"/>
</g>
<g id="link-48-segment" fill="none" stroke="#888888" stroke-dasharray="0" stroke-width="0.9" stroke-opacity="0.5">
<path d="M67.69 -40.62 L66.2 40.62"/>
</g>
<g id="link-49-segment" fill="none" stroke="#888888" stroke-dasharray="0" stroke-width="0.9" stroke-opacity="0.5">
<path d="M88.21 -40.62 L-60.4 40.62"/>
</g>
<g id="link-50-segment" fill="none" stroke="#888888" stroke-dasharray="0" stroke-width="0.9" stroke-opacity="0.5">
<path d="M88.21 -40.62 L45.1 40.62"/>
</g>
<g id="link-51-segment" fill="none" stroke="#888888" stroke-dasharray="0" stroke-width="0.9" stroke-opacity="0.5">
<path d="M108.72 -40.62 L-81.49 40.62"/>
</g>
<g id="link-52-segment" fill="none" stroke="#888888" stroke-dasharray="0" stroke-width="0.9" stroke-opacity="0.5">
<path d="M108.72 -40.62 L-18.2 40.62"/>
</g>
<g id="link-1-path" fill="none" stroke="#888888" stroke-dasharray="0" stroke-width="0.9" stroke-opacity="0.5">
<path d="M-72 89.35  L-56.32 89.42 L-40.63 89.62 L-24.95 90.05 L-9.27 90.68 L6.41 91.47 L22.1 92.4 L37.78 93.47 L53.46 94.67 L69.15 95.98 L84.83 97.39 L100.51 98.9 L116.2 100.49 L131.88 102.16 L147.56 103.88 L163.24 105.66 L178.93 107.48 L194.61 109.33 L210.29 111.21 L225.98 113.09"/>
</g>
<g id="link-2-path" fill="none" stroke="#888888" stroke-dasharray="0" stroke-width="0.9" stroke-opacity="0.5">
<path d="M-114.2 95.45  L-96.29 95.57 L-78.39 95.95 L-60.49 96.77 L-42.58 97.97 L-24.68 99.47 L-6.77 101.24 L11.13 103.28 L29.03 105.55 L46.94 108.04 L64.84 110.73 L82.75 113.6 L100.65 116.62 L118.55 119.78 L136.46 123.07 L154.36 126.45 L172.27 129.91 L190.17 133.43 L208.07 136.99 L225.98 140.57"/>
</g>
<g id="link-3-path" fill="none" stroke="#888888" stroke-dasharray="0" stroke-width="0.9" stroke-opacity="0.5">
<path d="M-135.3 98.49  L-116.28 98.69 L-97.27 99.28 L-78.25 100.54 L-59.24 102.38 L-40.22 104.69 L-21.21 107.43 L-2.2 110.57 L16.82 114.08 L35.83 117.92 L54.85 122.06 L73.86 126.48 L92.88 131.15 L111.89 136.02 L130.9 141.09 L149.92 146.3 L168.93 151.64 L187.95 157.07 L206.96 162.55 L225.98 168.07"/>
</g>
<g id="link-4-path" fill="none" stroke="#888888" stroke-dasharray="0" stroke-width="0.9" stroke-opacity="0.5">
<path d="M-156.4 101.54  L-136.27 101.81 L-116.15 102.64 L-96.02 104.42 L-75.9 107.02 L-55.77 110.28 L-35.65 114.14 L-15.52 118.57 L4.6 123.51 L24.73 128.92 L44.85 134.76 L64.98 141 L85.1 147.57 L105.23 154.45 L125.35 161.59 L145.48 168.94 L165.6 176.46 L185.73 184.11 L205.85 191.85 L225.98 199.63"/>
</g>
<g id="link-5-path" fill="none" stroke="#888888" stroke-dasharray="0" stroke-width="0.9" stroke-opacity="0.5">
<path d="M-25.64 -77.85  L-12.39 -78.13 L0.85 -78.99 L14.1 -80.84 L27.34 -83.54 L40.59 -86.93 L53.84 -90.94 L67.08 -95.54 L80.33 -100.67 L93.57 -106.29 L106.82 -112.36 L120.07 -118.84 L133.31 -125.67 L146.56 -132.81 L159.8 -140.23 L173.05 -147.86 L186.3 -155.68 L199.54 -163.63 L212.79 -171.67 L226.04 -179.75"/>
</g>
<g id="link-6-path" fill="none" stroke="#888888" stroke-dasharray="0" stroke-width="0.9" stroke-opacity="0.5">
<path d="M-46.15 -80.22  L-31.83 -80.59 L-17.5 -81.72 L-3.18 -84.14 L11.15 -87.69 L25.47 -92.14 L39.8 -97.41 L54.13 -103.44 L68.45 -110.17 L82.78 -117.56 L97.1 -125.53 L111.43 -134.03 L125.76 -142.99 L140.08 -152.37 L154.41 -162.11 L168.73 -172.13 L183.06 -182.39 L197.38 -192.83 L211.71 -203.38 L226.04 -213.99"/>
</g>
<g id="link-7-path" fill="none" stroke="#888888" stroke-dasharray="0" stroke-width="0.9" stroke-opacity="0.5">
<path d="M-66.67 -82.58  L-51.26 -83.04 L-35.86 -84.44 L-20.45 -87.42 L-5.05 -91.79 L10.36 -97.27 L25.77 -103.77 L41.17 -111.2 L56.58 -119.5 L71.98 -128.6 L87.39 -138.42 L102.79 -148.89 L118.2 -159.94 L133.6 -171.49 L149.01 -183.48 L164.41 -195.84 L179.82 -208.48 L195.22 -221.34 L210.63 -234.34 L226.04 -247.42"/>
</g>
<g id="link-8-path" fill="none" stroke="#888888" stroke-dasharray="0" stroke-width="0.9" stroke-opacity="0.5">
<path d="M-128.21 -89.69  L-109.56 -90.22 L-90.92 -91.83 L-72.27 -95.26 L-53.63 -100.29 L-34.98 -106.6 L-16.34 -114.07 L2.3 -122.62 L20.95 -132.17 L39.59 -142.64 L58.24 -153.94 L76.88 -165.99 L95.53 -178.7 L114.17 -192 L132.81 -205.8 L151.46 -220.01 L170.1 -234.56 L188.75 -249.36 L207.39 -264.32 L226.04 -279.37"/>
</g>
<g id="link-9-path" fill="none" stroke="#888888" stroke-dasharray="0" stroke-width="0.9" stroke-opacity="0.5">
<path d="M-169.23 -94.43  L-148.43 -95.04 L-127.62 -96.87 L-106.82 -100.8 L-86.02 -106.55 L-65.21 -113.76 L-44.41 -122.3 L-23.61 -132.08 L-2.8 -143 L18 -154.97 L38.8 -167.89 L59.61 -181.67 L80.41 -196.21 L101.21 -211.42 L122.02 -227.2 L142.82 -243.45 L163.63 -260.08 L184.43 -277 L205.23 -294.12 L226.04 -311.32"/>
</g>
<g id="link-10-path" fill="none" stroke="#888888" stroke-dasharray="0" stroke-width="0.9" stroke-opacity="0.5">
<path d="M-230.77 -101.54  L-206.73 -102.22 L-182.68 -104.28 L-158.64 -108.69 L-134.6 -115.15 L-110.56 -123.26 L-86.52 -132.85 L-62.47 -143.84 L-38.43 -156.12 L-14.39 -169.57 L9.65 -184.09 L33.7 -199.57 L57.74 -215.91 L81.78 -232.99 L105.82 -250.72 L129.87 -268.98 L153.91 -287.68 L177.95 -306.69 L201.99 -325.91 L226.04 -345.25"/>
</g>
</svg>