<svg xmlns="http://www.w3.org/2000/svg" viewBox="-370 -210 930 360">
<rect id="kcore3-a-1-rect" style="fill:#00008B;fill-opacity:0.2" stroke="transparent" stroke-dasharray="0" stroke-width="0.5" x="-101.27" y="-81.02" width="49.71" height="48.61" />
<rect id="kcore3-a-2-rect" style="fill:#4169E1;fill-opacity:0.2" stroke="transparent" stroke-dasharray="0" stroke-width="0.5" x="-46.03" y="-72.51" width="49.71" height="40.1" />
<rect id="kcore3-a-3-rect" style="fill:#00008B;fill-opacity:0.2" stroke="transparent" stroke-dasharray="0" stroke-width="0.5" x="9.21" y="-64" width="49.71" height="31.59" />
<rect id="kcore3-a-4-rect" style="fill:#4169E1;fill-opacity:0.2" stroke="transparent" stroke-dasharray="0" stroke-width="0.5" x="64.44" y="-55.5" width="49.72" height="23.09" />
<text id="kcore3-a-1-text" y="-56.71" style="text-anchor:middle;dominant-baseline:middle;font-family:Tahoma;font-size:15px;fill:#00008B">
<tspan x="-76.41" dy="0">1</tspan>
</text>
<text id="kcore3-a-2-text" y="-52.46" style="text-anchor:middle;dominant-baseline:middle;font-family:Tahoma;font-size:15px;fill:#00008B">
<tspan x="-21.17" dy="0">4</tspan>
</text>
<text id="kcore3-a-3-text" y="-48.2" style="text-anchor:middle;dominant-baseline:middle;font-family:Tahoma;font-size:15px;fill:#00008B">
<tspan x="34.06" dy="0">3</tspan>
</text>
<text id="kcore3-a-4-text" y="-43.95" style="text-anchor:middle;dominant-baseline:middle;font-family:Tahoma;font-size:15px;fill:#00008B">
<tspan x="89.3" dy="0">2</tspan>
</text>
<rect id="kcore3-b-1-rect" style="fill:#FF0000;fill-opacity:0.2" stroke="transparent" stroke-dasharray="0" stroke-width="0.5" x="-101.27" y="32.41" width="49.71" height="48.61" />
<rect id="kcore3-b-2-rect" style="fill:#F08080;fill-opacity:0.2" stroke="transparent" stroke-dasharray="0" stroke-width="0.5" x="-46.03" y="32.41" width="49.71" height="40.1" />
<rect id="kcore3-b-3-rect" style="fill:#FF0000;fill-opacity:0.2" stroke="transparent" stroke-dasharray="0" stroke-width="0.5" x="9.21" y="32.41" width="49.71" height="31.59" />
<rect id="kcore3-b-4-rect" style="fill:#F08080;fill-opacity:0.2" stroke="transparent" stroke-dasharray="0" stroke-width="0.5" x="64.44" y="32.41" width="49.72" height="23.09" />
<text id="kcore3-b-1-text" y="56.71" style="text-anchor:middle;dominant-baseline:middle;font-family:Tahoma;font-size:15px;fill:#FF0000">
<tspan x="-76.41" dy="0">1</tspan>
</text>
<text id="kcore3-b-2-text" y="52.46" style="text-anchor:middle;dominant-baseline:middle;font-family:Tahoma;font-size:15px;fill:#FF0000">
<tspan x="-21.17" dy="0">2</tspan>
</text>
<text id="kcore3-b-3-text" y="48.2" style="text-anchor:middle;dominant-baseline:middle;font-family:Tahoma;font-size:15px;fill:#FF0000">
<tspan x="34.06" dy="0">5</tspan>
</text>
<text id="kcore3-b-4-text" y="43.95" style="text-anchor:middle;dominant-baseline:middle;font-family:Tahoma;font-size:15px;fill:#FF0000">
<tspan x="89.3" dy="0">4</tspan>
</text>
<rect id="kcore2-a-1-rect" style="fill:#00008B;fill-opacity:0.2" stroke="transparent" stroke-dasharray="0" stroke-width="0.5" x="209.56" y="126.2" width="83.22" height="11.78" />
<rect id="kcore2-a-2-rect" style="fill:#4169E1;fill-opacity:0.2" stroke="transparent" stroke-dasharray="0" stroke-width="0.5" x="237.3" y="112.06" width="48.55" height="11.78" />
<text id="kcore2-a-1-text" y="132.09" style="text-anchor:middle;dominant-baseline:middle;font-family:Tahoma;font-size:13.5px;fill:#00008B">
<tspan x="276.14" dy="0">6</tspan>
</text>
<text id="kcore2-a-2-text" y="117.95" style="text-anchor:middle;dominant-baseline:middle;font-family:Tahoma;font-size:13.5px;fill:#00008B">
<tspan x="244.58" dy="0">5</tspan>
</text>
<rect id="kcore2-b-1-rect" style="fill:#FF0000;fill-opacity:0.2" stroke="transparent" stroke-dasharray="0" stroke-width="0.5" x="209.56" y="-163.5" width="83.22" height="11.78" />
<rect id="kcore2-b-2-rect" style="fill:#F08080;fill-opacity:0.2" stroke="transparent" stroke-dasharray="0" stroke-width="0.5" x="237.3" y="-149.36" width="48.55" height="11.78" />
<text id="kcore2-b-1-text" y="-157.61" style="text-anchor:middle;dominant-baseline:middle;font-family:Tahoma;font-size:13.5px;fill:#FF0000">
<tspan x="276.14" dy="0">3</tspan>
</text>
<text id="kcore2-b-2-text" y="-143.47" style="text-anchor:middle;dominant-baseline:middle;font-family:Tahoma;font-size:13.5px;fill:#FF0000">
<tspan x="244.58" dy="0">6</tspan>
</text>
<rect id="kcore3-1-rect" style="fill:none;fill-opacity:0.3" stroke="#8B4C39" stroke-dasharray="1 1" stroke-width="0.2" x="-138.39" y="-97.51" width="264.92" height="186.77" />
<text id="kcore3-1-text" y="-4.12" style="text-anchor:middle;dominant-baseline:middle;font-family:Tahoma;font-size:10.5px;fill:transparent">
</text>
<text id="kcore3-1-text" y="0" transform="rotate(-90 -112.41 0)" style="text-anchor:start;dominant-baseline:baseline;font-family:Tahoma;font-size:15px;fill:#8B4C39">
<tspan x="-112.41" dy="0">3-shell</tspan>
</text>
<rect id="kcore2-1-rect" style="fill:none;fill-opacity:0.3" stroke="#AC5E46" stroke-dasharray="1 1" stroke-width="0.2" x="197.18" y="-182.89" width="107.98" height="329.12" />
<text id="kcore2-1-text" y="-18.33" style="text-anchor:middle;dominant-baseline:middle;font-family:Tahoma;font-size:10.5px;fill:transparent">
</text>
<text id="kcore2-1-text" y="-174.64" style="text-anchor:start;dominant-baseline:baseline;font-family:Tahoma;font-size:15px;fill:#AC5E46">
<tspan x="238.8" dy="0">2-shell</tspan>
</text>
<rect id="fat-kcore1-a-1-rect" style="fill:#00008B;fill-opacity:0.11" stroke="transparent" stroke-dasharray="0" stroke-width="0.5" x="-359.05" y="19.85" width="12.38" height="17.68" />
<text id="fat-kcore1-a-1-text" y="28.69" style="text-anchor:middle;dominant-baseline:middle;font-family:Tahoma;font-size:12px;fill:#00008B">
<tspan x="-352.86" dy="0"> 7</tspan>
</text>
<rect id="annotation-1-rect" style="fill:none;fill-opacity:0.5" stroke="transparent" stroke-dasharray="0" stroke-width="0.5" x="552.38" y="-0.03" width="0.0199999999999818" height="0.03" />
<text id="annotation-1-text" y="-0.02" style="text-anchor:middle;dominant-baseline:middle;font-family:Tahoma;font-size:10.5px;fill:transparent">
</text>
<text id="annotation-1-text" y="0" style="text-anchor:middle;dominant-baseline:middle;font-family:Tahoma;font-size:3px;fill:red">
<tspan x="552.38" dy="0">.</tspan>
</text>
<text id="annotation-1-text" y="0" style="text-anchor:middle;dominant-baseline:middle;font-family:Tahoma;font-size:3px;fill:red">
<tspan x="-230.16" dy="0">.</tspan>
</text>
<g id="link-1-segment" fill="none" stroke="#888888" stroke-dasharray="0" stroke-width="1.35" stroke-opacity="0.5">
<path d="M-346.67 28.69 L-101.27 57.15"/>
</g>
<g id="link-2-segment" fill="none" stroke="#888888" stroke-dasharray="0" stroke-width="1.35" stroke-opacity="0.5">
<path d="M-76.41 -32.41 L-76.41 32.41"/>
</g>
<g id="link-3-segment" fill="none" stroke="#888888" stroke-dasharray="0" stroke-width="1.35" stroke-opacity="0.5">
<path d="M-76.41 -32.41 L-21.17 32.41"/>
</g>
<g id="link-4-segment" fill="none" stroke="#888888" stroke-dasharray="0" stroke-width="1.35" stroke-opacity="0.5">
<path d="M-76.41 -32.41 L34.06 32.41"/>
</g>
<g id="link-5-segment" fill="none" stroke="#888888" stroke-dasharray="0" stroke-width="1.35" stroke-opacity="0.5">
<path d="M-76.41 -32.41 L89.3 32.41"/>
</g>
<g id="link-6-segment" fill="none" stroke="#888888" stroke-dasharray="0" stroke-width="1.35" stroke-opacity="0.5">
<path d="M-21.17 -32.41 L-76.41 32.41"/>
</g>
<g id="link-7-segment" fill="none" stroke="#888888" stroke-dasharray="0" stroke-width="1.35" stroke-opacity="0.5">
<path d="M-21.17 -32.41 L34.06 32.41"/>
</g>
<g id="link-8-segment" fill="none" stroke="#888888" stroke-dasharray="0" stroke-width="1.35" stroke-opacity="0.5">
<path d="M-21.17 -32.41 L89.3 32.41"/>
</g>
<g id="link-9-segment" fill="none" stroke="#888888" stroke-dasharray="0" stroke-width="1.35" stroke-opacity="0.5">
<path d="M34.06 -32.41 L-76.41 32.41"/>
</g>
<g id="link-10-segment" fill="none" stroke="#888888" stroke-dasharray="0" stroke-width="1.35" stroke-opacity="0.5">
<path d="M34.06 -32.41 L-21.17 32.41"/>
</g>
<g id="link-11-segment" fill="none" stroke="#888888" stroke-dasharray="0" stroke-width="1.35" stroke-opacity="0.5">
<path d="M34.06 -32.41 L89.3 32.41"/>
</g>
<g id="link-12-segment" fill="none" stroke="#888888" stroke-dasharray="0" stroke-width="1.35" stroke-opacity="0.5">
<path d="M89.3 -32.41 L-76.41 32.41"/>
</g>
<g id="link-13-segment" fill="none" stroke="#888888" stroke-dasharray="0" stroke-width="1.35" stroke-opacity="0.5">
<path d="M89.3 -32.41 L-21.17 32.41"/>
</g>
<g id="link-14-segment" fill="none" stroke="#888888" stroke-dasharray="0" stroke-width="1.35" stroke-opacity="0.5">
<path d="M89.3 -32.41 L34.06 32.41"/>
</g>
<g id="link-15-segment" fill="none" stroke="#888888" stroke-dasharray="0" stroke-width="1.35" stroke-opacity="0.5">
<path d="M237.3 112.06 L209.56 -151.72"/>
</g>
<g id="link-1-path" fill="none" stroke="#888888" stroke-dasharray="0" stroke-width="1.35" stroke-opacity="0.5">
<path d="M-76.41 81.02  L-61.36 84.77 L-46.31 88.41 L-31.26 91.81 L-16.21 94.85 L-1.16 97.42 L13.89 99.47 L28.94 101.09 L44 102.39 L59.05 103.48 L74.1 104.46 L89.15 105.44 L104.2 106.53 L119.25 107.85 L134.3 109.49 L149.35 111.56 L164.4 114.17 L179.46 117.44 L194.51 121.46 L209.56 126.2"/>
</g>
<g id="link-2-path" fill="none" stroke="#888888" stroke-dasharray="0" stroke-width="1.35" stroke-opacity="0.5">
<path d="M-21.17 72.51  L-9.03 76.97 L3.11 81.29 L15.26 85.33 L27.4 88.95 L39.54 92 L51.69 94.44 L63.83 96.36 L75.98 97.91 L88.12 99.2 L100.26 100.36 L112.41 101.53 L124.55 102.83 L136.69 104.39 L148.84 106.34 L160.98 108.8 L173.13 111.91 L185.27 115.79 L197.41 120.57 L209.56 126.2"/>
</g>
<g id="link-3-path" fill="none" stroke="#888888" stroke-dasharray="0" stroke-width="1.35" stroke-opacity="0.5">
<path d="M-76.41 81.02  L-59.9 83.6 L-43.39 86.1 L-26.88 88.43 L-10.37 90.52 L6.14 92.29 L22.65 93.7 L39.17 94.81 L55.68 95.7 L72.19 96.45 L88.7 97.12 L105.21 97.8 L121.72 98.55 L138.23 99.45 L154.74 100.58 L171.25 102 L187.77 103.8 L204.28 106.04 L220.79 108.8 L237.3 112.06"/>
</g>
<g id="link-4-path" fill="none" stroke="#888888" stroke-dasharray="0" stroke-width="1.35" stroke-opacity="0.5">
<path d="M-76.41 -81.02  L-61.36 -88.44 L-46.31 -94.73 L-31.26 -99.84 L-16.21 -103.93 L-1.16 -107.17 L13.89 -109.74 L28.94 -111.79 L44 -113.5 L59.05 -115.04 L74.1 -116.57 L89.15 -118.27 L104.2 -120.31 L119.25 -122.84 L134.3 -126.05 L149.35 -130.07 L164.4 -134.83 L179.46 -140.15 L194.51 -145.84 L209.56 -151.72"/>
</g>
<g id="link-5-path" fill="none" stroke="#888888" stroke-dasharray="0" stroke-width="1.35" stroke-opacity="0.5">
<path d="M-21.17 -72.51  L-7.57 -79.34 L6.03 -85.13 L19.64 -89.83 L33.24 -93.6 L46.84 -96.58 L60.45 -98.94 L74.05 -100.83 L87.66 -102.41 L101.26 -103.82 L114.86 -105.23 L128.47 -106.8 L142.07 -108.67 L155.68 -111 L169.28 -113.95 L182.88 -117.65 L196.49 -122.04 L210.09 -126.93 L223.7 -132.17 L237.3 -137.58"/>
</g>
<g id="link-6-path" fill="none" stroke="#888888" stroke-dasharray="0" stroke-width="1.35" stroke-opacity="0.5">
<path d="M34.06 -64  L43.3 -73.21 L52.54 -81.02 L61.77 -87.35 L71.01 -92.43 L80.25 -96.45 L89.48 -99.63 L98.72 -102.18 L107.96 -104.3 L117.19 -106.21 L126.43 -108.12 L135.67 -110.23 L144.9 -112.75 L154.14 -115.89 L163.37 -119.87 L172.61 -124.86 L181.85 -130.77 L191.08 -137.37 L200.32 -144.43 L209.56 -151.72"/>
</g>
<g id="link-7-path" fill="none" stroke="#888888" stroke-dasharray="0" stroke-width="1.35" stroke-opacity="0.5">
<path d="M89.3 -55.5  L97.09 -64.11 L104.88 -71.42 L112.67 -77.35 L120.46 -82.1 L128.25 -85.86 L136.04 -88.84 L143.83 -91.22 L151.62 -93.21 L159.41 -95 L167.2 -96.78 L174.98 -98.75 L182.77 -101.11 L190.56 -104.05 L198.35 -107.78 L206.14 -112.44 L213.93 -117.97 L221.72 -124.15 L229.51 -130.76 L237.3 -137.58"/>
</g>
</svg>