<svg xmlns="http://www.w3.org/2000/svg" viewBox="-990 -560 1920 1920">
<rect id="zigguratkcore3-a-1-rect" style="fill:#00008B;fill-opacity:0.2" stroke="transparent" stroke-dasharray="0" stroke-width="0.5" x="-336.15" y="-155.69" width="63.69" height="93.41" />
<rect id="zigguratkcore3-a-2-rect" style="fill:#4169E1;fill-opacity:0.2" stroke="transparent" stroke-dasharray="0" stroke-width="0.5" x="-265.38" y="-147.52" width="63.69" height="85.24" />
<rect id="zigguratkcore3-a-3-rect" style="fill:#00008B;fill-opacity:0.2" stroke="transparent" stroke-dasharray="0" stroke-width="0.5" x="-194.62" y="-139.34" width="63.7" height="77.06" />
<rect id="zigguratkcore3-a-4-rect" style="fill:#4169E1;fill-opacity:0.2" stroke="transparent" stroke-dasharray="0" stroke-width="0.5" x="-123.85" y="-131.17" width="63.7" height="68.89" />
<rect id="zigguratkcore3-a-5-rect" style="fill:#00008B;fill-opacity:0.2" stroke="transparent" stroke-dasharray="0" stroke-width="0.5" x="-53.08" y="-123" width="63.7" height="60.72" />
<rect id="zigguratkcore3-a-6-rect" style="fill:#4169E1;fill-opacity:0.2" stroke="transparent" stroke-dasharray="0" stroke-width="0.5" x="17.69" y="-114.82" width="63.69" height="52.54" />
<rect id="zigguratkcore3-a-7-rect" style="fill:#00008B;fill-opacity:0.2" stroke="transparent" stroke-dasharray="0" stroke-width="0.5" x="88.46" y="-106.65" width="63.69" height="44.37" />
<rect id="zigguratkcore3-a-8-rect" style="fill:#4169E1;fill-opacity:0.2" stroke="transparent" stroke-dasharray="0" stroke-width="0.5" x="159.23" y="-98.48" width="63.69" height="36.2" />
<text id="zigguratkcore3-a-1-text" y="-108.98" style="text-anchor:middle;dominant-baseline:middle;font-family:Arial;font-size:15px;fill:#00008B">
<tspan x="-304.31" dy="0">11</tspan>
</text>
<text id="zigguratkcore3-a-2-text" y="-104.9" style="text-anchor:middle;dominant-baseline:middle;font-family:Arial;font-size:15px;fill:#00008B">
<tspan x="-233.54" dy="0">13</tspan>
</text>
<text id="zigguratkcore3-a-3-text" y="-100.81" style="text-anchor:middle;dominant-baseline:middle;font-family:Arial;font-size:15px;fill:#00008B">
<tspan x="-162.77" dy="0">19</tspan>
</text>
<text id="zigguratkcore3-a-4-text" y="-96.72" style="text-anchor:middle;dominant-baseline:middle;font-family:Arial;font-size:15px;fill:#00008B">
<tspan x="-92" dy="0">24</tspan>
</text>
<text id="zigguratkcore3-a-5-text" y="-92.64" style="text-anchor:middle;dominant-baseline:middle;font-family:Arial;font-size:15px;fill:#00008B">
<tspan x="-21.23" dy="0">1</tspan>
</text>
<text id="zigguratkcore3-a-6-text" y="-88.55" style="text-anchor:middle;dominant-baseline:middle;font-family:Arial;font-size:15px;fill:#00008B">
<tspan x="49.54" dy="0">16</tspan>
</text>
<text id="zigguratkcore3-a-7-text" y="-84.46" style="text-anchor:middle;dominant-baseline:middle;font-family:Arial;font-size:15px;fill:#00008B">
<tspan x="120.31" dy="0">15</tspan>
</text>
<text id="zigguratkcore3-a-8-text" y="-80.38" style="text-anchor:middle;dominant-baseline:middle;font-family:Arial;font-size:15px;fill:#00008B">
<tspan x="191.08" dy="0">5</tspan>
</text>
<rect id="zigguratkcore3-b-1-rect" style="fill:#FF0000;fill-opacity:0.2" stroke="transparent" stroke-dasharray="0" stroke-width="0.5" x="-336.15" y="62.28" width="63.69" height="93.41" />
<rect id="zigguratkcore3-b-2-rect" style="fill:#F08080;fill-opacity:0.2" stroke="transparent" stroke-dasharray="0" stroke-width="0.5" x="-265.38" y="62.28" width="63.69" height="85.24" />
<rect id="zigguratkcore3-b-3-rect" style="fill:#FF0000;fill-opacity:0.2" stroke="transparent" stroke-dasharray="0" stroke-width="0.5" x="-194.62" y="62.28" width="63.7" height="77.06" />
<rect id="zigguratkcore3-b-4-rect" style="fill:#F08080;fill-opacity:0.2" stroke="transparent" stroke-dasharray="0" stroke-width="0.5" x="-123.85" y="62.28" width="63.7" height="68.89" />
<rect id="zigguratkcore3-b-5-rect" style="fill:#FF0000;fill-opacity:0.2" stroke="transparent" stroke-dasharray="0" stroke-width="0.5" x="-53.08" y="62.28" width="63.7" height="60.72" />
<rect id="zigguratkcore3-b-6-rect" style="fill:#F08080;fill-opacity:0.2" stroke="transparent" stroke-dasharray="0" stroke-width="0.5" x="17.69" y="62.28" width="63.69" height="52.54" />
<rect id="zigguratkcore3-b-7-rect" style="fill:#FF0000;fill-opacity:0.2" stroke="transparent" stroke-dasharray="0" stroke-width="0.5" x="88.46" y="62.28" width="63.69" height="44.37" />
<rect id="zigguratkcore3-b-8-rect" style="fill:#F08080;fill-opacity:0.2" stroke="transparent" stroke-dasharray="0" stroke-width="0.5" x="159.23" y="62.28" width="63.69" height="36.2" />
<text id="zigguratkcore3-b-1-text" y="108.98" style="text-anchor:middle;dominant-baseline:middle;font-family:Arial;font-size:15px;fill:#FF0000">
<tspan x="-304.31" dy="0">10</tspan>
</text>
<text id="zigguratkcore3-b-2-text" y="104.9" style="text-anchor:middle;dominant-baseline:middle;font-family:Arial;font-size:15px;fill:#FF0000">
<tspan x="-233.54" dy="0">7</tspan>
</text>
<text id="zigguratkcore3-b-3-text" y="100.81" style="text-anchor:middle;dominant-baseline:middle;font-family:Arial;font-size:15px;fill:#FF0000">
<tspan x="-162.77" dy="0">17</tspan>
</text>
<text id="zigguratkcore3-b-4-text" y="96.72" style="text-anchor:middle;dominant-baseline:middle;font-family:Arial;font-size:15px;fill:#FF0000">
<tspan x="-92" dy="0">15</tspan>
</text>
<text id="zigguratkcore3-b-5-text" y="92.64" style="text-anchor:middle;dominant-baseline:middle;font-family:Arial;font-size:15px;fill:#FF0000">
<tspan x="-21.23" dy="0">5</tspan>
</text>
<text id="zigguratkcore3-b-6-text" y="88.55" style="text-anchor:middle;dominant-baseline:middle;font-family:Arial;font-size:15px;fill:#FF0000">
<tspan x="49.54" dy="0">9</tspan>
</text>
<text id="zigguratkcore3-b-7-text" y="84.46" style="text-anchor:middle;dominant-baseline:middle;font-family:Arial;font-size:15px;fill:#FF0000">
<tspan x="120.31" dy="0">20</tspan>
</text>
<text id="zigguratkcore3-b-8-text" y="80.38" style="text-anchor:middle;dominant-baseline:middle;font-family:Arial;font-size:15px;fill:#FF0000">
<tspan x="191.08" dy="0">8</tspan>
</text>
<rect id="zigguratkcore2-a-1-rect" style="fill:#00008B;fill-opacity:0.2" stroke="transparent" stroke-dasharray="0" stroke-width="0.5" x="423.75" y="533.98" width="179.76" height="27.22" />
<rect id="zigguratkcore2-a-2-rect" style="fill:#4169E1;fill-opacity:0.2" stroke="transparent" stroke-dasharray="0" stroke-width="0.5" x="438.73" y="501.32" width="161.03" height="27.21" />
<rect id="zigguratkcore2-a-3-rect" style="fill:#00008B;fill-opacity:0.2" stroke="transparent" stroke-dasharray="0" stroke-width="0.5" x="453.71" y="468.65" width="142.31" height="27.22" />
<rect id="zigguratkcore2-a-4-rect" style="fill:#4169E1;fill-opacity:0.2" stroke="transparent" stroke-dasharray="0" stroke-width="0.5" x="468.69" y="435.99" width="123.58" height="27.22" />
<rect id="zigguratkcore2-a-5-rect" style="fill:#00008B;fill-opacity:0.2" stroke="transparent" stroke-dasharray="0" stroke-width="0.5" x="483.67" y="403.33" width="104.86" height="27.22" />
<rect id="zigguratkcore2-a-6-rect" style="fill:#4169E1;fill-opacity:0.2" stroke="transparent" stroke-dasharray="0" stroke-width="0.5" x="498.65" y="370.66" width="86.13" height="27.22" />
<rect id="zigguratkcore2-a-7-rect" style="fill:#00008B;fill-opacity:0.2" stroke="transparent" stroke-dasharray="0" stroke-width="0.5" x="513.63" y="338" width="67.41" height="27.22" />
<rect id="zigguratkcore2-a-8-rect" style="fill:#4169E1;fill-opacity:0.2" stroke="transparent" stroke-dasharray="0" stroke-width="0.5" x="528.61" y="305.34" width="48.6799999999999" height="27.22" />
<text id="zigguratkcore2-a-1-text" y="547.59" style="text-anchor:middle;dominant-baseline:middle;font-family:Arial;font-size:13.5px;fill:#00008B">
<tspan x="567.56" dy="0">2</tspan>
</text>
<text id="zigguratkcore2-a-2-text" y="514.93" style="text-anchor:middle;dominant-baseline:middle;font-family:Arial;font-size:13.5px;fill:#00008B">
<tspan x="462.89" dy="0">18</tspan>
</text>
<text id="zigguratkcore2-a-3-text" y="482.26" style="text-anchor:middle;dominant-baseline:middle;font-family:Arial;font-size:13.5px;fill:#00008B">
<tspan x="567.56" dy="0">4</tspan>
</text>
<text id="zigguratkcore2-a-4-text" y="449.6" style="text-anchor:middle;dominant-baseline:middle;font-family:Arial;font-size:13.5px;fill:#00008B">
<tspan x="487.23" dy="0">10</tspan>
</text>
<text id="zigguratkcore2-a-5-text" y="416.94" style="text-anchor:middle;dominant-baseline:middle;font-family:Arial;font-size:13.5px;fill:#00008B">
<tspan x="567.56" dy="0">25</tspan>
</text>
<text id="zigguratkcore2-a-6-text" y="384.27" style="text-anchor:middle;dominant-baseline:middle;font-family:Arial;font-size:13.5px;fill:#00008B">
<tspan x="511.57" dy="0">9</tspan>
</text>
<text id="zigguratkcore2-a-7-text" y="351.61" style="text-anchor:middle;dominant-baseline:middle;font-family:Arial;font-size:13.5px;fill:#00008B">
<tspan x="567.56" dy="0">23</tspan>
</text>
<text id="zigguratkcore2-a-8-text" y="318.95" style="text-anchor:middle;dominant-baseline:middle;font-family:Arial;font-size:13.5px;fill:#00008B">
<tspan x="535.91" dy="0">14</tspan>
</text>
<rect id="zigguratkcore2-b-1-rect" style="fill:#FF0000;fill-opacity:0.2" stroke="transparent" stroke-dasharray="0" stroke-width="0.5" x="416.26" y="-455.1" width="179.76" height="27.22" />
<rect id="zigguratkcore2-b-2-rect" style="fill:#F08080;fill-opacity:0.2" stroke="transparent" stroke-dasharray="0" stroke-width="0.5" x="440.23" y="-422.44" width="149.8" height="27.22" />
<rect id="zigguratkcore2-b-3-rect" style="fill:#FF0000;fill-opacity:0.2" stroke="transparent" stroke-dasharray="0" stroke-width="0.5" x="464.2" y="-389.78" width="119.83" height="27.22" />
<rect id="zigguratkcore2-b-4-rect" style="fill:#F08080;fill-opacity:0.2" stroke="transparent" stroke-dasharray="0" stroke-width="0.5" x="488.16" y="-357.11" width="89.8799999999999" height="27.22" />
<rect id="zigguratkcore2-b-5-rect" style="fill:#FF0000;fill-opacity:0.2" stroke="transparent" stroke-dasharray="0" stroke-width="0.5" x="512.13" y="-324.45" width="59.92" height="27.22" />
<text id="zigguratkcore2-b-1-text" y="-441.49" style="text-anchor:middle;dominant-baseline:middle;font-family:Arial;font-size:13.5px;fill:#FF0000">
<tspan x="443.22" dy="0">16</tspan>
</text>
<text id="zigguratkcore2-b-2-text" y="-408.83" style="text-anchor:middle;dominant-baseline:middle;font-family:Arial;font-size:13.5px;fill:#FF0000">
<tspan x="560.07" dy="0">6</tspan>
</text>
<text id="zigguratkcore2-b-3-text" y="-376.17" style="text-anchor:middle;dominant-baseline:middle;font-family:Arial;font-size:13.5px;fill:#FF0000">
<tspan x="482.17" dy="0">18</tspan>
</text>
<text id="zigguratkcore2-b-4-text" y="-343.5" style="text-anchor:middle;dominant-baseline:middle;font-family:Arial;font-size:13.5px;fill:#FF0000">
<tspan x="560.07" dy="0">21</tspan>
</text>
<text id="zigguratkcore2-b-5-text" y="-310.84" style="text-anchor:middle;dominant-baseline:middle;font-family:Arial;font-size:13.5px;fill:#FF0000">
<tspan x="521.12" dy="0">2</tspan>
</text>
<rect id="zigguratkcore3-1-rect" style="fill:none;fill-opacity:0.3" stroke="#8B4C39" stroke-dasharray="1 1" stroke-width="0" x="-415.77" y="-231.91" width="665.23" height="425.71" />
<text id="zigguratkcore3-1-text" y="-19.05" style="text-anchor:middle;dominant-baseline:middle;font-family:Arial;font-size:10.5px;fill:transparent">
</text>
<text id="zigguratkcore3-1-text" y="0" transform="rotate(-90 -373.31 0)" style="text-anchor:start;dominant-baseline:middle;font-family:Arial;font-size:15px;fill:#8B4C39">
<tspan x="-373.31" dy="0">3-shell</tspan>
</text>
<rect id="zigguratkcore2-1-rect" style="fill:none;fill-opacity:0.3" stroke="#AC5E46" stroke-dasharray="1 1" stroke-width="0" x="389.72" y="-550.37" width="240.33" height="1149.67" />
<text id="zigguratkcore2-1-text" y="24.47" style="text-anchor:middle;dominant-baseline:middle;font-family:Arial;font-size:10.5px;fill:transparent">
</text>
<text id="zigguratkcore2-1-text" y="-497.02" style="text-anchor:start;dominant-baseline:middle;font-family:Arial;font-size:15px;fill:#AC5E46">
<tspan x="483.35" dy="0">2-shell</tspan>
</text>
<rect id="zigguratedge-kcore1-a-tail-5-1-rect" style="fill:#00008B;fill-opacity:0.11" stroke="transparent" stroke-dasharray="0" stroke-width="0.5" x="-158.35" y="428.56" width="26.54" height="26.54" />
<text id="zigguratedge-kcore1-a-tail-5-1-text" y="441.83" transform="rotate(30 -145.08 441.83)" style="text-anchor:middle;dominant-baseline:middle;font-family:Arial;font-size:12px;fill:#00008B">
<tspan x="-145.08" dy="0"> 7</tspan>
</text>
<rect id="zigguratedge-kcore1-a-tail-7-1-rect" style="fill:#00008B;fill-opacity:0.11" stroke="transparent" stroke-dasharray="0" stroke-width="0.5" x="-200.93" y="441.93" width="33.86" height="33.87" />
<text id="zigguratedge-kcore1-a-tail-7-1-text" y="458.87" transform="rotate(30 -184 458.87)" style="text-anchor:start;dominant-baseline:middle;font-family:Arial;font-size:12px;fill:#00008B">
<tspan x="-184" dy="0"> 29  31</tspan>
</text>
<rect id="zigguratedge-kcore1-b-tail-24-1-rect" style="fill:#FF0000;fill-opacity:0.11" stroke="transparent" stroke-dasharray="0" stroke-width="0.5" x="-158.35" y="-430.6" width="26.54" height="26.54" />
<text id="zigguratedge-kcore1-b-tail-24-1-text" y="-417.33" transform="rotate(-30 -145.08 -417.33)" style="text-anchor:middle;dominant-baseline:middle;font-family:Arial;font-size:12px;fill:#FF0000">
<tspan x="-145.08" dy="0"> 11</tspan>
</text>
<rect id="zigguratedge-kcore1-a-fattail-1-rect" style="fill:#00008B;fill-opacity:0.11" stroke="transparent" stroke-dasharray="0" stroke-width="0.5" x="-866.92" y="46.12" width="39.49" height="39.49" />
<text id="zigguratedge-kcore1-a-fattail-1-text" y="65.87" style="text-anchor:start;dominant-baseline:middle;font-family:Arial;font-size:12px;fill:#00008B">
<tspan x="-847.18" dy="0"> 6 26 </tspan>
<tspan x="-847.18" dy="16.8"> 30</tspan>
</text>
<rect id="zigguratedge-kcore1-a-tail-2-1-rect" style="fill:#00008B;fill-opacity:0.11" stroke="transparent" stroke-dasharray="0" stroke-width="0.5" x="819.74" y="-247.28" width="26.54" height="26.53" />
<text id="zigguratedge-kcore1-a-tail-2-1-text" y="-234.01" style="text-anchor:middle;dominant-baseline:middle;font-family:Arial;font-size:12px;fill:#00008B">
<tspan x="833.01" dy="0"> 21</tspan>
</text>
<rect id="zigguratedge-kcore1-a-tail-21-1-rect" style="fill:#00008B;fill-opacity:0.11" stroke="transparent" stroke-dasharray="0" stroke-width="0.5" x="819.74" y="-284.44" width="26.54" height="26.54" />
<text id="zigguratedge-kcore1-a-tail-21-1-text" y="-271.17" style="text-anchor:middle;dominant-baseline:middle;font-family:Arial;font-size:12px;fill:#00008B">
<tspan x="833.01" dy="0"> 27</tspan>
</text>
<rect id="zigguratedge-kcore1-a-tail-18-1-rect" style="fill:#00008B;fill-opacity:0.11" stroke="transparent" stroke-dasharray="0" stroke-width="0.5" x="819.74" y="-328.92" width="33.87" height="33.87" />
<text id="zigguratedge-kcore1-a-tail-18-1-text" y="-311.99" style="text-anchor:start;dominant-baseline:middle;font-family:Arial;font-size:12px;fill:#00008B">
<tspan x="836.68" dy="0"> 12  32</tspan>
</text>
<rect id="zigguratedge-kcore1-b-tail-9-1-rect" style="fill:#FF0000;fill-opacity:0.11" stroke="transparent" stroke-dasharray="0" stroke-width="0.5" x="824.98" y="273.79" width="33.87" height="33.87" />
<text id="zigguratedge-kcore1-b-tail-9-1-text" y="290.73" style="text-anchor:start;dominant-baseline:middle;font-family:Arial;font-size:12px;fill:#FF0000">
<tspan x="841.92" dy="0"> 3  19</tspan>
</text>
<rect id="zigguratedge-kcore1-a-1-1-rect" style="fill:#00008B;fill-opacity:0.2" stroke="transparent" stroke-dasharray="0" stroke-width="0.5" x="-826.09" y="348.95" width="35.38" height="35.38" />
<text id="zigguratedge-kcore1-a-1-1-text" y="366.64" style="text-anchor:middle;dominant-baseline:middle;font-family:Arial;font-size:12px;fill:#00008B">
<tspan x="-808.4" dy="0"> 17</tspan>
</text>
<rect id="zigguratedge-kcore1-b-2-1-rect" style="fill:#FF0000;fill-opacity:0.2" stroke="transparent" stroke-dasharray="0" stroke-width="0.5" x="-826.09" y="-419.72" width="35.38" height="35.39" />
<text id="zigguratedge-kcore1-b-2-1-text" y="-402.02" style="text-anchor:middle;dominant-baseline:middle;font-family:Arial;font-size:12px;fill:#FF0000">
<tspan x="-808.4" dy="0"> 13</tspan>
</text>
<rect id="zigguratedge-kcore1-b-3-1-rect" style="fill:#FF0000;fill-opacity:0.2" stroke="transparent" stroke-dasharray="0" stroke-width="0.5" x="-985.33" y="457.82" width="35.39" height="35.39" />
<text id="zigguratedge-kcore1-b-3-1-text" y="475.51" style="text-anchor:middle;dominant-baseline:middle;font-family:Arial;font-size:12px;fill:#FF0000">
<tspan x="-967.63" dy="0"> 4</tspan>
</text>
<rect id="zigguratedge-kcore1-a-4-1-rect" style="fill:#00008B;fill-opacity:0.2" stroke="transparent" stroke-dasharray="0" stroke-width="0.5" x="-985.33" y="-528.59" width="35.39" height="35.3800000000001" />
<text id="zigguratedge-kcore1-a-4-1-text" y="-510.9" style="text-anchor:middle;dominant-baseline:middle;font-family:Arial;font-size:12px;fill:#00008B">
<tspan x="-967.63" dy="0"> 3</tspan>
</text>
<rect id="zigguratedge-kcore1-a-out-1-rect" style="fill:#00008B;fill-opacity:0.2" stroke="transparent" stroke-dasharray="0" stroke-width="0.5" x="0" y="581.67" width="35.38" height="35.38" />
<rect id="zigguratedge-kcore1-a-out-2-rect" style="fill:#00008B;fill-opacity:0.2" stroke="transparent" stroke-dasharray="0" stroke-width="0.5" x="88.46" y="581.67" width="35.39" height="35.38" />
<rect id="zigguratedge-kcore1-a-out-3-rect" style="fill:#00008B;fill-opacity:0.2" stroke="transparent" stroke-dasharray="0" stroke-width="0.5" x="176.92" y="581.67" width="35.39" height="35.38" />
<rect id="zigguratedge-kcore1-a-out-4-rect" style="fill:#00008B;fill-opacity:0.2" stroke="transparent" stroke-dasharray="0" stroke-width="0.5" x="265.38" y="581.67" width="35.39" height="35.38" />
<text id="zigguratedge-kcore1-a-out-1-text" y="599.36" style="text-anchor:middle;dominant-baseline:middle;font-family:Arial;font-size:12px;fill:#00008B">
<tspan x="17.69" dy="0">8</tspan>
</text>
<text id="zigguratedge-kcore1-a-out-2-text" y="599.36" style="text-anchor:middle;dominant-baseline:middle;font-family:Arial;font-size:12px;fill:#00008B">
<tspan x="106.15" dy="0">20</tspan>
</text>
<text id="zigguratedge-kcore1-a-out-3-text" y="599.36" style="text-anchor:middle;dominant-baseline:middle;font-family:Arial;font-size:12px;fill:#00008B">
<tspan x="194.62" dy="0">22</tspan>
</text>
<text id="zigguratedge-kcore1-a-out-4-text" y="599.36" style="text-anchor:middle;dominant-baseline:middle;font-family:Arial;font-size:12px;fill:#00008B">
<tspan x="283.08" dy="0">28</tspan>
</text>
<rect id="zigguratedge-kcore1-b-out-1-rect" style="fill:#FF0000;fill-opacity:0.2" stroke="transparent" stroke-dasharray="0" stroke-width="0.5" x="0" y="687.82" width="35.38" height="35.39" />
<rect id="zigguratedge-kcore1-b-out-2-rect" style="fill:#FF0000;fill-opacity:0.2" stroke="transparent" stroke-dasharray="0" stroke-width="0.5" x="88.46" y="687.82" width="35.39" height="35.39" />
<rect id="zigguratedge-kcore1-b-out-3-rect" style="fill:#FF0000;fill-opacity:0.2" stroke="transparent" stroke-dasharray="0" stroke-width="0.5" x="176.92" y="687.82" width="35.39" height="35.39" />
<text id="zigguratedge-kcore1-b-out-1-text" y="705.51" style="text-anchor:middle;dominant-baseline:middle;font-family:Arial;font-size:12px;fill:#FF0000">
<tspan x="17.69" dy="0">1</tspan>
</text>
<text id="zigguratedge-kcore1-b-out-2-text" y="705.51" style="text-anchor:middle;dominant-baseline:middle;font-family:Arial;font-size:12px;fill:#FF0000">
<tspan x="106.15" dy="0">12</tspan>
</text>
<text id="zigguratedge-kcore1-b-out-3-text" y="705.51" style="text-anchor:middle;dominant-baseline:middle;font-family:Arial;font-size:12px;fill:#FF0000">
<tspan x="194.62" dy="0">14</tspan>
</text>
<text id="zigguratcorelabel-1-text" y="513.89" style="text-anchor:start;dominant-baseline:middle;font-family:Arial;font-size:15px;fill:grey50">
<tspan x="-40.03" dy="0">Outside the giant component</tspan>
</text>
<rect id="zigguratannotation-1-rect" style="fill:none;fill-opacity:0.5" stroke="transparent" stroke-dasharray="0" stroke-width="0.5" x="920" y="-0.04" width="0.0399999999999636" height="0.04" />
<text id="zigguratannotation-1-text" y="-0.02" style="text-anchor:middle;dominant-baseline:middle;font-family:Arial;font-size:15px;fill:transparent">
</text>
<text id="zigguratannotation-1-text" y="0" style="text-anchor:middle;dominant-baseline:middle;font-family:Arial;font-size:3px;fill:red">
<tspan x="920" dy="0">.</tspan>
</text>
<text id="zigguratannotation-1-text" y="0" style="text-anchor:middle;dominant-baseline:middle;font-family:Arial;font-size:3px;fill:red">
<tspan x="-690" dy="0">.</tspan>
</text>
<text id="zigguratannotation-1-text" y="0" style="text-anchor:middle;dominant-baseline:middle;font-family:Arial;font-size:3px;fill:red">
<tspan x="-690" dy="0">.</tspan>
</text>
<g id="zigguratlink-1-segment" fill="none" stroke="#888888" stroke-dasharray="0" stroke-width="0.3" stroke-opacity="0.5">
<path d="M-827.43 65.87 L-336.15 108.98"/>
</g>
<g id="zigguratlink-2-segment" fill="none" stroke="#888888" stroke-dasharray="0" stroke-width="0.3" stroke-opacity="0.5">
<path d="M-304.31 -62.28 L-304.31 62.28"/>
</g>
<g id="zigguratlink-3-segment" fill="none" stroke="#888888" stroke-dasharray="0" stroke-width="0.3" stroke-opacity="0.5">
<path d="M-304.31 -62.28 L-233.54 62.28"/>
</g>
<g id="zigguratlink-4-segment" fill="none" stroke="#888888" stroke-dasharray="0" stroke-width="0.3" stroke-opacity="0.5">
<path d="M-304.31 -62.28 L-162.77 62.28"/>
</g>
<g id="zigguratlink-5-segment" fill="none" stroke="#888888" stroke-dasharray="0" stroke-width="0.3" stroke-opacity="0.5">
<path d="M-304.31 -62.28 L-92 62.28"/>
</g>
<g id="zigguratlink-6-segment" fill="none" stroke="#888888" stroke-dasharray="0" stroke-width="0.3" stroke-opacity="0.5">
<path d="M-304.31 -62.28 L49.54 62.28"/>
</g>
<g id="zigguratlink-7-segment" fill="none" stroke="#888888" stroke-dasharray="0" stroke-width="0.3" stroke-opacity="0.5">
<path d="M-304.31 -62.28 L120.31 62.28"/>
</g>
<g id="zigguratlink-8-segment" fill="none" stroke="#888888" stroke-dasharray="0" stroke-width="0.3" stroke-opacity="0.5">
<path d="M-304.31 -62.28 L191.08 62.28"/>
</g>
<g id="zigguratlink-9-segment" fill="none" stroke="#888888" stroke-dasharray="0" stroke-width="0.3" stroke-opacity="0.5">
<path d="M-233.54 -62.28 L-304.31 62.28"/>
</g>
<g id="zigguratlink-10-segment" fill="none" stroke="#888888" stroke-dasharray="0" stroke-width="0.3" stroke-opacity="0.5">
<path d="M-233.54 -62.28 L-233.54 62.28"/>
</g>
<g id="zigguratlink-11-segment" fill="none" stroke="#888888" stroke-dasharray="0" stroke-width="0.3" stroke-opacity="0.5">
<path d="M-233.54 -62.28 L-162.77 62.28"/>
</g>
<g id="zigguratlink-12-segment" fill="none" stroke="#888888" stroke-dasharray="0" stroke-width="0.3" stroke-opacity="0.5">
<path d="M-233.54 -62.28 L-92 62.28"/>
</g>
<g id="zigguratlink-13-segment" fill="none" stroke="#888888" stroke-dasharray="0" stroke-width="0.3" stroke-opacity="0.5">
<path d="M-233.54 -62.28 L-21.23 62.28"/>
</g>
<g id="zigguratlink-14-segment" fill="none" stroke="#888888" stroke-dasharray="0" stroke-width="0.3" stroke-opacity="0.5">
<path d="M-233.54 -62.28 L49.54 62.28"/>
</g>
<g id="zigguratlink-15-segment" fill="none" stroke="#888888" stroke-dasharray="0" stroke-width="0.3" stroke-opacity="0.5">
<path d="M-162.77 -62.28 L-233.54 62.28"/>
</g>
<g id="zigguratlink-16-segment" fill="none" stroke="#888888" stroke-dasharray="0" stroke-width="0.3" stroke-opacity="0.5">
<path d="M-162.77 -62.28 L-162.77 62.28"/>
</g>
<g id="zigguratlink-17-segment" fill="none" stroke="#888888" stroke-dasharray="0" stroke-width="0.3" stroke-opacity="0.5">
<path d="M-162.77 -62.28 L-92 62.28"/>
</g>
<g id="zigguratlink-18-segment" fill="none" stroke="#888888" stroke-dasharray="0" stroke-width="0.3" stroke-opacity="0.5">
<path d="M-162.77 -62.28 L-21.23 62.28"/>
</g>
<g id="zigguratlink-19-segment" fill="none" stroke="#888888" stroke-dasharray="0" stroke-width="0.3" stroke-opacity="0.5">
<path d="M-162.77 -62.28 L120.31 62.28"/>
</g>
<g id="zigguratlink-20-segment" fill="none" stroke="#888888" stroke-dasharray="0" stroke-width="0.3" stroke-opacity="0.5">
<path d="M-162.77 -62.28 L191.08 62.28"/>
</g>
<g id="zigguratlink-21-segment" fill="none" stroke="#888888" stroke-dasharray="0" stroke-width="0.3" stroke-opacity="0.5">
<path d="M-92 -62.28 L-304.31 62.28"/>
</g>
<g id="zigguratlink-22-segment" fill="none" stroke="#888888" stroke-dasharray="0" stroke-width="0.3" stroke-opacity="0.5">
<path d="M-92 -62.28 L-233.54 62.28"/>
</g>
<g id="zigguratlink-23-segment" fill="none" stroke="#888888" stroke-dasharray="0" stroke-width="0.3" stroke-opacity="0.5">
<path d="M-92 -62.28 L-162.77 62.28"/>
</g>
<g id="zigguratlink-24-segment" fill="none" stroke="#888888" stroke-dasharray="0" stroke-width="0.3" stroke-opacity="0.5">
<path d="M-92 -62.28 L-21.23 62.28"/>
</g>
<g id="zigguratlink-25-segment" fill="none" stroke="#888888" stroke-dasharray="0" stroke-width="0.3" stroke-opacity="0.5">
<path d="M-21.23 -62.28 L-233.54 62.28"/>
</g>
<g id="zigguratlink-26-segment" fill="none" stroke="#888888" stroke-dasharray="0" stroke-width="0.3" stroke-opacity="0.5">
<path d="M-21.23 -62.28 L-162.77 62.28"/>
</g>
<g id="zigguratlink-27-segment" fill="none" stroke="#888888" stroke-dasharray="0" stroke-width="0.3" stroke-opacity="0.5">
<path d="M-21.23 -62.28 L-21.23 62.28"/>
</g>
<g id="zigguratlink-28-segment" fill="none" stroke="#888888" stroke-dasharray="0" stroke-width="0.3" stroke-opacity="0.5">
<path d="M-21.23 -62.28 L191.08 62.28"/>
</g>
<g id="zigguratlink-29-segment" fill="none" stroke="#888888" stroke-dasharray="0" stroke-width="0.3" stroke-opacity="0.5">
<path d="M49.54 -62.28 L-304.31 62.28"/>
</g>
<g id="zigguratlink-30-segment" fill="none" stroke="#888888" stroke-dasharray="0" stroke-width="0.3" stroke-opacity="0.5">
<path d="M49.54 -62.28 L-162.77 62.28"/>
</g>
<g id="zigguratlink-31-segment" fill="none" stroke="#888888" stroke-dasharray="0" stroke-width="0.3" stroke-opacity="0.5">
<path d="M49.54 -62.28 L49.54 62.28"/>
</g>
<g id="zigguratlink-32-segment" fill="none" stroke="#888888" stroke-dasharray="0" stroke-width="0.3" stroke-opacity="0.5">
<path d="M49.54 -62.28 L120.31 62.28"/>
</g>
<g id="zigguratlink-33-segment" fill="none" stroke="#888888" stroke-dasharray="0" stroke-width="0.3" stroke-opacity="0.5">
<path d="M120.31 -62.28 L-233.54 62.28"/>
</g>
<g id="zigguratlink-34-segment" fill="none" stroke="#888888" stroke-dasharray="0" stroke-width="0.3" stroke-opacity="0.5">
<path d="M120.31 -62.28 L49.54 62.28"/>
</g>
<g id="zigguratlink-35-segment" fill="none" stroke="#888888" stroke-dasharray="0" stroke-width="0.3" stroke-opacity="0.5">
<path d="M120.31 -62.28 L120.31 62.28"/>
</g>
<g id="zigguratlink-36-segment" fill="none" stroke="#888888" stroke-dasharray="0" stroke-width="0.3" stroke-opacity="0.5">
<path d="M191.08 -62.28 L-233.54 62.28"/>
</g>
<g id="zigguratlink-37-segment" fill="none" stroke="#888888" stroke-dasharray="0" stroke-width="0.3" stroke-opacity="0.5">
<path d="M191.08 -62.28 L-92 62.28"/>
</g>
<g id="zigguratlink-38-segment" fill="none" stroke="#888888" stroke-dasharray="0" stroke-width="0.3" stroke-opacity="0.5">
<path d="M191.08 -62.28 L49.54 62.28"/>
</g>
<g id="zigguratlink-39-segment" fill="none" stroke="#888888" stroke-dasharray="0" stroke-width="0.3" stroke-opacity="0.5">
<path d="M468.69 435.99 L416.26 -427.88"/>
</g>
<g id="zigguratlink-40-segment" fill="none" stroke="#888888" stroke-dasharray="0" stroke-width="0.3" stroke-opacity="0.5">
<path d="M468.69 435.99 L488.16 -329.89"/>
</g>
<g id="zigguratlink-41-segment" fill="none" stroke="#888888" stroke-dasharray="0" stroke-width="0.3" stroke-opacity="0.5">
<path d="M468.69 435.99 L512.13 -297.23"/>
</g>
<g id="zigguratlink-42-segment" fill="none" stroke="#888888" stroke-dasharray="0" stroke-width="0.3" stroke-opacity="0.5">
<path d="M483.67 403.33 L416.26 -427.88"/>
</g>
<g id="zigguratlink-43-segment" fill="none" stroke="#888888" stroke-dasharray="0" stroke-width="0.3" stroke-opacity="0.5">
<path d="M483.67 403.33 L488.16 -329.89"/>
</g>
<g id="zigguratlink-44-segment" fill="none" stroke="#888888" stroke-dasharray="0" stroke-width="0.3" stroke-opacity="0.5">
<path d="M483.67 403.33 L512.13 -297.23"/>
</g>
<g id="zigguratlink-45-segment" fill="none" stroke="#888888" stroke-dasharray="0" stroke-width="0.3" stroke-opacity="0.5">
<path d="M498.65 370.66 L488.16 -329.89"/>
</g>
<g id="zigguratlink-46-segment" fill="none" stroke="#888888" stroke-dasharray="0" stroke-width="0.3" stroke-opacity="0.5">
<path d="M513.63 338 L464.2 -362.56"/>
</g>
<g id="zigguratlink-47-segment" fill="none" stroke="#888888" stroke-dasharray="0" stroke-width="0.3" stroke-opacity="0.5">
<path d="M513.63 338 L488.16 -329.89"/>
</g>
<g id="zigguratlink-48-segment" fill="none" stroke="#888888" stroke-dasharray="0" stroke-width="0.3" stroke-opacity="0.5">
<path d="M528.61 305.34 L488.16 -329.89"/>
</g>
<g id="zigguratlink-49-segment" fill="none" stroke="#888888" stroke-dasharray="0" stroke-width="0.3" stroke-opacity="0.5">
<path d="M17.69 617.05 L106.15 687.82"/>
</g>
<g id="zigguratlink-50-segment" fill="none" stroke="#888888" stroke-dasharray="0" stroke-width="0.3" stroke-opacity="0.5">
<path d="M106.15 617.05 L17.69 687.82"/>
</g>
<g id="zigguratlink-51-segment" fill="none" stroke="#888888" stroke-dasharray="0" stroke-width="0.3" stroke-opacity="0.5">
<path d="M194.62 617.05 L17.69 687.82"/>
</g>
<g id="zigguratlink-52-segment" fill="none" stroke="#888888" stroke-dasharray="0" stroke-width="0.3" stroke-opacity="0.5">
<path d="M283.08 617.05 L194.62 687.82"/>
</g>
<g id="zigguratlink-1-path" fill="none" stroke="#888888" stroke-dasharray="0" stroke-width="0.3" stroke-opacity="0.5">
<path d="M-145.08 428.56  L-131.32 404.85 L-117.56 380.37 L-103.79 354.33 L-90.03 325.97 L-76.27 294.5 L-62.51 259.15 L-48.75 219.14 L-34.99 173.7 L-21.23 123"/>
</g>
<g id="zigguratlink-2-path" fill="none" stroke="#888888" stroke-dasharray="0" stroke-width="0.3" stroke-opacity="0.5">
<path d="M-233.54 147.52  L-228.03 196.38 L-222.53 240.16 L-217.03 278.71 L-211.52 312.77 L-206.02 343.09 L-200.51 370.42 L-195.01 395.5 L-189.5 419.09 L-184 441.93"/>
</g>
<g id="zigguratlink-3-path" fill="none" stroke="#888888" stroke-dasharray="0" stroke-width="0.3" stroke-opacity="0.5">
<path d="M-145.08 -404.06  L-139.18 -382.89 L-133.28 -361.02 L-127.38 -337.77 L-121.49 -312.44 L-115.59 -284.34 L-109.69 -252.77 L-103.79 -217.04 L-97.9 -176.46 L-92 -131.17"/>
</g>
<g id="zigguratlink-4-path" fill="none" stroke="#888888" stroke-dasharray="0" stroke-width="0.3" stroke-opacity="0.5">
<path d="M572.05 -310.84  L599.57 -309.86 L627.09 -306.02 L654.61 -299.86 L682.14 -291.79 L709.66 -282.14 L737.18 -271.22 L764.7 -259.35 L792.22 -246.84 L819.74 -234.01"/>
</g>
<g id="zigguratlink-5-path" fill="none" stroke="#888888" stroke-dasharray="0" stroke-width="0.3" stroke-opacity="0.5">
<path d="M578.04 -343.5  L604.9 -342.58 L631.75 -338.97 L658.61 -333.17 L685.46 -325.57 L712.32 -316.48 L739.18 -306.2 L766.03 -295.02 L792.89 -283.24 L819.74 -271.17"/>
</g>
<g id="zigguratlink-6-path" fill="none" stroke="#888888" stroke-dasharray="0" stroke-width="0.3" stroke-opacity="0.5">
<path d="M584.03 -376.17  L610.22 -375.34 L636.41 -372.14 L662.6 -366.99 L688.79 -360.26 L714.98 -352.19 L741.17 -343.07 L767.36 -333.15 L793.55 -322.7 L819.74 -311.99"/>
</g>
<g id="zigguratlink-7-path" fill="none" stroke="#888888" stroke-dasharray="0" stroke-width="0.3" stroke-opacity="0.5">
<path d="M584.78 384.27  L611.47 383.08 L638.16 378.41 L664.85 370.9 L691.54 361.08 L718.23 349.33 L744.92 336.03 L771.61 321.57 L798.3 306.34 L824.98 290.73"/>
</g>
<g id="zigguratlink-8-path" fill="none" stroke="#888888" stroke-dasharray="0" stroke-width="0.3" stroke-opacity="0.5">
<path d="M-304.31 155.69  L-223.41 220.87 L-142.52 276.69 L-61.62 315.08 L19.27 338.85 L100.17 356.46 L181.06 376.4 L261.96 407.17 L342.86 457.28 L423.75 533.98"/>
</g>
<g id="zigguratlink-9-path" fill="none" stroke="#888888" stroke-dasharray="0" stroke-width="0.3" stroke-opacity="0.5">
<path d="M-233.54 147.52  L-160.51 214.1 L-87.47 271.13 L-14.44 310.35 L58.59 334.63 L131.62 352.62 L204.65 372.99 L277.69 404.43 L350.72 455.62 L423.75 533.98"/>
</g>
<g id="zigguratlink-10-path" fill="none" stroke="#888888" stroke-dasharray="0" stroke-width="0.3" stroke-opacity="0.5">
<path d="M-233.54 147.52  L-158.84 208.47 L-84.15 260.69 L-9.45 296.58 L65.25 318.82 L139.94 335.29 L214.64 353.94 L289.34 382.72 L364.03 429.58 L438.73 501.32"/>
</g>
<g id="zigguratlink-11-path" fill="none" stroke="#888888" stroke-dasharray="0" stroke-width="0.3" stroke-opacity="0.5">
<path d="M120.31 106.65  L155.69 174.65 L191.07 232.89 L226.45 272.94 L261.83 297.74 L297.21 316.11 L332.59 336.91 L367.97 369.02 L403.35 421.29 L438.73 501.32"/>
</g>
<g id="zigguratlink-12-path" fill="none" stroke="#888888" stroke-dasharray="0" stroke-width="0.3" stroke-opacity="0.5">
<path d="M-304.31 155.69  L-220.08 209.61 L-135.86 255.8 L-51.63 287.55 L32.59 307.22 L116.81 321.79 L201.04 338.29 L285.26 363.75 L369.49 405.2 L453.71 468.65"/>
</g>
<g id="zigguratlink-13-path" fill="none" stroke="#888888" stroke-dasharray="0" stroke-width="0.3" stroke-opacity="0.5">
<path d="M-21.23 123  L31.54 182.55 L84.31 233.56 L137.08 268.63 L189.85 290.35 L242.63 306.44 L295.4 324.67 L348.17 352.79 L400.94 398.57 L453.71 468.65"/>
</g>
<g id="zigguratlink-14-path" fill="none" stroke="#888888" stroke-dasharray="0" stroke-width="0.3" stroke-opacity="0.5">
<path d="M-304.31 155.69  L-218.42 203.98 L-132.53 245.35 L-46.64 273.79 L39.25 291.4 L125.14 304.45 L211.02 319.23 L296.91 342.03 L382.8 379.16 L468.69 435.99"/>
</g>
<g id="zigguratlink-15-path" fill="none" stroke="#888888" stroke-dasharray="0" stroke-width="0.3" stroke-opacity="0.5">
<path d="M-92 131.17  L-28.04 178.06 L35.93 218.22 L99.89 245.84 L163.85 262.94 L227.82 275.61 L291.78 289.96 L355.74 312.1 L419.71 348.14 L483.67 403.33"/>
</g>
<g id="zigguratlink-16-path" fill="none" stroke="#888888" stroke-dasharray="0" stroke-width="0.3" stroke-opacity="0.5">
<path d="M-92 131.17  L-26.37 172.43 L39.26 207.78 L104.88 232.08 L170.51 247.13 L236.14 258.28 L301.77 270.9 L367.39 290.38 L433.02 322.1 L498.65 370.66"/>
</g>
<g id="zigguratlink-17-path" fill="none" stroke="#888888" stroke-dasharray="0" stroke-width="0.3" stroke-opacity="0.5">
<path d="M-304.31 155.69  L-213.43 187.1 L-122.54 214.01 L-31.66 232.51 L59.22 243.96 L150.1 252.45 L240.98 262.06 L331.87 276.89 L422.75 301.04 L513.63 338"/>
</g>
<g id="zigguratlink-18-path" fill="none" stroke="#888888" stroke-dasharray="0" stroke-width="0.3" stroke-opacity="0.5">
<path d="M-304.31 155.69  L-211.76 181.47 L-119.22 203.56 L-26.67 218.74 L65.88 228.15 L158.42 235.11 L250.97 243 L343.52 255.18 L436.06 275 L528.61 305.34"/>
</g>
<g id="zigguratlink-19-path" fill="none" stroke="#888888" stroke-dasharray="0" stroke-width="0.3" stroke-opacity="0.5">
<path d="M-304.31 -155.69  L-224.24 -210.88 L-144.18 -246.93 L-64.12 -269.08 L15.95 -283.43 L96.01 -296.1 L176.07 -313.2 L256.13 -340.82 L336.2 -380.99 L416.26 -427.88"/>
</g>
<g id="zigguratlink-20-path" fill="none" stroke="#888888" stroke-dasharray="0" stroke-width="0.3" stroke-opacity="0.5">
<path d="M-304.31 -155.69  L-221.58 -204.26 L-138.86 -235.98 L-56.13 -255.47 L26.6 -268.1 L109.32 -279.25 L192.05 -294.3 L274.78 -318.6 L357.5 -353.95 L440.23 -395.22"/>
</g>
<g id="zigguratlink-21-path" fill="none" stroke="#888888" stroke-dasharray="0" stroke-width="0.3" stroke-opacity="0.5">
<path d="M-233.54 -147.52  L-158.68 -197.74 L-83.81 -230.55 L-8.95 -250.7 L65.91 -263.76 L140.78 -275.29 L215.64 -290.85 L290.5 -315.99 L365.37 -352.54 L440.23 -395.22"/>
</g>
<g id="zigguratlink-22-path" fill="none" stroke="#888888" stroke-dasharray="0" stroke-width="0.3" stroke-opacity="0.5">
<path d="M-92 -131.17  L-30.2 -178.09 L31.6 -208.73 L93.4 -227.56 L155.2 -239.76 L217 -250.53 L278.8 -265.07 L340.6 -288.54 L402.4 -322.69 L464.2 -362.56"/>
</g>
<g id="zigguratlink-23-path" fill="none" stroke="#888888" stroke-dasharray="0" stroke-width="0.3" stroke-opacity="0.5">
<path d="M-21.23 -123  L27.38 -184.82 L75.99 -225.2 L124.6 -250 L173.21 -266.07 L221.82 -280.26 L270.43 -299.42 L319.04 -330.36 L367.65 -375.35 L416.26 -427.88"/>
</g>
<g id="zigguratlink-24-path" fill="none" stroke="#888888" stroke-dasharray="0" stroke-width="0.3" stroke-opacity="0.5">
<path d="M-790.71 348.95  L-736.67 333.95 L-682.62 318.47 L-628.58 302 L-574.53 284.06 L-520.49 264.16 L-466.44 241.8 L-412.4 216.5 L-358.35 187.76 L-304.31 155.69"/>
</g>
<g id="zigguratlink-25-path" fill="none" stroke="#888888" stroke-dasharray="0" stroke-width="0.3" stroke-opacity="0.5">
<path d="M-790.71 -402.02  L-736.67 -382.91 L-682.62 -363.18 L-628.58 -342.19 L-574.53 -319.32 L-520.49 -293.95 L-466.44 -265.45 L-412.4 -233.2 L-358.35 -196.57 L-304.31 -155.69"/>
</g>
<g id="zigguratlink-26-path" fill="none" stroke="#888888" stroke-dasharray="0" stroke-width="0.3" stroke-opacity="0.5">
<path d="M-949.94 475.51  L-936.18 467.07 L-922.42 458.34 L-908.66 449.07 L-894.9 438.96 L-881.14 427.75 L-867.38 415.15 L-853.62 400.9 L-839.86 384.71 L-826.09 366.64"/>
</g>
<g id="zigguratlink-27-path" fill="none" stroke="#888888" stroke-dasharray="0" stroke-width="0.3" stroke-opacity="0.5">
<path d="M-949.94 -510.9  L-936.18 -502.45 L-922.42 -493.73 L-908.66 -484.45 L-894.9 -474.35 L-881.14 -463.13 L-867.38 -450.54 L-853.62 -436.28 L-839.86 -420.09 L-826.09 -402.02"/>
</g>
</svg>