<svg xmlns="http://www.w3.org/2000/svg" viewBox="-680 -260 1417.5 714">
<rect id="kcore3-a-1-rect" style="fill:#00008B;fill-opacity:0.2" stroke="transparent" stroke-dasharray="0" stroke-width="0.5" x="-240.11" y="-111.21" width="28" height="66.73" />
<rect id="kcore3-a-2-rect" style="fill:#4169E1;fill-opacity:0.2" stroke="transparent" stroke-dasharray="0" stroke-width="0.5" x="-209" y="-107.62" width="27.99" height="63.14" />
<rect id="kcore3-a-3-rect" style="fill:#00008B;fill-opacity:0.2" stroke="transparent" stroke-dasharray="0" stroke-width="0.5" x="-177.9" y="-104.02" width="28" height="59.54" />
<rect id="kcore3-a-4-rect" style="fill:#4169E1;fill-opacity:0.2" stroke="transparent" stroke-dasharray="0" stroke-width="0.5" x="-146.79" y="-100.43" width="28" height="55.95" />
<rect id="kcore3-a-5-rect" style="fill:#00008B;fill-opacity:0.2" stroke="transparent" stroke-dasharray="0" stroke-width="0.5" x="-115.68" y="-96.84" width="28" height="52.36" />
<rect id="kcore3-a-6-rect" style="fill:#4169E1;fill-opacity:0.2" stroke="transparent" stroke-dasharray="0" stroke-width="0.5" x="-84.57" y="-93.24" width="27.99" height="48.76" />
<rect id="kcore3-a-7-rect" style="fill:#00008B;fill-opacity:0.2" stroke="transparent" stroke-dasharray="0" stroke-width="0.5" x="-53.47" y="-89.65" width="28" height="45.17" />
<rect id="kcore3-a-8-rect" style="fill:#4169E1;fill-opacity:0.2" stroke="transparent" stroke-dasharray="0" stroke-width="0.5" x="-22.36" y="-86.06" width="28" height="41.58" />
<rect id="kcore3-a-9-rect" style="fill:#00008B;fill-opacity:0.2" stroke="transparent" stroke-dasharray="0" stroke-width="0.5" x="8.75" y="-82.47" width="28" height="37.99" />
<rect id="kcore3-a-10-rect" style="fill:#4169E1;fill-opacity:0.2" stroke="transparent" stroke-dasharray="0" stroke-width="0.5" x="39.86" y="-78.87" width="27.99" height="34.39" />
<rect id="kcore3-a-11-rect" style="fill:#00008B;fill-opacity:0.2" stroke="transparent" stroke-dasharray="0" stroke-width="0.5" x="70.96" y="-75.28" width="28" height="30.8" />
<rect id="kcore3-a-12-rect" style="fill:#4169E1;fill-opacity:0.2" stroke="transparent" stroke-dasharray="0" stroke-width="0.5" x="102.07" y="-71.69" width="28" height="27.21" />
<rect id="kcore3-a-13-rect" style="fill:#00008B;fill-opacity:0.2" stroke="transparent" stroke-dasharray="0" stroke-width="0.5" x="133.18" y="-68.09" width="27.99" height="23.61" />
<text id="kcore3-a-1-text" y="-77.85" style="text-anchor:middle;dominant-baseline:middle;font-family:Arial;font-size:15px;fill:#00008B">
<tspan x="-226.11" dy="0">36</tspan>
</text>
<text id="kcore3-a-2-text" y="-76.05" style="text-anchor:middle;dominant-baseline:middle;font-family:Arial;font-size:15px;fill:#00008B">
<tspan x="-195" dy="0">26</tspan>
</text>
<text id="kcore3-a-3-text" y="-74.25" style="text-anchor:middle;dominant-baseline:middle;font-family:Arial;font-size:15px;fill:#00008B">
<tspan x="-163.9" dy="0">52</tspan>
</text>
<text id="kcore3-a-4-text" y="-72.46" style="text-anchor:middle;dominant-baseline:middle;font-family:Arial;font-size:15px;fill:#00008B">
<tspan x="-132.79" dy="0">28</tspan>
</text>
<text id="kcore3-a-5-text" y="-70.66" style="text-anchor:middle;dominant-baseline:middle;font-family:Arial;font-size:15px;fill:#00008B">
<tspan x="-101.68" dy="0">7</tspan>
</text>
<text id="kcore3-a-6-text" y="-68.86" style="text-anchor:middle;dominant-baseline:middle;font-family:Arial;font-size:15px;fill:#00008B">
<tspan x="-70.57" dy="0">11</tspan>
</text>
<text id="kcore3-a-7-text" y="-67.07" style="text-anchor:middle;dominant-baseline:middle;font-family:Arial;font-size:15px;fill:#00008B">
<tspan x="-39.47" dy="0">25</tspan>
</text>
<text id="kcore3-a-8-text" y="-65.27" style="text-anchor:middle;dominant-baseline:middle;font-family:Arial;font-size:15px;fill:#00008B">
<tspan x="-8.36" dy="0">31</tspan>
</text>
<text id="kcore3-a-9-text" y="-63.47" style="text-anchor:middle;dominant-baseline:middle;font-family:Arial;font-size:15px;fill:#00008B">
<tspan x="22.75" dy="0">34</tspan>
</text>
<text id="kcore3-a-10-text" y="-61.68" style="text-anchor:middle;dominant-baseline:middle;font-family:Arial;font-size:15px;fill:#00008B">
<tspan x="53.85" dy="0">4</tspan>
</text>
<text id="kcore3-a-11-text" y="-59.88" style="text-anchor:middle;dominant-baseline:middle;font-family:Arial;font-size:15px;fill:#00008B">
<tspan x="84.96" dy="0">43</tspan>
</text>
<text id="kcore3-a-12-text" y="-58.09" style="text-anchor:middle;dominant-baseline:middle;font-family:Arial;font-size:15px;fill:#00008B">
<tspan x="116.07" dy="0">56</tspan>
</text>
<text id="kcore3-a-13-text" y="-56.29" style="text-anchor:middle;dominant-baseline:middle;font-family:Arial;font-size:15px;fill:#00008B">
<tspan x="147.18" dy="0">53</tspan>
</text>
<rect id="kcore3-b-1-rect" style="fill:#FF0000;fill-opacity:0.2" stroke="transparent" stroke-dasharray="0" stroke-width="0.5" x="-240.11" y="44.48" width="30.33" height="66.73" />
<rect id="kcore3-b-2-rect" style="fill:#F08080;fill-opacity:0.2" stroke="transparent" stroke-dasharray="0" stroke-width="0.5" x="-206.41" y="44.48" width="30.33" height="62.84" />
<rect id="kcore3-b-3-rect" style="fill:#FF0000;fill-opacity:0.2" stroke="transparent" stroke-dasharray="0" stroke-width="0.5" x="-172.71" y="44.48" width="30.33" height="58.94" />
<rect id="kcore3-b-4-rect" style="fill:#F08080;fill-opacity:0.2" stroke="transparent" stroke-dasharray="0" stroke-width="0.5" x="-139.01" y="44.48" width="30.33" height="55.05" />
<rect id="kcore3-b-5-rect" style="fill:#FF0000;fill-opacity:0.2" stroke="transparent" stroke-dasharray="0" stroke-width="0.5" x="-105.31" y="44.48" width="30.33" height="51.16" />
<rect id="kcore3-b-6-rect" style="fill:#F08080;fill-opacity:0.2" stroke="transparent" stroke-dasharray="0" stroke-width="0.5" x="-71.61" y="44.48" width="30.33" height="47.27" />
<rect id="kcore3-b-7-rect" style="fill:#FF0000;fill-opacity:0.2" stroke="transparent" stroke-dasharray="0" stroke-width="0.5" x="-37.91" y="44.48" width="30.33" height="43.37" />
<rect id="kcore3-b-8-rect" style="fill:#F08080;fill-opacity:0.2" stroke="transparent" stroke-dasharray="0" stroke-width="0.5" x="-4.21" y="44.48" width="30.33" height="39.48" />
<rect id="kcore3-b-9-rect" style="fill:#FF0000;fill-opacity:0.2" stroke="transparent" stroke-dasharray="0" stroke-width="0.5" x="29.49" y="44.48" width="30.33" height="35.59" />
<rect id="kcore3-b-10-rect" style="fill:#F08080;fill-opacity:0.2" stroke="transparent" stroke-dasharray="0" stroke-width="0.5" x="63.19" y="44.48" width="30.33" height="31.7" />
<rect id="kcore3-b-11-rect" style="fill:#FF0000;fill-opacity:0.2" stroke="transparent" stroke-dasharray="0" stroke-width="0.5" x="96.89" y="44.48" width="30.33" height="27.81" />
<rect id="kcore3-b-12-rect" style="fill:#F08080;fill-opacity:0.2" stroke="transparent" stroke-dasharray="0" stroke-width="0.5" x="130.59" y="44.48" width="30.33" height="23.91" />
<text id="kcore3-b-1-text" y="77.85" style="text-anchor:middle;dominant-baseline:middle;font-family:Arial;font-size:15px;fill:#FF0000">
<tspan x="-224.95" dy="0">1</tspan>
</text>
<text id="kcore3-b-2-text" y="75.9" style="text-anchor:middle;dominant-baseline:middle;font-family:Arial;font-size:15px;fill:#FF0000">
<tspan x="-191.25" dy="0">18</tspan>
</text>
<text id="kcore3-b-3-text" y="73.95" style="text-anchor:middle;dominant-baseline:middle;font-family:Arial;font-size:15px;fill:#FF0000">
<tspan x="-157.55" dy="0">7</tspan>
</text>
<text id="kcore3-b-4-text" y="72.01" style="text-anchor:middle;dominant-baseline:middle;font-family:Arial;font-size:15px;fill:#FF0000">
<tspan x="-123.85" dy="0">13</tspan>
</text>
<text id="kcore3-b-5-text" y="70.06" style="text-anchor:middle;dominant-baseline:middle;font-family:Arial;font-size:15px;fill:#FF0000">
<tspan x="-90.15" dy="0">3</tspan>
</text>
<text id="kcore3-b-6-text" y="68.12" style="text-anchor:middle;dominant-baseline:middle;font-family:Arial;font-size:15px;fill:#FF0000">
<tspan x="-56.45" dy="0">9</tspan>
</text>
<text id="kcore3-b-7-text" y="66.17" style="text-anchor:middle;dominant-baseline:middle;font-family:Arial;font-size:15px;fill:#FF0000">
<tspan x="-22.75" dy="0">5</tspan>
</text>
<text id="kcore3-b-8-text" y="64.22" style="text-anchor:middle;dominant-baseline:middle;font-family:Arial;font-size:15px;fill:#FF0000">
<tspan x="10.95" dy="0">6</tspan>
</text>
<text id="kcore3-b-9-text" y="62.28" style="text-anchor:middle;dominant-baseline:middle;font-family:Arial;font-size:15px;fill:#FF0000">
<tspan x="44.65" dy="0">4</tspan>
</text>
<text id="kcore3-b-10-text" y="60.33" style="text-anchor:middle;dominant-baseline:middle;font-family:Arial;font-size:15px;fill:#FF0000">
<tspan x="78.35" dy="0">2</tspan>
</text>
<text id="kcore3-b-11-text" y="58.38" style="text-anchor:middle;dominant-baseline:middle;font-family:Arial;font-size:15px;fill:#FF0000">
<tspan x="112.05" dy="0">15</tspan>
</text>
<text id="kcore3-b-12-text" y="56.44" style="text-anchor:middle;dominant-baseline:middle;font-family:Arial;font-size:15px;fill:#FF0000">
<tspan x="145.75" dy="0">16</tspan>
</text>
<rect id="kcore2-a-1-rect" style="fill:#00008B;fill-opacity:0.2" stroke="transparent" stroke-dasharray="0" stroke-width="0.5" x="320.24" y="379.47" width="138.86" height="10.3699999999999" />
<rect id="kcore2-a-2-rect" style="fill:#4169E1;fill-opacity:0.2" stroke="transparent" stroke-dasharray="0" stroke-width="0.5" x="326.42" y="367.02" width="131.13" height="10.37" />
<rect id="kcore2-a-3-rect" style="fill:#00008B;fill-opacity:0.2" stroke="transparent" stroke-dasharray="0" stroke-width="0.5" x="332.59" y="354.58" width="123.42" height="10.37" />
<rect id="kcore2-a-4-rect" style="fill:#4169E1;fill-opacity:0.2" stroke="transparent" stroke-dasharray="0" stroke-width="0.5" x="338.76" y="342.14" width="115.71" height="10.37" />
<rect id="kcore2-a-5-rect" style="fill:#00008B;fill-opacity:0.2" stroke="transparent" stroke-dasharray="0" stroke-width="0.5" x="344.93" y="329.7" width="108" height="10.36" />
<rect id="kcore2-a-6-rect" style="fill:#4169E1;fill-opacity:0.2" stroke="transparent" stroke-dasharray="0" stroke-width="0.5" x="351.1" y="317.25" width="100.28" height="10.37" />
<rect id="kcore2-a-7-rect" style="fill:#00008B;fill-opacity:0.2" stroke="transparent" stroke-dasharray="0" stroke-width="0.5" x="357.27" y="304.81" width="92.57" height="10.37" />
<rect id="kcore2-a-8-rect" style="fill:#4169E1;fill-opacity:0.2" stroke="transparent" stroke-dasharray="0" stroke-width="0.5" x="363.44" y="292.37" width="84.86" height="10.37" />
<rect id="kcore2-a-9-rect" style="fill:#00008B;fill-opacity:0.2" stroke="transparent" stroke-dasharray="0" stroke-width="0.5" x="369.61" y="279.92" width="77.14" height="10.37" />
<rect id="kcore2-a-10-rect" style="fill:#4169E1;fill-opacity:0.2" stroke="transparent" stroke-dasharray="0" stroke-width="0.5" x="375.79" y="267.48" width="69.42" height="10.37" />
<rect id="kcore2-a-11-rect" style="fill:#00008B;fill-opacity:0.2" stroke="transparent" stroke-dasharray="0" stroke-width="0.5" x="381.96" y="255.04" width="61.71" height="10.37" />
<rect id="kcore2-a-12-rect" style="fill:#4169E1;fill-opacity:0.2" stroke="transparent" stroke-dasharray="0" stroke-width="0.5" x="388.13" y="242.59" width="54" height="10.37" />
<rect id="kcore2-a-13-rect" style="fill:#00008B;fill-opacity:0.2" stroke="transparent" stroke-dasharray="0" stroke-width="0.5" x="394.3" y="230.15" width="46.28" height="10.37" />
<rect id="kcore2-a-14-rect" style="fill:#4169E1;fill-opacity:0.2" stroke="transparent" stroke-dasharray="0" stroke-width="0.5" x="400.47" y="217.71" width="38.57" height="10.37" />
<rect id="kcore2-a-15-rect" style="fill:#00008B;fill-opacity:0.2" stroke="transparent" stroke-dasharray="0" stroke-width="0.5" x="406.64" y="205.27" width="30.86" height="10.36" />
<text id="kcore2-a-1-text" y="384.65" style="text-anchor:middle;dominant-baseline:middle;font-family:Arial;font-size:13.5px;fill:#00008B">
<tspan x="341.07" dy="0">10</tspan>
</text>
<text id="kcore2-a-2-text" y="372.21" style="text-anchor:middle;dominant-baseline:middle;font-family:Arial;font-size:13.5px;fill:#00008B">
<tspan x="431.33" dy="0">54</tspan>
</text>
<text id="kcore2-a-3-text" y="359.77" style="text-anchor:middle;dominant-baseline:middle;font-family:Arial;font-size:13.5px;fill:#00008B">
<tspan x="351.1" dy="0">3</tspan>
</text>
<text id="kcore2-a-4-text" y="347.32" style="text-anchor:middle;dominant-baseline:middle;font-family:Arial;font-size:13.5px;fill:#00008B">
<tspan x="431.33" dy="0">29</tspan>
</text>
<text id="kcore2-a-5-text" y="334.88" style="text-anchor:middle;dominant-baseline:middle;font-family:Arial;font-size:13.5px;fill:#00008B">
<tspan x="361.13" dy="0">44</tspan>
</text>
<text id="kcore2-a-6-text" y="322.44" style="text-anchor:middle;dominant-baseline:middle;font-family:Arial;font-size:13.5px;fill:#00008B">
<tspan x="431.33" dy="0">48</tspan>
</text>
<text id="kcore2-a-7-text" y="309.99" style="text-anchor:middle;dominant-baseline:middle;font-family:Arial;font-size:13.5px;fill:#00008B">
<tspan x="371.16" dy="0">57</tspan>
</text>
<text id="kcore2-a-8-text" y="297.55" style="text-anchor:middle;dominant-baseline:middle;font-family:Arial;font-size:13.5px;fill:#00008B">
<tspan x="431.33" dy="0">58</tspan>
</text>
<text id="kcore2-a-9-text" y="285.11" style="text-anchor:middle;dominant-baseline:middle;font-family:Arial;font-size:13.5px;fill:#00008B">
<tspan x="381.19" dy="0">1</tspan>
</text>
<text id="kcore2-a-10-text" y="272.67" style="text-anchor:middle;dominant-baseline:middle;font-family:Arial;font-size:13.5px;fill:#00008B">
<tspan x="431.33" dy="0">17</tspan>
</text>
<text id="kcore2-a-11-text" y="260.22" style="text-anchor:middle;dominant-baseline:middle;font-family:Arial;font-size:13.5px;fill:#00008B">
<tspan x="391.21" dy="0">23</tspan>
</text>
<text id="kcore2-a-12-text" y="247.78" style="text-anchor:middle;dominant-baseline:middle;font-family:Arial;font-size:13.5px;fill:#00008B">
<tspan x="431.33" dy="0">40</tspan>
</text>
<text id="kcore2-a-13-text" y="235.34" style="text-anchor:middle;dominant-baseline:middle;font-family:Arial;font-size:13.5px;fill:#00008B">
<tspan x="401.24" dy="0">46</tspan>
</text>
<text id="kcore2-a-14-text" y="222.89" style="text-anchor:middle;dominant-baseline:middle;font-family:Arial;font-size:13.5px;fill:#00008B">
<tspan x="431.33" dy="0">37</tspan>
</text>
<text id="kcore2-a-15-text" y="210.45" style="text-anchor:middle;dominant-baseline:middle;font-family:Arial;font-size:13.5px;fill:#00008B">
<tspan x="411.27" dy="0">45</tspan>
</text>
<rect id="kcore2-b-1-rect" style="fill:#FF0000;fill-opacity:0.2" stroke="transparent" stroke-dasharray="0" stroke-width="0.5" x="299.03" y="-204.53" width="138.85" height="10.37" />
<rect id="kcore2-b-2-rect" style="fill:#F08080;fill-opacity:0.2" stroke="transparent" stroke-dasharray="0" stroke-width="0.5" x="322.17" y="-192.09" width="109.93" height="10.37" />
<rect id="kcore2-b-3-rect" style="fill:#FF0000;fill-opacity:0.2" stroke="transparent" stroke-dasharray="0" stroke-width="0.5" x="345.32" y="-179.64" width="80.99" height="10.36" />
<rect id="kcore2-b-4-rect" style="fill:#F08080;fill-opacity:0.2" stroke="transparent" stroke-dasharray="0" stroke-width="0.5" x="368.46" y="-167.2" width="52.07" height="10.37" />
<text id="kcore2-b-1-text" y="-199.35" style="text-anchor:middle;dominant-baseline:middle;font-family:Arial;font-size:13.5px;fill:#FF0000">
<tspan x="410.11" dy="0">12</tspan>
</text>
<text id="kcore2-b-2-text" y="-186.9" style="text-anchor:middle;dominant-baseline:middle;font-family:Arial;font-size:13.5px;fill:#FF0000">
<tspan x="338.66" dy="0">10</tspan>
</text>
<text id="kcore2-b-3-text" y="-174.46" style="text-anchor:middle;dominant-baseline:middle;font-family:Arial;font-size:13.5px;fill:#FF0000">
<tspan x="410.11" dy="0">8</tspan>
</text>
<text id="kcore2-b-4-text" y="-162.02" style="text-anchor:middle;dominant-baseline:middle;font-family:Arial;font-size:13.5px;fill:#FF0000">
<tspan x="376.27" dy="0">14</tspan>
</text>
<rect id="kcore3-1-rect" style="fill:none;fill-opacity:0.3" stroke="#8B4C39" stroke-dasharray="1 1" stroke-width="0" x="-296.98" y="-140.24" width="477.11" height="265.97" />
<text id="kcore3-1-text" y="-7.26" style="text-anchor:middle;dominant-baseline:middle;font-family:Arial;font-size:10.5px;fill:transparent">
</text>
<text id="kcore3-1-text" y="0" transform="rotate(-90 -266.65 0)" style="text-anchor:start;dominant-baseline:baseline;font-family:Arial;font-size:15px;fill:#8B4C39">
<tspan x="-266.65" dy="0">3-shell</tspan>
</text>
<rect id="kcore2-1-rect" style="fill:none;fill-opacity:0.3" stroke="#AC5E46" stroke-dasharray="1 1" stroke-width="0" x="280.08" y="-240.82" width="197.97" height="645.17" />
<text id="kcore2-1-text" y="81.77" style="text-anchor:middle;dominant-baseline:middle;font-family:Arial;font-size:10.5px;fill:transparent">
</text>
<text id="kcore2-1-text" y="-220.5" style="text-anchor:start;dominant-baseline:baseline;font-family:Arial;font-size:15px;fill:#AC5E46">
<tspan x="360.11" dy="0">2-shell</tspan>
</text>
<rect id="edge-kcore1-a-16-1-rect" style="fill:#00008B;fill-opacity:0.11" stroke="transparent" stroke-dasharray="0" stroke-width="0.5" x="-85.89" y="293.75" width="18.96" height="13.54" />
<text id="edge-kcore1-a-16-1-text" y="300.52" transform="rotate(30 -76.41 300.52)" style="text-anchor:middle;dominant-baseline:middle;font-family:Arial;font-size:12px;fill:#00008B">
<tspan x="-76.41" dy="0"> 9</tspan>
</text>
<rect id="edge-kcore1-a-15-1-rect" style="fill:#00008B;fill-opacity:0.11" stroke="transparent" stroke-dasharray="0" stroke-width="0.5" x="-116.3" y="300.57" width="24.19" height="17.28" />
<text id="edge-kcore1-a-15-1-text" y="309.21" transform="rotate(30 -104.21 309.21)" style="text-anchor:start;dominant-baseline:baseline;font-family:Arial;font-size:12px;fill:#00008B">
<tspan x="-104.21" dy="0"> 13  33</tspan>
</text>
<rect id="edge-kcore1-a-4-1-rect" style="fill:#00008B;fill-opacity:0.11" stroke="transparent" stroke-dasharray="0" stroke-width="0.5" x="-146.72" y="309.28" width="18.95" height="13.54" />
<text id="edge-kcore1-a-4-1-text" y="316.05" transform="rotate(30 -137.25 316.05)" style="text-anchor:middle;dominant-baseline:middle;font-family:Arial;font-size:12px;fill:#00008B">
<tspan x="-137.25" dy="0"> 39</tspan>
</text>
<rect id="edge-kcore1-a-6-1-rect" style="fill:#00008B;fill-opacity:0.11" stroke="transparent" stroke-dasharray="0" stroke-width="0.5" x="-179.15" y="316.1" width="28.21" height="20.15" />
<text id="edge-kcore1-a-6-1-text" y="326.18" transform="rotate(30 -165.05 326.18)" style="text-anchor:start;dominant-baseline:baseline;font-family:Arial;font-size:12px;fill:#00008B">
<tspan x="-165.05" dy="0"> 14 15  22</tspan>
</text>
<rect id="edge-kcore1-a-9-1-rect" style="fill:#00008B;fill-opacity:0.11" stroke="transparent" stroke-dasharray="0" stroke-width="0.5" x="-216.21" y="326.26" width="28.21" height="20.15" />
<text id="edge-kcore1-a-9-1-text" y="336.33" transform="rotate(30 -202.1 336.33)" style="text-anchor:start;dominant-baseline:baseline;font-family:Arial;font-size:12px;fill:#00008B">
<tspan x="-202.1" dy="0"> 2 6  32</tspan>
</text>
<rect id="edge-kcore1-a-3-1-rect" style="fill:#00008B;fill-opacity:0.11" stroke="transparent" stroke-dasharray="0" stroke-width="0.5" x="-248.63" y="336.41" width="18.95" height="13.54" />
<text id="edge-kcore1-a-3-1-text" y="343.18" transform="rotate(30 -239.16 343.18)" style="text-anchor:middle;dominant-baseline:middle;font-family:Arial;font-size:12px;fill:#00008B">
<tspan x="-239.16" dy="0"> 5</tspan>
</text>
<rect id="edge-kcore1-a-13-1-rect" style="fill:#00008B;fill-opacity:0.11" stroke="transparent" stroke-dasharray="0" stroke-width="0.5" x="-284.25" y="343.24" width="34.58" height="24.7" />
<text id="edge-kcore1-a-13-1-text" y="355.59" transform="rotate(30 -266.96 355.59)" style="text-anchor:start;dominant-baseline:baseline;font-family:Arial;font-size:12px;fill:#00008B">
<tspan x="-266.96" dy="0"> 12 18 20 49  50</tspan>
</text>
<rect id="edge-kcore1-a-7-1-rect" style="fill:#00008B;fill-opacity:0.11" stroke="transparent" stroke-dasharray="0" stroke-width="0.5" x="-322.48" y="355.69" width="24.19" height="17.27" />
<text id="edge-kcore1-a-7-1-text" y="364.32" transform="rotate(30 -310.38 364.32)" style="text-anchor:start;dominant-baseline:baseline;font-family:Arial;font-size:12px;fill:#00008B">
<tspan x="-310.38" dy="0"> 8  16</tspan>
</text>
<rect id="edge-kcore1-a-18-1-rect" style="fill:#00008B;fill-opacity:0.11" stroke="transparent" stroke-dasharray="0" stroke-width="0.5" x="-352.9" y="364.39" width="18.96" height="13.54" />
<text id="edge-kcore1-a-18-1-text" y="371.16" transform="rotate(30 -343.42 371.16)" style="text-anchor:middle;dominant-baseline:middle;font-family:Arial;font-size:12px;fill:#00008B">
<tspan x="-343.42" dy="0"> 19</tspan>
</text>
<rect id="fat-kcore1-a-1-rect" style="fill:#00008B;fill-opacity:0.11" stroke="transparent" stroke-dasharray="0" stroke-width="0.5" x="-619.23" y="36.87" width="34.58" height="24.7" />
<text id="fat-kcore1-a-1-text" y="49.22" style="text-anchor:start;dominant-baseline:baseline;font-family:Arial;font-size:12px;fill:#00008B">
<tspan x="-601.94" dy="0"> 21 27 </tspan>
<tspan x="-601.94" dy="16.8"> 30 41 </tspan>
<tspan x="-601.94" dy="16.8"> 59</tspan>
</text>
<rect id="edge-kcore1-a-8-1-rect" style="fill:#00008B;fill-opacity:0.11" stroke="transparent" stroke-dasharray="0" stroke-width="0.5" x="597.45" y="-113.21" width="18.9599999999999" height="13.54" />
<text id="edge-kcore1-a-8-1-text" y="-106.44" style="text-anchor:middle;dominant-baseline:middle;font-family:Arial;font-size:12px;fill:#00008B">
<tspan x="606.93" dy="0"> 51</tspan>
</text>
<rect id="edge-kcore1-a-10-1-rect" style="fill:#00008B;fill-opacity:0.11" stroke="transparent" stroke-dasharray="0" stroke-width="0.5" x="597.45" y="-141.2" width="31.5899999999999" height="22.57" />
<text id="edge-kcore1-a-10-1-text" y="-129.91" style="text-anchor:start;dominant-baseline:baseline;font-family:Arial;font-size:12px;fill:#00008B">
<tspan x="613.25" dy="0"> 24 38  47 60</tspan>
</text>
<rect id="edge-kcore1-a-12-1-rect" style="fill:#00008B;fill-opacity:0.11" stroke="transparent" stroke-dasharray="0" stroke-width="0.5" x="597.45" y="-163.76" width="18.9599999999999" height="13.54" />
<text id="edge-kcore1-a-12-1-text" y="-156.99" style="text-anchor:middle;dominant-baseline:middle;font-family:Arial;font-size:12px;fill:#00008B">
<tspan x="606.93" dy="0"> 35</tspan>
</text>
<rect id="edge-kcore1-b-10-1-rect" style="fill:#FF0000;fill-opacity:0.11" stroke="transparent" stroke-dasharray="0" stroke-width="0.5" x="614.42" y="192.33" width="18.96" height="13.54" />
<text id="edge-kcore1-b-10-1-text" y="199.1" style="text-anchor:middle;dominant-baseline:middle;font-family:Arial;font-size:12px;fill:#FF0000">
<tspan x="623.9" dy="0"> 11</tspan>
</text>
<rect id="outsiders-kcore1-a-1-rect" style="fill:#00008B;fill-opacity:0.2" stroke="transparent" stroke-dasharray="0" stroke-width="0.5" x="0" y="252.68" width="25.27" height="18.05" />
<rect id="outsiders-kcore1-a-2-rect" style="fill:#00008B;fill-opacity:0.2" stroke="transparent" stroke-dasharray="0" stroke-width="0.5" x="63.19" y="252.68" width="25.27" height="18.05" />
<text id="outsiders-kcore1-a-1-text" y="261.7" style="text-anchor:middle;dominant-baseline:middle;font-family:Arial;font-size:12px;fill:#00008B">
<tspan x="12.64" dy="0">42</tspan>
</text>
<text id="outsiders-kcore1-a-2-text" y="261.7" style="text-anchor:middle;dominant-baseline:middle;font-family:Arial;font-size:12px;fill:#00008B">
<tspan x="75.82" dy="0">55</tspan>
</text>
<rect id="outsiders-kcore1-b-1-rect" style="fill:#FF0000;fill-opacity:0.2" stroke="transparent" stroke-dasharray="0" stroke-width="0.5" x="0" y="306.84" width="25.27" height="18.05" />
<text id="outsiders-kcore1-b-1-text" y="315.86" style="text-anchor:middle;dominant-baseline:middle;font-family:Arial;font-size:12px;fill:#FF0000">
<tspan x="12.64" dy="0">17</tspan>
</text>
<text id="corelabel-1-text" y="240.13" style="text-anchor:start;dominant-baseline:baseline;font-family:Arial;font-size:15px;fill:grey50">
<tspan x="-14.75" dy="0">Outside the giant component</tspan>
</text>
<rect id="annotation-1-rect" style="fill:none;fill-opacity:0.5" stroke="transparent" stroke-dasharray="0" stroke-width="0.5" x="631.87" y="-0.03" width="0.0399999999999636" height="0.03" />
<text id="annotation-1-text" y="-0.01" style="text-anchor:middle;dominant-baseline:middle;font-family:Arial;font-size:10.5px;fill:transparent">
</text>
<text id="annotation-1-text" y="0" style="text-anchor:middle;dominant-baseline:middle;font-family:Arial;font-size:3px;fill:red">
<tspan x="631.87" dy="0">.</tspan>
</text>
<text id="annotation-1-text" y="0" style="text-anchor:middle;dominant-baseline:middle;font-family:Arial;font-size:3px;fill:red">
<tspan x="-429.67" dy="0">.</tspan>
</text>
<g id="link-1-segment" fill="none" stroke="#888888" stroke-dasharray="0" stroke-width="0.3" stroke-opacity="0.5">
<path d="M-584.65 49.22 L-240.11 77.85"/>
</g>
<g id="link-2-segment" fill="none" stroke="#888888" stroke-dasharray="0" stroke-width="0.3" stroke-opacity="0.5">
<path d="M-226.11 -44.48 L-224.95 44.48"/>
</g>
<g id="link-3-segment" fill="none" stroke="#888888" stroke-dasharray="0" stroke-width="0.3" stroke-opacity="0.5">
<path d="M-226.11 -44.48 L-191.25 44.48"/>
</g>
<g id="link-4-segment" fill="none" stroke="#888888" stroke-dasharray="0" stroke-width="0.3" stroke-opacity="0.5">
<path d="M-226.11 -44.48 L-157.55 44.48"/>
</g>
<g id="link-5-segment" fill="none" stroke="#888888" stroke-dasharray="0" stroke-width="0.3" stroke-opacity="0.5">
<path d="M-226.11 -44.48 L-56.45 44.48"/>
</g>
<g id="link-6-segment" fill="none" stroke="#888888" stroke-dasharray="0" stroke-width="0.3" stroke-opacity="0.5">
<path d="M-226.11 -44.48 L-22.75 44.48"/>
</g>
<g id="link-7-segment" fill="none" stroke="#888888" stroke-dasharray="0" stroke-width="0.3" stroke-opacity="0.5">
<path d="M-226.11 -44.48 L44.65 44.48"/>
</g>
<g id="link-8-segment" fill="none" stroke="#888888" stroke-dasharray="0" stroke-width="0.3" stroke-opacity="0.5">
<path d="M-226.11 -44.48 L145.75 44.48"/>
</g>
<g id="link-9-segment" fill="none" stroke="#888888" stroke-dasharray="0" stroke-width="0.3" stroke-opacity="0.5">
<path d="M-195 -44.48 L-191.25 44.48"/>
</g>
<g id="link-10-segment" fill="none" stroke="#888888" stroke-dasharray="0" stroke-width="0.3" stroke-opacity="0.5">
<path d="M-195 -44.48 L-157.55 44.48"/>
</g>
<g id="link-11-segment" fill="none" stroke="#888888" stroke-dasharray="0" stroke-width="0.3" stroke-opacity="0.5">
<path d="M-195 -44.48 L-90.15 44.48"/>
</g>
<g id="link-12-segment" fill="none" stroke="#888888" stroke-dasharray="0" stroke-width="0.3" stroke-opacity="0.5">
<path d="M-195 -44.48 L-22.75 44.48"/>
</g>
<g id="link-13-segment" fill="none" stroke="#888888" stroke-dasharray="0" stroke-width="0.3" stroke-opacity="0.5">
<path d="M-195 -44.48 L44.65 44.48"/>
</g>
<g id="link-14-segment" fill="none" stroke="#888888" stroke-dasharray="0" stroke-width="0.3" stroke-opacity="0.5">
<path d="M-195 -44.48 L112.05 44.48"/>
</g>
<g id="link-15-segment" fill="none" stroke="#888888" stroke-dasharray="0" stroke-width="0.3" stroke-opacity="0.5">
<path d="M-163.9 -44.48 L-123.85 44.48"/>
</g>
<g id="link-16-segment" fill="none" stroke="#888888" stroke-dasharray="0" stroke-width="0.3" stroke-opacity="0.5">
<path d="M-163.9 -44.48 L-90.15 44.48"/>
</g>
<g id="link-17-segment" fill="none" stroke="#888888" stroke-dasharray="0" stroke-width="0.3" stroke-opacity="0.5">
<path d="M-163.9 -44.48 L-56.45 44.48"/>
</g>
<g id="link-18-segment" fill="none" stroke="#888888" stroke-dasharray="0" stroke-width="0.3" stroke-opacity="0.5">
<path d="M-163.9 -44.48 L10.95 44.48"/>
</g>
<g id="link-19-segment" fill="none" stroke="#888888" stroke-dasharray="0" stroke-width="0.3" stroke-opacity="0.5">
<path d="M-163.9 -44.48 L145.75 44.48"/>
</g>
<g id="link-20-segment" fill="none" stroke="#888888" stroke-dasharray="0" stroke-width="0.3" stroke-opacity="0.5">
<path d="M-132.79 -44.48 L-191.25 44.48"/>
</g>
<g id="link-21-segment" fill="none" stroke="#888888" stroke-dasharray="0" stroke-width="0.3" stroke-opacity="0.5">
<path d="M-132.79 -44.48 L-157.55 44.48"/>
</g>
<g id="link-22-segment" fill="none" stroke="#888888" stroke-dasharray="0" stroke-width="0.3" stroke-opacity="0.5">
<path d="M-132.79 -44.48 L-22.75 44.48"/>
</g>
<g id="link-23-segment" fill="none" stroke="#888888" stroke-dasharray="0" stroke-width="0.3" stroke-opacity="0.5">
<path d="M-132.79 -44.48 L44.65 44.48"/>
</g>
<g id="link-24-segment" fill="none" stroke="#888888" stroke-dasharray="0" stroke-width="0.3" stroke-opacity="0.5">
<path d="M-101.68 -44.48 L-191.25 44.48"/>
</g>
<g id="link-25-segment" fill="none" stroke="#888888" stroke-dasharray="0" stroke-width="0.3" stroke-opacity="0.5">
<path d="M-101.68 -44.48 L-157.55 44.48"/>
</g>
<g id="link-26-segment" fill="none" stroke="#888888" stroke-dasharray="0" stroke-width="0.3" stroke-opacity="0.5">
<path d="M-101.68 -44.48 L-22.75 44.48"/>
</g>
<g id="link-27-segment" fill="none" stroke="#888888" stroke-dasharray="0" stroke-width="0.3" stroke-opacity="0.5">
<path d="M-101.68 -44.48 L112.05 44.48"/>
</g>
<g id="link-28-segment" fill="none" stroke="#888888" stroke-dasharray="0" stroke-width="0.3" stroke-opacity="0.5">
<path d="M-70.57 -44.48 L-90.15 44.48"/>
</g>
<g id="link-29-segment" fill="none" stroke="#888888" stroke-dasharray="0" stroke-width="0.3" stroke-opacity="0.5">
<path d="M-70.57 -44.48 L-22.75 44.48"/>
</g>
<g id="link-30-segment" fill="none" stroke="#888888" stroke-dasharray="0" stroke-width="0.3" stroke-opacity="0.5">
<path d="M-70.57 -44.48 L78.35 44.48"/>
</g>
<g id="link-31-segment" fill="none" stroke="#888888" stroke-dasharray="0" stroke-width="0.3" stroke-opacity="0.5">
<path d="M-70.57 -44.48 L112.05 44.48"/>
</g>
<g id="link-32-segment" fill="none" stroke="#888888" stroke-dasharray="0" stroke-width="0.3" stroke-opacity="0.5">
<path d="M-39.47 -44.48 L-191.25 44.48"/>
</g>
<g id="link-33-segment" fill="none" stroke="#888888" stroke-dasharray="0" stroke-width="0.3" stroke-opacity="0.5">
<path d="M-39.47 -44.48 L44.65 44.48"/>
</g>
<g id="link-34-segment" fill="none" stroke="#888888" stroke-dasharray="0" stroke-width="0.3" stroke-opacity="0.5">
<path d="M-39.47 -44.48 L112.05 44.48"/>
</g>
<g id="link-35-segment" fill="none" stroke="#888888" stroke-dasharray="0" stroke-width="0.3" stroke-opacity="0.5">
<path d="M-8.36 -44.48 L-224.95 44.48"/>
</g>
<g id="link-36-segment" fill="none" stroke="#888888" stroke-dasharray="0" stroke-width="0.3" stroke-opacity="0.5">
<path d="M-8.36 -44.48 L-157.55 44.48"/>
</g>
<g id="link-37-segment" fill="none" stroke="#888888" stroke-dasharray="0" stroke-width="0.3" stroke-opacity="0.5">
<path d="M-8.36 -44.48 L-22.75 44.48"/>
</g>
<g id="link-38-segment" fill="none" stroke="#888888" stroke-dasharray="0" stroke-width="0.3" stroke-opacity="0.5">
<path d="M22.75 -44.48 L-224.95 44.48"/>
</g>
<g id="link-39-segment" fill="none" stroke="#888888" stroke-dasharray="0" stroke-width="0.3" stroke-opacity="0.5">
<path d="M22.75 -44.48 L-191.25 44.48"/>
</g>
<g id="link-40-segment" fill="none" stroke="#888888" stroke-dasharray="0" stroke-width="0.3" stroke-opacity="0.5">
<path d="M22.75 -44.48 L-123.85 44.48"/>
</g>
<g id="link-41-segment" fill="none" stroke="#888888" stroke-dasharray="0" stroke-width="0.3" stroke-opacity="0.5">
<path d="M53.85 -44.48 L-123.85 44.48"/>
</g>
<g id="link-42-segment" fill="none" stroke="#888888" stroke-dasharray="0" stroke-width="0.3" stroke-opacity="0.5">
<path d="M53.85 -44.48 L-22.75 44.48"/>
</g>
<g id="link-43-segment" fill="none" stroke="#888888" stroke-dasharray="0" stroke-width="0.3" stroke-opacity="0.5">
<path d="M53.85 -44.48 L78.35 44.48"/>
</g>
<g id="link-44-segment" fill="none" stroke="#888888" stroke-dasharray="0" stroke-width="0.3" stroke-opacity="0.5">
<path d="M84.96 -44.48 L-224.95 44.48"/>
</g>
<g id="link-45-segment" fill="none" stroke="#888888" stroke-dasharray="0" stroke-width="0.3" stroke-opacity="0.5">
<path d="M84.96 -44.48 L10.95 44.48"/>
</g>
<g id="link-46-segment" fill="none" stroke="#888888" stroke-dasharray="0" stroke-width="0.3" stroke-opacity="0.5">
<path d="M84.96 -44.48 L44.65 44.48"/>
</g>
<g id="link-47-segment" fill="none" stroke="#888888" stroke-dasharray="0" stroke-width="0.3" stroke-opacity="0.5">
<path d="M116.07 -44.48 L-90.15 44.48"/>
</g>
<g id="link-48-segment" fill="none" stroke="#888888" stroke-dasharray="0" stroke-width="0.3" stroke-opacity="0.5">
<path d="M116.07 -44.48 L-56.45 44.48"/>
</g>
<g id="link-49-segment" fill="none" stroke="#888888" stroke-dasharray="0" stroke-width="0.3" stroke-opacity="0.5">
<path d="M116.07 -44.48 L78.35 44.48"/>
</g>
<g id="link-50-segment" fill="none" stroke="#888888" stroke-dasharray="0" stroke-width="0.3" stroke-opacity="0.5">
<path d="M147.18 -44.48 L-56.45 44.48"/>
</g>
<g id="link-51-segment" fill="none" stroke="#888888" stroke-dasharray="0" stroke-width="0.3" stroke-opacity="0.5">
<path d="M147.18 -44.48 L10.95 44.48"/>
</g>
<g id="link-52-segment" fill="none" stroke="#888888" stroke-dasharray="0" stroke-width="0.3" stroke-opacity="0.5">
<path d="M147.18 -44.48 L145.75 44.48"/>
</g>
<g id="link-53-segment" fill="none" stroke="#888888" stroke-dasharray="0" stroke-width="0.3" stroke-opacity="0.5">
<path d="M320.24 379.47 L345.32 -169.28"/>
</g>
<g id="link-54-segment" fill="none" stroke="#888888" stroke-dasharray="0" stroke-width="0.3" stroke-opacity="0.5">
<path d="M351.1 317.25 L345.32 -169.28"/>
</g>
<g id="link-55-segment" fill="none" stroke="#888888" stroke-dasharray="0" stroke-width="0.3" stroke-opacity="0.5">
<path d="M369.61 279.92 L368.46 -156.83"/>
</g>
<g id="link-56-segment" fill="none" stroke="#888888" stroke-dasharray="0" stroke-width="0.3" stroke-opacity="0.5">
<path d="M375.79 267.48 L345.32 -169.28"/>
</g>
<g id="link-57-segment" fill="none" stroke="#888888" stroke-dasharray="0" stroke-width="0.3" stroke-opacity="0.5">
<path d="M400.47 217.71 L322.17 -181.72"/>
</g>
<g id="link-58-segment" fill="none" stroke="#888888" stroke-dasharray="0" stroke-width="0.3" stroke-opacity="0.5">
<path d="M406.64 205.27 L322.17 -181.72"/>
</g>
<g id="link-59-segment" fill="none" stroke="#888888" stroke-dasharray="0" stroke-width="0.3" stroke-opacity="0.5">
<path d="M12.64 270.73 L12.64 306.84"/>
</g>
<g id="link-60-segment" fill="none" stroke="#888888" stroke-dasharray="0" stroke-width="0.3" stroke-opacity="0.5">
<path d="M75.82 270.73 L12.64 306.84"/>
</g>
<g id="link-1-path" fill="none" stroke="#888888" stroke-dasharray="0" stroke-width="0.3" stroke-opacity="0.5">
<path d="M-76.41 293.75  L-51.72 276.26 L-27.04 258.21 L-2.35 239.01 L22.33 218.09 L47.01 194.88 L71.7 168.81 L96.38 139.3 L121.07 105.79 L145.75 68.39"/>
</g>
<g id="link-2-path" fill="none" stroke="#888888" stroke-dasharray="0" stroke-width="0.3" stroke-opacity="0.5">
<path d="M-104.21 300.57  L-80.18 282.86 L-56.15 264.57 L-32.12 245.12 L-8.09 223.93 L15.94 200.42 L39.96 174.01 L63.99 144.12 L88.02 110.17 L112.05 72.29"/>
</g>
<g id="link-3-path" fill="none" stroke="#888888" stroke-dasharray="0" stroke-width="0.3" stroke-opacity="0.5">
<path d="M-137.25 309.28  L-117.04 291.5 L-96.82 273.13 L-76.61 253.6 L-56.4 232.33 L-36.19 208.72 L-15.98 182.2 L4.23 152.19 L24.44 118.11 L44.65 80.07"/>
</g>
<g id="link-4-path" fill="none" stroke="#888888" stroke-dasharray="0" stroke-width="0.3" stroke-opacity="0.5">
<path d="M-165.05 316.1  L-145.49 298.09 L-125.94 279.49 L-106.38 259.71 L-86.83 238.17 L-67.27 214.26 L-47.71 187.4 L-28.16 157.01 L-8.6 122.49 L10.95 83.96"/>
</g>
<g id="link-5-path" fill="none" stroke="#888888" stroke-dasharray="0" stroke-width="0.3" stroke-opacity="0.5">
<path d="M-202.1 326.26  L-185.92 308.06 L-169.73 289.27 L-153.55 269.29 L-137.37 247.52 L-121.18 223.37 L-105 196.24 L-88.81 165.54 L-72.63 130.66 L-56.45 91.75"/>
</g>
<g id="link-6-path" fill="none" stroke="#888888" stroke-dasharray="0" stroke-width="0.3" stroke-opacity="0.5">
<path d="M-239.16 336.41  L-222.6 317.73 L-206.04 298.44 L-189.49 277.93 L-172.93 255.58 L-156.37 230.78 L-139.82 202.93 L-123.26 171.4 L-106.7 135.6 L-90.15 95.64"/>
</g>
<g id="link-7-path" fill="none" stroke="#888888" stroke-dasharray="0" stroke-width="0.3" stroke-opacity="0.5">
<path d="M-266.96 343.24  L-251.06 324.33 L-235.16 304.8 L-219.25 284.04 L-203.35 261.42 L-187.45 236.32 L-171.55 208.12 L-155.65 176.22 L-139.75 139.97 L-123.85 99.53"/>
</g>
<g id="link-8-path" fill="none" stroke="#888888" stroke-dasharray="0" stroke-width="0.3" stroke-opacity="0.5">
<path d="M-310.38 355.69  L-293.4 336.11 L-276.42 315.9 L-259.44 294.41 L-242.45 270.99 L-225.47 245.01 L-208.49 215.83 L-191.51 182.8 L-174.53 145.29 L-157.55 103.42"/>
</g>
<g id="link-9-path" fill="none" stroke="#888888" stroke-dasharray="0" stroke-width="0.3" stroke-opacity="0.5">
<path d="M-343.42 364.39  L-326.51 344.45 L-309.6 323.85 L-292.69 301.95 L-275.79 278.08 L-258.88 251.61 L-241.97 221.87 L-225.06 188.21 L-208.15 149.98 L-191.25 107.32"/>
</g>
<g id="link-10-path" fill="none" stroke="#888888" stroke-dasharray="0" stroke-width="0.3" stroke-opacity="0.5">
<path d="M426.31 -174.46  L445.33 -173.59 L464.34 -170.2 L483.36 -164.74 L502.37 -157.6 L521.39 -149.05 L540.4 -139.38 L559.42 -128.87 L578.43 -117.8 L597.45 -106.44"/>
</g>
<g id="link-11-path" fill="none" stroke="#888888" stroke-dasharray="0" stroke-width="0.3" stroke-opacity="0.5">
<path d="M432.1 -186.9  L450.47 -186.17 L468.84 -183.33 L487.21 -178.76 L505.59 -172.77 L523.96 -165.61 L542.33 -157.51 L560.7 -148.7 L579.08 -139.43 L597.45 -129.91"/>
</g>
<g id="link-12-path" fill="none" stroke="#888888" stroke-dasharray="0" stroke-width="0.3" stroke-opacity="0.5">
<path d="M437.88 -199.35  L455.61 -198.8 L473.34 -196.69 L491.07 -193.29 L508.8 -188.85 L526.53 -183.53 L544.26 -177.5 L561.99 -170.96 L579.72 -164.06 L597.45 -156.99"/>
</g>
<g id="link-13-path" fill="none" stroke="#888888" stroke-dasharray="0" stroke-width="0.3" stroke-opacity="0.5">
<path d="M459.1 384.65  L476.35 382.28 L493.61 373.02 L510.87 358.13 L528.13 338.65 L545.39 315.34 L562.65 288.96 L579.9 260.28 L597.16 230.07 L614.42 199.1"/>
</g>
<g id="link-14-path" fill="none" stroke="#888888" stroke-dasharray="0" stroke-width="0.3" stroke-opacity="0.5">
<path d="M-90.15 95.64  L-44.55 144.54 L1.05 186.43 L46.65 215.23 L92.25 233.06 L137.85 246.27 L183.45 261.24 L229.05 284.33 L274.65 321.92 L320.24 379.47"/>
</g>
<g id="link-15-path" fill="none" stroke="#888888" stroke-dasharray="0" stroke-width="0.3" stroke-opacity="0.5">
<path d="M78.35 76.18  L105.23 128.43 L132.11 173.19 L158.98 203.96 L185.86 223.02 L212.74 237.14 L239.61 253.13 L266.49 277.8 L293.37 317.97 L320.24 379.47"/>
</g>
<g id="link-16-path" fill="none" stroke="#888888" stroke-dasharray="0" stroke-width="0.3" stroke-opacity="0.5">
<path d="M-191.25 107.32  L-133.73 152.06 L-76.21 190.39 L-18.69 216.74 L38.83 233.06 L96.34 245.15 L153.86 258.84 L211.38 279.97 L268.9 314.36 L326.42 367.02"/>
</g>
<g id="link-17-path" fill="none" stroke="#888888" stroke-dasharray="0" stroke-width="0.3" stroke-opacity="0.5">
<path d="M-56.45 91.75  L-13.91 139.17 L28.63 179.8 L71.17 207.73 L113.71 225.03 L156.25 237.84 L198.79 252.35 L241.34 274.75 L283.88 311.21 L326.42 367.02"/>
</g>
<g id="link-18-path" fill="none" stroke="#888888" stroke-dasharray="0" stroke-width="0.3" stroke-opacity="0.5">
<path d="M-90.15 95.64  L-43.18 140.25 L3.79 178.47 L50.76 204.74 L97.74 221.01 L144.71 233.07 L191.68 246.72 L238.65 267.78 L285.62 302.08 L332.59 354.58"/>
</g>
<g id="link-19-path" fill="none" stroke="#888888" stroke-dasharray="0" stroke-width="0.3" stroke-opacity="0.5">
<path d="M78.35 76.18  L106.6 124.14 L134.85 165.23 L163.1 193.48 L191.35 210.97 L219.59 223.93 L247.84 238.61 L276.09 261.26 L304.34 298.13 L332.59 354.58"/>
</g>
<g id="link-20-path" fill="none" stroke="#888888" stroke-dasharray="0" stroke-width="0.3" stroke-opacity="0.5">
<path d="M-224.95 111.21  L-162.31 150.99 L-99.68 185.07 L-37.04 208.51 L25.59 223.02 L88.22 233.77 L150.86 245.94 L213.49 264.73 L276.12 295.31 L338.76 342.14"/>
</g>
<g id="link-21-path" fill="none" stroke="#888888" stroke-dasharray="0" stroke-width="0.3" stroke-opacity="0.5">
<path d="M-191.25 107.32  L-132.36 147.77 L-73.47 182.43 L-14.58 206.25 L44.31 221.01 L103.2 231.94 L162.09 244.32 L220.98 263.42 L279.87 294.52 L338.76 342.14"/>
</g>
<g id="link-22-path" fill="none" stroke="#888888" stroke-dasharray="0" stroke-width="0.3" stroke-opacity="0.5">
<path d="M-90.15 95.64  L-41.8 135.96 L6.54 170.51 L54.88 194.25 L103.22 208.96 L151.56 219.86 L199.9 232.2 L248.25 251.24 L296.59 282.24 L344.93 329.7"/>
</g>
<g id="link-23-path" fill="none" stroke="#888888" stroke-dasharray="0" stroke-width="0.3" stroke-opacity="0.5">
<path d="M78.35 76.18  L107.97 119.86 L137.59 157.27 L167.21 182.99 L196.83 198.92 L226.45 210.72 L256.07 224.09 L285.69 244.71 L315.31 278.29 L344.93 329.7"/>
</g>
<g id="link-24-path" fill="none" stroke="#888888" stroke-dasharray="0" stroke-width="0.3" stroke-opacity="0.5">
<path d="M44.65 80.07  L78.7 120.93 L112.75 155.94 L146.8 180 L180.85 194.91 L214.9 205.95 L248.95 218.45 L283 237.75 L317.05 269.16 L351.1 317.25"/>
</g>
<g id="link-25-path" fill="none" stroke="#888888" stroke-dasharray="0" stroke-width="0.3" stroke-opacity="0.5">
<path d="M-90.15 95.64  L-40.43 131.68 L9.28 162.55 L58.99 183.77 L108.71 196.91 L158.42 206.65 L208.13 217.68 L257.85 234.69 L307.56 262.4 L357.27 304.81"/>
</g>
<g id="link-26-path" fill="none" stroke="#888888" stroke-dasharray="0" stroke-width="0.3" stroke-opacity="0.5">
<path d="M78.35 76.18  L109.34 115.57 L140.33 149.31 L171.33 172.51 L202.32 186.88 L233.31 197.52 L264.3 209.57 L295.29 228.17 L326.28 258.45 L357.27 304.81"/>
</g>
<g id="link-27-path" fill="none" stroke="#888888" stroke-dasharray="0" stroke-width="0.3" stroke-opacity="0.5">
<path d="M-224.95 111.21  L-159.57 142.42 L-94.19 169.15 L-28.82 187.54 L36.56 198.92 L101.94 207.35 L167.31 216.9 L232.69 231.64 L298.07 255.63 L363.44 292.37"/>
</g>
<g id="link-28-path" fill="none" stroke="#888888" stroke-dasharray="0" stroke-width="0.3" stroke-opacity="0.5">
<path d="M-157.55 103.42  L-99.66 135.98 L-41.77 163.86 L16.12 183.03 L74 194.9 L131.89 203.7 L189.78 213.66 L247.67 229.03 L305.56 254.06 L363.44 292.37"/>
</g>
<g id="link-29-path" fill="none" stroke="#888888" stroke-dasharray="0" stroke-width="0.3" stroke-opacity="0.5">
<path d="M-157.55 103.42  L-98.97 133.83 L-40.4 159.88 L18.17 177.79 L76.75 188.88 L135.32 197.1 L193.89 206.4 L252.47 220.76 L311.04 244.14 L369.61 279.92"/>
</g>
<g id="link-30-path" fill="none" stroke="#888888" stroke-dasharray="0" stroke-width="0.3" stroke-opacity="0.5">
<path d="M-224.95 111.21  L-158.2 138.13 L-91.45 161.19 L-24.7 177.05 L42.05 186.87 L108.79 194.15 L175.54 202.38 L242.29 215.1 L309.04 235.79 L375.79 267.48"/>
</g>
<g id="link-31-path" fill="none" stroke="#888888" stroke-dasharray="0" stroke-width="0.3" stroke-opacity="0.5">
<path d="M-123.85 99.53  L-67.65 126.32 L-11.45 149.27 L44.75 165.05 L100.96 174.82 L157.16 182.06 L213.36 190.26 L269.56 202.91 L325.76 223.51 L381.96 255.04"/>
</g>
<g id="link-32-path" fill="none" stroke="#888888" stroke-dasharray="0" stroke-width="0.3" stroke-opacity="0.5">
<path d="M10.95 83.96  L52.18 113.44 L93.4 138.68 L134.62 156.04 L175.84 166.79 L217.07 174.76 L258.29 183.77 L299.51 197.69 L340.73 220.35 L381.96 255.04"/>
</g>
<g id="link-33-path" fill="none" stroke="#888888" stroke-dasharray="0" stroke-width="0.3" stroke-opacity="0.5">
<path d="M-123.85 99.53  L-66.96 124.18 L-10.07 145.29 L46.81 159.81 L103.7 168.8 L160.58 175.46 L217.47 183 L274.36 194.64 L331.24 213.59 L388.13 242.59"/>
</g>
<g id="link-34-path" fill="none" stroke="#888888" stroke-dasharray="0" stroke-width="0.3" stroke-opacity="0.5">
<path d="M10.95 83.96  L52.86 111.29 L94.77 134.7 L136.68 150.8 L178.59 160.77 L220.49 168.15 L262.4 176.51 L304.31 189.42 L346.22 210.43 L388.13 242.59"/>
</g>
<g id="link-35-path" fill="none" stroke="#888888" stroke-dasharray="0" stroke-width="0.3" stroke-opacity="0.5">
<path d="M-123.85 99.53  L-66.27 122.04 L-8.7 141.31 L48.87 154.57 L106.44 162.77 L164.01 168.85 L221.58 175.74 L279.16 186.37 L336.73 203.67 L394.3 230.15"/>
</g>
<g id="link-36-path" fill="none" stroke="#888888" stroke-dasharray="0" stroke-width="0.3" stroke-opacity="0.5">
<path d="M10.95 83.96  L53.55 109.15 L96.14 130.72 L138.73 145.56 L181.33 154.74 L223.92 161.55 L266.52 169.25 L309.11 181.15 L351.7 200.51 L394.3 230.15"/>
</g>
<g id="link-37-path" fill="none" stroke="#888888" stroke-dasharray="0" stroke-width="0.3" stroke-opacity="0.5">
<path d="M-191.25 107.32  L-125.5 126.34 L-59.75 142.63 L5.99 153.83 L71.74 160.77 L137.49 165.9 L203.23 171.72 L268.98 180.7 L334.72 195.33 L400.47 217.71"/>
</g>
<g id="link-38-path" fill="none" stroke="#888888" stroke-dasharray="0" stroke-width="0.3" stroke-opacity="0.5">
<path d="M-157.55 103.42  L-94.86 120.97 L-32.17 136 L30.52 146.33 L93.2 152.73 L155.89 157.47 L218.58 162.84 L281.27 171.13 L343.95 184.62 L406.64 205.27"/>
</g>
<g id="link-39-path" fill="none" stroke="#888888" stroke-dasharray="0" stroke-width="0.3" stroke-opacity="0.5">
<path d="M-226.11 -111.21  L-167.76 -128.03 L-109.41 -139.02 L-51.06 -145.76 L7.29 -150.14 L65.63 -154 L123.98 -159.21 L182.33 -167.63 L240.68 -179.87 L299.03 -194.16"/>
</g>
<g id="link-40-path" fill="none" stroke="#888888" stroke-dasharray="0" stroke-width="0.3" stroke-opacity="0.5">
<path d="M-226.11 -111.21  L-165.19 -125.51 L-104.27 -134.84 L-43.35 -140.58 L17.57 -144.3 L78.49 -147.58 L139.41 -152.01 L200.33 -159.17 L261.25 -169.57 L322.17 -181.72"/>
</g>
<g id="link-41-path" fill="none" stroke="#888888" stroke-dasharray="0" stroke-width="0.3" stroke-opacity="0.5">
<path d="M-163.9 -104.02  L-107.32 -117.25 L-50.74 -125.9 L5.84 -131.2 L62.42 -134.64 L119 -137.68 L175.58 -141.78 L232.16 -148.4 L288.74 -158.03 L345.32 -169.28"/>
</g>
<g id="link-42-path" fill="none" stroke="#888888" stroke-dasharray="0" stroke-width="0.3" stroke-opacity="0.5">
<path d="M-163.9 -104.02  L-104.75 -114.73 L-45.6 -121.73 L13.55 -126.02 L72.7 -128.81 L131.86 -131.26 L191.01 -134.58 L250.16 -139.94 L309.31 -147.73 L368.46 -156.83"/>
</g>
<g id="link-43-path" fill="none" stroke="#888888" stroke-dasharray="0" stroke-width="0.3" stroke-opacity="0.5">
<path d="M-39.47 -89.65  L-1.86 -110.84 L35.75 -124.68 L73.37 -133.19 L110.98 -138.7 L148.59 -143.56 L186.2 -150.13 L223.81 -160.73 L261.42 -176.16 L299.03 -194.16"/>
</g>
</svg>