<svg xmlns="http://www.w3.org/2000/svg" viewBox="-1140 -790 2070 1640">
<rect id="zigguratkcore3-a-1-rect" style="fill:#00008B;fill-opacity:0.2" stroke="transparent" stroke-dasharray="0" stroke-width="0.5" x="-194.62" y="-155.69" width="95.54" height="93.41" />
<rect id="zigguratkcore3-a-2-rect" style="fill:#4169E1;fill-opacity:0.2" stroke="transparent" stroke-dasharray="0" stroke-width="0.5" x="-88.46" y="-139.34" width="95.54" height="77.06" />
<rect id="zigguratkcore3-a-3-rect" style="fill:#00008B;fill-opacity:0.2" stroke="transparent" stroke-dasharray="0" stroke-width="0.5" x="17.69" y="-123" width="95.54" height="60.72" />
<rect id="zigguratkcore3-a-4-rect" style="fill:#4169E1;fill-opacity:0.2" stroke="transparent" stroke-dasharray="0" stroke-width="0.5" x="123.85" y="-106.65" width="95.53" height="44.37" />
<text id="zigguratkcore3-a-1-text" y="-108.98" style="text-anchor:middle;dominant-baseline:middle;font-family:Arial;font-size:20px;fill:#00008B">
<tspan x="-146.85" dy="0">1</tspan>
</text>
<text id="zigguratkcore3-a-2-text" y="-100.81" style="text-anchor:middle;dominant-baseline:middle;font-family:Arial;font-size:20px;fill:#00008B">
<tspan x="-40.69" dy="0">2</tspan>
</text>
<text id="zigguratkcore3-a-3-text" y="-92.64" style="text-anchor:middle;dominant-baseline:middle;font-family:Arial;font-size:20px;fill:#00008B">
<tspan x="65.46" dy="0">3</tspan>
</text>
<text id="zigguratkcore3-a-4-text" y="-84.46" style="text-anchor:middle;dominant-baseline:middle;font-family:Arial;font-size:20px;fill:#00008B">
<tspan x="171.62" dy="0">5</tspan>
</text>
<rect id="zigguratkcore3-b-1-rect" style="fill:#FF0000;fill-opacity:0.2" stroke="transparent" stroke-dasharray="0" stroke-width="0.5" x="-194.62" y="62.28" width="63.7" height="93.41" />
<rect id="zigguratkcore3-b-2-rect" style="fill:#F08080;fill-opacity:0.2" stroke="transparent" stroke-dasharray="0" stroke-width="0.5" x="-123.85" y="62.28" width="63.7" height="82.51" />
<rect id="zigguratkcore3-b-3-rect" style="fill:#FF0000;fill-opacity:0.2" stroke="transparent" stroke-dasharray="0" stroke-width="0.5" x="-53.08" y="62.28" width="63.7" height="71.62" />
<rect id="zigguratkcore3-b-4-rect" style="fill:#F08080;fill-opacity:0.2" stroke="transparent" stroke-dasharray="0" stroke-width="0.5" x="17.69" y="62.28" width="63.69" height="60.72" />
<rect id="zigguratkcore3-b-5-rect" style="fill:#FF0000;fill-opacity:0.2" stroke="transparent" stroke-dasharray="0" stroke-width="0.5" x="88.46" y="62.28" width="63.69" height="49.82" />
<rect id="zigguratkcore3-b-6-rect" style="fill:#F08080;fill-opacity:0.2" stroke="transparent" stroke-dasharray="0" stroke-width="0.5" x="159.23" y="62.28" width="63.69" height="38.92" />
<text id="zigguratkcore3-b-1-text" y="108.98" style="text-anchor:middle;dominant-baseline:middle;font-family:Arial;font-size:20px;fill:#FF0000">
<tspan x="-162.77" dy="0">2</tspan>
</text>
<text id="zigguratkcore3-b-2-text" y="103.54" style="text-anchor:middle;dominant-baseline:middle;font-family:Arial;font-size:20px;fill:#FF0000">
<tspan x="-92" dy="0">4</tspan>
</text>
<text id="zigguratkcore3-b-3-text" y="98.09" style="text-anchor:middle;dominant-baseline:middle;font-family:Arial;font-size:20px;fill:#FF0000">
<tspan x="-21.23" dy="0">1</tspan>
</text>
<text id="zigguratkcore3-b-4-text" y="92.64" style="text-anchor:middle;dominant-baseline:middle;font-family:Arial;font-size:20px;fill:#FF0000">
<tspan x="49.54" dy="0">3</tspan>
</text>
<text id="zigguratkcore3-b-5-text" y="87.19" style="text-anchor:middle;dominant-baseline:middle;font-family:Arial;font-size:20px;fill:#FF0000">
<tspan x="120.31" dy="0">5</tspan>
</text>
<text id="zigguratkcore3-b-6-text" y="81.74" style="text-anchor:middle;dominant-baseline:middle;font-family:Arial;font-size:20px;fill:#FF0000">
<tspan x="191.08" dy="0">6</tspan>
</text>
<rect id="zigguratkcore2-a-1-rect" style="fill:#00008B;fill-opacity:0.2" stroke="transparent" stroke-dasharray="0" stroke-width="0.5" x="411" y="449.6" width="171.45" height="43.55" />
<rect id="zigguratkcore2-a-2-rect" style="fill:#4169E1;fill-opacity:0.2" stroke="transparent" stroke-dasharray="0" stroke-width="0.5" x="439.57" y="397.34" width="135.74" height="43.55" />
<rect id="zigguratkcore2-a-3-rect" style="fill:#00008B;fill-opacity:0.2" stroke="transparent" stroke-dasharray="0" stroke-width="0.5" x="468.15" y="345.08" width="100.02" height="43.55" />
<rect id="zigguratkcore2-a-4-rect" style="fill:#4169E1;fill-opacity:0.2" stroke="transparent" stroke-dasharray="0" stroke-width="0.5" x="496.73" y="292.82" width="64.29" height="43.55" />
<text id="zigguratkcore2-a-1-text" y="471.38" style="text-anchor:middle;dominant-baseline:middle;font-family:Arial;font-size:18px;fill:#00008B">
<tspan x="548.16" dy="0">6</tspan>
</text>
<text id="zigguratkcore2-a-2-text" y="419.12" style="text-anchor:middle;dominant-baseline:middle;font-family:Arial;font-size:18px;fill:#00008B">
<tspan x="459.93" dy="0">4</tspan>
</text>
<text id="zigguratkcore2-a-3-text" y="366.86" style="text-anchor:middle;dominant-baseline:middle;font-family:Arial;font-size:18px;fill:#00008B">
<tspan x="548.16" dy="0">7</tspan>
</text>
<text id="zigguratkcore2-a-4-text" y="314.6" style="text-anchor:middle;dominant-baseline:middle;font-family:Arial;font-size:18px;fill:#00008B">
<tspan x="506.37" dy="0">8</tspan>
</text>
<rect id="zigguratkcore2-b-1-rect" style="fill:#FF0000;fill-opacity:0.2" stroke="transparent" stroke-dasharray="0" stroke-width="0.5" x="413.38" y="-634.75" width="171.45" height="43.55" />
<rect id="zigguratkcore2-b-2-rect" style="fill:#F08080;fill-opacity:0.2" stroke="transparent" stroke-dasharray="0" stroke-width="0.5" x="436.24" y="-582.49" width="142.88" height="43.5600000000001" />
<rect id="zigguratkcore2-b-3-rect" style="fill:#FF0000;fill-opacity:0.2" stroke="transparent" stroke-dasharray="0" stroke-width="0.5" x="459.1" y="-530.22" width="114.3" height="43.55" />
<rect id="zigguratkcore2-b-4-rect" style="fill:#F08080;fill-opacity:0.2" stroke="transparent" stroke-dasharray="0" stroke-width="0.5" x="481.96" y="-477.96" width="85.7300000000001" height="43.55" />
<rect id="zigguratkcore2-b-5-rect" style="fill:#FF0000;fill-opacity:0.2" stroke="transparent" stroke-dasharray="0" stroke-width="0.5" x="504.82" y="-425.7" width="57.15" height="43.55" />
<text id="zigguratkcore2-b-1-text" y="-612.97" style="text-anchor:middle;dominant-baseline:middle;font-family:Arial;font-size:18px;fill:#FF0000">
<tspan x="439.1" dy="0">11</tspan>
</text>
<text id="zigguratkcore2-b-2-text" y="-560.71" style="text-anchor:middle;dominant-baseline:middle;font-family:Arial;font-size:18px;fill:#FF0000">
<tspan x="550.54" dy="0">8</tspan>
</text>
<text id="zigguratkcore2-b-3-text" y="-508.45" style="text-anchor:middle;dominant-baseline:middle;font-family:Arial;font-size:18px;fill:#FF0000">
<tspan x="476.25" dy="0">7</tspan>
</text>
<text id="zigguratkcore2-b-4-text" y="-456.19" style="text-anchor:middle;dominant-baseline:middle;font-family:Arial;font-size:18px;fill:#FF0000">
<tspan x="550.54" dy="0">9</tspan>
</text>
<text id="zigguratkcore2-b-5-text" y="-403.93" style="text-anchor:middle;dominant-baseline:middle;font-family:Arial;font-size:18px;fill:#FF0000">
<tspan x="513.4" dy="0">10</tspan>
</text>
<rect id="zigguratkcore3-1-rect" style="fill:none;fill-opacity:0.3" stroke="#8B4C39" stroke-dasharray="1 1" stroke-width="0" x="-274.23" y="-277.63" width="523.69" height="494.29" />
<text id="zigguratkcore3-1-text" y="-30.49" style="text-anchor:middle;dominant-baseline:middle;font-family:Arial;font-size:14px;fill:transparent">
</text>
<text id="zigguratkcore3-1-text" y="0" transform="rotate(-90 -231.77 0)" style="text-anchor:start;dominant-baseline:middle;font-family:Arial;font-size:20px;fill:#8B4C39">
<tspan x="-231.77" dy="0">3-shell</tspan>
</text>
<rect id="zigguratkcore2-1-rect" style="fill:none;fill-opacity:0.3" stroke="#AC5E46" stroke-dasharray="1 1" stroke-width="0" x="384.46" y="-787.17" width="226.91" height="1341.29" />
<text id="zigguratkcore2-1-text" y="-116.52" style="text-anchor:middle;dominant-baseline:middle;font-family:Arial;font-size:14px;fill:transparent">
</text>
<text id="zigguratkcore2-1-text" y="-701.81" style="text-anchor:start;dominant-baseline:middle;font-family:Arial;font-size:20px;fill:#AC5E46">
<tspan x="471.38" dy="0">2-shell</tspan>
</text>
<rect id="zigguratedge-kcore1-a-tail-5-1-rect" style="fill:#00008B;fill-opacity:0.11" stroke="transparent" stroke-dasharray="0" stroke-width="0.5" x="-190.19" y="496.21" width="26.54" height="26.54" />
<text id="zigguratedge-kcore1-a-tail-5-1-text" y="509.48" transform="rotate(30 -176.92 509.48)" style="text-anchor:middle;dominant-baseline:middle;font-family:Arial;font-size:16px;fill:#00008B">
<tspan x="-176.92" dy="0"> 15</tspan>
</text>
<rect id="zigguratedge-kcore1-a-tail-3-1-rect" style="fill:#00008B;fill-opacity:0.11" stroke="transparent" stroke-dasharray="0" stroke-width="0.5" x="-229.12" y="509.59" width="26.54" height="26.54" />
<text id="zigguratedge-kcore1-a-tail-3-1-text" y="522.86" transform="rotate(30 -215.85 522.86)" style="text-anchor:middle;dominant-baseline:middle;font-family:Arial;font-size:16px;fill:#00008B">
<tspan x="-215.85" dy="0"> 17</tspan>
</text>
<rect id="zigguratedge-kcore1-a-tail-1-1-rect" style="fill:#00008B;fill-opacity:0.11" stroke="transparent" stroke-dasharray="0" stroke-width="0.5" x="-274.51" y="522.96" width="39.49" height="39.49" />
<text id="zigguratedge-kcore1-a-tail-1-1-text" y="542.71" transform="rotate(30 -254.77 542.71)" style="text-anchor:start;dominant-baseline:middle;font-family:Arial;font-size:16px;fill:#00008B">
<tspan x="-254.77" dy="0"> 12 13  16</tspan>
</text>
<rect id="zigguratedge-kcore1-b-tail-2-1-rect" style="fill:#FF0000;fill-opacity:0.11" stroke="transparent" stroke-dasharray="0" stroke-width="0.5" x="-172.5" y="-483.56" width="26.54" height="26.54" />
<text id="zigguratedge-kcore1-b-tail-2-1-text" y="-470.29" transform="rotate(-30 -159.23 -470.29)" style="text-anchor:middle;dominant-baseline:middle;font-family:Arial;font-size:16px;fill:#FF0000">
<tspan x="-159.23" dy="0"> 16</tspan>
</text>
<rect id="zigguratedge-kcore1-a-fattail-1-rect" style="fill:#00008B;fill-opacity:0.11" stroke="transparent" stroke-dasharray="0" stroke-width="0.5" x="-725.38" y="42.66" width="26.53" height="26.54" />
<text id="zigguratedge-kcore1-a-fattail-1-text" y="55.93" style="text-anchor:middle;dominant-baseline:middle;font-family:Arial;font-size:16px;fill:#00008B">
<tspan x="-712.12" dy="0"> 11</tspan>
</text>
<rect id="zigguratedge-kcore1-b-fattail-1-rect" style="fill:#FF0000;fill-opacity:0.11" stroke="transparent" stroke-dasharray="0" stroke-width="0.5" x="-725.38" y="-69.2" width="26.53" height="26.54" />
<text id="zigguratedge-kcore1-b-fattail-1-text" y="-55.93" style="text-anchor:middle;dominant-baseline:middle;font-family:Arial;font-size:16px;fill:#FF0000">
<tspan x="-712.12" dy="0"> 13</tspan>
</text>
<rect id="zigguratedge-kcore1-a-1-1-rect" style="fill:#00008B;fill-opacity:0.2" stroke="transparent" stroke-dasharray="0" stroke-width="0.5" x="-978.52" y="401.21" width="35.38" height="35.38" />
<text id="zigguratedge-kcore1-a-1-1-text" y="418.9" style="text-anchor:middle;dominant-baseline:middle;font-family:Arial;font-size:16px;fill:#00008B">
<tspan x="-960.83" dy="0"> 9</tspan>
</text>
<rect id="zigguratedge-kcore1-b-2-1-rect" style="fill:#FF0000;fill-opacity:0.2" stroke="transparent" stroke-dasharray="0" stroke-width="0.5" x="-1137.75" y="575.41" width="35.3800000000001" height="35.38" />
<text id="zigguratedge-kcore1-b-2-1-text" y="593.1" style="text-anchor:middle;dominant-baseline:middle;font-family:Arial;font-size:16px;fill:#FF0000">
<tspan x="-1120.06" dy="0"> 14</tspan>
</text>
<rect id="zigguratedge-kcore1-a-out-1-rect" style="fill:#00008B;fill-opacity:0.2" stroke="transparent" stroke-dasharray="0" stroke-width="0.5" x="0" y="699.25" width="35.38" height="35.39" />
<rect id="zigguratedge-kcore1-a-out-2-rect" style="fill:#00008B;fill-opacity:0.2" stroke="transparent" stroke-dasharray="0" stroke-width="0.5" x="88.46" y="699.25" width="35.39" height="35.39" />
<text id="zigguratedge-kcore1-a-out-1-text" y="716.95" style="text-anchor:middle;dominant-baseline:middle;font-family:Arial;font-size:16px;fill:#00008B">
<tspan x="17.69" dy="0">10</tspan>
</text>
<text id="zigguratedge-kcore1-a-out-2-text" y="716.95" style="text-anchor:middle;dominant-baseline:middle;font-family:Arial;font-size:16px;fill:#00008B">
<tspan x="106.15" dy="0">14</tspan>
</text>
<rect id="zigguratedge-kcore1-b-out-1-rect" style="fill:#FF0000;fill-opacity:0.2" stroke="transparent" stroke-dasharray="0" stroke-width="0.5" x="0" y="805.41" width="35.38" height="35.38" />
<rect id="zigguratedge-kcore1-b-out-2-rect" style="fill:#FF0000;fill-opacity:0.2" stroke="transparent" stroke-dasharray="0" stroke-width="0.5" x="88.46" y="805.41" width="35.39" height="35.38" />
<text id="zigguratedge-kcore1-b-out-1-text" y="823.1" style="text-anchor:middle;dominant-baseline:middle;font-family:Arial;font-size:16px;fill:#FF0000">
<tspan x="17.69" dy="0">12</tspan>
</text>
<text id="zigguratedge-kcore1-b-out-2-text" y="823.1" style="text-anchor:middle;dominant-baseline:middle;font-family:Arial;font-size:16px;fill:#FF0000">
<tspan x="106.15" dy="0">15</tspan>
</text>
<text id="zigguratcorelabel-1-text" y="575.95" style="text-anchor:start;dominant-baseline:middle;font-family:Arial;font-size:20px;fill:grey50">
<tspan x="-64.53" dy="0">Outside the giant component</tspan>
</text>
<rect id="zigguratannotation-1-rect" style="fill:none;fill-opacity:0.5" stroke="transparent" stroke-dasharray="0" stroke-width="0.5" x="920" y="-0.04" width="0.0399999999999636" height="0.04" />
<text id="zigguratannotation-1-text" y="-0.02" style="text-anchor:middle;dominant-baseline:middle;font-family:Arial;font-size:20px;fill:transparent">
</text>
<text id="zigguratannotation-1-text" y="0" style="text-anchor:middle;dominant-baseline:middle;font-family:Arial;font-size:4px;fill:red">
<tspan x="920" dy="0">.</tspan>
</text>
<text id="zigguratannotation-1-text" y="0" style="text-anchor:middle;dominant-baseline:middle;font-family:Arial;font-size:4px;fill:red">
<tspan x="-548.46" dy="0">.</tspan>
</text>
<text id="zigguratannotation-1-text" y="0" style="text-anchor:middle;dominant-baseline:middle;font-family:Arial;font-size:4px;fill:red">
<tspan x="-548.46" dy="0">.</tspan>
</text>
<g id="zigguratlink-1-segment" fill="none" stroke="#888888" stroke-dasharray="0" stroke-width="0.3" stroke-opacity="0.5">
<path d="M-698.85 55.93 L-194.62 108.98"/>
</g>
<g id="zigguratlink-2-segment" fill="none" stroke="#888888" stroke-dasharray="0" stroke-width="0.3" stroke-opacity="0.5">
<path d="M-698.85 -55.93 L-194.62 -108.98"/>
</g>
<g id="zigguratlink-3-segment" fill="none" stroke="#888888" stroke-dasharray="0" stroke-width="0.3" stroke-opacity="0.5">
<path d="M-146.85 -62.28 L-162.77 62.28"/>
</g>
<g id="zigguratlink-4-segment" fill="none" stroke="#888888" stroke-dasharray="0" stroke-width="0.3" stroke-opacity="0.5">
<path d="M-146.85 -62.28 L-92 62.28"/>
</g>
<g id="zigguratlink-5-segment" fill="none" stroke="#888888" stroke-dasharray="0" stroke-width="0.3" stroke-opacity="0.5">
<path d="M-146.85 -62.28 L-21.23 62.28"/>
</g>
<g id="zigguratlink-6-segment" fill="none" stroke="#888888" stroke-dasharray="0" stroke-width="0.3" stroke-opacity="0.5">
<path d="M-146.85 -62.28 L49.54 62.28"/>
</g>
<g id="zigguratlink-7-segment" fill="none" stroke="#888888" stroke-dasharray="0" stroke-width="0.3" stroke-opacity="0.5">
<path d="M-146.85 -62.28 L120.31 62.28"/>
</g>
<g id="zigguratlink-8-segment" fill="none" stroke="#888888" stroke-dasharray="0" stroke-width="0.3" stroke-opacity="0.5">
<path d="M-146.85 -62.28 L191.08 62.28"/>
</g>
<g id="zigguratlink-9-segment" fill="none" stroke="#888888" stroke-dasharray="0" stroke-width="0.3" stroke-opacity="0.5">
<path d="M-40.69 -62.28 L-162.77 62.28"/>
</g>
<g id="zigguratlink-10-segment" fill="none" stroke="#888888" stroke-dasharray="0" stroke-width="0.3" stroke-opacity="0.5">
<path d="M-40.69 -62.28 L-92 62.28"/>
</g>
<g id="zigguratlink-11-segment" fill="none" stroke="#888888" stroke-dasharray="0" stroke-width="0.3" stroke-opacity="0.5">
<path d="M-40.69 -62.28 L-21.23 62.28"/>
</g>
<g id="zigguratlink-12-segment" fill="none" stroke="#888888" stroke-dasharray="0" stroke-width="0.3" stroke-opacity="0.5">
<path d="M-40.69 -62.28 L49.54 62.28"/>
</g>
<g id="zigguratlink-13-segment" fill="none" stroke="#888888" stroke-dasharray="0" stroke-width="0.3" stroke-opacity="0.5">
<path d="M-40.69 -62.28 L120.31 62.28"/>
</g>
<g id="zigguratlink-14-segment" fill="none" stroke="#888888" stroke-dasharray="0" stroke-width="0.3" stroke-opacity="0.5">
<path d="M65.46 -62.28 L-162.77 62.28"/>
</g>
<g id="zigguratlink-15-segment" fill="none" stroke="#888888" stroke-dasharray="0" stroke-width="0.3" stroke-opacity="0.5">
<path d="M65.46 -62.28 L-92 62.28"/>
</g>
<g id="zigguratlink-16-segment" fill="none" stroke="#888888" stroke-dasharray="0" stroke-width="0.3" stroke-opacity="0.5">
<path d="M65.46 -62.28 L49.54 62.28"/>
</g>
<g id="zigguratlink-17-segment" fill="none" stroke="#888888" stroke-dasharray="0" stroke-width="0.3" stroke-opacity="0.5">
<path d="M65.46 -62.28 L120.31 62.28"/>
</g>
<g id="zigguratlink-18-segment" fill="none" stroke="#888888" stroke-dasharray="0" stroke-width="0.3" stroke-opacity="0.5">
<path d="M65.46 -62.28 L191.08 62.28"/>
</g>
<g id="zigguratlink-19-segment" fill="none" stroke="#888888" stroke-dasharray="0" stroke-width="0.3" stroke-opacity="0.5">
<path d="M171.62 -62.28 L-162.77 62.28"/>
</g>
<g id="zigguratlink-20-segment" fill="none" stroke="#888888" stroke-dasharray="0" stroke-width="0.3" stroke-opacity="0.5">
<path d="M171.62 -62.28 L-92 62.28"/>
</g>
<g id="zigguratlink-21-segment" fill="none" stroke="#888888" stroke-dasharray="0" stroke-width="0.3" stroke-opacity="0.5">
<path d="M171.62 -62.28 L-21.23 62.28"/>
</g>
<g id="zigguratlink-22-segment" fill="none" stroke="#888888" stroke-dasharray="0" stroke-width="0.3" stroke-opacity="0.5">
<path d="M171.62 -62.28 L191.08 62.28"/>
</g>
<g id="zigguratlink-23-segment" fill="none" stroke="#888888" stroke-dasharray="0" stroke-width="0.3" stroke-opacity="0.5">
<path d="M411 449.6 L436.24 -538.93"/>
</g>
<g id="zigguratlink-24-segment" fill="none" stroke="#888888" stroke-dasharray="0" stroke-width="0.3" stroke-opacity="0.5">
<path d="M411 449.6 L459.1 -486.67"/>
</g>
<g id="zigguratlink-25-segment" fill="none" stroke="#888888" stroke-dasharray="0" stroke-width="0.3" stroke-opacity="0.5">
<path d="M439.57 397.34 L481.96 -434.41"/>
</g>
<g id="zigguratlink-26-segment" fill="none" stroke="#888888" stroke-dasharray="0" stroke-width="0.3" stroke-opacity="0.5">
<path d="M439.57 397.34 L504.82 -382.15"/>
</g>
<g id="zigguratlink-27-segment" fill="none" stroke="#888888" stroke-dasharray="0" stroke-width="0.3" stroke-opacity="0.5">
<path d="M496.73 292.82 L481.96 -434.41"/>
</g>
<g id="zigguratlink-28-segment" fill="none" stroke="#888888" stroke-dasharray="0" stroke-width="0.3" stroke-opacity="0.5">
<path d="M496.73 292.82 L504.82 -382.15"/>
</g>
<g id="zigguratlink-29-segment" fill="none" stroke="#888888" stroke-dasharray="0" stroke-width="0.3" stroke-opacity="0.5">
<path d="M17.69 734.64 L17.69 805.41"/>
</g>
<g id="zigguratlink-30-segment" fill="none" stroke="#888888" stroke-dasharray="0" stroke-width="0.3" stroke-opacity="0.5">
<path d="M106.15 734.64 L106.15 805.41"/>
</g>
<g id="zigguratlink-1-path" fill="none" stroke="#888888" stroke-dasharray="0" stroke-width="0.3" stroke-opacity="0.5">
<path d="M-176.92 496.21  L-143.9 466.41 L-110.87 435.63 L-77.85 402.91 L-44.82 367.25 L-11.79 327.69 L21.23 283.25 L54.26 232.96 L87.28 175.84 L120.31 112.1"/>
</g>
<g id="zigguratlink-2-path" fill="none" stroke="#888888" stroke-dasharray="0" stroke-width="0.3" stroke-opacity="0.5">
<path d="M-215.85 509.59  L-186.36 479.59 L-156.87 448.62 L-127.38 415.68 L-97.9 379.79 L-68.41 339.98 L-38.92 295.26 L-9.44 244.64 L20.05 187.15 L49.54 123"/>
</g>
<g id="zigguratlink-3-path" fill="none" stroke="#888888" stroke-dasharray="0" stroke-width="0.3" stroke-opacity="0.5">
<path d="M-254.77 522.96  L-228.82 492.78 L-202.87 461.6 L-176.92 428.45 L-150.97 392.34 L-125.03 352.27 L-99.08 307.26 L-73.13 256.32 L-47.18 198.46 L-21.23 133.9"/>
</g>
<g id="zigguratlink-4-path" fill="none" stroke="#888888" stroke-dasharray="0" stroke-width="0.3" stroke-opacity="0.5">
<path d="M-159.23 -457.02  L-146.06 -432.37 L-132.89 -406.92 L-119.72 -379.85 L-106.55 -350.36 L-93.38 -317.65 L-80.21 -280.9 L-67.03 -239.3 L-53.86 -192.06 L-40.69 -139.34"/>
</g>
<g id="zigguratlink-5-path" fill="none" stroke="#888888" stroke-dasharray="0" stroke-width="0.3" stroke-opacity="0.5">
<path d="M-162.77 155.69  L-99.02 206.33 L-35.27 249.7 L28.49 279.53 L92.24 298 L155.99 311.68 L219.74 327.17 L283.49 351.08 L347.25 390.01 L411 449.6"/>
</g>
<g id="zigguratlink-6-path" fill="none" stroke="#888888" stroke-dasharray="0" stroke-width="0.3" stroke-opacity="0.5">
<path d="M-21.23 133.9  L26.79 188.29 L74.82 234.88 L122.85 266.91 L170.87 286.75 L218.9 301.45 L266.92 318.09 L314.95 343.77 L362.97 385.59 L411 449.6"/>
</g>
<g id="zigguratlink-7-path" fill="none" stroke="#888888" stroke-dasharray="0" stroke-width="0.3" stroke-opacity="0.5">
<path d="M-21.23 133.9  L29.97 179.28 L81.17 218.16 L132.37 244.89 L183.57 261.45 L234.77 273.71 L285.97 287.6 L337.17 309.03 L388.37 343.92 L439.57 397.34"/>
</g>
<g id="zigguratlink-8-path" fill="none" stroke="#888888" stroke-dasharray="0" stroke-width="0.3" stroke-opacity="0.5">
<path d="M49.54 123  L92.88 170.26 L136.21 210.75 L179.55 238.59 L222.89 255.83 L266.22 268.6 L309.56 283.06 L352.9 305.38 L396.24 341.71 L439.57 397.34"/>
</g>
<g id="zigguratlink-9-path" fill="none" stroke="#888888" stroke-dasharray="0" stroke-width="0.3" stroke-opacity="0.5">
<path d="M-162.77 155.69  L-92.67 188.32 L-22.56 216.27 L47.54 235.49 L117.64 247.39 L187.74 256.21 L257.84 266.19 L327.95 281.6 L398.05 306.68 L468.15 345.08"/>
</g>
<g id="zigguratlink-10-path" fill="none" stroke="#888888" stroke-dasharray="0" stroke-width="0.3" stroke-opacity="0.5">
<path d="M120.31 112.1  L158.96 152.24 L197.61 186.62 L236.26 210.26 L274.9 224.9 L313.55 235.75 L352.2 248.03 L390.85 266.98 L429.5 297.84 L468.15 345.08"/>
</g>
<g id="zigguratlink-11-path" fill="none" stroke="#888888" stroke-dasharray="0" stroke-width="0.3" stroke-opacity="0.5">
<path d="M-146.85 -155.69  L-84.6 -244 L-22.35 -301.68 L39.9 -337.11 L102.14 -360.07 L164.39 -380.34 L226.64 -407.7 L288.88 -451.89 L351.13 -516.16 L413.38 -591.2"/>
</g>
<g id="zigguratlink-12-path" fill="none" stroke="#888888" stroke-dasharray="0" stroke-width="0.3" stroke-opacity="0.5">
<path d="M-146.85 -155.69  L-82.06 -233.4 L-17.27 -284.16 L47.52 -315.34 L112.3 -335.54 L177.09 -353.38 L241.88 -377.46 L306.67 -416.35 L371.45 -472.91 L436.24 -538.93"/>
</g>
<g id="zigguratlink-13-path" fill="none" stroke="#888888" stroke-dasharray="0" stroke-width="0.3" stroke-opacity="0.5">
<path d="M-40.69 -139.34  L14.84 -209.77 L70.37 -255.77 L125.91 -284.03 L181.44 -302.34 L236.97 -318.51 L292.5 -340.33 L348.04 -375.58 L403.57 -426.83 L459.1 -486.67"/>
</g>
<g id="zigguratlink-14-path" fill="none" stroke="#888888" stroke-dasharray="0" stroke-width="0.3" stroke-opacity="0.5">
<path d="M65.46 -123  L104.12 -217.93 L142.78 -279.94 L181.43 -318.03 L220.09 -342.71 L258.75 -364.51 L297.41 -393.93 L336.06 -441.44 L374.72 -510.53 L413.38 -591.2"/>
</g>
<g id="zigguratlink-15-path" fill="none" stroke="#888888" stroke-dasharray="0" stroke-width="0.3" stroke-opacity="0.5">
<path d="M-943.14 401.21  L-832.84 379.62 L-722.54 357.33 L-612.24 333.63 L-501.95 307.8 L-391.65 279.15 L-281.35 246.96 L-171.06 210.54 L-60.76 169.17 L49.54 123"/>
</g>
<g id="zigguratlink-16-path" fill="none" stroke="#888888" stroke-dasharray="0" stroke-width="0.3" stroke-opacity="0.5">
<path d="M-1102.37 593.1  L-1088.61 579.59 L-1074.85 565.63 L-1061.08 550.78 L-1047.32 534.61 L-1033.56 516.67 L-1019.8 496.52 L-1006.04 473.71 L-992.28 447.81 L-978.52 418.9"/>
</g>
</svg>