<svg xmlns="http://www.w3.org/2000/svg" viewBox="-790 -680 1795.5 966">
<rect id="kcore3-a-1-rect" style="fill:#00008B;fill-opacity:0.2" stroke="transparent" stroke-dasharray="0" stroke-width="0.5" x="-194.62" y="-155.69" width="76.44" height="93.41" />
<rect id="kcore3-a-2-rect" style="fill:#4169E1;fill-opacity:0.2" stroke="transparent" stroke-dasharray="0" stroke-width="0.5" x="-109.69" y="-142.61" width="76.43" height="80.33" />
<rect id="kcore3-a-3-rect" style="fill:#00008B;fill-opacity:0.2" stroke="transparent" stroke-dasharray="0" stroke-width="0.5" x="-24.77" y="-129.54" width="76.43" height="67.26" />
<rect id="kcore3-a-4-rect" style="fill:#4169E1;fill-opacity:0.2" stroke="transparent" stroke-dasharray="0" stroke-width="0.5" x="60.15" y="-116.46" width="76.43" height="54.18" />
<rect id="kcore3-a-5-rect" style="fill:#00008B;fill-opacity:0.2" stroke="transparent" stroke-dasharray="0" stroke-width="0.5" x="145.08" y="-103.38" width="76.43" height="41.1" />
<text id="kcore3-a-1-text" y="-108.98" style="text-anchor:middle;dominant-baseline:middle;font-family:Arial;font-size:15px;fill:#00008B">
<tspan x="-156.4" dy="0">8</tspan>
</text>
<text id="kcore3-a-2-text" y="-102.45" style="text-anchor:middle;dominant-baseline:middle;font-family:Arial;font-size:15px;fill:#00008B">
<tspan x="-71.48" dy="0">7</tspan>
</text>
<text id="kcore3-a-3-text" y="-95.91" style="text-anchor:middle;dominant-baseline:middle;font-family:Arial;font-size:15px;fill:#00008B">
<tspan x="13.45" dy="0">3</tspan>
</text>
<text id="kcore3-a-4-text" y="-89.37" style="text-anchor:middle;dominant-baseline:middle;font-family:Arial;font-size:15px;fill:#00008B">
<tspan x="98.37" dy="0">4</tspan>
</text>
<text id="kcore3-a-5-text" y="-82.83" style="text-anchor:middle;dominant-baseline:middle;font-family:Arial;font-size:15px;fill:#00008B">
<tspan x="183.29" dy="0">2</tspan>
</text>
<rect id="kcore3-b-1-rect" style="fill:#FF0000;fill-opacity:0.2" stroke="transparent" stroke-dasharray="0" stroke-width="0.5" x="-194.62" y="62.28" width="54.6" height="93.41" />
<rect id="kcore3-b-2-rect" style="fill:#F08080;fill-opacity:0.2" stroke="transparent" stroke-dasharray="0" stroke-width="0.5" x="-133.96" y="62.28" width="54.6" height="84.07" />
<rect id="kcore3-b-3-rect" style="fill:#FF0000;fill-opacity:0.2" stroke="transparent" stroke-dasharray="0" stroke-width="0.5" x="-73.3" y="62.28" width="54.6" height="74.73" />
<rect id="kcore3-b-4-rect" style="fill:#F08080;fill-opacity:0.2" stroke="transparent" stroke-dasharray="0" stroke-width="0.5" x="-12.64" y="62.28" width="54.6" height="65.39" />
<rect id="kcore3-b-5-rect" style="fill:#FF0000;fill-opacity:0.2" stroke="transparent" stroke-dasharray="0" stroke-width="0.5" x="48.02" y="62.28" width="54.6" height="56.05" />
<rect id="kcore3-b-6-rect" style="fill:#F08080;fill-opacity:0.2" stroke="transparent" stroke-dasharray="0" stroke-width="0.5" x="108.68" y="62.28" width="54.59" height="46.7" />
<rect id="kcore3-b-7-rect" style="fill:#FF0000;fill-opacity:0.2" stroke="transparent" stroke-dasharray="0" stroke-width="0.5" x="169.34" y="62.28" width="54.59" height="37.36" />
<text id="kcore3-b-1-text" y="108.98" style="text-anchor:middle;dominant-baseline:middle;font-family:Arial;font-size:15px;fill:#FF0000">
<tspan x="-167.32" dy="0">22</tspan>
</text>
<text id="kcore3-b-2-text" y="104.31" style="text-anchor:middle;dominant-baseline:middle;font-family:Arial;font-size:15px;fill:#FF0000">
<tspan x="-106.66" dy="0">28</tspan>
</text>
<text id="kcore3-b-3-text" y="99.64" style="text-anchor:middle;dominant-baseline:middle;font-family:Arial;font-size:15px;fill:#FF0000">
<tspan x="-46" dy="0">11</tspan>
</text>
<text id="kcore3-b-4-text" y="94.97" style="text-anchor:middle;dominant-baseline:middle;font-family:Arial;font-size:15px;fill:#FF0000">
<tspan x="14.66" dy="0">27</tspan>
</text>
<text id="kcore3-b-5-text" y="90.3" style="text-anchor:middle;dominant-baseline:middle;font-family:Arial;font-size:15px;fill:#FF0000">
<tspan x="75.32" dy="0">30</tspan>
</text>
<text id="kcore3-b-6-text" y="85.63" style="text-anchor:middle;dominant-baseline:middle;font-family:Arial;font-size:15px;fill:#FF0000">
<tspan x="135.98" dy="0">39</tspan>
</text>
<text id="kcore3-b-7-text" y="80.96" style="text-anchor:middle;dominant-baseline:middle;font-family:Arial;font-size:15px;fill:#FF0000">
<tspan x="196.64" dy="0">19</tspan>
</text>
<rect id="kcore2-a-1-rect" style="fill:#00008B;fill-opacity:0.2" stroke="transparent" stroke-dasharray="0" stroke-width="0.5" x="408.87" y="190.37" width="188.67" height="18.15" />
<text id="kcore2-a-1-text" y="199.45" style="text-anchor:middle;dominant-baseline:middle;font-family:Arial;font-size:13.5px;fill:#00008B">
<tspan x="437.17" dy="0">6</tspan>
</text>
<rect id="kcore2-b-1-rect" style="fill:#FF0000;fill-opacity:0.2" stroke="transparent" stroke-dasharray="0" stroke-width="0.5" x="437.7" y="-609.34" width="188.66" height="18.14" />
<rect id="kcore2-b-2-rect" style="fill:#F08080;fill-opacity:0.2" stroke="transparent" stroke-dasharray="0" stroke-width="0.5" x="448.18" y="-587.57" width="175.56" height="18.1500000000001" />
<rect id="kcore2-b-3-rect" style="fill:#FF0000;fill-opacity:0.2" stroke="transparent" stroke-dasharray="0" stroke-width="0.5" x="458.66" y="-565.79" width="162.46" height="18.15" />
<rect id="kcore2-b-4-rect" style="fill:#F08080;fill-opacity:0.2" stroke="transparent" stroke-dasharray="0" stroke-width="0.5" x="469.14" y="-544.02" width="149.36" height="18.15" />
<rect id="kcore2-b-5-rect" style="fill:#FF0000;fill-opacity:0.2" stroke="transparent" stroke-dasharray="0" stroke-width="0.5" x="479.62" y="-522.24" width="136.26" height="18.15" />
<rect id="kcore2-b-6-rect" style="fill:#F08080;fill-opacity:0.2" stroke="transparent" stroke-dasharray="0" stroke-width="0.5" x="490.1" y="-500.47" width="123.16" height="18.15" />
<rect id="kcore2-b-7-rect" style="fill:#FF0000;fill-opacity:0.2" stroke="transparent" stroke-dasharray="0" stroke-width="0.5" x="500.58" y="-478.69" width="110.06" height="18.15" />
<rect id="kcore2-b-8-rect" style="fill:#F08080;fill-opacity:0.2" stroke="transparent" stroke-dasharray="0" stroke-width="0.5" x="511.07" y="-456.92" width="96.95" height="18.15" />
<rect id="kcore2-b-9-rect" style="fill:#FF0000;fill-opacity:0.2" stroke="transparent" stroke-dasharray="0" stroke-width="0.5" x="521.55" y="-435.14" width="83.85" height="18.15" />
<rect id="kcore2-b-10-rect" style="fill:#F08080;fill-opacity:0.2" stroke="transparent" stroke-dasharray="0" stroke-width="0.5" x="532.03" y="-413.36" width="70.75" height="18.14" />
<rect id="kcore2-b-11-rect" style="fill:#FF0000;fill-opacity:0.2" stroke="transparent" stroke-dasharray="0" stroke-width="0.5" x="542.51" y="-391.59" width="57.65" height="18.15" />
<rect id="kcore2-b-12-rect" style="fill:#F08080;fill-opacity:0.2" stroke="transparent" stroke-dasharray="0" stroke-width="0.5" x="552.99" y="-369.81" width="44.55" height="18.14" />
<text id="kcore2-b-1-text" y="-600.27" style="text-anchor:middle;dominant-baseline:middle;font-family:Arial;font-size:13.5px;fill:#FF0000">
<tspan x="588.63" dy="0">2</tspan>
</text>
<text id="kcore2-b-2-text" y="-578.49" style="text-anchor:middle;dominant-baseline:middle;font-family:Arial;font-size:13.5px;fill:#FF0000">
<tspan x="474.51" dy="0">3</tspan>
</text>
<text id="kcore2-b-3-text" y="-556.72" style="text-anchor:middle;dominant-baseline:middle;font-family:Arial;font-size:13.5px;fill:#FF0000">
<tspan x="588.63" dy="0">7</tspan>
</text>
<text id="kcore2-b-4-text" y="-534.94" style="text-anchor:middle;dominant-baseline:middle;font-family:Arial;font-size:13.5px;fill:#FF0000">
<tspan x="491.54" dy="0">8</tspan>
</text>
<text id="kcore2-b-5-text" y="-513.17" style="text-anchor:middle;dominant-baseline:middle;font-family:Arial;font-size:13.5px;fill:#FF0000">
<tspan x="588.63" dy="0">13</tspan>
</text>
<text id="kcore2-b-6-text" y="-491.39" style="text-anchor:middle;dominant-baseline:middle;font-family:Arial;font-size:13.5px;fill:#FF0000">
<tspan x="508.58" dy="0">14</tspan>
</text>
<text id="kcore2-b-7-text" y="-469.62" style="text-anchor:middle;dominant-baseline:middle;font-family:Arial;font-size:13.5px;fill:#FF0000">
<tspan x="588.63" dy="0">15</tspan>
</text>
<text id="kcore2-b-8-text" y="-447.84" style="text-anchor:middle;dominant-baseline:middle;font-family:Arial;font-size:13.5px;fill:#FF0000">
<tspan x="525.61" dy="0">20</tspan>
</text>
<text id="kcore2-b-9-text" y="-426.07" style="text-anchor:middle;dominant-baseline:middle;font-family:Arial;font-size:13.5px;fill:#FF0000">
<tspan x="588.63" dy="0">24</tspan>
</text>
<text id="kcore2-b-10-text" y="-404.29" style="text-anchor:middle;dominant-baseline:middle;font-family:Arial;font-size:13.5px;fill:#FF0000">
<tspan x="542.64" dy="0">25</tspan>
</text>
<text id="kcore2-b-11-text" y="-382.52" style="text-anchor:middle;dominant-baseline:middle;font-family:Arial;font-size:13.5px;fill:#FF0000">
<tspan x="588.63" dy="0">29</tspan>
</text>
<text id="kcore2-b-12-text" y="-360.74" style="text-anchor:middle;dominant-baseline:middle;font-family:Arial;font-size:13.5px;fill:#FF0000">
<tspan x="559.67" dy="0">32</tspan>
</text>
<rect id="kcore3-1-rect" style="fill:none;fill-opacity:0.3" stroke="#8B4C39" stroke-dasharray="1 1" stroke-width="0" x="-274.23" y="-206.5" width="524.7" height="387.6" />
<text id="kcore3-1-text" y="-12.7" style="text-anchor:middle;dominant-baseline:middle;font-family:Arial;font-size:10.5px;fill:transparent">
</text>
<text id="kcore3-1-text" y="0" transform="rotate(-90 -231.77 0)" style="text-anchor:start;dominant-baseline:baseline;font-family:Arial;font-size:15px;fill:#8B4C39">
<tspan x="-231.77" dy="0">3-shell</tspan>
</text>
<rect id="kcore2-1-rect" style="fill:none;fill-opacity:0.3" stroke="#AC5E46" stroke-dasharray="1 1" stroke-width="0" x="382.33" y="-672.85" width="270.57" height="906.77" />
<text id="kcore2-1-text" y="-219.46" style="text-anchor:middle;dominant-baseline:middle;font-family:Arial;font-size:10.5px;fill:transparent">
</text>
<text id="kcore2-1-text" y="-637.29" style="text-anchor:start;dominant-baseline:baseline;font-family:Arial;font-size:15px;fill:#AC5E46">
<tspan x="491.08" dy="0">2-shell</tspan>
</text>
<rect id="edge-kcore1-b-4-1-rect" style="fill:#FF0000;fill-opacity:0.11" stroke="transparent" stroke-dasharray="0" stroke-width="0.5" x="-168.08" y="-472.59" width="33.87" height="33.86" />
<text id="edge-kcore1-b-4-1-text" y="-455.66" transform="rotate(-30 -151.14 -455.66)" style="text-anchor:start;dominant-baseline:baseline;font-family:Arial;font-size:12px;fill:#FF0000">
<tspan x="-151.14" dy="0"> 17  38</tspan>
</text>
<rect id="edge-kcore1-b-3-1-rect" style="fill:#FF0000;fill-opacity:0.11" stroke="transparent" stroke-dasharray="0" stroke-width="0.5" x="-228.36" y="-517.72" width="61.93" height="61.93" />
<text id="edge-kcore1-b-3-1-text" y="-486.76" transform="rotate(-30 -197.39 -486.76)" style="text-anchor:start;dominant-baseline:baseline;font-family:Arial;font-size:12px;fill:#FF0000">
<tspan x="-197.39" dy="0"> 1 4 5 12 23 26  34 35 36</tspan>
</text>
<rect id="fat-kcore1-a-1-rect" style="fill:#00008B;fill-opacity:0.11" stroke="transparent" stroke-dasharray="0" stroke-width="0.5" x="-725.38" y="56.08" width="26.53" height="26.54" />
<text id="fat-kcore1-a-1-text" y="69.35" style="text-anchor:middle;dominant-baseline:middle;font-family:Arial;font-size:12px;fill:#00008B">
<tspan x="-712.12" dy="0"> 5</tspan>
</text>
<rect id="fat-kcore1-b-1-rect" style="fill:#FF0000;fill-opacity:0.11" stroke="transparent" stroke-dasharray="0" stroke-width="0.5" x="-725.38" y="-108.26" width="52.1799999999999" height="52.18" />
<text id="fat-kcore1-b-1-text" y="-82.17" style="text-anchor:start;dominant-baseline:baseline;font-family:Arial;font-size:12px;fill:#FF0000">
<tspan x="-699.29" dy="0"> 6 10 </tspan>
<tspan x="-699.29" dy="16.8"> 18 21 </tspan>
<tspan x="-699.29" dy="16.8"> 33 40</tspan>
</text>
<rect id="edge-kcore1-b-6-1-rect" style="fill:#FF0000;fill-opacity:0.11" stroke="transparent" stroke-dasharray="0" stroke-width="0.5" x="845.23" y="99.72" width="39.49" height="39.49" />
<text id="edge-kcore1-b-6-1-text" y="119.47" style="text-anchor:start;dominant-baseline:baseline;font-family:Arial;font-size:12px;fill:#FF0000">
<tspan x="864.97" dy="0"> 9 16  37</tspan>
</text>
<rect id="specialist-chains-kcore1-a-1-1-rect" style="fill:#00008B;fill-opacity:0.2" stroke="transparent" stroke-dasharray="0" stroke-width="0.5" x="809.84" y="-502.96" width="35.39" height="35.38" />
<text id="specialist-chains-kcore1-a-1-1-text" y="-485.27" style="text-anchor:middle;dominant-baseline:middle;font-family:Arial;font-size:12px;fill:#00008B">
<tspan x="827.54" dy="0"> 1</tspan>
</text>
<rect id="specialist-chains-kcore1-b-2-1-rect" style="fill:#FF0000;fill-opacity:0.2" stroke="transparent" stroke-dasharray="0" stroke-width="0.5" x="880.61" y="-502.96" width="35.39" height="35.38" />
<text id="specialist-chains-kcore1-b-2-1-text" y="-485.27" style="text-anchor:middle;dominant-baseline:middle;font-family:Arial;font-size:12px;fill:#FF0000">
<tspan x="898.31" dy="0"> 31</tspan>
</text>
<rect id="annotation-1-rect" style="fill:none;fill-opacity:0.5" stroke="transparent" stroke-dasharray="0" stroke-width="0.5" x="884.62" y="-0.04" width="0.0399999999999636" height="0.04" />
<text id="annotation-1-text" y="-0.02" style="text-anchor:middle;dominant-baseline:middle;font-family:Arial;font-size:10.5px;fill:transparent">
</text>
<text id="annotation-1-text" y="0" style="text-anchor:middle;dominant-baseline:middle;font-family:Arial;font-size:3px;fill:red">
<tspan x="884.62" dy="0">.</tspan>
</text>
<text id="annotation-1-text" y="0" style="text-anchor:middle;dominant-baseline:middle;font-family:Arial;font-size:3px;fill:red">
<tspan x="-460" dy="0">.</tspan>
</text>
<g id="link-1-segment" fill="none" stroke="#888888" stroke-dasharray="0" stroke-width="0.3" stroke-opacity="0.5">
<path d="M-698.85 69.35 L-194.62 108.98"/>
</g>
<g id="link-2-segment" fill="none" stroke="#888888" stroke-dasharray="0" stroke-width="0.3" stroke-opacity="0.5">
<path d="M-673.2 -82.17 L-194.62 -108.98"/>
</g>
<g id="link-3-segment" fill="none" stroke="#888888" stroke-dasharray="0" stroke-width="0.3" stroke-opacity="0.5">
<path d="M-156.4 -62.28 L-167.32 62.28"/>
</g>
<g id="link-4-segment" fill="none" stroke="#888888" stroke-dasharray="0" stroke-width="0.3" stroke-opacity="0.5">
<path d="M-156.4 -62.28 L-106.66 62.28"/>
</g>
<g id="link-5-segment" fill="none" stroke="#888888" stroke-dasharray="0" stroke-width="0.3" stroke-opacity="0.5">
<path d="M-156.4 -62.28 L-46 62.28"/>
</g>
<g id="link-6-segment" fill="none" stroke="#888888" stroke-dasharray="0" stroke-width="0.3" stroke-opacity="0.5">
<path d="M-156.4 -62.28 L14.66 62.28"/>
</g>
<g id="link-7-segment" fill="none" stroke="#888888" stroke-dasharray="0" stroke-width="0.3" stroke-opacity="0.5">
<path d="M-156.4 -62.28 L135.98 62.28"/>
</g>
<g id="link-8-segment" fill="none" stroke="#888888" stroke-dasharray="0" stroke-width="0.3" stroke-opacity="0.5">
<path d="M-71.48 -62.28 L-167.32 62.28"/>
</g>
<g id="link-9-segment" fill="none" stroke="#888888" stroke-dasharray="0" stroke-width="0.3" stroke-opacity="0.5">
<path d="M-71.48 -62.28 L-106.66 62.28"/>
</g>
<g id="link-10-segment" fill="none" stroke="#888888" stroke-dasharray="0" stroke-width="0.3" stroke-opacity="0.5">
<path d="M-71.48 -62.28 L-46 62.28"/>
</g>
<g id="link-11-segment" fill="none" stroke="#888888" stroke-dasharray="0" stroke-width="0.3" stroke-opacity="0.5">
<path d="M-71.48 -62.28 L14.66 62.28"/>
</g>
<g id="link-12-segment" fill="none" stroke="#888888" stroke-dasharray="0" stroke-width="0.3" stroke-opacity="0.5">
<path d="M-71.48 -62.28 L75.32 62.28"/>
</g>
<g id="link-13-segment" fill="none" stroke="#888888" stroke-dasharray="0" stroke-width="0.3" stroke-opacity="0.5">
<path d="M-71.48 -62.28 L135.98 62.28"/>
</g>
<g id="link-14-segment" fill="none" stroke="#888888" stroke-dasharray="0" stroke-width="0.3" stroke-opacity="0.5">
<path d="M-71.48 -62.28 L196.64 62.28"/>
</g>
<g id="link-15-segment" fill="none" stroke="#888888" stroke-dasharray="0" stroke-width="0.3" stroke-opacity="0.5">
<path d="M13.45 -62.28 L-167.32 62.28"/>
</g>
<g id="link-16-segment" fill="none" stroke="#888888" stroke-dasharray="0" stroke-width="0.3" stroke-opacity="0.5">
<path d="M13.45 -62.28 L-106.66 62.28"/>
</g>
<g id="link-17-segment" fill="none" stroke="#888888" stroke-dasharray="0" stroke-width="0.3" stroke-opacity="0.5">
<path d="M13.45 -62.28 L14.66 62.28"/>
</g>
<g id="link-18-segment" fill="none" stroke="#888888" stroke-dasharray="0" stroke-width="0.3" stroke-opacity="0.5">
<path d="M13.45 -62.28 L75.32 62.28"/>
</g>
<g id="link-19-segment" fill="none" stroke="#888888" stroke-dasharray="0" stroke-width="0.3" stroke-opacity="0.5">
<path d="M13.45 -62.28 L196.64 62.28"/>
</g>
<g id="link-20-segment" fill="none" stroke="#888888" stroke-dasharray="0" stroke-width="0.3" stroke-opacity="0.5">
<path d="M98.37 -62.28 L-167.32 62.28"/>
</g>
<g id="link-21-segment" fill="none" stroke="#888888" stroke-dasharray="0" stroke-width="0.3" stroke-opacity="0.5">
<path d="M98.37 -62.28 L-106.66 62.28"/>
</g>
<g id="link-22-segment" fill="none" stroke="#888888" stroke-dasharray="0" stroke-width="0.3" stroke-opacity="0.5">
<path d="M98.37 -62.28 L196.64 62.28"/>
</g>
<g id="link-23-segment" fill="none" stroke="#888888" stroke-dasharray="0" stroke-width="0.3" stroke-opacity="0.5">
<path d="M183.29 -62.28 L-167.32 62.28"/>
</g>
<g id="link-24-segment" fill="none" stroke="#888888" stroke-dasharray="0" stroke-width="0.3" stroke-opacity="0.5">
<path d="M183.29 -62.28 L-46 62.28"/>
</g>
<g id="link-25-segment" fill="none" stroke="#888888" stroke-dasharray="0" stroke-width="0.3" stroke-opacity="0.5">
<path d="M183.29 -62.28 L75.32 62.28"/>
</g>
<g id="link-26-segment" fill="none" stroke="#888888" stroke-dasharray="0" stroke-width="0.3" stroke-opacity="0.5">
<path d="M183.29 -62.28 L135.98 62.28"/>
</g>
<g id="link-27-segment" fill="none" stroke="#888888" stroke-dasharray="0" stroke-width="0.3" stroke-opacity="0.5">
<path d="M408.87 190.37 L458.66 -547.64"/>
</g>
<g id="link-1-path" fill="none" stroke="#888888" stroke-dasharray="0" stroke-width="0.3" stroke-opacity="0.5">
<path d="M-151.14 -438.73  L-123.42 -413.72 L-95.7 -387.9 L-67.97 -360.44 L-40.25 -330.53 L-12.53 -297.34 L15.2 -260.06 L42.92 -217.86 L70.65 -169.94 L98.37 -116.46"/>
</g>
<g id="link-2-path" fill="none" stroke="#888888" stroke-dasharray="0" stroke-width="0.3" stroke-opacity="0.5">
<path d="M-197.39 -455.79  L-173.97 -430.48 L-150.54 -404.34 L-127.11 -376.54 L-103.69 -346.26 L-80.26 -312.66 L-56.83 -274.91 L-33.41 -232.2 L-9.98 -183.68 L13.45 -129.54"/>
</g>
<g id="link-3-path" fill="none" stroke="#888888" stroke-dasharray="0" stroke-width="0.3" stroke-opacity="0.5">
<path d="M597.54 199.45  L625.06 198.42 L652.58 194.43 L680.1 188.02 L707.62 179.62 L735.14 169.57 L762.66 158.2 L790.19 145.84 L817.71 132.82 L845.23 119.47"/>
</g>
<g id="link-4-path" fill="none" stroke="#888888" stroke-dasharray="0" stroke-width="0.3" stroke-opacity="0.5">
<path d="M-46 137.01  L4.54 146.2 L55.08 154.08 L105.62 159.49 L156.17 162.85 L206.71 165.33 L257.25 168.14 L307.79 172.48 L358.33 179.55 L408.87 190.37"/>
</g>
<g id="link-5-path" fill="none" stroke="#888888" stroke-dasharray="0" stroke-width="0.3" stroke-opacity="0.5">
<path d="M-156.4 -155.69  L-90.39 -244 L-24.38 -301.68 L41.63 -337.11 L107.64 -360.07 L173.65 -380.34 L239.66 -407.7 L305.68 -451.89 L371.69 -516.16 L437.7 -591.2"/>
</g>
<g id="link-6-path" fill="none" stroke="#888888" stroke-dasharray="0" stroke-width="0.3" stroke-opacity="0.5">
<path d="M-156.4 -155.69  L-89.22 -239.58 L-22.05 -294.38 L45.13 -328.04 L112.3 -349.85 L179.48 -369.1 L246.65 -395.1 L313.83 -437.08 L381 -498.14 L448.18 -569.42"/>
</g>
<g id="link-7-path" fill="none" stroke="#888888" stroke-dasharray="0" stroke-width="0.3" stroke-opacity="0.5">
<path d="M-156.4 -155.69  L-88.06 -235.17 L-19.72 -287.08 L48.62 -318.96 L116.96 -339.63 L185.3 -357.87 L253.64 -382.5 L321.98 -422.27 L390.32 -480.12 L458.66 -547.64"/>
</g>
<g id="link-8-path" fill="none" stroke="#888888" stroke-dasharray="0" stroke-width="0.3" stroke-opacity="0.5">
<path d="M-156.4 -155.69  L-86.9 -230.75 L-17.39 -279.78 L52.11 -309.89 L121.62 -329.41 L191.12 -346.64 L260.63 -369.9 L330.13 -407.46 L399.64 -462.09 L469.14 -525.87"/>
</g>
<g id="link-9-path" fill="none" stroke="#888888" stroke-dasharray="0" stroke-width="0.3" stroke-opacity="0.5">
<path d="M-156.4 -155.69  L-85.73 -226.34 L-15.06 -272.48 L55.61 -300.82 L126.28 -319.19 L196.95 -335.41 L267.61 -357.3 L338.28 -392.65 L408.95 -444.07 L479.62 -504.09"/>
</g>
<g id="link-10-path" fill="none" stroke="#888888" stroke-dasharray="0" stroke-width="0.3" stroke-opacity="0.5">
<path d="M-156.4 -155.69  L-84.57 -221.92 L-12.73 -265.18 L59.1 -291.75 L130.93 -308.97 L202.77 -324.18 L274.6 -344.7 L346.44 -377.84 L418.27 -426.05 L490.1 -482.32"/>
</g>
<g id="link-11-path" fill="none" stroke="#888888" stroke-dasharray="0" stroke-width="0.3" stroke-opacity="0.5">
<path d="M-156.4 -155.69  L-83.4 -217.51 L-10.4 -257.88 L62.59 -282.68 L135.59 -298.75 L208.59 -312.94 L281.59 -332.1 L354.59 -363.03 L427.59 -408.02 L500.58 -460.54"/>
</g>
<g id="link-12-path" fill="none" stroke="#888888" stroke-dasharray="0" stroke-width="0.3" stroke-opacity="0.5">
<path d="M-156.4 -155.69  L-82.24 -213.09 L-8.07 -250.58 L66.09 -273.61 L140.25 -288.53 L214.41 -301.71 L288.58 -319.5 L362.74 -348.22 L436.9 -390 L511.07 -438.77"/>
</g>
<g id="link-13-path" fill="none" stroke="#888888" stroke-dasharray="0" stroke-width="0.3" stroke-opacity="0.5">
<path d="M-156.4 -155.69  L-81.07 -208.67 L-5.75 -243.28 L69.58 -264.54 L144.91 -278.32 L220.24 -290.48 L295.56 -306.9 L370.89 -333.41 L446.22 -371.98 L521.55 -416.99"/>
</g>
<g id="link-14-path" fill="none" stroke="#888888" stroke-dasharray="0" stroke-width="0.3" stroke-opacity="0.5">
<path d="M-156.4 -155.69  L-79.91 -204.26 L-3.42 -235.98 L73.08 -255.47 L149.57 -268.1 L226.06 -279.25 L302.55 -294.3 L379.04 -318.6 L455.54 -353.95 L532.03 -395.22"/>
</g>
<g id="link-15-path" fill="none" stroke="#888888" stroke-dasharray="0" stroke-width="0.3" stroke-opacity="0.5">
<path d="M-156.4 -155.69  L-78.74 -199.84 L-1.09 -228.68 L76.57 -246.4 L154.23 -257.88 L231.88 -268.01 L309.54 -281.7 L387.2 -303.79 L464.85 -335.93 L542.51 -373.44"/>
</g>
<g id="link-16-path" fill="none" stroke="#888888" stroke-dasharray="0" stroke-width="0.3" stroke-opacity="0.5">
<path d="M-156.4 -155.69  L-77.58 -195.43 L1.24 -221.39 L80.06 -237.33 L158.88 -247.66 L237.71 -256.78 L316.53 -269.1 L395.35 -288.98 L474.17 -317.9 L552.99 -351.67"/>
</g>
<g id="link-17-path" fill="none" stroke="#888888" stroke-dasharray="0" stroke-width="0.3" stroke-opacity="0.5">
<path d="M-71.48 -142.61  L-13.74 -229.15 L44 -285.68 L101.74 -320.4 L159.48 -342.91 L217.22 -362.77 L274.96 -389.59 L332.7 -432.9 L390.44 -495.89 L448.18 -569.42"/>
</g>
<g id="link-18-path" fill="none" stroke="#888888" stroke-dasharray="0" stroke-width="0.3" stroke-opacity="0.5">
<path d="M-71.48 -142.61  L-10.24 -215.91 L50.99 -263.79 L112.22 -293.19 L173.46 -312.25 L234.69 -329.08 L295.92 -351.79 L357.16 -388.47 L418.39 -441.82 L479.62 -504.09"/>
</g>
<g id="link-19-path" fill="none" stroke="#888888" stroke-dasharray="0" stroke-width="0.3" stroke-opacity="0.5">
<path d="M-71.48 -142.61  L-9.08 -211.49 L53.32 -256.49 L115.72 -284.12 L178.11 -302.03 L240.51 -317.84 L302.91 -339.19 L365.31 -373.66 L427.71 -423.79 L490.1 -482.32"/>
</g>
<g id="link-20-path" fill="none" stroke="#888888" stroke-dasharray="0" stroke-width="0.3" stroke-opacity="0.5">
<path d="M-71.48 -142.61  L-7.91 -207.08 L55.65 -249.19 L119.21 -275.05 L182.77 -291.81 L246.33 -306.61 L309.9 -326.59 L373.46 -358.85 L437.02 -405.77 L500.58 -460.54"/>
</g>
<g id="link-21-path" fill="none" stroke="#888888" stroke-dasharray="0" stroke-width="0.3" stroke-opacity="0.5">
<path d="M-71.48 -142.61  L-6.75 -202.66 L57.98 -241.89 L122.7 -265.98 L187.43 -281.59 L252.16 -295.38 L316.88 -313.99 L381.61 -344.04 L446.34 -387.75 L511.07 -438.77"/>
</g>
<g id="link-22-path" fill="none" stroke="#888888" stroke-dasharray="0" stroke-width="0.3" stroke-opacity="0.5">
<path d="M-71.48 -142.61  L-5.59 -198.25 L60.31 -234.59 L126.2 -256.91 L192.09 -271.38 L257.98 -284.15 L323.87 -301.39 L389.76 -329.23 L455.66 -369.72 L521.55 -416.99"/>
</g>
<g id="link-23-path" fill="none" stroke="#888888" stroke-dasharray="0" stroke-width="0.3" stroke-opacity="0.5">
<path d="M-71.48 -142.61  L-4.42 -193.83 L62.64 -227.29 L129.69 -247.84 L196.75 -261.16 L263.8 -272.91 L330.86 -288.79 L397.92 -314.42 L464.97 -351.7 L532.03 -395.22"/>
</g>
<g id="link-24-path" fill="none" stroke="#888888" stroke-dasharray="0" stroke-width="0.3" stroke-opacity="0.5">
<path d="M-71.48 -142.61  L-3.26 -189.42 L64.96 -219.99 L133.19 -238.77 L201.41 -250.94 L269.63 -261.68 L337.85 -276.19 L406.07 -299.61 L474.29 -333.67 L542.51 -373.44"/>
</g>
<g id="link-25-path" fill="none" stroke="#888888" stroke-dasharray="0" stroke-width="0.3" stroke-opacity="0.5">
<path d="M-71.48 -142.61  L-2.09 -185 L67.29 -212.69 L136.68 -229.7 L206.06 -240.72 L275.45 -250.45 L344.83 -263.59 L414.22 -284.8 L483.61 -315.65 L552.99 -351.67"/>
</g>
<g id="link-26-path" fill="none" stroke="#888888" stroke-dasharray="0" stroke-width="0.3" stroke-opacity="0.5">
<path d="M13.45 -129.54  L60.59 -223.14 L107.72 -284.29 L154.86 -321.85 L202 -346.18 L249.14 -367.67 L296.28 -396.68 L343.42 -443.53 L390.56 -511.66 L437.7 -591.2"/>
</g>
<g id="link-27-path" fill="none" stroke="#888888" stroke-dasharray="0" stroke-width="0.3" stroke-opacity="0.5">
<path d="M13.45 -129.54  L62.91 -214.31 L112.38 -269.69 L161.85 -303.7 L211.32 -325.75 L260.79 -345.21 L310.25 -371.48 L359.72 -413.91 L409.19 -475.61 L458.66 -547.64"/>
</g>
<g id="link-28-path" fill="none" stroke="#888888" stroke-dasharray="0" stroke-width="0.3" stroke-opacity="0.5">
<path d="M13.45 -129.54  L64.08 -209.9 L114.71 -262.39 L165.34 -294.63 L215.98 -315.53 L266.61 -333.98 L317.24 -358.88 L367.87 -399.1 L418.51 -457.59 L469.14 -525.87"/>
</g>
<g id="link-29-path" fill="none" stroke="#888888" stroke-dasharray="0" stroke-width="0.3" stroke-opacity="0.5">
<path d="M618.5 -534.94  L639.76 -534.31 L661.02 -531.83 L682.28 -527.84 L703.54 -522.63 L724.8 -516.39 L746.06 -509.33 L767.32 -501.65 L788.58 -493.56 L809.84 -485.27"/>
</g>
<g id="link-30-path" fill="none" stroke="#888888" stroke-dasharray="0" stroke-width="0.3" stroke-opacity="0.5">
<path d="M845.23 -485.27  L849.16 -485.27 L853.09 -485.27 L857.02 -485.27 L860.95 -485.27 L864.89 -485.27 L868.82 -485.27 L872.75 -485.27 L876.68 -485.27 L880.61 -485.27"/>
</g>
</svg>