<svg xmlns="http://www.w3.org/2000/svg" viewBox="-400 -480 940 940">
<rect id="zigguratkcore2-a-1-rect" style="fill:#00008B;fill-opacity:0.2" stroke="transparent" stroke-dasharray="0" stroke-width="0.5" x="-193.76" y="-112.18" width="29.37" height="67.31" />
<rect id="zigguratkcore2-a-2-rect" style="fill:#4169E1;fill-opacity:0.2" stroke="transparent" stroke-dasharray="0" stroke-width="0.5" x="-161.13" y="-107.46" width="29.37" height="62.59" />
<rect id="zigguratkcore2-a-3-rect" style="fill:#00008B;fill-opacity:0.2" stroke="transparent" stroke-dasharray="0" stroke-width="0.5" x="-128.49" y="-102.75" width="29.37" height="57.88" />
<rect id="zigguratkcore2-a-4-rect" style="fill:#4169E1;fill-opacity:0.2" stroke="transparent" stroke-dasharray="0" stroke-width="0.5" x="-95.86" y="-98.04" width="29.37" height="53.17" />
<rect id="zigguratkcore2-a-5-rect" style="fill:#00008B;fill-opacity:0.2" stroke="transparent" stroke-dasharray="0" stroke-width="0.5" x="-63.23" y="-93.33" width="29.37" height="48.46" />
<rect id="zigguratkcore2-a-6-rect" style="fill:#4169E1;fill-opacity:0.2" stroke="transparent" stroke-dasharray="0" stroke-width="0.5" x="-30.59" y="-88.62" width="29.37" height="43.75" />
<rect id="zigguratkcore2-a-7-rect" style="fill:#00008B;fill-opacity:0.2" stroke="transparent" stroke-dasharray="0" stroke-width="0.5" x="2.04" y="-83.91" width="29.37" height="39.04" />
<rect id="zigguratkcore2-a-8-rect" style="fill:#4169E1;fill-opacity:0.2" stroke="transparent" stroke-dasharray="0" stroke-width="0.5" x="34.67" y="-79.2" width="29.37" height="34.33" />
<rect id="zigguratkcore2-a-9-rect" style="fill:#00008B;fill-opacity:0.2" stroke="transparent" stroke-dasharray="0" stroke-width="0.5" x="67.31" y="-74.48" width="29.37" height="29.61" />
<rect id="zigguratkcore2-a-10-rect" style="fill:#4169E1;fill-opacity:0.2" stroke="transparent" stroke-dasharray="0" stroke-width="0.5" x="99.94" y="-69.77" width="29.37" height="24.9" />
<text id="zigguratkcore2-a-1-text" y="-78.52" style="text-anchor:middle;dominant-baseline:middle;font-family:Arial;font-size:15px;fill:#00008B">
<tspan x="-179.07" dy="0">22</tspan>
</text>
<text id="zigguratkcore2-a-2-text" y="-76.17" style="text-anchor:middle;dominant-baseline:middle;font-family:Arial;font-size:15px;fill:#00008B">
<tspan x="-146.44" dy="0">15</tspan>
</text>
<text id="zigguratkcore2-a-3-text" y="-73.81" style="text-anchor:middle;dominant-baseline:middle;font-family:Arial;font-size:15px;fill:#00008B">
<tspan x="-113.81" dy="0">18</tspan>
</text>
<text id="zigguratkcore2-a-4-text" y="-71.46" style="text-anchor:middle;dominant-baseline:middle;font-family:Arial;font-size:15px;fill:#00008B">
<tspan x="-81.17" dy="0">21</tspan>
</text>
<text id="zigguratkcore2-a-5-text" y="-69.1" style="text-anchor:middle;dominant-baseline:middle;font-family:Arial;font-size:15px;fill:#00008B">
<tspan x="-48.54" dy="0">1</tspan>
</text>
<text id="zigguratkcore2-a-6-text" y="-66.74" style="text-anchor:middle;dominant-baseline:middle;font-family:Arial;font-size:15px;fill:#00008B">
<tspan x="-15.91" dy="0">4</tspan>
</text>
<text id="zigguratkcore2-a-7-text" y="-64.39" style="text-anchor:middle;dominant-baseline:middle;font-family:Arial;font-size:15px;fill:#00008B">
<tspan x="16.72" dy="0">6</tspan>
</text>
<text id="zigguratkcore2-a-8-text" y="-62.03" style="text-anchor:middle;dominant-baseline:middle;font-family:Arial;font-size:15px;fill:#00008B">
<tspan x="49.36" dy="0">11</tspan>
</text>
<text id="zigguratkcore2-a-9-text" y="-59.68" style="text-anchor:middle;dominant-baseline:middle;font-family:Arial;font-size:15px;fill:#00008B">
<tspan x="81.99" dy="0">28</tspan>
</text>
<text id="zigguratkcore2-a-10-text" y="-57.32" style="text-anchor:middle;dominant-baseline:middle;font-family:Arial;font-size:15px;fill:#00008B">
<tspan x="114.62" dy="0">27</tspan>
</text>
<rect id="zigguratkcore2-b-1-rect" style="fill:#FF0000;fill-opacity:0.2" stroke="transparent" stroke-dasharray="0" stroke-width="0.5" x="-193.76" y="44.87" width="36.71" height="67.31" />
<rect id="zigguratkcore2-b-2-rect" style="fill:#F08080;fill-opacity:0.2" stroke="transparent" stroke-dasharray="0" stroke-width="0.5" x="-152.97" y="44.87" width="36.72" height="61.42" />
<rect id="zigguratkcore2-b-3-rect" style="fill:#FF0000;fill-opacity:0.2" stroke="transparent" stroke-dasharray="0" stroke-width="0.5" x="-112.18" y="44.87" width="36.72" height="55.53" />
<rect id="zigguratkcore2-b-4-rect" style="fill:#F08080;fill-opacity:0.2" stroke="transparent" stroke-dasharray="0" stroke-width="0.5" x="-71.38" y="44.87" width="36.71" height="49.64" />
<rect id="zigguratkcore2-b-5-rect" style="fill:#FF0000;fill-opacity:0.2" stroke="transparent" stroke-dasharray="0" stroke-width="0.5" x="-30.59" y="44.87" width="36.71" height="43.75" />
<rect id="zigguratkcore2-b-6-rect" style="fill:#F08080;fill-opacity:0.2" stroke="transparent" stroke-dasharray="0" stroke-width="0.5" x="10.2" y="44.87" width="36.71" height="37.86" />
<rect id="zigguratkcore2-b-7-rect" style="fill:#FF0000;fill-opacity:0.2" stroke="transparent" stroke-dasharray="0" stroke-width="0.5" x="50.99" y="44.87" width="36.71" height="31.97" />
<rect id="zigguratkcore2-b-8-rect" style="fill:#F08080;fill-opacity:0.2" stroke="transparent" stroke-dasharray="0" stroke-width="0.5" x="91.78" y="44.87" width="36.71" height="26.08" />
<text id="zigguratkcore2-b-1-text" y="78.52" style="text-anchor:middle;dominant-baseline:middle;font-family:Arial;font-size:15px;fill:#FF0000">
<tspan x="-175.4" dy="0">4</tspan>
</text>
<text id="zigguratkcore2-b-2-text" y="75.58" style="text-anchor:middle;dominant-baseline:middle;font-family:Arial;font-size:15px;fill:#FF0000">
<tspan x="-134.61" dy="0">9</tspan>
</text>
<text id="zigguratkcore2-b-3-text" y="72.63" style="text-anchor:middle;dominant-baseline:middle;font-family:Arial;font-size:15px;fill:#FF0000">
<tspan x="-93.82" dy="0">22</tspan>
</text>
<text id="zigguratkcore2-b-4-text" y="69.69" style="text-anchor:middle;dominant-baseline:middle;font-family:Arial;font-size:15px;fill:#FF0000">
<tspan x="-53.03" dy="0">11</tspan>
</text>
<text id="zigguratkcore2-b-5-text" y="66.74" style="text-anchor:middle;dominant-baseline:middle;font-family:Arial;font-size:15px;fill:#FF0000">
<tspan x="-12.24" dy="0">6</tspan>
</text>
<text id="zigguratkcore2-b-6-text" y="63.8" style="text-anchor:middle;dominant-baseline:middle;font-family:Arial;font-size:15px;fill:#FF0000">
<tspan x="28.55" dy="0">5</tspan>
</text>
<text id="zigguratkcore2-b-7-text" y="60.86" style="text-anchor:middle;dominant-baseline:middle;font-family:Arial;font-size:15px;fill:#FF0000">
<tspan x="69.35" dy="0">1</tspan>
</text>
<text id="zigguratkcore2-b-8-text" y="57.91" style="text-anchor:middle;dominant-baseline:middle;font-family:Arial;font-size:15px;fill:#FF0000">
<tspan x="110.14" dy="0">14</tspan>
</text>
<rect id="zigguratkcore2-1-rect" style="fill:none;fill-opacity:0.3" stroke="#8B4C39" stroke-dasharray="1 1" stroke-width="0" x="-218.97" y="-127.86" width="356.68" height="247.88" />
<text id="zigguratkcore2-1-text" y="-3.92" style="text-anchor:middle;dominant-baseline:middle;font-family:Arial;font-size:10.5px;fill:transparent">
</text>
<text id="zigguratkcore2-1-text" y="0" transform="rotate(-90 -205.52 0)" style="text-anchor:start;dominant-baseline:middle;font-family:Arial;font-size:15px;fill:#8B4C39">
<tspan x="-205.52" dy="0">2-shell</tspan>
</text>
<rect id="zigguratedge-kcore1-a-tail-6-1-rect" style="fill:#00008B;fill-opacity:0.11" stroke="transparent" stroke-dasharray="0" stroke-width="0.5" x="252.88" y="128.84" width="10.73" height="10.73" />
<text id="zigguratedge-kcore1-a-tail-6-1-text" y="134.2" style="text-anchor:start;dominant-baseline:middle;font-family:Arial;font-size:12px;fill:#00008B">
<tspan x="258.25" dy="0"> 13  26</tspan>
</text>
<rect id="zigguratedge-kcore1-a-tail-11-1-rect" style="fill:#00008B;fill-opacity:0.11" stroke="transparent" stroke-dasharray="0" stroke-width="0.5" x="252.88" y="166.27" width="8.41000000000003" height="8.39999999999998" />
<text id="zigguratedge-kcore1-a-tail-11-1-text" y="170.47" style="text-anchor:middle;dominant-baseline:middle;font-family:Arial;font-size:12px;fill:#00008B">
<tspan x="257.09" dy="0"> 19</tspan>
</text>
<rect id="zigguratedge-kcore1-a-tail-9-1-rect" style="fill:#00008B;fill-opacity:0.11" stroke="transparent" stroke-dasharray="0" stroke-width="0.5" x="252.88" y="200.45" width="12.51" height="12.5" />
<text id="zigguratedge-kcore1-a-tail-9-1-text" y="206.7" style="text-anchor:start;dominant-baseline:middle;font-family:Arial;font-size:12px;fill:#00008B">
<tspan x="259.14" dy="0"> 20 31  32</tspan>
</text>
<rect id="zigguratedge-kcore1-a-tail-4-1-rect" style="fill:#00008B;fill-opacity:0.11" stroke="transparent" stroke-dasharray="0" stroke-width="0.5" x="252.88" y="240.37" width="8.41000000000003" height="8.40000000000001" />
<text id="zigguratedge-kcore1-a-tail-4-1-text" y="244.57" style="text-anchor:middle;dominant-baseline:middle;font-family:Arial;font-size:12px;fill:#00008B">
<tspan x="257.09" dy="0"> 5</tspan>
</text>
<rect id="zigguratedge-kcore1-b-tail-15-1-rect" style="fill:#FF0000;fill-opacity:0.11" stroke="transparent" stroke-dasharray="0" stroke-width="0.5" x="253.7" y="-214.39" width="12.51" height="12.51" />
<text id="zigguratedge-kcore1-b-tail-15-1-text" y="-208.14" style="text-anchor:start;dominant-baseline:middle;font-family:Arial;font-size:12px;fill:#FF0000">
<tspan x="259.95" dy="0"> 13 20  21</tspan>
</text>
<rect id="zigguratedge-kcore1-b-tail-22-1-rect" style="fill:#FF0000;fill-opacity:0.11" stroke="transparent" stroke-dasharray="0" stroke-width="0.5" x="253.7" y="-263.74" width="10.72" height="10.73" />
<text id="zigguratedge-kcore1-b-tail-22-1-text" y="-258.37" style="text-anchor:start;dominant-baseline:middle;font-family:Arial;font-size:12px;fill:#FF0000">
<tspan x="259.06" dy="0"> 3  16</tspan>
</text>
<rect id="zigguratedge-kcore1-a-1-1-rect" style="fill:#00008B;fill-opacity:0.2" stroke="transparent" stroke-dasharray="0" stroke-width="0.5" x="-294.62" y="175.68" width="11.21" height="11.2" />
<text id="zigguratedge-kcore1-a-1-1-text" y="181.28" style="text-anchor:middle;dominant-baseline:middle;font-family:Arial;font-size:12px;fill:#00008B">
<tspan x="-289.01" dy="0"> 30</tspan>
</text>
<rect id="zigguratedge-kcore1-a-2-1-rect" style="fill:#00008B;fill-opacity:0.2" stroke="transparent" stroke-dasharray="0" stroke-width="0.5" x="-216.17" y="266.45" width="11.21" height="11.21" />
<text id="zigguratedge-kcore1-a-2-1-text" y="272.05" style="text-anchor:middle;dominant-baseline:middle;font-family:Arial;font-size:12px;fill:#00008B">
<tspan x="-210.57" dy="0"> 25</tspan>
</text>
<rect id="zigguratedge-kcore1-a-3-1-rect" style="fill:#00008B;fill-opacity:0.2" stroke="transparent" stroke-dasharray="0" stroke-width="0.5" x="-160.14" y="261.41" width="11.21" height="11.2" />
<text id="zigguratedge-kcore1-a-3-1-text" y="267.01" style="text-anchor:middle;dominant-baseline:middle;font-family:Arial;font-size:12px;fill:#00008B">
<tspan x="-154.54" dy="0"> 16</tspan>
</text>
<rect id="zigguratedge-kcore1-a-4-1-rect" style="fill:#00008B;fill-opacity:0.2" stroke="transparent" stroke-dasharray="0" stroke-width="0.5" x="-115.31" y="289.98" width="11.2" height="11.21" />
<text id="zigguratedge-kcore1-a-4-1-text" y="295.59" style="text-anchor:middle;dominant-baseline:middle;font-family:Arial;font-size:12px;fill:#00008B">
<tspan x="-109.71" dy="0"> 10</tspan>
</text>
<rect id="zigguratedge-kcore1-b-5-1-rect" style="fill:#FF0000;fill-opacity:0.2" stroke="transparent" stroke-dasharray="0" stroke-width="0.5" x="-294.62" y="-198.09" width="11.21" height="11.21" />
<text id="zigguratedge-kcore1-b-5-1-text" y="-192.49" style="text-anchor:middle;dominant-baseline:middle;font-family:Arial;font-size:12px;fill:#FF0000">
<tspan x="-289.01" dy="0"> 8</tspan>
</text>
<rect id="zigguratedge-kcore1-b-6-1-rect" style="fill:#FF0000;fill-opacity:0.2" stroke="transparent" stroke-dasharray="0" stroke-width="0.5" x="-216.17" y="-335.93" width="11.21" height="11.21" />
<text id="zigguratedge-kcore1-b-6-1-text" y="-330.33" style="text-anchor:middle;dominant-baseline:middle;font-family:Arial;font-size:12px;fill:#FF0000">
<tspan x="-210.57" dy="0"> 28</tspan>
</text>
<rect id="zigguratedge-kcore1-b-7-1-rect" style="fill:#FF0000;fill-opacity:0.2" stroke="transparent" stroke-dasharray="0" stroke-width="0.5" x="-182.55" y="-398.13" width="11.2" height="11.21" />
<text id="zigguratedge-kcore1-b-7-1-text" y="-392.52" style="text-anchor:middle;dominant-baseline:middle;font-family:Arial;font-size:12px;fill:#FF0000">
<tspan x="-176.95" dy="0"> 24</tspan>
</text>
<rect id="zigguratedge-kcore1-b-8-1-rect" style="fill:#FF0000;fill-opacity:0.2" stroke="transparent" stroke-dasharray="0" stroke-width="0.5" x="-115.31" y="-359.46" width="11.2" height="11.2" />
<text id="zigguratedge-kcore1-b-8-1-text" y="-353.86" style="text-anchor:middle;dominant-baseline:middle;font-family:Arial;font-size:12px;fill:#FF0000">
<tspan x="-109.71" dy="0"> 18</tspan>
</text>
<rect id="zigguratedge-kcore1-b-9-1-rect" style="fill:#FF0000;fill-opacity:0.2" stroke="transparent" stroke-dasharray="0" stroke-width="0.5" x="-346.16" y="192.49" width="11.2" height="11.2" />
<text id="zigguratedge-kcore1-b-9-1-text" y="198.09" style="text-anchor:middle;dominant-baseline:middle;font-family:Arial;font-size:12px;fill:#FF0000">
<tspan x="-340.56" dy="0"> 17</tspan>
</text>
<rect id="zigguratedge-kcore1-b-10-1-rect" style="fill:#FF0000;fill-opacity:0.2" stroke="transparent" stroke-dasharray="0" stroke-width="0.5" x="-346.53" y="221.99" width="11.21" height="11.2" />
<text id="zigguratedge-kcore1-b-10-1-text" y="227.59" style="text-anchor:middle;dominant-baseline:middle;font-family:Arial;font-size:12px;fill:#FF0000">
<tspan x="-340.93" dy="0"> 10</tspan>
</text>
<rect id="zigguratedge-kcore1-b-11-1-rect" style="fill:#FF0000;fill-opacity:0.2" stroke="transparent" stroke-dasharray="0" stroke-width="0.5" x="-346.87" y="252.18" width="11.2" height="11.21" />
<text id="zigguratedge-kcore1-b-11-1-text" y="257.78" style="text-anchor:middle;dominant-baseline:middle;font-family:Arial;font-size:12px;fill:#FF0000">
<tspan x="-341.27" dy="0"> 2</tspan>
</text>
<rect id="zigguratedge-kcore1-b-12-1-rect" style="fill:#FF0000;fill-opacity:0.2" stroke="transparent" stroke-dasharray="0" stroke-width="0.5" x="-268.76" y="283.26" width="11.21" height="11.21" />
<text id="zigguratedge-kcore1-b-12-1-text" y="288.86" style="text-anchor:middle;dominant-baseline:middle;font-family:Arial;font-size:12px;fill:#FF0000">
<tspan x="-263.16" dy="0"> 25</tspan>
</text>
<rect id="zigguratedge-kcore1-b-13-1-rect" style="fill:#FF0000;fill-opacity:0.2" stroke="transparent" stroke-dasharray="0" stroke-width="0.5" x="-213.05" y="278.22" width="11.21" height="11.2" />
<text id="zigguratedge-kcore1-b-13-1-text" y="283.82" style="text-anchor:middle;dominant-baseline:middle;font-family:Arial;font-size:12px;fill:#FF0000">
<tspan x="-207.44" dy="0"> 7</tspan>
</text>
<rect id="zigguratedge-kcore1-b-14-1-rect" style="fill:#FF0000;fill-opacity:0.2" stroke="transparent" stroke-dasharray="0" stroke-width="0.5" x="-168.53" y="306.79" width="11.21" height="11.21" />
<text id="zigguratedge-kcore1-b-14-1-text" y="312.4" style="text-anchor:middle;dominant-baseline:middle;font-family:Arial;font-size:12px;fill:#FF0000">
<tspan x="-162.92" dy="0"> 29</tspan>
</text>
<rect id="zigguratedge-kcore1-a-15-1-rect" style="fill:#00008B;fill-opacity:0.2" stroke="transparent" stroke-dasharray="0" stroke-width="0.5" x="-348.12" y="-214.9" width="11.2" height="11.21" />
<text id="zigguratedge-kcore1-a-15-1-text" y="-209.3" style="text-anchor:middle;dominant-baseline:middle;font-family:Arial;font-size:12px;fill:#00008B">
<tspan x="-342.52" dy="0"> 17</tspan>
</text>
<rect id="zigguratedge-kcore1-a-16-1-rect" style="fill:#00008B;fill-opacity:0.2" stroke="transparent" stroke-dasharray="0" stroke-width="0.5" x="-269.96" y="-352.74" width="11.2" height="11.21" />
<text id="zigguratedge-kcore1-a-16-1-text" y="-347.14" style="text-anchor:middle;dominant-baseline:middle;font-family:Arial;font-size:12px;fill:#00008B">
<tspan x="-264.36" dy="0"> 14</tspan>
</text>
<rect id="zigguratedge-kcore1-a-17-1-rect" style="fill:#00008B;fill-opacity:0.2" stroke="transparent" stroke-dasharray="0" stroke-width="0.5" x="-302.38" y="283.26" width="11.21" height="11.21" />
<text id="zigguratedge-kcore1-a-17-1-text" y="288.86" style="text-anchor:middle;dominant-baseline:middle;font-family:Arial;font-size:12px;fill:#00008B">
<tspan x="-296.78" dy="0"> 9</tspan>
</text>
<rect id="zigguratedge-kcore1-a-18-1-rect" style="fill:#00008B;fill-opacity:0.2" stroke="transparent" stroke-dasharray="0" stroke-width="0.5" x="-302.38" y="305.67" width="11.21" height="11.21" />
<text id="zigguratedge-kcore1-a-18-1-text" y="311.28" style="text-anchor:middle;dominant-baseline:middle;font-family:Arial;font-size:12px;fill:#00008B">
<tspan x="-296.78" dy="0"> 2</tspan>
</text>
<rect id="zigguratedge-kcore1-a-19-1-rect" style="fill:#00008B;fill-opacity:0.2" stroke="transparent" stroke-dasharray="0" stroke-width="0.5" x="-237.15" y="-414.93" width="11.21" height="11.2" />
<text id="zigguratedge-kcore1-a-19-1-text" y="-409.33" style="text-anchor:middle;dominant-baseline:middle;font-family:Arial;font-size:12px;fill:#00008B">
<tspan x="-231.54" dy="0"> 24</tspan>
</text>
<rect id="zigguratedge-kcore1-a-20-1-rect" style="fill:#00008B;fill-opacity:0.2" stroke="transparent" stroke-dasharray="0" stroke-width="0.5" x="-237.4" y="-447.37" width="11.21" height="11.21" />
<text id="zigguratedge-kcore1-a-20-1-text" y="-441.77" style="text-anchor:middle;dominant-baseline:middle;font-family:Arial;font-size:12px;fill:#00008B">
<tspan x="-231.8" dy="0"> 3</tspan>
</text>
<rect id="zigguratedge-kcore1-a-21-1-rect" style="fill:#00008B;fill-opacity:0.2" stroke="transparent" stroke-dasharray="0" stroke-width="0.5" x="-170.41" y="-376.27" width="11.21" height="11.2" />
<text id="zigguratedge-kcore1-a-21-1-text" y="-370.67" style="text-anchor:middle;dominant-baseline:middle;font-family:Arial;font-size:12px;fill:#00008B">
<tspan x="-164.81" dy="0"> 23</tspan>
</text>
<rect id="zigguratedge-kcore1-b-22-1-rect" style="fill:#FF0000;fill-opacity:0.2" stroke="transparent" stroke-dasharray="0" stroke-width="0.5" x="-271.02" y="-447.37" width="11.21" height="11.21" />
<text id="zigguratedge-kcore1-b-22-1-text" y="-441.77" style="text-anchor:middle;dominant-baseline:middle;font-family:Arial;font-size:12px;fill:#FF0000">
<tspan x="-265.42" dy="0"> 27</tspan>
</text>
<rect id="zigguratedge-kcore1-b-23-1-rect" style="fill:#FF0000;fill-opacity:0.2" stroke="transparent" stroke-dasharray="0" stroke-width="0.5" x="-271.02" y="-469.78" width="11.21" height="11.2" />
<text id="zigguratedge-kcore1-b-23-1-text" y="-464.18" style="text-anchor:middle;dominant-baseline:middle;font-family:Arial;font-size:12px;fill:#FF0000">
<tspan x="-265.42" dy="0"> 26</tspan>
</text>
<rect id="zigguratedge-kcore1-a-out-1-rect" style="fill:#00008B;fill-opacity:0.2" stroke="transparent" stroke-dasharray="0" stroke-width="0.5" x="-22.97" y="346.02" width="11.2" height="11.2" />
<rect id="zigguratedge-kcore1-a-out-2-rect" style="fill:#00008B;fill-opacity:0.2" stroke="transparent" stroke-dasharray="0" stroke-width="0.5" x="5.04" y="346.02" width="11.21" height="11.2" />
<rect id="zigguratedge-kcore1-a-out-3-rect" style="fill:#00008B;fill-opacity:0.2" stroke="transparent" stroke-dasharray="0" stroke-width="0.5" x="33.06" y="346.02" width="11.21" height="11.2" />
<rect id="zigguratedge-kcore1-a-out-4-rect" style="fill:#00008B;fill-opacity:0.2" stroke="transparent" stroke-dasharray="0" stroke-width="0.5" x="61.07" y="346.02" width="11.21" height="11.2" />
<text id="zigguratedge-kcore1-a-out-1-text" y="351.62" style="text-anchor:middle;dominant-baseline:middle;font-family:Arial;font-size:12px;fill:#00008B">
<tspan x="-17.37" dy="0">7</tspan>
</text>
<text id="zigguratedge-kcore1-a-out-2-text" y="351.62" style="text-anchor:middle;dominant-baseline:middle;font-family:Arial;font-size:12px;fill:#00008B">
<tspan x="10.65" dy="0">8</tspan>
</text>
<text id="zigguratedge-kcore1-a-out-3-text" y="351.62" style="text-anchor:middle;dominant-baseline:middle;font-family:Arial;font-size:12px;fill:#00008B">
<tspan x="38.66" dy="0">12</tspan>
</text>
<text id="zigguratedge-kcore1-a-out-4-text" y="351.62" style="text-anchor:middle;dominant-baseline:middle;font-family:Arial;font-size:12px;fill:#00008B">
<tspan x="66.68" dy="0">29</tspan>
</text>
<rect id="zigguratedge-kcore1-b-out-1-rect" style="fill:#FF0000;fill-opacity:0.2" stroke="transparent" stroke-dasharray="0" stroke-width="0.5" x="-22.97" y="379.63" width="11.2" height="11.21" />
<rect id="zigguratedge-kcore1-b-out-2-rect" style="fill:#FF0000;fill-opacity:0.2" stroke="transparent" stroke-dasharray="0" stroke-width="0.5" x="5.04" y="379.63" width="11.21" height="11.21" />
<rect id="zigguratedge-kcore1-b-out-3-rect" style="fill:#FF0000;fill-opacity:0.2" stroke="transparent" stroke-dasharray="0" stroke-width="0.5" x="33.06" y="379.63" width="11.21" height="11.21" />
<rect id="zigguratedge-kcore1-b-out-4-rect" style="fill:#FF0000;fill-opacity:0.2" stroke="transparent" stroke-dasharray="0" stroke-width="0.5" x="61.07" y="379.63" width="11.21" height="11.21" />
<text id="zigguratedge-kcore1-b-out-1-text" y="385.24" style="text-anchor:middle;dominant-baseline:middle;font-family:Arial;font-size:12px;fill:#FF0000">
<tspan x="-17.37" dy="0">12</tspan>
</text>
<text id="zigguratedge-kcore1-b-out-2-text" y="385.24" style="text-anchor:middle;dominant-baseline:middle;font-family:Arial;font-size:12px;fill:#FF0000">
<tspan x="10.65" dy="0">15</tspan>
</text>
<text id="zigguratedge-kcore1-b-out-3-text" y="385.24" style="text-anchor:middle;dominant-baseline:middle;font-family:Arial;font-size:12px;fill:#FF0000">
<tspan x="38.66" dy="0">19</tspan>
</text>
<text id="zigguratedge-kcore1-b-out-4-text" y="385.24" style="text-anchor:middle;dominant-baseline:middle;font-family:Arial;font-size:12px;fill:#FF0000">
<tspan x="66.68" dy="0">23</tspan>
</text>
<text id="zigguratcorelabel-1-text" y="334.81" style="text-anchor:start;dominant-baseline:middle;font-family:Arial;font-size:15px;fill:grey50">
<tspan x="-30.58" dy="0">Outside the giant component</tspan>
</text>
<rect id="zigguratannotation-1-rect" style="fill:none;fill-opacity:0.5" stroke="transparent" stroke-dasharray="0" stroke-width="0.5" x="530.29" y="-0.04" width="0.0400000000000773" height="0.04" />
<text id="zigguratannotation-1-text" y="-0.02" style="text-anchor:middle;dominant-baseline:middle;font-family:Arial;font-size:15px;fill:transparent">
</text>
<text id="zigguratannotation-1-text" y="0" style="text-anchor:middle;dominant-baseline:middle;font-family:Arial;font-size:3px;fill:red">
<tspan x="530.29" dy="0">.</tspan>
</text>
<text id="zigguratannotation-1-text" y="0" style="text-anchor:middle;dominant-baseline:middle;font-family:Arial;font-size:3px;fill:red">
<tspan x="-393.12" dy="0">.</tspan>
</text>
<text id="zigguratannotation-1-text" y="0" style="text-anchor:middle;dominant-baseline:middle;font-family:Arial;font-size:3px;fill:red">
<tspan x="-393.12" dy="0">.</tspan>
</text>
<g id="zigguratlink-1-segment" fill="none" stroke="#888888" stroke-dasharray="0" stroke-width="0.3" stroke-opacity="0.5">
<path d="M-179.07 -44.87 L-175.4 44.87"/>
</g>
<g id="zigguratlink-2-segment" fill="none" stroke="#888888" stroke-dasharray="0" stroke-width="0.3" stroke-opacity="0.5">
<path d="M-179.07 -44.87 L-134.61 44.87"/>
</g>
<g id="zigguratlink-3-segment" fill="none" stroke="#888888" stroke-dasharray="0" stroke-width="0.3" stroke-opacity="0.5">
<path d="M-179.07 -44.87 L-93.82 44.87"/>
</g>
<g id="zigguratlink-4-segment" fill="none" stroke="#888888" stroke-dasharray="0" stroke-width="0.3" stroke-opacity="0.5">
<path d="M-179.07 -44.87 L-12.24 44.87"/>
</g>
<g id="zigguratlink-5-segment" fill="none" stroke="#888888" stroke-dasharray="0" stroke-width="0.3" stroke-opacity="0.5">
<path d="M-179.07 -44.87 L69.35 44.87"/>
</g>
<g id="zigguratlink-6-segment" fill="none" stroke="#888888" stroke-dasharray="0" stroke-width="0.3" stroke-opacity="0.5">
<path d="M-146.44 -44.87 L-175.4 44.87"/>
</g>
<g id="zigguratlink-7-segment" fill="none" stroke="#888888" stroke-dasharray="0" stroke-width="0.3" stroke-opacity="0.5">
<path d="M-146.44 -44.87 L-134.61 44.87"/>
</g>
<g id="zigguratlink-8-segment" fill="none" stroke="#888888" stroke-dasharray="0" stroke-width="0.3" stroke-opacity="0.5">
<path d="M-146.44 -44.87 L-93.82 44.87"/>
</g>
<g id="zigguratlink-9-segment" fill="none" stroke="#888888" stroke-dasharray="0" stroke-width="0.3" stroke-opacity="0.5">
<path d="M-146.44 -44.87 L-53.03 44.87"/>
</g>
<g id="zigguratlink-10-segment" fill="none" stroke="#888888" stroke-dasharray="0" stroke-width="0.3" stroke-opacity="0.5">
<path d="M-113.81 -44.87 L-134.61 44.87"/>
</g>
<g id="zigguratlink-11-segment" fill="none" stroke="#888888" stroke-dasharray="0" stroke-width="0.3" stroke-opacity="0.5">
<path d="M-113.81 -44.87 L-93.82 44.87"/>
</g>
<g id="zigguratlink-12-segment" fill="none" stroke="#888888" stroke-dasharray="0" stroke-width="0.3" stroke-opacity="0.5">
<path d="M-113.81 -44.87 L110.14 44.87"/>
</g>
<g id="zigguratlink-13-segment" fill="none" stroke="#888888" stroke-dasharray="0" stroke-width="0.3" stroke-opacity="0.5">
<path d="M-81.17 -44.87 L-175.4 44.87"/>
</g>
<g id="zigguratlink-14-segment" fill="none" stroke="#888888" stroke-dasharray="0" stroke-width="0.3" stroke-opacity="0.5">
<path d="M-81.17 -44.87 L-134.61 44.87"/>
</g>
<g id="zigguratlink-15-segment" fill="none" stroke="#888888" stroke-dasharray="0" stroke-width="0.3" stroke-opacity="0.5">
<path d="M-81.17 -44.87 L-53.03 44.87"/>
</g>
<g id="zigguratlink-16-segment" fill="none" stroke="#888888" stroke-dasharray="0" stroke-width="0.3" stroke-opacity="0.5">
<path d="M-48.54 -44.87 L-93.82 44.87"/>
</g>
<g id="zigguratlink-17-segment" fill="none" stroke="#888888" stroke-dasharray="0" stroke-width="0.3" stroke-opacity="0.5">
<path d="M-48.54 -44.87 L28.55 44.87"/>
</g>
<g id="zigguratlink-18-segment" fill="none" stroke="#888888" stroke-dasharray="0" stroke-width="0.3" stroke-opacity="0.5">
<path d="M-15.91 -44.87 L-175.4 44.87"/>
</g>
<g id="zigguratlink-19-segment" fill="none" stroke="#888888" stroke-dasharray="0" stroke-width="0.3" stroke-opacity="0.5">
<path d="M-15.91 -44.87 L-53.03 44.87"/>
</g>
<g id="zigguratlink-20-segment" fill="none" stroke="#888888" stroke-dasharray="0" stroke-width="0.3" stroke-opacity="0.5">
<path d="M16.72 -44.87 L-175.4 44.87"/>
</g>
<g id="zigguratlink-21-segment" fill="none" stroke="#888888" stroke-dasharray="0" stroke-width="0.3" stroke-opacity="0.5">
<path d="M16.72 -44.87 L28.55 44.87"/>
</g>
<g id="zigguratlink-22-segment" fill="none" stroke="#888888" stroke-dasharray="0" stroke-width="0.3" stroke-opacity="0.5">
<path d="M49.36 -44.87 L-12.24 44.87"/>
</g>
<g id="zigguratlink-23-segment" fill="none" stroke="#888888" stroke-dasharray="0" stroke-width="0.3" stroke-opacity="0.5">
<path d="M49.36 -44.87 L69.35 44.87"/>
</g>
<g id="zigguratlink-24-segment" fill="none" stroke="#888888" stroke-dasharray="0" stroke-width="0.3" stroke-opacity="0.5">
<path d="M81.99 -44.87 L-12.24 44.87"/>
</g>
<g id="zigguratlink-25-segment" fill="none" stroke="#888888" stroke-dasharray="0" stroke-width="0.3" stroke-opacity="0.5">
<path d="M81.99 -44.87 L110.14 44.87"/>
</g>
<g id="zigguratlink-26-segment" fill="none" stroke="#888888" stroke-dasharray="0" stroke-width="0.3" stroke-opacity="0.5">
<path d="M114.62 -44.87 L-53.03 44.87"/>
</g>
<g id="zigguratlink-27-segment" fill="none" stroke="#888888" stroke-dasharray="0" stroke-width="0.3" stroke-opacity="0.5">
<path d="M114.62 -44.87 L28.55 44.87"/>
</g>
<g id="zigguratlink-28-segment" fill="none" stroke="#888888" stroke-dasharray="0" stroke-width="0.3" stroke-opacity="0.5">
<path d="M-17.37 357.22 L10.65 379.63"/>
</g>
<g id="zigguratlink-29-segment" fill="none" stroke="#888888" stroke-dasharray="0" stroke-width="0.3" stroke-opacity="0.5">
<path d="M10.65 357.22 L-17.37 379.63"/>
</g>
<g id="zigguratlink-30-segment" fill="none" stroke="#888888" stroke-dasharray="0" stroke-width="0.3" stroke-opacity="0.5">
<path d="M38.66 357.22 L66.68 379.63"/>
</g>
<g id="zigguratlink-31-segment" fill="none" stroke="#888888" stroke-dasharray="0" stroke-width="0.3" stroke-opacity="0.5">
<path d="M66.68 357.22 L38.66 379.63"/>
</g>
<g id="zigguratlink-1-path" fill="none" stroke="#888888" stroke-dasharray="0" stroke-width="0.3" stroke-opacity="0.5">
<path d="M6.12 88.62  L33.54 89.2 L60.96 91.48 L88.37 95.13 L115.79 99.92 L143.21 105.65 L170.63 112.13 L198.05 119.17 L225.46 126.59 L252.88 134.2"/>
</g>
<g id="zigguratlink-2-path" fill="none" stroke="#888888" stroke-dasharray="0" stroke-width="0.3" stroke-opacity="0.5">
<path d="M-34.67 94.51  L-2.72 95.48 L29.23 99.27 L61.18 105.36 L93.13 113.34 L125.08 122.88 L157.03 133.68 L188.98 145.42 L220.93 157.79 L252.88 170.47"/>
</g>
<g id="zigguratlink-3-path" fill="none" stroke="#888888" stroke-dasharray="0" stroke-width="0.3" stroke-opacity="0.5">
<path d="M-116.25 106.29  L-75.24 107.57 L-34.22 112.58 L6.79 120.64 L47.81 131.18 L88.82 143.8 L129.84 158.07 L170.85 173.59 L211.87 189.94 L252.88 206.7"/>
</g>
<g id="zigguratlink-4-path" fill="none" stroke="#888888" stroke-dasharray="0" stroke-width="0.3" stroke-opacity="0.5">
<path d="M-157.05 112.18  L-111.5 113.87 L-65.95 120.48 L-20.4 131.1 L25.14 145 L70.69 161.63 L116.24 180.45 L161.79 200.92 L207.34 222.47 L252.88 244.57"/>
</g>
<g id="zigguratlink-5-path" fill="none" stroke="#888888" stroke-dasharray="0" stroke-width="0.3" stroke-opacity="0.5">
<path d="M-131.76 -107.46  L-88.93 -108.75 L-46.1 -113.78 L-3.27 -121.85 L39.56 -132.42 L82.39 -145.07 L125.21 -159.38 L168.04 -174.94 L210.87 -191.33 L253.7 -208.14"/>
</g>
<g id="zigguratlink-6-path" fill="none" stroke="#888888" stroke-dasharray="0" stroke-width="0.3" stroke-opacity="0.5">
<path d="M-164.39 -112.18  L-117.93 -114.05 L-71.48 -121.34 L-25.03 -133.07 L21.43 -148.42 L67.88 -166.79 L114.34 -187.57 L160.79 -210.17 L207.24 -233.97 L253.7 -258.37"/>
</g>
<g id="zigguratlink-7-path" fill="none" stroke="#888888" stroke-dasharray="0" stroke-width="0.3" stroke-opacity="0.5">
<path d="M-283.41 175.68  L-257.81 169.38 L-232.21 162.88 L-206.62 155.96 L-181.02 148.43 L-155.42 140.07 L-129.82 130.68 L-104.22 120.05 L-78.63 107.98 L-53.03 94.51"/>
</g>
<g id="zigguratlink-8-path" fill="none" stroke="#888888" stroke-dasharray="0" stroke-width="0.3" stroke-opacity="0.5">
<path d="M-204.96 266.45  L-188.08 253.11 L-171.2 239.33 L-154.32 224.68 L-137.44 208.72 L-120.56 191.02 L-103.67 171.12 L-86.79 148.61 L-69.91 123.04 L-53.03 94.51"/>
</g>
<g id="zigguratlink-9-path" fill="none" stroke="#888888" stroke-dasharray="0" stroke-width="0.3" stroke-opacity="0.5">
<path d="M-148.93 261.41  L-142.81 248.92 L-136.69 236.01 L-130.56 222.3 L-124.44 207.35 L-118.31 190.77 L-112.19 172.14 L-106.07 151.06 L-99.94 127.12 L-93.82 100.4"/>
</g>
<g id="zigguratlink-10-path" fill="none" stroke="#888888" stroke-dasharray="0" stroke-width="0.3" stroke-opacity="0.5">
<path d="M-104.11 289.98  L-93.9 274.36 L-83.69 258.23 L-73.48 241.07 L-63.28 222.38 L-53.07 201.64 L-42.86 178.34 L-32.65 151.98 L-22.45 122.03 L-12.24 88.62"/>
</g>
<g id="zigguratlink-11-path" fill="none" stroke="#888888" stroke-dasharray="0" stroke-width="0.3" stroke-opacity="0.5">
<path d="M-283.41 -192.49  L-264.56 -185.53 L-245.72 -178.34 L-226.88 -170.69 L-208.03 -162.36 L-189.19 -153.12 L-170.34 -142.74 L-151.5 -130.99 L-132.65 -117.64 L-113.81 -102.75"/>
</g>
<g id="zigguratlink-12-path" fill="none" stroke="#888888" stroke-dasharray="0" stroke-width="0.3" stroke-opacity="0.5">
<path d="M-204.96 -330.33  L-194.84 -312.67 L-184.71 -294.44 L-174.58 -275.05 L-164.45 -253.92 L-154.32 -230.48 L-144.19 -204.16 L-134.06 -174.36 L-123.94 -140.52 L-113.81 -102.75"/>
</g>
<g id="zigguratlink-13-path" fill="none" stroke="#888888" stroke-dasharray="0" stroke-width="0.3" stroke-opacity="0.5">
<path d="M-171.35 -392.52  L-164.95 -370.04 L-158.56 -346.82 L-152.17 -322.13 L-145.77 -295.24 L-139.38 -265.39 L-132.99 -231.87 L-126.59 -193.93 L-120.2 -150.84 L-113.81 -102.75"/>
</g>
<g id="zigguratlink-14-path" fill="none" stroke="#888888" stroke-dasharray="0" stroke-width="0.3" stroke-opacity="0.5">
<path d="M-146.44 -107.46  L-141.74 -148.35 L-137.03 -184.99 L-132.33 -217.26 L-127.63 -245.76 L-122.92 -271.14 L-118.22 -294.01 L-113.51 -315 L-108.81 -334.74 L-104.11 -353.86"/>
</g>
<g id="zigguratlink-15-path" fill="none" stroke="#888888" stroke-dasharray="0" stroke-width="0.3" stroke-opacity="0.5">
<path d="M-334.96 198.09  L-330.48 196.79 L-325.99 195.44 L-321.51 194.01 L-317.03 192.45 L-312.55 190.72 L-308.06 188.77 L-303.58 186.57 L-299.1 184.07 L-294.62 181.28"/>
</g>
<g id="zigguratlink-16-path" fill="none" stroke="#888888" stroke-dasharray="0" stroke-width="0.3" stroke-opacity="0.5">
<path d="M-335.32 227.59  L-330.8 224 L-326.28 220.29 L-321.75 216.34 L-317.23 212.04 L-312.71 207.27 L-308.18 201.92 L-303.66 195.85 L-299.14 188.97 L-294.62 181.28"/>
</g>
<g id="zigguratlink-17-path" fill="none" stroke="#888888" stroke-dasharray="0" stroke-width="0.3" stroke-opacity="0.5">
<path d="M-335.67 257.78  L-331.11 251.85 L-326.55 245.72 L-321.98 239.2 L-317.42 232.1 L-312.86 224.22 L-308.3 215.37 L-303.74 205.35 L-299.18 193.98 L-294.62 181.28"/>
</g>
<g id="zigguratlink-18-path" fill="none" stroke="#888888" stroke-dasharray="0" stroke-width="0.3" stroke-opacity="0.5">
<path d="M-257.55 288.86  L-252.96 287.56 L-248.36 286.21 L-243.76 284.78 L-239.16 283.22 L-234.56 281.49 L-229.97 279.54 L-225.37 277.34 L-220.77 274.84 L-216.17 272.05"/>
</g>
<g id="zigguratlink-19-path" fill="none" stroke="#888888" stroke-dasharray="0" stroke-width="0.3" stroke-opacity="0.5">
<path d="M-201.84 283.82  L-197.21 282.52 L-192.57 281.17 L-187.94 279.74 L-183.31 278.18 L-178.67 276.45 L-174.04 274.5 L-169.41 272.3 L-164.77 269.8 L-160.14 267.01"/>
</g>
<g id="zigguratlink-20-path" fill="none" stroke="#888888" stroke-dasharray="0" stroke-width="0.3" stroke-opacity="0.5">
<path d="M-157.32 312.4  L-152.65 311.09 L-147.98 309.75 L-143.32 308.31 L-138.65 306.75 L-133.98 305.02 L-129.32 303.08 L-124.65 300.88 L-119.98 298.38 L-115.31 295.59"/>
</g>
<g id="zigguratlink-21-path" fill="none" stroke="#888888" stroke-dasharray="0" stroke-width="0.3" stroke-opacity="0.5">
<path d="M-336.92 -209.3  L-332.22 -207.99 L-327.52 -206.65 L-322.82 -205.21 L-318.12 -203.65 L-313.42 -201.92 L-308.72 -199.98 L-304.02 -197.78 L-299.32 -195.28 L-294.62 -192.49"/>
</g>
<g id="zigguratlink-22-path" fill="none" stroke="#888888" stroke-dasharray="0" stroke-width="0.3" stroke-opacity="0.5">
<path d="M-258.76 -347.14  L-254.02 -345.83 L-249.29 -344.49 L-244.56 -343.05 L-239.83 -341.49 L-235.1 -339.76 L-230.37 -337.82 L-225.63 -335.62 L-220.9 -333.12 L-216.17 -330.33"/>
</g>
<g id="zigguratlink-23-path" fill="none" stroke="#888888" stroke-dasharray="0" stroke-width="0.3" stroke-opacity="0.5">
<path d="M-291.17 288.86  L-288.68 288.86 L-286.19 288.86 L-283.7 288.86 L-281.21 288.86 L-278.72 288.86 L-276.23 288.86 L-273.74 288.86 L-271.25 288.86 L-268.76 288.86"/>
</g>
<g id="zigguratlink-24-path" fill="none" stroke="#888888" stroke-dasharray="0" stroke-width="0.3" stroke-opacity="0.5">
<path d="M-291.17 311.28  L-288.68 309.54 L-286.19 307.74 L-283.7 305.83 L-281.21 303.75 L-278.72 301.44 L-276.23 298.85 L-273.74 295.92 L-271.25 292.58 L-268.76 288.86"/>
</g>
<g id="zigguratlink-25-path" fill="none" stroke="#888888" stroke-dasharray="0" stroke-width="0.3" stroke-opacity="0.5">
<path d="M-225.94 -409.33  L-221.12 -408.03 L-216.3 -406.68 L-211.48 -405.25 L-206.66 -403.69 L-201.84 -401.96 L-197.01 -400.01 L-192.19 -397.81 L-187.37 -395.31 L-182.55 -392.52"/>
</g>
<g id="zigguratlink-26-path" fill="none" stroke="#888888" stroke-dasharray="0" stroke-width="0.3" stroke-opacity="0.5">
<path d="M-226.19 -441.77  L-221.35 -437.95 L-216.5 -434 L-211.65 -429.81 L-206.8 -425.23 L-201.95 -420.16 L-197.1 -414.47 L-192.25 -408.02 L-187.4 -400.69 L-182.55 -392.52"/>
</g>
<g id="zigguratlink-27-path" fill="none" stroke="#888888" stroke-dasharray="0" stroke-width="0.3" stroke-opacity="0.5">
<path d="M-159.2 -370.67  L-154.33 -369.37 L-149.45 -368.02 L-144.57 -366.59 L-139.7 -365.03 L-134.82 -363.29 L-129.94 -361.35 L-125.07 -359.15 L-120.19 -356.65 L-115.31 -353.86"/>
</g>
<g id="zigguratlink-28-path" fill="none" stroke="#888888" stroke-dasharray="0" stroke-width="0.3" stroke-opacity="0.5">
<path d="M-259.81 -441.77  L-257.32 -441.77 L-254.83 -441.77 L-252.34 -441.77 L-249.85 -441.77 L-247.36 -441.77 L-244.87 -441.77 L-242.38 -441.77 L-239.89 -441.77 L-237.4 -441.77"/>
</g>
<g id="zigguratlink-29-path" fill="none" stroke="#888888" stroke-dasharray="0" stroke-width="0.3" stroke-opacity="0.5">
<path d="M-259.81 -464.18  L-257.32 -462.44 L-254.83 -460.65 L-252.34 -458.74 L-249.85 -456.66 L-247.36 -454.35 L-244.87 -451.75 L-242.38 -448.82 L-239.89 -445.49 L-237.4 -441.77"/>
</g>
</svg>