<svg xmlns="http://www.w3.org/2000/svg" viewBox="-420 -440 940 990">
<rect id="zigguratkcore3-a-1-rect" style="fill:#00008B;fill-opacity:0.2" stroke="transparent" stroke-dasharray="0" stroke-width="0.5" x="-108.12" y="-86.5" width="53.08" height="51.9" />
<rect id="zigguratkcore3-a-2-rect" style="fill:#4169E1;fill-opacity:0.2" stroke="transparent" stroke-dasharray="0" stroke-width="0.5" x="-49.15" y="-77.41" width="53.08" height="42.81" />
<rect id="zigguratkcore3-a-3-rect" style="fill:#00008B;fill-opacity:0.2" stroke="transparent" stroke-dasharray="0" stroke-width="0.5" x="9.83" y="-68.33" width="53.08" height="33.73" />
<rect id="zigguratkcore3-a-4-rect" style="fill:#4169E1;fill-opacity:0.2" stroke="transparent" stroke-dasharray="0" stroke-width="0.5" x="68.8" y="-59.25" width="53.08" height="24.65" />
<text id="zigguratkcore3-a-1-text" y="-60.55" style="text-anchor:middle;dominant-baseline:middle;font-family:Arial;font-size:20px;fill:#00008B">
<tspan x="-81.58" dy="0">1</tspan>
</text>
<text id="zigguratkcore3-a-2-text" y="-56.01" style="text-anchor:middle;dominant-baseline:middle;font-family:Arial;font-size:20px;fill:#00008B">
<tspan x="-22.61" dy="0">3</tspan>
</text>
<text id="zigguratkcore3-a-3-text" y="-51.46" style="text-anchor:middle;dominant-baseline:middle;font-family:Arial;font-size:20px;fill:#00008B">
<tspan x="36.37" dy="0">2</tspan>
</text>
<text id="zigguratkcore3-a-4-text" y="-46.92" style="text-anchor:middle;dominant-baseline:middle;font-family:Arial;font-size:20px;fill:#00008B">
<tspan x="95.34" dy="0">5</tspan>
</text>
<rect id="zigguratkcore3-b-1-rect" style="fill:#FF0000;fill-opacity:0.2" stroke="transparent" stroke-dasharray="0" stroke-width="0.5" x="-108.12" y="34.6" width="35.38" height="51.9" />
<rect id="zigguratkcore3-b-2-rect" style="fill:#F08080;fill-opacity:0.2" stroke="transparent" stroke-dasharray="0" stroke-width="0.5" x="-68.8" y="34.6" width="35.38" height="45.84" />
<rect id="zigguratkcore3-b-3-rect" style="fill:#FF0000;fill-opacity:0.2" stroke="transparent" stroke-dasharray="0" stroke-width="0.5" x="-29.49" y="34.6" width="35.39" height="39.79" />
<rect id="zigguratkcore3-b-4-rect" style="fill:#F08080;fill-opacity:0.2" stroke="transparent" stroke-dasharray="0" stroke-width="0.5" x="9.83" y="34.6" width="35.38" height="33.73" />
<rect id="zigguratkcore3-b-5-rect" style="fill:#FF0000;fill-opacity:0.2" stroke="transparent" stroke-dasharray="0" stroke-width="0.5" x="49.15" y="34.6" width="35.38" height="27.68" />
<rect id="zigguratkcore3-b-6-rect" style="fill:#F08080;fill-opacity:0.2" stroke="transparent" stroke-dasharray="0" stroke-width="0.5" x="88.46" y="34.6" width="35.39" height="21.62" />
<text id="zigguratkcore3-b-1-text" y="60.55" style="text-anchor:middle;dominant-baseline:middle;font-family:Arial;font-size:20px;fill:#FF0000">
<tspan x="-90.43" dy="0">4</tspan>
</text>
<text id="zigguratkcore3-b-2-text" y="57.52" style="text-anchor:middle;dominant-baseline:middle;font-family:Arial;font-size:20px;fill:#FF0000">
<tspan x="-51.11" dy="0">2</tspan>
</text>
<text id="zigguratkcore3-b-3-text" y="54.49" style="text-anchor:middle;dominant-baseline:middle;font-family:Arial;font-size:20px;fill:#FF0000">
<tspan x="-11.79" dy="0">6</tspan>
</text>
<text id="zigguratkcore3-b-4-text" y="51.46" style="text-anchor:middle;dominant-baseline:middle;font-family:Arial;font-size:20px;fill:#FF0000">
<tspan x="27.52" dy="0">5</tspan>
</text>
<text id="zigguratkcore3-b-5-text" y="48.44" style="text-anchor:middle;dominant-baseline:middle;font-family:Arial;font-size:20px;fill:#FF0000">
<tspan x="66.84" dy="0">3</tspan>
</text>
<text id="zigguratkcore3-b-6-text" y="45.41" style="text-anchor:middle;dominant-baseline:middle;font-family:Arial;font-size:20px;fill:#FF0000">
<tspan x="106.15" dy="0">1</tspan>
</text>
<rect id="zigguratkcore2-a-1-rect" style="fill:#00008B;fill-opacity:0.2" stroke="transparent" stroke-dasharray="0" stroke-width="0.5" x="228.33" y="249.78" width="95.26" height="24.19" />
<rect id="zigguratkcore2-a-2-rect" style="fill:#4169E1;fill-opacity:0.2" stroke="transparent" stroke-dasharray="0" stroke-width="0.5" x="244.21" y="220.75" width="75.41" height="24.19" />
<rect id="zigguratkcore2-a-3-rect" style="fill:#00008B;fill-opacity:0.2" stroke="transparent" stroke-dasharray="0" stroke-width="0.5" x="260.08" y="191.71" width="55.57" height="24.2" />
<rect id="zigguratkcore2-a-4-rect" style="fill:#4169E1;fill-opacity:0.2" stroke="transparent" stroke-dasharray="0" stroke-width="0.5" x="275.96" y="162.68" width="35.72" height="24.19" />
<text id="zigguratkcore2-a-1-text" y="261.88" style="text-anchor:middle;dominant-baseline:middle;font-family:Arial;font-size:18px;fill:#00008B">
<tspan x="304.53" dy="0">6</tspan>
</text>
<text id="zigguratkcore2-a-2-text" y="232.84" style="text-anchor:middle;dominant-baseline:middle;font-family:Arial;font-size:18px;fill:#00008B">
<tspan x="255.52" dy="0">4</tspan>
</text>
<text id="zigguratkcore2-a-3-text" y="203.81" style="text-anchor:middle;dominant-baseline:middle;font-family:Arial;font-size:18px;fill:#00008B">
<tspan x="304.53" dy="0">7</tspan>
</text>
<text id="zigguratkcore2-a-4-text" y="174.78" style="text-anchor:middle;dominant-baseline:middle;font-family:Arial;font-size:18px;fill:#00008B">
<tspan x="281.32" dy="0">8</tspan>
</text>
<rect id="zigguratkcore2-b-1-rect" style="fill:#FF0000;fill-opacity:0.2" stroke="transparent" stroke-dasharray="0" stroke-width="0.5" x="229.66" y="-352.64" width="95.25" height="24.2" />
<rect id="zigguratkcore2-b-2-rect" style="fill:#F08080;fill-opacity:0.2" stroke="transparent" stroke-dasharray="0" stroke-width="0.5" x="242.36" y="-323.6" width="79.37" height="24.19" />
<rect id="zigguratkcore2-b-3-rect" style="fill:#FF0000;fill-opacity:0.2" stroke="transparent" stroke-dasharray="0" stroke-width="0.5" x="255.06" y="-294.57" width="63.5" height="24.2" />
<rect id="zigguratkcore2-b-4-rect" style="fill:#F08080;fill-opacity:0.2" stroke="transparent" stroke-dasharray="0" stroke-width="0.5" x="267.76" y="-265.54" width="47.62" height="24.2" />
<rect id="zigguratkcore2-b-5-rect" style="fill:#FF0000;fill-opacity:0.2" stroke="transparent" stroke-dasharray="0" stroke-width="0.5" x="280.46" y="-236.5" width="31.75" height="24.19" />
<text id="zigguratkcore2-b-1-text" y="-340.54" style="text-anchor:middle;dominant-baseline:middle;font-family:Arial;font-size:18px;fill:#FF0000">
<tspan x="243.94" dy="0">11</tspan>
</text>
<text id="zigguratkcore2-b-2-text" y="-311.51" style="text-anchor:middle;dominant-baseline:middle;font-family:Arial;font-size:18px;fill:#FF0000">
<tspan x="305.86" dy="0">8</tspan>
</text>
<text id="zigguratkcore2-b-3-text" y="-282.47" style="text-anchor:middle;dominant-baseline:middle;font-family:Arial;font-size:18px;fill:#FF0000">
<tspan x="264.58" dy="0">7</tspan>
</text>
<text id="zigguratkcore2-b-4-text" y="-253.44" style="text-anchor:middle;dominant-baseline:middle;font-family:Arial;font-size:18px;fill:#FF0000">
<tspan x="305.86" dy="0">9</tspan>
</text>
<text id="zigguratkcore2-b-5-text" y="-224.4" style="text-anchor:middle;dominant-baseline:middle;font-family:Arial;font-size:18px;fill:#FF0000">
<tspan x="285.22" dy="0">10</tspan>
</text>
<rect id="zigguratkcore3-1-rect" style="fill:none;fill-opacity:0.3" stroke="#8B4C39" stroke-dasharray="1 1" stroke-width="0" x="-152.35" y="-154.24" width="290.94" height="274.61" />
<text id="zigguratkcore3-1-text" y="-16.94" style="text-anchor:middle;dominant-baseline:middle;font-family:Arial;font-size:14px;fill:transparent">
</text>
<text id="zigguratkcore3-1-text" y="0" transform="rotate(-90 -128.76 0)" style="text-anchor:start;dominant-baseline:middle;font-family:Arial;font-size:20px;fill:#8B4C39">
<tspan x="-128.76" dy="0">3-shell</tspan>
</text>
<rect id="zigguratkcore2-1-rect" style="fill:none;fill-opacity:0.3" stroke="#AC5E46" stroke-dasharray="1 1" stroke-width="0" x="213.59" y="-437.32" width="126.06" height="745.17" />
<text id="zigguratkcore2-1-text" y="-64.74" style="text-anchor:middle;dominant-baseline:middle;font-family:Arial;font-size:14px;fill:transparent">
</text>
<text id="zigguratkcore2-1-text" y="-389.9" style="text-anchor:start;dominant-baseline:middle;font-family:Arial;font-size:20px;fill:#AC5E46">
<tspan x="261.88" dy="0">2-shell</tspan>
</text>
<rect id="zigguratedge-kcore1-a-1-1-rect" style="fill:#00008B;fill-opacity:0.11" stroke="transparent" stroke-dasharray="0" stroke-width="0.5" x="-109.26" y="275.67" width="21.94" height="21.94" />
<text id="zigguratedge-kcore1-a-1-1-text" y="286.64" transform="rotate(30 -98.29 286.64)" style="text-anchor:start;dominant-baseline:middle;font-family:Arial;font-size:16px;fill:#00008B">
<tspan x="-98.29" dy="0"> 12 13  16</tspan>
</text>
<rect id="zigguratedge-kcore1-a-3-1-rect" style="fill:#00008B;fill-opacity:0.11" stroke="transparent" stroke-dasharray="0" stroke-width="0.5" x="-134.48" y="286.73" width="14.74" height="14.74" />
<text id="zigguratedge-kcore1-a-3-1-text" y="294.1" transform="rotate(30 -127.11 294.1)" style="text-anchor:middle;dominant-baseline:middle;font-family:Arial;font-size:16px;fill:#00008B">
<tspan x="-127.11" dy="0"> 17</tspan>
</text>
<rect id="zigguratedge-kcore1-a-5-1-rect" style="fill:#00008B;fill-opacity:0.11" stroke="transparent" stroke-dasharray="0" stroke-width="0.5" x="-156.11" y="294.16" width="14.75" height="14.74" />
<text id="zigguratedge-kcore1-a-5-1-text" y="301.53" transform="rotate(30 -148.73 301.53)" style="text-anchor:middle;dominant-baseline:middle;font-family:Arial;font-size:16px;fill:#00008B">
<tspan x="-148.73" dy="0"> 15</tspan>
</text>
<rect id="zigguratedge-kcore1-a-2-1-rect" style="fill:#00008B;fill-opacity:0.11" stroke="transparent" stroke-dasharray="0" stroke-width="0.5" x="-177.73" y="301.59" width="14.74" height="14.75" />
<text id="zigguratedge-kcore1-a-2-1-text" y="308.96" transform="rotate(30 -170.36 308.96)" style="text-anchor:middle;dominant-baseline:middle;font-family:Arial;font-size:16px;fill:#00008B">
<tspan x="-170.36" dy="0"> 11</tspan>
</text>
<rect id="zigguratedge-kcore1-b-2-1-rect" style="fill:#FF0000;fill-opacity:0.11" stroke="transparent" stroke-dasharray="0" stroke-width="0.5" x="-95.83" y="-268.64" width="14.74" height="14.74" />
<text id="zigguratedge-kcore1-b-2-1-text" y="-261.27" transform="rotate(-30 -88.46 -261.27)" style="text-anchor:middle;dominant-baseline:middle;font-family:Arial;font-size:16px;fill:#FF0000">
<tspan x="-88.46" dy="0"> 16</tspan>
</text>
<rect id="zigguratedge-kcore1-b-1-rect" style="fill:#FF0000;fill-opacity:0.11" stroke="transparent" stroke-dasharray="0" stroke-width="0.5" x="-402.99" y="-35.94" width="14.74" height="14.75" />
<text id="zigguratedge-kcore1-b-1-text" y="-28.56" style="text-anchor:middle;dominant-baseline:middle;font-family:Arial;font-size:16px;fill:#FF0000">
<tspan x="-395.62" dy="0"> 13</tspan>
</text>
<rect id="zigguratedge-kcore1-a-1-1-rect" style="fill:#00008B;fill-opacity:0.2" stroke="transparent" stroke-dasharray="0" stroke-width="0.5" x="-355.21" y="300.92" width="19.66" height="19.66" />
<text id="zigguratedge-kcore1-a-1-1-text" y="310.75" style="text-anchor:middle;dominant-baseline:middle;font-family:Arial;font-size:16px;fill:#00008B">
<tspan x="-345.38" dy="0"> 9</tspan>
</text>
<rect id="zigguratedge-kcore1-b-2-1-rect" style="fill:#FF0000;fill-opacity:0.2" stroke="transparent" stroke-dasharray="0" stroke-width="0.5" x="-414.18" y="397.7" width="19.66" height="19.66" />
<text id="zigguratedge-kcore1-b-2-1-text" y="407.53" style="text-anchor:middle;dominant-baseline:middle;font-family:Arial;font-size:16px;fill:#FF0000">
<tspan x="-404.35" dy="0"> 14</tspan>
</text>
<rect id="zigguratedge-kcore1-a-1-rect" style="fill:#00008B;fill-opacity:0.2" stroke="transparent" stroke-dasharray="0" stroke-width="0.5" x="0" y="466.5" width="19.66" height="19.66" />
<rect id="zigguratedge-kcore1-a-2-rect" style="fill:#00008B;fill-opacity:0.2" stroke="transparent" stroke-dasharray="0" stroke-width="0.5" x="49.15" y="466.5" width="19.65" height="19.66" />
<text id="zigguratedge-kcore1-a-1-text" y="476.33" style="text-anchor:middle;dominant-baseline:middle;font-family:Arial;font-size:16px;fill:#00008B">
<tspan x="9.83" dy="0">10</tspan>
</text>
<text id="zigguratedge-kcore1-a-2-text" y="476.33" style="text-anchor:middle;dominant-baseline:middle;font-family:Arial;font-size:16px;fill:#00008B">
<tspan x="58.97" dy="0">14</tspan>
</text>
<rect id="zigguratedge-kcore1-b-1-rect" style="fill:#FF0000;fill-opacity:0.2" stroke="transparent" stroke-dasharray="0" stroke-width="0.5" x="0" y="525.48" width="19.66" height="19.65" />
<rect id="zigguratedge-kcore1-b-2-rect" style="fill:#FF0000;fill-opacity:0.2" stroke="transparent" stroke-dasharray="0" stroke-width="0.5" x="49.15" y="525.48" width="19.65" height="19.65" />
<text id="zigguratedge-kcore1-b-1-text" y="535.31" style="text-anchor:middle;dominant-baseline:middle;font-family:Arial;font-size:16px;fill:#FF0000">
<tspan x="9.83" dy="0">12</tspan>
</text>
<text id="zigguratedge-kcore1-b-2-text" y="535.31" style="text-anchor:middle;dominant-baseline:middle;font-family:Arial;font-size:16px;fill:#FF0000">
<tspan x="58.97" dy="0">15</tspan>
</text>
<text id="zigguratcorelabel-1-text" y="398" style="text-anchor:start;dominant-baseline:middle;font-family:Arial;font-size:20px;fill:grey50">
<tspan x="-35.85" dy="0">Outside the giant component</tspan>
</text>
<rect id="zigguratannotation-1-rect" style="fill:none;fill-opacity:0.5" stroke="transparent" stroke-dasharray="0" stroke-width="0.5" x="511.11" y="-0.02" width="0.0199999999999818" height="0.02" />
<text id="zigguratannotation-1-text" y="-0.01" style="text-anchor:middle;dominant-baseline:middle;font-family:Arial;font-size:20px;fill:transparent">
</text>
<text id="zigguratannotation-1-text" y="0" style="text-anchor:middle;dominant-baseline:middle;font-family:Arial;font-size:4px;fill:red">
<tspan x="511.11" dy="0">.</tspan>
</text>
<text id="zigguratannotation-1-text" y="0" style="text-anchor:middle;dominant-baseline:middle;font-family:Arial;font-size:4px;fill:red">
<tspan x="-255.56" dy="0">.</tspan>
</text>
<g id="zigguratlink-1-segment" fill="none" stroke="#888888" stroke-dasharray="0" stroke-width="0.3" stroke-opacity="0.5">
<path d="M-388.25 -28.56 L-108.12 -60.55"/>
</g>
<g id="zigguratlink-2-segment" fill="none" stroke="#888888" stroke-dasharray="0" stroke-width="0.3" stroke-opacity="0.5">
<path d="M-81.58 -34.6 L-90.43 34.6"/>
</g>
<g id="zigguratlink-3-segment" fill="none" stroke="#888888" stroke-dasharray="0" stroke-width="0.3" stroke-opacity="0.5">
<path d="M-81.58 -34.6 L-51.11 34.6"/>
</g>
<g id="zigguratlink-4-segment" fill="none" stroke="#888888" stroke-dasharray="0" stroke-width="0.3" stroke-opacity="0.5">
<path d="M-81.58 -34.6 L-11.79 34.6"/>
</g>
<g id="zigguratlink-5-segment" fill="none" stroke="#888888" stroke-dasharray="0" stroke-width="0.3" stroke-opacity="0.5">
<path d="M-81.58 -34.6 L27.52 34.6"/>
</g>
<g id="zigguratlink-6-segment" fill="none" stroke="#888888" stroke-dasharray="0" stroke-width="0.3" stroke-opacity="0.5">
<path d="M-81.58 -34.6 L66.84 34.6"/>
</g>
<g id="zigguratlink-7-segment" fill="none" stroke="#888888" stroke-dasharray="0" stroke-width="0.3" stroke-opacity="0.5">
<path d="M-81.58 -34.6 L106.15 34.6"/>
</g>
<g id="zigguratlink-8-segment" fill="none" stroke="#888888" stroke-dasharray="0" stroke-width="0.3" stroke-opacity="0.5">
<path d="M-22.61 -34.6 L-90.43 34.6"/>
</g>
<g id="zigguratlink-9-segment" fill="none" stroke="#888888" stroke-dasharray="0" stroke-width="0.3" stroke-opacity="0.5">
<path d="M-22.61 -34.6 L-51.11 34.6"/>
</g>
<g id="zigguratlink-10-segment" fill="none" stroke="#888888" stroke-dasharray="0" stroke-width="0.3" stroke-opacity="0.5">
<path d="M-22.61 -34.6 L-11.79 34.6"/>
</g>
<g id="zigguratlink-11-segment" fill="none" stroke="#888888" stroke-dasharray="0" stroke-width="0.3" stroke-opacity="0.5">
<path d="M-22.61 -34.6 L27.52 34.6"/>
</g>
<g id="zigguratlink-12-segment" fill="none" stroke="#888888" stroke-dasharray="0" stroke-width="0.3" stroke-opacity="0.5">
<path d="M-22.61 -34.6 L66.84 34.6"/>
</g>
<g id="zigguratlink-13-segment" fill="none" stroke="#888888" stroke-dasharray="0" stroke-width="0.3" stroke-opacity="0.5">
<path d="M36.37 -34.6 L-90.43 34.6"/>
</g>
<g id="zigguratlink-14-segment" fill="none" stroke="#888888" stroke-dasharray="0" stroke-width="0.3" stroke-opacity="0.5">
<path d="M36.37 -34.6 L-51.11 34.6"/>
</g>
<g id="zigguratlink-15-segment" fill="none" stroke="#888888" stroke-dasharray="0" stroke-width="0.3" stroke-opacity="0.5">
<path d="M36.37 -34.6 L27.52 34.6"/>
</g>
<g id="zigguratlink-16-segment" fill="none" stroke="#888888" stroke-dasharray="0" stroke-width="0.3" stroke-opacity="0.5">
<path d="M36.37 -34.6 L66.84 34.6"/>
</g>
<g id="zigguratlink-17-segment" fill="none" stroke="#888888" stroke-dasharray="0" stroke-width="0.3" stroke-opacity="0.5">
<path d="M36.37 -34.6 L106.15 34.6"/>
</g>
<g id="zigguratlink-18-segment" fill="none" stroke="#888888" stroke-dasharray="0" stroke-width="0.3" stroke-opacity="0.5">
<path d="M95.34 -34.6 L-90.43 34.6"/>
</g>
<g id="zigguratlink-19-segment" fill="none" stroke="#888888" stroke-dasharray="0" stroke-width="0.3" stroke-opacity="0.5">
<path d="M95.34 -34.6 L-51.11 34.6"/>
</g>
<g id="zigguratlink-20-segment" fill="none" stroke="#888888" stroke-dasharray="0" stroke-width="0.3" stroke-opacity="0.5">
<path d="M95.34 -34.6 L-11.79 34.6"/>
</g>
<g id="zigguratlink-21-segment" fill="none" stroke="#888888" stroke-dasharray="0" stroke-width="0.3" stroke-opacity="0.5">
<path d="M95.34 -34.6 L106.15 34.6"/>
</g>
<g id="zigguratlink-22-segment" fill="none" stroke="#888888" stroke-dasharray="0" stroke-width="0.3" stroke-opacity="0.5">
<path d="M228.33 249.78 L242.36 -299.41"/>
</g>
<g id="zigguratlink-23-segment" fill="none" stroke="#888888" stroke-dasharray="0" stroke-width="0.3" stroke-opacity="0.5">
<path d="M228.33 249.78 L255.06 -270.37"/>
</g>
<g id="zigguratlink-24-segment" fill="none" stroke="#888888" stroke-dasharray="0" stroke-width="0.3" stroke-opacity="0.5">
<path d="M244.21 220.75 L267.76 -241.34"/>
</g>
<g id="zigguratlink-25-segment" fill="none" stroke="#888888" stroke-dasharray="0" stroke-width="0.3" stroke-opacity="0.5">
<path d="M244.21 220.75 L280.46 -212.31"/>
</g>
<g id="zigguratlink-26-segment" fill="none" stroke="#888888" stroke-dasharray="0" stroke-width="0.3" stroke-opacity="0.5">
<path d="M275.96 162.68 L267.76 -241.34"/>
</g>
<g id="zigguratlink-27-segment" fill="none" stroke="#888888" stroke-dasharray="0" stroke-width="0.3" stroke-opacity="0.5">
<path d="M275.96 162.68 L280.46 -212.31"/>
</g>
<g id="zigguratlink-28-segment" fill="none" stroke="#888888" stroke-dasharray="0" stroke-width="0.3" stroke-opacity="0.5">
<path d="M9.83 486.16 L9.83 525.48"/>
</g>
<g id="zigguratlink-29-segment" fill="none" stroke="#888888" stroke-dasharray="0" stroke-width="0.3" stroke-opacity="0.5">
<path d="M58.97 486.16 L58.97 525.48"/>
</g>
<g id="zigguratlink-1-path" fill="none" stroke="#888888" stroke-dasharray="0" stroke-width="0.3" stroke-opacity="0.5">
<path d="M-98.29 275.67  L-75.57 258.65 L-52.86 241.06 L-30.14 222.37 L-7.43 202 L15.29 179.39 L38.01 154.01 L60.72 125.27 L83.44 92.64 L106.15 56.22"/>
</g>
<g id="zigguratlink-2-path" fill="none" stroke="#888888" stroke-dasharray="0" stroke-width="0.3" stroke-opacity="0.5">
<path d="M-127.11 286.73  L-105.56 269.32 L-84.01 251.33 L-62.46 232.21 L-40.91 211.37 L-19.36 188.26 L2.19 162.29 L23.74 132.9 L45.29 99.52 L66.84 62.28"/>
</g>
<g id="zigguratlink-3-path" fill="none" stroke="#888888" stroke-dasharray="0" stroke-width="0.3" stroke-opacity="0.5">
<path d="M-148.73 294.16  L-129.15 276.64 L-109.57 258.55 L-89.98 239.3 L-70.4 218.34 L-50.81 195.08 L-31.23 168.96 L-11.65 139.39 L7.94 105.81 L27.52 68.33"/>
</g>
<g id="zigguratlink-4-path" fill="none" stroke="#888888" stroke-dasharray="0" stroke-width="0.3" stroke-opacity="0.5">
<path d="M-170.36 301.59  L-157.11 284.43 L-143.86 266.71 L-130.61 247.87 L-117.36 227.34 L-104.11 204.57 L-90.86 178.98 L-77.61 150.03 L-64.36 117.14 L-51.11 80.44"/>
</g>
<g id="zigguratlink-5-path" fill="none" stroke="#888888" stroke-dasharray="0" stroke-width="0.3" stroke-opacity="0.5">
<path d="M-88.46 -253.9  L-74.59 -239.5 L-60.72 -224.63 L-46.85 -208.82 L-32.98 -191.6 L-19.11 -172.49 L-5.24 -151.02 L8.63 -126.72 L22.5 -99.13 L36.37 -68.33"/>
</g>
<g id="zigguratlink-6-path" fill="none" stroke="#888888" stroke-dasharray="0" stroke-width="0.3" stroke-opacity="0.5">
<path d="M-51.11 80.44  L-20.06 109.62 L10.99 134.61 L42.04 151.79 L73.09 162.43 L104.14 170.31 L135.18 179.24 L166.23 193.02 L197.28 215.44 L228.33 249.78"/>
</g>
<g id="zigguratlink-7-path" fill="none" stroke="#888888" stroke-dasharray="0" stroke-width="0.3" stroke-opacity="0.5">
<path d="M106.15 56.22  L119.73 89.57 L133.3 118.13 L146.88 137.77 L160.46 149.94 L174.03 158.95 L187.61 169.15 L201.18 184.9 L214.76 210.53 L228.33 249.78"/>
</g>
<g id="zigguratlink-8-path" fill="none" stroke="#888888" stroke-dasharray="0" stroke-width="0.3" stroke-opacity="0.5">
<path d="M66.84 62.28  L86.55 89.58 L106.25 112.97 L125.96 129.05 L145.67 139 L165.38 146.38 L185.08 154.73 L204.79 167.63 L224.5 188.61 L244.21 220.75"/>
</g>
<g id="zigguratlink-9-path" fill="none" stroke="#888888" stroke-dasharray="0" stroke-width="0.3" stroke-opacity="0.5">
<path d="M106.15 56.22  L121.49 84.57 L136.83 108.85 L152.17 125.54 L167.51 135.88 L182.85 143.54 L198.19 152.21 L213.53 165.6 L228.87 187.39 L244.21 220.75"/>
</g>
<g id="zigguratlink-10-path" fill="none" stroke="#888888" stroke-dasharray="0" stroke-width="0.3" stroke-opacity="0.5">
<path d="M-51.11 80.44  L-16.53 99.61 L18.04 116.03 L52.62 127.32 L87.2 134.32 L121.77 139.49 L156.35 145.36 L190.93 154.41 L225.51 169.15 L260.08 191.71"/>
</g>
<g id="zigguratlink-11-path" fill="none" stroke="#888888" stroke-dasharray="0" stroke-width="0.3" stroke-opacity="0.5">
<path d="M27.52 68.33  L53.36 89.59 L79.2 107.8 L105.04 120.32 L130.88 128.07 L156.72 133.81 L182.56 140.32 L208.4 150.35 L234.24 166.7 L260.08 191.71"/>
</g>
<g id="zigguratlink-12-path" fill="none" stroke="#888888" stroke-dasharray="0" stroke-width="0.3" stroke-opacity="0.5">
<path d="M-81.58 -86.5  L-47 -135.55 L-12.42 -167.6 L22.16 -187.28 L56.75 -200.04 L91.33 -211.3 L125.91 -226.5 L160.49 -251.05 L195.07 -286.76 L229.66 -328.44"/>
</g>
<g id="zigguratlink-13-path" fill="none" stroke="#888888" stroke-dasharray="0" stroke-width="0.3" stroke-opacity="0.5">
<path d="M-81.58 -86.5  L-45.59 -129.67 L-9.6 -157.87 L26.4 -175.19 L62.39 -186.41 L98.38 -196.32 L134.38 -209.7 L170.37 -231.31 L206.36 -262.73 L242.36 -299.41"/>
</g>
<g id="zigguratlink-14-path" fill="none" stroke="#888888" stroke-dasharray="0" stroke-width="0.3" stroke-opacity="0.5">
<path d="M-22.61 -77.41  L5.42 -128.31 L33.45 -161.56 L61.48 -181.98 L89.51 -195.22 L117.54 -206.9 L145.57 -222.68 L173.6 -248.15 L201.63 -285.19 L229.66 -328.44"/>
</g>
<g id="zigguratlink-15-path" fill="none" stroke="#888888" stroke-dasharray="0" stroke-width="0.3" stroke-opacity="0.5">
<path d="M36.37 -68.33  L60.67 -109.3 L84.96 -136.06 L109.26 -152.49 L133.56 -163.15 L157.86 -172.55 L182.16 -185.25 L206.46 -205.75 L230.76 -235.57 L255.06 -270.37"/>
</g>
<g id="zigguratlink-16-path" fill="none" stroke="#888888" stroke-dasharray="0" stroke-width="0.3" stroke-opacity="0.5">
<path d="M-335.55 300.92  L-290.84 282.41 L-246.13 263.28 L-201.42 242.95 L-156.71 220.8 L-112 196.22 L-67.29 168.61 L-22.58 137.37 L22.13 101.88 L66.84 62.28"/>
</g>
<g id="zigguratlink-17-path" fill="none" stroke="#888888" stroke-dasharray="0" stroke-width="0.3" stroke-opacity="0.5">
<path d="M-394.52 407.53  L-390.15 400.02 L-385.79 392.27 L-381.42 384.02 L-377.05 375.04 L-372.68 365.07 L-368.31 353.87 L-363.94 341.2 L-359.58 326.81 L-355.21 310.75"/>
</g>
</svg>