<svg xmlns="http://www.w3.org/2000/svg" viewBox="-190 -480 882 672">
<rect id="kcore4-a-1-rect" style="fill:#00008B;fill-opacity:0.2" stroke="transparent" stroke-dasharray="0" stroke-width="0.5" x="-45.92" y="-135.78" width="24.94" height="81.47" />
<rect id="kcore4-a-2-rect" style="fill:#4169E1;fill-opacity:0.2" stroke="transparent" stroke-dasharray="0" stroke-width="0.5" x="-18.21" y="-126.28" width="24.94" height="71.97" />
<rect id="kcore4-a-3-rect" style="fill:#00008B;fill-opacity:0.2" stroke="transparent" stroke-dasharray="0" stroke-width="0.5" x="9.5" y="-116.77" width="24.95" height="62.46" />
<rect id="kcore4-a-4-rect" style="fill:#4169E1;fill-opacity:0.2" stroke="transparent" stroke-dasharray="0" stroke-width="0.5" x="37.22" y="-107.27" width="24.94" height="52.96" />
<rect id="kcore4-a-5-rect" style="fill:#00008B;fill-opacity:0.2" stroke="transparent" stroke-dasharray="0" stroke-width="0.5" x="64.93" y="-97.76" width="24.94" height="43.45" />
<rect id="kcore4-a-6-rect" style="fill:#4169E1;fill-opacity:0.2" stroke="transparent" stroke-dasharray="0" stroke-width="0.5" x="92.64" y="-88.26" width="24.94" height="33.95" />
<text id="kcore4-a-1-text" y="-95.05" style="text-anchor:middle;dominant-baseline:middle;font-family:Arial;font-size:15px;fill:#00008B">
<tspan x="-33.45" dy="0">7</tspan>
</text>
<text id="kcore4-a-2-text" y="-90.3" style="text-anchor:middle;dominant-baseline:middle;font-family:Arial;font-size:15px;fill:#00008B">
<tspan x="-5.74" dy="0">4</tspan>
</text>
<text id="kcore4-a-3-text" y="-85.54" style="text-anchor:middle;dominant-baseline:middle;font-family:Arial;font-size:15px;fill:#00008B">
<tspan x="21.98" dy="0">1</tspan>
</text>
<text id="kcore4-a-4-text" y="-80.79" style="text-anchor:middle;dominant-baseline:middle;font-family:Arial;font-size:15px;fill:#00008B">
<tspan x="49.69" dy="0">5</tspan>
</text>
<text id="kcore4-a-5-text" y="-76.04" style="text-anchor:middle;dominant-baseline:middle;font-family:Arial;font-size:15px;fill:#00008B">
<tspan x="77.4" dy="0">3</tspan>
</text>
<text id="kcore4-a-6-text" y="-71.29" style="text-anchor:middle;dominant-baseline:middle;font-family:Arial;font-size:15px;fill:#00008B">
<tspan x="105.11" dy="0">2</tspan>
</text>
<rect id="kcore4-b-1-rect" style="fill:#FF0000;fill-opacity:0.2" stroke="transparent" stroke-dasharray="0" stroke-width="0.5" x="-45.92" y="54.31" width="21.38" height="81.47" />
<rect id="kcore4-b-2-rect" style="fill:#F08080;fill-opacity:0.2" stroke="transparent" stroke-dasharray="0" stroke-width="0.5" x="-22.17" y="54.31" width="21.38" height="73.33" />
<rect id="kcore4-b-3-rect" style="fill:#FF0000;fill-opacity:0.2" stroke="transparent" stroke-dasharray="0" stroke-width="0.5" x="1.59" y="54.31" width="21.37" height="65.18" />
<rect id="kcore4-b-4-rect" style="fill:#F08080;fill-opacity:0.2" stroke="transparent" stroke-dasharray="0" stroke-width="0.5" x="25.34" y="54.31" width="21.38" height="57.03" />
<rect id="kcore4-b-5-rect" style="fill:#FF0000;fill-opacity:0.2" stroke="transparent" stroke-dasharray="0" stroke-width="0.5" x="49.09" y="54.31" width="21.38" height="48.88" />
<rect id="kcore4-b-6-rect" style="fill:#F08080;fill-opacity:0.2" stroke="transparent" stroke-dasharray="0" stroke-width="0.5" x="72.85" y="54.31" width="21.37" height="40.74" />
<rect id="kcore4-b-7-rect" style="fill:#FF0000;fill-opacity:0.2" stroke="transparent" stroke-dasharray="0" stroke-width="0.5" x="96.6" y="54.31" width="21.38" height="32.59" />
<text id="kcore4-b-1-text" y="95.05" style="text-anchor:middle;dominant-baseline:middle;font-family:Arial;font-size:15px;fill:#FF0000">
<tspan x="-35.23" dy="0">19</tspan>
</text>
<text id="kcore4-b-2-text" y="90.97" style="text-anchor:middle;dominant-baseline:middle;font-family:Arial;font-size:15px;fill:#FF0000">
<tspan x="-11.48" dy="0">20</tspan>
</text>
<text id="kcore4-b-3-text" y="86.9" style="text-anchor:middle;dominant-baseline:middle;font-family:Arial;font-size:15px;fill:#FF0000">
<tspan x="12.28" dy="0">21</tspan>
</text>
<text id="kcore4-b-4-text" y="82.83" style="text-anchor:middle;dominant-baseline:middle;font-family:Arial;font-size:15px;fill:#FF0000">
<tspan x="36.03" dy="0">17</tspan>
</text>
<text id="kcore4-b-5-text" y="78.75" style="text-anchor:middle;dominant-baseline:middle;font-family:Arial;font-size:15px;fill:#FF0000">
<tspan x="59.78" dy="0">9</tspan>
</text>
<text id="kcore4-b-6-text" y="74.68" style="text-anchor:middle;dominant-baseline:middle;font-family:Arial;font-size:15px;fill:#FF0000">
<tspan x="83.54" dy="0">5</tspan>
</text>
<text id="kcore4-b-7-text" y="70.61" style="text-anchor:middle;dominant-baseline:middle;font-family:Arial;font-size:15px;fill:#FF0000">
<tspan x="107.29" dy="0">2</tspan>
</text>
<rect id="kcore3-b-1-rect" style="fill:#FF0000;fill-opacity:0.2" stroke="transparent" stroke-dasharray="0" stroke-width="0.5" x="185.16" y="-416.79" width="86.1" height="11.17" />
<rect id="kcore3-b-2-rect" style="fill:#F08080;fill-opacity:0.2" stroke="transparent" stroke-dasharray="0" stroke-width="0.5" x="193.77" y="-403.38" width="73.18" height="11.17" />
<rect id="kcore3-b-3-rect" style="fill:#FF0000;fill-opacity:0.2" stroke="transparent" stroke-dasharray="0" stroke-width="0.5" x="202.38" y="-389.98" width="60.27" height="11.17" />
<rect id="kcore3-b-4-rect" style="fill:#F08080;fill-opacity:0.2" stroke="transparent" stroke-dasharray="0" stroke-width="0.5" x="210.99" y="-376.57" width="47.35" height="11.17" />
<rect id="kcore3-b-5-rect" style="fill:#FF0000;fill-opacity:0.2" stroke="transparent" stroke-dasharray="0" stroke-width="0.5" x="219.6" y="-363.17" width="34.44" height="11.17" />
<text id="kcore3-b-1-text" y="-411.2" style="text-anchor:middle;dominant-baseline:middle;font-family:Arial;font-size:13.5px;fill:#FF0000">
<tspan x="198.07" dy="0">8</tspan>
</text>
<text id="kcore3-b-2-text" y="-397.8" style="text-anchor:middle;dominant-baseline:middle;font-family:Arial;font-size:13.5px;fill:#FF0000">
<tspan x="252.32" dy="0">15</tspan>
</text>
<text id="kcore3-b-3-text" y="-384.39" style="text-anchor:middle;dominant-baseline:middle;font-family:Arial;font-size:13.5px;fill:#FF0000">
<tspan x="211.42" dy="0">22</tspan>
</text>
<text id="kcore3-b-4-text" y="-370.99" style="text-anchor:middle;dominant-baseline:middle;font-family:Arial;font-size:13.5px;fill:#FF0000">
<tspan x="248.87" dy="0">23</tspan>
</text>
<text id="kcore3-b-5-text" y="-357.58" style="text-anchor:middle;dominant-baseline:middle;font-family:Arial;font-size:13.5px;fill:#FF0000">
<tspan x="224.76" dy="0">24</tspan>
</text>
<rect id="kcore2-a-1-rect" style="fill:#00008B;fill-opacity:0.2" stroke="transparent" stroke-dasharray="0" stroke-width="0.5" x="395.84" y="131.58" width="87.5" height="11.18" />
<text id="kcore2-a-1-text" y="137.17" style="text-anchor:middle;dominant-baseline:middle;font-family:Arial;font-size:13.5px;fill:#00008B">
<tspan x="408.96" dy="0">6</tspan>
</text>
<rect id="kcore2-b-1-rect" style="fill:#FF0000;fill-opacity:0.2" stroke="transparent" stroke-dasharray="0" stroke-width="0.5" x="409.21" y="-281.01" width="87.5" height="11.18" />
<rect id="kcore2-b-2-rect" style="fill:#F08080;fill-opacity:0.2" stroke="transparent" stroke-dasharray="0" stroke-width="0.5" x="414.07" y="-267.6" width="81.43" height="11.17" />
<rect id="kcore2-b-3-rect" style="fill:#FF0000;fill-opacity:0.2" stroke="transparent" stroke-dasharray="0" stroke-width="0.5" x="418.93" y="-254.19" width="75.35" height="11.17" />
<rect id="kcore2-b-4-rect" style="fill:#F08080;fill-opacity:0.2" stroke="transparent" stroke-dasharray="0" stroke-width="0.5" x="423.79" y="-240.79" width="69.28" height="11.17" />
<rect id="kcore2-b-5-rect" style="fill:#FF0000;fill-opacity:0.2" stroke="transparent" stroke-dasharray="0" stroke-width="0.5" x="428.65" y="-227.38" width="63.2" height="11.17" />
<rect id="kcore2-b-6-rect" style="fill:#F08080;fill-opacity:0.2" stroke="transparent" stroke-dasharray="0" stroke-width="0.5" x="433.51" y="-213.98" width="57.12" height="11.17" />
<rect id="kcore2-b-7-rect" style="fill:#FF0000;fill-opacity:0.2" stroke="transparent" stroke-dasharray="0" stroke-width="0.5" x="438.38" y="-200.57" width="51.04" height="11.17" />
<rect id="kcore2-b-8-rect" style="fill:#F08080;fill-opacity:0.2" stroke="transparent" stroke-dasharray="0" stroke-width="0.5" x="443.24" y="-187.17" width="44.96" height="11.17" />
<rect id="kcore2-b-9-rect" style="fill:#FF0000;fill-opacity:0.2" stroke="transparent" stroke-dasharray="0" stroke-width="0.5" x="448.1" y="-173.76" width="38.89" height="11.17" />
<rect id="kcore2-b-10-rect" style="fill:#F08080;fill-opacity:0.2" stroke="transparent" stroke-dasharray="0" stroke-width="0.5" x="452.96" y="-160.36" width="32.81" height="11.17" />
<rect id="kcore2-b-11-rect" style="fill:#FF0000;fill-opacity:0.2" stroke="transparent" stroke-dasharray="0" stroke-width="0.5" x="457.82" y="-146.95" width="26.74" height="11.17" />
<rect id="kcore2-b-12-rect" style="fill:#F08080;fill-opacity:0.2" stroke="transparent" stroke-dasharray="0" stroke-width="0.5" x="462.68" y="-133.55" width="20.66" height="11.17" />
<text id="kcore2-b-1-text" y="-275.42" style="text-anchor:middle;dominant-baseline:middle;font-family:Arial;font-size:13.5px;fill:#FF0000">
<tspan x="479.21" dy="0">1</tspan>
</text>
<text id="kcore2-b-2-text" y="-262.01" style="text-anchor:middle;dominant-baseline:middle;font-family:Arial;font-size:13.5px;fill:#FF0000">
<tspan x="426.28" dy="0">3</tspan>
</text>
<text id="kcore2-b-3-text" y="-248.61" style="text-anchor:middle;dominant-baseline:middle;font-family:Arial;font-size:13.5px;fill:#FF0000">
<tspan x="479.21" dy="0">4</tspan>
</text>
<text id="kcore2-b-4-text" y="-235.2" style="text-anchor:middle;dominant-baseline:middle;font-family:Arial;font-size:13.5px;fill:#FF0000">
<tspan x="434.18" dy="0">6</tspan>
</text>
<text id="kcore2-b-5-text" y="-221.8" style="text-anchor:middle;dominant-baseline:middle;font-family:Arial;font-size:13.5px;fill:#FF0000">
<tspan x="479.21" dy="0">7</tspan>
</text>
<text id="kcore2-b-6-text" y="-208.39" style="text-anchor:middle;dominant-baseline:middle;font-family:Arial;font-size:13.5px;fill:#FF0000">
<tspan x="442.08" dy="0">10</tspan>
</text>
<text id="kcore2-b-7-text" y="-194.99" style="text-anchor:middle;dominant-baseline:middle;font-family:Arial;font-size:13.5px;fill:#FF0000">
<tspan x="479.21" dy="0">11</tspan>
</text>
<text id="kcore2-b-8-text" y="-181.58" style="text-anchor:middle;dominant-baseline:middle;font-family:Arial;font-size:13.5px;fill:#FF0000">
<tspan x="449.98" dy="0">12</tspan>
</text>
<text id="kcore2-b-9-text" y="-168.18" style="text-anchor:middle;dominant-baseline:middle;font-family:Arial;font-size:13.5px;fill:#FF0000">
<tspan x="479.21" dy="0">13</tspan>
</text>
<text id="kcore2-b-10-text" y="-154.77" style="text-anchor:middle;dominant-baseline:middle;font-family:Arial;font-size:13.5px;fill:#FF0000">
<tspan x="457.88" dy="0">14</tspan>
</text>
<text id="kcore2-b-11-text" y="-141.37" style="text-anchor:middle;dominant-baseline:middle;font-family:Arial;font-size:13.5px;fill:#FF0000">
<tspan x="479.21" dy="0">16</tspan>
</text>
<text id="kcore2-b-12-text" y="-127.96" style="text-anchor:middle;dominant-baseline:middle;font-family:Arial;font-size:13.5px;fill:#FF0000">
<tspan x="465.78" dy="0">18</tspan>
</text>
<rect id="kcore4-1-rect" style="fill:none;fill-opacity:0.3" stroke="#8B4C39" stroke-dasharray="1 1" stroke-width="0" x="-96.19" y="-167.06" width="230.92" height="318.48" />
<text id="kcore4-1-text" y="-7.82" style="text-anchor:middle;dominant-baseline:middle;font-family:Arial;font-size:10.5px;fill:transparent">
</text>
<text id="kcore4-1-text" y="0" transform="rotate(-90 -69.38 0)" style="text-anchor:start;dominant-baseline:baseline;font-family:Arial;font-size:15px;fill:#8B4C39">
<tspan x="-69.38" dy="0">4-shell</tspan>
</text>
<rect id="kcore3-1-rect" style="fill:none;fill-opacity:0.3" stroke="#A15842" stroke-dasharray="1 1" stroke-width="0" x="168.4" y="-463.71" width="119.61" height="127.35" />
<text id="kcore3-1-text" y="-400.03" style="text-anchor:middle;dominant-baseline:middle;font-family:Arial;font-size:10.5px;fill:transparent">
</text>
<text id="kcore3-1-text" y="-441.81" style="text-anchor:start;dominant-baseline:baseline;font-family:Arial;font-size:15px;fill:#A15842">
<tspan x="211.45" dy="0">3-shell</tspan>
</text>
<rect id="kcore2-1-rect" style="fill:none;fill-opacity:0.3" stroke="#B7644B" stroke-dasharray="1 1" stroke-width="0" x="379.08" y="-327.92" width="134.39" height="486.32" />
<text id="kcore2-1-text" y="-84.76" style="text-anchor:middle;dominant-baseline:middle;font-family:Arial;font-size:10.5px;fill:transparent">
</text>
<text id="kcore2-1-text" y="-306.03" style="text-anchor:start;dominant-baseline:baseline;font-family:Arial;font-size:15px;fill:#B7644B">
<tspan x="429.52" dy="0">2-shell</tspan>
</text>
<rect id="annotation-1-rect" style="fill:none;fill-opacity:0.5" stroke="transparent" stroke-dasharray="0" stroke-width="0.5" x="648.05" y="-0.04" width="0.0400000000000773" height="0.04" />
<text id="annotation-1-text" y="-0.02" style="text-anchor:middle;dominant-baseline:middle;font-family:Arial;font-size:10.5px;fill:transparent">
</text>
<text id="annotation-1-text" y="0" style="text-anchor:middle;dominant-baseline:middle;font-family:Arial;font-size:3px;fill:red">
<tspan x="648.05" dy="0">.</tspan>
</text>
<text id="annotation-1-text" y="0" style="text-anchor:middle;dominant-baseline:middle;font-family:Arial;font-size:3px;fill:red">
<tspan x="-186.7" dy="0">.</tspan>
</text>
<g id="link-1-segment" fill="none" stroke="#888888" stroke-dasharray="0" stroke-width="0.3" stroke-opacity="0.5">
<path d="M-33.45 -54.31 L-35.23 54.31"/>
</g>
<g id="link-2-segment" fill="none" stroke="#888888" stroke-dasharray="0" stroke-width="0.3" stroke-opacity="0.5">
<path d="M-33.45 -54.31 L-11.48 54.31"/>
</g>
<g id="link-3-segment" fill="none" stroke="#888888" stroke-dasharray="0" stroke-width="0.3" stroke-opacity="0.5">
<path d="M-33.45 -54.31 L12.28 54.31"/>
</g>
<g id="link-4-segment" fill="none" stroke="#888888" stroke-dasharray="0" stroke-width="0.3" stroke-opacity="0.5">
<path d="M-33.45 -54.31 L36.03 54.31"/>
</g>
<g id="link-5-segment" fill="none" stroke="#888888" stroke-dasharray="0" stroke-width="0.3" stroke-opacity="0.5">
<path d="M-33.45 -54.31 L59.78 54.31"/>
</g>
<g id="link-6-segment" fill="none" stroke="#888888" stroke-dasharray="0" stroke-width="0.3" stroke-opacity="0.5">
<path d="M-33.45 -54.31 L83.54 54.31"/>
</g>
<g id="link-7-segment" fill="none" stroke="#888888" stroke-dasharray="0" stroke-width="0.3" stroke-opacity="0.5">
<path d="M-33.45 -54.31 L107.29 54.31"/>
</g>
<g id="link-8-segment" fill="none" stroke="#888888" stroke-dasharray="0" stroke-width="0.3" stroke-opacity="0.5">
<path d="M-5.74 -54.31 L-35.23 54.31"/>
</g>
<g id="link-9-segment" fill="none" stroke="#888888" stroke-dasharray="0" stroke-width="0.3" stroke-opacity="0.5">
<path d="M-5.74 -54.31 L-11.48 54.31"/>
</g>
<g id="link-10-segment" fill="none" stroke="#888888" stroke-dasharray="0" stroke-width="0.3" stroke-opacity="0.5">
<path d="M-5.74 -54.31 L12.28 54.31"/>
</g>
<g id="link-11-segment" fill="none" stroke="#888888" stroke-dasharray="0" stroke-width="0.3" stroke-opacity="0.5">
<path d="M-5.74 -54.31 L36.03 54.31"/>
</g>
<g id="link-12-segment" fill="none" stroke="#888888" stroke-dasharray="0" stroke-width="0.3" stroke-opacity="0.5">
<path d="M-5.74 -54.31 L59.78 54.31"/>
</g>
<g id="link-13-segment" fill="none" stroke="#888888" stroke-dasharray="0" stroke-width="0.3" stroke-opacity="0.5">
<path d="M-5.74 -54.31 L83.54 54.31"/>
</g>
<g id="link-14-segment" fill="none" stroke="#888888" stroke-dasharray="0" stroke-width="0.3" stroke-opacity="0.5">
<path d="M-5.74 -54.31 L107.29 54.31"/>
</g>
<g id="link-15-segment" fill="none" stroke="#888888" stroke-dasharray="0" stroke-width="0.3" stroke-opacity="0.5">
<path d="M21.98 -54.31 L-35.23 54.31"/>
</g>
<g id="link-16-segment" fill="none" stroke="#888888" stroke-dasharray="0" stroke-width="0.3" stroke-opacity="0.5">
<path d="M21.98 -54.31 L12.28 54.31"/>
</g>
<g id="link-17-segment" fill="none" stroke="#888888" stroke-dasharray="0" stroke-width="0.3" stroke-opacity="0.5">
<path d="M21.98 -54.31 L59.78 54.31"/>
</g>
<g id="link-18-segment" fill="none" stroke="#888888" stroke-dasharray="0" stroke-width="0.3" stroke-opacity="0.5">
<path d="M21.98 -54.31 L107.29 54.31"/>
</g>
<g id="link-19-segment" fill="none" stroke="#888888" stroke-dasharray="0" stroke-width="0.3" stroke-opacity="0.5">
<path d="M49.69 -54.31 L-35.23 54.31"/>
</g>
<g id="link-20-segment" fill="none" stroke="#888888" stroke-dasharray="0" stroke-width="0.3" stroke-opacity="0.5">
<path d="M49.69 -54.31 L12.28 54.31"/>
</g>
<g id="link-21-segment" fill="none" stroke="#888888" stroke-dasharray="0" stroke-width="0.3" stroke-opacity="0.5">
<path d="M49.69 -54.31 L83.54 54.31"/>
</g>
<g id="link-22-segment" fill="none" stroke="#888888" stroke-dasharray="0" stroke-width="0.3" stroke-opacity="0.5">
<path d="M49.69 -54.31 L107.29 54.31"/>
</g>
<g id="link-23-segment" fill="none" stroke="#888888" stroke-dasharray="0" stroke-width="0.3" stroke-opacity="0.5">
<path d="M77.4 -54.31 L-35.23 54.31"/>
</g>
<g id="link-24-segment" fill="none" stroke="#888888" stroke-dasharray="0" stroke-width="0.3" stroke-opacity="0.5">
<path d="M77.4 -54.31 L-11.48 54.31"/>
</g>
<g id="link-25-segment" fill="none" stroke="#888888" stroke-dasharray="0" stroke-width="0.3" stroke-opacity="0.5">
<path d="M77.4 -54.31 L36.03 54.31"/>
</g>
<g id="link-26-segment" fill="none" stroke="#888888" stroke-dasharray="0" stroke-width="0.3" stroke-opacity="0.5">
<path d="M77.4 -54.31 L59.78 54.31"/>
</g>
<g id="link-27-segment" fill="none" stroke="#888888" stroke-dasharray="0" stroke-width="0.3" stroke-opacity="0.5">
<path d="M105.11 -54.31 L-35.23 54.31"/>
</g>
<g id="link-28-segment" fill="none" stroke="#888888" stroke-dasharray="0" stroke-width="0.3" stroke-opacity="0.5">
<path d="M105.11 -54.31 L-11.48 54.31"/>
</g>
<g id="link-29-segment" fill="none" stroke="#888888" stroke-dasharray="0" stroke-width="0.3" stroke-opacity="0.5">
<path d="M105.11 -54.31 L36.03 54.31"/>
</g>
<g id="link-30-segment" fill="none" stroke="#888888" stroke-dasharray="0" stroke-width="0.3" stroke-opacity="0.5">
<path d="M105.11 -54.31 L83.54 54.31"/>
</g>
<g id="link-31-segment" fill="none" stroke="#888888" stroke-dasharray="0" stroke-width="0.3" stroke-opacity="0.5">
<path d="M-33.45 -135.78 L185.16 -405.62"/>
</g>
<g id="link-32-segment" fill="none" stroke="#888888" stroke-dasharray="0" stroke-width="0.3" stroke-opacity="0.5">
<path d="M-33.45 -135.78 L193.77 -392.21"/>
</g>
<g id="link-33-segment" fill="none" stroke="#888888" stroke-dasharray="0" stroke-width="0.3" stroke-opacity="0.5">
<path d="M-33.45 -135.78 L202.38 -378.81"/>
</g>
<g id="link-34-segment" fill="none" stroke="#888888" stroke-dasharray="0" stroke-width="0.3" stroke-opacity="0.5">
<path d="M-33.45 -135.78 L210.99 -365.4"/>
</g>
<g id="link-35-segment" fill="none" stroke="#888888" stroke-dasharray="0" stroke-width="0.3" stroke-opacity="0.5">
<path d="M-33.45 -135.78 L219.6 -352"/>
</g>
<g id="link-36-segment" fill="none" stroke="#888888" stroke-dasharray="0" stroke-width="0.3" stroke-opacity="0.5">
<path d="M-5.74 -126.28 L185.16 -405.62"/>
</g>
<g id="link-37-segment" fill="none" stroke="#888888" stroke-dasharray="0" stroke-width="0.3" stroke-opacity="0.5">
<path d="M-5.74 -126.28 L193.77 -392.21"/>
</g>
<g id="link-38-segment" fill="none" stroke="#888888" stroke-dasharray="0" stroke-width="0.3" stroke-opacity="0.5">
<path d="M-5.74 -126.28 L202.38 -378.81"/>
</g>
<g id="link-39-segment" fill="none" stroke="#888888" stroke-dasharray="0" stroke-width="0.3" stroke-opacity="0.5">
<path d="M-5.74 -126.28 L219.6 -352"/>
</g>
<g id="link-40-segment" fill="none" stroke="#888888" stroke-dasharray="0" stroke-width="0.3" stroke-opacity="0.5">
<path d="M21.98 -116.77 L193.77 -392.21"/>
</g>
<g id="link-41-segment" fill="none" stroke="#888888" stroke-dasharray="0" stroke-width="0.3" stroke-opacity="0.5">
<path d="M21.98 -116.77 L210.99 -365.4"/>
</g>
<g id="link-42-segment" fill="none" stroke="#888888" stroke-dasharray="0" stroke-width="0.3" stroke-opacity="0.5">
<path d="M49.69 -107.27 L202.38 -378.81"/>
</g>
<g id="link-43-segment" fill="none" stroke="#888888" stroke-dasharray="0" stroke-width="0.3" stroke-opacity="0.5">
<path d="M49.69 -107.27 L210.99 -365.4"/>
</g>
<g id="link-44-segment" fill="none" stroke="#888888" stroke-dasharray="0" stroke-width="0.3" stroke-opacity="0.5">
<path d="M77.4 -97.76 L185.16 -405.62"/>
</g>
<g id="link-45-segment" fill="none" stroke="#888888" stroke-dasharray="0" stroke-width="0.3" stroke-opacity="0.5">
<path d="M77.4 -97.76 L219.6 -352"/>
</g>
<g id="link-1-path" fill="none" stroke="#888888" stroke-dasharray="0" stroke-width="0.3" stroke-opacity="0.5">
<path d="M-35.23 135.78  L12.67 135.06 L60.56 134.44 L108.46 134.01 L156.36 133.75 L204.25 133.55 L252.15 133.33 L300.05 132.99 L347.94 132.44 L395.84 131.58"/>
</g>
<g id="link-2-path" fill="none" stroke="#888888" stroke-dasharray="0" stroke-width="0.3" stroke-opacity="0.5">
<path d="M-11.48 127.64  L33.78 128.32 L79.04 128.9 L124.29 129.3 L169.55 129.55 L214.81 129.73 L260.07 129.94 L305.32 130.26 L350.58 130.78 L395.84 131.58"/>
</g>
<g id="link-3-path" fill="none" stroke="#888888" stroke-dasharray="0" stroke-width="0.3" stroke-opacity="0.5">
<path d="M-33.45 -135.78  L15.74 -162.96 L64.92 -180.72 L114.1 -191.62 L163.29 -198.69 L212.47 -204.93 L261.66 -213.35 L310.84 -226.96 L360.02 -246.74 L409.21 -269.83"/>
</g>
<g id="link-4-path" fill="none" stroke="#888888" stroke-dasharray="0" stroke-width="0.3" stroke-opacity="0.5">
<path d="M-33.45 -135.78  L16.28 -160.25 L66 -176.22 L115.72 -186.04 L165.45 -192.4 L215.17 -198.02 L264.9 -205.6 L314.62 -217.84 L364.34 -235.64 L414.07 -256.43"/>
</g>
<g id="link-5-path" fill="none" stroke="#888888" stroke-dasharray="0" stroke-width="0.3" stroke-opacity="0.5">
<path d="M-33.45 -135.78  L16.82 -157.53 L67.08 -171.73 L117.34 -180.46 L167.61 -186.11 L217.87 -191.1 L268.14 -197.84 L318.4 -208.72 L368.67 -224.55 L418.93 -243.02"/>
</g>
<g id="link-6-path" fill="none" stroke="#888888" stroke-dasharray="0" stroke-width="0.3" stroke-opacity="0.5">
<path d="M-33.45 -135.78  L17.36 -154.81 L68.16 -167.24 L118.96 -174.87 L169.77 -179.82 L220.57 -184.19 L271.38 -190.08 L322.18 -199.6 L372.99 -213.45 L423.79 -229.62"/>
</g>
<g id="link-7-path" fill="none" stroke="#888888" stroke-dasharray="0" stroke-width="0.3" stroke-opacity="0.5">
<path d="M-33.45 -135.78  L17.9 -152.09 L69.24 -162.74 L120.59 -169.29 L171.93 -173.53 L223.27 -177.27 L274.62 -182.33 L325.96 -190.49 L377.31 -202.36 L428.65 -216.21"/>
</g>
<g id="link-8-path" fill="none" stroke="#888888" stroke-dasharray="0" stroke-width="0.3" stroke-opacity="0.5">
<path d="M-33.45 -135.78  L18.44 -149.37 L70.32 -158.25 L122.21 -163.7 L174.09 -167.24 L225.97 -170.36 L277.86 -174.57 L329.74 -181.37 L381.63 -191.26 L433.51 -202.81"/>
</g>
<g id="link-9-path" fill="none" stroke="#888888" stroke-dasharray="0" stroke-width="0.3" stroke-opacity="0.5">
<path d="M-33.45 -135.78  L18.98 -146.66 L71.4 -153.76 L123.83 -158.12 L176.25 -160.95 L228.68 -163.44 L281.1 -166.81 L333.53 -172.25 L385.95 -180.17 L438.38 -189.4"/>
</g>
<g id="link-10-path" fill="none" stroke="#888888" stroke-dasharray="0" stroke-width="0.3" stroke-opacity="0.5">
<path d="M-33.45 -135.78  L19.52 -143.94 L72.48 -149.26 L125.45 -152.53 L178.41 -154.66 L231.38 -156.53 L284.34 -159.05 L337.31 -163.13 L390.27 -169.07 L443.24 -176"/>
</g>
<g id="link-11-path" fill="none" stroke="#888888" stroke-dasharray="0" stroke-width="0.3" stroke-opacity="0.5">
<path d="M-33.45 -135.78  L20.06 -141.22 L73.56 -144.77 L127.07 -146.95 L180.57 -148.36 L234.08 -149.61 L287.58 -151.3 L341.09 -154.02 L394.59 -157.97 L448.1 -162.59"/>
</g>
<g id="link-12-path" fill="none" stroke="#888888" stroke-dasharray="0" stroke-width="0.3" stroke-opacity="0.5">
<path d="M-33.45 -135.78  L20.6 -138.5 L74.64 -140.28 L128.69 -141.37 L182.73 -142.07 L236.78 -142.7 L290.82 -143.54 L344.87 -144.9 L398.91 -146.88 L452.96 -149.19"/>
</g>
<g id="link-13-path" fill="none" stroke="#888888" stroke-dasharray="0" stroke-width="0.3" stroke-opacity="0.5">
<path d="M-33.45 -135.78  L21.14 -135.78 L75.72 -135.78 L130.31 -135.78 L184.89 -135.78 L239.48 -135.78 L294.06 -135.78 L348.65 -135.78 L403.24 -135.78 L457.82 -135.78"/>
</g>
<g id="link-14-path" fill="none" stroke="#888888" stroke-dasharray="0" stroke-width="0.3" stroke-opacity="0.5">
<path d="M-33.45 -135.78  L21.68 -133.06 L76.8 -131.29 L131.93 -130.2 L187.05 -129.49 L242.18 -128.87 L297.31 -128.03 L352.43 -126.67 L407.56 -124.69 L462.68 -122.38"/>
</g>
<g id="link-15-path" fill="none" stroke="#888888" stroke-dasharray="0" stroke-width="0.3" stroke-opacity="0.5">
<path d="M-5.74 -126.28  L40.37 -155.39 L86.47 -174.4 L132.58 -186.08 L178.68 -193.65 L224.79 -200.33 L270.89 -209.35 L317 -223.92 L363.1 -245.1 L409.21 -269.83"/>
</g>
<g id="link-16-path" fill="none" stroke="#888888" stroke-dasharray="0" stroke-width="0.3" stroke-opacity="0.5">
<path d="M-5.74 -126.28  L41.45 -149.95 L88.63 -165.41 L135.82 -174.91 L183 -181.06 L230.19 -186.5 L277.37 -193.83 L324.56 -205.68 L371.74 -222.91 L418.93 -243.02"/>
</g>
<g id="link-17-path" fill="none" stroke="#888888" stroke-dasharray="0" stroke-width="0.3" stroke-opacity="0.5">
<path d="M-5.74 -126.28  L42.53 -144.51 L90.79 -156.43 L139.06 -163.74 L187.33 -168.48 L235.59 -172.67 L283.86 -178.32 L332.12 -187.45 L380.39 -200.72 L428.65 -216.21"/>
</g>
<g id="link-18-path" fill="none" stroke="#888888" stroke-dasharray="0" stroke-width="0.3" stroke-opacity="0.5">
<path d="M-5.74 -126.28  L43.61 -139.08 L92.95 -147.44 L142.3 -152.57 L191.65 -155.9 L240.99 -158.84 L290.34 -162.81 L339.68 -169.21 L389.03 -178.53 L438.38 -189.4"/>
</g>
<g id="link-19-path" fill="none" stroke="#888888" stroke-dasharray="0" stroke-width="0.3" stroke-opacity="0.5">
<path d="M-5.74 -126.28  L44.15 -136.36 L94.04 -142.94 L143.92 -146.99 L193.81 -149.61 L243.69 -151.93 L293.58 -155.05 L343.46 -160.09 L393.35 -167.43 L443.24 -176"/>
</g>
<g id="link-20-path" fill="none" stroke="#888888" stroke-dasharray="0" stroke-width="0.3" stroke-opacity="0.5">
<path d="M-5.74 -126.28  L44.69 -133.64 L95.12 -138.45 L145.54 -141.41 L195.97 -143.32 L246.39 -145.01 L296.82 -147.29 L347.25 -150.98 L397.67 -156.34 L448.1 -162.59"/>
</g>
<g id="link-21-path" fill="none" stroke="#888888" stroke-dasharray="0" stroke-width="0.3" stroke-opacity="0.5">
<path d="M-5.74 -126.28  L45.23 -130.92 L96.2 -133.96 L147.16 -135.82 L198.13 -137.03 L249.09 -138.1 L300.06 -139.54 L351.03 -141.86 L401.99 -145.24 L452.96 -149.19"/>
</g>
<g id="link-22-path" fill="none" stroke="#888888" stroke-dasharray="0" stroke-width="0.3" stroke-opacity="0.5">
<path d="M-5.74 -126.28  L45.77 -128.21 L97.28 -129.46 L148.78 -130.24 L200.29 -130.74 L251.8 -131.18 L303.3 -131.78 L354.81 -132.74 L406.31 -134.15 L457.82 -135.78"/>
</g>
<g id="link-23-path" fill="none" stroke="#888888" stroke-dasharray="0" stroke-width="0.3" stroke-opacity="0.5">
<path d="M21.98 -116.77  L65.54 -145.09 L109.11 -163.59 L152.67 -174.95 L196.24 -182.31 L239.8 -188.81 L283.37 -197.59 L326.94 -211.76 L370.5 -232.37 L414.07 -256.43"/>
</g>
<g id="link-24-path" fill="none" stroke="#888888" stroke-dasharray="0" stroke-width="0.3" stroke-opacity="0.5">
<path d="M21.98 -116.77  L67.7 -134.22 L113.43 -145.61 L159.15 -152.61 L204.88 -157.15 L250.61 -161.15 L296.33 -166.56 L342.06 -175.29 L387.79 -187.99 L433.51 -202.81"/>
</g>
<g id="link-25-path" fill="none" stroke="#888888" stroke-dasharray="0" stroke-width="0.3" stroke-opacity="0.5">
<path d="M49.69 -107.27  L91.25 -132.08 L132.82 -148.28 L174.39 -158.23 L215.96 -164.68 L257.52 -170.38 L299.09 -178.07 L340.66 -190.48 L382.22 -208.54 L423.79 -229.62"/>
</g>
<g id="link-26-path" fill="none" stroke="#888888" stroke-dasharray="0" stroke-width="0.3" stroke-opacity="0.5">
<path d="M77.4 -97.76  L120.21 -102.75 L163.02 -106.01 L205.83 -108.02 L248.64 -109.31 L291.45 -110.46 L334.25 -112.01 L377.06 -114.5 L419.87 -118.14 L462.68 -122.38"/>
</g>
</svg>