<svg xmlns="http://www.w3.org/2000/svg" viewBox="-320 -360 913.5 661.5">
<rect id="kcore5-a-1-rect" style="fill:#00008B;fill-opacity:0.2" stroke="transparent" stroke-dasharray="0" stroke-width="0.5" x="-114.9" y="-114.04" width="17.42" height="68.43" />
<rect id="kcore5-a-2-rect" style="fill:#4169E1;fill-opacity:0.2" stroke="transparent" stroke-dasharray="0" stroke-width="0.5" x="-95.55" y="-109.25" width="17.42" height="63.64" />
<rect id="kcore5-a-3-rect" style="fill:#00008B;fill-opacity:0.2" stroke="transparent" stroke-dasharray="0" stroke-width="0.5" x="-76.2" y="-104.46" width="17.42" height="58.85" />
<rect id="kcore5-a-4-rect" style="fill:#4169E1;fill-opacity:0.2" stroke="transparent" stroke-dasharray="0" stroke-width="0.5" x="-56.84" y="-99.67" width="17.41" height="54.06" />
<rect id="kcore5-a-5-rect" style="fill:#00008B;fill-opacity:0.2" stroke="transparent" stroke-dasharray="0" stroke-width="0.5" x="-37.49" y="-94.88" width="17.41" height="49.27" />
<rect id="kcore5-a-6-rect" style="fill:#4169E1;fill-opacity:0.2" stroke="transparent" stroke-dasharray="0" stroke-width="0.5" x="-18.14" y="-90.09" width="17.41" height="44.48" />
<rect id="kcore5-a-7-rect" style="fill:#00008B;fill-opacity:0.2" stroke="transparent" stroke-dasharray="0" stroke-width="0.5" x="1.21" y="-85.3" width="17.42" height="39.69" />
<rect id="kcore5-a-8-rect" style="fill:#4169E1;fill-opacity:0.2" stroke="transparent" stroke-dasharray="0" stroke-width="0.5" x="20.56" y="-80.51" width="17.42" height="34.9" />
<rect id="kcore5-a-9-rect" style="fill:#00008B;fill-opacity:0.2" stroke="transparent" stroke-dasharray="0" stroke-width="0.5" x="39.91" y="-75.72" width="17.42" height="30.11" />
<rect id="kcore5-a-10-rect" style="fill:#4169E1;fill-opacity:0.2" stroke="transparent" stroke-dasharray="0" stroke-width="0.5" x="59.26" y="-70.93" width="17.42" height="25.32" />
<text id="kcore5-a-1-text" y="-79.82" style="text-anchor:middle;dominant-baseline:middle;font-family:Arial;font-size:15px;fill:#00008B">
<tspan x="-106.19" dy="0">1</tspan>
</text>
<text id="kcore5-a-2-text" y="-77.43" style="text-anchor:middle;dominant-baseline:middle;font-family:Arial;font-size:15px;fill:#00008B">
<tspan x="-86.84" dy="0">2</tspan>
</text>
<text id="kcore5-a-3-text" y="-75.04" style="text-anchor:middle;dominant-baseline:middle;font-family:Arial;font-size:15px;fill:#00008B">
<tspan x="-67.49" dy="0">3</tspan>
</text>
<text id="kcore5-a-4-text" y="-72.64" style="text-anchor:middle;dominant-baseline:middle;font-family:Arial;font-size:15px;fill:#00008B">
<tspan x="-48.14" dy="0">4</tspan>
</text>
<text id="kcore5-a-5-text" y="-70.25" style="text-anchor:middle;dominant-baseline:middle;font-family:Arial;font-size:15px;fill:#00008B">
<tspan x="-28.79" dy="0">5</tspan>
</text>
<text id="kcore5-a-6-text" y="-67.85" style="text-anchor:middle;dominant-baseline:middle;font-family:Arial;font-size:15px;fill:#00008B">
<tspan x="-9.43" dy="0">7</tspan>
</text>
<text id="kcore5-a-7-text" y="-65.46" style="text-anchor:middle;dominant-baseline:middle;font-family:Arial;font-size:15px;fill:#00008B">
<tspan x="9.92" dy="0">8</tspan>
</text>
<text id="kcore5-a-8-text" y="-63.06" style="text-anchor:middle;dominant-baseline:middle;font-family:Arial;font-size:15px;fill:#00008B">
<tspan x="29.27" dy="0">6</tspan>
</text>
<text id="kcore5-a-9-text" y="-60.67" style="text-anchor:middle;dominant-baseline:middle;font-family:Arial;font-size:15px;fill:#00008B">
<tspan x="48.62" dy="0">9</tspan>
</text>
<text id="kcore5-a-10-text" y="-58.27" style="text-anchor:middle;dominant-baseline:middle;font-family:Arial;font-size:15px;fill:#00008B">
<tspan x="67.97" dy="0">10</tspan>
</text>
<rect id="kcore5-b-1-rect" style="fill:#FF0000;fill-opacity:0.2" stroke="transparent" stroke-dasharray="0" stroke-width="0.5" x="-114.9" y="45.61" width="17.42" height="68.43" />
<rect id="kcore5-b-2-rect" style="fill:#F08080;fill-opacity:0.2" stroke="transparent" stroke-dasharray="0" stroke-width="0.5" x="-95.55" y="45.61" width="17.42" height="63.64" />
<rect id="kcore5-b-3-rect" style="fill:#FF0000;fill-opacity:0.2" stroke="transparent" stroke-dasharray="0" stroke-width="0.5" x="-76.2" y="45.61" width="17.42" height="58.85" />
<rect id="kcore5-b-4-rect" style="fill:#F08080;fill-opacity:0.2" stroke="transparent" stroke-dasharray="0" stroke-width="0.5" x="-56.84" y="45.61" width="17.41" height="54.06" />
<rect id="kcore5-b-5-rect" style="fill:#FF0000;fill-opacity:0.2" stroke="transparent" stroke-dasharray="0" stroke-width="0.5" x="-37.49" y="45.61" width="17.41" height="49.27" />
<rect id="kcore5-b-6-rect" style="fill:#F08080;fill-opacity:0.2" stroke="transparent" stroke-dasharray="0" stroke-width="0.5" x="-18.14" y="45.61" width="17.41" height="44.48" />
<rect id="kcore5-b-7-rect" style="fill:#FF0000;fill-opacity:0.2" stroke="transparent" stroke-dasharray="0" stroke-width="0.5" x="1.21" y="45.61" width="17.42" height="39.69" />
<rect id="kcore5-b-8-rect" style="fill:#F08080;fill-opacity:0.2" stroke="transparent" stroke-dasharray="0" stroke-width="0.5" x="20.56" y="45.61" width="17.42" height="34.9" />
<rect id="kcore5-b-9-rect" style="fill:#FF0000;fill-opacity:0.2" stroke="transparent" stroke-dasharray="0" stroke-width="0.5" x="39.91" y="45.61" width="17.42" height="30.11" />
<rect id="kcore5-b-10-rect" style="fill:#F08080;fill-opacity:0.2" stroke="transparent" stroke-dasharray="0" stroke-width="0.5" x="59.26" y="45.61" width="17.42" height="25.32" />
<text id="kcore5-b-1-text" y="79.82" style="text-anchor:middle;dominant-baseline:middle;font-family:Arial;font-size:15px;fill:#FF0000">
<tspan x="-106.19" dy="0">1</tspan>
</text>
<text id="kcore5-b-2-text" y="77.43" style="text-anchor:middle;dominant-baseline:middle;font-family:Arial;font-size:15px;fill:#FF0000">
<tspan x="-86.84" dy="0">2</tspan>
</text>
<text id="kcore5-b-3-text" y="75.04" style="text-anchor:middle;dominant-baseline:middle;font-family:Arial;font-size:15px;fill:#FF0000">
<tspan x="-67.49" dy="0">3</tspan>
</text>
<text id="kcore5-b-4-text" y="72.64" style="text-anchor:middle;dominant-baseline:middle;font-family:Arial;font-size:15px;fill:#FF0000">
<tspan x="-48.14" dy="0">4</tspan>
</text>
<text id="kcore5-b-5-text" y="70.25" style="text-anchor:middle;dominant-baseline:middle;font-family:Arial;font-size:15px;fill:#FF0000">
<tspan x="-28.79" dy="0">5</tspan>
</text>
<text id="kcore5-b-6-text" y="67.85" style="text-anchor:middle;dominant-baseline:middle;font-family:Arial;font-size:15px;fill:#FF0000">
<tspan x="-9.43" dy="0">7</tspan>
</text>
<text id="kcore5-b-7-text" y="65.46" style="text-anchor:middle;dominant-baseline:middle;font-family:Arial;font-size:15px;fill:#FF0000">
<tspan x="9.92" dy="0">9</tspan>
</text>
<text id="kcore5-b-8-text" y="63.06" style="text-anchor:middle;dominant-baseline:middle;font-family:Arial;font-size:15px;fill:#FF0000">
<tspan x="29.27" dy="0">12</tspan>
</text>
<text id="kcore5-b-9-text" y="60.67" style="text-anchor:middle;dominant-baseline:middle;font-family:Arial;font-size:15px;fill:#FF0000">
<tspan x="48.62" dy="0">10</tspan>
</text>
<text id="kcore5-b-10-text" y="58.27" style="text-anchor:middle;dominant-baseline:middle;font-family:Arial;font-size:15px;fill:#FF0000">
<tspan x="67.97" dy="0">11</tspan>
</text>
<rect id="kcore4-a-1-rect" style="fill:#00008B;fill-opacity:0.2" stroke="transparent" stroke-dasharray="0" stroke-width="0.5" x="130.38" y="240.34" width="37.74" height="12.27" />
<text id="kcore4-a-1-text" y="246.47" style="text-anchor:middle;dominant-baseline:middle;font-family:Arial;font-size:13.5px;fill:#00008B">
<tspan x="136.04" dy="0">12</tspan>
</text>
<rect id="kcore4-b-1-rect" style="fill:#FF0000;fill-opacity:0.2" stroke="transparent" stroke-dasharray="0" stroke-width="0.5" x="130.38" y="-301.68" width="37.74" height="12.27" />
<rect id="kcore4-b-2-rect" style="fill:#F08080;fill-opacity:0.2" stroke="transparent" stroke-dasharray="0" stroke-width="0.5" x="138.24" y="-286.96" width="25.95" height="12.27" />
<rect id="kcore4-b-3-rect" style="fill:#FF0000;fill-opacity:0.2" stroke="transparent" stroke-dasharray="0" stroke-width="0.5" x="146.1" y="-272.24" width="14.15" height="12.27" />
<text id="kcore4-b-1-text" y="-295.55" style="text-anchor:middle;dominant-baseline:middle;font-family:Arial;font-size:13.5px;fill:#FF0000">
<tspan x="136.04" dy="0">6</tspan>
</text>
<text id="kcore4-b-2-text" y="-280.83" style="text-anchor:middle;dominant-baseline:middle;font-family:Arial;font-size:13.5px;fill:#FF0000">
<tspan x="159" dy="0">13</tspan>
</text>
<text id="kcore4-b-3-text" y="-266.1" style="text-anchor:middle;dominant-baseline:middle;font-family:Arial;font-size:13.5px;fill:#FF0000">
<tspan x="148.23" dy="0">14</tspan>
</text>
<rect id="kcore3-a-1-rect" style="fill:#00008B;fill-opacity:0.2" stroke="transparent" stroke-dasharray="0" stroke-width="0.5" x="241.89" y="212.55" width="47.17" height="12.27" />
<rect id="kcore3-a-2-rect" style="fill:#4169E1;fill-opacity:0.2" stroke="transparent" stroke-dasharray="0" stroke-width="0.5" x="247.79" y="197.83" width="38.32" height="12.27" />
<rect id="kcore3-a-3-rect" style="fill:#00008B;fill-opacity:0.2" stroke="transparent" stroke-dasharray="0" stroke-width="0.5" x="253.69" y="183.11" width="29.48" height="12.27" />
<rect id="kcore3-a-4-rect" style="fill:#4169E1;fill-opacity:0.2" stroke="transparent" stroke-dasharray="0" stroke-width="0.5" x="259.58" y="168.38" width="20.64" height="12.27" />
<text id="kcore3-a-1-text" y="218.69" style="text-anchor:middle;dominant-baseline:middle;font-family:Arial;font-size:13.5px;fill:#00008B">
<tspan x="279.63" dy="0">11</tspan>
</text>
<text id="kcore3-a-2-text" y="203.96" style="text-anchor:middle;dominant-baseline:middle;font-family:Arial;font-size:13.5px;fill:#00008B">
<tspan x="253.54" dy="0">14</tspan>
</text>
<text id="kcore3-a-3-text" y="189.24" style="text-anchor:middle;dominant-baseline:middle;font-family:Arial;font-size:13.5px;fill:#00008B">
<tspan x="277.27" dy="0">15</tspan>
</text>
<text id="kcore3-a-4-text" y="174.52" style="text-anchor:middle;dominant-baseline:middle;font-family:Arial;font-size:13.5px;fill:#00008B">
<tspan x="262.68" dy="0">13</tspan>
</text>
<rect id="kcore3-b-1-rect" style="fill:#FF0000;fill-opacity:0.2" stroke="transparent" stroke-dasharray="0" stroke-width="0.5" x="241.89" y="-273.89" width="47.17" height="12.26" />
<rect id="kcore3-b-2-rect" style="fill:#F08080;fill-opacity:0.2" stroke="transparent" stroke-dasharray="0" stroke-width="0.5" x="246.61" y="-259.17" width="40.09" height="12.27" />
<rect id="kcore3-b-3-rect" style="fill:#FF0000;fill-opacity:0.2" stroke="transparent" stroke-dasharray="0" stroke-width="0.5" x="251.33" y="-244.45" width="33.02" height="12.27" />
<rect id="kcore3-b-4-rect" style="fill:#F08080;fill-opacity:0.2" stroke="transparent" stroke-dasharray="0" stroke-width="0.5" x="256.04" y="-229.73" width="25.95" height="12.27" />
<rect id="kcore3-b-5-rect" style="fill:#FF0000;fill-opacity:0.2" stroke="transparent" stroke-dasharray="0" stroke-width="0.5" x="260.76" y="-215.01" width="18.87" height="12.27" />
<text id="kcore3-b-1-text" y="-267.76" style="text-anchor:middle;dominant-baseline:middle;font-family:Arial;font-size:13.5px;fill:#FF0000">
<tspan x="248.97" dy="0">8</tspan>
</text>
<text id="kcore3-b-2-text" y="-253.04" style="text-anchor:middle;dominant-baseline:middle;font-family:Arial;font-size:13.5px;fill:#FF0000">
<tspan x="278.69" dy="0">16</tspan>
</text>
<text id="kcore3-b-3-text" y="-238.32" style="text-anchor:middle;dominant-baseline:middle;font-family:Arial;font-size:13.5px;fill:#FF0000">
<tspan x="256.28" dy="0">15</tspan>
</text>
<text id="kcore3-b-4-text" y="-223.59" style="text-anchor:middle;dominant-baseline:middle;font-family:Arial;font-size:13.5px;fill:#FF0000">
<tspan x="276.8" dy="0">18</tspan>
</text>
<text id="kcore3-b-5-text" y="-208.87" style="text-anchor:middle;dominant-baseline:middle;font-family:Arial;font-size:13.5px;fill:#FF0000">
<tspan x="263.59" dy="0">17</tspan>
</text>
<rect id="kcore2-a-1-rect" style="fill:#00008B;fill-opacity:0.2" stroke="transparent" stroke-dasharray="0" stroke-width="0.5" x="377.99" y="120" width="51.95" height="12.27" />
<text id="kcore2-a-1-text" y="126.14" style="text-anchor:middle;dominant-baseline:middle;font-family:Arial;font-size:13.5px;fill:#00008B">
<tspan x="385.78" dy="0">16</tspan>
</text>
<rect id="kcore2-b-1-rect" style="fill:#FF0000;fill-opacity:0.2" stroke="transparent" stroke-dasharray="0" stroke-width="0.5" x="380.88" y="-187.65" width="51.94" height="12.27" />
<rect id="kcore2-b-2-rect" style="fill:#F08080;fill-opacity:0.2" stroke="transparent" stroke-dasharray="0" stroke-width="0.5" x="387.8" y="-172.92" width="43.29" height="12.26" />
<rect id="kcore2-b-3-rect" style="fill:#FF0000;fill-opacity:0.2" stroke="transparent" stroke-dasharray="0" stroke-width="0.5" x="394.73" y="-158.2" width="34.63" height="12.27" />
<rect id="kcore2-b-4-rect" style="fill:#F08080;fill-opacity:0.2" stroke="transparent" stroke-dasharray="0" stroke-width="0.5" x="401.65" y="-143.48" width="25.98" height="12.27" />
<rect id="kcore2-b-5-rect" style="fill:#FF0000;fill-opacity:0.2" stroke="transparent" stroke-dasharray="0" stroke-width="0.5" x="408.58" y="-128.76" width="17.32" height="12.27" />
<text id="kcore2-b-1-text" y="-181.51" style="text-anchor:middle;dominant-baseline:middle;font-family:Arial;font-size:13.5px;fill:#FF0000">
<tspan x="388.67" dy="0">21</tspan>
</text>
<text id="kcore2-b-2-text" y="-166.79" style="text-anchor:middle;dominant-baseline:middle;font-family:Arial;font-size:13.5px;fill:#FF0000">
<tspan x="422.43" dy="0">22</tspan>
</text>
<text id="kcore2-b-3-text" y="-152.07" style="text-anchor:middle;dominant-baseline:middle;font-family:Arial;font-size:13.5px;fill:#FF0000">
<tspan x="399.92" dy="0">20</tspan>
</text>
<text id="kcore2-b-4-text" y="-137.35" style="text-anchor:middle;dominant-baseline:middle;font-family:Arial;font-size:13.5px;fill:#FF0000">
<tspan x="422.43" dy="0">23</tspan>
</text>
<text id="kcore2-b-5-text" y="-122.62" style="text-anchor:middle;dominant-baseline:middle;font-family:Arial;font-size:13.5px;fill:#FF0000">
<tspan x="411.18" dy="0">19</tspan>
</text>
<rect id="kcore5-1-rect" style="fill:none;fill-opacity:0.3" stroke="#8B4C39" stroke-dasharray="1 1" stroke-width="0" x="-170.11" y="-131.21" width="265.19" height="253.83" />
<text id="kcore5-1-text" y="-4.29" style="text-anchor:middle;dominant-baseline:middle;font-family:Arial;font-size:10.5px;fill:transparent">
</text>
<text id="kcore5-1-text" y="0" transform="rotate(-90 -140.66 0)" style="text-anchor:start;dominant-baseline:baseline;font-family:Arial;font-size:15px;fill:#8B4C39">
<tspan x="-140.66" dy="0">5-shell</tspan>
</text>
<rect id="kcore4-1-rect" style="fill:none;fill-opacity:0.3" stroke="#9B553F" stroke-dasharray="1 1" stroke-width="0" x="111.98" y="-331.74" width="74.54" height="592.94" />
<text id="kcore4-1-text" y="-35.27" style="text-anchor:middle;dominant-baseline:middle;font-family:Arial;font-size:10.5px;fill:transparent">
</text>
<text id="kcore4-1-text" y="-319.72" style="text-anchor:start;dominant-baseline:baseline;font-family:Arial;font-size:15px;fill:#9B553F">
<tspan x="130.85" dy="0">4-shell</tspan>
</text>
<rect id="kcore3-1-rect" style="fill:none;fill-opacity:0.3" stroke="#AC5E46" stroke-dasharray="1 1" stroke-width="0" x="223.49" y="-303.95" width="83.98" height="537.36" />
<text id="kcore3-1-text" y="-35.27" style="text-anchor:middle;dominant-baseline:middle;font-family:Arial;font-size:10.5px;fill:transparent">
</text>
<text id="kcore3-1-text" y="-291.93" style="text-anchor:start;dominant-baseline:baseline;font-family:Arial;font-size:15px;fill:#AC5E46">
<tspan x="247.08" dy="0">3-shell</tspan>
</text>
<rect id="kcore2-1-rect" style="fill:none;fill-opacity:0.3" stroke="#BC674D" stroke-dasharray="1 1" stroke-width="0" x="359.59" y="-217.7" width="91.6300000000001" height="358.56" />
<text id="kcore2-1-text" y="-38.42" style="text-anchor:middle;dominant-baseline:middle;font-family:Arial;font-size:10.5px;fill:transparent">
</text>
<text id="kcore2-1-text" y="-205.68" style="text-anchor:start;dominant-baseline:baseline;font-family:Arial;font-size:15px;fill:#BC674D">
<tspan x="387" dy="0">2-shell</tspan>
</text>
<rect id="edge-kcore1-a-2-1-rect" style="fill:#00008B;fill-opacity:0.11" stroke="transparent" stroke-dasharray="0" stroke-width="0.5" x="-53.47" y="228.25" width="18.4" height="18.41" />
<text id="edge-kcore1-a-2-1-text" y="237.45" transform="rotate(30 -44.27 237.45)" style="text-anchor:middle;dominant-baseline:middle;font-family:Arial;font-size:12px;fill:#00008B">
<tspan x="-44.27" dy="0"> 17</tspan>
</text>
<rect id="edge-kcore1-b-2-1-rect" style="fill:#FF0000;fill-opacity:0.11" stroke="transparent" stroke-dasharray="0" stroke-width="0.5" x="-59.6" y="-247.88" width="30.67" height="30.67" />
<text id="edge-kcore1-b-2-1-text" y="-232.55" transform="rotate(-30 -44.27 -232.55)" style="text-anchor:start;dominant-baseline:baseline;font-family:Arial;font-size:12px;fill:#FF0000">
<tspan x="-44.27" dy="0"> 25 26  27 28</tspan>
</text>
<rect id="fat-kcore1-a-1-rect" style="fill:#00008B;fill-opacity:0.11" stroke="transparent" stroke-dasharray="0" stroke-width="0.5" x="-308.76" y="31.25" width="18.4" height="18.4" />
<text id="fat-kcore1-a-1-text" y="40.45" style="text-anchor:middle;dominant-baseline:middle;font-family:Arial;font-size:12px;fill:#00008B">
<tspan x="-299.56" dy="0"> 17</tspan>
</text>
<rect id="fat-kcore1-b-1-rect" style="fill:#FF0000;fill-opacity:0.11" stroke="transparent" stroke-dasharray="0" stroke-width="0.5" x="-308.76" y="-49.65" width="18.4" height="18.4" />
<text id="fat-kcore1-b-1-text" y="-40.45" style="text-anchor:middle;dominant-baseline:middle;font-family:Arial;font-size:12px;fill:#FF0000">
<tspan x="-299.56" dy="0"> 24</tspan>
</text>
<rect id="annotation-1-rect" style="fill:none;fill-opacity:0.5" stroke="transparent" stroke-dasharray="0" stroke-width="0.5" x="544.26" y="-0.04" width="0.0399999999999636" height="0.04" />
<text id="annotation-1-text" y="-0.02" style="text-anchor:middle;dominant-baseline:middle;font-family:Arial;font-size:10.5px;fill:transparent">
</text>
<text id="annotation-1-text" y="0" style="text-anchor:middle;dominant-baseline:middle;font-family:Arial;font-size:3px;fill:red">
<tspan x="544.26" dy="0">.</tspan>
</text>
<text id="annotation-1-text" y="0" style="text-anchor:middle;dominant-baseline:middle;font-family:Arial;font-size:3px;fill:red">
<tspan x="-211.83" dy="0">.</tspan>
</text>
<g id="link-1-segment" fill="none" stroke="#888888" stroke-dasharray="0" stroke-width="0.3" stroke-opacity="0.5">
<path d="M-290.36 40.45 L-114.9 79.82"/>
</g>
<g id="link-2-segment" fill="none" stroke="#888888" stroke-dasharray="0" stroke-width="0.3" stroke-opacity="0.5">
<path d="M-290.36 -40.45 L-114.9 -79.82"/>
</g>
<g id="link-3-segment" fill="none" stroke="#888888" stroke-dasharray="0" stroke-width="0.3" stroke-opacity="0.5">
<path d="M-106.19 -45.61 L-106.19 45.61"/>
</g>
<g id="link-4-segment" fill="none" stroke="#888888" stroke-dasharray="0" stroke-width="0.3" stroke-opacity="0.5">
<path d="M-106.19 -45.61 L-86.84 45.61"/>
</g>
<g id="link-5-segment" fill="none" stroke="#888888" stroke-dasharray="0" stroke-width="0.3" stroke-opacity="0.5">
<path d="M-106.19 -45.61 L-67.49 45.61"/>
</g>
<g id="link-6-segment" fill="none" stroke="#888888" stroke-dasharray="0" stroke-width="0.3" stroke-opacity="0.5">
<path d="M-106.19 -45.61 L-48.14 45.61"/>
</g>
<g id="link-7-segment" fill="none" stroke="#888888" stroke-dasharray="0" stroke-width="0.3" stroke-opacity="0.5">
<path d="M-106.19 -45.61 L-9.43 45.61"/>
</g>
<g id="link-8-segment" fill="none" stroke="#888888" stroke-dasharray="0" stroke-width="0.3" stroke-opacity="0.5">
<path d="M-106.19 -45.61 L9.92 45.61"/>
</g>
<g id="link-9-segment" fill="none" stroke="#888888" stroke-dasharray="0" stroke-width="0.3" stroke-opacity="0.5">
<path d="M-106.19 -45.61 L29.27 45.61"/>
</g>
<g id="link-10-segment" fill="none" stroke="#888888" stroke-dasharray="0" stroke-width="0.3" stroke-opacity="0.5">
<path d="M-106.19 -45.61 L48.62 45.61"/>
</g>
<g id="link-11-segment" fill="none" stroke="#888888" stroke-dasharray="0" stroke-width="0.3" stroke-opacity="0.5">
<path d="M-106.19 -45.61 L67.97 45.61"/>
</g>
<g id="link-12-segment" fill="none" stroke="#888888" stroke-dasharray="0" stroke-width="0.3" stroke-opacity="0.5">
<path d="M-86.84 -45.61 L-106.19 45.61"/>
</g>
<g id="link-13-segment" fill="none" stroke="#888888" stroke-dasharray="0" stroke-width="0.3" stroke-opacity="0.5">
<path d="M-86.84 -45.61 L-86.84 45.61"/>
</g>
<g id="link-14-segment" fill="none" stroke="#888888" stroke-dasharray="0" stroke-width="0.3" stroke-opacity="0.5">
<path d="M-86.84 -45.61 L-28.79 45.61"/>
</g>
<g id="link-15-segment" fill="none" stroke="#888888" stroke-dasharray="0" stroke-width="0.3" stroke-opacity="0.5">
<path d="M-86.84 -45.61 L-9.43 45.61"/>
</g>
<g id="link-16-segment" fill="none" stroke="#888888" stroke-dasharray="0" stroke-width="0.3" stroke-opacity="0.5">
<path d="M-86.84 -45.61 L9.92 45.61"/>
</g>
<g id="link-17-segment" fill="none" stroke="#888888" stroke-dasharray="0" stroke-width="0.3" stroke-opacity="0.5">
<path d="M-86.84 -45.61 L29.27 45.61"/>
</g>
<g id="link-18-segment" fill="none" stroke="#888888" stroke-dasharray="0" stroke-width="0.3" stroke-opacity="0.5">
<path d="M-86.84 -45.61 L48.62 45.61"/>
</g>
<g id="link-19-segment" fill="none" stroke="#888888" stroke-dasharray="0" stroke-width="0.3" stroke-opacity="0.5">
<path d="M-86.84 -45.61 L67.97 45.61"/>
</g>
<g id="link-20-segment" fill="none" stroke="#888888" stroke-dasharray="0" stroke-width="0.3" stroke-opacity="0.5">
<path d="M-67.49 -45.61 L-106.19 45.61"/>
</g>
<g id="link-21-segment" fill="none" stroke="#888888" stroke-dasharray="0" stroke-width="0.3" stroke-opacity="0.5">
<path d="M-67.49 -45.61 L-86.84 45.61"/>
</g>
<g id="link-22-segment" fill="none" stroke="#888888" stroke-dasharray="0" stroke-width="0.3" stroke-opacity="0.5">
<path d="M-67.49 -45.61 L-67.49 45.61"/>
</g>
<g id="link-23-segment" fill="none" stroke="#888888" stroke-dasharray="0" stroke-width="0.3" stroke-opacity="0.5">
<path d="M-67.49 -45.61 L-48.14 45.61"/>
</g>
<g id="link-24-segment" fill="none" stroke="#888888" stroke-dasharray="0" stroke-width="0.3" stroke-opacity="0.5">
<path d="M-67.49 -45.61 L-28.79 45.61"/>
</g>
<g id="link-25-segment" fill="none" stroke="#888888" stroke-dasharray="0" stroke-width="0.3" stroke-opacity="0.5">
<path d="M-67.49 -45.61 L-9.43 45.61"/>
</g>
<g id="link-26-segment" fill="none" stroke="#888888" stroke-dasharray="0" stroke-width="0.3" stroke-opacity="0.5">
<path d="M-67.49 -45.61 L9.92 45.61"/>
</g>
<g id="link-27-segment" fill="none" stroke="#888888" stroke-dasharray="0" stroke-width="0.3" stroke-opacity="0.5">
<path d="M-67.49 -45.61 L29.27 45.61"/>
</g>
<g id="link-28-segment" fill="none" stroke="#888888" stroke-dasharray="0" stroke-width="0.3" stroke-opacity="0.5">
<path d="M-48.14 -45.61 L-106.19 45.61"/>
</g>
<g id="link-29-segment" fill="none" stroke="#888888" stroke-dasharray="0" stroke-width="0.3" stroke-opacity="0.5">
<path d="M-48.14 -45.61 L-86.84 45.61"/>
</g>
<g id="link-30-segment" fill="none" stroke="#888888" stroke-dasharray="0" stroke-width="0.3" stroke-opacity="0.5">
<path d="M-48.14 -45.61 L-67.49 45.61"/>
</g>
<g id="link-31-segment" fill="none" stroke="#888888" stroke-dasharray="0" stroke-width="0.3" stroke-opacity="0.5">
<path d="M-48.14 -45.61 L-48.14 45.61"/>
</g>
<g id="link-32-segment" fill="none" stroke="#888888" stroke-dasharray="0" stroke-width="0.3" stroke-opacity="0.5">
<path d="M-48.14 -45.61 L29.27 45.61"/>
</g>
<g id="link-33-segment" fill="none" stroke="#888888" stroke-dasharray="0" stroke-width="0.3" stroke-opacity="0.5">
<path d="M-48.14 -45.61 L48.62 45.61"/>
</g>
<g id="link-34-segment" fill="none" stroke="#888888" stroke-dasharray="0" stroke-width="0.3" stroke-opacity="0.5">
<path d="M-48.14 -45.61 L67.97 45.61"/>
</g>
<g id="link-35-segment" fill="none" stroke="#888888" stroke-dasharray="0" stroke-width="0.3" stroke-opacity="0.5">
<path d="M-28.79 -45.61 L-106.19 45.61"/>
</g>
<g id="link-36-segment" fill="none" stroke="#888888" stroke-dasharray="0" stroke-width="0.3" stroke-opacity="0.5">
<path d="M-28.79 -45.61 L-86.84 45.61"/>
</g>
<g id="link-37-segment" fill="none" stroke="#888888" stroke-dasharray="0" stroke-width="0.3" stroke-opacity="0.5">
<path d="M-28.79 -45.61 L-67.49 45.61"/>
</g>
<g id="link-38-segment" fill="none" stroke="#888888" stroke-dasharray="0" stroke-width="0.3" stroke-opacity="0.5">
<path d="M-28.79 -45.61 L-48.14 45.61"/>
</g>
<g id="link-39-segment" fill="none" stroke="#888888" stroke-dasharray="0" stroke-width="0.3" stroke-opacity="0.5">
<path d="M-28.79 -45.61 L-28.79 45.61"/>
</g>
<g id="link-40-segment" fill="none" stroke="#888888" stroke-dasharray="0" stroke-width="0.3" stroke-opacity="0.5">
<path d="M-28.79 -45.61 L-9.43 45.61"/>
</g>
<g id="link-41-segment" fill="none" stroke="#888888" stroke-dasharray="0" stroke-width="0.3" stroke-opacity="0.5">
<path d="M-28.79 -45.61 L9.92 45.61"/>
</g>
<g id="link-42-segment" fill="none" stroke="#888888" stroke-dasharray="0" stroke-width="0.3" stroke-opacity="0.5">
<path d="M-9.43 -45.61 L-106.19 45.61"/>
</g>
<g id="link-43-segment" fill="none" stroke="#888888" stroke-dasharray="0" stroke-width="0.3" stroke-opacity="0.5">
<path d="M-9.43 -45.61 L-86.84 45.61"/>
</g>
<g id="link-44-segment" fill="none" stroke="#888888" stroke-dasharray="0" stroke-width="0.3" stroke-opacity="0.5">
<path d="M-9.43 -45.61 L-67.49 45.61"/>
</g>
<g id="link-45-segment" fill="none" stroke="#888888" stroke-dasharray="0" stroke-width="0.3" stroke-opacity="0.5">
<path d="M-9.43 -45.61 L-48.14 45.61"/>
</g>
<g id="link-46-segment" fill="none" stroke="#888888" stroke-dasharray="0" stroke-width="0.3" stroke-opacity="0.5">
<path d="M-9.43 -45.61 L-28.79 45.61"/>
</g>
<g id="link-47-segment" fill="none" stroke="#888888" stroke-dasharray="0" stroke-width="0.3" stroke-opacity="0.5">
<path d="M-9.43 -45.61 L48.62 45.61"/>
</g>
<g id="link-48-segment" fill="none" stroke="#888888" stroke-dasharray="0" stroke-width="0.3" stroke-opacity="0.5">
<path d="M-9.43 -45.61 L67.97 45.61"/>
</g>
<g id="link-49-segment" fill="none" stroke="#888888" stroke-dasharray="0" stroke-width="0.3" stroke-opacity="0.5">
<path d="M9.92 -45.61 L-106.19 45.61"/>
</g>
<g id="link-50-segment" fill="none" stroke="#888888" stroke-dasharray="0" stroke-width="0.3" stroke-opacity="0.5">
<path d="M9.92 -45.61 L-86.84 45.61"/>
</g>
<g id="link-51-segment" fill="none" stroke="#888888" stroke-dasharray="0" stroke-width="0.3" stroke-opacity="0.5">
<path d="M9.92 -45.61 L-67.49 45.61"/>
</g>
<g id="link-52-segment" fill="none" stroke="#888888" stroke-dasharray="0" stroke-width="0.3" stroke-opacity="0.5">
<path d="M9.92 -45.61 L-48.14 45.61"/>
</g>
<g id="link-53-segment" fill="none" stroke="#888888" stroke-dasharray="0" stroke-width="0.3" stroke-opacity="0.5">
<path d="M9.92 -45.61 L-28.79 45.61"/>
</g>
<g id="link-54-segment" fill="none" stroke="#888888" stroke-dasharray="0" stroke-width="0.3" stroke-opacity="0.5">
<path d="M9.92 -45.61 L-9.43 45.61"/>
</g>
<g id="link-55-segment" fill="none" stroke="#888888" stroke-dasharray="0" stroke-width="0.3" stroke-opacity="0.5">
<path d="M9.92 -45.61 L9.92 45.61"/>
</g>
<g id="link-56-segment" fill="none" stroke="#888888" stroke-dasharray="0" stroke-width="0.3" stroke-opacity="0.5">
<path d="M29.27 -45.61 L-106.19 45.61"/>
</g>
<g id="link-57-segment" fill="none" stroke="#888888" stroke-dasharray="0" stroke-width="0.3" stroke-opacity="0.5">
<path d="M29.27 -45.61 L-86.84 45.61"/>
</g>
<g id="link-58-segment" fill="none" stroke="#888888" stroke-dasharray="0" stroke-width="0.3" stroke-opacity="0.5">
<path d="M29.27 -45.61 L-67.49 45.61"/>
</g>
<g id="link-59-segment" fill="none" stroke="#888888" stroke-dasharray="0" stroke-width="0.3" stroke-opacity="0.5">
<path d="M29.27 -45.61 L-48.14 45.61"/>
</g>
<g id="link-60-segment" fill="none" stroke="#888888" stroke-dasharray="0" stroke-width="0.3" stroke-opacity="0.5">
<path d="M29.27 -45.61 L48.62 45.61"/>
</g>
<g id="link-61-segment" fill="none" stroke="#888888" stroke-dasharray="0" stroke-width="0.3" stroke-opacity="0.5">
<path d="M48.62 -45.61 L-106.19 45.61"/>
</g>
<g id="link-62-segment" fill="none" stroke="#888888" stroke-dasharray="0" stroke-width="0.3" stroke-opacity="0.5">
<path d="M48.62 -45.61 L-86.84 45.61"/>
</g>
<g id="link-63-segment" fill="none" stroke="#888888" stroke-dasharray="0" stroke-width="0.3" stroke-opacity="0.5">
<path d="M48.62 -45.61 L-67.49 45.61"/>
</g>
<g id="link-64-segment" fill="none" stroke="#888888" stroke-dasharray="0" stroke-width="0.3" stroke-opacity="0.5">
<path d="M48.62 -45.61 L-48.14 45.61"/>
</g>
<g id="link-65-segment" fill="none" stroke="#888888" stroke-dasharray="0" stroke-width="0.3" stroke-opacity="0.5">
<path d="M48.62 -45.61 L67.97 45.61"/>
</g>
<g id="link-66-segment" fill="none" stroke="#888888" stroke-dasharray="0" stroke-width="0.3" stroke-opacity="0.5">
<path d="M67.97 -45.61 L-106.19 45.61"/>
</g>
<g id="link-67-segment" fill="none" stroke="#888888" stroke-dasharray="0" stroke-width="0.3" stroke-opacity="0.5">
<path d="M67.97 -45.61 L-86.84 45.61"/>
</g>
<g id="link-68-segment" fill="none" stroke="#888888" stroke-dasharray="0" stroke-width="0.3" stroke-opacity="0.5">
<path d="M67.97 -45.61 L-67.49 45.61"/>
</g>
<g id="link-69-segment" fill="none" stroke="#888888" stroke-dasharray="0" stroke-width="0.3" stroke-opacity="0.5">
<path d="M67.97 -45.61 L-48.14 45.61"/>
</g>
<g id="link-70-segment" fill="none" stroke="#888888" stroke-dasharray="0" stroke-width="0.3" stroke-opacity="0.5">
<path d="M67.97 -45.61 L29.27 45.61"/>
</g>
<g id="link-71-segment" fill="none" stroke="#888888" stroke-dasharray="0" stroke-width="0.3" stroke-opacity="0.5">
<path d="M130.38 240.34 L-9.43 90.09"/>
</g>
<g id="link-72-segment" fill="none" stroke="#888888" stroke-dasharray="0" stroke-width="0.3" stroke-opacity="0.5">
<path d="M130.38 240.34 L9.92 85.3"/>
</g>
<g id="link-73-segment" fill="none" stroke="#888888" stroke-dasharray="0" stroke-width="0.3" stroke-opacity="0.5">
<path d="M241.89 212.55 L-86.84 109.25"/>
</g>
<g id="link-74-segment" fill="none" stroke="#888888" stroke-dasharray="0" stroke-width="0.3" stroke-opacity="0.5">
<path d="M241.89 212.55 L-48.14 99.67"/>
</g>
<g id="link-75-segment" fill="none" stroke="#888888" stroke-dasharray="0" stroke-width="0.3" stroke-opacity="0.5">
<path d="M247.79 197.83 L-106.19 114.04"/>
</g>
<g id="link-76-segment" fill="none" stroke="#888888" stroke-dasharray="0" stroke-width="0.3" stroke-opacity="0.5">
<path d="M247.79 197.83 L-28.79 94.88"/>
</g>
<g id="link-77-segment" fill="none" stroke="#888888" stroke-dasharray="0" stroke-width="0.3" stroke-opacity="0.5">
<path d="M253.69 183.11 L-67.49 104.46"/>
</g>
<g id="link-78-segment" fill="none" stroke="#888888" stroke-dasharray="0" stroke-width="0.3" stroke-opacity="0.5">
<path d="M253.69 183.11 L-28.79 94.88"/>
</g>
<g id="link-79-segment" fill="none" stroke="#888888" stroke-dasharray="0" stroke-width="0.3" stroke-opacity="0.5">
<path d="M259.58 168.38 L-28.79 94.88"/>
</g>
<g id="link-80-segment" fill="none" stroke="#888888" stroke-dasharray="0" stroke-width="0.3" stroke-opacity="0.5">
<path d="M-106.19 -114.04 L130.38 -289.41"/>
</g>
<g id="link-81-segment" fill="none" stroke="#888888" stroke-dasharray="0" stroke-width="0.3" stroke-opacity="0.5">
<path d="M-106.19 -114.04 L138.24 -274.69"/>
</g>
<g id="link-82-segment" fill="none" stroke="#888888" stroke-dasharray="0" stroke-width="0.3" stroke-opacity="0.5">
<path d="M-106.19 -114.04 L146.1 -259.97"/>
</g>
<g id="link-83-segment" fill="none" stroke="#888888" stroke-dasharray="0" stroke-width="0.3" stroke-opacity="0.5">
<path d="M-86.84 -109.25 L130.38 -289.41"/>
</g>
<g id="link-84-segment" fill="none" stroke="#888888" stroke-dasharray="0" stroke-width="0.3" stroke-opacity="0.5">
<path d="M-86.84 -109.25 L138.24 -274.69"/>
</g>
<g id="link-85-segment" fill="none" stroke="#888888" stroke-dasharray="0" stroke-width="0.3" stroke-opacity="0.5">
<path d="M-67.49 -104.46 L130.38 -289.41"/>
</g>
<g id="link-86-segment" fill="none" stroke="#888888" stroke-dasharray="0" stroke-width="0.3" stroke-opacity="0.5">
<path d="M-67.49 -104.46 L138.24 -274.69"/>
</g>
<g id="link-87-segment" fill="none" stroke="#888888" stroke-dasharray="0" stroke-width="0.3" stroke-opacity="0.5">
<path d="M-67.49 -104.46 L146.1 -259.97"/>
</g>
<g id="link-88-segment" fill="none" stroke="#888888" stroke-dasharray="0" stroke-width="0.3" stroke-opacity="0.5">
<path d="M-48.14 -99.67 L146.1 -259.97"/>
</g>
<g id="link-89-segment" fill="none" stroke="#888888" stroke-dasharray="0" stroke-width="0.3" stroke-opacity="0.5">
<path d="M-28.79 -94.88 L138.24 -274.69"/>
</g>
<g id="link-90-segment" fill="none" stroke="#888888" stroke-dasharray="0" stroke-width="0.3" stroke-opacity="0.5">
<path d="M-9.43 -90.09 L130.38 -289.41"/>
</g>
<g id="link-91-segment" fill="none" stroke="#888888" stroke-dasharray="0" stroke-width="0.3" stroke-opacity="0.5">
<path d="M29.27 -80.51 L146.1 -259.97"/>
</g>
<g id="link-92-segment" fill="none" stroke="#888888" stroke-dasharray="0" stroke-width="0.3" stroke-opacity="0.5">
<path d="M130.38 240.34 L130.38 -289.41"/>
</g>
<g id="link-93-segment" fill="none" stroke="#888888" stroke-dasharray="0" stroke-width="0.3" stroke-opacity="0.5">
<path d="M130.38 240.34 L138.24 -274.69"/>
</g>
<g id="link-94-segment" fill="none" stroke="#888888" stroke-dasharray="0" stroke-width="0.3" stroke-opacity="0.5">
<path d="M253.69 183.11 L168.12 -289.41"/>
</g>
<g id="link-95-segment" fill="none" stroke="#888888" stroke-dasharray="0" stroke-width="0.3" stroke-opacity="0.5">
<path d="M259.58 168.38 L168.12 -289.41"/>
</g>
<g id="link-96-segment" fill="none" stroke="#888888" stroke-dasharray="0" stroke-width="0.3" stroke-opacity="0.5">
<path d="M-106.19 -114.04 L241.89 -261.63"/>
</g>
<g id="link-97-segment" fill="none" stroke="#888888" stroke-dasharray="0" stroke-width="0.3" stroke-opacity="0.5">
<path d="M-106.19 -114.04 L246.61 -246.9"/>
</g>
<g id="link-98-segment" fill="none" stroke="#888888" stroke-dasharray="0" stroke-width="0.3" stroke-opacity="0.5">
<path d="M-106.19 -114.04 L251.33 -232.18"/>
</g>
<g id="link-99-segment" fill="none" stroke="#888888" stroke-dasharray="0" stroke-width="0.3" stroke-opacity="0.5">
<path d="M-106.19 -114.04 L256.04 -217.46"/>
</g>
<g id="link-100-segment" fill="none" stroke="#888888" stroke-dasharray="0" stroke-width="0.3" stroke-opacity="0.5">
<path d="M-86.84 -109.25 L241.89 -261.63"/>
</g>
<g id="link-101-segment" fill="none" stroke="#888888" stroke-dasharray="0" stroke-width="0.3" stroke-opacity="0.5">
<path d="M-86.84 -109.25 L246.61 -246.9"/>
</g>
<g id="link-102-segment" fill="none" stroke="#888888" stroke-dasharray="0" stroke-width="0.3" stroke-opacity="0.5">
<path d="M-86.84 -109.25 L251.33 -232.18"/>
</g>
<g id="link-103-segment" fill="none" stroke="#888888" stroke-dasharray="0" stroke-width="0.3" stroke-opacity="0.5">
<path d="M-86.84 -109.25 L256.04 -217.46"/>
</g>
<g id="link-104-segment" fill="none" stroke="#888888" stroke-dasharray="0" stroke-width="0.3" stroke-opacity="0.5">
<path d="M-86.84 -109.25 L260.76 -202.74"/>
</g>
<g id="link-105-segment" fill="none" stroke="#888888" stroke-dasharray="0" stroke-width="0.3" stroke-opacity="0.5">
<path d="M-67.49 -104.46 L246.61 -246.9"/>
</g>
<g id="link-106-segment" fill="none" stroke="#888888" stroke-dasharray="0" stroke-width="0.3" stroke-opacity="0.5">
<path d="M-67.49 -104.46 L260.76 -202.74"/>
</g>
<g id="link-107-segment" fill="none" stroke="#888888" stroke-dasharray="0" stroke-width="0.3" stroke-opacity="0.5">
<path d="M-48.14 -99.67 L251.33 -232.18"/>
</g>
<g id="link-108-segment" fill="none" stroke="#888888" stroke-dasharray="0" stroke-width="0.3" stroke-opacity="0.5">
<path d="M-28.79 -94.88 L241.89 -261.63"/>
</g>
<g id="link-109-segment" fill="none" stroke="#888888" stroke-dasharray="0" stroke-width="0.3" stroke-opacity="0.5">
<path d="M241.89 212.55 L241.89 -261.63"/>
</g>
<g id="link-110-segment" fill="none" stroke="#888888" stroke-dasharray="0" stroke-width="0.3" stroke-opacity="0.5">
<path d="M241.89 212.55 L256.04 -217.46"/>
</g>
<g id="link-111-segment" fill="none" stroke="#888888" stroke-dasharray="0" stroke-width="0.3" stroke-opacity="0.5">
<path d="M247.79 197.83 L260.76 -202.74"/>
</g>
<g id="link-112-segment" fill="none" stroke="#888888" stroke-dasharray="0" stroke-width="0.3" stroke-opacity="0.5">
<path d="M259.58 168.38 L241.89 -261.63"/>
</g>
<g id="link-113-segment" fill="none" stroke="#888888" stroke-dasharray="0" stroke-width="0.3" stroke-opacity="0.5">
<path d="M377.99 120 L289.06 -261.63"/>
</g>
<g id="link-1-path" fill="none" stroke="#888888" stroke-dasharray="0" stroke-width="0.3" stroke-opacity="0.5">
<path d="M-86.84 109.25  L-82.11 128.99 L-77.38 146.69 L-72.65 162.27 L-67.92 176.04 L-63.19 188.3 L-58.46 199.34 L-53.73 209.48 L-49 219.02 L-44.27 228.25"/>
</g>
<g id="link-2-path" fill="none" stroke="#888888" stroke-dasharray="0" stroke-width="0.3" stroke-opacity="0.5">
<path d="M-86.84 -109.25  L-82.11 -127.16 L-77.38 -143.22 L-72.65 -157.35 L-67.92 -169.84 L-63.19 -180.96 L-58.46 -190.98 L-53.73 -200.18 L-49 -208.83 L-44.27 -217.21"/>
</g>
<g id="link-3-path" fill="none" stroke="#888888" stroke-dasharray="0" stroke-width="0.3" stroke-opacity="0.5">
<path d="M-9.43 90.09  L33.61 95.24 L76.66 99.66 L119.71 102.69 L162.75 104.57 L205.8 105.97 L248.85 107.54 L291.9 109.98 L334.94 113.94 L377.99 120"/>
</g>
<g id="link-4-path" fill="none" stroke="#888888" stroke-dasharray="0" stroke-width="0.3" stroke-opacity="0.5">
<path d="M-106.19 -114.04  L-52.07 -126.47 L2.05 -134.6 L56.16 -139.59 L110.28 -142.82 L164.4 -145.68 L218.52 -149.53 L272.64 -155.76 L326.76 -164.81 L380.88 -175.38"/>
</g>
<g id="link-5-path" fill="none" stroke="#888888" stroke-dasharray="0" stroke-width="0.3" stroke-opacity="0.5">
<path d="M-106.19 -114.04  L-51.3 -123.49 L3.59 -129.66 L58.47 -133.46 L113.36 -135.91 L168.25 -138.08 L223.14 -141.01 L278.03 -145.74 L332.91 -152.62 L387.8 -160.66"/>
</g>
<g id="link-6-path" fill="none" stroke="#888888" stroke-dasharray="0" stroke-width="0.3" stroke-opacity="0.5">
<path d="M-106.19 -114.04  L-50.53 -120.5 L5.12 -124.73 L60.78 -127.32 L116.44 -129 L172.1 -130.49 L227.76 -132.49 L283.41 -135.73 L339.07 -140.44 L394.73 -145.93"/>
</g>
<g id="link-7-path" fill="none" stroke="#888888" stroke-dasharray="0" stroke-width="0.3" stroke-opacity="0.5">
<path d="M-106.19 -114.04  L-49.76 -117.52 L6.66 -119.79 L63.09 -121.19 L119.52 -122.1 L175.95 -122.9 L232.37 -123.97 L288.8 -125.72 L345.23 -128.25 L401.65 -131.21"/>
</g>
<g id="link-8-path" fill="none" stroke="#888888" stroke-dasharray="0" stroke-width="0.3" stroke-opacity="0.5">
<path d="M-106.19 -114.04  L-48.99 -114.53 L8.2 -114.86 L65.4 -115.06 L122.6 -115.19 L179.79 -115.3 L236.99 -115.46 L294.19 -115.7 L351.38 -116.07 L408.58 -116.49"/>
</g>
<g id="link-9-path" fill="none" stroke="#888888" stroke-dasharray="0" stroke-width="0.3" stroke-opacity="0.5">
<path d="M-86.84 -109.25  L-34.87 -122.66 L17.1 -131.41 L69.07 -136.79 L121.03 -140.28 L173 -143.36 L224.97 -147.51 L276.94 -154.22 L328.91 -163.98 L380.88 -175.38"/>
</g>
<g id="link-10-path" fill="none" stroke="#888888" stroke-dasharray="0" stroke-width="0.3" stroke-opacity="0.5">
<path d="M-67.49 -104.46  L-16.9 -115.85 L33.69 -123.3 L84.28 -127.87 L134.86 -130.83 L185.45 -133.45 L236.04 -136.98 L286.63 -142.68 L337.21 -150.97 L387.8 -160.66"/>
</g>
<g id="link-11-path" fill="none" stroke="#888888" stroke-dasharray="0" stroke-width="0.3" stroke-opacity="0.5">
<path d="M29.27 -80.51  L69.88 -93.77 L110.48 -102.44 L151.09 -107.76 L191.7 -111.21 L232.3 -114.26 L272.91 -118.37 L313.52 -125.01 L354.12 -134.66 L394.73 -145.93"/>
</g>
<g id="link-12-path" fill="none" stroke="#888888" stroke-dasharray="0" stroke-width="0.3" stroke-opacity="0.5">
<path d="M29.27 -80.51  L70.65 -90.79 L112.02 -97.5 L153.4 -101.63 L194.77 -104.3 L236.15 -106.66 L277.53 -109.85 L318.9 -114.99 L360.28 -122.48 L401.65 -131.21"/>
</g>
<g id="link-13-path" fill="none" stroke="#888888" stroke-dasharray="0" stroke-width="0.3" stroke-opacity="0.5">
<path d="M289.06 212.55  L302.34 170.6 L315.62 129.19 L328.9 88.86 L342.18 50.15 L355.46 13.59 L368.74 -20.82 L382.02 -53.61 L395.3 -85.32 L408.58 -116.49"/>
</g>
</svg>