<svg xmlns="http://www.w3.org/2000/svg" viewBox="-880 -530 1911 1459.5">
<rect id="kcore3-a-1-rect" style="fill:#00008B;fill-opacity:0.2" stroke="transparent" stroke-dasharray="0" stroke-width="0.5" x="-197.44" y="-165.13" width="64.62" height="99.08" />
<rect id="kcore3-a-2-rect" style="fill:#4169E1;fill-opacity:0.2" stroke="transparent" stroke-dasharray="0" stroke-width="0.5" x="-125.64" y="-153.57" width="64.61" height="87.52" />
<rect id="kcore3-a-3-rect" style="fill:#00008B;fill-opacity:0.2" stroke="transparent" stroke-dasharray="0" stroke-width="0.5" x="-53.85" y="-142.01" width="64.62" height="75.96" />
<rect id="kcore3-a-4-rect" style="fill:#4169E1;fill-opacity:0.2" stroke="transparent" stroke-dasharray="0" stroke-width="0.5" x="17.95" y="-130.45" width="64.61" height="64.4" />
<rect id="kcore3-a-5-rect" style="fill:#00008B;fill-opacity:0.2" stroke="transparent" stroke-dasharray="0" stroke-width="0.5" x="89.74" y="-118.89" width="64.62" height="52.84" />
<rect id="kcore3-a-6-rect" style="fill:#4169E1;fill-opacity:0.2" stroke="transparent" stroke-dasharray="0" stroke-width="0.5" x="161.54" y="-107.33" width="64.61" height="41.28" />
<text id="kcore3-a-1-text" y="-115.59" style="text-anchor:middle;dominant-baseline:middle;font-family:Arial;font-size:15px;fill:#00008B">
<tspan x="-165.13" dy="0">18</tspan>
</text>
<text id="kcore3-a-2-text" y="-109.81" style="text-anchor:middle;dominant-baseline:middle;font-family:Arial;font-size:15px;fill:#00008B">
<tspan x="-93.33" dy="0">40</tspan>
</text>
<text id="kcore3-a-3-text" y="-104.03" style="text-anchor:middle;dominant-baseline:middle;font-family:Arial;font-size:15px;fill:#00008B">
<tspan x="-21.54" dy="0">64</tspan>
</text>
<text id="kcore3-a-4-text" y="-98.25" style="text-anchor:middle;dominant-baseline:middle;font-family:Arial;font-size:15px;fill:#00008B">
<tspan x="50.26" dy="0">11</tspan>
</text>
<text id="kcore3-a-5-text" y="-92.47" style="text-anchor:middle;dominant-baseline:middle;font-family:Arial;font-size:15px;fill:#00008B">
<tspan x="122.05" dy="0">53</tspan>
</text>
<text id="kcore3-a-6-text" y="-86.69" style="text-anchor:middle;dominant-baseline:middle;font-family:Arial;font-size:15px;fill:#00008B">
<tspan x="193.85" dy="0">10</tspan>
</text>
<rect id="kcore3-b-1-rect" style="fill:#FF0000;fill-opacity:0.2" stroke="transparent" stroke-dasharray="0" stroke-width="0.5" x="-197.44" y="66.05" width="64.62" height="99.08" />
<rect id="kcore3-b-2-rect" style="fill:#F08080;fill-opacity:0.2" stroke="transparent" stroke-dasharray="0" stroke-width="0.5" x="-125.64" y="66.05" width="64.61" height="87.52" />
<rect id="kcore3-b-3-rect" style="fill:#FF0000;fill-opacity:0.2" stroke="transparent" stroke-dasharray="0" stroke-width="0.5" x="-53.85" y="66.05" width="64.62" height="75.96" />
<rect id="kcore3-b-4-rect" style="fill:#F08080;fill-opacity:0.2" stroke="transparent" stroke-dasharray="0" stroke-width="0.5" x="17.95" y="66.05" width="64.61" height="64.4" />
<rect id="kcore3-b-5-rect" style="fill:#FF0000;fill-opacity:0.2" stroke="transparent" stroke-dasharray="0" stroke-width="0.5" x="89.74" y="66.05" width="64.62" height="52.84" />
<rect id="kcore3-b-6-rect" style="fill:#F08080;fill-opacity:0.2" stroke="transparent" stroke-dasharray="0" stroke-width="0.5" x="161.54" y="66.05" width="64.61" height="41.28" />
<text id="kcore3-b-1-text" y="115.59" style="text-anchor:middle;dominant-baseline:middle;font-family:Arial;font-size:15px;fill:#FF0000">
<tspan x="-165.13" dy="0">5</tspan>
</text>
<text id="kcore3-b-2-text" y="109.81" style="text-anchor:middle;dominant-baseline:middle;font-family:Arial;font-size:15px;fill:#FF0000">
<tspan x="-93.33" dy="0">4</tspan>
</text>
<text id="kcore3-b-3-text" y="104.03" style="text-anchor:middle;dominant-baseline:middle;font-family:Arial;font-size:15px;fill:#FF0000">
<tspan x="-21.54" dy="0">3</tspan>
</text>
<text id="kcore3-b-4-text" y="98.25" style="text-anchor:middle;dominant-baseline:middle;font-family:Arial;font-size:15px;fill:#FF0000">
<tspan x="50.26" dy="0">22</tspan>
</text>
<text id="kcore3-b-5-text" y="92.47" style="text-anchor:middle;dominant-baseline:middle;font-family:Arial;font-size:15px;fill:#FF0000">
<tspan x="122.05" dy="0">6</tspan>
</text>
<text id="kcore3-b-6-text" y="86.69" style="text-anchor:middle;dominant-baseline:middle;font-family:Arial;font-size:15px;fill:#FF0000">
<tspan x="193.85" dy="0">23</tspan>
</text>
<rect id="kcore2-a-1-rect" style="fill:#00008B;fill-opacity:0.2" stroke="transparent" stroke-dasharray="0" stroke-width="0.5" x="474.14" y="770.06" width="207.3" height="15.7700000000001" />
<rect id="kcore2-a-2-rect" style="fill:#4169E1;fill-opacity:0.2" stroke="transparent" stroke-dasharray="0" stroke-width="0.5" x="480.72" y="751.12" width="199.07" height="15.78" />
<rect id="kcore2-a-3-rect" style="fill:#00008B;fill-opacity:0.2" stroke="transparent" stroke-dasharray="0" stroke-width="0.5" x="487.3" y="732.19" width="190.85" height="15.77" />
<rect id="kcore2-a-4-rect" style="fill:#4169E1;fill-opacity:0.2" stroke="transparent" stroke-dasharray="0" stroke-width="0.5" x="493.88" y="713.25" width="182.62" height="15.78" />
<rect id="kcore2-a-5-rect" style="fill:#00008B;fill-opacity:0.2" stroke="transparent" stroke-dasharray="0" stroke-width="0.5" x="500.46" y="694.32" width="174.4" height="15.77" />
<rect id="kcore2-a-6-rect" style="fill:#4169E1;fill-opacity:0.2" stroke="transparent" stroke-dasharray="0" stroke-width="0.5" x="507.04" y="675.38" width="166.17" height="15.78" />
<rect id="kcore2-a-7-rect" style="fill:#00008B;fill-opacity:0.2" stroke="transparent" stroke-dasharray="0" stroke-width="0.5" x="513.62" y="656.45" width="157.94" height="15.77" />
<rect id="kcore2-a-8-rect" style="fill:#4169E1;fill-opacity:0.2" stroke="transparent" stroke-dasharray="0" stroke-width="0.5" x="520.21" y="637.51" width="149.71" height="15.78" />
<rect id="kcore2-a-9-rect" style="fill:#00008B;fill-opacity:0.2" stroke="transparent" stroke-dasharray="0" stroke-width="0.5" x="526.79" y="618.58" width="141.48" height="15.78" />
<rect id="kcore2-a-10-rect" style="fill:#4169E1;fill-opacity:0.2" stroke="transparent" stroke-dasharray="0" stroke-width="0.5" x="533.37" y="599.64" width="133.26" height="15.78" />
<rect id="kcore2-a-11-rect" style="fill:#00008B;fill-opacity:0.2" stroke="transparent" stroke-dasharray="0" stroke-width="0.5" x="539.95" y="580.71" width="125.03" height="15.78" />
<rect id="kcore2-a-12-rect" style="fill:#4169E1;fill-opacity:0.2" stroke="transparent" stroke-dasharray="0" stroke-width="0.5" x="546.53" y="561.77" width="116.81" height="15.78" />
<rect id="kcore2-a-13-rect" style="fill:#00008B;fill-opacity:0.2" stroke="transparent" stroke-dasharray="0" stroke-width="0.5" x="553.11" y="542.84" width="108.58" height="15.78" />
<rect id="kcore2-a-14-rect" style="fill:#4169E1;fill-opacity:0.2" stroke="transparent" stroke-dasharray="0" stroke-width="0.5" x="559.69" y="523.9" width="100.36" height="15.78" />
<rect id="kcore2-a-15-rect" style="fill:#00008B;fill-opacity:0.2" stroke="transparent" stroke-dasharray="0" stroke-width="0.5" x="566.27" y="504.97" width="92.13" height="15.78" />
<rect id="kcore2-a-16-rect" style="fill:#4169E1;fill-opacity:0.2" stroke="transparent" stroke-dasharray="0" stroke-width="0.5" x="572.85" y="486.03" width="83.91" height="15.78" />
<rect id="kcore2-a-17-rect" style="fill:#00008B;fill-opacity:0.2" stroke="transparent" stroke-dasharray="0" stroke-width="0.5" x="579.43" y="467.1" width="75.6800000000001" height="15.78" />
<rect id="kcore2-a-18-rect" style="fill:#4169E1;fill-opacity:0.2" stroke="transparent" stroke-dasharray="0" stroke-width="0.5" x="586.01" y="448.16" width="67.46" height="15.78" />
<rect id="kcore2-a-19-rect" style="fill:#00008B;fill-opacity:0.2" stroke="transparent" stroke-dasharray="0" stroke-width="0.5" x="592.59" y="429.23" width="59.23" height="15.78" />
<rect id="kcore2-a-20-rect" style="fill:#4169E1;fill-opacity:0.2" stroke="transparent" stroke-dasharray="0" stroke-width="0.5" x="599.18" y="410.29" width="51" height="15.78" />
<rect id="kcore2-a-21-rect" style="fill:#00008B;fill-opacity:0.2" stroke="transparent" stroke-dasharray="0" stroke-width="0.5" x="605.76" y="391.36" width="42.77" height="15.78" />
<text id="kcore2-a-1-text" y="777.94" style="text-anchor:middle;dominant-baseline:middle;font-family:Arial;font-size:13.5px;fill:#00008B">
<tspan x="505.23" dy="0">17</tspan>
</text>
<text id="kcore2-a-2-text" y="759.01" style="text-anchor:middle;dominant-baseline:middle;font-family:Arial;font-size:13.5px;fill:#00008B">
<tspan x="639.98" dy="0">21</tspan>
</text>
<text id="kcore2-a-3-text" y="740.07" style="text-anchor:middle;dominant-baseline:middle;font-family:Arial;font-size:13.5px;fill:#00008B">
<tspan x="515.93" dy="0">38</tspan>
</text>
<text id="kcore2-a-4-text" y="721.14" style="text-anchor:middle;dominant-baseline:middle;font-family:Arial;font-size:13.5px;fill:#00008B">
<tspan x="639.98" dy="0">46</tspan>
</text>
<text id="kcore2-a-5-text" y="702.21" style="text-anchor:middle;dominant-baseline:middle;font-family:Arial;font-size:13.5px;fill:#00008B">
<tspan x="526.62" dy="0">50</tspan>
</text>
<text id="kcore2-a-6-text" y="683.27" style="text-anchor:middle;dominant-baseline:middle;font-family:Arial;font-size:13.5px;fill:#00008B">
<tspan x="639.98" dy="0">51</tspan>
</text>
<text id="kcore2-a-7-text" y="664.34" style="text-anchor:middle;dominant-baseline:middle;font-family:Arial;font-size:13.5px;fill:#00008B">
<tspan x="537.32" dy="0">55</tspan>
</text>
<text id="kcore2-a-8-text" y="645.4" style="text-anchor:middle;dominant-baseline:middle;font-family:Arial;font-size:13.5px;fill:#00008B">
<tspan x="639.98" dy="0">63</tspan>
</text>
<text id="kcore2-a-9-text" y="626.47" style="text-anchor:middle;dominant-baseline:middle;font-family:Arial;font-size:13.5px;fill:#00008B">
<tspan x="548.01" dy="0">71</tspan>
</text>
<text id="kcore2-a-10-text" y="607.53" style="text-anchor:middle;dominant-baseline:middle;font-family:Arial;font-size:13.5px;fill:#00008B">
<tspan x="639.98" dy="0">5</tspan>
</text>
<text id="kcore2-a-11-text" y="588.6" style="text-anchor:middle;dominant-baseline:middle;font-family:Arial;font-size:13.5px;fill:#00008B">
<tspan x="558.7" dy="0">19</tspan>
</text>
<text id="kcore2-a-12-text" y="569.66" style="text-anchor:middle;dominant-baseline:middle;font-family:Arial;font-size:13.5px;fill:#00008B">
<tspan x="639.98" dy="0">22</tspan>
</text>
<text id="kcore2-a-13-text" y="550.73" style="text-anchor:middle;dominant-baseline:middle;font-family:Arial;font-size:13.5px;fill:#00008B">
<tspan x="569.4" dy="0">31</tspan>
</text>
<text id="kcore2-a-14-text" y="531.79" style="text-anchor:middle;dominant-baseline:middle;font-family:Arial;font-size:13.5px;fill:#00008B">
<tspan x="639.98" dy="0">41</tspan>
</text>
<text id="kcore2-a-15-text" y="512.86" style="text-anchor:middle;dominant-baseline:middle;font-family:Arial;font-size:13.5px;fill:#00008B">
<tspan x="580.09" dy="0">65</tspan>
</text>
<text id="kcore2-a-16-text" y="493.92" style="text-anchor:middle;dominant-baseline:middle;font-family:Arial;font-size:13.5px;fill:#00008B">
<tspan x="639.98" dy="0">68</tspan>
</text>
<text id="kcore2-a-17-text" y="474.99" style="text-anchor:middle;dominant-baseline:middle;font-family:Arial;font-size:13.5px;fill:#00008B">
<tspan x="590.78" dy="0">72</tspan>
</text>
<text id="kcore2-a-18-text" y="456.05" style="text-anchor:middle;dominant-baseline:middle;font-family:Arial;font-size:13.5px;fill:#00008B">
<tspan x="639.98" dy="0">6</tspan>
</text>
<text id="kcore2-a-19-text" y="437.12" style="text-anchor:middle;dominant-baseline:middle;font-family:Arial;font-size:13.5px;fill:#00008B">
<tspan x="601.48" dy="0">14</tspan>
</text>
<text id="kcore2-a-20-text" y="418.18" style="text-anchor:middle;dominant-baseline:middle;font-family:Arial;font-size:13.5px;fill:#00008B">
<tspan x="639.98" dy="0">32</tspan>
</text>
<text id="kcore2-a-21-text" y="399.25" style="text-anchor:middle;dominant-baseline:middle;font-family:Arial;font-size:13.5px;fill:#00008B">
<tspan x="612.17" dy="0">42</tspan>
</text>
<rect id="kcore2-b-1-rect" style="fill:#FF0000;fill-opacity:0.2" stroke="transparent" stroke-dasharray="0" stroke-width="0.5" x="442.47" y="-464.93" width="207.3" height="15.78" />
<rect id="kcore2-b-2-rect" style="fill:#F08080;fill-opacity:0.2" stroke="transparent" stroke-dasharray="0" stroke-width="0.5" x="457.82" y="-446" width="188.11" height="15.78" />
<rect id="kcore2-b-3-rect" style="fill:#FF0000;fill-opacity:0.2" stroke="transparent" stroke-dasharray="0" stroke-width="0.5" x="473.18" y="-427.06" width="168.91" height="15.78" />
<rect id="kcore2-b-4-rect" style="fill:#F08080;fill-opacity:0.2" stroke="transparent" stroke-dasharray="0" stroke-width="0.5" x="488.53" y="-408.13" width="149.72" height="15.78" />
<rect id="kcore2-b-5-rect" style="fill:#FF0000;fill-opacity:0.2" stroke="transparent" stroke-dasharray="0" stroke-width="0.5" x="503.89" y="-389.19" width="130.52" height="15.78" />
<rect id="kcore2-b-6-rect" style="fill:#F08080;fill-opacity:0.2" stroke="transparent" stroke-dasharray="0" stroke-width="0.5" x="519.25" y="-370.26" width="111.32" height="15.78" />
<rect id="kcore2-b-7-rect" style="fill:#FF0000;fill-opacity:0.2" stroke="transparent" stroke-dasharray="0" stroke-width="0.5" x="534.6" y="-351.32" width="92.13" height="15.78" />
<rect id="kcore2-b-8-rect" style="fill:#F08080;fill-opacity:0.2" stroke="transparent" stroke-dasharray="0" stroke-width="0.5" x="549.96" y="-332.39" width="72.9299999999999" height="15.78" />
<rect id="kcore2-b-9-rect" style="fill:#FF0000;fill-opacity:0.2" stroke="transparent" stroke-dasharray="0" stroke-width="0.5" x="565.31" y="-313.45" width="53.75" height="15.78" />
<text id="kcore2-b-1-text" y="-457.04" style="text-anchor:middle;dominant-baseline:middle;font-family:Arial;font-size:13.5px;fill:#FF0000">
<tspan x="473.56" dy="0">19</tspan>
</text>
<text id="kcore2-b-2-text" y="-438.11" style="text-anchor:middle;dominant-baseline:middle;font-family:Arial;font-size:13.5px;fill:#FF0000">
<tspan x="608.31" dy="0">8</tspan>
</text>
<text id="kcore2-b-3-text" y="-419.17" style="text-anchor:middle;dominant-baseline:middle;font-family:Arial;font-size:13.5px;fill:#FF0000">
<tspan x="498.52" dy="0">20</tspan>
</text>
<text id="kcore2-b-4-text" y="-400.24" style="text-anchor:middle;dominant-baseline:middle;font-family:Arial;font-size:13.5px;fill:#FF0000">
<tspan x="608.31" dy="0">2</tspan>
</text>
<text id="kcore2-b-5-text" y="-381.3" style="text-anchor:middle;dominant-baseline:middle;font-family:Arial;font-size:13.5px;fill:#FF0000">
<tspan x="523.47" dy="0">7</tspan>
</text>
<text id="kcore2-b-6-text" y="-362.37" style="text-anchor:middle;dominant-baseline:middle;font-family:Arial;font-size:13.5px;fill:#FF0000">
<tspan x="608.31" dy="0">9</tspan>
</text>
<text id="kcore2-b-7-text" y="-343.43" style="text-anchor:middle;dominant-baseline:middle;font-family:Arial;font-size:13.5px;fill:#FF0000">
<tspan x="548.42" dy="0">14</tspan>
</text>
<text id="kcore2-b-8-text" y="-324.5" style="text-anchor:middle;dominant-baseline:middle;font-family:Arial;font-size:13.5px;fill:#FF0000">
<tspan x="608.31" dy="0">18</tspan>
</text>
<text id="kcore2-b-9-text" y="-305.56" style="text-anchor:middle;dominant-baseline:middle;font-family:Arial;font-size:13.5px;fill:#FF0000">
<tspan x="573.37" dy="0">15</tspan>
</text>
<rect id="kcore3-1-rect" style="fill:none;fill-opacity:0.3" stroke="#8B4C39" stroke-dasharray="1 1" stroke-width="0" x="-268.44" y="-209.31" width="518.26" height="396.53" />
<text id="kcore3-1-text" y="-11.05" style="text-anchor:middle;dominant-baseline:middle;font-family:Arial;font-size:10.5px;fill:transparent">
</text>
<text id="kcore3-1-text" y="0" transform="rotate(-90 -230.57 0)" style="text-anchor:start;dominant-baseline:baseline;font-family:Arial;font-size:15px;fill:#8B4C39">
<tspan x="-230.57" dy="0">3-shell</tspan>
</text>
<rect id="kcore2-1-rect" style="fill:none;fill-opacity:0.3" stroke="#AC5E46" stroke-dasharray="1 1" stroke-width="0" x="418.8" y="-520.16" width="286.3" height="1328.09" />
<text id="kcore2-1-text" y="143.88" style="text-anchor:middle;dominant-baseline:middle;font-family:Arial;font-size:10.5px;fill:transparent">
</text>
<text id="kcore2-1-text" y="-489.23" style="text-anchor:start;dominant-baseline:baseline;font-family:Arial;font-size:15px;fill:#AC5E46">
<tspan x="538.28" dy="0">2-shell</tspan>
</text>
<rect id="edge-kcore1-a-6-1-rect" style="fill:#00008B;fill-opacity:0.11" stroke="transparent" stroke-dasharray="0" stroke-width="0.5" x="-173.37" y="580" width="23.67" height="23.67" />
<text id="edge-kcore1-a-6-1-text" y="591.84" transform="rotate(30 -161.54 591.84)" style="text-anchor:middle;dominant-baseline:middle;font-family:Arial;font-size:12px;fill:#00008B">
<tspan x="-161.54" dy="0"> 28</tspan>
</text>
<rect id="edge-kcore1-a-22-1-rect" style="fill:#00008B;fill-opacity:0.11" stroke="transparent" stroke-dasharray="0" stroke-width="0.5" x="-209.61" y="591.93" width="23.67" height="23.6700000000001" />
<text id="edge-kcore1-a-22-1-text" y="603.77" transform="rotate(30 -197.77 603.77)" style="text-anchor:middle;dominant-baseline:middle;font-family:Arial;font-size:12px;fill:#00008B">
<tspan x="-197.77" dy="0"> 3</tspan>
</text>
<rect id="edge-kcore1-a-3-1-rect" style="fill:#00008B;fill-opacity:0.11" stroke="transparent" stroke-dasharray="0" stroke-width="0.5" x="-255.59" y="603.86" width="43.17" height="43.17" />
<text id="edge-kcore1-a-3-1-text" y="625.45" transform="rotate(30 -234 625.45)" style="text-anchor:start;dominant-baseline:baseline;font-family:Arial;font-size:12px;fill:#00008B">
<tspan x="-234" dy="0"> 8 34 36 37  61</tspan>
</text>
<rect id="edge-kcore1-a-4-1-rect" style="fill:#00008B;fill-opacity:0.11" stroke="transparent" stroke-dasharray="0" stroke-width="0.5" x="-326.21" y="625.62" width="72.94" height="72.95" />
<text id="edge-kcore1-a-4-1-text" y="662.09" transform="rotate(30 -289.74 662.09)" style="text-anchor:start;dominant-baseline:baseline;font-family:Arial;font-size:12px;fill:#00008B">
<tspan x="-289.74" dy="0"> 1 7 9 12 27 30 33 35 43 44 47 48 54 56 59 66  70</tspan>
</text>
<rect id="fat-kcore1-a-1-rect" style="fill:#00008B;fill-opacity:0.11" stroke="transparent" stroke-dasharray="0" stroke-width="0.5" x="-731.56" y="70.57" width="64.78" height="64.79" />
<text id="fat-kcore1-a-1-text" y="102.96" style="text-anchor:start;dominant-baseline:baseline;font-family:Arial;font-size:12px;fill:#00008B">
<tspan x="-699.17" dy="0"> 2 15 20 23 </tspan>
<tspan x="-699.17" dy="16.8"> 25 29 49 57 </tspan>
<tspan x="-699.17" dy="16.8"> 58 60 62 67 </tspan>
<tspan x="-699.17" dy="16.8"> 69</tspan>
</text>
<rect id="edge-kcore1-a-20-1-rect" style="fill:#00008B;fill-opacity:0.11" stroke="transparent" stroke-dasharray="0" stroke-width="0.5" x="861.66" y="-252.19" width="23.6700000000001" height="23.67" />
<text id="edge-kcore1-a-20-1-text" y="-240.36" style="text-anchor:middle;dominant-baseline:middle;font-family:Arial;font-size:12px;fill:#00008B">
<tspan x="873.49" dy="0"> 45</tspan>
</text>
<rect id="edge-kcore1-a-8-1-rect" style="fill:#00008B;fill-opacity:0.11" stroke="transparent" stroke-dasharray="0" stroke-width="0.5" x="861.66" y="-291.86" width="30.2" height="30.2" />
<text id="edge-kcore1-a-8-1-text" y="-276.76" style="text-anchor:start;dominant-baseline:baseline;font-family:Arial;font-size:12px;fill:#00008B">
<tspan x="876.76" dy="0"> 13  24</tspan>
</text>
<rect id="edge-kcore1-a-19-1-rect" style="fill:#00008B;fill-opacity:0.11" stroke="transparent" stroke-dasharray="0" stroke-width="0.5" x="861.66" y="-327.61" width="23.6700000000001" height="23.67" />
<text id="edge-kcore1-a-19-1-text" y="-315.78" style="text-anchor:middle;dominant-baseline:middle;font-family:Arial;font-size:12px;fill:#00008B">
<tspan x="873.49" dy="0"> 26</tspan>
</text>
<rect id="edge-kcore1-b-32-1-rect" style="fill:#FF0000;fill-opacity:0.11" stroke="transparent" stroke-dasharray="0" stroke-width="0.5" x="891.14" y="388.97" width="30.2" height="30.21" />
<text id="edge-kcore1-b-32-1-text" y="404.07" style="text-anchor:start;dominant-baseline:baseline;font-family:Arial;font-size:12px;fill:#FF0000">
<tspan x="906.24" dy="0"> 1  11</tspan>
</text>
<rect id="edge-kcore1-b-31-1-rect" style="fill:#FF0000;fill-opacity:0.11" stroke="transparent" stroke-dasharray="0" stroke-width="0.5" x="891.14" y="431.26" width="23.66" height="23.67" />
<text id="edge-kcore1-b-31-1-text" y="443.09" style="text-anchor:middle;dominant-baseline:middle;font-family:Arial;font-size:12px;fill:#FF0000">
<tspan x="902.97" dy="0"> 10</tspan>
</text>
<rect id="specialist-chains-kcore1-a-1-1-rect" style="fill:#00008B;fill-opacity:0.2" stroke="transparent" stroke-dasharray="0" stroke-width="0.5" x="808.4" y="-496.67" width="31.5600000000001" height="31.56" />
<text id="specialist-chains-kcore1-a-1-1-text" y="-480.89" style="text-anchor:middle;dominant-baseline:middle;font-family:Arial;font-size:12px;fill:#00008B">
<tspan x="824.18" dy="0"> 16</tspan>
</text>
<rect id="specialist-chains-kcore1-b-2-1-rect" style="fill:#FF0000;fill-opacity:0.2" stroke="transparent" stroke-dasharray="0" stroke-width="0.5" x="-513.02" y="-461.78" width="31.56" height="31.5599999999999" />
<text id="specialist-chains-kcore1-b-2-1-text" y="-446" style="text-anchor:middle;dominant-baseline:middle;font-family:Arial;font-size:12px;fill:#FF0000">
<tspan x="-497.24" dy="0"> 21</tspan>
</text>
<rect id="specialist-chains-kcore1-b-3-1-rect" style="fill:#FF0000;fill-opacity:0.2" stroke="transparent" stroke-dasharray="0" stroke-width="0.5" x="871.52" y="-496.67" width="31.5600000000001" height="31.56" />
<text id="specialist-chains-kcore1-b-3-1-text" y="-480.89" style="text-anchor:middle;dominant-baseline:middle;font-family:Arial;font-size:12px;fill:#FF0000">
<tspan x="887.3" dy="0"> 17</tspan>
</text>
<rect id="specialist-chains-kcore1-a-4-1-rect" style="fill:#00008B;fill-opacity:0.2" stroke="transparent" stroke-dasharray="0" stroke-width="0.5" x="-607.69" y="-524.89" width="31.5600000000001" height="31.56" />
<text id="specialist-chains-kcore1-a-4-1-text" y="-509.11" style="text-anchor:middle;dominant-baseline:middle;font-family:Arial;font-size:12px;fill:#00008B">
<tspan x="-591.91" dy="0"> 52</tspan>
</text>
<rect id="outsiders-kcore1-a-1-rect" style="fill:#00008B;fill-opacity:0.2" stroke="transparent" stroke-dasharray="0" stroke-width="0.5" x="-10.85" y="607.12" width="31.56" height="31.5599999999999" />
<rect id="outsiders-kcore1-a-2-rect" style="fill:#00008B;fill-opacity:0.2" stroke="transparent" stroke-dasharray="0" stroke-width="0.5" x="68.05" y="607.12" width="31.56" height="31.5599999999999" />
<text id="outsiders-kcore1-a-1-text" y="622.9" style="text-anchor:middle;dominant-baseline:middle;font-family:Arial;font-size:12px;fill:#00008B">
<tspan x="4.93" dy="0">4</tspan>
</text>
<text id="outsiders-kcore1-a-2-text" y="622.9" style="text-anchor:middle;dominant-baseline:middle;font-family:Arial;font-size:12px;fill:#00008B">
<tspan x="83.83" dy="0">39</tspan>
</text>
<rect id="outsiders-kcore1-b-1-rect" style="fill:#FF0000;fill-opacity:0.2" stroke="transparent" stroke-dasharray="0" stroke-width="0.5" x="-10.85" y="701.8" width="31.56" height="31.5600000000001" />
<rect id="outsiders-kcore1-b-2-rect" style="fill:#FF0000;fill-opacity:0.2" stroke="transparent" stroke-dasharray="0" stroke-width="0.5" x="68.05" y="701.8" width="31.56" height="31.5600000000001" />
<rect id="outsiders-kcore1-b-3-rect" style="fill:#FF0000;fill-opacity:0.2" stroke="transparent" stroke-dasharray="0" stroke-width="0.5" x="146.94" y="701.8" width="31.56" height="31.5600000000001" />
<text id="outsiders-kcore1-b-1-text" y="717.58" style="text-anchor:middle;dominant-baseline:middle;font-family:Arial;font-size:12px;fill:#FF0000">
<tspan x="4.93" dy="0">12</tspan>
</text>
<text id="outsiders-kcore1-b-2-text" y="717.58" style="text-anchor:middle;dominant-baseline:middle;font-family:Arial;font-size:12px;fill:#FF0000">
<tspan x="83.83" dy="0">13</tspan>
</text>
<text id="outsiders-kcore1-b-3-text" y="717.58" style="text-anchor:middle;dominant-baseline:middle;font-family:Arial;font-size:12px;fill:#FF0000">
<tspan x="162.72" dy="0">16</tspan>
</text>
<text id="corelabel-1-text" y="575.57" style="text-anchor:start;dominant-baseline:baseline;font-family:Arial;font-size:15px;fill:grey50">
<tspan x="-33.85" dy="0">Outside the giant component</tspan>
</text>
<rect id="annotation-1-rect" style="fill:none;fill-opacity:0.5" stroke="transparent" stroke-dasharray="0" stroke-width="0.5" x="897.44" y="-0.03" width="0.0299999999999727" height="0.03" />
<text id="annotation-1-text" y="-0.02" style="text-anchor:middle;dominant-baseline:middle;font-family:Arial;font-size:10.5px;fill:transparent">
</text>
<text id="annotation-1-text" y="0" style="text-anchor:middle;dominant-baseline:middle;font-family:Arial;font-size:3px;fill:red">
<tspan x="897.44" dy="0">.</tspan>
</text>
<text id="annotation-1-text" y="0" style="text-anchor:middle;dominant-baseline:middle;font-family:Arial;font-size:3px;fill:red">
<tspan x="-464.5" dy="0">.</tspan>
</text>
<g id="link-1-segment" fill="none" stroke="#888888" stroke-dasharray="0" stroke-width="0.3" stroke-opacity="0.5">
<path d="M-666.78 102.96 L-197.44 115.59"/>
</g>
<g id="link-2-segment" fill="none" stroke="#888888" stroke-dasharray="0" stroke-width="0.3" stroke-opacity="0.5">
<path d="M-165.13 -66.05 L-165.13 66.05"/>
</g>
<g id="link-3-segment" fill="none" stroke="#888888" stroke-dasharray="0" stroke-width="0.3" stroke-opacity="0.5">
<path d="M-165.13 -66.05 L-93.33 66.05"/>
</g>
<g id="link-4-segment" fill="none" stroke="#888888" stroke-dasharray="0" stroke-width="0.3" stroke-opacity="0.5">
<path d="M-165.13 -66.05 L50.26 66.05"/>
</g>
<g id="link-5-segment" fill="none" stroke="#888888" stroke-dasharray="0" stroke-width="0.3" stroke-opacity="0.5">
<path d="M-165.13 -66.05 L122.05 66.05"/>
</g>
<g id="link-6-segment" fill="none" stroke="#888888" stroke-dasharray="0" stroke-width="0.3" stroke-opacity="0.5">
<path d="M-165.13 -66.05 L193.85 66.05"/>
</g>
<g id="link-7-segment" fill="none" stroke="#888888" stroke-dasharray="0" stroke-width="0.3" stroke-opacity="0.5">
<path d="M-93.33 -66.05 L-165.13 66.05"/>
</g>
<g id="link-8-segment" fill="none" stroke="#888888" stroke-dasharray="0" stroke-width="0.3" stroke-opacity="0.5">
<path d="M-93.33 -66.05 L-93.33 66.05"/>
</g>
<g id="link-9-segment" fill="none" stroke="#888888" stroke-dasharray="0" stroke-width="0.3" stroke-opacity="0.5">
<path d="M-93.33 -66.05 L-21.54 66.05"/>
</g>
<g id="link-10-segment" fill="none" stroke="#888888" stroke-dasharray="0" stroke-width="0.3" stroke-opacity="0.5">
<path d="M-93.33 -66.05 L50.26 66.05"/>
</g>
<g id="link-11-segment" fill="none" stroke="#888888" stroke-dasharray="0" stroke-width="0.3" stroke-opacity="0.5">
<path d="M-93.33 -66.05 L122.05 66.05"/>
</g>
<g id="link-12-segment" fill="none" stroke="#888888" stroke-dasharray="0" stroke-width="0.3" stroke-opacity="0.5">
<path d="M-21.54 -66.05 L-165.13 66.05"/>
</g>
<g id="link-13-segment" fill="none" stroke="#888888" stroke-dasharray="0" stroke-width="0.3" stroke-opacity="0.5">
<path d="M-21.54 -66.05 L-93.33 66.05"/>
</g>
<g id="link-14-segment" fill="none" stroke="#888888" stroke-dasharray="0" stroke-width="0.3" stroke-opacity="0.5">
<path d="M-21.54 -66.05 L-21.54 66.05"/>
</g>
<g id="link-15-segment" fill="none" stroke="#888888" stroke-dasharray="0" stroke-width="0.3" stroke-opacity="0.5">
<path d="M-21.54 -66.05 L50.26 66.05"/>
</g>
<g id="link-16-segment" fill="none" stroke="#888888" stroke-dasharray="0" stroke-width="0.3" stroke-opacity="0.5">
<path d="M50.26 -66.05 L-165.13 66.05"/>
</g>
<g id="link-17-segment" fill="none" stroke="#888888" stroke-dasharray="0" stroke-width="0.3" stroke-opacity="0.5">
<path d="M50.26 -66.05 L-93.33 66.05"/>
</g>
<g id="link-18-segment" fill="none" stroke="#888888" stroke-dasharray="0" stroke-width="0.3" stroke-opacity="0.5">
<path d="M50.26 -66.05 L-21.54 66.05"/>
</g>
<g id="link-19-segment" fill="none" stroke="#888888" stroke-dasharray="0" stroke-width="0.3" stroke-opacity="0.5">
<path d="M122.05 -66.05 L-165.13 66.05"/>
</g>
<g id="link-20-segment" fill="none" stroke="#888888" stroke-dasharray="0" stroke-width="0.3" stroke-opacity="0.5">
<path d="M122.05 -66.05 L-21.54 66.05"/>
</g>
<g id="link-21-segment" fill="none" stroke="#888888" stroke-dasharray="0" stroke-width="0.3" stroke-opacity="0.5">
<path d="M122.05 -66.05 L193.85 66.05"/>
</g>
<g id="link-22-segment" fill="none" stroke="#888888" stroke-dasharray="0" stroke-width="0.3" stroke-opacity="0.5">
<path d="M193.85 -66.05 L-165.13 66.05"/>
</g>
<g id="link-23-segment" fill="none" stroke="#888888" stroke-dasharray="0" stroke-width="0.3" stroke-opacity="0.5">
<path d="M193.85 -66.05 L122.05 66.05"/>
</g>
<g id="link-24-segment" fill="none" stroke="#888888" stroke-dasharray="0" stroke-width="0.3" stroke-opacity="0.5">
<path d="M193.85 -66.05 L193.85 66.05"/>
</g>
<g id="link-25-segment" fill="none" stroke="#888888" stroke-dasharray="0" stroke-width="0.3" stroke-opacity="0.5">
<path d="M480.72 751.12 L534.6 -335.54"/>
</g>
<g id="link-26-segment" fill="none" stroke="#888888" stroke-dasharray="0" stroke-width="0.3" stroke-opacity="0.5">
<path d="M487.3 732.19 L534.6 -335.54"/>
</g>
<g id="link-27-segment" fill="none" stroke="#888888" stroke-dasharray="0" stroke-width="0.3" stroke-opacity="0.5">
<path d="M487.3 732.19 L549.96 -316.61"/>
</g>
<g id="link-28-segment" fill="none" stroke="#888888" stroke-dasharray="0" stroke-width="0.3" stroke-opacity="0.5">
<path d="M533.37 599.64 L473.18 -411.28"/>
</g>
<g id="link-29-segment" fill="none" stroke="#888888" stroke-dasharray="0" stroke-width="0.3" stroke-opacity="0.5">
<path d="M539.95 580.71 L457.82 -430.22"/>
</g>
<g id="link-30-segment" fill="none" stroke="#888888" stroke-dasharray="0" stroke-width="0.3" stroke-opacity="0.5">
<path d="M546.53 561.77 L519.25 -354.48"/>
</g>
<g id="link-31-segment" fill="none" stroke="#888888" stroke-dasharray="0" stroke-width="0.3" stroke-opacity="0.5">
<path d="M546.53 561.77 L534.6 -335.54"/>
</g>
<g id="link-32-segment" fill="none" stroke="#888888" stroke-dasharray="0" stroke-width="0.3" stroke-opacity="0.5">
<path d="M553.11 542.84 L549.96 -316.61"/>
</g>
<g id="link-33-segment" fill="none" stroke="#888888" stroke-dasharray="0" stroke-width="0.3" stroke-opacity="0.5">
<path d="M559.69 523.9 L457.82 -430.22"/>
</g>
<g id="link-34-segment" fill="none" stroke="#888888" stroke-dasharray="0" stroke-width="0.3" stroke-opacity="0.5">
<path d="M566.27 504.97 L473.18 -411.28"/>
</g>
<g id="link-35-segment" fill="none" stroke="#888888" stroke-dasharray="0" stroke-width="0.3" stroke-opacity="0.5">
<path d="M572.85 486.03 L473.18 -411.28"/>
</g>
<g id="link-36-segment" fill="none" stroke="#888888" stroke-dasharray="0" stroke-width="0.3" stroke-opacity="0.5">
<path d="M579.43 467.1 L488.53 -392.35"/>
</g>
<g id="link-37-segment" fill="none" stroke="#888888" stroke-dasharray="0" stroke-width="0.3" stroke-opacity="0.5">
<path d="M579.43 467.1 L503.89 -373.41"/>
</g>
<g id="link-38-segment" fill="none" stroke="#888888" stroke-dasharray="0" stroke-width="0.3" stroke-opacity="0.5">
<path d="M586.01 448.16 L534.6 -335.54"/>
</g>
<g id="link-39-segment" fill="none" stroke="#888888" stroke-dasharray="0" stroke-width="0.3" stroke-opacity="0.5">
<path d="M586.01 448.16 L549.96 -316.61"/>
</g>
<g id="link-40-segment" fill="none" stroke="#888888" stroke-dasharray="0" stroke-width="0.3" stroke-opacity="0.5">
<path d="M592.59 429.23 L519.25 -354.48"/>
</g>
<g id="link-41-segment" fill="none" stroke="#888888" stroke-dasharray="0" stroke-width="0.3" stroke-opacity="0.5">
<path d="M592.59 429.23 L565.31 -297.67"/>
</g>
<g id="link-42-segment" fill="none" stroke="#888888" stroke-dasharray="0" stroke-width="0.3" stroke-opacity="0.5">
<path d="M599.18 410.29 L519.25 -354.48"/>
</g>
<g id="link-43-segment" fill="none" stroke="#888888" stroke-dasharray="0" stroke-width="0.3" stroke-opacity="0.5">
<path d="M599.18 410.29 L565.31 -297.67"/>
</g>
<g id="link-44-segment" fill="none" stroke="#888888" stroke-dasharray="0" stroke-width="0.3" stroke-opacity="0.5">
<path d="M605.76 391.36 L488.53 -392.35"/>
</g>
<g id="link-45-segment" fill="none" stroke="#888888" stroke-dasharray="0" stroke-width="0.3" stroke-opacity="0.5">
<path d="M605.76 391.36 L503.89 -373.41"/>
</g>
<g id="link-46-segment" fill="none" stroke="#888888" stroke-dasharray="0" stroke-width="0.3" stroke-opacity="0.5">
<path d="M4.93 638.68 L162.72 701.8"/>
</g>
<g id="link-47-segment" fill="none" stroke="#888888" stroke-dasharray="0" stroke-width="0.3" stroke-opacity="0.5">
<path d="M83.83 638.68 L4.93 701.8"/>
</g>
<g id="link-48-segment" fill="none" stroke="#888888" stroke-dasharray="0" stroke-width="0.3" stroke-opacity="0.5">
<path d="M83.83 638.68 L83.83 701.8"/>
</g>
<g id="link-1-path" fill="none" stroke="#888888" stroke-dasharray="0" stroke-width="0.3" stroke-opacity="0.5">
<path d="M-161.54 580  L-130.03 544.23 L-98.52 507.28 L-67.01 467.99 L-35.5 425.19 L-3.99 377.7 L27.52 324.36 L59.03 263.98 L90.54 195.41 L122.05 118.89"/>
</g>
<g id="link-2-path" fill="none" stroke="#888888" stroke-dasharray="0" stroke-width="0.3" stroke-opacity="0.5">
<path d="M-197.77 591.93  L-170.21 556.13 L-142.65 519.15 L-115.1 479.83 L-87.54 436.99 L-59.98 389.47 L-32.42 336.08 L-4.86 275.66 L22.7 207.03 L50.26 130.45"/>
</g>
<g id="link-3-path" fill="none" stroke="#888888" stroke-dasharray="0" stroke-width="0.3" stroke-opacity="0.5">
<path d="M-234 603.86  L-210.4 568.03 L-186.79 531.02 L-163.18 491.67 L-139.57 448.8 L-115.97 401.24 L-92.36 347.8 L-68.75 287.34 L-45.15 218.65 L-21.54 142.01"/>
</g>
<g id="link-4-path" fill="none" stroke="#888888" stroke-dasharray="0" stroke-width="0.3" stroke-opacity="0.5">
<path d="M-289.74 625.62  L-267.92 589 L-246.09 551.17 L-224.27 510.95 L-202.45 467.13 L-180.63 418.52 L-158.8 363.91 L-136.98 302.1 L-115.16 231.9 L-93.33 153.57"/>
</g>
<g id="link-5-path" fill="none" stroke="#888888" stroke-dasharray="0" stroke-width="0.3" stroke-opacity="0.5">
<path d="M642.09 -419.17  L666.48 -416.88 L690.88 -407.96 L715.28 -393.62 L739.68 -374.84 L764.07 -352.37 L788.47 -326.95 L812.87 -299.32 L837.26 -270.21 L861.66 -240.36"/>
</g>
<g id="link-6-path" fill="none" stroke="#888888" stroke-dasharray="0" stroke-width="0.3" stroke-opacity="0.5">
<path d="M645.93 -438.11  L669.9 -436.04 L693.87 -427.99 L717.84 -415.05 L741.81 -398.11 L765.78 -377.84 L789.75 -354.9 L813.72 -329.96 L837.69 -303.69 L861.66 -276.76"/>
</g>
<g id="link-7-path" fill="none" stroke="#888888" stroke-dasharray="0" stroke-width="0.3" stroke-opacity="0.5">
<path d="M649.77 -457.04  L673.31 -455.23 L696.85 -448.18 L720.4 -436.85 L743.94 -422.02 L767.48 -404.27 L791.03 -384.19 L814.57 -362.36 L838.12 -339.36 L861.66 -315.78"/>
</g>
<g id="link-8-path" fill="none" stroke="#888888" stroke-dasharray="0" stroke-width="0.3" stroke-opacity="0.5">
<path d="M650.18 418.18  L676.95 418 L703.72 417.3 L730.5 416.17 L757.27 414.68 L784.04 412.91 L810.82 410.91 L837.59 408.73 L864.36 406.43 L891.14 404.07"/>
</g>
<g id="link-9-path" fill="none" stroke="#888888" stroke-dasharray="0" stroke-width="0.3" stroke-opacity="0.5">
<path d="M661.69 550.73  L687.19 549.35 L712.68 543.98 L738.17 535.34 L763.67 524.04 L789.16 510.52 L814.65 495.22 L840.15 478.58 L865.64 461.06 L891.14 443.09"/>
</g>
<g id="link-10-path" fill="none" stroke="#888888" stroke-dasharray="0" stroke-width="0.3" stroke-opacity="0.5">
<path d="M-165.13 165.13  L-94.1 269.35 L-23.07 358.62 L47.96 420 L118.99 458.02 L190.02 486.18 L261.05 518.07 L332.08 567.28 L403.11 647.4 L474.14 770.06"/>
</g>
<g id="link-11-path" fill="none" stroke="#888888" stroke-dasharray="0" stroke-width="0.3" stroke-opacity="0.5">
<path d="M-93.33 153.57  L-30.28 259.78 L32.77 350.76 L95.82 413.32 L158.88 452.05 L221.93 480.75 L284.98 513.25 L348.03 563.4 L411.09 645.05 L474.14 770.06"/>
</g>
<g id="link-12-path" fill="none" stroke="#888888" stroke-dasharray="0" stroke-width="0.3" stroke-opacity="0.5">
<path d="M-165.13 165.13  L-93.37 266.09 L-21.61 352.57 L50.15 412.03 L121.92 448.85 L193.68 476.13 L265.44 507.02 L337.2 554.69 L408.96 632.3 L480.72 751.12"/>
</g>
<g id="link-13-path" fill="none" stroke="#888888" stroke-dasharray="0" stroke-width="0.3" stroke-opacity="0.5">
<path d="M-21.54 142.01  L34.27 246.95 L90.07 336.84 L145.88 398.65 L201.69 436.92 L257.49 465.28 L313.3 497.39 L369.11 546.94 L424.91 627.62 L480.72 751.12"/>
</g>
<g id="link-14-path" fill="none" stroke="#888888" stroke-dasharray="0" stroke-width="0.3" stroke-opacity="0.5">
<path d="M-165.13 165.13  L-92.64 262.82 L-20.14 346.51 L52.35 404.05 L124.84 439.68 L197.33 466.08 L269.82 495.97 L342.32 542.1 L414.81 617.21 L487.3 732.19"/>
</g>
<g id="link-15-path" fill="none" stroke="#888888" stroke-dasharray="0" stroke-width="0.3" stroke-opacity="0.5">
<path d="M122.05 118.89  L162.63 224.55 L203.22 315.06 L243.8 377.29 L284.38 415.83 L324.97 444.38 L365.55 476.71 L406.13 526.6 L446.72 607.83 L487.3 732.19"/>
</g>
<g id="link-16-path" fill="none" stroke="#888888" stroke-dasharray="0" stroke-width="0.3" stroke-opacity="0.5">
<path d="M-93.33 153.57  L-28.09 250 L37.16 332.59 L102.41 389.38 L167.65 424.55 L232.9 450.6 L298.14 480.11 L363.39 525.64 L428.64 599.77 L493.88 713.25"/>
</g>
<g id="link-17-path" fill="none" stroke="#888888" stroke-dasharray="0" stroke-width="0.3" stroke-opacity="0.5">
<path d="M-21.54 142.01  L35.73 240.43 L93 324.73 L150.27 382.69 L207.54 418.59 L264.81 445.18 L322.08 475.29 L379.34 521.77 L436.61 597.42 L493.88 713.25"/>
</g>
<g id="link-18-path" fill="none" stroke="#888888" stroke-dasharray="0" stroke-width="0.3" stroke-opacity="0.5">
<path d="M-165.13 165.13  L-91.17 256.3 L-17.22 334.4 L56.74 388.09 L130.69 421.35 L204.64 445.98 L278.6 473.88 L352.55 516.93 L426.51 587.02 L500.46 694.32"/>
</g>
<g id="link-19-path" fill="none" stroke="#888888" stroke-dasharray="0" stroke-width="0.3" stroke-opacity="0.5">
<path d="M-93.33 153.57  L-27.36 246.73 L38.62 326.53 L104.6 381.4 L170.58 415.38 L236.55 440.55 L302.53 469.06 L368.51 513.05 L434.49 584.67 L500.46 694.32"/>
</g>
<g id="link-20-path" fill="none" stroke="#888888" stroke-dasharray="0" stroke-width="0.3" stroke-opacity="0.5">
<path d="M-165.13 165.13  L-90.44 253.04 L-15.76 328.34 L58.93 380.11 L133.61 412.18 L208.3 435.93 L282.99 462.83 L357.67 504.34 L432.36 571.92 L507.04 675.38"/>
</g>
<g id="link-21-path" fill="none" stroke="#888888" stroke-dasharray="0" stroke-width="0.3" stroke-opacity="0.5">
<path d="M-93.33 153.57  L-26.62 243.47 L40.08 320.48 L106.79 373.43 L173.5 406.22 L240.21 430.51 L306.92 458.01 L373.63 500.46 L440.34 569.58 L507.04 675.38"/>
</g>
<g id="link-22-path" fill="none" stroke="#888888" stroke-dasharray="0" stroke-width="0.3" stroke-opacity="0.5">
<path d="M-165.13 165.13  L-89.71 249.78 L-14.29 322.28 L61.12 372.14 L136.54 403.01 L211.96 425.88 L287.37 451.78 L362.79 491.75 L438.21 556.82 L513.62 656.45"/>
</g>
<g id="link-23-path" fill="none" stroke="#888888" stroke-dasharray="0" stroke-width="0.3" stroke-opacity="0.5">
<path d="M-93.33 153.57  L-25.89 240.21 L41.55 314.42 L108.99 365.45 L176.43 397.05 L243.87 420.46 L311.31 446.97 L378.74 487.88 L446.18 554.48 L513.62 656.45"/>
</g>
<g id="link-24-path" fill="none" stroke="#888888" stroke-dasharray="0" stroke-width="0.3" stroke-opacity="0.5">
<path d="M-165.13 165.13  L-88.98 246.51 L-12.83 316.23 L63.32 364.16 L139.46 393.84 L215.61 415.83 L291.76 440.73 L367.91 479.16 L444.06 541.73 L520.21 637.51"/>
</g>
<g id="link-25-path" fill="none" stroke="#888888" stroke-dasharray="0" stroke-width="0.3" stroke-opacity="0.5">
<path d="M-93.33 153.57  L-25.16 236.95 L43.01 308.36 L111.18 357.47 L179.35 387.88 L247.52 410.41 L315.69 435.92 L383.86 475.29 L452.03 539.39 L520.21 637.51"/>
</g>
<g id="link-26-path" fill="none" stroke="#888888" stroke-dasharray="0" stroke-width="0.3" stroke-opacity="0.5">
<path d="M-165.13 165.13  L-88.25 243.25 L-11.37 310.17 L65.51 356.18 L142.39 384.68 L219.27 405.78 L296.15 429.69 L373.03 466.58 L449.91 526.63 L526.79 618.58"/>
</g>
<g id="link-27-path" fill="none" stroke="#888888" stroke-dasharray="0" stroke-width="0.3" stroke-opacity="0.5">
<path d="M-93.33 153.57  L-24.43 233.68 L44.47 302.31 L113.37 349.49 L182.28 378.71 L251.18 400.36 L320.08 424.87 L388.98 462.7 L457.88 524.29 L526.79 618.58"/>
</g>
<g id="link-28-path" fill="none" stroke="#888888" stroke-dasharray="0" stroke-width="0.3" stroke-opacity="0.5">
<path d="M-165.13 165.13  L-87.52 239.99 L-9.91 304.11 L67.7 348.2 L145.31 375.51 L222.92 395.73 L300.54 418.64 L378.15 453.99 L455.76 511.54 L533.37 599.64"/>
</g>
<g id="link-29-path" fill="none" stroke="#888888" stroke-dasharray="0" stroke-width="0.3" stroke-opacity="0.5">
<path d="M-165.13 165.13  L-86.79 236.73 L-8.44 298.06 L69.9 340.22 L148.24 366.34 L226.58 385.68 L304.92 407.59 L383.26 441.4 L461.61 496.44 L539.95 580.71"/>
</g>
<g id="link-30-path" fill="none" stroke="#888888" stroke-dasharray="0" stroke-width="0.3" stroke-opacity="0.5">
<path d="M-165.13 165.13  L-86.06 233.46 L-6.98 292 L72.09 332.25 L151.16 357.17 L230.24 375.63 L309.31 396.55 L388.38 428.81 L467.46 481.35 L546.53 561.77"/>
</g>
<g id="link-31-path" fill="none" stroke="#888888" stroke-dasharray="0" stroke-width="0.3" stroke-opacity="0.5">
<path d="M-165.13 165.13  L-85.32 230.2 L-5.52 285.94 L74.28 324.27 L154.09 348 L233.89 365.59 L313.7 385.5 L393.5 416.22 L473.31 466.25 L553.11 542.84"/>
</g>
<g id="link-32-path" fill="none" stroke="#888888" stroke-dasharray="0" stroke-width="0.3" stroke-opacity="0.5">
<path d="M-165.13 165.13  L-84.59 226.94 L-4.06 279.89 L76.48 316.29 L157.01 338.84 L237.55 355.54 L318.08 374.45 L398.62 403.64 L479.16 451.16 L559.69 523.9"/>
</g>
<g id="link-33-path" fill="none" stroke="#888888" stroke-dasharray="0" stroke-width="0.3" stroke-opacity="0.5">
<path d="M50.26 130.45  L107.59 194.98 L164.93 250.24 L222.26 288.25 L279.6 311.78 L336.93 329.21 L394.27 348.96 L451.6 379.43 L508.94 429.03 L566.27 504.97"/>
</g>
<g id="link-34-path" fill="none" stroke="#888888" stroke-dasharray="0" stroke-width="0.3" stroke-opacity="0.5">
<path d="M-165.13 165.13  L-83.13 220.42 L-1.13 267.77 L80.87 300.34 L162.86 320.5 L244.86 335.44 L326.86 352.36 L408.86 378.46 L490.85 420.96 L572.85 486.03"/>
</g>
<g id="link-35-path" fill="none" stroke="#888888" stroke-dasharray="0" stroke-width="0.3" stroke-opacity="0.5">
<path d="M-165.13 165.13  L-82.4 217.15 L0.33 261.72 L83.06 292.36 L165.79 311.33 L248.52 325.39 L331.25 341.31 L413.97 365.87 L496.7 405.87 L579.43 467.1"/>
</g>
<g id="link-36-path" fill="none" stroke="#888888" stroke-dasharray="0" stroke-width="0.3" stroke-opacity="0.5">
<path d="M-165.13 -165.13  L-97.62 -222.72 L-30.11 -260.34 L37.4 -283.44 L104.91 -298.41 L172.43 -311.64 L239.94 -329.48 L307.45 -358.3 L374.96 -400.22 L442.47 -449.15"/>
</g>
<g id="link-37-path" fill="none" stroke="#888888" stroke-dasharray="0" stroke-width="0.3" stroke-opacity="0.5">
<path d="M-165.13 -165.13  L-95.91 -218.88 L-26.69 -253.99 L42.52 -275.55 L111.74 -289.53 L180.96 -301.87 L250.17 -318.53 L319.39 -345.42 L388.61 -384.55 L457.82 -430.22"/>
</g>
<g id="link-38-path" fill="none" stroke="#888888" stroke-dasharray="0" stroke-width="0.3" stroke-opacity="0.5">
<path d="M-165.13 -165.13  L-94.21 -215.04 L-23.28 -247.64 L47.64 -267.67 L118.56 -280.64 L189.49 -292.1 L260.41 -307.57 L331.33 -332.55 L402.26 -368.87 L473.18 -411.28"/>
</g>
<g id="link-39-path" fill="none" stroke="#888888" stroke-dasharray="0" stroke-width="0.3" stroke-opacity="0.5">
<path d="M-93.33 -153.57  L-33.8 -213.5 L25.73 -252.65 L85.27 -276.7 L144.8 -292.28 L204.33 -306.04 L263.87 -324.61 L323.4 -354.61 L382.94 -398.23 L442.47 -449.15"/>
</g>
<g id="link-40-path" fill="none" stroke="#888888" stroke-dasharray="0" stroke-width="0.3" stroke-opacity="0.5">
<path d="M645.93 -438.11  L663.98 -438.65 L682.03 -440.79 L700.09 -444.22 L718.14 -448.71 L736.19 -454.09 L754.25 -460.17 L772.3 -466.78 L790.35 -473.75 L808.4 -480.89"/>
</g>
<g id="link-41-path" fill="none" stroke="#888888" stroke-dasharray="0" stroke-width="0.3" stroke-opacity="0.5">
<path d="M-481.46 -446  L-446.31 -424.21 L-411.16 -401.7 L-376.02 -377.77 L-340.87 -351.7 L-305.72 -322.77 L-270.57 -290.28 L-235.42 -253.51 L-200.28 -211.74 L-165.13 -165.13"/>
</g>
<g id="link-42-path" fill="none" stroke="#888888" stroke-dasharray="0" stroke-width="0.3" stroke-opacity="0.5">
<path d="M839.96 -480.89  L843.47 -480.89 L846.98 -480.89 L850.48 -480.89 L853.99 -480.89 L857.49 -480.89 L861 -480.89 L864.51 -480.89 L868.01 -480.89 L871.52 -480.89"/>
</g>
<g id="link-43-path" fill="none" stroke="#888888" stroke-dasharray="0" stroke-width="0.3" stroke-opacity="0.5">
<path d="M-576.13 -509.11  L-569.12 -504.22 L-562.11 -499.16 L-555.1 -493.78 L-548.08 -487.92 L-541.07 -481.42 L-534.06 -474.12 L-527.04 -465.86 L-520.03 -456.47 L-513.02 -446"/>
</g>
</svg>