<svg xmlns="http://www.w3.org/2000/svg" viewBox="-720 -480 1428 640.5">
<rect id="kcore3-a-1-rect" style="fill:#00008B;fill-opacity:0.2" stroke="transparent" stroke-dasharray="0" stroke-width="0.5" x="-139.01" y="-111.21" width="54.59" height="66.73" />
<rect id="kcore3-a-2-rect" style="fill:#4169E1;fill-opacity:0.2" stroke="transparent" stroke-dasharray="0" stroke-width="0.5" x="-78.35" y="-101.87" width="54.59" height="57.39" />
<rect id="kcore3-a-3-rect" style="fill:#00008B;fill-opacity:0.2" stroke="transparent" stroke-dasharray="0" stroke-width="0.5" x="-17.69" y="-92.53" width="54.59" height="48.05" />
<rect id="kcore3-a-4-rect" style="fill:#4169E1;fill-opacity:0.2" stroke="transparent" stroke-dasharray="0" stroke-width="0.5" x="42.97" y="-83.18" width="54.59" height="38.7" />
<rect id="kcore3-a-5-rect" style="fill:#00008B;fill-opacity:0.2" stroke="transparent" stroke-dasharray="0" stroke-width="0.5" x="103.63" y="-73.84" width="54.59" height="29.36" />
<text id="kcore3-a-1-text" y="-77.85" style="text-anchor:middle;dominant-baseline:middle;font-family:Arial;font-size:15px;fill:#00008B">
<tspan x="-111.71" dy="0">4</tspan>
</text>
<text id="kcore3-a-2-text" y="-73.18" style="text-anchor:middle;dominant-baseline:middle;font-family:Arial;font-size:15px;fill:#00008B">
<tspan x="-51.05" dy="0">7</tspan>
</text>
<text id="kcore3-a-3-text" y="-68.5" style="text-anchor:middle;dominant-baseline:middle;font-family:Arial;font-size:15px;fill:#00008B">
<tspan x="9.6" dy="0">5</tspan>
</text>
<text id="kcore3-a-4-text" y="-63.83" style="text-anchor:middle;dominant-baseline:middle;font-family:Arial;font-size:15px;fill:#00008B">
<tspan x="70.26" dy="0">6</tspan>
</text>
<text id="kcore3-a-5-text" y="-59.16" style="text-anchor:middle;dominant-baseline:middle;font-family:Arial;font-size:15px;fill:#00008B">
<tspan x="130.92" dy="0">2</tspan>
</text>
<rect id="kcore3-b-1-rect" style="fill:#FF0000;fill-opacity:0.2" stroke="transparent" stroke-dasharray="0" stroke-width="0.5" x="-240.11" y="44.48" width="36.4" height="66.73" />
<rect id="kcore3-b-2-rect" style="fill:#F08080;fill-opacity:0.2" stroke="transparent" stroke-dasharray="0" stroke-width="0.5" x="-199.67" y="44.48" width="36.4" height="62.06" />
<rect id="kcore3-b-3-rect" style="fill:#FF0000;fill-opacity:0.2" stroke="transparent" stroke-dasharray="0" stroke-width="0.5" x="-159.23" y="44.48" width="36.39" height="57.39" />
<rect id="kcore3-b-4-rect" style="fill:#F08080;fill-opacity:0.2" stroke="transparent" stroke-dasharray="0" stroke-width="0.5" x="-118.79" y="44.48" width="36.39" height="52.72" />
<rect id="kcore3-b-5-rect" style="fill:#FF0000;fill-opacity:0.2" stroke="transparent" stroke-dasharray="0" stroke-width="0.5" x="-78.35" y="44.48" width="36.39" height="48.05" />
<rect id="kcore3-b-6-rect" style="fill:#F08080;fill-opacity:0.2" stroke="transparent" stroke-dasharray="0" stroke-width="0.5" x="-37.91" y="44.48" width="36.39" height="43.37" />
<rect id="kcore3-b-7-rect" style="fill:#FF0000;fill-opacity:0.2" stroke="transparent" stroke-dasharray="0" stroke-width="0.5" x="2.53" y="44.48" width="36.39" height="38.7" />
<rect id="kcore3-b-8-rect" style="fill:#F08080;fill-opacity:0.2" stroke="transparent" stroke-dasharray="0" stroke-width="0.5" x="42.97" y="44.48" width="36.39" height="34.03" />
<rect id="kcore3-b-9-rect" style="fill:#FF0000;fill-opacity:0.2" stroke="transparent" stroke-dasharray="0" stroke-width="0.5" x="83.41" y="44.48" width="36.39" height="29.36" />
<rect id="kcore3-b-10-rect" style="fill:#F08080;fill-opacity:0.2" stroke="transparent" stroke-dasharray="0" stroke-width="0.5" x="123.85" y="44.48" width="36.39" height="24.69" />
<text id="kcore3-b-1-text" y="77.85" style="text-anchor:middle;dominant-baseline:middle;font-family:Arial;font-size:15px;fill:#FF0000">
<tspan x="-221.91" dy="0">20</tspan>
</text>
<text id="kcore3-b-2-text" y="75.51" style="text-anchor:middle;dominant-baseline:middle;font-family:Arial;font-size:15px;fill:#FF0000">
<tspan x="-181.47" dy="0">29</tspan>
</text>
<text id="kcore3-b-3-text" y="73.18" style="text-anchor:middle;dominant-baseline:middle;font-family:Arial;font-size:15px;fill:#FF0000">
<tspan x="-141.03" dy="0">33</tspan>
</text>
<text id="kcore3-b-4-text" y="70.84" style="text-anchor:middle;dominant-baseline:middle;font-family:Arial;font-size:15px;fill:#FF0000">
<tspan x="-100.59" dy="0">32</tspan>
</text>
<text id="kcore3-b-5-text" y="68.5" style="text-anchor:middle;dominant-baseline:middle;font-family:Arial;font-size:15px;fill:#FF0000">
<tspan x="-60.15" dy="0">24</tspan>
</text>
<text id="kcore3-b-6-text" y="66.17" style="text-anchor:middle;dominant-baseline:middle;font-family:Arial;font-size:15px;fill:#FF0000">
<tspan x="-19.71" dy="0">44</tspan>
</text>
<text id="kcore3-b-7-text" y="63.83" style="text-anchor:middle;dominant-baseline:middle;font-family:Arial;font-size:15px;fill:#FF0000">
<tspan x="20.73" dy="0">27</tspan>
</text>
<text id="kcore3-b-8-text" y="61.5" style="text-anchor:middle;dominant-baseline:middle;font-family:Arial;font-size:15px;fill:#FF0000">
<tspan x="61.16" dy="0">39</tspan>
</text>
<text id="kcore3-b-9-text" y="59.16" style="text-anchor:middle;dominant-baseline:middle;font-family:Arial;font-size:15px;fill:#FF0000">
<tspan x="101.6" dy="0">37</tspan>
</text>
<text id="kcore3-b-10-text" y="56.83" style="text-anchor:middle;dominant-baseline:middle;font-family:Arial;font-size:15px;fill:#FF0000">
<tspan x="142.04" dy="0">1</tspan>
</text>
<rect id="kcore2-b-1-rect" style="fill:#FF0000;fill-opacity:0.2" stroke="transparent" stroke-dasharray="0" stroke-width="0.5" x="333.83" y="-429.69" width="145.96" height="7.41000000000003" />
<rect id="kcore2-b-2-rect" style="fill:#F08080;fill-opacity:0.2" stroke="transparent" stroke-dasharray="0" stroke-width="0.5" x="338.47" y="-420.8" width="140.16" height="7.41000000000003" />
<rect id="kcore2-b-3-rect" style="fill:#FF0000;fill-opacity:0.2" stroke="transparent" stroke-dasharray="0" stroke-width="0.5" x="343.1" y="-411.91" width="134.37" height="7.40000000000003" />
<rect id="kcore2-b-4-rect" style="fill:#F08080;fill-opacity:0.2" stroke="transparent" stroke-dasharray="0" stroke-width="0.5" x="347.73" y="-403.03" width="128.58" height="7.40999999999997" />
<rect id="kcore2-b-5-rect" style="fill:#FF0000;fill-opacity:0.2" stroke="transparent" stroke-dasharray="0" stroke-width="0.5" x="352.37" y="-394.14" width="122.78" height="7.40999999999997" />
<rect id="kcore2-b-6-rect" style="fill:#F08080;fill-opacity:0.2" stroke="transparent" stroke-dasharray="0" stroke-width="0.5" x="357" y="-385.25" width="116.99" height="7.41000000000003" />
<rect id="kcore2-b-7-rect" style="fill:#FF0000;fill-opacity:0.2" stroke="transparent" stroke-dasharray="0" stroke-width="0.5" x="361.63" y="-376.36" width="111.21" height="7.40000000000003" />
<rect id="kcore2-b-8-rect" style="fill:#F08080;fill-opacity:0.2" stroke="transparent" stroke-dasharray="0" stroke-width="0.5" x="366.27" y="-367.47" width="105.41" height="7.40000000000003" />
<rect id="kcore2-b-9-rect" style="fill:#FF0000;fill-opacity:0.2" stroke="transparent" stroke-dasharray="0" stroke-width="0.5" x="370.9" y="-358.59" width="99.62" height="7.40999999999997" />
<rect id="kcore2-b-10-rect" style="fill:#F08080;fill-opacity:0.2" stroke="transparent" stroke-dasharray="0" stroke-width="0.5" x="375.53" y="-349.7" width="93.83" height="7.40999999999997" />
<rect id="kcore2-b-11-rect" style="fill:#FF0000;fill-opacity:0.2" stroke="transparent" stroke-dasharray="0" stroke-width="0.5" x="380.17" y="-340.81" width="88.03" height="7.41000000000003" />
<rect id="kcore2-b-12-rect" style="fill:#F08080;fill-opacity:0.2" stroke="transparent" stroke-dasharray="0" stroke-width="0.5" x="384.8" y="-331.92" width="82.24" height="7.40000000000003" />
<rect id="kcore2-b-13-rect" style="fill:#FF0000;fill-opacity:0.2" stroke="transparent" stroke-dasharray="0" stroke-width="0.5" x="389.43" y="-323.04" width="76.46" height="7.41000000000003" />
<rect id="kcore2-b-14-rect" style="fill:#F08080;fill-opacity:0.2" stroke="transparent" stroke-dasharray="0" stroke-width="0.5" x="394.07" y="-314.15" width="70.66" height="7.40999999999997" />
<rect id="kcore2-b-15-rect" style="fill:#FF0000;fill-opacity:0.2" stroke="transparent" stroke-dasharray="0" stroke-width="0.5" x="398.7" y="-305.26" width="64.87" height="7.40999999999997" />
<rect id="kcore2-b-16-rect" style="fill:#F08080;fill-opacity:0.2" stroke="transparent" stroke-dasharray="0" stroke-width="0.5" x="403.33" y="-296.37" width="59.08" height="7.39999999999998" />
<rect id="kcore2-b-17-rect" style="fill:#FF0000;fill-opacity:0.2" stroke="transparent" stroke-dasharray="0" stroke-width="0.5" x="407.97" y="-287.48" width="53.28" height="7.40000000000003" />
<rect id="kcore2-b-18-rect" style="fill:#F08080;fill-opacity:0.2" stroke="transparent" stroke-dasharray="0" stroke-width="0.5" x="412.6" y="-278.6" width="47.49" height="7.41000000000003" />
<rect id="kcore2-b-19-rect" style="fill:#FF0000;fill-opacity:0.2" stroke="transparent" stroke-dasharray="0" stroke-width="0.5" x="417.24" y="-269.71" width="41.7" height="7.40999999999997" />
<rect id="kcore2-b-20-rect" style="fill:#F08080;fill-opacity:0.2" stroke="transparent" stroke-dasharray="0" stroke-width="0.5" x="421.87" y="-260.82" width="35.91" height="7.41" />
<rect id="kcore2-b-21-rect" style="fill:#FF0000;fill-opacity:0.2" stroke="transparent" stroke-dasharray="0" stroke-width="0.5" x="426.5" y="-251.93" width="30.12" height="7.40000000000001" />
<text id="kcore2-b-1-text" y="-425.99" style="text-anchor:middle;dominant-baseline:middle;font-family:Arial;font-size:13.5px;fill:#FF0000">
<tspan x="355.73" dy="0">2</tspan>
</text>
<text id="kcore2-b-2-text" y="-417.1" style="text-anchor:middle;dominant-baseline:middle;font-family:Arial;font-size:13.5px;fill:#FF0000">
<tspan x="450.6" dy="0">5</tspan>
</text>
<text id="kcore2-b-3-text" y="-408.21" style="text-anchor:middle;dominant-baseline:middle;font-family:Arial;font-size:13.5px;fill:#FF0000">
<tspan x="363.26" dy="0">7</tspan>
</text>
<text id="kcore2-b-4-text" y="-399.32" style="text-anchor:middle;dominant-baseline:middle;font-family:Arial;font-size:13.5px;fill:#FF0000">
<tspan x="450.6" dy="0">8</tspan>
</text>
<text id="kcore2-b-5-text" y="-390.43" style="text-anchor:middle;dominant-baseline:middle;font-family:Arial;font-size:13.5px;fill:#FF0000">
<tspan x="370.78" dy="0">9</tspan>
</text>
<text id="kcore2-b-6-text" y="-381.55" style="text-anchor:middle;dominant-baseline:middle;font-family:Arial;font-size:13.5px;fill:#FF0000">
<tspan x="450.6" dy="0">10</tspan>
</text>
<text id="kcore2-b-7-text" y="-372.66" style="text-anchor:middle;dominant-baseline:middle;font-family:Arial;font-size:13.5px;fill:#FF0000">
<tspan x="378.31" dy="0">11</tspan>
</text>
<text id="kcore2-b-8-text" y="-363.77" style="text-anchor:middle;dominant-baseline:middle;font-family:Arial;font-size:13.5px;fill:#FF0000">
<tspan x="450.6" dy="0">14</tspan>
</text>
<text id="kcore2-b-9-text" y="-354.88" style="text-anchor:middle;dominant-baseline:middle;font-family:Arial;font-size:13.5px;fill:#FF0000">
<tspan x="385.84" dy="0">15</tspan>
</text>
<text id="kcore2-b-10-text" y="-346" style="text-anchor:middle;dominant-baseline:middle;font-family:Arial;font-size:13.5px;fill:#FF0000">
<tspan x="450.6" dy="0">17</tspan>
</text>
<text id="kcore2-b-11-text" y="-337.11" style="text-anchor:middle;dominant-baseline:middle;font-family:Arial;font-size:13.5px;fill:#FF0000">
<tspan x="393.37" dy="0">18</tspan>
</text>
<text id="kcore2-b-12-text" y="-328.22" style="text-anchor:middle;dominant-baseline:middle;font-family:Arial;font-size:13.5px;fill:#FF0000">
<tspan x="450.6" dy="0">19</tspan>
</text>
<text id="kcore2-b-13-text" y="-319.33" style="text-anchor:middle;dominant-baseline:middle;font-family:Arial;font-size:13.5px;fill:#FF0000">
<tspan x="400.9" dy="0">21</tspan>
</text>
<text id="kcore2-b-14-text" y="-310.44" style="text-anchor:middle;dominant-baseline:middle;font-family:Arial;font-size:13.5px;fill:#FF0000">
<tspan x="450.6" dy="0">23</tspan>
</text>
<text id="kcore2-b-15-text" y="-301.56" style="text-anchor:middle;dominant-baseline:middle;font-family:Arial;font-size:13.5px;fill:#FF0000">
<tspan x="408.43" dy="0">28</tspan>
</text>
<text id="kcore2-b-16-text" y="-292.67" style="text-anchor:middle;dominant-baseline:middle;font-family:Arial;font-size:13.5px;fill:#FF0000">
<tspan x="450.6" dy="0">30</tspan>
</text>
<text id="kcore2-b-17-text" y="-283.78" style="text-anchor:middle;dominant-baseline:middle;font-family:Arial;font-size:13.5px;fill:#FF0000">
<tspan x="415.96" dy="0">31</tspan>
</text>
<text id="kcore2-b-18-text" y="-274.89" style="text-anchor:middle;dominant-baseline:middle;font-family:Arial;font-size:13.5px;fill:#FF0000">
<tspan x="450.6" dy="0">38</tspan>
</text>
<text id="kcore2-b-19-text" y="-266" style="text-anchor:middle;dominant-baseline:middle;font-family:Arial;font-size:13.5px;fill:#FF0000">
<tspan x="423.49" dy="0">40</tspan>
</text>
<text id="kcore2-b-20-text" y="-257.12" style="text-anchor:middle;dominant-baseline:middle;font-family:Arial;font-size:13.5px;fill:#FF0000">
<tspan x="450.6" dy="0">42</tspan>
</text>
<text id="kcore2-b-21-text" y="-248.23" style="text-anchor:middle;dominant-baseline:middle;font-family:Arial;font-size:13.5px;fill:#FF0000">
<tspan x="431.02" dy="0">43</tspan>
</text>
<rect id="kcore3-1-rect" style="fill:none;fill-opacity:0.3" stroke="#8B4C39" stroke-dasharray="1 1" stroke-width="0" x="-286.77" y="-131.95" width="462.57" height="253.53" />
<text id="kcore3-1-text" y="-5.18" style="text-anchor:middle;dominant-baseline:middle;font-family:Arial;font-size:10.5px;fill:transparent">
</text>
<text id="kcore3-1-text" y="0" transform="rotate(-90 -261.89 0)" style="text-anchor:start;dominant-baseline:baseline;font-family:Arial;font-size:15px;fill:#8B4C39">
<tspan x="-261.89" dy="0">3-shell</tspan>
</text>
<rect id="kcore2-1-rect" style="fill:none;fill-opacity:0.3" stroke="#AC5E46" stroke-dasharray="1 1" stroke-width="0" x="318.28" y="-455.61" width="177.06" height="221.45" />
<text id="kcore2-1-text" y="-344.88" style="text-anchor:middle;dominant-baseline:middle;font-family:Arial;font-size:10.5px;fill:transparent">
</text>
<text id="kcore2-1-text" y="-441.09" style="text-anchor:start;dominant-baseline:baseline;font-family:Arial;font-size:15px;fill:#AC5E46">
<tspan x="391.26" dy="0">2-shell</tspan>
</text>
<rect id="edge-kcore1-b-2-1-rect" style="fill:#FF0000;fill-opacity:0.11" stroke="transparent" stroke-dasharray="0" stroke-width="0.5" x="-100.28" y="-320.49" width="15.55" height="11.11" />
<text id="edge-kcore1-b-2-1-text" y="-314.93" transform="rotate(-30 -92.51 -314.93)" style="text-anchor:middle;dominant-baseline:middle;font-family:Arial;font-size:12px;fill:#FF0000">
<tspan x="-92.51" dy="0"> 13</tspan>
</text>
<rect id="edge-kcore1-b-6-1-rect" style="fill:#FF0000;fill-opacity:0.11" stroke="transparent" stroke-dasharray="0" stroke-width="0.5" x="-124.68" y="-326.09" width="15.55" height="11.11" />
<text id="edge-kcore1-b-6-1-text" y="-320.53" transform="rotate(-30 -116.91 -320.53)" style="text-anchor:middle;dominant-baseline:middle;font-family:Arial;font-size:12px;fill:#FF0000">
<tspan x="-116.91" dy="0"> 36</tspan>
</text>
<rect id="edge-kcore1-b-7-1-rect" style="fill:#FF0000;fill-opacity:0.11" stroke="transparent" stroke-dasharray="0" stroke-width="0.5" x="-149.08" y="-331.68" width="15.55" height="11.11" />
<text id="edge-kcore1-b-7-1-text" y="-326.13" transform="rotate(-30 -141.31 -326.13)" style="text-anchor:middle;dominant-baseline:middle;font-family:Arial;font-size:12px;fill:#FF0000">
<tspan x="-141.31" dy="0"> 35</tspan>
</text>
<rect id="fat-kcore1-a-1-rect" style="fill:#00008B;fill-opacity:0.11" stroke="transparent" stroke-dasharray="0" stroke-width="0.5" x="-614.69" y="45.28" width="19.84" height="14.18" />
<text id="fat-kcore1-a-1-text" y="52.37" style="text-anchor:start;dominant-baseline:baseline;font-family:Arial;font-size:12px;fill:#00008B">
<tspan x="-604.77" dy="0"> 3 </tspan>
<tspan x="-604.77" dy="16.8"> 8</tspan>
</text>
<rect id="fat-kcore1-b-1-rect" style="fill:#FF0000;fill-opacity:0.11" stroke="transparent" stroke-dasharray="0" stroke-width="0.5" x="-614.69" y="-71.2" width="36.2900000000001" height="25.92" />
<text id="fat-kcore1-b-1-text" y="-58.24" style="text-anchor:start;dominant-baseline:baseline;font-family:Arial;font-size:12px;fill:#FF0000">
<tspan x="-596.55" dy="0"> 3 4 12 </tspan>
<tspan x="-596.55" dy="16.8"> 16 22 25 </tspan>
<tspan x="-596.55" dy="16.8"> 26 34 41</tspan>
</text>
<rect id="specialist-chains-kcore1-b-1-1-rect" style="fill:#FF0000;fill-opacity:0.2" stroke="transparent" stroke-dasharray="0" stroke-width="0.5" x="-287.14" y="-330.49" width="20.74" height="14.82" />
<text id="specialist-chains-kcore1-b-1-1-text" y="-323.08" style="text-anchor:middle;dominant-baseline:middle;font-family:Arial;font-size:12px;fill:#FF0000">
<tspan x="-276.77" dy="0"> 6</tspan>
</text>
<rect id="specialist-chains-kcore1-a-2-1-rect" style="fill:#00008B;fill-opacity:0.2" stroke="transparent" stroke-dasharray="0" stroke-width="0.5" x="-349.36" y="-360.11" width="20.74" height="14.81" />
<text id="specialist-chains-kcore1-a-2-1-text" y="-352.71" style="text-anchor:middle;dominant-baseline:middle;font-family:Arial;font-size:12px;fill:#00008B">
<tspan x="-338.99" dy="0"> 1</tspan>
</text>
<rect id="annotation-1-rect" style="fill:none;fill-opacity:0.5" stroke="transparent" stroke-dasharray="0" stroke-width="0.5" x="631.87" y="-0.03" width="0.0399999999999636" height="0.03" />
<text id="annotation-1-text" y="-0.01" style="text-anchor:middle;dominant-baseline:middle;font-family:Arial;font-size:10.5px;fill:transparent">
</text>
<text id="annotation-1-text" y="0" style="text-anchor:middle;dominant-baseline:middle;font-family:Arial;font-size:3px;fill:red">
<tspan x="631.87" dy="0">.</tspan>
</text>
<text id="annotation-1-text" y="0" style="text-anchor:middle;dominant-baseline:middle;font-family:Arial;font-size:3px;fill:red">
<tspan x="-427.4" dy="0">.</tspan>
</text>
<g id="link-1-segment" fill="none" stroke="#888888" stroke-dasharray="0" stroke-width="0.3" stroke-opacity="0.5">
<path d="M-594.85 52.37 L-240.11 77.85"/>
</g>
<g id="link-2-segment" fill="none" stroke="#888888" stroke-dasharray="0" stroke-width="0.3" stroke-opacity="0.5">
<path d="M-578.4 -58.24 L-139.01 -77.85"/>
</g>
<g id="link-3-segment" fill="none" stroke="#888888" stroke-dasharray="0" stroke-width="0.3" stroke-opacity="0.5">
<path d="M-111.71 -44.48 L-221.91 44.48"/>
</g>
<g id="link-4-segment" fill="none" stroke="#888888" stroke-dasharray="0" stroke-width="0.3" stroke-opacity="0.5">
<path d="M-111.71 -44.48 L-181.47 44.48"/>
</g>
<g id="link-5-segment" fill="none" stroke="#888888" stroke-dasharray="0" stroke-width="0.3" stroke-opacity="0.5">
<path d="M-111.71 -44.48 L-141.03 44.48"/>
</g>
<g id="link-6-segment" fill="none" stroke="#888888" stroke-dasharray="0" stroke-width="0.3" stroke-opacity="0.5">
<path d="M-111.71 -44.48 L-100.59 44.48"/>
</g>
<g id="link-7-segment" fill="none" stroke="#888888" stroke-dasharray="0" stroke-width="0.3" stroke-opacity="0.5">
<path d="M-111.71 -44.48 L-60.15 44.48"/>
</g>
<g id="link-8-segment" fill="none" stroke="#888888" stroke-dasharray="0" stroke-width="0.3" stroke-opacity="0.5">
<path d="M-111.71 -44.48 L-19.71 44.48"/>
</g>
<g id="link-9-segment" fill="none" stroke="#888888" stroke-dasharray="0" stroke-width="0.3" stroke-opacity="0.5">
<path d="M-111.71 -44.48 L20.73 44.48"/>
</g>
<g id="link-10-segment" fill="none" stroke="#888888" stroke-dasharray="0" stroke-width="0.3" stroke-opacity="0.5">
<path d="M-111.71 -44.48 L61.16 44.48"/>
</g>
<g id="link-11-segment" fill="none" stroke="#888888" stroke-dasharray="0" stroke-width="0.3" stroke-opacity="0.5">
<path d="M-111.71 -44.48 L101.6 44.48"/>
</g>
<g id="link-12-segment" fill="none" stroke="#888888" stroke-dasharray="0" stroke-width="0.3" stroke-opacity="0.5">
<path d="M-111.71 -44.48 L142.04 44.48"/>
</g>
<g id="link-13-segment" fill="none" stroke="#888888" stroke-dasharray="0" stroke-width="0.3" stroke-opacity="0.5">
<path d="M-51.05 -44.48 L-221.91 44.48"/>
</g>
<g id="link-14-segment" fill="none" stroke="#888888" stroke-dasharray="0" stroke-width="0.3" stroke-opacity="0.5">
<path d="M-51.05 -44.48 L-181.47 44.48"/>
</g>
<g id="link-15-segment" fill="none" stroke="#888888" stroke-dasharray="0" stroke-width="0.3" stroke-opacity="0.5">
<path d="M-51.05 -44.48 L-141.03 44.48"/>
</g>
<g id="link-16-segment" fill="none" stroke="#888888" stroke-dasharray="0" stroke-width="0.3" stroke-opacity="0.5">
<path d="M-51.05 -44.48 L-100.59 44.48"/>
</g>
<g id="link-17-segment" fill="none" stroke="#888888" stroke-dasharray="0" stroke-width="0.3" stroke-opacity="0.5">
<path d="M-51.05 -44.48 L-60.15 44.48"/>
</g>
<g id="link-18-segment" fill="none" stroke="#888888" stroke-dasharray="0" stroke-width="0.3" stroke-opacity="0.5">
<path d="M-51.05 -44.48 L-19.71 44.48"/>
</g>
<g id="link-19-segment" fill="none" stroke="#888888" stroke-dasharray="0" stroke-width="0.3" stroke-opacity="0.5">
<path d="M-51.05 -44.48 L20.73 44.48"/>
</g>
<g id="link-20-segment" fill="none" stroke="#888888" stroke-dasharray="0" stroke-width="0.3" stroke-opacity="0.5">
<path d="M-51.05 -44.48 L61.16 44.48"/>
</g>
<g id="link-21-segment" fill="none" stroke="#888888" stroke-dasharray="0" stroke-width="0.3" stroke-opacity="0.5">
<path d="M-51.05 -44.48 L101.6 44.48"/>
</g>
<g id="link-22-segment" fill="none" stroke="#888888" stroke-dasharray="0" stroke-width="0.3" stroke-opacity="0.5">
<path d="M9.6 -44.48 L-221.91 44.48"/>
</g>
<g id="link-23-segment" fill="none" stroke="#888888" stroke-dasharray="0" stroke-width="0.3" stroke-opacity="0.5">
<path d="M9.6 -44.48 L-181.47 44.48"/>
</g>
<g id="link-24-segment" fill="none" stroke="#888888" stroke-dasharray="0" stroke-width="0.3" stroke-opacity="0.5">
<path d="M9.6 -44.48 L-19.71 44.48"/>
</g>
<g id="link-25-segment" fill="none" stroke="#888888" stroke-dasharray="0" stroke-width="0.3" stroke-opacity="0.5">
<path d="M9.6 -44.48 L20.73 44.48"/>
</g>
<g id="link-26-segment" fill="none" stroke="#888888" stroke-dasharray="0" stroke-width="0.3" stroke-opacity="0.5">
<path d="M70.26 -44.48 L-181.47 44.48"/>
</g>
<g id="link-27-segment" fill="none" stroke="#888888" stroke-dasharray="0" stroke-width="0.3" stroke-opacity="0.5">
<path d="M70.26 -44.48 L-141.03 44.48"/>
</g>
<g id="link-28-segment" fill="none" stroke="#888888" stroke-dasharray="0" stroke-width="0.3" stroke-opacity="0.5">
<path d="M70.26 -44.48 L-100.59 44.48"/>
</g>
<g id="link-29-segment" fill="none" stroke="#888888" stroke-dasharray="0" stroke-width="0.3" stroke-opacity="0.5">
<path d="M70.26 -44.48 L-60.15 44.48"/>
</g>
<g id="link-30-segment" fill="none" stroke="#888888" stroke-dasharray="0" stroke-width="0.3" stroke-opacity="0.5">
<path d="M70.26 -44.48 L142.04 44.48"/>
</g>
<g id="link-31-segment" fill="none" stroke="#888888" stroke-dasharray="0" stroke-width="0.3" stroke-opacity="0.5">
<path d="M130.92 -44.48 L61.16 44.48"/>
</g>
<g id="link-32-segment" fill="none" stroke="#888888" stroke-dasharray="0" stroke-width="0.3" stroke-opacity="0.5">
<path d="M130.92 -44.48 L101.6 44.48"/>
</g>
<g id="link-33-segment" fill="none" stroke="#888888" stroke-dasharray="0" stroke-width="0.3" stroke-opacity="0.5">
<path d="M130.92 -44.48 L142.04 44.48"/>
</g>
<g id="link-1-path" fill="none" stroke="#888888" stroke-dasharray="0" stroke-width="0.3" stroke-opacity="0.5">
<path d="M-92.51 -309.38  L-67.68 -291.1 L-42.85 -272.23 L-18.03 -252.16 L6.8 -230.3 L31.62 -206.04 L56.45 -178.79 L81.27 -147.96 L106.1 -112.93 L130.92 -73.84"/>
</g>
<g id="link-2-path" fill="none" stroke="#888888" stroke-dasharray="0" stroke-width="0.3" stroke-opacity="0.5">
<path d="M-116.91 -314.98  L-96.11 -296.99 L-75.31 -278.42 L-54.52 -258.67 L-33.72 -237.15 L-12.92 -213.28 L7.87 -186.47 L28.67 -156.12 L49.47 -121.65 L70.26 -83.18"/>
</g>
<g id="link-3-path" fill="none" stroke="#888888" stroke-dasharray="0" stroke-width="0.3" stroke-opacity="0.5">
<path d="M-141.31 -320.57  L-131.28 -303.61 L-121.25 -286.08 L-111.22 -267.45 L-101.19 -247.15 L-91.17 -224.62 L-81.14 -199.32 L-71.11 -170.69 L-61.08 -138.16 L-51.05 -101.87"/>
</g>
<g id="link-4-path" fill="none" stroke="#888888" stroke-dasharray="0" stroke-width="0.3" stroke-opacity="0.5">
<path d="M-111.71 -111.21  L-62.21 -174.28 L-12.7 -215.48 L36.8 -240.79 L86.31 -257.19 L135.81 -271.67 L185.32 -291.22 L234.82 -322.78 L284.33 -368.69 L333.83 -422.28"/>
</g>
<g id="link-5-path" fill="none" stroke="#888888" stroke-dasharray="0" stroke-width="0.3" stroke-opacity="0.5">
<path d="M-111.71 -111.21  L-61.69 -172.48 L-11.67 -212.5 L38.35 -237.09 L88.37 -253.02 L138.39 -267.08 L188.41 -286.07 L238.43 -316.74 L288.45 -361.33 L338.47 -413.39"/>
</g>
<g id="link-6-path" fill="none" stroke="#888888" stroke-dasharray="0" stroke-width="0.3" stroke-opacity="0.5">
<path d="M-111.71 -111.21  L-61.18 -170.68 L-10.64 -209.53 L39.89 -233.39 L90.43 -248.85 L140.96 -262.5 L191.5 -280.93 L242.03 -310.69 L292.56 -353.98 L343.1 -404.51"/>
</g>
<g id="link-7-path" fill="none" stroke="#888888" stroke-dasharray="0" stroke-width="0.3" stroke-opacity="0.5">
<path d="M-111.71 -111.21  L-60.66 -168.88 L-9.61 -206.55 L41.43 -229.68 L92.48 -244.68 L143.53 -257.92 L194.58 -275.79 L245.63 -304.65 L296.68 -346.62 L347.73 -395.62"/>
</g>
<g id="link-8-path" fill="none" stroke="#888888" stroke-dasharray="0" stroke-width="0.3" stroke-opacity="0.5">
<path d="M-111.71 -111.21  L-60.15 -167.07 L-8.59 -203.57 L42.98 -225.98 L94.54 -240.51 L146.11 -253.33 L197.67 -270.64 L249.24 -298.6 L300.8 -339.26 L352.37 -386.73"/>
</g>
<g id="link-9-path" fill="none" stroke="#888888" stroke-dasharray="0" stroke-width="0.3" stroke-opacity="0.5">
<path d="M-111.71 -111.21  L-59.63 -165.27 L-7.56 -200.59 L44.52 -222.28 L96.6 -236.33 L148.68 -248.75 L200.76 -265.5 L252.84 -292.56 L304.92 -331.91 L357 -377.84"/>
</g>
<g id="link-10-path" fill="none" stroke="#888888" stroke-dasharray="0" stroke-width="0.3" stroke-opacity="0.5">
<path d="M-111.71 -111.21  L-59.12 -163.47 L-6.53 -197.61 L46.07 -218.58 L98.66 -232.16 L151.26 -244.16 L203.85 -260.36 L256.45 -286.51 L309.04 -324.55 L361.63 -368.96"/>
</g>
<g id="link-11-path" fill="none" stroke="#888888" stroke-dasharray="0" stroke-width="0.3" stroke-opacity="0.5">
<path d="M-111.71 -111.21  L-58.61 -161.67 L-5.5 -194.63 L47.61 -214.87 L100.72 -227.99 L153.83 -239.58 L206.94 -255.22 L260.05 -280.47 L313.16 -317.19 L366.27 -360.07"/>
</g>
<g id="link-12-path" fill="none" stroke="#888888" stroke-dasharray="0" stroke-width="0.3" stroke-opacity="0.5">
<path d="M-111.71 -111.21  L-58.09 -159.87 L-4.47 -191.65 L49.16 -211.17 L102.78 -223.82 L156.41 -234.99 L210.03 -250.07 L263.65 -274.42 L317.28 -309.84 L370.9 -351.18"/>
</g>
<g id="link-13-path" fill="none" stroke="#888888" stroke-dasharray="0" stroke-width="0.3" stroke-opacity="0.5">
<path d="M-111.71 -111.21  L-57.58 -158.06 L-3.44 -188.67 L50.7 -207.47 L104.84 -219.65 L158.98 -230.41 L213.12 -244.93 L267.26 -268.38 L321.4 -302.48 L375.53 -342.29"/>
</g>
<g id="link-14-path" fill="none" stroke="#888888" stroke-dasharray="0" stroke-width="0.3" stroke-opacity="0.5">
<path d="M-111.71 -111.21  L-57.06 -156.26 L-2.41 -185.69 L52.25 -203.77 L106.9 -215.48 L161.55 -225.82 L216.21 -239.79 L270.86 -262.33 L325.51 -295.12 L380.17 -333.4"/>
</g>
<g id="link-15-path" fill="none" stroke="#888888" stroke-dasharray="0" stroke-width="0.3" stroke-opacity="0.5">
<path d="M-111.71 -111.21  L-56.55 -154.46 L-1.38 -182.71 L53.79 -200.06 L108.96 -211.31 L164.13 -221.24 L219.3 -234.64 L274.46 -256.29 L329.63 -287.77 L384.8 -324.52"/>
</g>
<g id="link-16-path" fill="none" stroke="#888888" stroke-dasharray="0" stroke-width="0.3" stroke-opacity="0.5">
<path d="M-111.71 -111.21  L-55.52 -150.86 L0.68 -176.75 L56.88 -192.66 L113.08 -202.97 L169.28 -212.07 L225.47 -224.36 L281.67 -244.2 L337.87 -273.05 L394.07 -306.74"/>
</g>
<g id="link-17-path" fill="none" stroke="#888888" stroke-dasharray="0" stroke-width="0.3" stroke-opacity="0.5">
<path d="M-111.71 -111.21  L-55 -149.05 L1.71 -173.77 L58.42 -188.96 L115.14 -198.8 L171.85 -207.48 L228.56 -219.21 L285.28 -238.15 L341.99 -265.7 L398.7 -297.85"/>
</g>
<g id="link-18-path" fill="none" stroke="#888888" stroke-dasharray="0" stroke-width="0.3" stroke-opacity="0.5">
<path d="M-111.71 -111.21  L-54.49 -147.25 L2.74 -170.79 L59.97 -185.26 L117.2 -194.63 L174.42 -202.9 L231.65 -214.07 L288.88 -232.11 L346.11 -258.34 L403.33 -288.97"/>
</g>
<g id="link-19-path" fill="none" stroke="#888888" stroke-dasharray="0" stroke-width="0.3" stroke-opacity="0.5">
<path d="M-111.71 -111.21  L-53.97 -145.45 L3.77 -167.82 L61.51 -181.55 L119.26 -190.46 L177 -198.32 L234.74 -208.93 L292.48 -226.06 L350.23 -250.98 L407.97 -280.08"/>
</g>
<g id="link-20-path" fill="none" stroke="#888888" stroke-dasharray="0" stroke-width="0.3" stroke-opacity="0.5">
<path d="M-111.71 -111.21  L-53.46 -143.65 L4.8 -164.84 L63.06 -177.85 L121.31 -186.28 L179.57 -193.73 L237.83 -203.78 L296.09 -220.02 L354.34 -243.63 L412.6 -271.19"/>
</g>
<g id="link-21-path" fill="none" stroke="#888888" stroke-dasharray="0" stroke-width="0.3" stroke-opacity="0.5">
<path d="M-111.71 -111.21  L-52.94 -141.84 L5.83 -161.86 L64.6 -174.15 L123.37 -182.11 L182.15 -189.15 L240.92 -198.64 L299.69 -213.97 L358.46 -236.27 L417.24 -262.3"/>
</g>
<g id="link-22-path" fill="none" stroke="#888888" stroke-dasharray="0" stroke-width="0.3" stroke-opacity="0.5">
<path d="M-111.71 -111.21  L-52.43 -140.04 L6.86 -158.88 L66.15 -170.45 L125.43 -177.94 L184.72 -184.56 L244.01 -193.5 L303.29 -207.93 L362.58 -228.91 L421.87 -253.41"/>
</g>
<g id="link-23-path" fill="none" stroke="#888888" stroke-dasharray="0" stroke-width="0.3" stroke-opacity="0.5">
<path d="M-111.71 -111.21  L-51.91 -138.24 L7.89 -155.9 L67.69 -166.74 L127.49 -173.77 L187.29 -179.98 L247.1 -188.36 L306.9 -201.88 L366.7 -221.56 L426.5 -244.53"/>
</g>
<g id="link-24-path" fill="none" stroke="#888888" stroke-dasharray="0" stroke-width="0.3" stroke-opacity="0.5">
<path d="M-51.05 -101.87  L-5.72 -157.83 L39.62 -194.38 L84.96 -216.83 L130.3 -231.38 L175.64 -244.22 L220.98 -261.57 L266.32 -289.57 L311.66 -330.3 L357 -377.84"/>
</g>
<g id="link-25-path" fill="none" stroke="#888888" stroke-dasharray="0" stroke-width="0.3" stroke-opacity="0.5">
<path d="M-51.05 -101.87  L-5.2 -156.02 L40.65 -191.4 L86.51 -213.13 L132.36 -227.21 L178.22 -239.64 L224.07 -256.42 L269.92 -283.52 L315.78 -322.94 L361.63 -368.96"/>
</g>
<g id="link-26-path" fill="none" stroke="#888888" stroke-dasharray="0" stroke-width="0.3" stroke-opacity="0.5">
<path d="M-51.05 -101.87  L-2.11 -145.21 L46.83 -173.52 L95.77 -190.91 L144.72 -202.18 L193.66 -212.13 L242.6 -225.56 L291.55 -247.25 L340.49 -278.8 L389.43 -315.63"/>
</g>
<g id="link-27-path" fill="none" stroke="#888888" stroke-dasharray="0" stroke-width="0.3" stroke-opacity="0.5">
<path d="M-51.05 -101.87  L-1.6 -143.41 L47.86 -170.54 L97.32 -187.21 L146.78 -198.01 L196.24 -207.55 L245.69 -220.42 L295.15 -241.21 L344.61 -271.44 L394.07 -306.74"/>
</g>
<g id="link-28-path" fill="none" stroke="#888888" stroke-dasharray="0" stroke-width="0.3" stroke-opacity="0.5">
<path d="M-51.05 -101.87  L0.46 -136.2 L51.98 -158.63 L103.5 -172.4 L155.01 -181.33 L206.53 -189.21 L258.05 -199.85 L309.57 -217.03 L361.08 -242.02 L412.6 -271.19"/>
</g>
<g id="link-29-path" fill="none" stroke="#888888" stroke-dasharray="0" stroke-width="0.3" stroke-opacity="0.5">
<path d="M-51.05 -101.87  L0.98 -134.4 L53.01 -155.65 L105.04 -168.7 L157.07 -177.16 L209.11 -184.62 L261.14 -194.71 L313.17 -210.98 L365.2 -234.66 L417.24 -262.3"/>
</g>
<g id="link-30-path" fill="none" stroke="#888888" stroke-dasharray="0" stroke-width="0.3" stroke-opacity="0.5">
<path d="M9.6 -92.53  L46.14 -157.59 L82.68 -200.08 L119.23 -226.19 L155.77 -243.1 L192.31 -258.04 L228.85 -278.2 L265.39 -310.76 L301.93 -358.11 L338.47 -413.39"/>
</g>
<g id="link-31-path" fill="none" stroke="#888888" stroke-dasharray="0" stroke-width="0.3" stroke-opacity="0.5">
<path d="M9.6 -92.53  L46.66 -155.78 L83.71 -197.1 L120.77 -222.48 L157.82 -238.93 L194.88 -253.45 L231.93 -273.06 L268.99 -304.72 L306.04 -350.76 L343.1 -404.51"/>
</g>
<g id="link-32-path" fill="none" stroke="#888888" stroke-dasharray="0" stroke-width="0.3" stroke-opacity="0.5">
<path d="M9.6 -92.53  L47.17 -153.98 L84.74 -194.13 L122.31 -218.78 L159.88 -234.76 L197.45 -248.87 L235.02 -267.92 L272.59 -298.67 L310.16 -343.4 L347.73 -395.62"/>
</g>
<g id="link-33-path" fill="none" stroke="#888888" stroke-dasharray="0" stroke-width="0.3" stroke-opacity="0.5">
<path d="M9.6 -92.53  L47.69 -152.18 L85.77 -191.15 L123.86 -215.08 L161.94 -230.59 L200.03 -244.28 L238.11 -262.77 L276.2 -292.63 L314.28 -336.04 L352.37 -386.73"/>
</g>
<g id="link-34-path" fill="none" stroke="#888888" stroke-dasharray="0" stroke-width="0.3" stroke-opacity="0.5">
<path d="M9.6 -92.53  L49.23 -146.77 L88.86 -182.21 L128.49 -203.97 L168.12 -218.08 L207.75 -230.53 L247.38 -247.34 L287.01 -274.49 L326.64 -313.97 L366.27 -360.07"/>
</g>
<g id="link-35-path" fill="none" stroke="#888888" stroke-dasharray="0" stroke-width="0.3" stroke-opacity="0.5">
<path d="M9.6 -92.53  L50.26 -143.17 L90.92 -176.25 L131.58 -196.57 L172.24 -209.74 L212.9 -221.36 L253.56 -237.06 L294.22 -262.4 L334.88 -299.26 L375.53 -342.29"/>
</g>
<g id="link-36-path" fill="none" stroke="#888888" stroke-dasharray="0" stroke-width="0.3" stroke-opacity="0.5">
<path d="M9.6 -92.53  L50.78 -141.37 L91.95 -173.27 L133.13 -192.87 L174.3 -205.57 L215.47 -216.78 L256.65 -231.91 L297.82 -256.36 L338.99 -291.9 L380.17 -333.4"/>
</g>
<g id="link-37-path" fill="none" stroke="#888888" stroke-dasharray="0" stroke-width="0.3" stroke-opacity="0.5">
<path d="M9.6 -92.53  L51.81 -137.76 L94.01 -167.31 L136.21 -185.46 L178.42 -197.22 L220.62 -207.61 L262.82 -221.63 L305.03 -244.27 L347.23 -277.19 L389.43 -315.63"/>
</g>
<g id="link-38-path" fill="none" stroke="#888888" stroke-dasharray="0" stroke-width="0.3" stroke-opacity="0.5">
<path d="M9.6 -92.53  L52.84 -134.16 L96.07 -161.35 L139.3 -178.06 L182.54 -188.88 L225.77 -198.44 L269 -211.34 L312.24 -232.18 L355.47 -262.48 L398.7 -297.85"/>
</g>
<g id="link-39-path" fill="none" stroke="#888888" stroke-dasharray="0" stroke-width="0.3" stroke-opacity="0.5">
<path d="M9.6 -92.53  L53.35 -132.36 L97.1 -158.37 L140.85 -174.35 L184.6 -184.71 L228.34 -193.85 L272.09 -206.2 L315.84 -226.13 L359.59 -255.12 L403.33 -288.97"/>
</g>
<g id="link-40-path" fill="none" stroke="#888888" stroke-dasharray="0" stroke-width="0.3" stroke-opacity="0.5">
<path d="M9.6 -92.53  L55.41 -125.15 L101.22 -146.46 L147.03 -159.55 L192.83 -168.03 L238.64 -175.52 L284.45 -185.63 L330.25 -201.95 L376.06 -225.69 L421.87 -253.41"/>
</g>
<g id="link-41-path" fill="none" stroke="#888888" stroke-dasharray="0" stroke-width="0.3" stroke-opacity="0.5">
<path d="M70.26 -83.18  L99.55 -151.94 L128.83 -196.85 L158.12 -224.44 L187.41 -242.32 L216.69 -258.1 L245.98 -279.41 L275.26 -313.82 L304.55 -363.86 L333.83 -422.28"/>
</g>
<g id="link-42-path" fill="none" stroke="#888888" stroke-dasharray="0" stroke-width="0.3" stroke-opacity="0.5">
<path d="M70.26 -83.18  L105.21 -132.12 L140.16 -164.08 L175.11 -183.71 L210.06 -196.44 L245.01 -207.67 L279.96 -222.84 L314.9 -247.32 L349.85 -282.94 L384.8 -324.52"/>
</g>
<g id="link-43-path" fill="none" stroke="#888888" stroke-dasharray="0" stroke-width="0.3" stroke-opacity="0.5">
<path d="M130.92 -73.84  L157.59 -130.08 L184.25 -166.81 L210.92 -189.37 L237.58 -203.99 L264.24 -216.9 L290.91 -234.33 L317.57 -262.47 L344.24 -303.4 L370.9 -351.18"/>
</g>
<g id="link-44-path" fill="none" stroke="#888888" stroke-dasharray="0" stroke-width="0.3" stroke-opacity="0.5">
<path d="M130.92 -73.84  L161.71 -115.66 L192.49 -142.97 L223.27 -159.75 L254.05 -170.62 L284.84 -180.22 L315.62 -193.18 L346.4 -214.11 L377.19 -244.55 L407.97 -280.08"/>
</g>
<g id="link-45-path" fill="none" stroke="#888888" stroke-dasharray="0" stroke-width="0.3" stroke-opacity="0.5">
<path d="M130.92 -73.84  L163.77 -108.45 L196.61 -131.06 L229.45 -144.94 L262.29 -153.94 L295.13 -161.89 L327.98 -172.61 L360.82 -189.93 L393.66 -215.12 L426.5 -244.53"/>
</g>
<g id="link-46-path" fill="none" stroke="#888888" stroke-dasharray="0" stroke-width="0.3" stroke-opacity="0.5">
<path d="M-266.4 -323.08  L-249.22 -306.64 L-232.03 -289.67 L-214.84 -271.61 L-197.65 -251.95 L-180.46 -230.13 L-163.28 -205.62 L-146.09 -177.88 L-128.9 -146.37 L-111.71 -111.21"/>
</g>
<g id="link-47-path" fill="none" stroke="#888888" stroke-dasharray="0" stroke-width="0.3" stroke-opacity="0.5">
<path d="M-328.62 -352.71  L-324.01 -350.41 L-319.4 -348.03 L-314.79 -345.51 L-310.18 -342.76 L-305.58 -339.71 L-300.97 -336.28 L-296.36 -332.4 L-291.75 -328 L-287.14 -323.08"/>
</g>
</svg>