<svg xmlns="http://www.w3.org/2000/svg" viewBox="-930 -610 1820 1260">
<rect id="zigguratkcore3-a-1-rect" style="fill:#00008B;fill-opacity:0.2" stroke="transparent" stroke-dasharray="0" stroke-width="0.5" x="-194.62" y="-155.69" width="127.39" height="93.41" />
<rect id="zigguratkcore3-a-2-rect" style="fill:#4169E1;fill-opacity:0.2" stroke="transparent" stroke-dasharray="0" stroke-width="0.5" x="-53.08" y="-133.9" width="127.39" height="71.62" />
<rect id="zigguratkcore3-a-3-rect" style="fill:#00008B;fill-opacity:0.2" stroke="transparent" stroke-dasharray="0" stroke-width="0.5" x="88.46" y="-112.1" width="127.39" height="49.82" />
<text id="zigguratkcore3-a-1-text" y="-108.98" style="text-anchor:middle;dominant-baseline:middle;font-family:Arial;font-size:15px;fill:#00008B">
<tspan x="-130.92" dy="0">3</tspan>
</text>
<text id="zigguratkcore3-a-2-text" y="-98.09" style="text-anchor:middle;dominant-baseline:middle;font-family:Arial;font-size:15px;fill:#00008B">
<tspan x="10.62" dy="0">10</tspan>
</text>
<text id="zigguratkcore3-a-3-text" y="-87.19" style="text-anchor:middle;dominant-baseline:middle;font-family:Arial;font-size:15px;fill:#00008B">
<tspan x="152.15" dy="0">2</tspan>
</text>
<rect id="zigguratkcore3-b-1-rect" style="fill:#FF0000;fill-opacity:0.2" stroke="transparent" stroke-dasharray="0" stroke-width="0.5" x="-194.62" y="62.28" width="127.39" height="93.41" />
<rect id="zigguratkcore3-b-2-rect" style="fill:#F08080;fill-opacity:0.2" stroke="transparent" stroke-dasharray="0" stroke-width="0.5" x="-53.08" y="62.28" width="127.39" height="71.62" />
<rect id="zigguratkcore3-b-3-rect" style="fill:#FF0000;fill-opacity:0.2" stroke="transparent" stroke-dasharray="0" stroke-width="0.5" x="88.46" y="62.28" width="127.39" height="49.82" />
<text id="zigguratkcore3-b-1-text" y="108.98" style="text-anchor:middle;dominant-baseline:middle;font-family:Arial;font-size:15px;fill:#FF0000">
<tspan x="-130.92" dy="0">5</tspan>
</text>
<text id="zigguratkcore3-b-2-text" y="98.09" style="text-anchor:middle;dominant-baseline:middle;font-family:Arial;font-size:15px;fill:#FF0000">
<tspan x="10.62" dy="0">2</tspan>
</text>
<text id="zigguratkcore3-b-3-text" y="87.19" style="text-anchor:middle;dominant-baseline:middle;font-family:Arial;font-size:15px;fill:#FF0000">
<tspan x="152.15" dy="0">1</tspan>
</text>
<rect id="zigguratkcore2-a-1-rect" style="fill:#00008B;fill-opacity:0.2" stroke="transparent" stroke-dasharray="0" stroke-width="0.5" x="420.29" y="547.6" width="177.2" height="31.11" />
<rect id="zigguratkcore2-a-2-rect" style="fill:#4169E1;fill-opacity:0.2" stroke="transparent" stroke-dasharray="0" stroke-width="0.5" x="437.17" y="510.27" width="156.1" height="31.11" />
<rect id="zigguratkcore2-a-3-rect" style="fill:#00008B;fill-opacity:0.2" stroke="transparent" stroke-dasharray="0" stroke-width="0.5" x="454.05" y="472.94" width="135" height="31.11" />
<rect id="zigguratkcore2-a-4-rect" style="fill:#4169E1;fill-opacity:0.2" stroke="transparent" stroke-dasharray="0" stroke-width="0.5" x="470.92" y="435.61" width="113.91" height="31.11" />
<rect id="zigguratkcore2-a-5-rect" style="fill:#00008B;fill-opacity:0.2" stroke="transparent" stroke-dasharray="0" stroke-width="0.5" x="487.8" y="398.29" width="92.82" height="31.1" />
<rect id="zigguratkcore2-a-6-rect" style="fill:#4169E1;fill-opacity:0.2" stroke="transparent" stroke-dasharray="0" stroke-width="0.5" x="504.67" y="360.96" width="71.73" height="31.1" />
<rect id="zigguratkcore2-a-7-rect" style="fill:#00008B;fill-opacity:0.2" stroke="transparent" stroke-dasharray="0" stroke-width="0.5" x="521.55" y="323.63" width="50.63" height="31.11" />
<text id="zigguratkcore2-a-1-text" y="563.16" style="text-anchor:middle;dominant-baseline:middle;font-family:Arial;font-size:13.5px;fill:#00008B">
<tspan x="446.87" dy="0">5</tspan>
</text>
<text id="zigguratkcore2-a-2-text" y="525.83" style="text-anchor:middle;dominant-baseline:middle;font-family:Arial;font-size:13.5px;fill:#00008B">
<tspan x="562.05" dy="0">8</tspan>
</text>
<text id="zigguratkcore2-a-3-text" y="488.5" style="text-anchor:middle;dominant-baseline:middle;font-family:Arial;font-size:13.5px;fill:#00008B">
<tspan x="474.3" dy="0">4</tspan>
</text>
<text id="zigguratkcore2-a-4-text" y="451.17" style="text-anchor:middle;dominant-baseline:middle;font-family:Arial;font-size:13.5px;fill:#00008B">
<tspan x="562.05" dy="0">11</tspan>
</text>
<text id="zigguratkcore2-a-5-text" y="413.84" style="text-anchor:middle;dominant-baseline:middle;font-family:Arial;font-size:13.5px;fill:#00008B">
<tspan x="501.72" dy="0">6</tspan>
</text>
<text id="zigguratkcore2-a-6-text" y="376.51" style="text-anchor:middle;dominant-baseline:middle;font-family:Arial;font-size:13.5px;fill:#00008B">
<tspan x="562.05" dy="0">12</tspan>
</text>
<text id="zigguratkcore2-a-7-text" y="339.18" style="text-anchor:middle;dominant-baseline:middle;font-family:Arial;font-size:13.5px;fill:#00008B">
<tspan x="529.14" dy="0">13</tspan>
</text>
<rect id="zigguratkcore2-b-1-rect" style="fill:#FF0000;fill-opacity:0.2" stroke="transparent" stroke-dasharray="0" stroke-width="0.5" x="415.37" y="-497.87" width="177.2" height="31.1" />
<rect id="zigguratkcore2-b-2-rect" style="fill:#F08080;fill-opacity:0.2" stroke="transparent" stroke-dasharray="0" stroke-width="0.5" x="439" y="-460.54" width="147.66" height="31.1" />
<rect id="zigguratkcore2-b-3-rect" style="fill:#FF0000;fill-opacity:0.2" stroke="transparent" stroke-dasharray="0" stroke-width="0.5" x="462.62" y="-423.22" width="118.14" height="31.11" />
<rect id="zigguratkcore2-b-4-rect" style="fill:#F08080;fill-opacity:0.2" stroke="transparent" stroke-dasharray="0" stroke-width="0.5" x="486.25" y="-385.89" width="88.6" height="31.11" />
<rect id="zigguratkcore2-b-5-rect" style="fill:#FF0000;fill-opacity:0.2" stroke="transparent" stroke-dasharray="0" stroke-width="0.5" x="509.88" y="-348.56" width="59.0600000000001" height="31.11" />
<text id="zigguratkcore2-b-1-text" y="-482.32" style="text-anchor:middle;dominant-baseline:middle;font-family:Arial;font-size:13.5px;fill:#FF0000">
<tspan x="441.95" dy="0">7</tspan>
</text>
<text id="zigguratkcore2-b-2-text" y="-444.99" style="text-anchor:middle;dominant-baseline:middle;font-family:Arial;font-size:13.5px;fill:#FF0000">
<tspan x="557.13" dy="0">3</tspan>
</text>
<text id="zigguratkcore2-b-3-text" y="-407.66" style="text-anchor:middle;dominant-baseline:middle;font-family:Arial;font-size:13.5px;fill:#FF0000">
<tspan x="480.34" dy="0">4</tspan>
</text>
<text id="zigguratkcore2-b-4-text" y="-370.33" style="text-anchor:middle;dominant-baseline:middle;font-family:Arial;font-size:13.5px;fill:#FF0000">
<tspan x="557.13" dy="0">6</tspan>
</text>
<text id="zigguratkcore2-b-5-text" y="-333" style="text-anchor:middle;dominant-baseline:middle;font-family:Arial;font-size:13.5px;fill:#FF0000">
<tspan x="518.74" dy="0">10</tspan>
</text>
<rect id="zigguratkcore3-1-rect" style="fill:none;fill-opacity:0.3" stroke="#8B4C39" stroke-dasharray="1 1" stroke-width="0" x="-274.23" y="-242.79" width="516.61" height="442.03" />
<text id="zigguratkcore3-1-text" y="-21.78" style="text-anchor:middle;dominant-baseline:middle;font-family:Arial;font-size:10.5px;fill:transparent">
</text>
<text id="zigguratkcore3-1-text" y="0" transform="rotate(-90 -231.77 0)" style="text-anchor:start;dominant-baseline:middle;font-family:Arial;font-size:15px;fill:#8B4C39">
<tspan x="-231.77" dy="0">3-shell</tspan>
</text>
<rect id="zigguratkcore2-1-rect" style="fill:none;fill-opacity:0.3" stroke="#AC5E46" stroke-dasharray="1 1" stroke-width="0" x="388.83" y="-606.75" width="235.2" height="1229.01" />
<text id="zigguratkcore2-1-text" y="7.76" style="text-anchor:middle;dominant-baseline:middle;font-family:Arial;font-size:10.5px;fill:transparent">
</text>
<text id="zigguratkcore2-1-text" y="-545.78" style="text-anchor:start;dominant-baseline:middle;font-family:Arial;font-size:15px;fill:#AC5E46">
<tspan x="479.89" dy="0">2-shell</tspan>
</text>
<rect id="zigguratedge-kcore1-a-1-1-rect" style="fill:#00008B;fill-opacity:0.11" stroke="transparent" stroke-dasharray="0" stroke-width="0.5" x="-204.47" y="444.67" width="33.86" height="33.86" />
<text id="zigguratedge-kcore1-a-1-1-text" y="461.6" transform="rotate(30 -187.54 461.6)" style="text-anchor:start;dominant-baseline:middle;font-family:Arial;font-size:12px;fill:#00008B">
<tspan x="-187.54" dy="0"> 1  7</tspan>
</text>
<rect id="zigguratedge-kcore1-b-11-1-rect" style="fill:#FF0000;fill-opacity:0.11" stroke="transparent" stroke-dasharray="0" stroke-width="0.5" x="819.87" y="281.58" width="26.54" height="26.54" />
<text id="zigguratedge-kcore1-b-11-1-text" y="294.85" style="text-anchor:middle;dominant-baseline:middle;font-family:Arial;font-size:12px;fill:#FF0000">
<tspan x="833.14" dy="0"> 9</tspan>
</text>
<rect id="zigguratedge-kcore1-a-1-1-rect" style="fill:#00008B;fill-opacity:0.2" stroke="transparent" stroke-dasharray="0" stroke-width="0.5" x="-816.76" y="481.93" width="35.38" height="35.39" />
<text id="zigguratedge-kcore1-a-1-1-text" y="499.62" style="text-anchor:middle;dominant-baseline:middle;font-family:Arial;font-size:12px;fill:#00008B">
<tspan x="-799.07" dy="0"> 9</tspan>
</text>
<rect id="zigguratedge-kcore1-b-2-1-rect" style="fill:#FF0000;fill-opacity:0.2" stroke="transparent" stroke-dasharray="0" stroke-width="0.5" x="-922.92" y="606.36" width="35.39" height="35.38" />
<text id="zigguratedge-kcore1-b-2-1-text" y="624.05" style="text-anchor:middle;dominant-baseline:middle;font-family:Arial;font-size:12px;fill:#FF0000">
<tspan x="-905.22" dy="0"> 8</tspan>
</text>
<rect id="zigguratannotation-1-rect" style="fill:none;fill-opacity:0.5" stroke="transparent" stroke-dasharray="0" stroke-width="0.5" x="884.62" y="-0.04" width="0.0399999999999636" height="0.04" />
<text id="zigguratannotation-1-text" y="-0.02" style="text-anchor:middle;dominant-baseline:middle;font-family:Arial;font-size:10.5px;fill:transparent">
</text>
<text id="zigguratannotation-1-text" y="0" style="text-anchor:middle;dominant-baseline:middle;font-family:Arial;font-size:3px;fill:red">
<tspan x="884.62" dy="0">.</tspan>
</text>
<text id="zigguratannotation-1-text" y="0" style="text-anchor:middle;dominant-baseline:middle;font-family:Arial;font-size:3px;fill:red">
<tspan x="-460" dy="0">.</tspan>
</text>
<g id="zigguratlink-1-segment" fill="none" stroke="#888888" stroke-dasharray="0" stroke-width="0.3" stroke-opacity="0.5">
<path d="M-130.92 -62.28 L-130.92 62.28"/>
</g>
<g id="zigguratlink-2-segment" fill="none" stroke="#888888" stroke-dasharray="0" stroke-width="0.3" stroke-opacity="0.5">
<path d="M-130.92 -62.28 L10.62 62.28"/>
</g>
<g id="zigguratlink-3-segment" fill="none" stroke="#888888" stroke-dasharray="0" stroke-width="0.3" stroke-opacity="0.5">
<path d="M-130.92 -62.28 L152.15 62.28"/>
</g>
<g id="zigguratlink-4-segment" fill="none" stroke="#888888" stroke-dasharray="0" stroke-width="0.3" stroke-opacity="0.5">
<path d="M10.62 -62.28 L-130.92 62.28"/>
</g>
<g id="zigguratlink-5-segment" fill="none" stroke="#888888" stroke-dasharray="0" stroke-width="0.3" stroke-opacity="0.5">
<path d="M10.62 -62.28 L10.62 62.28"/>
</g>
<g id="zigguratlink-6-segment" fill="none" stroke="#888888" stroke-dasharray="0" stroke-width="0.3" stroke-opacity="0.5">
<path d="M10.62 -62.28 L152.15 62.28"/>
</g>
<g id="zigguratlink-7-segment" fill="none" stroke="#888888" stroke-dasharray="0" stroke-width="0.3" stroke-opacity="0.5">
<path d="M152.15 -62.28 L-130.92 62.28"/>
</g>
<g id="zigguratlink-8-segment" fill="none" stroke="#888888" stroke-dasharray="0" stroke-width="0.3" stroke-opacity="0.5">
<path d="M152.15 -62.28 L10.62 62.28"/>
</g>
<g id="zigguratlink-9-segment" fill="none" stroke="#888888" stroke-dasharray="0" stroke-width="0.3" stroke-opacity="0.5">
<path d="M152.15 -62.28 L152.15 62.28"/>
</g>
<g id="zigguratlink-10-segment" fill="none" stroke="#888888" stroke-dasharray="0" stroke-width="0.3" stroke-opacity="0.5">
<path d="M420.29 547.6 L415.37 -466.77"/>
</g>
<g id="zigguratlink-11-segment" fill="none" stroke="#888888" stroke-dasharray="0" stroke-width="0.3" stroke-opacity="0.5">
<path d="M420.29 547.6 L509.88 -317.45"/>
</g>
<g id="zigguratlink-12-segment" fill="none" stroke="#888888" stroke-dasharray="0" stroke-width="0.3" stroke-opacity="0.5">
<path d="M437.17 510.27 L439 -429.44"/>
</g>
<g id="zigguratlink-13-segment" fill="none" stroke="#888888" stroke-dasharray="0" stroke-width="0.3" stroke-opacity="0.5">
<path d="M437.17 510.27 L486.25 -354.78"/>
</g>
<g id="zigguratlink-14-segment" fill="none" stroke="#888888" stroke-dasharray="0" stroke-width="0.3" stroke-opacity="0.5">
<path d="M454.05 472.94 L486.25 -354.78"/>
</g>
<g id="zigguratlink-15-segment" fill="none" stroke="#888888" stroke-dasharray="0" stroke-width="0.3" stroke-opacity="0.5">
<path d="M470.92 435.61 L439 -429.44"/>
</g>
<g id="zigguratlink-16-segment" fill="none" stroke="#888888" stroke-dasharray="0" stroke-width="0.3" stroke-opacity="0.5">
<path d="M470.92 435.61 L462.62 -392.11"/>
</g>
<g id="zigguratlink-17-segment" fill="none" stroke="#888888" stroke-dasharray="0" stroke-width="0.3" stroke-opacity="0.5">
<path d="M487.8 398.29 L439 -429.44"/>
</g>
<g id="zigguratlink-18-segment" fill="none" stroke="#888888" stroke-dasharray="0" stroke-width="0.3" stroke-opacity="0.5">
<path d="M487.8 398.29 L462.62 -392.11"/>
</g>
<g id="zigguratlink-19-segment" fill="none" stroke="#888888" stroke-dasharray="0" stroke-width="0.3" stroke-opacity="0.5">
<path d="M504.67 360.96 L462.62 -392.11"/>
</g>
<g id="zigguratlink-20-segment" fill="none" stroke="#888888" stroke-dasharray="0" stroke-width="0.3" stroke-opacity="0.5">
<path d="M504.67 360.96 L509.88 -317.45"/>
</g>
<g id="zigguratlink-21-segment" fill="none" stroke="#888888" stroke-dasharray="0" stroke-width="0.3" stroke-opacity="0.5">
<path d="M521.55 323.63 L415.37 -466.77"/>
</g>
<g id="zigguratlink-1-path" fill="none" stroke="#888888" stroke-dasharray="0" stroke-width="0.3" stroke-opacity="0.5">
<path d="M-187.54 444.67  L-149.79 418.86 L-112.05 392.22 L-74.31 363.88 L-36.56 333.01 L1.18 298.76 L38.92 260.29 L76.67 216.74 L114.41 167.29 L152.15 112.1"/>
</g>
<g id="zigguratlink-2-path" fill="none" stroke="#888888" stroke-dasharray="0" stroke-width="0.3" stroke-opacity="0.5">
<path d="M584.83 451.17  L610.95 449.17 L637.06 441.37 L663.18 428.83 L689.29 412.41 L715.41 392.77 L741.52 370.55 L767.64 346.39 L793.75 320.94 L819.87 294.85"/>
</g>
<g id="zigguratlink-3-path" fill="none" stroke="#888888" stroke-dasharray="0" stroke-width="0.3" stroke-opacity="0.5">
<path d="M10.62 133.9  L56.14 205.17 L101.66 266.22 L147.18 308.2 L192.7 334.2 L238.22 353.46 L283.73 375.27 L329.25 408.92 L374.77 463.72 L420.29 547.6"/>
</g>
<g id="zigguratlink-4-path" fill="none" stroke="#888888" stroke-dasharray="0" stroke-width="0.3" stroke-opacity="0.5">
<path d="M152.15 112.1  L181.95 187.13 L211.74 251.4 L241.53 295.59 L271.33 322.96 L301.12 343.23 L330.91 366.19 L360.71 401.62 L390.5 459.3 L420.29 547.6"/>
</g>
<g id="zigguratlink-5-path" fill="none" stroke="#888888" stroke-dasharray="0" stroke-width="0.3" stroke-opacity="0.5">
<path d="M10.62 133.9  L58.01 198.74 L105.41 254.28 L152.8 292.48 L200.2 316.13 L247.59 333.65 L294.99 353.49 L342.38 384.11 L389.78 433.96 L437.17 510.27"/>
</g>
<g id="zigguratlink-6-path" fill="none" stroke="#888888" stroke-dasharray="0" stroke-width="0.3" stroke-opacity="0.5">
<path d="M152.15 112.1  L183.82 180.7 L215.49 239.46 L247.16 279.86 L278.83 304.88 L310.5 323.42 L342.16 344.41 L373.83 376.8 L405.5 429.54 L437.17 510.27"/>
</g>
<g id="zigguratlink-7-path" fill="none" stroke="#888888" stroke-dasharray="0" stroke-width="0.3" stroke-opacity="0.5">
<path d="M10.62 133.9  L59.89 192.31 L109.16 242.34 L158.43 276.75 L207.7 298.05 L256.97 313.84 L306.24 331.71 L355.51 359.29 L404.78 404.2 L454.05 472.94"/>
</g>
<g id="zigguratlink-8-path" fill="none" stroke="#888888" stroke-dasharray="0" stroke-width="0.3" stroke-opacity="0.5">
<path d="M152.15 112.1  L185.7 174.27 L219.24 227.52 L252.78 264.13 L286.33 286.81 L319.87 303.61 L353.42 322.63 L386.96 351.98 L420.5 399.78 L454.05 472.94"/>
</g>
<g id="zigguratlink-9-path" fill="none" stroke="#888888" stroke-dasharray="0" stroke-width="0.3" stroke-opacity="0.5">
<path d="M152.15 112.1  L187.57 167.84 L222.99 215.58 L258.41 248.41 L293.83 268.74 L329.25 283.8 L364.67 300.85 L400.08 327.17 L435.5 370.02 L470.92 435.61"/>
</g>
<g id="zigguratlink-10-path" fill="none" stroke="#888888" stroke-dasharray="0" stroke-width="0.3" stroke-opacity="0.5">
<path d="M152.15 112.1  L189.45 161.4 L226.74 203.64 L264.04 232.68 L301.33 250.66 L338.62 263.98 L375.92 279.07 L413.21 302.35 L450.5 340.26 L487.8 398.29"/>
</g>
<g id="zigguratlink-11-path" fill="none" stroke="#888888" stroke-dasharray="0" stroke-width="0.3" stroke-opacity="0.5">
<path d="M152.15 112.1  L191.32 154.97 L230.49 191.7 L269.66 216.95 L308.83 232.59 L348 244.17 L387.17 257.29 L426.34 277.54 L465.5 310.5 L504.67 360.96"/>
</g>
<g id="zigguratlink-12-path" fill="none" stroke="#888888" stroke-dasharray="0" stroke-width="0.3" stroke-opacity="0.5">
<path d="M10.62 133.9  L67.39 166.58 L124.16 194.58 L180.93 213.84 L237.7 225.76 L294.47 234.59 L351.24 244.59 L408.01 260.03 L464.78 285.16 L521.55 323.63"/>
</g>
<g id="zigguratlink-13-path" fill="none" stroke="#888888" stroke-dasharray="0" stroke-width="0.3" stroke-opacity="0.5">
<path d="M152.15 -112.1  L181.4 -184.01 L210.65 -230.99 L239.89 -259.84 L269.14 -278.54 L298.39 -295.05 L327.63 -317.33 L356.88 -353.32 L386.13 -405.66 L415.37 -466.77"/>
</g>
<g id="zigguratlink-14-path" fill="none" stroke="#888888" stroke-dasharray="0" stroke-width="0.3" stroke-opacity="0.5">
<path d="M-781.38 481.93  L-677.65 453.24 L-573.93 423.61 L-470.2 392.09 L-366.47 357.76 L-262.75 319.68 L-159.02 276.89 L-55.3 228.47 L48.43 173.47 L152.15 112.1"/>
</g>
<g id="zigguratlink-15-path" fill="none" stroke="#888888" stroke-dasharray="0" stroke-width="0.3" stroke-opacity="0.5">
<path d="M-887.53 624.05  L-879.67 614.4 L-871.81 604.43 L-863.94 593.83 L-856.08 582.28 L-848.22 569.46 L-840.35 555.07 L-832.49 538.78 L-824.63 520.27 L-816.76 499.62"/>
</g>
</svg>