<svg xmlns="http://www.w3.org/2000/svg" viewBox="-480 -430 1100 830">
<rect id="zigguratkcore5-a-1-rect" style="fill:#00008B;fill-opacity:0.2" stroke="transparent" stroke-dasharray="0" stroke-width="0.5" x="-247.87" y="-129.14" width="27.37" height="77.48" />
<rect id="zigguratkcore5-a-2-rect" style="fill:#4169E1;fill-opacity:0.2" stroke="transparent" stroke-dasharray="0" stroke-width="0.5" x="-217.45" y="-124.21" width="27.37" height="72.55" />
<rect id="zigguratkcore5-a-3-rect" style="fill:#00008B;fill-opacity:0.2" stroke="transparent" stroke-dasharray="0" stroke-width="0.5" x="-187.04" y="-119.28" width="27.37" height="67.62" />
<rect id="zigguratkcore5-a-4-rect" style="fill:#4169E1;fill-opacity:0.2" stroke="transparent" stroke-dasharray="0" stroke-width="0.5" x="-156.63" y="-114.35" width="27.37" height="62.69" />
<rect id="zigguratkcore5-a-5-rect" style="fill:#00008B;fill-opacity:0.2" stroke="transparent" stroke-dasharray="0" stroke-width="0.5" x="-126.22" y="-109.42" width="27.37" height="57.76" />
<rect id="zigguratkcore5-a-6-rect" style="fill:#4169E1;fill-opacity:0.2" stroke="transparent" stroke-dasharray="0" stroke-width="0.5" x="-95.81" y="-104.49" width="27.37" height="52.83" />
<rect id="zigguratkcore5-a-7-rect" style="fill:#00008B;fill-opacity:0.2" stroke="transparent" stroke-dasharray="0" stroke-width="0.5" x="-65.39" y="-99.56" width="27.37" height="47.9" />
<rect id="zigguratkcore5-a-8-rect" style="fill:#4169E1;fill-opacity:0.2" stroke="transparent" stroke-dasharray="0" stroke-width="0.5" x="-34.98" y="-94.63" width="27.37" height="42.97" />
<rect id="zigguratkcore5-a-9-rect" style="fill:#00008B;fill-opacity:0.2" stroke="transparent" stroke-dasharray="0" stroke-width="0.5" x="-4.57" y="-89.7" width="27.37" height="38.04" />
<rect id="zigguratkcore5-a-10-rect" style="fill:#4169E1;fill-opacity:0.2" stroke="transparent" stroke-dasharray="0" stroke-width="0.5" x="25.84" y="-84.76" width="27.37" height="33.1" />
<rect id="zigguratkcore5-a-11-rect" style="fill:#00008B;fill-opacity:0.2" stroke="transparent" stroke-dasharray="0" stroke-width="0.5" x="56.25" y="-79.83" width="27.38" height="28.17" />
<text id="zigguratkcore5-a-1-text" y="-90.4" style="text-anchor:middle;dominant-baseline:middle;font-family:Arial;font-size:15px;fill:#00008B">
<tspan x="-234.18" dy="0">33</tspan>
</text>
<text id="zigguratkcore5-a-2-text" y="-87.93" style="text-anchor:middle;dominant-baseline:middle;font-family:Arial;font-size:15px;fill:#00008B">
<tspan x="-203.77" dy="0">29</tspan>
</text>
<text id="zigguratkcore5-a-3-text" y="-85.47" style="text-anchor:middle;dominant-baseline:middle;font-family:Arial;font-size:15px;fill:#00008B">
<tspan x="-173.36" dy="0">28</tspan>
</text>
<text id="zigguratkcore5-a-4-text" y="-83" style="text-anchor:middle;dominant-baseline:middle;font-family:Arial;font-size:15px;fill:#00008B">
<tspan x="-142.94" dy="0">32</tspan>
</text>
<text id="zigguratkcore5-a-5-text" y="-80.54" style="text-anchor:middle;dominant-baseline:middle;font-family:Arial;font-size:15px;fill:#00008B">
<tspan x="-112.53" dy="0">16</tspan>
</text>
<text id="zigguratkcore5-a-6-text" y="-78.07" style="text-anchor:middle;dominant-baseline:middle;font-family:Arial;font-size:15px;fill:#00008B">
<tspan x="-82.12" dy="0">22</tspan>
</text>
<text id="zigguratkcore5-a-7-text" y="-75.61" style="text-anchor:middle;dominant-baseline:middle;font-family:Arial;font-size:15px;fill:#00008B">
<tspan x="-51.71" dy="0">7</tspan>
</text>
<text id="zigguratkcore5-a-8-text" y="-73.14" style="text-anchor:middle;dominant-baseline:middle;font-family:Arial;font-size:15px;fill:#00008B">
<tspan x="-21.3" dy="0">9</tspan>
</text>
<text id="zigguratkcore5-a-9-text" y="-70.68" style="text-anchor:middle;dominant-baseline:middle;font-family:Arial;font-size:15px;fill:#00008B">
<tspan x="9.12" dy="0">4</tspan>
</text>
<text id="zigguratkcore5-a-10-text" y="-68.21" style="text-anchor:middle;dominant-baseline:middle;font-family:Arial;font-size:15px;fill:#00008B">
<tspan x="39.53" dy="0">1</tspan>
</text>
<text id="zigguratkcore5-a-11-text" y="-65.75" style="text-anchor:middle;dominant-baseline:middle;font-family:Arial;font-size:15px;fill:#00008B">
<tspan x="69.94" dy="0">2</tspan>
</text>
<rect id="zigguratkcore5-b-1-rect" style="fill:#FF0000;fill-opacity:0.2" stroke="transparent" stroke-dasharray="0" stroke-width="0.5" x="-247.87" y="51.66" width="27.37" height="77.48" />
<rect id="zigguratkcore5-b-2-rect" style="fill:#F08080;fill-opacity:0.2" stroke="transparent" stroke-dasharray="0" stroke-width="0.5" x="-217.45" y="51.66" width="27.37" height="72.55" />
<rect id="zigguratkcore5-b-3-rect" style="fill:#FF0000;fill-opacity:0.2" stroke="transparent" stroke-dasharray="0" stroke-width="0.5" x="-187.04" y="51.66" width="27.37" height="67.62" />
<rect id="zigguratkcore5-b-4-rect" style="fill:#F08080;fill-opacity:0.2" stroke="transparent" stroke-dasharray="0" stroke-width="0.5" x="-156.63" y="51.66" width="27.37" height="62.69" />
<rect id="zigguratkcore5-b-5-rect" style="fill:#FF0000;fill-opacity:0.2" stroke="transparent" stroke-dasharray="0" stroke-width="0.5" x="-126.22" y="51.66" width="27.37" height="57.76" />
<rect id="zigguratkcore5-b-6-rect" style="fill:#F08080;fill-opacity:0.2" stroke="transparent" stroke-dasharray="0" stroke-width="0.5" x="-95.81" y="51.66" width="27.37" height="52.83" />
<rect id="zigguratkcore5-b-7-rect" style="fill:#FF0000;fill-opacity:0.2" stroke="transparent" stroke-dasharray="0" stroke-width="0.5" x="-65.39" y="51.66" width="27.37" height="47.9" />
<rect id="zigguratkcore5-b-8-rect" style="fill:#F08080;fill-opacity:0.2" stroke="transparent" stroke-dasharray="0" stroke-width="0.5" x="-34.98" y="51.66" width="27.37" height="42.97" />
<rect id="zigguratkcore5-b-9-rect" style="fill:#FF0000;fill-opacity:0.2" stroke="transparent" stroke-dasharray="0" stroke-width="0.5" x="-4.57" y="51.66" width="27.37" height="38.04" />
<rect id="zigguratkcore5-b-10-rect" style="fill:#F08080;fill-opacity:0.2" stroke="transparent" stroke-dasharray="0" stroke-width="0.5" x="25.84" y="51.66" width="27.37" height="33.1" />
<rect id="zigguratkcore5-b-11-rect" style="fill:#FF0000;fill-opacity:0.2" stroke="transparent" stroke-dasharray="0" stroke-width="0.5" x="56.25" y="51.66" width="27.38" height="28.17" />
<text id="zigguratkcore5-b-1-text" y="90.4" style="text-anchor:middle;dominant-baseline:middle;font-family:Arial;font-size:15px;fill:#FF0000">
<tspan x="-234.18" dy="0">5</tspan>
</text>
<text id="zigguratkcore5-b-2-text" y="87.93" style="text-anchor:middle;dominant-baseline:middle;font-family:Arial;font-size:15px;fill:#FF0000">
<tspan x="-203.77" dy="0">17</tspan>
</text>
<text id="zigguratkcore5-b-3-text" y="85.47" style="text-anchor:middle;dominant-baseline:middle;font-family:Arial;font-size:15px;fill:#FF0000">
<tspan x="-173.36" dy="0">3</tspan>
</text>
<text id="zigguratkcore5-b-4-text" y="83" style="text-anchor:middle;dominant-baseline:middle;font-family:Arial;font-size:15px;fill:#FF0000">
<tspan x="-142.94" dy="0">25</tspan>
</text>
<text id="zigguratkcore5-b-5-text" y="80.54" style="text-anchor:middle;dominant-baseline:middle;font-family:Arial;font-size:15px;fill:#FF0000">
<tspan x="-112.53" dy="0">12</tspan>
</text>
<text id="zigguratkcore5-b-6-text" y="78.07" style="text-anchor:middle;dominant-baseline:middle;font-family:Arial;font-size:15px;fill:#FF0000">
<tspan x="-82.12" dy="0">10</tspan>
</text>
<text id="zigguratkcore5-b-7-text" y="75.61" style="text-anchor:middle;dominant-baseline:middle;font-family:Arial;font-size:15px;fill:#FF0000">
<tspan x="-51.71" dy="0">7</tspan>
</text>
<text id="zigguratkcore5-b-8-text" y="73.14" style="text-anchor:middle;dominant-baseline:middle;font-family:Arial;font-size:15px;fill:#FF0000">
<tspan x="-21.3" dy="0">21</tspan>
</text>
<text id="zigguratkcore5-b-9-text" y="70.68" style="text-anchor:middle;dominant-baseline:middle;font-family:Arial;font-size:15px;fill:#FF0000">
<tspan x="9.12" dy="0">23</tspan>
</text>
<text id="zigguratkcore5-b-10-text" y="68.21" style="text-anchor:middle;dominant-baseline:middle;font-family:Arial;font-size:15px;fill:#FF0000">
<tspan x="39.53" dy="0">8</tspan>
</text>
<text id="zigguratkcore5-b-11-text" y="65.75" style="text-anchor:middle;dominant-baseline:middle;font-family:Arial;font-size:15px;fill:#FF0000">
<tspan x="69.94" dy="0">11</tspan>
</text>
<rect id="zigguratkcore4-a-1-rect" style="fill:#00008B;fill-opacity:0.2" stroke="transparent" stroke-dasharray="0" stroke-width="0.5" x="143.73" y="356.24" width="41.6" height="16.33" />
<rect id="zigguratkcore4-a-2-rect" style="fill:#4169E1;fill-opacity:0.2" stroke="transparent" stroke-dasharray="0" stroke-width="0.5" x="156.73" y="336.65" width="22.1" height="16.33" />
<text id="zigguratkcore4-a-1-text" y="364.41" style="text-anchor:middle;dominant-baseline:middle;font-family:Arial;font-size:13.5px;fill:#00008B">
<tspan x="177.01" dy="0">15</tspan>
</text>
<text id="zigguratkcore4-a-2-text" y="344.82" style="text-anchor:middle;dominant-baseline:middle;font-family:Arial;font-size:13.5px;fill:#00008B">
<tspan x="160.05" dy="0">31</tspan>
</text>
<rect id="zigguratkcore4-b-1-rect" style="fill:#FF0000;fill-opacity:0.2" stroke="transparent" stroke-dasharray="0" stroke-width="0.5" x="143.73" y="-339.92" width="41.6" height="16.33" />
<text id="zigguratkcore4-b-1-text" y="-331.76" style="text-anchor:middle;dominant-baseline:middle;font-family:Arial;font-size:13.5px;fill:#FF0000">
<tspan x="149.97" dy="0">6</tspan>
</text>
<rect id="zigguratkcore3-a-1-rect" style="fill:#00008B;fill-opacity:0.2" stroke="transparent" stroke-dasharray="0" stroke-width="0.5" x="266.67" y="302.59" width="52" height="16.33" />
<rect id="zigguratkcore3-a-2-rect" style="fill:#4169E1;fill-opacity:0.2" stroke="transparent" stroke-dasharray="0" stroke-width="0.5" x="271" y="283" width="45.5" height="16.32" />
<rect id="zigguratkcore3-a-3-rect" style="fill:#00008B;fill-opacity:0.2" stroke="transparent" stroke-dasharray="0" stroke-width="0.5" x="275.33" y="263.41" width="39" height="16.32" />
<rect id="zigguratkcore3-a-4-rect" style="fill:#4169E1;fill-opacity:0.2" stroke="transparent" stroke-dasharray="0" stroke-width="0.5" x="279.67" y="243.81" width="32.5" height="16.33" />
<rect id="zigguratkcore3-a-5-rect" style="fill:#00008B;fill-opacity:0.2" stroke="transparent" stroke-dasharray="0" stroke-width="0.5" x="284" y="224.22" width="26" height="16.33" />
<rect id="zigguratkcore3-a-6-rect" style="fill:#4169E1;fill-opacity:0.2" stroke="transparent" stroke-dasharray="0" stroke-width="0.5" x="288.33" y="204.63" width="19.5" height="16.33" />
<text id="zigguratkcore3-a-1-text" y="310.75" style="text-anchor:middle;dominant-baseline:middle;font-family:Arial;font-size:13.5px;fill:#00008B">
<tspan x="308.27" dy="0">12</tspan>
</text>
<text id="zigguratkcore3-a-2-text" y="291.16" style="text-anchor:middle;dominant-baseline:middle;font-family:Arial;font-size:13.5px;fill:#00008B">
<tspan x="277.82" dy="0">13</tspan>
</text>
<text id="zigguratkcore3-a-3-text" y="271.57" style="text-anchor:middle;dominant-baseline:middle;font-family:Arial;font-size:13.5px;fill:#00008B">
<tspan x="306.53" dy="0">10</tspan>
</text>
<text id="zigguratkcore3-a-4-text" y="251.98" style="text-anchor:middle;dominant-baseline:middle;font-family:Arial;font-size:13.5px;fill:#00008B">
<tspan x="284.54" dy="0">30</tspan>
</text>
<text id="zigguratkcore3-a-5-text" y="232.38" style="text-anchor:middle;dominant-baseline:middle;font-family:Arial;font-size:13.5px;fill:#00008B">
<tspan x="304.8" dy="0">17</tspan>
</text>
<text id="zigguratkcore3-a-6-text" y="212.79" style="text-anchor:middle;dominant-baseline:middle;font-family:Arial;font-size:13.5px;fill:#00008B">
<tspan x="291.26" dy="0">25</tspan>
</text>
<rect id="zigguratkcore3-b-1-rect" style="fill:#FF0000;fill-opacity:0.2" stroke="transparent" stroke-dasharray="0" stroke-width="0.5" x="266.67" y="-286.26" width="52" height="16.32" />
<rect id="zigguratkcore3-b-2-rect" style="fill:#F08080;fill-opacity:0.2" stroke="transparent" stroke-dasharray="0" stroke-width="0.5" x="273.17" y="-266.67" width="42.25" height="16.33" />
<rect id="zigguratkcore3-b-3-rect" style="fill:#FF0000;fill-opacity:0.2" stroke="transparent" stroke-dasharray="0" stroke-width="0.5" x="279.67" y="-247.08" width="32.5" height="16.33" />
<rect id="zigguratkcore3-b-4-rect" style="fill:#F08080;fill-opacity:0.2" stroke="transparent" stroke-dasharray="0" stroke-width="0.5" x="286.17" y="-227.49" width="22.75" height="16.33" />
<text id="zigguratkcore3-b-1-text" y="-278.1" style="text-anchor:middle;dominant-baseline:middle;font-family:Arial;font-size:13.5px;fill:#FF0000">
<tspan x="308.27" dy="0">20</tspan>
</text>
<text id="zigguratkcore3-b-2-text" y="-258.51" style="text-anchor:middle;dominant-baseline:middle;font-family:Arial;font-size:13.5px;fill:#FF0000">
<tspan x="279.5" dy="0">22</tspan>
</text>
<text id="zigguratkcore3-b-3-text" y="-238.92" style="text-anchor:middle;dominant-baseline:middle;font-family:Arial;font-size:13.5px;fill:#FF0000">
<tspan x="305.67" dy="0">19</tspan>
</text>
<text id="zigguratkcore3-b-4-text" y="-219.32" style="text-anchor:middle;dominant-baseline:middle;font-family:Arial;font-size:13.5px;fill:#FF0000">
<tspan x="289.58" dy="0">1</tspan>
</text>
<rect id="zigguratkcore2-a-1-rect" style="fill:#00008B;fill-opacity:0.2" stroke="transparent" stroke-dasharray="0" stroke-width="0.5" x="421.04" y="177.79" width="58.26" height="16.33" />
<rect id="zigguratkcore2-a-2-rect" style="fill:#4169E1;fill-opacity:0.2" stroke="transparent" stroke-dasharray="0" stroke-width="0.5" x="427.51" y="158.2" width="50.17" height="16.33" />
<rect id="zigguratkcore2-a-3-rect" style="fill:#00008B;fill-opacity:0.2" stroke="transparent" stroke-dasharray="0" stroke-width="0.5" x="433.99" y="138.61" width="42.08" height="16.33" />
<rect id="zigguratkcore2-a-4-rect" style="fill:#4169E1;fill-opacity:0.2" stroke="transparent" stroke-dasharray="0" stroke-width="0.5" x="440.46" y="119.02" width="33.99" height="16.32" />
<rect id="zigguratkcore2-a-5-rect" style="fill:#00008B;fill-opacity:0.2" stroke="transparent" stroke-dasharray="0" stroke-width="0.5" x="446.93" y="99.43" width="25.9" height="16.32" />
<rect id="zigguratkcore2-a-6-rect" style="fill:#4169E1;fill-opacity:0.2" stroke="transparent" stroke-dasharray="0" stroke-width="0.5" x="453.41" y="79.83" width="17.8" height="16.33" />
<text id="zigguratkcore2-a-1-text" y="185.96" style="text-anchor:middle;dominant-baseline:middle;font-family:Arial;font-size:13.5px;fill:#00008B">
<tspan x="467.65" dy="0">14</tspan>
</text>
<text id="zigguratkcore2-a-2-text" y="166.36" style="text-anchor:middle;dominant-baseline:middle;font-family:Arial;font-size:13.5px;fill:#00008B">
<tspan x="435.04" dy="0">18</tspan>
</text>
<text id="zigguratkcore2-a-3-text" y="146.77" style="text-anchor:middle;dominant-baseline:middle;font-family:Arial;font-size:13.5px;fill:#00008B">
<tspan x="467.65" dy="0">21</tspan>
</text>
<text id="zigguratkcore2-a-4-text" y="127.18" style="text-anchor:middle;dominant-baseline:middle;font-family:Arial;font-size:13.5px;fill:#00008B">
<tspan x="445.56" dy="0">11</tspan>
</text>
<text id="zigguratkcore2-a-5-text" y="107.59" style="text-anchor:middle;dominant-baseline:middle;font-family:Arial;font-size:13.5px;fill:#00008B">
<tspan x="467.65" dy="0">8</tspan>
</text>
<text id="zigguratkcore2-a-6-text" y="88" style="text-anchor:middle;dominant-baseline:middle;font-family:Arial;font-size:13.5px;fill:#00008B">
<tspan x="456.08" dy="0">26</tspan>
</text>
<rect id="zigguratkcore2-b-1-rect" style="fill:#FF0000;fill-opacity:0.2" stroke="transparent" stroke-dasharray="0" stroke-width="0.5" x="419.42" y="-210.78" width="58.26" height="16.33" />
<rect id="zigguratkcore2-b-2-rect" style="fill:#F08080;fill-opacity:0.2" stroke="transparent" stroke-dasharray="0" stroke-width="0.5" x="429.13" y="-191.18" width="46.13" height="16.32" />
<rect id="zigguratkcore2-b-3-rect" style="fill:#FF0000;fill-opacity:0.2" stroke="transparent" stroke-dasharray="0" stroke-width="0.5" x="438.84" y="-171.59" width="33.99" height="16.32" />
<rect id="zigguratkcore2-b-4-rect" style="fill:#F08080;fill-opacity:0.2" stroke="transparent" stroke-dasharray="0" stroke-width="0.5" x="448.55" y="-152" width="21.85" height="16.33" />
<text id="zigguratkcore2-b-1-text" y="-202.61" style="text-anchor:middle;dominant-baseline:middle;font-family:Arial;font-size:13.5px;fill:#FF0000">
<tspan x="466.03" dy="0">2</tspan>
</text>
<text id="zigguratkcore2-b-2-text" y="-183.02" style="text-anchor:middle;dominant-baseline:middle;font-family:Arial;font-size:13.5px;fill:#FF0000">
<tspan x="436.05" dy="0">4</tspan>
</text>
<text id="zigguratkcore2-b-3-text" y="-163.43" style="text-anchor:middle;dominant-baseline:middle;font-family:Arial;font-size:13.5px;fill:#FF0000">
<tspan x="466.03" dy="0">18</tspan>
</text>
<text id="zigguratkcore2-b-4-text" y="-143.84" style="text-anchor:middle;dominant-baseline:middle;font-family:Arial;font-size:13.5px;fill:#FF0000">
<tspan x="451.83" dy="0">14</tspan>
</text>
<rect id="zigguratkcore5-1-rect" style="fill:none;fill-opacity:0.3" stroke="#8B4C39" stroke-dasharray="1 1" stroke-width="0" x="-321.34" y="-174.86" width="429.46" height="326.86" />
<text id="zigguratkcore5-1-text" y="-11.43" style="text-anchor:middle;dominant-baseline:middle;font-family:Arial;font-size:10.5px;fill:transparent">
</text>
<text id="zigguratkcore5-1-text" y="0" transform="rotate(-90 -282.15 0)" style="text-anchor:start;dominant-baseline:middle;font-family:Arial;font-size:15px;fill:#8B4C39">
<tspan x="-282.15" dy="0">5-shell</tspan>
</text>
<rect id="zigguratkcore4-1-rect" style="fill:none;fill-opacity:0.3" stroke="#9B553F" stroke-dasharray="1 1" stroke-width="0" x="119.24" y="-419.92" width="90.58" height="815.35" />
<text id="zigguratkcore4-1-text" y="-12.24" style="text-anchor:middle;dominant-baseline:middle;font-family:Arial;font-size:10.5px;fill:transparent">
</text>
<text id="zigguratkcore4-1-text" y="-387.92" style="text-anchor:start;dominant-baseline:middle;font-family:Arial;font-size:15px;fill:#9B553F">
<tspan x="140.04" dy="0">4-shell</tspan>
</text>
<rect id="zigguratkcore3-1-rect" style="fill:none;fill-opacity:0.3" stroke="#AC5E46" stroke-dasharray="1 1" stroke-width="0" x="242.18" y="-366.26" width="100.98" height="708.03" />
<text id="zigguratkcore3-1-text" y="-12.24" style="text-anchor:middle;dominant-baseline:middle;font-family:Arial;font-size:10.5px;fill:transparent">
</text>
<text id="zigguratkcore3-1-text" y="-334.26" style="text-anchor:start;dominant-baseline:middle;font-family:Arial;font-size:15px;fill:#AC5E46">
<tspan x="268.18" dy="0">3-shell</tspan>
</text>
<rect id="zigguratkcore2-1-rect" style="fill:none;fill-opacity:0.3" stroke="#BC674D" stroke-dasharray="1 1" stroke-width="0" x="394.93" y="-290.78" width="108.86" height="507.76" />
<text id="zigguratkcore2-1-text" y="-36.9" style="text-anchor:middle;dominant-baseline:middle;font-family:Arial;font-size:10.5px;fill:transparent">
</text>
<text id="zigguratkcore2-1-text" y="-258.78" style="text-anchor:start;dominant-baseline:middle;font-family:Arial;font-size:15px;fill:#BC674D">
<tspan x="424.87" dy="0">2-shell</tspan>
</text>
<rect id="zigguratedge-kcore1-a-tail-17-1-rect" style="fill:#00008B;fill-opacity:0.11" stroke="transparent" stroke-dasharray="0" stroke-width="0.5" x="-71.12" y="259.44" width="48.16" height="48.15" />
<text id="zigguratedge-kcore1-a-tail-17-1-text" y="283.51" transform="rotate(30 -47.04 283.51)" style="text-anchor:start;dominant-baseline:middle;font-family:Arial;font-size:12px;fill:#00008B">
<tspan x="-47.04" dy="0"> 5 19 20 23  24 27</tspan>
</text>
<rect id="zigguratedge-kcore1-b-tail-32-1-rect" style="fill:#FF0000;fill-opacity:0.11" stroke="transparent" stroke-dasharray="0" stroke-width="0.5" x="-59.29" y="-269.23" width="24.49" height="24.49" />
<text id="zigguratedge-kcore1-b-tail-32-1-text" y="-256.99" transform="rotate(-30 -47.04 -256.99)" style="text-anchor:middle;dominant-baseline:middle;font-family:Arial;font-size:12px;fill:#FF0000">
<tspan x="-47.04" dy="0"> 24</tspan>
</text>
<rect id="zigguratedge-kcore1-b-tail-29-1-rect" style="fill:#FF0000;fill-opacity:0.11" stroke="transparent" stroke-dasharray="0" stroke-width="0.5" x="-101.16" y="-288.34" width="31.26" height="31.26" />
<text id="zigguratedge-kcore1-b-tail-29-1-text" y="-272.71" transform="rotate(-30 -85.53 -272.71)" style="text-anchor:start;dominant-baseline:middle;font-family:Arial;font-size:12px;fill:#FF0000">
<tspan x="-85.53" dy="0"> 15  16</tspan>
</text>
<rect id="zigguratedge-kcore1-a-fattail-1-rect" style="fill:#00008B;fill-opacity:0.11" stroke="transparent" stroke-dasharray="0" stroke-width="0.5" x="-467.19" y="38.26" width="31.26" height="31.25" />
<text id="zigguratedge-kcore1-a-fattail-1-text" y="53.88" style="text-anchor:start;dominant-baseline:middle;font-family:Arial;font-size:12px;fill:#00008B">
<tspan x="-451.56" dy="0"> 3 </tspan>
<tspan x="-451.56" dy="16.8"> 6</tspan>
</text>
<rect id="zigguratedge-kcore1-b-fattail-1-rect" style="fill:#FF0000;fill-opacity:0.11" stroke="transparent" stroke-dasharray="0" stroke-width="0.5" x="-467.19" y="-62.75" width="24.49" height="24.49" />
<text id="zigguratedge-kcore1-b-fattail-1-text" y="-50.5" style="text-anchor:middle;dominant-baseline:middle;font-family:Arial;font-size:12px;fill:#FF0000">
<tspan x="-454.94" dy="0"> 9</tspan>
</text>
<rect id="zigguratedge-kcore1-b-tail-12-1-rect" style="fill:#FF0000;fill-opacity:0.11" stroke="transparent" stroke-dasharray="0" stroke-width="0.5" x="374.5" y="310.75" width="24.49" height="24.49" />
<text id="zigguratedge-kcore1-b-tail-12-1-text" y="323" style="text-anchor:middle;dominant-baseline:middle;font-family:Arial;font-size:12px;fill:#FF0000">
<tspan x="386.74" dy="0"> 13</tspan>
</text>
<rect id="zigguratannotation-1-rect" style="fill:none;fill-opacity:0.5" stroke="transparent" stroke-dasharray="0" stroke-width="0.5" x="613.33" y="-0.04" width="0.0399999999999636" height="0.04" />
<text id="zigguratannotation-1-text" y="-0.02" style="text-anchor:middle;dominant-baseline:middle;font-family:Arial;font-size:15px;fill:transparent">
</text>
<text id="zigguratannotation-1-text" y="0" style="text-anchor:middle;dominant-baseline:middle;font-family:Arial;font-size:3px;fill:red">
<tspan x="613.33" dy="0">.</tspan>
</text>
<text id="zigguratannotation-1-text" y="0" style="text-anchor:middle;dominant-baseline:middle;font-family:Arial;font-size:3px;fill:red">
<tspan x="-390.86" dy="0">.</tspan>
</text>
<text id="zigguratannotation-1-text" y="0" style="text-anchor:middle;dominant-baseline:middle;font-family:Arial;font-size:3px;fill:red">
<tspan x="-390.86" dy="0">.</tspan>
</text>
<g id="zigguratlink-1-segment" fill="none" stroke="#888888" stroke-dasharray="0" stroke-width="0.3" stroke-opacity="0.5">
<path d="M-435.93 53.88 L-247.87 90.4"/>
</g>
<g id="zigguratlink-2-segment" fill="none" stroke="#888888" stroke-dasharray="0" stroke-width="0.3" stroke-opacity="0.5">
<path d="M-442.7 -50.5 L-247.87 -90.4"/>
</g>
<g id="zigguratlink-3-segment" fill="none" stroke="#888888" stroke-dasharray="0" stroke-width="0.3" stroke-opacity="0.5">
<path d="M-234.18 -51.66 L-234.18 51.66"/>
</g>
<g id="zigguratlink-4-segment" fill="none" stroke="#888888" stroke-dasharray="0" stroke-width="0.3" stroke-opacity="0.5">
<path d="M-234.18 -51.66 L-203.77 51.66"/>
</g>
<g id="zigguratlink-5-segment" fill="none" stroke="#888888" stroke-dasharray="0" stroke-width="0.3" stroke-opacity="0.5">
<path d="M-234.18 -51.66 L-173.36 51.66"/>
</g>
<g id="zigguratlink-6-segment" fill="none" stroke="#888888" stroke-dasharray="0" stroke-width="0.3" stroke-opacity="0.5">
<path d="M-234.18 -51.66 L-142.94 51.66"/>
</g>
<g id="zigguratlink-7-segment" fill="none" stroke="#888888" stroke-dasharray="0" stroke-width="0.3" stroke-opacity="0.5">
<path d="M-234.18 -51.66 L-112.53 51.66"/>
</g>
<g id="zigguratlink-8-segment" fill="none" stroke="#888888" stroke-dasharray="0" stroke-width="0.3" stroke-opacity="0.5">
<path d="M-234.18 -51.66 L-82.12 51.66"/>
</g>
<g id="zigguratlink-9-segment" fill="none" stroke="#888888" stroke-dasharray="0" stroke-width="0.3" stroke-opacity="0.5">
<path d="M-234.18 -51.66 L-51.71 51.66"/>
</g>
<g id="zigguratlink-10-segment" fill="none" stroke="#888888" stroke-dasharray="0" stroke-width="0.3" stroke-opacity="0.5">
<path d="M-234.18 -51.66 L-21.3 51.66"/>
</g>
<g id="zigguratlink-11-segment" fill="none" stroke="#888888" stroke-dasharray="0" stroke-width="0.3" stroke-opacity="0.5">
<path d="M-234.18 -51.66 L9.12 51.66"/>
</g>
<g id="zigguratlink-12-segment" fill="none" stroke="#888888" stroke-dasharray="0" stroke-width="0.3" stroke-opacity="0.5">
<path d="M-234.18 -51.66 L39.53 51.66"/>
</g>
<g id="zigguratlink-13-segment" fill="none" stroke="#888888" stroke-dasharray="0" stroke-width="0.3" stroke-opacity="0.5">
<path d="M-234.18 -51.66 L69.94 51.66"/>
</g>
<g id="zigguratlink-14-segment" fill="none" stroke="#888888" stroke-dasharray="0" stroke-width="0.3" stroke-opacity="0.5">
<path d="M-203.77 -51.66 L-234.18 51.66"/>
</g>
<g id="zigguratlink-15-segment" fill="none" stroke="#888888" stroke-dasharray="0" stroke-width="0.3" stroke-opacity="0.5">
<path d="M-203.77 -51.66 L-203.77 51.66"/>
</g>
<g id="zigguratlink-16-segment" fill="none" stroke="#888888" stroke-dasharray="0" stroke-width="0.3" stroke-opacity="0.5">
<path d="M-203.77 -51.66 L-173.36 51.66"/>
</g>
<g id="zigguratlink-17-segment" fill="none" stroke="#888888" stroke-dasharray="0" stroke-width="0.3" stroke-opacity="0.5">
<path d="M-203.77 -51.66 L-142.94 51.66"/>
</g>
<g id="zigguratlink-18-segment" fill="none" stroke="#888888" stroke-dasharray="0" stroke-width="0.3" stroke-opacity="0.5">
<path d="M-203.77 -51.66 L-112.53 51.66"/>
</g>
<g id="zigguratlink-19-segment" fill="none" stroke="#888888" stroke-dasharray="0" stroke-width="0.3" stroke-opacity="0.5">
<path d="M-203.77 -51.66 L-82.12 51.66"/>
</g>
<g id="zigguratlink-20-segment" fill="none" stroke="#888888" stroke-dasharray="0" stroke-width="0.3" stroke-opacity="0.5">
<path d="M-203.77 -51.66 L-51.71 51.66"/>
</g>
<g id="zigguratlink-21-segment" fill="none" stroke="#888888" stroke-dasharray="0" stroke-width="0.3" stroke-opacity="0.5">
<path d="M-203.77 -51.66 L-21.3 51.66"/>
</g>
<g id="zigguratlink-22-segment" fill="none" stroke="#888888" stroke-dasharray="0" stroke-width="0.3" stroke-opacity="0.5">
<path d="M-203.77 -51.66 L39.53 51.66"/>
</g>
<g id="zigguratlink-23-segment" fill="none" stroke="#888888" stroke-dasharray="0" stroke-width="0.3" stroke-opacity="0.5">
<path d="M-203.77 -51.66 L69.94 51.66"/>
</g>
<g id="zigguratlink-24-segment" fill="none" stroke="#888888" stroke-dasharray="0" stroke-width="0.3" stroke-opacity="0.5">
<path d="M-173.36 -51.66 L-234.18 51.66"/>
</g>
<g id="zigguratlink-25-segment" fill="none" stroke="#888888" stroke-dasharray="0" stroke-width="0.3" stroke-opacity="0.5">
<path d="M-173.36 -51.66 L-173.36 51.66"/>
</g>
<g id="zigguratlink-26-segment" fill="none" stroke="#888888" stroke-dasharray="0" stroke-width="0.3" stroke-opacity="0.5">
<path d="M-173.36 -51.66 L-142.94 51.66"/>
</g>
<g id="zigguratlink-27-segment" fill="none" stroke="#888888" stroke-dasharray="0" stroke-width="0.3" stroke-opacity="0.5">
<path d="M-173.36 -51.66 L-112.53 51.66"/>
</g>
<g id="zigguratlink-28-segment" fill="none" stroke="#888888" stroke-dasharray="0" stroke-width="0.3" stroke-opacity="0.5">
<path d="M-173.36 -51.66 L-82.12 51.66"/>
</g>
<g id="zigguratlink-29-segment" fill="none" stroke="#888888" stroke-dasharray="0" stroke-width="0.3" stroke-opacity="0.5">
<path d="M-173.36 -51.66 L-51.71 51.66"/>
</g>
<g id="zigguratlink-30-segment" fill="none" stroke="#888888" stroke-dasharray="0" stroke-width="0.3" stroke-opacity="0.5">
<path d="M-173.36 -51.66 L-21.3 51.66"/>
</g>
<g id="zigguratlink-31-segment" fill="none" stroke="#888888" stroke-dasharray="0" stroke-width="0.3" stroke-opacity="0.5">
<path d="M-173.36 -51.66 L9.12 51.66"/>
</g>
<g id="zigguratlink-32-segment" fill="none" stroke="#888888" stroke-dasharray="0" stroke-width="0.3" stroke-opacity="0.5">
<path d="M-173.36 -51.66 L39.53 51.66"/>
</g>
<g id="zigguratlink-33-segment" fill="none" stroke="#888888" stroke-dasharray="0" stroke-width="0.3" stroke-opacity="0.5">
<path d="M-173.36 -51.66 L69.94 51.66"/>
</g>
<g id="zigguratlink-34-segment" fill="none" stroke="#888888" stroke-dasharray="0" stroke-width="0.3" stroke-opacity="0.5">
<path d="M-142.94 -51.66 L-234.18 51.66"/>
</g>
<g id="zigguratlink-35-segment" fill="none" stroke="#888888" stroke-dasharray="0" stroke-width="0.3" stroke-opacity="0.5">
<path d="M-142.94 -51.66 L-173.36 51.66"/>
</g>
<g id="zigguratlink-36-segment" fill="none" stroke="#888888" stroke-dasharray="0" stroke-width="0.3" stroke-opacity="0.5">
<path d="M-142.94 -51.66 L-142.94 51.66"/>
</g>
<g id="zigguratlink-37-segment" fill="none" stroke="#888888" stroke-dasharray="0" stroke-width="0.3" stroke-opacity="0.5">
<path d="M-142.94 -51.66 L-112.53 51.66"/>
</g>
<g id="zigguratlink-38-segment" fill="none" stroke="#888888" stroke-dasharray="0" stroke-width="0.3" stroke-opacity="0.5">
<path d="M-142.94 -51.66 L-82.12 51.66"/>
</g>
<g id="zigguratlink-39-segment" fill="none" stroke="#888888" stroke-dasharray="0" stroke-width="0.3" stroke-opacity="0.5">
<path d="M-142.94 -51.66 L-51.71 51.66"/>
</g>
<g id="zigguratlink-40-segment" fill="none" stroke="#888888" stroke-dasharray="0" stroke-width="0.3" stroke-opacity="0.5">
<path d="M-142.94 -51.66 L-21.3 51.66"/>
</g>
<g id="zigguratlink-41-segment" fill="none" stroke="#888888" stroke-dasharray="0" stroke-width="0.3" stroke-opacity="0.5">
<path d="M-142.94 -51.66 L39.53 51.66"/>
</g>
<g id="zigguratlink-42-segment" fill="none" stroke="#888888" stroke-dasharray="0" stroke-width="0.3" stroke-opacity="0.5">
<path d="M-142.94 -51.66 L69.94 51.66"/>
</g>
<g id="zigguratlink-43-segment" fill="none" stroke="#888888" stroke-dasharray="0" stroke-width="0.3" stroke-opacity="0.5">
<path d="M-112.53 -51.66 L-203.77 51.66"/>
</g>
<g id="zigguratlink-44-segment" fill="none" stroke="#888888" stroke-dasharray="0" stroke-width="0.3" stroke-opacity="0.5">
<path d="M-112.53 -51.66 L-173.36 51.66"/>
</g>
<g id="zigguratlink-45-segment" fill="none" stroke="#888888" stroke-dasharray="0" stroke-width="0.3" stroke-opacity="0.5">
<path d="M-112.53 -51.66 L-142.94 51.66"/>
</g>
<g id="zigguratlink-46-segment" fill="none" stroke="#888888" stroke-dasharray="0" stroke-width="0.3" stroke-opacity="0.5">
<path d="M-112.53 -51.66 L-112.53 51.66"/>
</g>
<g id="zigguratlink-47-segment" fill="none" stroke="#888888" stroke-dasharray="0" stroke-width="0.3" stroke-opacity="0.5">
<path d="M-112.53 -51.66 L-51.71 51.66"/>
</g>
<g id="zigguratlink-48-segment" fill="none" stroke="#888888" stroke-dasharray="0" stroke-width="0.3" stroke-opacity="0.5">
<path d="M-112.53 -51.66 L9.12 51.66"/>
</g>
<g id="zigguratlink-49-segment" fill="none" stroke="#888888" stroke-dasharray="0" stroke-width="0.3" stroke-opacity="0.5">
<path d="M-82.12 -51.66 L-234.18 51.66"/>
</g>
<g id="zigguratlink-50-segment" fill="none" stroke="#888888" stroke-dasharray="0" stroke-width="0.3" stroke-opacity="0.5">
<path d="M-82.12 -51.66 L-203.77 51.66"/>
</g>
<g id="zigguratlink-51-segment" fill="none" stroke="#888888" stroke-dasharray="0" stroke-width="0.3" stroke-opacity="0.5">
<path d="M-82.12 -51.66 L-173.36 51.66"/>
</g>
<g id="zigguratlink-52-segment" fill="none" stroke="#888888" stroke-dasharray="0" stroke-width="0.3" stroke-opacity="0.5">
<path d="M-82.12 -51.66 L-112.53 51.66"/>
</g>
<g id="zigguratlink-53-segment" fill="none" stroke="#888888" stroke-dasharray="0" stroke-width="0.3" stroke-opacity="0.5">
<path d="M-82.12 -51.66 L-51.71 51.66"/>
</g>
<g id="zigguratlink-54-segment" fill="none" stroke="#888888" stroke-dasharray="0" stroke-width="0.3" stroke-opacity="0.5">
<path d="M-82.12 -51.66 L9.12 51.66"/>
</g>
<g id="zigguratlink-55-segment" fill="none" stroke="#888888" stroke-dasharray="0" stroke-width="0.3" stroke-opacity="0.5">
<path d="M-51.71 -51.66 L-234.18 51.66"/>
</g>
<g id="zigguratlink-56-segment" fill="none" stroke="#888888" stroke-dasharray="0" stroke-width="0.3" stroke-opacity="0.5">
<path d="M-51.71 -51.66 L-203.77 51.66"/>
</g>
<g id="zigguratlink-57-segment" fill="none" stroke="#888888" stroke-dasharray="0" stroke-width="0.3" stroke-opacity="0.5">
<path d="M-51.71 -51.66 L-173.36 51.66"/>
</g>
<g id="zigguratlink-58-segment" fill="none" stroke="#888888" stroke-dasharray="0" stroke-width="0.3" stroke-opacity="0.5">
<path d="M-51.71 -51.66 L-142.94 51.66"/>
</g>
<g id="zigguratlink-59-segment" fill="none" stroke="#888888" stroke-dasharray="0" stroke-width="0.3" stroke-opacity="0.5">
<path d="M-51.71 -51.66 L9.12 51.66"/>
</g>
<g id="zigguratlink-60-segment" fill="none" stroke="#888888" stroke-dasharray="0" stroke-width="0.3" stroke-opacity="0.5">
<path d="M-21.3 -51.66 L-234.18 51.66"/>
</g>
<g id="zigguratlink-61-segment" fill="none" stroke="#888888" stroke-dasharray="0" stroke-width="0.3" stroke-opacity="0.5">
<path d="M-21.3 -51.66 L-203.77 51.66"/>
</g>
<g id="zigguratlink-62-segment" fill="none" stroke="#888888" stroke-dasharray="0" stroke-width="0.3" stroke-opacity="0.5">
<path d="M-21.3 -51.66 L-173.36 51.66"/>
</g>
<g id="zigguratlink-63-segment" fill="none" stroke="#888888" stroke-dasharray="0" stroke-width="0.3" stroke-opacity="0.5">
<path d="M-21.3 -51.66 L-112.53 51.66"/>
</g>
<g id="zigguratlink-64-segment" fill="none" stroke="#888888" stroke-dasharray="0" stroke-width="0.3" stroke-opacity="0.5">
<path d="M-21.3 -51.66 L-51.71 51.66"/>
</g>
<g id="zigguratlink-65-segment" fill="none" stroke="#888888" stroke-dasharray="0" stroke-width="0.3" stroke-opacity="0.5">
<path d="M9.12 -51.66 L-234.18 51.66"/>
</g>
<g id="zigguratlink-66-segment" fill="none" stroke="#888888" stroke-dasharray="0" stroke-width="0.3" stroke-opacity="0.5">
<path d="M9.12 -51.66 L-203.77 51.66"/>
</g>
<g id="zigguratlink-67-segment" fill="none" stroke="#888888" stroke-dasharray="0" stroke-width="0.3" stroke-opacity="0.5">
<path d="M9.12 -51.66 L-173.36 51.66"/>
</g>
<g id="zigguratlink-68-segment" fill="none" stroke="#888888" stroke-dasharray="0" stroke-width="0.3" stroke-opacity="0.5">
<path d="M9.12 -51.66 L-82.12 51.66"/>
</g>
<g id="zigguratlink-69-segment" fill="none" stroke="#888888" stroke-dasharray="0" stroke-width="0.3" stroke-opacity="0.5">
<path d="M9.12 -51.66 L69.94 51.66"/>
</g>
<g id="zigguratlink-70-segment" fill="none" stroke="#888888" stroke-dasharray="0" stroke-width="0.3" stroke-opacity="0.5">
<path d="M39.53 -51.66 L-234.18 51.66"/>
</g>
<g id="zigguratlink-71-segment" fill="none" stroke="#888888" stroke-dasharray="0" stroke-width="0.3" stroke-opacity="0.5">
<path d="M39.53 -51.66 L-203.77 51.66"/>
</g>
<g id="zigguratlink-72-segment" fill="none" stroke="#888888" stroke-dasharray="0" stroke-width="0.3" stroke-opacity="0.5">
<path d="M39.53 -51.66 L-142.94 51.66"/>
</g>
<g id="zigguratlink-73-segment" fill="none" stroke="#888888" stroke-dasharray="0" stroke-width="0.3" stroke-opacity="0.5">
<path d="M39.53 -51.66 L-82.12 51.66"/>
</g>
<g id="zigguratlink-74-segment" fill="none" stroke="#888888" stroke-dasharray="0" stroke-width="0.3" stroke-opacity="0.5">
<path d="M39.53 -51.66 L-21.3 51.66"/>
</g>
<g id="zigguratlink-75-segment" fill="none" stroke="#888888" stroke-dasharray="0" stroke-width="0.3" stroke-opacity="0.5">
<path d="M69.94 -51.66 L-234.18 51.66"/>
</g>
<g id="zigguratlink-76-segment" fill="none" stroke="#888888" stroke-dasharray="0" stroke-width="0.3" stroke-opacity="0.5">
<path d="M69.94 -51.66 L-203.77 51.66"/>
</g>
<g id="zigguratlink-77-segment" fill="none" stroke="#888888" stroke-dasharray="0" stroke-width="0.3" stroke-opacity="0.5">
<path d="M69.94 -51.66 L-142.94 51.66"/>
</g>
<g id="zigguratlink-78-segment" fill="none" stroke="#888888" stroke-dasharray="0" stroke-width="0.3" stroke-opacity="0.5">
<path d="M69.94 -51.66 L-82.12 51.66"/>
</g>
<g id="zigguratlink-79-segment" fill="none" stroke="#888888" stroke-dasharray="0" stroke-width="0.3" stroke-opacity="0.5">
<path d="M69.94 -51.66 L39.53 51.66"/>
</g>
<g id="zigguratlink-80-segment" fill="none" stroke="#888888" stroke-dasharray="0" stroke-width="0.3" stroke-opacity="0.5">
<path d="M143.73 356.24 L-234.18 129.14"/>
</g>
<g id="zigguratlink-81-segment" fill="none" stroke="#888888" stroke-dasharray="0" stroke-width="0.3" stroke-opacity="0.5">
<path d="M143.73 356.24 L-203.77 124.21"/>
</g>
<g id="zigguratlink-82-segment" fill="none" stroke="#888888" stroke-dasharray="0" stroke-width="0.3" stroke-opacity="0.5">
<path d="M143.73 356.24 L-173.36 119.28"/>
</g>
<g id="zigguratlink-83-segment" fill="none" stroke="#888888" stroke-dasharray="0" stroke-width="0.3" stroke-opacity="0.5">
<path d="M143.73 356.24 L-112.53 109.42"/>
</g>
<g id="zigguratlink-84-segment" fill="none" stroke="#888888" stroke-dasharray="0" stroke-width="0.3" stroke-opacity="0.5">
<path d="M156.73 336.65 L-234.18 129.14"/>
</g>
<g id="zigguratlink-85-segment" fill="none" stroke="#888888" stroke-dasharray="0" stroke-width="0.3" stroke-opacity="0.5">
<path d="M156.73 336.65 L-173.36 119.28"/>
</g>
<g id="zigguratlink-86-segment" fill="none" stroke="#888888" stroke-dasharray="0" stroke-width="0.3" stroke-opacity="0.5">
<path d="M156.73 336.65 L-82.12 104.49"/>
</g>
<g id="zigguratlink-87-segment" fill="none" stroke="#888888" stroke-dasharray="0" stroke-width="0.3" stroke-opacity="0.5">
<path d="M156.73 336.65 L-21.3 94.63"/>
</g>
<g id="zigguratlink-88-segment" fill="none" stroke="#888888" stroke-dasharray="0" stroke-width="0.3" stroke-opacity="0.5">
<path d="M266.67 302.59 L-234.18 129.14"/>
</g>
<g id="zigguratlink-89-segment" fill="none" stroke="#888888" stroke-dasharray="0" stroke-width="0.3" stroke-opacity="0.5">
<path d="M266.67 302.59 L-203.77 124.21"/>
</g>
<g id="zigguratlink-90-segment" fill="none" stroke="#888888" stroke-dasharray="0" stroke-width="0.3" stroke-opacity="0.5">
<path d="M266.67 302.59 L-112.53 109.42"/>
</g>
<g id="zigguratlink-91-segment" fill="none" stroke="#888888" stroke-dasharray="0" stroke-width="0.3" stroke-opacity="0.5">
<path d="M271 283 L-234.18 129.14"/>
</g>
<g id="zigguratlink-92-segment" fill="none" stroke="#888888" stroke-dasharray="0" stroke-width="0.3" stroke-opacity="0.5">
<path d="M271 283 L-203.77 124.21"/>
</g>
<g id="zigguratlink-93-segment" fill="none" stroke="#888888" stroke-dasharray="0" stroke-width="0.3" stroke-opacity="0.5">
<path d="M271 283 L-173.36 119.28"/>
</g>
<g id="zigguratlink-94-segment" fill="none" stroke="#888888" stroke-dasharray="0" stroke-width="0.3" stroke-opacity="0.5">
<path d="M275.33 263.41 L-234.18 129.14"/>
</g>
<g id="zigguratlink-95-segment" fill="none" stroke="#888888" stroke-dasharray="0" stroke-width="0.3" stroke-opacity="0.5">
<path d="M275.33 263.41 L-203.77 124.21"/>
</g>
<g id="zigguratlink-96-segment" fill="none" stroke="#888888" stroke-dasharray="0" stroke-width="0.3" stroke-opacity="0.5">
<path d="M275.33 263.41 L-82.12 104.49"/>
</g>
<g id="zigguratlink-97-segment" fill="none" stroke="#888888" stroke-dasharray="0" stroke-width="0.3" stroke-opacity="0.5">
<path d="M279.67 243.81 L-234.18 129.14"/>
</g>
<g id="zigguratlink-98-segment" fill="none" stroke="#888888" stroke-dasharray="0" stroke-width="0.3" stroke-opacity="0.5">
<path d="M279.67 243.81 L-21.3 94.63"/>
</g>
<g id="zigguratlink-99-segment" fill="none" stroke="#888888" stroke-dasharray="0" stroke-width="0.3" stroke-opacity="0.5">
<path d="M279.67 243.81 L9.12 89.7"/>
</g>
<g id="zigguratlink-100-segment" fill="none" stroke="#888888" stroke-dasharray="0" stroke-width="0.3" stroke-opacity="0.5">
<path d="M284 224.22 L-203.77 124.21"/>
</g>
<g id="zigguratlink-101-segment" fill="none" stroke="#888888" stroke-dasharray="0" stroke-width="0.3" stroke-opacity="0.5">
<path d="M284 224.22 L-173.36 119.28"/>
</g>
<g id="zigguratlink-102-segment" fill="none" stroke="#888888" stroke-dasharray="0" stroke-width="0.3" stroke-opacity="0.5">
<path d="M288.33 204.63 L-203.77 124.21"/>
</g>
<g id="zigguratlink-103-segment" fill="none" stroke="#888888" stroke-dasharray="0" stroke-width="0.3" stroke-opacity="0.5">
<path d="M288.33 204.63 L9.12 89.7"/>
</g>
<g id="zigguratlink-104-segment" fill="none" stroke="#888888" stroke-dasharray="0" stroke-width="0.3" stroke-opacity="0.5">
<path d="M-82.12 -104.49 L143.73 -323.59"/>
</g>
<g id="zigguratlink-105-segment" fill="none" stroke="#888888" stroke-dasharray="0" stroke-width="0.3" stroke-opacity="0.5">
<path d="M-51.71 -99.56 L143.73 -323.59"/>
</g>
<g id="zigguratlink-106-segment" fill="none" stroke="#888888" stroke-dasharray="0" stroke-width="0.3" stroke-opacity="0.5">
<path d="M-21.3 -94.63 L143.73 -323.59"/>
</g>
<g id="zigguratlink-107-segment" fill="none" stroke="#888888" stroke-dasharray="0" stroke-width="0.3" stroke-opacity="0.5">
<path d="M143.73 356.24 L143.73 -323.59"/>
</g>
<g id="zigguratlink-108-segment" fill="none" stroke="#888888" stroke-dasharray="0" stroke-width="0.3" stroke-opacity="0.5">
<path d="M-234.18 -129.14 L273.17 -250.34"/>
</g>
<g id="zigguratlink-109-segment" fill="none" stroke="#888888" stroke-dasharray="0" stroke-width="0.3" stroke-opacity="0.5">
<path d="M-203.77 -124.21 L279.67 -230.75"/>
</g>
<g id="zigguratlink-110-segment" fill="none" stroke="#888888" stroke-dasharray="0" stroke-width="0.3" stroke-opacity="0.5">
<path d="M-173.36 -119.28 L266.67 -269.94"/>
</g>
<g id="zigguratlink-111-segment" fill="none" stroke="#888888" stroke-dasharray="0" stroke-width="0.3" stroke-opacity="0.5">
<path d="M-112.53 -109.42 L266.67 -269.94"/>
</g>
<g id="zigguratlink-112-segment" fill="none" stroke="#888888" stroke-dasharray="0" stroke-width="0.3" stroke-opacity="0.5">
<path d="M-112.53 -109.42 L279.67 -230.75"/>
</g>
<g id="zigguratlink-113-segment" fill="none" stroke="#888888" stroke-dasharray="0" stroke-width="0.3" stroke-opacity="0.5">
<path d="M-112.53 -109.42 L286.17 -211.16"/>
</g>
<g id="zigguratlink-114-segment" fill="none" stroke="#888888" stroke-dasharray="0" stroke-width="0.3" stroke-opacity="0.5">
<path d="M-51.71 -99.56 L266.67 -269.94"/>
</g>
<g id="zigguratlink-115-segment" fill="none" stroke="#888888" stroke-dasharray="0" stroke-width="0.3" stroke-opacity="0.5">
<path d="M-51.71 -99.56 L273.17 -250.34"/>
</g>
<g id="zigguratlink-116-segment" fill="none" stroke="#888888" stroke-dasharray="0" stroke-width="0.3" stroke-opacity="0.5">
<path d="M-51.71 -99.56 L286.17 -211.16"/>
</g>
<g id="zigguratlink-117-segment" fill="none" stroke="#888888" stroke-dasharray="0" stroke-width="0.3" stroke-opacity="0.5">
<path d="M266.67 302.59 L286.17 -211.16"/>
</g>
<g id="zigguratlink-118-segment" fill="none" stroke="#888888" stroke-dasharray="0" stroke-width="0.3" stroke-opacity="0.5">
<path d="M284 224.22 L279.67 -230.75"/>
</g>
<g id="zigguratlink-119-segment" fill="none" stroke="#888888" stroke-dasharray="0" stroke-width="0.3" stroke-opacity="0.5">
<path d="M288.33 204.63 L273.17 -250.34"/>
</g>
<g id="zigguratlink-1-path" fill="none" stroke="#888888" stroke-dasharray="0" stroke-width="0.3" stroke-opacity="0.5">
<path d="M-203.77 124.21  L-186.35 146.65 L-168.94 166.76 L-151.53 184.47 L-134.11 200.11 L-116.7 214.04 L-99.28 226.59 L-81.87 238.11 L-64.46 248.94 L-47.04 259.44"/>
</g>
<g id="zigguratlink-2-path" fill="none" stroke="#888888" stroke-dasharray="0" stroke-width="0.3" stroke-opacity="0.5">
<path d="M-142.94 -114.35  L-132.29 -135.99 L-121.63 -155.38 L-110.98 -172.45 L-100.32 -187.54 L-89.67 -200.96 L-79.01 -213.07 L-68.35 -224.18 L-57.7 -234.62 L-47.04 -244.74"/>
</g>
<g id="zigguratlink-3-path" fill="none" stroke="#888888" stroke-dasharray="0" stroke-width="0.3" stroke-opacity="0.5">
<path d="M-203.77 -124.21  L-190.63 -146.26 L-177.49 -166.02 L-164.36 -183.42 L-151.22 -198.79 L-138.08 -212.47 L-124.94 -224.81 L-111.81 -236.13 L-98.67 -246.78 L-85.53 -257.08"/>
</g>
<g id="zigguratlink-4-path" fill="none" stroke="#888888" stroke-dasharray="0" stroke-width="0.3" stroke-opacity="0.5">
<path d="M318.67 310.75  L324.87 310.91 L331.07 311.52 L337.28 312.5 L343.48 313.79 L349.69 315.33 L355.89 317.07 L362.09 318.96 L368.3 320.95 L374.5 323"/>
</g>
<g id="zigguratlink-5-path" fill="none" stroke="#888888" stroke-dasharray="0" stroke-width="0.3" stroke-opacity="0.5">
<path d="M-234.18 129.14  L-161.38 137.52 L-88.58 144.7 L-15.77 149.64 L57.03 152.7 L129.83 154.96 L202.63 157.53 L275.44 161.48 L348.24 167.93 L421.04 177.79"/>
</g>
<g id="zigguratlink-6-path" fill="none" stroke="#888888" stroke-dasharray="0" stroke-width="0.3" stroke-opacity="0.5">
<path d="M-203.77 124.21  L-134.35 133.44 L-64.92 141.35 L4.5 146.79 L73.92 150.15 L143.35 152.65 L212.77 155.47 L282.19 159.83 L351.62 166.93 L421.04 177.79"/>
</g>
<g id="zigguratlink-7-path" fill="none" stroke="#888888" stroke-dasharray="0" stroke-width="0.3" stroke-opacity="0.5">
<path d="M-234.18 129.14  L-160.66 134.15 L-87.14 138.44 L-13.62 141.39 L59.91 143.21 L133.43 144.56 L206.95 146.1 L280.47 148.46 L353.99 152.31 L427.51 158.2"/>
</g>
<g id="zigguratlink-8-path" fill="none" stroke="#888888" stroke-dasharray="0" stroke-width="0.3" stroke-opacity="0.5">
<path d="M-173.36 119.28  L-106.59 125.99 L-39.83 131.73 L26.93 135.68 L93.7 138.13 L160.46 139.94 L227.22 141.99 L293.99 145.15 L360.75 150.31 L427.51 158.2"/>
</g>
<g id="zigguratlink-9-path" fill="none" stroke="#888888" stroke-dasharray="0" stroke-width="0.3" stroke-opacity="0.5">
<path d="M-234.18 129.14  L-159.94 130.77 L-85.7 132.17 L-11.46 133.13 L62.78 133.73 L137.02 134.17 L211.26 134.67 L285.51 135.44 L359.75 136.69 L433.99 138.61"/>
</g>
<g id="zigguratlink-10-path" fill="none" stroke="#888888" stroke-dasharray="0" stroke-width="0.3" stroke-opacity="0.5">
<path d="M-203.77 124.21  L-132.91 126.69 L-62.05 128.82 L8.82 130.28 L79.68 131.18 L150.54 131.85 L221.4 132.61 L292.26 133.78 L363.13 135.69 L433.99 138.61"/>
</g>
<g id="zigguratlink-11-path" fill="none" stroke="#888888" stroke-dasharray="0" stroke-width="0.3" stroke-opacity="0.5">
<path d="M-234.18 129.14  L-159.22 127.4 L-84.26 125.9 L-9.3 124.88 L65.66 124.24 L140.62 123.77 L215.58 123.24 L290.54 122.41 L365.5 121.07 L440.46 119.02"/>
</g>
<g id="zigguratlink-12-path" fill="none" stroke="#888888" stroke-dasharray="0" stroke-width="0.3" stroke-opacity="0.5">
<path d="M-21.3 94.63  L30.01 98.83 L81.32 102.43 L132.62 104.9 L183.93 106.44 L235.24 107.57 L286.54 108.86 L337.85 110.84 L389.15 114.07 L440.46 119.02"/>
</g>
<g id="zigguratlink-13-path" fill="none" stroke="#888888" stroke-dasharray="0" stroke-width="0.3" stroke-opacity="0.5">
<path d="M-203.77 124.21  L-131.47 119.94 L-59.17 116.28 L13.13 113.77 L85.43 112.21 L157.73 111.06 L230.03 109.75 L302.33 107.73 L374.63 104.45 L446.93 99.43"/>
</g>
<g id="zigguratlink-14-path" fill="none" stroke="#888888" stroke-dasharray="0" stroke-width="0.3" stroke-opacity="0.5">
<path d="M9.12 89.7  L57.76 91.37 L106.41 92.81 L155.06 93.8 L203.7 94.41 L252.35 94.86 L300.99 95.37 L349.64 96.16 L398.29 97.45 L446.93 99.43"/>
</g>
<g id="zigguratlink-15-path" fill="none" stroke="#888888" stroke-dasharray="0" stroke-width="0.3" stroke-opacity="0.5">
<path d="M-203.77 124.21  L-130.75 116.57 L-57.73 110.02 L15.29 105.51 L88.31 102.73 L161.33 100.66 L234.35 98.32 L307.37 94.71 L380.39 88.83 L453.41 79.83"/>
</g>
<g id="zigguratlink-16-path" fill="none" stroke="#888888" stroke-dasharray="0" stroke-width="0.3" stroke-opacity="0.5">
<path d="M9.12 89.7  L58.48 88 L107.85 86.54 L157.21 85.54 L206.58 84.92 L255.94 84.46 L305.31 83.94 L354.68 83.14 L404.04 81.83 L453.41 79.83"/>
</g>
<g id="zigguratlink-17-path" fill="none" stroke="#888888" stroke-dasharray="0" stroke-width="0.3" stroke-opacity="0.5">
<path d="M-203.77 -124.21  L-134.53 -138.45 L-65.28 -147.76 L3.96 -153.47 L73.2 -157.17 L142.45 -160.44 L211.69 -164.86 L280.93 -171.98 L350.18 -182.35 L419.42 -194.45"/>
</g>
<g id="zigguratlink-18-path" fill="none" stroke="#888888" stroke-dasharray="0" stroke-width="0.3" stroke-opacity="0.5">
<path d="M-203.77 -124.21  L-133.45 -134.48 L-63.12 -141.19 L7.2 -145.31 L77.52 -147.98 L147.84 -150.34 L218.16 -153.52 L288.49 -158.66 L358.81 -166.13 L429.13 -174.86"/>
</g>
<g id="zigguratlink-19-path" fill="none" stroke="#888888" stroke-dasharray="0" stroke-width="0.3" stroke-opacity="0.5">
<path d="M-203.77 -124.21  L-132.37 -130.51 L-60.97 -134.62 L10.43 -137.15 L81.84 -138.78 L153.24 -140.23 L224.64 -142.18 L296.04 -145.33 L367.44 -149.92 L438.84 -155.27"/>
</g>
<g id="zigguratlink-20-path" fill="none" stroke="#888888" stroke-dasharray="0" stroke-width="0.3" stroke-opacity="0.5">
<path d="M-51.71 -99.56  L0.64 -118.8 L52.99 -131.37 L105.33 -139.09 L157.68 -144.09 L210.03 -148.51 L262.38 -154.47 L314.73 -164.1 L367.07 -178.1 L419.42 -194.45"/>
</g>
<g id="zigguratlink-21-path" fill="none" stroke="#888888" stroke-dasharray="0" stroke-width="0.3" stroke-opacity="0.5">
<path d="M-51.71 -99.56  L1.72 -114.83 L55.14 -124.8 L108.57 -130.92 L162 -134.89 L215.43 -138.4 L268.85 -143.13 L322.28 -150.77 L375.71 -161.88 L429.13 -174.86"/>
</g>
<g id="zigguratlink-22-path" fill="none" stroke="#888888" stroke-dasharray="0" stroke-width="0.3" stroke-opacity="0.5">
<path d="M-51.71 -99.56  L2.8 -110.85 L57.3 -118.23 L111.81 -122.76 L166.31 -125.7 L220.82 -128.29 L275.33 -131.79 L329.83 -137.45 L384.34 -145.67 L438.84 -155.27"/>
</g>
<g id="zigguratlink-23-path" fill="none" stroke="#888888" stroke-dasharray="0" stroke-width="0.3" stroke-opacity="0.5">
<path d="M-21.3 -94.63  L30.91 -102.95 L83.11 -108.39 L135.32 -111.73 L187.53 -113.89 L239.73 -115.8 L291.94 -118.38 L344.14 -122.54 L396.35 -128.6 L448.55 -135.67"/>
</g>
<g id="zigguratlink-24-path" fill="none" stroke="#888888" stroke-dasharray="0" stroke-width="0.3" stroke-opacity="0.5">
<path d="M318.67 302.59  L333.1 246.71 L347.53 191.55 L361.96 137.83 L376.39 86.28 L390.83 37.59 L405.26 -8.25 L419.69 -51.93 L434.12 -94.16 L448.55 -135.67"/>
</g>
</svg>