<svg xmlns="http://www.w3.org/2000/svg" viewBox="-1300 -890 3034.5 2068.5">
<rect id="kcore3-a-1-rect" style="fill:#00008B;fill-opacity:0.2" stroke="transparent" stroke-dasharray="0" stroke-width="0.5" x="-347.53" y="-278.02" width="136.49" height="166.81" />
<rect id="kcore3-a-2-rect" style="fill:#4169E1;fill-opacity:0.2" stroke="transparent" stroke-dasharray="0" stroke-width="0.5" x="-195.88" y="-254.67" width="136.48" height="143.46" />
<rect id="kcore3-a-3-rect" style="fill:#00008B;fill-opacity:0.2" stroke="transparent" stroke-dasharray="0" stroke-width="0.5" x="-44.23" y="-231.31" width="136.48" height="120.1" />
<rect id="kcore3-a-4-rect" style="fill:#4169E1;fill-opacity:0.2" stroke="transparent" stroke-dasharray="0" stroke-width="0.5" x="107.42" y="-207.96" width="136.48" height="96.75" />
<rect id="kcore3-a-5-rect" style="fill:#00008B;fill-opacity:0.2" stroke="transparent" stroke-dasharray="0" stroke-width="0.5" x="259.07" y="-184.61" width="136.48" height="73.4" />
<text id="kcore3-a-1-text" y="-194.62" style="text-anchor:middle;dominant-baseline:middle;font-family:Arial;font-size:15px;fill:#00008B">
<tspan x="-279.29" dy="0">11</tspan>
</text>
<text id="kcore3-a-2-text" y="-182.94" style="text-anchor:middle;dominant-baseline:middle;font-family:Arial;font-size:15px;fill:#00008B">
<tspan x="-127.64" dy="0">7</tspan>
</text>
<text id="kcore3-a-3-text" y="-171.26" style="text-anchor:middle;dominant-baseline:middle;font-family:Arial;font-size:15px;fill:#00008B">
<tspan x="24.01" dy="0">6</tspan>
</text>
<text id="kcore3-a-4-text" y="-159.58" style="text-anchor:middle;dominant-baseline:middle;font-family:Arial;font-size:15px;fill:#00008B">
<tspan x="175.66" dy="0">12</tspan>
</text>
<text id="kcore3-a-5-text" y="-147.91" style="text-anchor:middle;dominant-baseline:middle;font-family:Arial;font-size:15px;fill:#00008B">
<tspan x="327.31" dy="0">2</tspan>
</text>
<rect id="kcore3-b-1-rect" style="fill:#FF0000;fill-opacity:0.2" stroke="transparent" stroke-dasharray="0" stroke-width="0.5" x="-347.53" y="111.21" width="136.49" height="166.81" />
<rect id="kcore3-b-2-rect" style="fill:#F08080;fill-opacity:0.2" stroke="transparent" stroke-dasharray="0" stroke-width="0.5" x="-195.88" y="111.21" width="136.48" height="143.46" />
<rect id="kcore3-b-3-rect" style="fill:#FF0000;fill-opacity:0.2" stroke="transparent" stroke-dasharray="0" stroke-width="0.5" x="-44.23" y="111.21" width="136.48" height="120.1" />
<rect id="kcore3-b-4-rect" style="fill:#F08080;fill-opacity:0.2" stroke="transparent" stroke-dasharray="0" stroke-width="0.5" x="107.42" y="111.21" width="136.48" height="96.75" />
<rect id="kcore3-b-5-rect" style="fill:#FF0000;fill-opacity:0.2" stroke="transparent" stroke-dasharray="0" stroke-width="0.5" x="259.07" y="111.21" width="136.48" height="73.4" />
<text id="kcore3-b-1-text" y="194.62" style="text-anchor:middle;dominant-baseline:middle;font-family:Arial;font-size:15px;fill:#FF0000">
<tspan x="-279.29" dy="0">9</tspan>
</text>
<text id="kcore3-b-2-text" y="182.94" style="text-anchor:middle;dominant-baseline:middle;font-family:Arial;font-size:15px;fill:#FF0000">
<tspan x="-127.64" dy="0">2</tspan>
</text>
<text id="kcore3-b-3-text" y="171.26" style="text-anchor:middle;dominant-baseline:middle;font-family:Arial;font-size:15px;fill:#FF0000">
<tspan x="24.01" dy="0">4</tspan>
</text>
<text id="kcore3-b-4-text" y="159.58" style="text-anchor:middle;dominant-baseline:middle;font-family:Arial;font-size:15px;fill:#FF0000">
<tspan x="175.66" dy="0">8</tspan>
</text>
<text id="kcore3-b-5-text" y="147.91" style="text-anchor:middle;dominant-baseline:middle;font-family:Arial;font-size:15px;fill:#FF0000">
<tspan x="327.31" dy="0">5</tspan>
</text>
<rect id="kcore2-a-1-rect" style="fill:#00008B;fill-opacity:0.2" stroke="transparent" stroke-dasharray="0" stroke-width="0.5" x="756.7" y="962.29" width="320.99" height="48.61" />
<rect id="kcore2-a-2-rect" style="fill:#4169E1;fill-opacity:0.2" stroke="transparent" stroke-dasharray="0" stroke-width="0.5" x="783.45" y="903.96" width="287.55" height="48.61" />
<rect id="kcore2-a-3-rect" style="fill:#00008B;fill-opacity:0.2" stroke="transparent" stroke-dasharray="0" stroke-width="0.5" x="810.2" y="845.64" width="254.12" height="48.6" />
<rect id="kcore2-a-4-rect" style="fill:#4169E1;fill-opacity:0.2" stroke="transparent" stroke-dasharray="0" stroke-width="0.5" x="836.95" y="787.31" width="220.68" height="48.61" />
<rect id="kcore2-a-5-rect" style="fill:#00008B;fill-opacity:0.2" stroke="transparent" stroke-dasharray="0" stroke-width="0.5" x="863.7" y="728.99" width="187.24" height="48.6" />
<rect id="kcore2-a-6-rect" style="fill:#4169E1;fill-opacity:0.2" stroke="transparent" stroke-dasharray="0" stroke-width="0.5" x="890.45" y="670.66" width="153.8" height="48.6" />
<rect id="kcore2-a-7-rect" style="fill:#00008B;fill-opacity:0.2" stroke="transparent" stroke-dasharray="0" stroke-width="0.5" x="917.19" y="612.33" width="120.38" height="48.61" />
<rect id="kcore2-a-8-rect" style="fill:#4169E1;fill-opacity:0.2" stroke="transparent" stroke-dasharray="0" stroke-width="0.5" x="943.94" y="554.01" width="86.9400000000001" height="48.6" />
<text id="kcore2-a-1-text" y="986.59" style="text-anchor:middle;dominant-baseline:middle;font-family:Arial;font-size:13.5px;fill:#00008B">
<tspan x="1013.49" dy="0">1</tspan>
</text>
<text id="kcore2-a-2-text" y="928.27" style="text-anchor:middle;dominant-baseline:middle;font-family:Arial;font-size:13.5px;fill:#00008B">
<tspan x="826.58" dy="0">3</tspan>
</text>
<text id="kcore2-a-3-text" y="869.94" style="text-anchor:middle;dominant-baseline:middle;font-family:Arial;font-size:13.5px;fill:#00008B">
<tspan x="1013.49" dy="0">9</tspan>
</text>
<text id="kcore2-a-4-text" y="811.61" style="text-anchor:middle;dominant-baseline:middle;font-family:Arial;font-size:13.5px;fill:#00008B">
<tspan x="870.05" dy="0">10</tspan>
</text>
<text id="kcore2-a-5-text" y="753.29" style="text-anchor:middle;dominant-baseline:middle;font-family:Arial;font-size:13.5px;fill:#00008B">
<tspan x="1013.49" dy="0">4</tspan>
</text>
<text id="kcore2-a-6-text" y="694.96" style="text-anchor:middle;dominant-baseline:middle;font-family:Arial;font-size:13.5px;fill:#00008B">
<tspan x="913.52" dy="0">5</tspan>
</text>
<text id="kcore2-a-7-text" y="636.64" style="text-anchor:middle;dominant-baseline:middle;font-family:Arial;font-size:13.5px;fill:#00008B">
<tspan x="1013.49" dy="0">8</tspan>
</text>
<text id="kcore2-a-8-text" y="578.31" style="text-anchor:middle;dominant-baseline:middle;font-family:Arial;font-size:13.5px;fill:#00008B">
<tspan x="956.98" dy="0">13</tspan>
</text>
<rect id="kcore2-b-1-rect" style="fill:#FF0000;fill-opacity:0.2" stroke="transparent" stroke-dasharray="0" stroke-width="0.5" x="738.87" y="-715.47" width="320.99" height="48.61" />
<rect id="kcore2-b-2-rect" style="fill:#F08080;fill-opacity:0.2" stroke="transparent" stroke-dasharray="0" stroke-width="0.5" x="792.36" y="-657.14" width="254.12" height="48.6" />
<rect id="kcore2-b-3-rect" style="fill:#FF0000;fill-opacity:0.2" stroke="transparent" stroke-dasharray="0" stroke-width="0.5" x="845.86" y="-598.82" width="187.25" height="48.61" />
<rect id="kcore2-b-4-rect" style="fill:#F08080;fill-opacity:0.2" stroke="transparent" stroke-dasharray="0" stroke-width="0.5" x="899.36" y="-540.49" width="120.37" height="48.6" />
<text id="kcore2-b-1-text" y="-691.17" style="text-anchor:middle;dominant-baseline:middle;font-family:Arial;font-size:13.5px;fill:#FF0000">
<tspan x="995.66" dy="0">1</tspan>
</text>
<text id="kcore2-b-2-text" y="-632.84" style="text-anchor:middle;dominant-baseline:middle;font-family:Arial;font-size:13.5px;fill:#FF0000">
<tspan x="830.48" dy="0">7</tspan>
</text>
<text id="kcore2-b-3-text" y="-574.51" style="text-anchor:middle;dominant-baseline:middle;font-family:Arial;font-size:13.5px;fill:#FF0000">
<tspan x="995.66" dy="0">6</tspan>
</text>
<text id="kcore2-b-4-text" y="-516.19" style="text-anchor:middle;dominant-baseline:middle;font-family:Arial;font-size:13.5px;fill:#FF0000">
<tspan x="917.42" dy="0">10</tspan>
</text>
<rect id="kcore3-1-rect" style="fill:none;fill-opacity:0.3" stroke="#8B4C39" stroke-dasharray="1 1" stroke-width="0" x="-489.7" y="-414.12" width="932.64" height="760.19" />
<text id="kcore3-1-text" y="-34.02" style="text-anchor:middle;dominant-baseline:middle;font-family:Arial;font-size:10.5px;fill:transparent">
</text>
<text id="kcore3-1-text" y="0" transform="rotate(-90 -413.87 0)" style="text-anchor:start;dominant-baseline:baseline;font-family:Arial;font-size:15px;fill:#8B4C39">
<tspan x="-413.87" dy="0">3-shell</tspan>
</text>
<rect id="kcore2-1-rect" style="fill:none;fill-opacity:0.3" stroke="#AC5E46" stroke-dasharray="1 1" stroke-width="0" x="691.48" y="-885.59" width="433.6" height="1964.53" />
<text id="kcore2-1-text" y="96.68" style="text-anchor:middle;dominant-baseline:middle;font-family:Arial;font-size:10.5px;fill:transparent">
</text>
<text id="kcore2-1-text" y="-790.32" style="text-anchor:start;dominant-baseline:baseline;font-family:Arial;font-size:15px;fill:#AC5E46">
<tspan x="860.89" dy="0">2-shell</tspan>
</text>
<rect id="fat-kcore1-b-1-rect" style="fill:#FF0000;fill-opacity:0.11" stroke="transparent" stroke-dasharray="0" stroke-width="0.5" x="-1295.33" y="-101.97" width="47.3899999999999" height="33.85" />
<text id="fat-kcore1-b-1-text" y="-85.04" style="text-anchor:middle;dominant-baseline:middle;font-family:Arial;font-size:12px;fill:#FF0000">
<tspan x="-1271.63" dy="0"> 3</tspan>
</text>
<rect id="annotation-1-rect" style="fill:none;fill-opacity:0.5" stroke="transparent" stroke-dasharray="0" stroke-width="0.5" x="1579.67" y="-0.07" width="0.0999999999999091" height="0.07" />
<text id="annotation-1-text" y="-0.04" style="text-anchor:middle;dominant-baseline:middle;font-family:Arial;font-size:10.5px;fill:transparent">
</text>
<text id="annotation-1-text" y="0" style="text-anchor:middle;dominant-baseline:middle;font-family:Arial;font-size:3px;fill:red">
<tspan x="1579.67" dy="0">.</tspan>
</text>
<text id="annotation-1-text" y="0" style="text-anchor:middle;dominant-baseline:middle;font-family:Arial;font-size:3px;fill:red">
<tspan x="-821.43" dy="0">.</tspan>
</text>
<g id="link-1-segment" fill="none" stroke="#888888" stroke-dasharray="0" stroke-width="0.3" stroke-opacity="0.5">
<path d="M-1247.94 -85.04 L-347.53 -194.62"/>
</g>
<g id="link-2-segment" fill="none" stroke="#888888" stroke-dasharray="0" stroke-width="0.3" stroke-opacity="0.5">
<path d="M-279.29 -111.21 L-279.29 111.21"/>
</g>
<g id="link-3-segment" fill="none" stroke="#888888" stroke-dasharray="0" stroke-width="0.3" stroke-opacity="0.5">
<path d="M-279.29 -111.21 L-127.64 111.21"/>
</g>
<g id="link-4-segment" fill="none" stroke="#888888" stroke-dasharray="0" stroke-width="0.3" stroke-opacity="0.5">
<path d="M-279.29 -111.21 L24.01 111.21"/>
</g>
<g id="link-5-segment" fill="none" stroke="#888888" stroke-dasharray="0" stroke-width="0.3" stroke-opacity="0.5">
<path d="M-279.29 -111.21 L175.66 111.21"/>
</g>
<g id="link-6-segment" fill="none" stroke="#888888" stroke-dasharray="0" stroke-width="0.3" stroke-opacity="0.5">
<path d="M-127.64 -111.21 L-279.29 111.21"/>
</g>
<g id="link-7-segment" fill="none" stroke="#888888" stroke-dasharray="0" stroke-width="0.3" stroke-opacity="0.5">
<path d="M-127.64 -111.21 L-127.64 111.21"/>
</g>
<g id="link-8-segment" fill="none" stroke="#888888" stroke-dasharray="0" stroke-width="0.3" stroke-opacity="0.5">
<path d="M-127.64 -111.21 L24.01 111.21"/>
</g>
<g id="link-9-segment" fill="none" stroke="#888888" stroke-dasharray="0" stroke-width="0.3" stroke-opacity="0.5">
<path d="M-127.64 -111.21 L327.31 111.21"/>
</g>
<g id="link-10-segment" fill="none" stroke="#888888" stroke-dasharray="0" stroke-width="0.3" stroke-opacity="0.5">
<path d="M24.01 -111.21 L-279.29 111.21"/>
</g>
<g id="link-11-segment" fill="none" stroke="#888888" stroke-dasharray="0" stroke-width="0.3" stroke-opacity="0.5">
<path d="M24.01 -111.21 L175.66 111.21"/>
</g>
<g id="link-12-segment" fill="none" stroke="#888888" stroke-dasharray="0" stroke-width="0.3" stroke-opacity="0.5">
<path d="M24.01 -111.21 L327.31 111.21"/>
</g>
<g id="link-13-segment" fill="none" stroke="#888888" stroke-dasharray="0" stroke-width="0.3" stroke-opacity="0.5">
<path d="M175.66 -111.21 L-279.29 111.21"/>
</g>
<g id="link-14-segment" fill="none" stroke="#888888" stroke-dasharray="0" stroke-width="0.3" stroke-opacity="0.5">
<path d="M175.66 -111.21 L-127.64 111.21"/>
</g>
<g id="link-15-segment" fill="none" stroke="#888888" stroke-dasharray="0" stroke-width="0.3" stroke-opacity="0.5">
<path d="M175.66 -111.21 L24.01 111.21"/>
</g>
<g id="link-16-segment" fill="none" stroke="#888888" stroke-dasharray="0" stroke-width="0.3" stroke-opacity="0.5">
<path d="M175.66 -111.21 L175.66 111.21"/>
</g>
<g id="link-17-segment" fill="none" stroke="#888888" stroke-dasharray="0" stroke-width="0.3" stroke-opacity="0.5">
<path d="M327.31 -111.21 L-279.29 111.21"/>
</g>
<g id="link-18-segment" fill="none" stroke="#888888" stroke-dasharray="0" stroke-width="0.3" stroke-opacity="0.5">
<path d="M327.31 -111.21 L175.66 111.21"/>
</g>
<g id="link-19-segment" fill="none" stroke="#888888" stroke-dasharray="0" stroke-width="0.3" stroke-opacity="0.5">
<path d="M327.31 -111.21 L327.31 111.21"/>
</g>
<g id="link-20-segment" fill="none" stroke="#888888" stroke-dasharray="0" stroke-width="0.3" stroke-opacity="0.5">
<path d="M810.2 845.64 L899.36 -491.89"/>
</g>
<g id="link-21-segment" fill="none" stroke="#888888" stroke-dasharray="0" stroke-width="0.3" stroke-opacity="0.5">
<path d="M836.95 787.31 L845.86 -550.21"/>
</g>
<g id="link-22-segment" fill="none" stroke="#888888" stroke-dasharray="0" stroke-width="0.3" stroke-opacity="0.5">
<path d="M863.7 728.99 L738.87 -666.86"/>
</g>
<g id="link-23-segment" fill="none" stroke="#888888" stroke-dasharray="0" stroke-width="0.3" stroke-opacity="0.5">
<path d="M890.45 670.66 L738.87 -666.86"/>
</g>
<g id="link-24-segment" fill="none" stroke="#888888" stroke-dasharray="0" stroke-width="0.3" stroke-opacity="0.5">
<path d="M917.19 612.33 L899.36 -491.89"/>
</g>
<g id="link-25-segment" fill="none" stroke="#888888" stroke-dasharray="0" stroke-width="0.3" stroke-opacity="0.5">
<path d="M943.94 554.01 L845.86 -550.21"/>
</g>
<g id="link-1-path" fill="none" stroke="#888888" stroke-dasharray="0" stroke-width="0.3" stroke-opacity="0.5">
<path d="M-279.29 278.02  L-164.18 395.91 L-49.07 496.89 L66.04 566.33 L181.15 609.33 L296.26 641.18 L411.37 677.25 L526.48 732.92 L641.59 823.55 L756.7 962.29"/>
</g>
<g id="link-2-path" fill="none" stroke="#888888" stroke-dasharray="0" stroke-width="0.3" stroke-opacity="0.5">
<path d="M-127.64 254.67  L-29.38 376.58 L68.88 481.01 L167.14 552.81 L265.4 597.28 L363.66 630.22 L461.92 667.52 L560.18 725.09 L658.44 818.81 L756.7 962.29"/>
</g>
<g id="link-3-path" fill="none" stroke="#888888" stroke-dasharray="0" stroke-width="0.3" stroke-opacity="0.5">
<path d="M-279.29 278.02  L-161.2 385.86 L-43.12 478.24 L74.96 541.75 L193.04 581.09 L311.12 610.22 L429.2 643.22 L547.28 694.14 L665.37 777.05 L783.45 903.96"/>
</g>
<g id="link-4-path" fill="none" stroke="#888888" stroke-dasharray="0" stroke-width="0.3" stroke-opacity="0.5">
<path d="M24.01 231.31  L108.39 347.2 L192.77 446.47 L277.16 514.72 L361.54 556.99 L445.92 588.3 L530.3 623.76 L614.68 678.49 L699.07 767.58 L783.45 903.96"/>
</g>
<g id="link-5-path" fill="none" stroke="#888888" stroke-dasharray="0" stroke-width="0.3" stroke-opacity="0.5">
<path d="M-279.29 278.02  L-158.23 375.81 L-37.18 459.58 L83.88 517.18 L204.93 552.85 L325.98 579.27 L447.04 609.19 L568.09 655.37 L689.14 730.55 L810.2 845.64"/>
</g>
<g id="link-6-path" fill="none" stroke="#888888" stroke-dasharray="0" stroke-width="0.3" stroke-opacity="0.5">
<path d="M24.01 231.31  L111.37 337.15 L198.72 427.81 L286.07 490.15 L373.43 528.75 L460.78 557.35 L548.14 589.73 L635.49 639.71 L722.84 721.08 L810.2 845.64"/>
</g>
<g id="link-7-path" fill="none" stroke="#888888" stroke-dasharray="0" stroke-width="0.3" stroke-opacity="0.5">
<path d="M-279.29 278.02  L-155.26 365.77 L-31.23 440.92 L92.79 492.6 L216.82 524.61 L340.84 548.31 L464.87 575.16 L588.9 616.59 L712.92 684.05 L836.95 787.31"/>
</g>
<g id="link-8-path" fill="none" stroke="#888888" stroke-dasharray="0" stroke-width="0.3" stroke-opacity="0.5">
<path d="M-127.64 254.67  L-20.46 346.44 L86.71 425.04 L193.89 479.09 L301.07 512.56 L408.24 537.35 L515.42 565.43 L622.59 608.76 L729.77 679.31 L836.95 787.31"/>
</g>
<g id="link-9-path" fill="none" stroke="#888888" stroke-dasharray="0" stroke-width="0.3" stroke-opacity="0.5">
<path d="M-279.29 278.02  L-152.29 355.72 L-25.29 422.27 L101.71 468.03 L228.71 496.37 L355.7 517.36 L482.7 541.13 L609.7 577.82 L736.7 637.55 L863.7 728.99"/>
</g>
<g id="link-10-path" fill="none" stroke="#888888" stroke-dasharray="0" stroke-width="0.3" stroke-opacity="0.5">
<path d="M-279.29 278.02  L-149.32 345.67 L-19.35 403.61 L110.62 443.45 L240.59 468.13 L370.56 486.4 L500.54 507.1 L630.51 539.04 L760.48 591.05 L890.45 670.66"/>
</g>
<g id="link-11-path" fill="none" stroke="#888888" stroke-dasharray="0" stroke-width="0.3" stroke-opacity="0.5">
<path d="M-279.29 278.02  L-146.34 335.62 L-13.4 384.96 L119.54 418.88 L252.48 439.89 L385.43 455.45 L518.37 473.07 L651.31 500.27 L784.25 544.55 L917.19 612.33"/>
</g>
<g id="link-12-path" fill="none" stroke="#888888" stroke-dasharray="0" stroke-width="0.3" stroke-opacity="0.5">
<path d="M-127.64 254.67  L-8.57 306.24 L110.49 350.42 L229.56 380.79 L348.62 399.6 L467.69 413.53 L586.75 429.31 L705.82 453.67 L824.88 493.31 L943.94 554.01"/>
</g>
<g id="link-13-path" fill="none" stroke="#888888" stroke-dasharray="0" stroke-width="0.3" stroke-opacity="0.5">
<path d="M-279.29 -278.02  L-160.21 -345.04 L-41.14 -388.81 L77.93 -415.7 L197 -433.13 L316.08 -448.51 L435.15 -469.28 L554.22 -502.82 L673.29 -551.59 L792.36 -608.54"/>
</g>
<g id="link-14-path" fill="none" stroke="#888888" stroke-dasharray="0" stroke-width="0.3" stroke-opacity="0.5">
<path d="M-279.29 -278.02  L-154.27 -333.21 L-29.25 -369.26 L95.76 -391.41 L220.78 -405.75 L345.8 -418.42 L470.81 -435.53 L595.83 -463.15 L720.85 -503.32 L845.86 -550.21"/>
</g>
<g id="link-15-path" fill="none" stroke="#888888" stroke-dasharray="0" stroke-width="0.3" stroke-opacity="0.5">
<path d="M-127.64 -254.67  L-25.41 -326.42 L76.81 -373.29 L179.03 -402.08 L281.25 -420.73 L383.47 -437.2 L485.7 -459.44 L587.92 -495.35 L690.14 -547.57 L792.36 -608.54"/>
</g>
<g id="link-16-path" fill="none" stroke="#888888" stroke-dasharray="0" stroke-width="0.3" stroke-opacity="0.5">
<path d="M24.01 -231.31  L103.44 -319.63 L182.87 -377.31 L262.3 -412.75 L341.72 -435.71 L421.15 -455.98 L500.58 -483.35 L580.01 -527.55 L659.44 -591.82 L738.87 -666.86"/>
</g>
<g id="link-17-path" fill="none" stroke="#888888" stroke-dasharray="0" stroke-width="0.3" stroke-opacity="0.5">
<path d="M24.01 -231.31  L121.27 -284.15 L218.53 -318.66 L315.79 -339.86 L413.06 -353.59 L510.32 -365.72 L607.58 -382.1 L704.84 -408.54 L802.1 -446.99 L899.36 -491.89"/>
</g>
<g id="link-18-path" fill="none" stroke="#888888" stroke-dasharray="0" stroke-width="0.3" stroke-opacity="0.5">
<path d="M327.31 -184.61  L373.04 -282.39 L418.77 -346.26 L464.49 -385.5 L510.22 -410.92 L555.95 -433.37 L601.68 -463.67 L647.41 -512.61 L693.14 -583.78 L738.87 -666.86"/>
</g>
</svg>