<svg xmlns="http://www.w3.org/2000/svg" viewBox="-530 -530 1010 1060">
<rect id="zigguratkcore2-a-1-rect" style="fill:#00008B;fill-opacity:0.2" stroke="transparent" stroke-dasharray="0" stroke-width="0.5" x="-336.39" y="-102.24" width="40.86" height="61.34" />
<rect id="zigguratkcore2-a-2-rect" style="fill:#4169E1;fill-opacity:0.2" stroke="transparent" stroke-dasharray="0" stroke-width="0.5" x="-290.99" y="-97.94" width="40.86" height="57.04" />
<rect id="zigguratkcore2-a-3-rect" style="fill:#00008B;fill-opacity:0.2" stroke="transparent" stroke-dasharray="0" stroke-width="0.5" x="-245.59" y="-93.65" width="40.86" height="52.75" />
<rect id="zigguratkcore2-a-4-rect" style="fill:#4169E1;fill-opacity:0.2" stroke="transparent" stroke-dasharray="0" stroke-width="0.5" x="-200.19" y="-89.36" width="40.86" height="48.46" />
<rect id="zigguratkcore2-a-5-rect" style="fill:#00008B;fill-opacity:0.2" stroke="transparent" stroke-dasharray="0" stroke-width="0.5" x="-154.79" y="-85.06" width="40.86" height="44.16" />
<rect id="zigguratkcore2-a-6-rect" style="fill:#4169E1;fill-opacity:0.2" stroke="transparent" stroke-dasharray="0" stroke-width="0.5" x="-109.39" y="-80.77" width="40.87" height="39.87" />
<rect id="zigguratkcore2-a-7-rect" style="fill:#00008B;fill-opacity:0.2" stroke="transparent" stroke-dasharray="0" stroke-width="0.5" x="-63.98" y="-76.47" width="40.86" height="35.57" />
<rect id="zigguratkcore2-a-8-rect" style="fill:#4169E1;fill-opacity:0.2" stroke="transparent" stroke-dasharray="0" stroke-width="0.5" x="-18.58" y="-72.18" width="40.86" height="31.28" />
<rect id="zigguratkcore2-a-9-rect" style="fill:#00008B;fill-opacity:0.2" stroke="transparent" stroke-dasharray="0" stroke-width="0.5" x="26.82" y="-67.89" width="40.86" height="26.99" />
<rect id="zigguratkcore2-a-10-rect" style="fill:#4169E1;fill-opacity:0.2" stroke="transparent" stroke-dasharray="0" stroke-width="0.5" x="72.22" y="-63.59" width="40.86" height="22.69" />
<text id="zigguratkcore2-a-1-text" y="-71.57" style="text-anchor:middle;dominant-baseline:middle;font-family:Arial;font-size:18px;fill:#00008B">
<tspan x="-315.96" dy="0">22</tspan>
</text>
<text id="zigguratkcore2-a-2-text" y="-69.42" style="text-anchor:middle;dominant-baseline:middle;font-family:Arial;font-size:18px;fill:#00008B">
<tspan x="-270.56" dy="0">15</tspan>
</text>
<text id="zigguratkcore2-a-3-text" y="-67.27" style="text-anchor:middle;dominant-baseline:middle;font-family:Arial;font-size:18px;fill:#00008B">
<tspan x="-225.16" dy="0">18</tspan>
</text>
<text id="zigguratkcore2-a-4-text" y="-65.13" style="text-anchor:middle;dominant-baseline:middle;font-family:Arial;font-size:18px;fill:#00008B">
<tspan x="-179.76" dy="0">21</tspan>
</text>
<text id="zigguratkcore2-a-5-text" y="-62.98" style="text-anchor:middle;dominant-baseline:middle;font-family:Arial;font-size:18px;fill:#00008B">
<tspan x="-134.36" dy="0">1</tspan>
</text>
<text id="zigguratkcore2-a-6-text" y="-60.83" style="text-anchor:middle;dominant-baseline:middle;font-family:Arial;font-size:18px;fill:#00008B">
<tspan x="-88.96" dy="0">4</tspan>
</text>
<text id="zigguratkcore2-a-7-text" y="-58.68" style="text-anchor:middle;dominant-baseline:middle;font-family:Arial;font-size:18px;fill:#00008B">
<tspan x="-43.55" dy="0">6</tspan>
</text>
<text id="zigguratkcore2-a-8-text" y="-56.54" style="text-anchor:middle;dominant-baseline:middle;font-family:Arial;font-size:18px;fill:#00008B">
<tspan x="1.85" dy="0">11</tspan>
</text>
<text id="zigguratkcore2-a-9-text" y="-54.39" style="text-anchor:middle;dominant-baseline:middle;font-family:Arial;font-size:18px;fill:#00008B">
<tspan x="47.25" dy="0">28</tspan>
</text>
<text id="zigguratkcore2-a-10-text" y="-52.24" style="text-anchor:middle;dominant-baseline:middle;font-family:Arial;font-size:18px;fill:#00008B">
<tspan x="92.65" dy="0">27</tspan>
</text>
<rect id="zigguratkcore2-b-1-rect" style="fill:#FF0000;fill-opacity:0.2" stroke="transparent" stroke-dasharray="0" stroke-width="0.5" x="-336.39" y="40.9" width="51.08" height="61.34" />
<rect id="zigguratkcore2-b-2-rect" style="fill:#F08080;fill-opacity:0.2" stroke="transparent" stroke-dasharray="0" stroke-width="0.5" x="-279.64" y="40.9" width="51.08" height="55.97" />
<rect id="zigguratkcore2-b-3-rect" style="fill:#FF0000;fill-opacity:0.2" stroke="transparent" stroke-dasharray="0" stroke-width="0.5" x="-222.89" y="40.9" width="51.08" height="50.6" />
<rect id="zigguratkcore2-b-4-rect" style="fill:#F08080;fill-opacity:0.2" stroke="transparent" stroke-dasharray="0" stroke-width="0.5" x="-166.14" y="40.9" width="51.08" height="45.24" />
<rect id="zigguratkcore2-b-5-rect" style="fill:#FF0000;fill-opacity:0.2" stroke="transparent" stroke-dasharray="0" stroke-width="0.5" x="-109.39" y="40.9" width="51.08" height="39.87" />
<rect id="zigguratkcore2-b-6-rect" style="fill:#F08080;fill-opacity:0.2" stroke="transparent" stroke-dasharray="0" stroke-width="0.5" x="-52.63" y="40.9" width="51.07" height="34.5" />
<rect id="zigguratkcore2-b-7-rect" style="fill:#FF0000;fill-opacity:0.2" stroke="transparent" stroke-dasharray="0" stroke-width="0.5" x="4.12" y="40.9" width="51.07" height="29.13" />
<rect id="zigguratkcore2-b-8-rect" style="fill:#F08080;fill-opacity:0.2" stroke="transparent" stroke-dasharray="0" stroke-width="0.5" x="60.87" y="40.9" width="51.07" height="23.77" />
<text id="zigguratkcore2-b-1-text" y="71.57" style="text-anchor:middle;dominant-baseline:middle;font-family:Arial;font-size:18px;fill:#FF0000">
<tspan x="-310.85" dy="0">4</tspan>
</text>
<text id="zigguratkcore2-b-2-text" y="68.88" style="text-anchor:middle;dominant-baseline:middle;font-family:Arial;font-size:18px;fill:#FF0000">
<tspan x="-254.1" dy="0">9</tspan>
</text>
<text id="zigguratkcore2-b-3-text" y="66.2" style="text-anchor:middle;dominant-baseline:middle;font-family:Arial;font-size:18px;fill:#FF0000">
<tspan x="-197.35" dy="0">22</tspan>
</text>
<text id="zigguratkcore2-b-4-text" y="63.52" style="text-anchor:middle;dominant-baseline:middle;font-family:Arial;font-size:18px;fill:#FF0000">
<tspan x="-140.6" dy="0">11</tspan>
</text>
<text id="zigguratkcore2-b-5-text" y="60.83" style="text-anchor:middle;dominant-baseline:middle;font-family:Arial;font-size:18px;fill:#FF0000">
<tspan x="-83.85" dy="0">6</tspan>
</text>
<text id="zigguratkcore2-b-6-text" y="58.15" style="text-anchor:middle;dominant-baseline:middle;font-family:Arial;font-size:18px;fill:#FF0000">
<tspan x="-27.1" dy="0">5</tspan>
</text>
<text id="zigguratkcore2-b-7-text" y="55.46" style="text-anchor:middle;dominant-baseline:middle;font-family:Arial;font-size:18px;fill:#FF0000">
<tspan x="29.65" dy="0">1</tspan>
</text>
<text id="zigguratkcore2-b-8-text" y="52.78" style="text-anchor:middle;dominant-baseline:middle;font-family:Arial;font-size:18px;fill:#FF0000">
<tspan x="86.41" dy="0">14</tspan>
</text>
<rect id="zigguratkcore2-1-rect" style="fill:none;fill-opacity:0.3" stroke="#8B4C39" stroke-dasharray="1 1" stroke-width="0" x="-365.47" y="-120.33" width="488.24" height="231.62" />
<text id="zigguratkcore2-1-text" y="-4.52" style="text-anchor:middle;dominant-baseline:middle;font-family:Arial;font-size:10.5px;fill:transparent">
</text>
<text id="zigguratkcore2-1-text" y="0" transform="rotate(-90 -349.96 0)" style="text-anchor:start;dominant-baseline:middle;font-family:Arial;font-size:18px;fill:#8B4C39">
<tspan x="-349.96" dy="0">2-shell</tspan>
</text>
<rect id="zigguratedge-kcore1-a-tail-6-1-rect" style="fill:#00008B;fill-opacity:0.11" stroke="transparent" stroke-dasharray="0" stroke-width="0.5" x="228.27" y="122.85" width="12.37" height="12.37" />
<text id="zigguratedge-kcore1-a-tail-6-1-text" y="129.03" style="text-anchor:start;dominant-baseline:middle;font-family:Arial;font-size:14.4px;fill:#00008B">
<tspan x="234.46" dy="0"> 13  26</tspan>
</text>
<rect id="zigguratedge-kcore1-a-tail-11-1-rect" style="fill:#00008B;fill-opacity:0.11" stroke="transparent" stroke-dasharray="0" stroke-width="0.5" x="228.27" y="166.02" width="9.69" height="9.69" />
<text id="zigguratedge-kcore1-a-tail-11-1-text" y="170.87" style="text-anchor:middle;dominant-baseline:middle;font-family:Arial;font-size:14.4px;fill:#00008B">
<tspan x="233.12" dy="0"> 19</tspan>
</text>
<rect id="zigguratedge-kcore1-a-tail-9-1-rect" style="fill:#00008B;fill-opacity:0.11" stroke="transparent" stroke-dasharray="0" stroke-width="0.5" x="228.27" y="205.44" width="14.43" height="14.42" />
<text id="zigguratedge-kcore1-a-tail-9-1-text" y="212.65" style="text-anchor:start;dominant-baseline:middle;font-family:Arial;font-size:14.4px;fill:#00008B">
<tspan x="235.48" dy="0"> 20 31  32</tspan>
</text>
<rect id="zigguratedge-kcore1-a-tail-4-1-rect" style="fill:#00008B;fill-opacity:0.11" stroke="transparent" stroke-dasharray="0" stroke-width="0.5" x="228.27" y="251.49" width="9.69" height="9.69" />
<text id="zigguratedge-kcore1-a-tail-4-1-text" y="256.33" style="text-anchor:middle;dominant-baseline:middle;font-family:Arial;font-size:14.4px;fill:#00008B">
<tspan x="233.12" dy="0"> 5</tspan>
</text>
<rect id="zigguratedge-kcore1-b-tail-15-1-rect" style="fill:#FF0000;fill-opacity:0.11" stroke="transparent" stroke-dasharray="0" stroke-width="0.5" x="229.41" y="-206.56" width="14.42" height="14.43" />
<text id="zigguratedge-kcore1-b-tail-15-1-text" y="-199.35" style="text-anchor:start;dominant-baseline:middle;font-family:Arial;font-size:14.4px;fill:#FF0000">
<tspan x="236.62" dy="0"> 13 20  21</tspan>
</text>
<rect id="zigguratedge-kcore1-b-tail-22-1-rect" style="fill:#FF0000;fill-opacity:0.11" stroke="transparent" stroke-dasharray="0" stroke-width="0.5" x="229.41" y="-263.47" width="12.37" height="12.37" />
<text id="zigguratedge-kcore1-b-tail-22-1-text" y="-257.29" style="text-anchor:start;dominant-baseline:middle;font-family:Arial;font-size:14.4px;fill:#FF0000">
<tspan x="235.59" dy="0"> 3  16</tspan>
</text>
<rect id="zigguratedge-kcore1-a-1-1-rect" style="fill:#00008B;fill-opacity:0.2" stroke="transparent" stroke-dasharray="0" stroke-width="0.5" x="-452.72" y="175.48" width="12.93" height="12.93" />
<text id="zigguratedge-kcore1-a-1-1-text" y="181.94" style="text-anchor:middle;dominant-baseline:middle;font-family:Arial;font-size:14.4px;fill:#00008B">
<tspan x="-446.25" dy="0"> 30</tspan>
</text>
<rect id="zigguratedge-kcore1-a-2-1-rect" style="fill:#00008B;fill-opacity:0.2" stroke="transparent" stroke-dasharray="0" stroke-width="0.5" x="-362.24" y="280.17" width="12.92" height="12.93" />
<text id="zigguratedge-kcore1-a-2-1-text" y="286.64" style="text-anchor:middle;dominant-baseline:middle;font-family:Arial;font-size:14.4px;fill:#00008B">
<tspan x="-355.78" dy="0"> 25</tspan>
</text>
<rect id="zigguratedge-kcore1-a-3-1-rect" style="fill:#00008B;fill-opacity:0.2" stroke="transparent" stroke-dasharray="0" stroke-width="0.5" x="-297.61" y="274.36" width="12.92" height="12.92" />
<text id="zigguratedge-kcore1-a-3-1-text" y="280.82" style="text-anchor:middle;dominant-baseline:middle;font-family:Arial;font-size:14.4px;fill:#00008B">
<tspan x="-291.15" dy="0"> 16</tspan>
</text>
<rect id="zigguratedge-kcore1-a-4-1-rect" style="fill:#00008B;fill-opacity:0.2" stroke="transparent" stroke-dasharray="0" stroke-width="0.5" x="-245.91" y="307.32" width="12.92" height="12.92" />
<text id="zigguratedge-kcore1-a-4-1-text" y="313.78" style="text-anchor:middle;dominant-baseline:middle;font-family:Arial;font-size:14.4px;fill:#00008B">
<tspan x="-239.45" dy="0"> 10</tspan>
</text>
<rect id="zigguratedge-kcore1-b-5-1-rect" style="fill:#FF0000;fill-opacity:0.2" stroke="transparent" stroke-dasharray="0" stroke-width="0.5" x="-452.72" y="-201.33" width="12.93" height="12.92" />
<text id="zigguratedge-kcore1-b-5-1-text" y="-194.87" style="text-anchor:middle;dominant-baseline:middle;font-family:Arial;font-size:14.4px;fill:#FF0000">
<tspan x="-446.25" dy="0"> 8</tspan>
</text>
<rect id="zigguratedge-kcore1-b-6-1-rect" style="fill:#FF0000;fill-opacity:0.2" stroke="transparent" stroke-dasharray="0" stroke-width="0.5" x="-362.24" y="-360.31" width="12.92" height="12.92" />
<text id="zigguratedge-kcore1-b-6-1-text" y="-353.85" style="text-anchor:middle;dominant-baseline:middle;font-family:Arial;font-size:14.4px;fill:#FF0000">
<tspan x="-355.78" dy="0"> 28</tspan>
</text>
<rect id="zigguratedge-kcore1-b-7-1-rect" style="fill:#FF0000;fill-opacity:0.2" stroke="transparent" stroke-dasharray="0" stroke-width="0.5" x="-323.47" y="-432.05" width="12.93" height="12.93" />
<text id="zigguratedge-kcore1-b-7-1-text" y="-425.58" style="text-anchor:middle;dominant-baseline:middle;font-family:Arial;font-size:14.4px;fill:#FF0000">
<tspan x="-317" dy="0"> 24</tspan>
</text>
<rect id="zigguratedge-kcore1-b-8-1-rect" style="fill:#FF0000;fill-opacity:0.2" stroke="transparent" stroke-dasharray="0" stroke-width="0.5" x="-245.91" y="-387.45" width="12.92" height="12.92" />
<text id="zigguratedge-kcore1-b-8-1-text" y="-380.99" style="text-anchor:middle;dominant-baseline:middle;font-family:Arial;font-size:14.4px;fill:#FF0000">
<tspan x="-239.45" dy="0"> 18</tspan>
</text>
<rect id="zigguratedge-kcore1-b-9-1-rect" style="fill:#FF0000;fill-opacity:0.2" stroke="transparent" stroke-dasharray="0" stroke-width="0.5" x="-512.17" y="194.87" width="12.92" height="12.92" />
<text id="zigguratedge-kcore1-b-9-1-text" y="201.33" style="text-anchor:middle;dominant-baseline:middle;font-family:Arial;font-size:14.4px;fill:#FF0000">
<tspan x="-505.71" dy="0"> 17</tspan>
</text>
<rect id="zigguratedge-kcore1-b-10-1-rect" style="fill:#FF0000;fill-opacity:0.2" stroke="transparent" stroke-dasharray="0" stroke-width="0.5" x="-512.59" y="228.89" width="12.92" height="12.93" />
<text id="zigguratedge-kcore1-b-10-1-text" y="235.36" style="text-anchor:middle;dominant-baseline:middle;font-family:Arial;font-size:14.4px;fill:#FF0000">
<tspan x="-506.13" dy="0"> 10</tspan>
</text>
<rect id="zigguratedge-kcore1-b-11-1-rect" style="fill:#FF0000;fill-opacity:0.2" stroke="transparent" stroke-dasharray="0" stroke-width="0.5" x="-512.99" y="263.72" width="12.92" height="12.92" />
<text id="zigguratedge-kcore1-b-11-1-text" y="270.18" style="text-anchor:middle;dominant-baseline:middle;font-family:Arial;font-size:14.4px;fill:#FF0000">
<tspan x="-506.53" dy="0"> 2</tspan>
</text>
<rect id="zigguratedge-kcore1-b-12-1-rect" style="fill:#FF0000;fill-opacity:0.2" stroke="transparent" stroke-dasharray="0" stroke-width="0.5" x="-422.9" y="299.56" width="12.9299999999999" height="12.93" />
<text id="zigguratedge-kcore1-b-12-1-text" y="306.02" style="text-anchor:middle;dominant-baseline:middle;font-family:Arial;font-size:14.4px;fill:#FF0000">
<tspan x="-416.43" dy="0"> 25</tspan>
</text>
<rect id="zigguratedge-kcore1-b-13-1-rect" style="fill:#FF0000;fill-opacity:0.2" stroke="transparent" stroke-dasharray="0" stroke-width="0.5" x="-358.64" y="293.75" width="12.93" height="12.92" />
<text id="zigguratedge-kcore1-b-13-1-text" y="300.21" style="text-anchor:middle;dominant-baseline:middle;font-family:Arial;font-size:14.4px;fill:#FF0000">
<tspan x="-352.17" dy="0"> 7</tspan>
</text>
<rect id="zigguratedge-kcore1-b-14-1-rect" style="fill:#FF0000;fill-opacity:0.2" stroke="transparent" stroke-dasharray="0" stroke-width="0.5" x="-307.29" y="326.71" width="12.93" height="12.92" />
<text id="zigguratedge-kcore1-b-14-1-text" y="333.17" style="text-anchor:middle;dominant-baseline:middle;font-family:Arial;font-size:14.4px;fill:#FF0000">
<tspan x="-300.82" dy="0"> 29</tspan>
</text>
<rect id="zigguratedge-kcore1-a-15-1-rect" style="fill:#00008B;fill-opacity:0.2" stroke="transparent" stroke-dasharray="0" stroke-width="0.5" x="-514.43" y="-220.72" width="12.9299999999999" height="12.93" />
<text id="zigguratedge-kcore1-a-15-1-text" y="-214.26" style="text-anchor:middle;dominant-baseline:middle;font-family:Arial;font-size:14.4px;fill:#00008B">
<tspan x="-507.97" dy="0"> 17</tspan>
</text>
<rect id="zigguratedge-kcore1-a-16-1-rect" style="fill:#00008B;fill-opacity:0.2" stroke="transparent" stroke-dasharray="0" stroke-width="0.5" x="-424.28" y="-379.7" width="12.92" height="12.93" />
<text id="zigguratedge-kcore1-a-16-1-text" y="-373.24" style="text-anchor:middle;dominant-baseline:middle;font-family:Arial;font-size:14.4px;fill:#00008B">
<tspan x="-417.82" dy="0"> 14</tspan>
</text>
<rect id="zigguratedge-kcore1-a-17-1-rect" style="fill:#00008B;fill-opacity:0.2" stroke="transparent" stroke-dasharray="0" stroke-width="0.5" x="-461.67" y="299.56" width="12.92" height="12.93" />
<text id="zigguratedge-kcore1-a-17-1-text" y="306.02" style="text-anchor:middle;dominant-baseline:middle;font-family:Arial;font-size:14.4px;fill:#00008B">
<tspan x="-455.21" dy="0"> 9</tspan>
</text>
<rect id="zigguratedge-kcore1-a-18-1-rect" style="fill:#00008B;fill-opacity:0.2" stroke="transparent" stroke-dasharray="0" stroke-width="0.5" x="-461.67" y="325.41" width="12.92" height="12.9299999999999" />
<text id="zigguratedge-kcore1-a-18-1-text" y="331.88" style="text-anchor:middle;dominant-baseline:middle;font-family:Arial;font-size:14.4px;fill:#00008B">
<tspan x="-455.21" dy="0"> 2</tspan>
</text>
<rect id="zigguratedge-kcore1-a-19-1-rect" style="fill:#00008B;fill-opacity:0.2" stroke="transparent" stroke-dasharray="0" stroke-width="0.5" x="-386.43" y="-451.43" width="12.92" height="12.92" />
<text id="zigguratedge-kcore1-a-19-1-text" y="-444.97" style="text-anchor:middle;dominant-baseline:middle;font-family:Arial;font-size:14.4px;fill:#00008B">
<tspan x="-379.97" dy="0"> 24</tspan>
</text>
<rect id="zigguratedge-kcore1-a-20-1-rect" style="fill:#00008B;fill-opacity:0.2" stroke="transparent" stroke-dasharray="0" stroke-width="0.5" x="-386.73" y="-488.84" width="12.93" height="12.92" />
<text id="zigguratedge-kcore1-a-20-1-text" y="-482.38" style="text-anchor:middle;dominant-baseline:middle;font-family:Arial;font-size:14.4px;fill:#00008B">
<tspan x="-380.26" dy="0"> 3</tspan>
</text>
<rect id="zigguratedge-kcore1-a-21-1-rect" style="fill:#00008B;fill-opacity:0.2" stroke="transparent" stroke-dasharray="0" stroke-width="0.5" x="-309.46" y="-406.84" width="12.92" height="12.92" />
<text id="zigguratedge-kcore1-a-21-1-text" y="-400.38" style="text-anchor:middle;dominant-baseline:middle;font-family:Arial;font-size:14.4px;fill:#00008B">
<tspan x="-303" dy="0"> 23</tspan>
</text>
<rect id="zigguratedge-kcore1-b-22-1-rect" style="fill:#FF0000;fill-opacity:0.2" stroke="transparent" stroke-dasharray="0" stroke-width="0.5" x="-425.5" y="-488.84" width="12.92" height="12.92" />
<text id="zigguratedge-kcore1-b-22-1-text" y="-482.38" style="text-anchor:middle;dominant-baseline:middle;font-family:Arial;font-size:14.4px;fill:#FF0000">
<tspan x="-419.04" dy="0"> 27</tspan>
</text>
<rect id="zigguratedge-kcore1-b-23-1-rect" style="fill:#FF0000;fill-opacity:0.2" stroke="transparent" stroke-dasharray="0" stroke-width="0.5" x="-425.5" y="-514.69" width="12.92" height="12.9200000000001" />
<text id="zigguratedge-kcore1-b-23-1-text" y="-508.23" style="text-anchor:middle;dominant-baseline:middle;font-family:Arial;font-size:14.4px;fill:#FF0000">
<tspan x="-419.04" dy="0"> 26</tspan>
</text>
<rect id="zigguratedge-kcore1-a-out-1-rect" style="fill:#00008B;fill-opacity:0.2" stroke="transparent" stroke-dasharray="0" stroke-width="0.5" x="-12.93" y="371.94" width="12.93" height="12.93" />
<rect id="zigguratedge-kcore1-a-out-2-rect" style="fill:#00008B;fill-opacity:0.2" stroke="transparent" stroke-dasharray="0" stroke-width="0.5" x="19.39" y="371.94" width="12.92" height="12.93" />
<rect id="zigguratedge-kcore1-a-out-3-rect" style="fill:#00008B;fill-opacity:0.2" stroke="transparent" stroke-dasharray="0" stroke-width="0.5" x="51.7" y="371.94" width="12.93" height="12.93" />
<rect id="zigguratedge-kcore1-a-out-4-rect" style="fill:#00008B;fill-opacity:0.2" stroke="transparent" stroke-dasharray="0" stroke-width="0.5" x="84.01" y="371.94" width="12.93" height="12.93" />
<text id="zigguratedge-kcore1-a-out-1-text" y="378.41" style="text-anchor:middle;dominant-baseline:middle;font-family:Arial;font-size:14.4px;fill:#00008B">
<tspan x="-6.46" dy="0">7</tspan>
</text>
<text id="zigguratedge-kcore1-a-out-2-text" y="378.41" style="text-anchor:middle;dominant-baseline:middle;font-family:Arial;font-size:14.4px;fill:#00008B">
<tspan x="25.85" dy="0">8</tspan>
</text>
<text id="zigguratedge-kcore1-a-out-3-text" y="378.41" style="text-anchor:middle;dominant-baseline:middle;font-family:Arial;font-size:14.4px;fill:#00008B">
<tspan x="58.16" dy="0">12</tspan>
</text>
<text id="zigguratedge-kcore1-a-out-4-text" y="378.41" style="text-anchor:middle;dominant-baseline:middle;font-family:Arial;font-size:14.4px;fill:#00008B">
<tspan x="90.48" dy="0">29</tspan>
</text>
<rect id="zigguratedge-kcore1-b-out-1-rect" style="fill:#FF0000;fill-opacity:0.2" stroke="transparent" stroke-dasharray="0" stroke-width="0.5" x="-12.93" y="410.72" width="12.93" height="12.92" />
<rect id="zigguratedge-kcore1-b-out-2-rect" style="fill:#FF0000;fill-opacity:0.2" stroke="transparent" stroke-dasharray="0" stroke-width="0.5" x="19.39" y="410.72" width="12.92" height="12.92" />
<rect id="zigguratedge-kcore1-b-out-3-rect" style="fill:#FF0000;fill-opacity:0.2" stroke="transparent" stroke-dasharray="0" stroke-width="0.5" x="51.7" y="410.72" width="12.93" height="12.92" />
<rect id="zigguratedge-kcore1-b-out-4-rect" style="fill:#FF0000;fill-opacity:0.2" stroke="transparent" stroke-dasharray="0" stroke-width="0.5" x="84.01" y="410.72" width="12.93" height="12.92" />
<text id="zigguratedge-kcore1-b-out-1-text" y="417.18" style="text-anchor:middle;dominant-baseline:middle;font-family:Arial;font-size:14.4px;fill:#FF0000">
<tspan x="-6.46" dy="0">12</tspan>
</text>
<text id="zigguratedge-kcore1-b-out-2-text" y="417.18" style="text-anchor:middle;dominant-baseline:middle;font-family:Arial;font-size:14.4px;fill:#FF0000">
<tspan x="25.85" dy="0">15</tspan>
</text>
<text id="zigguratedge-kcore1-b-out-3-text" y="417.18" style="text-anchor:middle;dominant-baseline:middle;font-family:Arial;font-size:14.4px;fill:#FF0000">
<tspan x="58.16" dy="0">19</tspan>
</text>
<text id="zigguratedge-kcore1-b-out-4-text" y="417.18" style="text-anchor:middle;dominant-baseline:middle;font-family:Arial;font-size:14.4px;fill:#FF0000">
<tspan x="90.48" dy="0">23</tspan>
</text>
<text id="zigguratcorelabel-1-text" y="359.02" style="text-anchor:start;dominant-baseline:middle;font-family:Arial;font-size:18px;fill:grey50">
<tspan x="-21.95" dy="0">Outside the giant component</tspan>
</text>
<rect id="zigguratannotation-1-rect" style="fill:none;fill-opacity:0.5" stroke="transparent" stroke-dasharray="0" stroke-width="0.5" x="470.48" y="-0.03" width="0.0299999999999727" height="0.03" />
<text id="zigguratannotation-1-text" y="-0.02" style="text-anchor:middle;dominant-baseline:middle;font-family:Arial;font-size:15px;fill:transparent">
</text>
<text id="zigguratannotation-1-text" y="0" style="text-anchor:middle;dominant-baseline:middle;font-family:Arial;font-size:3px;fill:red">
<tspan x="470.48" dy="0">.</tspan>
</text>
<text id="zigguratannotation-1-text" y="0" style="text-anchor:middle;dominant-baseline:middle;font-family:Arial;font-size:3px;fill:red">
<tspan x="-514.76" dy="0">.</tspan>
</text>
<text id="zigguratannotation-1-text" y="0" style="text-anchor:middle;dominant-baseline:middle;font-family:Arial;font-size:3px;fill:red">
<tspan x="-514.76" dy="0">.</tspan>
</text>
<g id="zigguratlink-1-segment" fill="none" stroke="#888888" stroke-dasharray="0" stroke-width="0.3" stroke-opacity="0.5">
<path d="M-315.96 -40.9 L-310.85 40.9"/>
</g>
<g id="zigguratlink-2-segment" fill="none" stroke="#888888" stroke-dasharray="0" stroke-width="0.3" stroke-opacity="0.5">
<path d="M-315.96 -40.9 L-254.1 40.9"/>
</g>
<g id="zigguratlink-3-segment" fill="none" stroke="#888888" stroke-dasharray="0" stroke-width="0.3" stroke-opacity="0.5">
<path d="M-315.96 -40.9 L-197.35 40.9"/>
</g>
<g id="zigguratlink-4-segment" fill="none" stroke="#888888" stroke-dasharray="0" stroke-width="0.3" stroke-opacity="0.5">
<path d="M-315.96 -40.9 L-83.85 40.9"/>
</g>
<g id="zigguratlink-5-segment" fill="none" stroke="#888888" stroke-dasharray="0" stroke-width="0.3" stroke-opacity="0.5">
<path d="M-315.96 -40.9 L29.65 40.9"/>
</g>
<g id="zigguratlink-6-segment" fill="none" stroke="#888888" stroke-dasharray="0" stroke-width="0.3" stroke-opacity="0.5">
<path d="M-270.56 -40.9 L-310.85 40.9"/>
</g>
<g id="zigguratlink-7-segment" fill="none" stroke="#888888" stroke-dasharray="0" stroke-width="0.3" stroke-opacity="0.5">
<path d="M-270.56 -40.9 L-254.1 40.9"/>
</g>
<g id="zigguratlink-8-segment" fill="none" stroke="#888888" stroke-dasharray="0" stroke-width="0.3" stroke-opacity="0.5">
<path d="M-270.56 -40.9 L-197.35 40.9"/>
</g>
<g id="zigguratlink-9-segment" fill="none" stroke="#888888" stroke-dasharray="0" stroke-width="0.3" stroke-opacity="0.5">
<path d="M-270.56 -40.9 L-140.6 40.9"/>
</g>
<g id="zigguratlink-10-segment" fill="none" stroke="#888888" stroke-dasharray="0" stroke-width="0.3" stroke-opacity="0.5">
<path d="M-225.16 -40.9 L-254.1 40.9"/>
</g>
<g id="zigguratlink-11-segment" fill="none" stroke="#888888" stroke-dasharray="0" stroke-width="0.3" stroke-opacity="0.5">
<path d="M-225.16 -40.9 L-197.35 40.9"/>
</g>
<g id="zigguratlink-12-segment" fill="none" stroke="#888888" stroke-dasharray="0" stroke-width="0.3" stroke-opacity="0.5">
<path d="M-225.16 -40.9 L86.41 40.9"/>
</g>
<g id="zigguratlink-13-segment" fill="none" stroke="#888888" stroke-dasharray="0" stroke-width="0.3" stroke-opacity="0.5">
<path d="M-179.76 -40.9 L-310.85 40.9"/>
</g>
<g id="zigguratlink-14-segment" fill="none" stroke="#888888" stroke-dasharray="0" stroke-width="0.3" stroke-opacity="0.5">
<path d="M-179.76 -40.9 L-254.1 40.9"/>
</g>
<g id="zigguratlink-15-segment" fill="none" stroke="#888888" stroke-dasharray="0" stroke-width="0.3" stroke-opacity="0.5">
<path d="M-179.76 -40.9 L-140.6 40.9"/>
</g>
<g id="zigguratlink-16-segment" fill="none" stroke="#888888" stroke-dasharray="0" stroke-width="0.3" stroke-opacity="0.5">
<path d="M-134.36 -40.9 L-197.35 40.9"/>
</g>
<g id="zigguratlink-17-segment" fill="none" stroke="#888888" stroke-dasharray="0" stroke-width="0.3" stroke-opacity="0.5">
<path d="M-134.36 -40.9 L-27.1 40.9"/>
</g>
<g id="zigguratlink-18-segment" fill="none" stroke="#888888" stroke-dasharray="0" stroke-width="0.3" stroke-opacity="0.5">
<path d="M-88.96 -40.9 L-310.85 40.9"/>
</g>
<g id="zigguratlink-19-segment" fill="none" stroke="#888888" stroke-dasharray="0" stroke-width="0.3" stroke-opacity="0.5">
<path d="M-88.96 -40.9 L-140.6 40.9"/>
</g>
<g id="zigguratlink-20-segment" fill="none" stroke="#888888" stroke-dasharray="0" stroke-width="0.3" stroke-opacity="0.5">
<path d="M-43.55 -40.9 L-310.85 40.9"/>
</g>
<g id="zigguratlink-21-segment" fill="none" stroke="#888888" stroke-dasharray="0" stroke-width="0.3" stroke-opacity="0.5">
<path d="M-43.55 -40.9 L-27.1 40.9"/>
</g>
<g id="zigguratlink-22-segment" fill="none" stroke="#888888" stroke-dasharray="0" stroke-width="0.3" stroke-opacity="0.5">
<path d="M1.85 -40.9 L-83.85 40.9"/>
</g>
<g id="zigguratlink-23-segment" fill="none" stroke="#888888" stroke-dasharray="0" stroke-width="0.3" stroke-opacity="0.5">
<path d="M1.85 -40.9 L29.65 40.9"/>
</g>
<g id="zigguratlink-24-segment" fill="none" stroke="#888888" stroke-dasharray="0" stroke-width="0.3" stroke-opacity="0.5">
<path d="M47.25 -40.9 L-83.85 40.9"/>
</g>
<g id="zigguratlink-25-segment" fill="none" stroke="#888888" stroke-dasharray="0" stroke-width="0.3" stroke-opacity="0.5">
<path d="M47.25 -40.9 L86.41 40.9"/>
</g>
<g id="zigguratlink-26-segment" fill="none" stroke="#888888" stroke-dasharray="0" stroke-width="0.3" stroke-opacity="0.5">
<path d="M92.65 -40.9 L-140.6 40.9"/>
</g>
<g id="zigguratlink-27-segment" fill="none" stroke="#888888" stroke-dasharray="0" stroke-width="0.3" stroke-opacity="0.5">
<path d="M92.65 -40.9 L-27.1 40.9"/>
</g>
<g id="zigguratlink-28-segment" fill="none" stroke="#888888" stroke-dasharray="0" stroke-width="0.3" stroke-opacity="0.5">
<path d="M-6.46 384.87 L25.85 410.72"/>
</g>
<g id="zigguratlink-29-segment" fill="none" stroke="#888888" stroke-dasharray="0" stroke-width="0.3" stroke-opacity="0.5">
<path d="M25.85 384.87 L-6.46 410.72"/>
</g>
<g id="zigguratlink-30-segment" fill="none" stroke="#888888" stroke-dasharray="0" stroke-width="0.3" stroke-opacity="0.5">
<path d="M58.16 384.87 L90.48 410.72"/>
</g>
<g id="zigguratlink-31-segment" fill="none" stroke="#888888" stroke-dasharray="0" stroke-width="0.3" stroke-opacity="0.5">
<path d="M90.48 384.87 L58.16 410.72"/>
</g>
<g id="zigguratlink-1-path" fill="none" stroke="#888888" stroke-dasharray="0" stroke-width="0.3" stroke-opacity="0.5">
<path d="M-58.31 80.77  L-26.47 81.39 L5.37 83.79 L37.22 87.67 L69.06 92.73 L100.9 98.8 L132.74 105.66 L164.59 113.12 L196.43 120.98 L228.27 129.03"/>
</g>
<g id="zigguratlink-2-path" fill="none" stroke="#888888" stroke-dasharray="0" stroke-width="0.3" stroke-opacity="0.5">
<path d="M-115.06 86.14  L-76.91 87.22 L-38.76 91.45 L-0.62 98.25 L37.53 107.14 L75.68 117.79 L113.83 129.83 L151.97 142.93 L190.12 156.72 L228.27 170.87"/>
</g>
<g id="zigguratlink-3-path" fill="none" stroke="#888888" stroke-dasharray="0" stroke-width="0.3" stroke-opacity="0.5">
<path d="M-228.56 96.87  L-177.8 98.35 L-127.04 104.13 L-76.29 113.42 L-25.53 125.57 L25.23 140.12 L75.99 156.58 L126.75 174.47 L177.51 193.32 L228.27 212.65"/>
</g>
<g id="zigguratlink-4-path" fill="none" stroke="#888888" stroke-dasharray="0" stroke-width="0.3" stroke-opacity="0.5">
<path d="M-285.31 102.24  L-228.25 104.21 L-171.18 111.9 L-114.12 124.26 L-57.05 140.44 L0.01 159.8 L57.08 181.71 L114.14 205.52 L171.21 230.61 L228.27 256.33"/>
</g>
<g id="zigguratlink-5-path" fill="none" stroke="#888888" stroke-dasharray="0" stroke-width="0.3" stroke-opacity="0.5">
<path d="M-250.13 -97.94  L-196.85 -99.24 L-143.57 -104.3 L-90.28 -112.44 L-37 -123.08 L16.28 -135.82 L69.56 -150.24 L122.84 -165.91 L176.12 -182.42 L229.41 -199.35"/>
</g>
<g id="zigguratlink-6-path" fill="none" stroke="#888888" stroke-dasharray="0" stroke-width="0.3" stroke-opacity="0.5">
<path d="M-295.53 -102.24  L-237.2 -104.22 L-178.88 -111.96 L-120.55 -124.4 L-62.23 -140.68 L-3.9 -160.16 L54.43 -182.2 L112.75 -206.16 L171.08 -231.4 L229.41 -257.29"/>
</g>
<g id="zigguratlink-7-path" fill="none" stroke="#888888" stroke-dasharray="0" stroke-width="0.3" stroke-opacity="0.5">
<path d="M-439.79 175.48  L-406.55 168.55 L-373.3 161.39 L-340.06 153.78 L-306.82 145.48 L-273.57 136.28 L-240.33 125.95 L-207.09 114.25 L-173.84 100.96 L-140.6 86.14"/>
</g>
<g id="zigguratlink-8-path" fill="none" stroke="#888888" stroke-dasharray="0" stroke-width="0.3" stroke-opacity="0.5">
<path d="M-349.32 280.17  L-326.12 265.12 L-302.93 249.57 L-279.74 233.04 L-256.55 215.03 L-233.36 195.04 L-210.17 172.6 L-186.98 147.19 L-163.79 118.34 L-140.6 86.14"/>
</g>
<g id="zigguratlink-9-path" fill="none" stroke="#888888" stroke-dasharray="0" stroke-width="0.3" stroke-opacity="0.5">
<path d="M-284.69 274.36  L-274.99 260.17 L-265.28 245.52 L-255.58 229.94 L-245.87 212.97 L-236.17 194.14 L-226.46 172.98 L-216.76 149.04 L-207.05 121.85 L-197.35 91.5"/>
</g>
<g id="zigguratlink-10-path" fill="none" stroke="#888888" stroke-dasharray="0" stroke-width="0.3" stroke-opacity="0.5">
<path d="M-232.99 307.32  L-216.42 289.74 L-199.85 271.59 L-183.28 252.29 L-166.7 231.26 L-150.13 207.92 L-133.56 181.72 L-116.99 152.05 L-100.42 118.36 L-83.85 80.77"/>
</g>
<g id="zigguratlink-11-path" fill="none" stroke="#888888" stroke-dasharray="0" stroke-width="0.3" stroke-opacity="0.5">
<path d="M-439.79 -194.87  L-415.94 -187.02 L-392.1 -178.91 L-368.25 -170.28 L-344.4 -160.89 L-320.55 -150.46 L-296.7 -138.75 L-272.85 -125.5 L-249.01 -110.45 L-225.16 -93.65"/>
</g>
<g id="zigguratlink-12-path" fill="none" stroke="#888888" stroke-dasharray="0" stroke-width="0.3" stroke-opacity="0.5">
<path d="M-349.32 -353.85  L-335.52 -333.66 L-321.73 -312.81 L-307.93 -290.64 L-294.13 -266.49 L-280.34 -239.69 L-266.54 -209.59 L-252.75 -175.52 L-238.95 -136.83 L-225.16 -93.65"/>
</g>
<g id="zigguratlink-13-path" fill="none" stroke="#888888" stroke-dasharray="0" stroke-width="0.3" stroke-opacity="0.5">
<path d="M-310.54 -425.58  L-301.05 -399.83 L-291.57 -373.23 L-282.08 -344.95 L-272.59 -314.14 L-263.11 -279.96 L-253.62 -241.56 L-244.13 -198.1 L-234.65 -148.73 L-225.16 -93.65"/>
</g>
<g id="zigguratlink-14-path" fill="none" stroke="#888888" stroke-dasharray="0" stroke-width="0.3" stroke-opacity="0.5">
<path d="M-270.56 -97.94  L-266.38 -144.91 L-262.21 -187.01 L-258.04 -224.07 L-253.86 -256.81 L-249.69 -285.96 L-245.51 -312.24 L-241.34 -336.35 L-237.16 -359.03 L-232.99 -380.99"/>
</g>
<g id="zigguratlink-15-path" fill="none" stroke="#888888" stroke-dasharray="0" stroke-width="0.3" stroke-opacity="0.5">
<path d="M-499.25 201.33  L-494.08 199.83 L-488.91 198.27 L-483.74 196.62 L-478.57 194.82 L-473.4 192.83 L-468.23 190.58 L-463.06 188.04 L-457.89 185.16 L-452.72 181.94"/>
</g>
<g id="zigguratlink-16-path" fill="none" stroke="#888888" stroke-dasharray="0" stroke-width="0.3" stroke-opacity="0.5">
<path d="M-499.67 235.36  L-494.45 231.21 L-489.23 226.93 L-484.02 222.38 L-478.8 217.42 L-473.58 211.92 L-468.37 205.74 L-463.15 198.75 L-457.93 190.81 L-452.72 181.94"/>
</g>
<g id="zigguratlink-17-path" fill="none" stroke="#888888" stroke-dasharray="0" stroke-width="0.3" stroke-opacity="0.5">
<path d="M-500.07 270.18  L-494.81 263.33 L-489.54 256.26 L-484.28 248.75 L-479.02 240.55 L-473.76 231.47 L-468.5 221.26 L-463.24 209.71 L-457.98 196.59 L-452.72 181.94"/>
</g>
<g id="zigguratlink-18-path" fill="none" stroke="#888888" stroke-dasharray="0" stroke-width="0.3" stroke-opacity="0.5">
<path d="M-409.97 306.02  L-404.67 304.52 L-399.36 302.97 L-394.06 301.32 L-388.76 299.52 L-383.45 297.52 L-378.15 295.28 L-372.85 292.74 L-367.54 289.85 L-362.24 286.64"/>
</g>
<g id="zigguratlink-19-path" fill="none" stroke="#888888" stroke-dasharray="0" stroke-width="0.3" stroke-opacity="0.5">
<path d="M-345.71 300.21  L-340.37 298.7 L-335.02 297.15 L-329.68 295.5 L-324.33 293.7 L-318.99 291.7 L-313.65 289.46 L-308.3 286.92 L-302.96 284.04 L-297.61 280.82"/>
</g>
<g id="zigguratlink-20-path" fill="none" stroke="#888888" stroke-dasharray="0" stroke-width="0.3" stroke-opacity="0.5">
<path d="M-294.36 333.17  L-288.98 331.66 L-283.6 330.11 L-278.21 328.46 L-272.83 326.66 L-267.45 324.66 L-262.06 322.42 L-256.68 319.88 L-251.3 317 L-245.91 313.78"/>
</g>
<g id="zigguratlink-21-path" fill="none" stroke="#888888" stroke-dasharray="0" stroke-width="0.3" stroke-opacity="0.5">
<path d="M-501.5 -214.26  L-496.08 -212.75 L-490.66 -211.2 L-485.24 -209.55 L-479.82 -207.75 L-474.4 -205.75 L-468.98 -203.51 L-463.56 -200.97 L-458.14 -198.09 L-452.72 -194.87"/>
</g>
<g id="zigguratlink-22-path" fill="none" stroke="#888888" stroke-dasharray="0" stroke-width="0.3" stroke-opacity="0.5">
<path d="M-411.36 -373.24  L-405.9 -371.73 L-400.44 -370.18 L-394.98 -368.53 L-389.53 -366.73 L-384.07 -364.73 L-378.61 -362.49 L-373.16 -359.95 L-367.7 -357.07 L-362.24 -353.85"/>
</g>
<g id="zigguratlink-23-path" fill="none" stroke="#888888" stroke-dasharray="0" stroke-width="0.3" stroke-opacity="0.5">
<path d="M-448.75 306.02  L-445.87 306.02 L-443 306.02 L-440.13 306.02 L-437.26 306.02 L-434.39 306.02 L-431.51 306.02 L-428.64 306.02 L-425.77 306.02 L-422.9 306.02"/>
</g>
<g id="zigguratlink-24-path" fill="none" stroke="#888888" stroke-dasharray="0" stroke-width="0.3" stroke-opacity="0.5">
<path d="M-448.75 331.88  L-445.87 329.87 L-443 327.8 L-440.13 325.6 L-437.26 323.2 L-434.39 320.53 L-431.51 317.54 L-428.64 314.16 L-425.77 310.31 L-422.9 306.02"/>
</g>
<g id="zigguratlink-25-path" fill="none" stroke="#888888" stroke-dasharray="0" stroke-width="0.3" stroke-opacity="0.5">
<path d="M-373.51 -444.97  L-367.95 -443.47 L-362.39 -441.91 L-356.83 -440.26 L-351.27 -438.46 L-345.71 -436.46 L-340.15 -434.22 L-334.59 -431.68 L-329.03 -428.8 L-323.47 -425.58"/>
</g>
<g id="zigguratlink-26-path" fill="none" stroke="#888888" stroke-dasharray="0" stroke-width="0.3" stroke-opacity="0.5">
<path d="M-373.8 -482.38  L-368.21 -477.97 L-362.62 -473.42 L-357.02 -468.58 L-351.43 -463.31 L-345.84 -457.46 L-340.24 -450.89 L-334.65 -443.45 L-329.06 -435.01 L-323.47 -425.58"/>
</g>
<g id="zigguratlink-27-path" fill="none" stroke="#888888" stroke-dasharray="0" stroke-width="0.3" stroke-opacity="0.5">
<path d="M-296.54 -400.38  L-290.91 -398.87 L-285.29 -397.32 L-279.66 -395.67 L-274.04 -393.87 L-268.41 -391.87 L-262.79 -389.63 L-257.16 -387.09 L-251.54 -384.21 L-245.91 -380.99"/>
</g>
<g id="zigguratlink-28-path" fill="none" stroke="#888888" stroke-dasharray="0" stroke-width="0.3" stroke-opacity="0.5">
<path d="M-412.58 -482.38  L-409.7 -482.38 L-406.83 -482.38 L-403.96 -482.38 L-401.09 -482.38 L-398.22 -482.38 L-395.34 -482.38 L-392.47 -482.38 L-389.6 -482.38 L-386.73 -482.38"/>
</g>
<g id="zigguratlink-29-path" fill="none" stroke="#888888" stroke-dasharray="0" stroke-width="0.3" stroke-opacity="0.5">
<path d="M-412.58 -508.23  L-409.7 -506.23 L-406.83 -504.16 L-403.96 -501.95 L-401.09 -499.55 L-398.22 -496.89 L-395.34 -493.9 L-392.47 -490.52 L-389.6 -486.67 L-386.73 -482.38"/>
</g>
</svg>