<svg xmlns="http://www.w3.org/2000/svg" viewBox="-940 -360 1680 997.5">
<rect id="kcore3-a-1-rect" style="fill:#00008B;fill-opacity:0.2" stroke="transparent" stroke-dasharray="0" stroke-width="0.5" x="-240.11" y="-111.21" width="40.44" height="66.73" />
<rect id="kcore3-a-2-rect" style="fill:#4169E1;fill-opacity:0.2" stroke="transparent" stroke-dasharray="0" stroke-width="0.5" x="-195.18" y="-106.02" width="40.44" height="61.54" />
<rect id="kcore3-a-3-rect" style="fill:#00008B;fill-opacity:0.2" stroke="transparent" stroke-dasharray="0" stroke-width="0.5" x="-150.24" y="-100.83" width="40.44" height="56.35" />
<rect id="kcore3-a-4-rect" style="fill:#4169E1;fill-opacity:0.2" stroke="transparent" stroke-dasharray="0" stroke-width="0.5" x="-105.31" y="-95.64" width="40.44" height="51.16" />
<rect id="kcore3-a-5-rect" style="fill:#00008B;fill-opacity:0.2" stroke="transparent" stroke-dasharray="0" stroke-width="0.5" x="-60.38" y="-90.45" width="40.44" height="45.97" />
<rect id="kcore3-a-6-rect" style="fill:#4169E1;fill-opacity:0.2" stroke="transparent" stroke-dasharray="0" stroke-width="0.5" x="-15.45" y="-85.26" width="40.44" height="40.78" />
<rect id="kcore3-a-7-rect" style="fill:#00008B;fill-opacity:0.2" stroke="transparent" stroke-dasharray="0" stroke-width="0.5" x="29.49" y="-80.07" width="40.44" height="35.59" />
<rect id="kcore3-a-8-rect" style="fill:#4169E1;fill-opacity:0.2" stroke="transparent" stroke-dasharray="0" stroke-width="0.5" x="74.42" y="-74.88" width="40.44" height="30.4" />
<rect id="kcore3-a-9-rect" style="fill:#00008B;fill-opacity:0.2" stroke="transparent" stroke-dasharray="0" stroke-width="0.5" x="119.35" y="-69.69" width="40.44" height="25.21" />
<text id="kcore3-a-1-text" y="-77.85" style="text-anchor:middle;dominant-baseline:middle;font-family:Arial;font-size:15px;fill:#00008B">
<tspan x="-219.89" dy="0">15</tspan>
</text>
<text id="kcore3-a-2-text" y="-75.25" style="text-anchor:middle;dominant-baseline:middle;font-family:Arial;font-size:15px;fill:#00008B">
<tspan x="-174.96" dy="0">32</tspan>
</text>
<text id="kcore3-a-3-text" y="-72.66" style="text-anchor:middle;dominant-baseline:middle;font-family:Arial;font-size:15px;fill:#00008B">
<tspan x="-130.02" dy="0">4</tspan>
</text>
<text id="kcore3-a-4-text" y="-70.06" style="text-anchor:middle;dominant-baseline:middle;font-family:Arial;font-size:15px;fill:#00008B">
<tspan x="-85.09" dy="0">2</tspan>
</text>
<text id="kcore3-a-5-text" y="-67.47" style="text-anchor:middle;dominant-baseline:middle;font-family:Arial;font-size:15px;fill:#00008B">
<tspan x="-40.16" dy="0">26</tspan>
</text>
<text id="kcore3-a-6-text" y="-64.87" style="text-anchor:middle;dominant-baseline:middle;font-family:Arial;font-size:15px;fill:#00008B">
<tspan x="4.77" dy="0">33</tspan>
</text>
<text id="kcore3-a-7-text" y="-62.28" style="text-anchor:middle;dominant-baseline:middle;font-family:Arial;font-size:15px;fill:#00008B">
<tspan x="49.71" dy="0">1</tspan>
</text>
<text id="kcore3-a-8-text" y="-59.68" style="text-anchor:middle;dominant-baseline:middle;font-family:Arial;font-size:15px;fill:#00008B">
<tspan x="94.64" dy="0">10</tspan>
</text>
<text id="kcore3-a-9-text" y="-57.09" style="text-anchor:middle;dominant-baseline:middle;font-family:Arial;font-size:15px;fill:#00008B">
<tspan x="139.57" dy="0">34</tspan>
</text>
<rect id="kcore3-b-1-rect" style="fill:#FF0000;fill-opacity:0.2" stroke="transparent" stroke-dasharray="0" stroke-width="0.5" x="-240.11" y="44.48" width="45.49" height="66.73" />
<rect id="kcore3-b-2-rect" style="fill:#F08080;fill-opacity:0.2" stroke="transparent" stroke-dasharray="0" stroke-width="0.5" x="-189.56" y="44.48" width="45.49" height="60.89" />
<rect id="kcore3-b-3-rect" style="fill:#FF0000;fill-opacity:0.2" stroke="transparent" stroke-dasharray="0" stroke-width="0.5" x="-139.01" y="44.48" width="45.49" height="55.05" />
<rect id="kcore3-b-4-rect" style="fill:#F08080;fill-opacity:0.2" stroke="transparent" stroke-dasharray="0" stroke-width="0.5" x="-88.46" y="44.48" width="45.49" height="49.21" />
<rect id="kcore3-b-5-rect" style="fill:#FF0000;fill-opacity:0.2" stroke="transparent" stroke-dasharray="0" stroke-width="0.5" x="-37.91" y="44.48" width="45.49" height="43.37" />
<rect id="kcore3-b-6-rect" style="fill:#F08080;fill-opacity:0.2" stroke="transparent" stroke-dasharray="0" stroke-width="0.5" x="12.64" y="44.48" width="45.49" height="37.54" />
<rect id="kcore3-b-7-rect" style="fill:#FF0000;fill-opacity:0.2" stroke="transparent" stroke-dasharray="0" stroke-width="0.5" x="63.19" y="44.48" width="45.49" height="31.7" />
<rect id="kcore3-b-8-rect" style="fill:#F08080;fill-opacity:0.2" stroke="transparent" stroke-dasharray="0" stroke-width="0.5" x="113.74" y="44.48" width="45.49" height="25.86" />
<text id="kcore3-b-1-text" y="77.85" style="text-anchor:middle;dominant-baseline:middle;font-family:Arial;font-size:15px;fill:#FF0000">
<tspan x="-217.36" dy="0">3</tspan>
</text>
<text id="kcore3-b-2-text" y="74.93" style="text-anchor:middle;dominant-baseline:middle;font-family:Arial;font-size:15px;fill:#FF0000">
<tspan x="-166.81" dy="0">4</tspan>
</text>
<text id="kcore3-b-3-text" y="72.01" style="text-anchor:middle;dominant-baseline:middle;font-family:Arial;font-size:15px;fill:#FF0000">
<tspan x="-116.26" dy="0">10</tspan>
</text>
<text id="kcore3-b-4-text" y="69.09" style="text-anchor:middle;dominant-baseline:middle;font-family:Arial;font-size:15px;fill:#FF0000">
<tspan x="-65.71" dy="0">9</tspan>
</text>
<text id="kcore3-b-5-text" y="66.17" style="text-anchor:middle;dominant-baseline:middle;font-family:Arial;font-size:15px;fill:#FF0000">
<tspan x="-15.16" dy="0">8</tspan>
</text>
<text id="kcore3-b-6-text" y="63.25" style="text-anchor:middle;dominant-baseline:middle;font-family:Arial;font-size:15px;fill:#FF0000">
<tspan x="35.38" dy="0">5</tspan>
</text>
<text id="kcore3-b-7-text" y="60.33" style="text-anchor:middle;dominant-baseline:middle;font-family:Arial;font-size:15px;fill:#FF0000">
<tspan x="85.93" dy="0">2</tspan>
</text>
<text id="kcore3-b-8-text" y="57.41" style="text-anchor:middle;dominant-baseline:middle;font-family:Arial;font-size:15px;fill:#FF0000">
<tspan x="136.48" dy="0">1</tspan>
</text>
<rect id="kcore2-a-1-rect" style="fill:#00008B;fill-opacity:0.2" stroke="transparent" stroke-dasharray="0" stroke-width="0.5" x="295.27" y="381.41" width="122.47" height="31.11" />
<rect id="kcore2-a-2-rect" style="fill:#4169E1;fill-opacity:0.2" stroke="transparent" stroke-dasharray="0" stroke-width="0.5" x="311.6" y="344.08" width="102.06" height="31.11" />
<rect id="kcore2-a-3-rect" style="fill:#00008B;fill-opacity:0.2" stroke="transparent" stroke-dasharray="0" stroke-width="0.5" x="327.93" y="306.76" width="81.64" height="31.1" />
<rect id="kcore2-a-4-rect" style="fill:#4169E1;fill-opacity:0.2" stroke="transparent" stroke-dasharray="0" stroke-width="0.5" x="344.26" y="269.43" width="61.23" height="31.1" />
<rect id="kcore2-a-5-rect" style="fill:#00008B;fill-opacity:0.2" stroke="transparent" stroke-dasharray="0" stroke-width="0.5" x="360.59" y="232.1" width="40.8200000000001" height="31.11" />
<text id="kcore2-a-1-text" y="396.97" style="text-anchor:middle;dominant-baseline:middle;font-family:Arial;font-size:13.5px;fill:#00008B">
<tspan x="313.64" dy="0">5</tspan>
</text>
<text id="kcore2-a-2-text" y="359.64" style="text-anchor:middle;dominant-baseline:middle;font-family:Arial;font-size:13.5px;fill:#00008B">
<tspan x="393.25" dy="0">18</tspan>
</text>
<text id="kcore2-a-3-text" y="322.31" style="text-anchor:middle;dominant-baseline:middle;font-family:Arial;font-size:13.5px;fill:#00008B">
<tspan x="340.18" dy="0">25</tspan>
</text>
<text id="kcore2-a-4-text" y="284.98" style="text-anchor:middle;dominant-baseline:middle;font-family:Arial;font-size:13.5px;fill:#00008B">
<tspan x="393.25" dy="0">36</tspan>
</text>
<text id="kcore2-a-5-text" y="247.65" style="text-anchor:middle;dominant-baseline:middle;font-family:Arial;font-size:13.5px;fill:#00008B">
<tspan x="366.71" dy="0">12</tspan>
</text>
<rect id="kcore2-b-1-rect" style="fill:#FF0000;fill-opacity:0.2" stroke="transparent" stroke-dasharray="0" stroke-width="0.5" x="288.47" y="-297.85" width="122.47" height="31.1" />
<text id="kcore2-b-1-text" y="-282.3" style="text-anchor:middle;dominant-baseline:middle;font-family:Arial;font-size:13.5px;fill:#FF0000">
<tspan x="306.84" dy="0">6</tspan>
</text>
<rect id="kcore3-1-rect" style="fill:none;fill-opacity:0.3" stroke="#8B4C39" stroke-dasharray="1 1" stroke-width="0" x="-296.98" y="-154.76" width="475.73" height="287.74" />
<text id="kcore3-1-text" y="-10.89" style="text-anchor:middle;dominant-baseline:middle;font-family:Arial;font-size:10.5px;fill:transparent">
</text>
<text id="kcore3-1-text" y="0" transform="rotate(-90 -266.65 0)" style="text-anchor:start;dominant-baseline:baseline;font-family:Arial;font-size:15px;fill:#8B4C39">
<tspan x="-266.65" dy="0">3-shell</tspan>
</text>
<rect id="kcore2-1-rect" style="fill:none;fill-opacity:0.3" stroke="#AC5E46" stroke-dasharray="1 1" stroke-width="0" x="269.51" y="-352.29" width="167.19" height="786.59" />
<text id="kcore2-1-text" y="41" style="text-anchor:middle;dominant-baseline:middle;font-family:Arial;font-size:10.5px;fill:transparent">
</text>
<text id="kcore2-1-text" y="-321.81" style="text-anchor:start;dominant-baseline:baseline;font-family:Arial;font-size:15px;fill:#AC5E46">
<tspan x="334.15" dy="0">2-shell</tspan>
</text>
<rect id="edge-kcore1-a-1-1-rect" style="fill:#00008B;fill-opacity:0.11" stroke="transparent" stroke-dasharray="0" stroke-width="0.5" x="-107.49" y="336.21" width="18.96" height="13.54" />
<text id="edge-kcore1-a-1-1-text" y="342.98" transform="rotate(30 -98.01 342.98)" style="text-anchor:middle;dominant-baseline:middle;font-family:Arial;font-size:12px;fill:#00008B">
<tspan x="-98.01" dy="0"> 37</tspan>
</text>
<rect id="edge-kcore1-a-2-1-rect" style="fill:#00008B;fill-opacity:0.11" stroke="transparent" stroke-dasharray="0" stroke-width="0.5" x="-137.91" y="343.03" width="24.19" height="17.28" />
<text id="edge-kcore1-a-2-1-text" y="351.67" transform="rotate(30 -125.81 351.67)" style="text-anchor:start;dominant-baseline:baseline;font-family:Arial;font-size:12px;fill:#00008B">
<tspan x="-125.81" dy="0"> 13  14</tspan>
</text>
<rect id="edge-kcore1-a-5-1-rect" style="fill:#00008B;fill-opacity:0.11" stroke="transparent" stroke-dasharray="0" stroke-width="0.5" x="-168.33" y="351.74" width="18.96" height="13.54" />
<text id="edge-kcore1-a-5-1-text" y="358.51" transform="rotate(30 -158.85 358.51)" style="text-anchor:middle;dominant-baseline:middle;font-family:Arial;font-size:12px;fill:#00008B">
<tspan x="-158.85" dy="0"> 38</tspan>
</text>
<rect id="edge-kcore1-a-9-1-rect" style="fill:#00008B;fill-opacity:0.11" stroke="transparent" stroke-dasharray="0" stroke-width="0.5" x="-202.45" y="358.57" width="31.6" height="22.56" />
<text id="edge-kcore1-a-9-1-text" y="369.85" transform="rotate(30 -186.65 369.85)" style="text-anchor:start;dominant-baseline:baseline;font-family:Arial;font-size:12px;fill:#00008B">
<tspan x="-186.65" dy="0"> 21 23  24 39</tspan>
</text>
<rect id="edge-kcore1-a-10-1-rect" style="fill:#00008B;fill-opacity:0.11" stroke="transparent" stroke-dasharray="0" stroke-width="0.5" x="-242.89" y="369.94" width="31.6" height="22.57" />
<text id="edge-kcore1-a-10-1-text" y="381.22" transform="rotate(30 -227.09 381.22)" style="text-anchor:start;dominant-baseline:baseline;font-family:Arial;font-size:12px;fill:#00008B">
<tspan x="-227.09" dy="0"> 7 16  28 31</tspan>
</text>
<rect id="edge-kcore1-a-4-1-rect" style="fill:#00008B;fill-opacity:0.11" stroke="transparent" stroke-dasharray="0" stroke-width="0.5" x="-283.33" y="381.31" width="31.6" height="22.57" />
<text id="edge-kcore1-a-4-1-text" y="392.6" transform="rotate(30 -267.53 392.6)" style="text-anchor:start;dominant-baseline:baseline;font-family:Arial;font-size:12px;fill:#00008B">
<tspan x="-267.53" dy="0"> 3 6  9 20</tspan>
</text>
<rect id="fat-kcore1-a-1-rect" style="fill:#00008B;fill-opacity:0.11" stroke="transparent" stroke-dasharray="0" stroke-width="0.5" x="-619.23" y="36.87" width="34.58" height="24.7" />
<text id="fat-kcore1-a-1-text" y="49.22" style="text-anchor:start;dominant-baseline:baseline;font-family:Arial;font-size:12px;fill:#00008B">
<tspan x="-601.94" dy="0"> 8 11 </tspan>
<tspan x="-601.94" dy="16.8"> 19 22 </tspan>
<tspan x="-601.94" dy="16.8"> 29</tspan>
</text>
<rect id="edge-kcore1-a-6-1-rect" style="fill:#00008B;fill-opacity:0.11" stroke="transparent" stroke-dasharray="0" stroke-width="0.5" x="587.86" y="-163.72" width="31.59" height="22.57" />
<text id="edge-kcore1-a-6-1-text" y="-152.43" style="text-anchor:start;dominant-baseline:baseline;font-family:Arial;font-size:12px;fill:#00008B">
<tspan x="603.66" dy="0"> 17 27  30 40</tspan>
</text>
<rect id="specialist-chains-kcore1-a-1-1-rect" style="fill:#00008B;fill-opacity:0.2" stroke="transparent" stroke-dasharray="0" stroke-width="0.5" x="-862.26" y="438.6" width="25.28" height="18.06" />
<text id="specialist-chains-kcore1-a-1-1-text" y="447.63" style="text-anchor:middle;dominant-baseline:middle;font-family:Arial;font-size:12px;fill:#00008B">
<tspan x="-849.62" dy="0"> 35</tspan>
</text>
<rect id="specialist-chains-kcore1-b-2-1-rect" style="fill:#FF0000;fill-opacity:0.2" stroke="transparent" stroke-dasharray="0" stroke-width="0.5" x="-938.08" y="563.03" width="25.2700000000001" height="18.0600000000001" />
<text id="specialist-chains-kcore1-b-2-1-text" y="572.06" style="text-anchor:middle;dominant-baseline:middle;font-family:Arial;font-size:12px;fill:#FF0000">
<tspan x="-925.44" dy="0"> 7</tspan>
</text>
<rect id="annotation-1-rect" style="fill:none;fill-opacity:0.5" stroke="transparent" stroke-dasharray="0" stroke-width="0.5" x="631.87" y="-0.03" width="0.0399999999999636" height="0.03" />
<text id="annotation-1-text" y="-0.01" style="text-anchor:middle;dominant-baseline:middle;font-family:Arial;font-size:10.5px;fill:transparent">
</text>
<text id="annotation-1-text" y="0" style="text-anchor:middle;dominant-baseline:middle;font-family:Arial;font-size:3px;fill:red">
<tspan x="631.87" dy="0">.</tspan>
</text>
<text id="annotation-1-text" y="0" style="text-anchor:middle;dominant-baseline:middle;font-family:Arial;font-size:3px;fill:red">
<tspan x="-429.67" dy="0">.</tspan>
</text>
<g id="link-1-segment" fill="none" stroke="#888888" stroke-dasharray="0" stroke-width="0.3" stroke-opacity="0.5">
<path d="M-584.65 49.22 L-240.11 77.85"/>
</g>
<g id="link-2-segment" fill="none" stroke="#888888" stroke-dasharray="0" stroke-width="0.3" stroke-opacity="0.5">
<path d="M-219.89 -44.48 L-217.36 44.48"/>
</g>
<g id="link-3-segment" fill="none" stroke="#888888" stroke-dasharray="0" stroke-width="0.3" stroke-opacity="0.5">
<path d="M-219.89 -44.48 L-166.81 44.48"/>
</g>
<g id="link-4-segment" fill="none" stroke="#888888" stroke-dasharray="0" stroke-width="0.3" stroke-opacity="0.5">
<path d="M-219.89 -44.48 L-116.26 44.48"/>
</g>
<g id="link-5-segment" fill="none" stroke="#888888" stroke-dasharray="0" stroke-width="0.3" stroke-opacity="0.5">
<path d="M-219.89 -44.48 L-65.71 44.48"/>
</g>
<g id="link-6-segment" fill="none" stroke="#888888" stroke-dasharray="0" stroke-width="0.3" stroke-opacity="0.5">
<path d="M-219.89 -44.48 L-15.16 44.48"/>
</g>
<g id="link-7-segment" fill="none" stroke="#888888" stroke-dasharray="0" stroke-width="0.3" stroke-opacity="0.5">
<path d="M-219.89 -44.48 L35.38 44.48"/>
</g>
<g id="link-8-segment" fill="none" stroke="#888888" stroke-dasharray="0" stroke-width="0.3" stroke-opacity="0.5">
<path d="M-219.89 -44.48 L85.93 44.48"/>
</g>
<g id="link-9-segment" fill="none" stroke="#888888" stroke-dasharray="0" stroke-width="0.3" stroke-opacity="0.5">
<path d="M-174.96 -44.48 L-217.36 44.48"/>
</g>
<g id="link-10-segment" fill="none" stroke="#888888" stroke-dasharray="0" stroke-width="0.3" stroke-opacity="0.5">
<path d="M-174.96 -44.48 L-15.16 44.48"/>
</g>
<g id="link-11-segment" fill="none" stroke="#888888" stroke-dasharray="0" stroke-width="0.3" stroke-opacity="0.5">
<path d="M-174.96 -44.48 L35.38 44.48"/>
</g>
<g id="link-12-segment" fill="none" stroke="#888888" stroke-dasharray="0" stroke-width="0.3" stroke-opacity="0.5">
<path d="M-174.96 -44.48 L136.48 44.48"/>
</g>
<g id="link-13-segment" fill="none" stroke="#888888" stroke-dasharray="0" stroke-width="0.3" stroke-opacity="0.5">
<path d="M-130.02 -44.48 L-217.36 44.48"/>
</g>
<g id="link-14-segment" fill="none" stroke="#888888" stroke-dasharray="0" stroke-width="0.3" stroke-opacity="0.5">
<path d="M-130.02 -44.48 L-166.81 44.48"/>
</g>
<g id="link-15-segment" fill="none" stroke="#888888" stroke-dasharray="0" stroke-width="0.3" stroke-opacity="0.5">
<path d="M-130.02 -44.48 L-116.26 44.48"/>
</g>
<g id="link-16-segment" fill="none" stroke="#888888" stroke-dasharray="0" stroke-width="0.3" stroke-opacity="0.5">
<path d="M-130.02 -44.48 L85.93 44.48"/>
</g>
<g id="link-17-segment" fill="none" stroke="#888888" stroke-dasharray="0" stroke-width="0.3" stroke-opacity="0.5">
<path d="M-85.09 -44.48 L-217.36 44.48"/>
</g>
<g id="link-18-segment" fill="none" stroke="#888888" stroke-dasharray="0" stroke-width="0.3" stroke-opacity="0.5">
<path d="M-85.09 -44.48 L-166.81 44.48"/>
</g>
<g id="link-19-segment" fill="none" stroke="#888888" stroke-dasharray="0" stroke-width="0.3" stroke-opacity="0.5">
<path d="M-85.09 -44.48 L-65.71 44.48"/>
</g>
<g id="link-20-segment" fill="none" stroke="#888888" stroke-dasharray="0" stroke-width="0.3" stroke-opacity="0.5">
<path d="M-85.09 -44.48 L85.93 44.48"/>
</g>
<g id="link-21-segment" fill="none" stroke="#888888" stroke-dasharray="0" stroke-width="0.3" stroke-opacity="0.5">
<path d="M-40.16 -44.48 L-217.36 44.48"/>
</g>
<g id="link-22-segment" fill="none" stroke="#888888" stroke-dasharray="0" stroke-width="0.3" stroke-opacity="0.5">
<path d="M-40.16 -44.48 L-116.26 44.48"/>
</g>
<g id="link-23-segment" fill="none" stroke="#888888" stroke-dasharray="0" stroke-width="0.3" stroke-opacity="0.5">
<path d="M-40.16 -44.48 L35.38 44.48"/>
</g>
<g id="link-24-segment" fill="none" stroke="#888888" stroke-dasharray="0" stroke-width="0.3" stroke-opacity="0.5">
<path d="M4.77 -44.48 L-217.36 44.48"/>
</g>
<g id="link-25-segment" fill="none" stroke="#888888" stroke-dasharray="0" stroke-width="0.3" stroke-opacity="0.5">
<path d="M4.77 -44.48 L-65.71 44.48"/>
</g>
<g id="link-26-segment" fill="none" stroke="#888888" stroke-dasharray="0" stroke-width="0.3" stroke-opacity="0.5">
<path d="M4.77 -44.48 L-15.16 44.48"/>
</g>
<g id="link-27-segment" fill="none" stroke="#888888" stroke-dasharray="0" stroke-width="0.3" stroke-opacity="0.5">
<path d="M49.71 -44.48 L-217.36 44.48"/>
</g>
<g id="link-28-segment" fill="none" stroke="#888888" stroke-dasharray="0" stroke-width="0.3" stroke-opacity="0.5">
<path d="M49.71 -44.48 L-166.81 44.48"/>
</g>
<g id="link-29-segment" fill="none" stroke="#888888" stroke-dasharray="0" stroke-width="0.3" stroke-opacity="0.5">
<path d="M49.71 -44.48 L136.48 44.48"/>
</g>
<g id="link-30-segment" fill="none" stroke="#888888" stroke-dasharray="0" stroke-width="0.3" stroke-opacity="0.5">
<path d="M94.64 -44.48 L-116.26 44.48"/>
</g>
<g id="link-31-segment" fill="none" stroke="#888888" stroke-dasharray="0" stroke-width="0.3" stroke-opacity="0.5">
<path d="M94.64 -44.48 L-65.71 44.48"/>
</g>
<g id="link-32-segment" fill="none" stroke="#888888" stroke-dasharray="0" stroke-width="0.3" stroke-opacity="0.5">
<path d="M94.64 -44.48 L-15.16 44.48"/>
</g>
<g id="link-33-segment" fill="none" stroke="#888888" stroke-dasharray="0" stroke-width="0.3" stroke-opacity="0.5">
<path d="M139.57 -44.48 L-15.16 44.48"/>
</g>
<g id="link-34-segment" fill="none" stroke="#888888" stroke-dasharray="0" stroke-width="0.3" stroke-opacity="0.5">
<path d="M139.57 -44.48 L35.38 44.48"/>
</g>
<g id="link-35-segment" fill="none" stroke="#888888" stroke-dasharray="0" stroke-width="0.3" stroke-opacity="0.5">
<path d="M139.57 -44.48 L136.48 44.48"/>
</g>
<g id="link-36-segment" fill="none" stroke="#888888" stroke-dasharray="0" stroke-width="0.3" stroke-opacity="0.5">
<path d="M360.59 232.1 L288.47 -266.75"/>
</g>
<g id="link-1-path" fill="none" stroke="#888888" stroke-dasharray="0" stroke-width="0.3" stroke-opacity="0.5">
<path d="M-98.01 336.21  L-71.95 315.58 L-45.9 294.28 L-19.85 271.63 L6.21 246.95 L32.26 219.57 L58.32 188.81 L84.37 154 L110.43 114.46 L136.48 70.34"/>
</g>
<g id="link-2-path" fill="none" stroke="#888888" stroke-dasharray="0" stroke-width="0.3" stroke-opacity="0.5">
<path d="M-125.81 343.03  L-102.28 322.33 L-78.76 300.95 L-55.23 278.21 L-31.7 253.44 L-8.18 225.96 L15.35 195.09 L38.88 160.15 L62.41 120.46 L85.93 76.18"/>
</g>
<g id="link-3-path" fill="none" stroke="#888888" stroke-dasharray="0" stroke-width="0.3" stroke-opacity="0.5">
<path d="M-158.85 351.74  L-137.27 330.82 L-115.69 309.2 L-94.1 286.22 L-72.52 261.19 L-50.94 233.41 L-29.36 202.2 L-7.78 166.89 L13.8 126.78 L35.38 82.02"/>
</g>
<g id="link-4-path" fill="none" stroke="#888888" stroke-dasharray="0" stroke-width="0.3" stroke-opacity="0.5">
<path d="M-186.65 358.57  L-173.21 338.02 L-159.78 316.79 L-146.34 294.23 L-132.9 269.64 L-119.46 242.36 L-106.03 211.72 L-92.59 177.04 L-79.15 137.65 L-65.71 93.69"/>
</g>
<g id="link-5-path" fill="none" stroke="#888888" stroke-dasharray="0" stroke-width="0.3" stroke-opacity="0.5">
<path d="M-227.09 369.94  L-214.78 348.96 L-202.46 327.29 L-190.15 304.25 L-177.83 279.15 L-165.52 251.31 L-153.21 220.02 L-140.89 184.62 L-128.58 144.41 L-116.26 99.53"/>
</g>
<g id="link-6-path" fill="none" stroke="#888888" stroke-dasharray="0" stroke-width="0.3" stroke-opacity="0.5">
<path d="M-267.53 381.31  L-256.34 359.91 L-245.15 337.8 L-233.96 314.28 L-222.77 288.67 L-211.58 260.25 L-200.39 228.33 L-189.19 192.2 L-178 151.16 L-166.81 105.37"/>
</g>
<g id="link-7-path" fill="none" stroke="#888888" stroke-dasharray="0" stroke-width="0.3" stroke-opacity="0.5">
<path d="M410.94 -282.3  L430.59 -280.64 L450.25 -274.16 L469.91 -263.74 L489.57 -250.1 L509.23 -233.79 L528.88 -215.33 L548.54 -195.26 L568.2 -174.11 L587.86 -152.43"/>
</g>
<g id="link-8-path" fill="none" stroke="#888888" stroke-dasharray="0" stroke-width="0.3" stroke-opacity="0.5">
<path d="M-217.36 111.21  L-160.4 157.76 L-103.44 197.64 L-46.48 225.05 L10.47 242.03 L67.43 254.61 L124.39 268.86 L181.35 290.84 L238.31 326.63 L295.27 381.41"/>
</g>
<g id="link-9-path" fill="none" stroke="#888888" stroke-dasharray="0" stroke-width="0.3" stroke-opacity="0.5">
<path d="M-166.81 105.37  L-115.47 152.93 L-64.13 193.67 L-12.79 221.68 L38.56 239.02 L89.9 251.87 L141.24 266.42 L192.59 288.88 L243.93 325.44 L295.27 381.41"/>
</g>
<g id="link-10-path" fill="none" stroke="#888888" stroke-dasharray="0" stroke-width="0.3" stroke-opacity="0.5">
<path d="M-217.36 111.21  L-158.59 151.33 L-99.82 185.7 L-41.04 209.33 L17.73 223.96 L76.51 234.8 L135.28 247.08 L194.05 266.02 L252.83 296.87 L311.6 344.08"/>
</g>
<g id="link-11-path" fill="none" stroke="#888888" stroke-dasharray="0" stroke-width="0.3" stroke-opacity="0.5">
<path d="M35.38 82.02  L66.08 127.17 L96.77 165.84 L127.46 192.43 L158.15 208.9 L188.84 221.1 L219.53 234.92 L250.22 256.24 L280.91 290.95 L311.6 344.08"/>
</g>
<g id="link-12-path" fill="none" stroke="#888888" stroke-dasharray="0" stroke-width="0.3" stroke-opacity="0.5">
<path d="M-217.36 111.21  L-156.77 144.9 L-96.19 173.76 L-35.6 193.6 L24.99 205.89 L85.58 214.99 L146.17 225.3 L206.75 241.21 L267.34 267.11 L327.93 306.76"/>
</g>
<g id="link-13-path" fill="none" stroke="#888888" stroke-dasharray="0" stroke-width="0.3" stroke-opacity="0.5">
<path d="M136.48 70.34  L157.76 111.07 L179.03 145.96 L200.3 169.95 L221.57 184.81 L242.84 195.81 L264.11 208.27 L285.39 227.51 L306.66 258.82 L327.93 306.76"/>
</g>
<g id="link-14-path" fill="none" stroke="#888888" stroke-dasharray="0" stroke-width="0.3" stroke-opacity="0.5">
<path d="M-217.36 111.21  L-154.96 138.47 L-92.56 161.82 L-30.16 177.87 L32.25 187.81 L94.65 195.18 L157.05 203.52 L219.45 216.39 L281.86 237.35 L344.26 269.43"/>
</g>
<g id="link-15-path" fill="none" stroke="#888888" stroke-dasharray="0" stroke-width="0.3" stroke-opacity="0.5">
<path d="M-15.16 87.85  L24.77 119.14 L64.71 145.93 L104.64 164.36 L144.58 175.77 L184.51 184.22 L224.45 193.79 L264.39 208.56 L304.32 232.61 L344.26 269.43"/>
</g>
<g id="link-16-path" fill="none" stroke="#888888" stroke-dasharray="0" stroke-width="0.3" stroke-opacity="0.5">
<path d="M-116.26 99.53  L-63.28 122.37 L-10.3 141.93 L42.69 155.39 L95.67 163.72 L148.65 169.89 L201.64 176.88 L254.62 187.66 L307.6 205.22 L360.59 232.1"/>
</g>
<g id="link-17-path" fill="none" stroke="#888888" stroke-dasharray="0" stroke-width="0.3" stroke-opacity="0.5">
<path d="M-40.16 -90.45  L-3.64 -126.2 L32.87 -149.55 L69.38 -163.89 L105.9 -173.18 L142.41 -181.39 L178.93 -192.47 L215.44 -210.36 L251.95 -236.37 L288.47 -266.75"/>
</g>
<g id="link-18-path" fill="none" stroke="#888888" stroke-dasharray="0" stroke-width="0.3" stroke-opacity="0.5">
<path d="M-836.98 438.6  L-768.14 413.2 L-699.29 386.97 L-630.44 359.07 L-561.6 328.68 L-492.75 294.97 L-423.9 257.09 L-355.06 214.23 L-286.21 165.54 L-217.36 111.21"/>
</g>
<g id="link-19-path" fill="none" stroke="#888888" stroke-dasharray="0" stroke-width="0.3" stroke-opacity="0.5">
<path d="M-912.81 572.06  L-907.19 562.4 L-901.57 552.44 L-895.96 541.83 L-890.34 530.28 L-884.72 517.47 L-879.11 503.07 L-873.49 486.78 L-867.87 468.28 L-862.26 447.63"/>
</g>
</svg>