<svg xmlns="http://www.w3.org/2000/svg" viewBox="-1180 -790 2070 1780">
<rect id="zigguratkcore3-a-1-rect" style="fill:#00008B;fill-opacity:0.2" stroke="transparent" stroke-dasharray="0" stroke-width="0.5" x="-194.62" y="-155.69" width="95.54" height="93.41" />
<rect id="zigguratkcore3-a-2-rect" style="fill:#4169E1;fill-opacity:0.2" stroke="transparent" stroke-dasharray="0" stroke-width="0.5" x="-88.46" y="-139.34" width="95.54" height="77.06" />
<rect id="zigguratkcore3-a-3-rect" style="fill:#00008B;fill-opacity:0.2" stroke="transparent" stroke-dasharray="0" stroke-width="0.5" x="17.69" y="-123" width="95.54" height="60.72" />
<rect id="zigguratkcore3-a-4-rect" style="fill:#4169E1;fill-opacity:0.2" stroke="transparent" stroke-dasharray="0" stroke-width="0.5" x="123.85" y="-106.65" width="95.53" height="44.37" />
<text id="zigguratkcore3-a-1-text" y="-108.98" style="text-anchor:middle;dominant-baseline:middle;font-family:Arial;font-size:15px;fill:#00008B">
<tspan x="-146.85" dy="0">1</tspan>
</text>
<text id="zigguratkcore3-a-2-text" y="-100.81" style="text-anchor:middle;dominant-baseline:middle;font-family:Arial;font-size:15px;fill:#00008B">
<tspan x="-40.69" dy="0">3</tspan>
</text>
<text id="zigguratkcore3-a-3-text" y="-92.64" style="text-anchor:middle;dominant-baseline:middle;font-family:Arial;font-size:15px;fill:#00008B">
<tspan x="65.46" dy="0">2</tspan>
</text>
<text id="zigguratkcore3-a-4-text" y="-84.46" style="text-anchor:middle;dominant-baseline:middle;font-family:Arial;font-size:15px;fill:#00008B">
<tspan x="171.62" dy="0">5</tspan>
</text>
<rect id="zigguratkcore3-b-1-rect" style="fill:#FF0000;fill-opacity:0.2" stroke="transparent" stroke-dasharray="0" stroke-width="0.5" x="-194.62" y="62.28" width="63.7" height="93.41" />
<rect id="zigguratkcore3-b-2-rect" style="fill:#F08080;fill-opacity:0.2" stroke="transparent" stroke-dasharray="0" stroke-width="0.5" x="-123.85" y="62.28" width="63.7" height="82.51" />
<rect id="zigguratkcore3-b-3-rect" style="fill:#FF0000;fill-opacity:0.2" stroke="transparent" stroke-dasharray="0" stroke-width="0.5" x="-53.08" y="62.28" width="63.7" height="71.62" />
<rect id="zigguratkcore3-b-4-rect" style="fill:#F08080;fill-opacity:0.2" stroke="transparent" stroke-dasharray="0" stroke-width="0.5" x="17.69" y="62.28" width="63.69" height="60.72" />
<rect id="zigguratkcore3-b-5-rect" style="fill:#FF0000;fill-opacity:0.2" stroke="transparent" stroke-dasharray="0" stroke-width="0.5" x="88.46" y="62.28" width="63.69" height="49.82" />
<rect id="zigguratkcore3-b-6-rect" style="fill:#F08080;fill-opacity:0.2" stroke="transparent" stroke-dasharray="0" stroke-width="0.5" x="159.23" y="62.28" width="63.69" height="38.92" />
<text id="zigguratkcore3-b-1-text" y="108.98" style="text-anchor:middle;dominant-baseline:middle;font-family:Arial;font-size:15px;fill:#FF0000">
<tspan x="-162.77" dy="0">4</tspan>
</text>
<text id="zigguratkcore3-b-2-text" y="103.54" style="text-anchor:middle;dominant-baseline:middle;font-family:Arial;font-size:15px;fill:#FF0000">
<tspan x="-92" dy="0">2</tspan>
</text>
<text id="zigguratkcore3-b-3-text" y="98.09" style="text-anchor:middle;dominant-baseline:middle;font-family:Arial;font-size:15px;fill:#FF0000">
<tspan x="-21.23" dy="0">6</tspan>
</text>
<text id="zigguratkcore3-b-4-text" y="92.64" style="text-anchor:middle;dominant-baseline:middle;font-family:Arial;font-size:15px;fill:#FF0000">
<tspan x="49.54" dy="0">5</tspan>
</text>
<text id="zigguratkcore3-b-5-text" y="87.19" style="text-anchor:middle;dominant-baseline:middle;font-family:Arial;font-size:15px;fill:#FF0000">
<tspan x="120.31" dy="0">3</tspan>
</text>
<text id="zigguratkcore3-b-6-text" y="81.74" style="text-anchor:middle;dominant-baseline:middle;font-family:Arial;font-size:15px;fill:#FF0000">
<tspan x="191.08" dy="0">1</tspan>
</text>
<rect id="zigguratkcore2-a-1-rect" style="fill:#00008B;fill-opacity:0.2" stroke="transparent" stroke-dasharray="0" stroke-width="0.5" x="411" y="449.6" width="171.45" height="43.55" />
<rect id="zigguratkcore2-a-2-rect" style="fill:#4169E1;fill-opacity:0.2" stroke="transparent" stroke-dasharray="0" stroke-width="0.5" x="439.57" y="397.34" width="135.74" height="43.55" />
<rect id="zigguratkcore2-a-3-rect" style="fill:#00008B;fill-opacity:0.2" stroke="transparent" stroke-dasharray="0" stroke-width="0.5" x="468.15" y="345.08" width="100.02" height="43.55" />
<rect id="zigguratkcore2-a-4-rect" style="fill:#4169E1;fill-opacity:0.2" stroke="transparent" stroke-dasharray="0" stroke-width="0.5" x="496.73" y="292.82" width="64.29" height="43.55" />
<text id="zigguratkcore2-a-1-text" y="471.38" style="text-anchor:middle;dominant-baseline:middle;font-family:Arial;font-size:13.5px;fill:#00008B">
<tspan x="548.16" dy="0">6</tspan>
</text>
<text id="zigguratkcore2-a-2-text" y="419.12" style="text-anchor:middle;dominant-baseline:middle;font-family:Arial;font-size:13.5px;fill:#00008B">
<tspan x="459.93" dy="0">4</tspan>
</text>
<text id="zigguratkcore2-a-3-text" y="366.86" style="text-anchor:middle;dominant-baseline:middle;font-family:Arial;font-size:13.5px;fill:#00008B">
<tspan x="548.16" dy="0">7</tspan>
</text>
<text id="zigguratkcore2-a-4-text" y="314.6" style="text-anchor:middle;dominant-baseline:middle;font-family:Arial;font-size:13.5px;fill:#00008B">
<tspan x="506.37" dy="0">8</tspan>
</text>
<rect id="zigguratkcore2-b-1-rect" style="fill:#FF0000;fill-opacity:0.2" stroke="transparent" stroke-dasharray="0" stroke-width="0.5" x="413.38" y="-634.75" width="171.45" height="43.55" />
<rect id="zigguratkcore2-b-2-rect" style="fill:#F08080;fill-opacity:0.2" stroke="transparent" stroke-dasharray="0" stroke-width="0.5" x="436.24" y="-582.49" width="142.88" height="43.5600000000001" />
<rect id="zigguratkcore2-b-3-rect" style="fill:#FF0000;fill-opacity:0.2" stroke="transparent" stroke-dasharray="0" stroke-width="0.5" x="459.1" y="-530.22" width="114.3" height="43.55" />
<rect id="zigguratkcore2-b-4-rect" style="fill:#F08080;fill-opacity:0.2" stroke="transparent" stroke-dasharray="0" stroke-width="0.5" x="481.96" y="-477.96" width="85.7300000000001" height="43.55" />
<rect id="zigguratkcore2-b-5-rect" style="fill:#FF0000;fill-opacity:0.2" stroke="transparent" stroke-dasharray="0" stroke-width="0.5" x="504.82" y="-425.7" width="57.15" height="43.55" />
<text id="zigguratkcore2-b-1-text" y="-612.97" style="text-anchor:middle;dominant-baseline:middle;font-family:Arial;font-size:13.5px;fill:#FF0000">
<tspan x="439.1" dy="0">11</tspan>
</text>
<text id="zigguratkcore2-b-2-text" y="-560.71" style="text-anchor:middle;dominant-baseline:middle;font-family:Arial;font-size:13.5px;fill:#FF0000">
<tspan x="550.54" dy="0">8</tspan>
</text>
<text id="zigguratkcore2-b-3-text" y="-508.45" style="text-anchor:middle;dominant-baseline:middle;font-family:Arial;font-size:13.5px;fill:#FF0000">
<tspan x="476.25" dy="0">7</tspan>
</text>
<text id="zigguratkcore2-b-4-text" y="-456.19" style="text-anchor:middle;dominant-baseline:middle;font-family:Arial;font-size:13.5px;fill:#FF0000">
<tspan x="550.54" dy="0">9</tspan>
</text>
<text id="zigguratkcore2-b-5-text" y="-403.93" style="text-anchor:middle;dominant-baseline:middle;font-family:Arial;font-size:13.5px;fill:#FF0000">
<tspan x="513.4" dy="0">10</tspan>
</text>
<rect id="zigguratkcore3-1-rect" style="fill:none;fill-opacity:0.3" stroke="#8B4C39" stroke-dasharray="1 1" stroke-width="0" x="-274.23" y="-277.63" width="523.69" height="494.29" />
<text id="zigguratkcore3-1-text" y="-30.49" style="text-anchor:middle;dominant-baseline:middle;font-family:Arial;font-size:10.5px;fill:transparent">
</text>
<text id="zigguratkcore3-1-text" y="0" transform="rotate(-90 -231.77 0)" style="text-anchor:start;dominant-baseline:middle;font-family:Arial;font-size:15px;fill:#8B4C39">
<tspan x="-231.77" dy="0">3-shell</tspan>
</text>
<rect id="zigguratkcore2-1-rect" style="fill:none;fill-opacity:0.3" stroke="#AC5E46" stroke-dasharray="1 1" stroke-width="0" x="384.46" y="-787.17" width="226.91" height="1341.29" />
<text id="zigguratkcore2-1-text" y="-116.52" style="text-anchor:middle;dominant-baseline:middle;font-family:Arial;font-size:10.5px;fill:transparent">
</text>
<text id="zigguratkcore2-1-text" y="-701.81" style="text-anchor:start;dominant-baseline:middle;font-family:Arial;font-size:15px;fill:#AC5E46">
<tspan x="471.38" dy="0">2-shell</tspan>
</text>
<rect id="zigguratedge-kcore1-a-1-1-rect" style="fill:#00008B;fill-opacity:0.11" stroke="transparent" stroke-dasharray="0" stroke-width="0.5" x="-196.67" y="496.21" width="39.49" height="39.4900000000001" />
<text id="zigguratedge-kcore1-a-1-1-text" y="515.96" transform="rotate(30 -176.92 515.96)" style="text-anchor:start;dominant-baseline:middle;font-family:Arial;font-size:12px;fill:#00008B">
<tspan x="-176.92" dy="0"> 12 13  16</tspan>
</text>
<rect id="zigguratedge-kcore1-a-3-1-rect" style="fill:#00008B;fill-opacity:0.11" stroke="transparent" stroke-dasharray="0" stroke-width="0.5" x="-242.07" y="516.12" width="26.54" height="26.53" />
<text id="zigguratedge-kcore1-a-3-1-text" y="529.38" transform="rotate(30 -228.8 529.38)" style="text-anchor:middle;dominant-baseline:middle;font-family:Arial;font-size:12px;fill:#00008B">
<tspan x="-228.8" dy="0"> 17</tspan>
</text>
<rect id="zigguratedge-kcore1-a-5-1-rect" style="fill:#00008B;fill-opacity:0.11" stroke="transparent" stroke-dasharray="0" stroke-width="0.5" x="-280.99" y="529.49" width="26.54" height="26.54" />
<text id="zigguratedge-kcore1-a-5-1-text" y="542.76" transform="rotate(30 -267.72 542.76)" style="text-anchor:middle;dominant-baseline:middle;font-family:Arial;font-size:12px;fill:#00008B">
<tspan x="-267.72" dy="0"> 15</tspan>
</text>
<rect id="zigguratedge-kcore1-a-2-1-rect" style="fill:#00008B;fill-opacity:0.11" stroke="transparent" stroke-dasharray="0" stroke-width="0.5" x="-319.91" y="542.87" width="26.54" height="26.53" />
<text id="zigguratedge-kcore1-a-2-1-text" y="556.14" transform="rotate(30 -306.64 556.14)" style="text-anchor:middle;dominant-baseline:middle;font-family:Arial;font-size:12px;fill:#00008B">
<tspan x="-306.64" dy="0"> 11</tspan>
</text>
<rect id="zigguratedge-kcore1-b-2-1-rect" style="fill:#FF0000;fill-opacity:0.11" stroke="transparent" stroke-dasharray="0" stroke-width="0.5" x="-172.5" y="-483.56" width="26.54" height="26.54" />
<text id="zigguratedge-kcore1-b-2-1-text" y="-470.29" transform="rotate(-30 -159.23 -470.29)" style="text-anchor:middle;dominant-baseline:middle;font-family:Arial;font-size:12px;fill:#FF0000">
<tspan x="-159.23" dy="0"> 16</tspan>
</text>
<rect id="zigguratedge-kcore1-b-1-rect" style="fill:#FF0000;fill-opacity:0.11" stroke="transparent" stroke-dasharray="0" stroke-width="0.5" x="-725.38" y="-64.68" width="26.53" height="26.54" />
<text id="zigguratedge-kcore1-b-1-text" y="-51.41" style="text-anchor:middle;dominant-baseline:middle;font-family:Arial;font-size:12px;fill:#FF0000">
<tspan x="-712.12" dy="0"> 13</tspan>
</text>
<rect id="zigguratedge-kcore1-a-1-1-rect" style="fill:#00008B;fill-opacity:0.2" stroke="transparent" stroke-dasharray="0" stroke-width="0.5" x="-1065.62" y="541.66" width="35.3799999999999" height="35.38" />
<text id="zigguratedge-kcore1-a-1-1-text" y="559.35" style="text-anchor:middle;dominant-baseline:middle;font-family:Arial;font-size:12px;fill:#00008B">
<tspan x="-1047.93" dy="0"> 9</tspan>
</text>
<rect id="zigguratedge-kcore1-b-2-1-rect" style="fill:#FF0000;fill-opacity:0.2" stroke="transparent" stroke-dasharray="0" stroke-width="0.5" x="-1171.78" y="715.86" width="35.3899999999999" height="35.38" />
<text id="zigguratedge-kcore1-b-2-1-text" y="733.55" style="text-anchor:middle;dominant-baseline:middle;font-family:Arial;font-size:12px;fill:#FF0000">
<tspan x="-1154.08" dy="0"> 14</tspan>
</text>
<rect id="zigguratedge-kcore1-a-1-rect" style="fill:#00008B;fill-opacity:0.2" stroke="transparent" stroke-dasharray="0" stroke-width="0.5" x="0" y="839.7" width="35.38" height="35.39" />
<rect id="zigguratedge-kcore1-a-2-rect" style="fill:#00008B;fill-opacity:0.2" stroke="transparent" stroke-dasharray="0" stroke-width="0.5" x="88.46" y="839.7" width="35.39" height="35.39" />
<text id="zigguratedge-kcore1-a-1-text" y="857.4" style="text-anchor:middle;dominant-baseline:middle;font-family:Arial;font-size:12px;fill:#00008B">
<tspan x="17.69" dy="0">10</tspan>
</text>
<text id="zigguratedge-kcore1-a-2-text" y="857.4" style="text-anchor:middle;dominant-baseline:middle;font-family:Arial;font-size:12px;fill:#00008B">
<tspan x="106.15" dy="0">14</tspan>
</text>
<rect id="zigguratedge-kcore1-b-1-rect" style="fill:#FF0000;fill-opacity:0.2" stroke="transparent" stroke-dasharray="0" stroke-width="0.5" x="0" y="945.86" width="35.38" height="35.38" />
<rect id="zigguratedge-kcore1-b-2-rect" style="fill:#FF0000;fill-opacity:0.2" stroke="transparent" stroke-dasharray="0" stroke-width="0.5" x="88.46" y="945.86" width="35.39" height="35.38" />
<text id="zigguratedge-kcore1-b-1-text" y="963.55" style="text-anchor:middle;dominant-baseline:middle;font-family:Arial;font-size:12px;fill:#FF0000">
<tspan x="17.69" dy="0">12</tspan>
</text>
<text id="zigguratedge-kcore1-b-2-text" y="963.55" style="text-anchor:middle;dominant-baseline:middle;font-family:Arial;font-size:12px;fill:#FF0000">
<tspan x="106.15" dy="0">15</tspan>
</text>
<text id="zigguratcorelabel-1-text" y="716.4" style="text-anchor:start;dominant-baseline:middle;font-family:Arial;font-size:15px;fill:grey50">
<tspan x="-64.53" dy="0">Outside the giant component</tspan>
</text>
<rect id="zigguratannotation-1-rect" style="fill:none;fill-opacity:0.5" stroke="transparent" stroke-dasharray="0" stroke-width="0.5" x="884.62" y="-0.04" width="0.0399999999999636" height="0.04" />
<text id="zigguratannotation-1-text" y="-0.02" style="text-anchor:middle;dominant-baseline:middle;font-family:Arial;font-size:15px;fill:transparent">
</text>
<text id="zigguratannotation-1-text" y="0" style="text-anchor:middle;dominant-baseline:middle;font-family:Arial;font-size:3px;fill:red">
<tspan x="884.62" dy="0">.</tspan>
</text>
<text id="zigguratannotation-1-text" y="0" style="text-anchor:middle;dominant-baseline:middle;font-family:Arial;font-size:3px;fill:red">
<tspan x="-460" dy="0">.</tspan>
</text>
<g id="zigguratlink-1-segment" fill="none" stroke="#888888" stroke-dasharray="0" stroke-width="0.3" stroke-opacity="0.5">
<path d="M-698.85 -51.41 L-194.62 -108.98"/>
</g>
<g id="zigguratlink-2-segment" fill="none" stroke="#888888" stroke-dasharray="0" stroke-width="0.3" stroke-opacity="0.5">
<path d="M-146.85 -62.28 L-162.77 62.28"/>
</g>
<g id="zigguratlink-3-segment" fill="none" stroke="#888888" stroke-dasharray="0" stroke-width="0.3" stroke-opacity="0.5">
<path d="M-146.85 -62.28 L-92 62.28"/>
</g>
<g id="zigguratlink-4-segment" fill="none" stroke="#888888" stroke-dasharray="0" stroke-width="0.3" stroke-opacity="0.5">
<path d="M-146.85 -62.28 L-21.23 62.28"/>
</g>
<g id="zigguratlink-5-segment" fill="none" stroke="#888888" stroke-dasharray="0" stroke-width="0.3" stroke-opacity="0.5">
<path d="M-146.85 -62.28 L49.54 62.28"/>
</g>
<g id="zigguratlink-6-segment" fill="none" stroke="#888888" stroke-dasharray="0" stroke-width="0.3" stroke-opacity="0.5">
<path d="M-146.85 -62.28 L120.31 62.28"/>
</g>
<g id="zigguratlink-7-segment" fill="none" stroke="#888888" stroke-dasharray="0" stroke-width="0.3" stroke-opacity="0.5">
<path d="M-146.85 -62.28 L191.08 62.28"/>
</g>
<g id="zigguratlink-8-segment" fill="none" stroke="#888888" stroke-dasharray="0" stroke-width="0.3" stroke-opacity="0.5">
<path d="M-40.69 -62.28 L-162.77 62.28"/>
</g>
<g id="zigguratlink-9-segment" fill="none" stroke="#888888" stroke-dasharray="0" stroke-width="0.3" stroke-opacity="0.5">
<path d="M-40.69 -62.28 L-92 62.28"/>
</g>
<g id="zigguratlink-10-segment" fill="none" stroke="#888888" stroke-dasharray="0" stroke-width="0.3" stroke-opacity="0.5">
<path d="M-40.69 -62.28 L-21.23 62.28"/>
</g>
<g id="zigguratlink-11-segment" fill="none" stroke="#888888" stroke-dasharray="0" stroke-width="0.3" stroke-opacity="0.5">
<path d="M-40.69 -62.28 L49.54 62.28"/>
</g>
<g id="zigguratlink-12-segment" fill="none" stroke="#888888" stroke-dasharray="0" stroke-width="0.3" stroke-opacity="0.5">
<path d="M-40.69 -62.28 L120.31 62.28"/>
</g>
<g id="zigguratlink-13-segment" fill="none" stroke="#888888" stroke-dasharray="0" stroke-width="0.3" stroke-opacity="0.5">
<path d="M65.46 -62.28 L-162.77 62.28"/>
</g>
<g id="zigguratlink-14-segment" fill="none" stroke="#888888" stroke-dasharray="0" stroke-width="0.3" stroke-opacity="0.5">
<path d="M65.46 -62.28 L-92 62.28"/>
</g>
<g id="zigguratlink-15-segment" fill="none" stroke="#888888" stroke-dasharray="0" stroke-width="0.3" stroke-opacity="0.5">
<path d="M65.46 -62.28 L49.54 62.28"/>
</g>
<g id="zigguratlink-16-segment" fill="none" stroke="#888888" stroke-dasharray="0" stroke-width="0.3" stroke-opacity="0.5">
<path d="M65.46 -62.28 L120.31 62.28"/>
</g>
<g id="zigguratlink-17-segment" fill="none" stroke="#888888" stroke-dasharray="0" stroke-width="0.3" stroke-opacity="0.5">
<path d="M65.46 -62.28 L191.08 62.28"/>
</g>
<g id="zigguratlink-18-segment" fill="none" stroke="#888888" stroke-dasharray="0" stroke-width="0.3" stroke-opacity="0.5">
<path d="M171.62 -62.28 L-162.77 62.28"/>
</g>
<g id="zigguratlink-19-segment" fill="none" stroke="#888888" stroke-dasharray="0" stroke-width="0.3" stroke-opacity="0.5">
<path d="M171.62 -62.28 L-92 62.28"/>
</g>
<g id="zigguratlink-20-segment" fill="none" stroke="#888888" stroke-dasharray="0" stroke-width="0.3" stroke-opacity="0.5">
<path d="M171.62 -62.28 L-21.23 62.28"/>
</g>
<g id="zigguratlink-21-segment" fill="none" stroke="#888888" stroke-dasharray="0" stroke-width="0.3" stroke-opacity="0.5">
<path d="M171.62 -62.28 L191.08 62.28"/>
</g>
<g id="zigguratlink-22-segment" fill="none" stroke="#888888" stroke-dasharray="0" stroke-width="0.3" stroke-opacity="0.5">
<path d="M411 449.6 L436.24 -538.93"/>
</g>
<g id="zigguratlink-23-segment" fill="none" stroke="#888888" stroke-dasharray="0" stroke-width="0.3" stroke-opacity="0.5">
<path d="M411 449.6 L459.1 -486.67"/>
</g>
<g id="zigguratlink-24-segment" fill="none" stroke="#888888" stroke-dasharray="0" stroke-width="0.3" stroke-opacity="0.5">
<path d="M439.57 397.34 L481.96 -434.41"/>
</g>
<g id="zigguratlink-25-segment" fill="none" stroke="#888888" stroke-dasharray="0" stroke-width="0.3" stroke-opacity="0.5">
<path d="M439.57 397.34 L504.82 -382.15"/>
</g>
<g id="zigguratlink-26-segment" fill="none" stroke="#888888" stroke-dasharray="0" stroke-width="0.3" stroke-opacity="0.5">
<path d="M496.73 292.82 L481.96 -434.41"/>
</g>
<g id="zigguratlink-27-segment" fill="none" stroke="#888888" stroke-dasharray="0" stroke-width="0.3" stroke-opacity="0.5">
<path d="M496.73 292.82 L504.82 -382.15"/>
</g>
<g id="zigguratlink-28-segment" fill="none" stroke="#888888" stroke-dasharray="0" stroke-width="0.3" stroke-opacity="0.5">
<path d="M17.69 875.09 L17.69 945.86"/>
</g>
<g id="zigguratlink-29-segment" fill="none" stroke="#888888" stroke-dasharray="0" stroke-width="0.3" stroke-opacity="0.5">
<path d="M106.15 875.09 L106.15 945.86"/>
</g>
<g id="zigguratlink-1-path" fill="none" stroke="#888888" stroke-dasharray="0" stroke-width="0.3" stroke-opacity="0.5">
<path d="M-176.92 496.21  L-136.03 465.57 L-95.15 433.92 L-54.26 400.26 L-13.37 363.59 L27.52 322.91 L68.41 277.21 L109.3 225.49 L150.19 166.75 L191.08 101.2"/>
</g>
<g id="zigguratlink-2-path" fill="none" stroke="#888888" stroke-dasharray="0" stroke-width="0.3" stroke-opacity="0.5">
<path d="M-228.8 516.12  L-190.01 484.77 L-151.22 452.4 L-112.43 417.97 L-73.64 380.47 L-34.85 338.86 L3.94 292.12 L42.73 239.23 L81.52 179.14 L120.31 112.1"/>
</g>
<g id="zigguratlink-3-path" fill="none" stroke="#888888" stroke-dasharray="0" stroke-width="0.3" stroke-opacity="0.5">
<path d="M-267.72 529.49  L-232.47 497.95 L-197.22 465.38 L-161.97 430.75 L-126.72 393.02 L-91.47 351.15 L-56.21 304.13 L-20.96 250.9 L14.29 190.45 L49.54 123"/>
</g>
<g id="zigguratlink-4-path" fill="none" stroke="#888888" stroke-dasharray="0" stroke-width="0.3" stroke-opacity="0.5">
<path d="M-306.64 542.87  L-282.79 511.98 L-258.95 480.09 L-235.1 446.17 L-211.25 409.22 L-187.4 368.22 L-163.55 322.17 L-139.7 270.05 L-115.85 210.85 L-92 144.79"/>
</g>
<g id="zigguratlink-5-path" fill="none" stroke="#888888" stroke-dasharray="0" stroke-width="0.3" stroke-opacity="0.5">
<path d="M-159.23 -457.02  L-134.26 -431.1 L-109.3 -404.34 L-84.33 -375.88 L-59.37 -344.87 L-34.4 -310.47 L-9.44 -271.83 L15.53 -228.1 L40.5 -178.43 L65.46 -123"/>
</g>
<g id="zigguratlink-6-path" fill="none" stroke="#888888" stroke-dasharray="0" stroke-width="0.3" stroke-opacity="0.5">
<path d="M-92 144.79  L-36.11 197.31 L19.78 242.29 L75.67 273.22 L131.55 292.37 L187.44 306.56 L243.33 322.63 L299.22 347.43 L355.11 387.8 L411 449.6"/>
</g>
<g id="zigguratlink-7-path" fill="none" stroke="#888888" stroke-dasharray="0" stroke-width="0.3" stroke-opacity="0.5">
<path d="M191.08 101.2  L215.51 161.23 L239.95 212.64 L264.38 247.99 L288.82 269.89 L313.26 286.1 L337.69 304.47 L362.13 332.81 L386.56 378.96 L411 449.6"/>
</g>
<g id="zigguratlink-8-path" fill="none" stroke="#888888" stroke-dasharray="0" stroke-width="0.3" stroke-opacity="0.5">
<path d="M120.31 112.1  L155.78 161.24 L191.26 203.34 L226.73 232.28 L262.2 250.21 L297.68 263.48 L333.15 278.52 L368.63 301.73 L404.1 339.51 L439.57 397.34"/>
</g>
<g id="zigguratlink-9-path" fill="none" stroke="#888888" stroke-dasharray="0" stroke-width="0.3" stroke-opacity="0.5">
<path d="M191.08 101.2  L218.69 152.22 L246.3 195.92 L273.91 225.97 L301.52 244.58 L329.13 258.37 L356.74 273.98 L384.35 298.07 L411.96 337.3 L439.57 397.34"/>
</g>
<g id="zigguratlink-10-path" fill="none" stroke="#888888" stroke-dasharray="0" stroke-width="0.3" stroke-opacity="0.5">
<path d="M-92 144.79  L-29.76 179.3 L32.48 208.86 L94.72 229.18 L156.96 241.77 L219.19 251.09 L281.43 261.65 L343.67 277.94 L405.91 304.47 L468.15 345.08"/>
</g>
<g id="zigguratlink-11-path" fill="none" stroke="#888888" stroke-dasharray="0" stroke-width="0.3" stroke-opacity="0.5">
<path d="M49.54 123  L96.05 161.26 L142.56 194.03 L189.08 216.57 L235.59 230.52 L282.1 240.86 L328.61 252.57 L375.13 270.64 L421.64 300.05 L468.15 345.08"/>
</g>
<g id="zigguratlink-12-path" fill="none" stroke="#888888" stroke-dasharray="0" stroke-width="0.3" stroke-opacity="0.5">
<path d="M-146.85 -155.69  L-84.6 -244 L-22.35 -301.68 L39.9 -337.11 L102.14 -360.07 L164.39 -380.34 L226.64 -407.7 L288.88 -451.89 L351.13 -516.16 L413.38 -591.2"/>
</g>
<g id="zigguratlink-13-path" fill="none" stroke="#888888" stroke-dasharray="0" stroke-width="0.3" stroke-opacity="0.5">
<path d="M-146.85 -155.69  L-82.06 -233.4 L-17.27 -284.16 L47.52 -315.34 L112.3 -335.54 L177.09 -353.38 L241.88 -377.46 L306.67 -416.35 L371.45 -472.91 L436.24 -538.93"/>
</g>
<g id="zigguratlink-14-path" fill="none" stroke="#888888" stroke-dasharray="0" stroke-width="0.3" stroke-opacity="0.5">
<path d="M-40.69 -139.34  L9.76 -230.96 L60.21 -290.81 L110.66 -327.57 L161.12 -351.39 L211.57 -372.42 L262.02 -400.82 L312.47 -446.66 L362.93 -513.35 L413.38 -591.2"/>
</g>
<g id="zigguratlink-15-path" fill="none" stroke="#888888" stroke-dasharray="0" stroke-width="0.3" stroke-opacity="0.5">
<path d="M65.46 -123  L109.2 -196.74 L152.94 -244.91 L196.67 -274.49 L240.41 -293.66 L284.15 -310.59 L327.89 -333.45 L371.63 -370.35 L415.36 -424.02 L459.1 -486.67"/>
</g>
<g id="zigguratlink-16-path" fill="none" stroke="#888888" stroke-dasharray="0" stroke-width="0.3" stroke-opacity="0.5">
<path d="M-1030.24 541.66  L-902.4 508.33 L-774.56 473.91 L-646.72 437.31 L-518.88 397.44 L-391.05 353.2 L-263.21 303.5 L-135.37 247.26 L-7.53 183.38 L120.31 112.1"/>
</g>
<g id="zigguratlink-17-path" fill="none" stroke="#888888" stroke-dasharray="0" stroke-width="0.3" stroke-opacity="0.5">
<path d="M-1136.39 733.55  L-1128.53 720.04 L-1120.66 706.08 L-1112.8 691.23 L-1104.94 675.06 L-1097.07 657.12 L-1089.21 636.97 L-1081.35 614.16 L-1073.48 588.26 L-1065.62 559.35"/>
</g>
</svg>