<svg xmlns="http://www.w3.org/2000/svg" viewBox="-490 -780 1610 1050">
<rect id="zigguratkcore4-a-1-rect" style="fill:#00008B;fill-opacity:0.2" stroke="transparent" stroke-dasharray="0" stroke-width="0.5" x="-169.73" y="-226.3" width="55.55" height="135.78" />
<rect id="zigguratkcore4-a-2-rect" style="fill:#4169E1;fill-opacity:0.2" stroke="transparent" stroke-dasharray="0" stroke-width="0.5" x="-108.01" y="-210.46" width="55.55" height="119.94" />
<rect id="zigguratkcore4-a-3-rect" style="fill:#00008B;fill-opacity:0.2" stroke="transparent" stroke-dasharray="0" stroke-width="0.5" x="-46.29" y="-194.62" width="55.55" height="104.1" />
<rect id="zigguratkcore4-a-4-rect" style="fill:#4169E1;fill-opacity:0.2" stroke="transparent" stroke-dasharray="0" stroke-width="0.5" x="15.43" y="-178.78" width="55.55" height="88.26" />
<rect id="zigguratkcore4-a-5-rect" style="fill:#00008B;fill-opacity:0.2" stroke="transparent" stroke-dasharray="0" stroke-width="0.5" x="77.15" y="-162.94" width="55.55" height="72.42" />
<rect id="zigguratkcore4-a-6-rect" style="fill:#4169E1;fill-opacity:0.2" stroke="transparent" stroke-dasharray="0" stroke-width="0.5" x="138.87" y="-147.1" width="55.55" height="56.58" />
<text id="zigguratkcore4-a-1-text" y="-158.41" style="text-anchor:middle;dominant-baseline:middle;font-family:Arial;font-size:12px;fill:#00008B">
<tspan x="-141.95" dy="0">7</tspan>
</text>
<text id="zigguratkcore4-a-2-text" y="-150.49" style="text-anchor:middle;dominant-baseline:middle;font-family:Arial;font-size:12px;fill:#00008B">
<tspan x="-80.24" dy="0">4</tspan>
</text>
<text id="zigguratkcore4-a-3-text" y="-142.57" style="text-anchor:middle;dominant-baseline:middle;font-family:Arial;font-size:12px;fill:#00008B">
<tspan x="-18.52" dy="0">1</tspan>
</text>
<text id="zigguratkcore4-a-4-text" y="-134.65" style="text-anchor:middle;dominant-baseline:middle;font-family:Arial;font-size:12px;fill:#00008B">
<tspan x="43.2" dy="0">3</tspan>
</text>
<text id="zigguratkcore4-a-5-text" y="-126.73" style="text-anchor:middle;dominant-baseline:middle;font-family:Arial;font-size:12px;fill:#00008B">
<tspan x="104.92" dy="0">5</tspan>
</text>
<text id="zigguratkcore4-a-6-text" y="-118.81" style="text-anchor:middle;dominant-baseline:middle;font-family:Arial;font-size:12px;fill:#00008B">
<tspan x="166.64" dy="0">2</tspan>
</text>
<rect id="zigguratkcore4-b-1-rect" style="fill:#FF0000;fill-opacity:0.2" stroke="transparent" stroke-dasharray="0" stroke-width="0.5" x="-169.73" y="90.52" width="47.61" height="135.78" />
<rect id="zigguratkcore4-b-2-rect" style="fill:#F08080;fill-opacity:0.2" stroke="transparent" stroke-dasharray="0" stroke-width="0.5" x="-116.83" y="90.52" width="47.62" height="122.21" />
<rect id="zigguratkcore4-b-3-rect" style="fill:#FF0000;fill-opacity:0.2" stroke="transparent" stroke-dasharray="0" stroke-width="0.5" x="-63.92" y="90.52" width="47.61" height="108.63" />
<rect id="zigguratkcore4-b-4-rect" style="fill:#F08080;fill-opacity:0.2" stroke="transparent" stroke-dasharray="0" stroke-width="0.5" x="-11.02" y="90.52" width="47.61" height="95.05" />
<rect id="zigguratkcore4-b-5-rect" style="fill:#FF0000;fill-opacity:0.2" stroke="transparent" stroke-dasharray="0" stroke-width="0.5" x="41.88" y="90.52" width="47.61" height="81.47" />
<rect id="zigguratkcore4-b-6-rect" style="fill:#F08080;fill-opacity:0.2" stroke="transparent" stroke-dasharray="0" stroke-width="0.5" x="94.78" y="90.52" width="47.62" height="67.89" />
<rect id="zigguratkcore4-b-7-rect" style="fill:#FF0000;fill-opacity:0.2" stroke="transparent" stroke-dasharray="0" stroke-width="0.5" x="147.69" y="90.52" width="47.61" height="54.31" />
<text id="zigguratkcore4-b-1-text" y="158.41" style="text-anchor:middle;dominant-baseline:middle;font-family:Arial;font-size:12px;fill:#FF0000">
<tspan x="-145.92" dy="0">19</tspan>
</text>
<text id="zigguratkcore4-b-2-text" y="151.62" style="text-anchor:middle;dominant-baseline:middle;font-family:Arial;font-size:12px;fill:#FF0000">
<tspan x="-93.02" dy="0">20</tspan>
</text>
<text id="zigguratkcore4-b-3-text" y="144.83" style="text-anchor:middle;dominant-baseline:middle;font-family:Arial;font-size:12px;fill:#FF0000">
<tspan x="-40.12" dy="0">2</tspan>
</text>
<text id="zigguratkcore4-b-4-text" y="138.05" style="text-anchor:middle;dominant-baseline:middle;font-family:Arial;font-size:12px;fill:#FF0000">
<tspan x="12.78" dy="0">5</tspan>
</text>
<text id="zigguratkcore4-b-5-text" y="131.26" style="text-anchor:middle;dominant-baseline:middle;font-family:Arial;font-size:12px;fill:#FF0000">
<tspan x="65.69" dy="0">9</tspan>
</text>
<text id="zigguratkcore4-b-6-text" y="124.47" style="text-anchor:middle;dominant-baseline:middle;font-family:Arial;font-size:12px;fill:#FF0000">
<tspan x="118.59" dy="0">17</tspan>
</text>
<text id="zigguratkcore4-b-7-text" y="117.68" style="text-anchor:middle;dominant-baseline:middle;font-family:Arial;font-size:12px;fill:#FF0000">
<tspan x="171.49" dy="0">21</tspan>
</text>
<rect id="zigguratkcore3-b-1-rect" style="fill:#FF0000;fill-opacity:0.2" stroke="transparent" stroke-dasharray="0" stroke-width="0.5" x="308.6" y="-694.65" width="143.5" height="18.62" />
<rect id="zigguratkcore3-b-2-rect" style="fill:#F08080;fill-opacity:0.2" stroke="transparent" stroke-dasharray="0" stroke-width="0.5" x="322.95" y="-672.3" width="121.97" height="18.6099999999999" />
<rect id="zigguratkcore3-b-3-rect" style="fill:#FF0000;fill-opacity:0.2" stroke="transparent" stroke-dasharray="0" stroke-width="0.5" x="337.3" y="-649.96" width="100.45" height="18.62" />
<rect id="zigguratkcore3-b-4-rect" style="fill:#F08080;fill-opacity:0.2" stroke="transparent" stroke-dasharray="0" stroke-width="0.5" x="351.65" y="-627.62" width="78.92" height="18.62" />
<rect id="zigguratkcore3-b-5-rect" style="fill:#FF0000;fill-opacity:0.2" stroke="transparent" stroke-dasharray="0" stroke-width="0.5" x="366" y="-605.28" width="57.4" height="18.62" />
<text id="zigguratkcore3-b-1-text" y="-685.34" style="text-anchor:middle;dominant-baseline:middle;font-family:Arial;font-size:10.8px;fill:#FF0000">
<tspan x="330.12" dy="0">8</tspan>
</text>
<text id="zigguratkcore3-b-2-text" y="-663" style="text-anchor:middle;dominant-baseline:middle;font-family:Arial;font-size:10.8px;fill:#FF0000">
<tspan x="420.53" dy="0">15</tspan>
</text>
<text id="zigguratkcore3-b-3-text" y="-640.65" style="text-anchor:middle;dominant-baseline:middle;font-family:Arial;font-size:10.8px;fill:#FF0000">
<tspan x="352.36" dy="0">22</tspan>
</text>
<text id="zigguratkcore3-b-4-text" y="-618.31" style="text-anchor:middle;dominant-baseline:middle;font-family:Arial;font-size:10.8px;fill:#FF0000">
<tspan x="414.79" dy="0">24</tspan>
</text>
<text id="zigguratkcore3-b-5-text" y="-595.97" style="text-anchor:middle;dominant-baseline:middle;font-family:Arial;font-size:10.8px;fill:#FF0000">
<tspan x="374.61" dy="0">23</tspan>
</text>
<rect id="zigguratkcore2-a-1-rect" style="fill:#00008B;fill-opacity:0.2" stroke="transparent" stroke-dasharray="0" stroke-width="0.5" x="659.73" y="219.31" width="145.84" height="18.62" />
<text id="zigguratkcore2-a-1-text" y="228.62" style="text-anchor:middle;dominant-baseline:middle;font-family:Arial;font-size:10.8px;fill:#00008B">
<tspan x="681.61" dy="0">6</tspan>
</text>
<rect id="zigguratkcore2-b-1-rect" style="fill:#FF0000;fill-opacity:0.2" stroke="transparent" stroke-dasharray="0" stroke-width="0.5" x="682.01" y="-468.34" width="145.84" height="18.6199999999999" />
<rect id="zigguratkcore2-b-2-rect" style="fill:#F08080;fill-opacity:0.2" stroke="transparent" stroke-dasharray="0" stroke-width="0.5" x="690.11" y="-446" width="135.72" height="18.62" />
<rect id="zigguratkcore2-b-3-rect" style="fill:#FF0000;fill-opacity:0.2" stroke="transparent" stroke-dasharray="0" stroke-width="0.5" x="698.22" y="-423.66" width="125.58" height="18.62" />
<rect id="zigguratkcore2-b-4-rect" style="fill:#F08080;fill-opacity:0.2" stroke="transparent" stroke-dasharray="0" stroke-width="0.5" x="706.32" y="-401.32" width="115.46" height="18.62" />
<rect id="zigguratkcore2-b-5-rect" style="fill:#FF0000;fill-opacity:0.2" stroke="transparent" stroke-dasharray="0" stroke-width="0.5" x="714.42" y="-378.97" width="105.33" height="18.61" />
<rect id="zigguratkcore2-b-6-rect" style="fill:#F08080;fill-opacity:0.2" stroke="transparent" stroke-dasharray="0" stroke-width="0.5" x="722.52" y="-356.63" width="95.2" height="18.62" />
<rect id="zigguratkcore2-b-7-rect" style="fill:#FF0000;fill-opacity:0.2" stroke="transparent" stroke-dasharray="0" stroke-width="0.5" x="730.63" y="-334.29" width="85.0700000000001" height="18.62" />
<rect id="zigguratkcore2-b-8-rect" style="fill:#F08080;fill-opacity:0.2" stroke="transparent" stroke-dasharray="0" stroke-width="0.5" x="738.73" y="-311.95" width="74.9399999999999" height="18.62" />
<rect id="zigguratkcore2-b-9-rect" style="fill:#FF0000;fill-opacity:0.2" stroke="transparent" stroke-dasharray="0" stroke-width="0.5" x="746.83" y="-289.61" width="64.8199999999999" height="18.62" />
<rect id="zigguratkcore2-b-10-rect" style="fill:#F08080;fill-opacity:0.2" stroke="transparent" stroke-dasharray="0" stroke-width="0.5" x="754.93" y="-267.26" width="54.6900000000001" height="18.61" />
<rect id="zigguratkcore2-b-11-rect" style="fill:#FF0000;fill-opacity:0.2" stroke="transparent" stroke-dasharray="0" stroke-width="0.5" x="763.03" y="-244.92" width="44.5700000000001" height="18.62" />
<rect id="zigguratkcore2-b-12-rect" style="fill:#F08080;fill-opacity:0.2" stroke="transparent" stroke-dasharray="0" stroke-width="0.5" x="771.14" y="-222.58" width="34.4300000000001" height="18.62" />
<text id="zigguratkcore2-b-1-text" y="-459.03" style="text-anchor:middle;dominant-baseline:middle;font-family:Arial;font-size:10.8px;fill:#FF0000">
<tspan x="798.68" dy="0">1</tspan>
</text>
<text id="zigguratkcore2-b-2-text" y="-436.69" style="text-anchor:middle;dominant-baseline:middle;font-family:Arial;font-size:10.8px;fill:#FF0000">
<tspan x="710.47" dy="0">4</tspan>
</text>
<text id="zigguratkcore2-b-3-text" y="-414.35" style="text-anchor:middle;dominant-baseline:middle;font-family:Arial;font-size:10.8px;fill:#FF0000">
<tspan x="798.68" dy="0">7</tspan>
</text>
<text id="zigguratkcore2-b-4-text" y="-392.01" style="text-anchor:middle;dominant-baseline:middle;font-family:Arial;font-size:10.8px;fill:#FF0000">
<tspan x="723.64" dy="0">11</tspan>
</text>
<text id="zigguratkcore2-b-5-text" y="-369.67" style="text-anchor:middle;dominant-baseline:middle;font-family:Arial;font-size:10.8px;fill:#FF0000">
<tspan x="798.68" dy="0">12</tspan>
</text>
<text id="zigguratkcore2-b-6-text" y="-347.32" style="text-anchor:middle;dominant-baseline:middle;font-family:Arial;font-size:10.8px;fill:#FF0000">
<tspan x="736.8" dy="0">13</tspan>
</text>
<text id="zigguratkcore2-b-7-text" y="-324.98" style="text-anchor:middle;dominant-baseline:middle;font-family:Arial;font-size:10.8px;fill:#FF0000">
<tspan x="798.68" dy="0">14</tspan>
</text>
<text id="zigguratkcore2-b-8-text" y="-302.64" style="text-anchor:middle;dominant-baseline:middle;font-family:Arial;font-size:10.8px;fill:#FF0000">
<tspan x="749.97" dy="0">16</tspan>
</text>
<text id="zigguratkcore2-b-9-text" y="-280.3" style="text-anchor:middle;dominant-baseline:middle;font-family:Arial;font-size:10.8px;fill:#FF0000">
<tspan x="798.68" dy="0">3</tspan>
</text>
<text id="zigguratkcore2-b-10-text" y="-257.96" style="text-anchor:middle;dominant-baseline:middle;font-family:Arial;font-size:10.8px;fill:#FF0000">
<tspan x="763.14" dy="0">6</tspan>
</text>
<text id="zigguratkcore2-b-11-text" y="-235.61" style="text-anchor:middle;dominant-baseline:middle;font-family:Arial;font-size:10.8px;fill:#FF0000">
<tspan x="798.68" dy="0">10</tspan>
</text>
<text id="zigguratkcore2-b-12-text" y="-213.27" style="text-anchor:middle;dominant-baseline:middle;font-family:Arial;font-size:10.8px;fill:#FF0000">
<tspan x="776.3" dy="0">18</tspan>
</text>
<rect id="zigguratkcore4-1-rect" style="fill:none;fill-opacity:0.3" stroke="#8B4C39" stroke-dasharray="1 1" stroke-width="0" x="-253.51" y="-278.44" width="476.74" height="530.81" />
<text id="zigguratkcore4-1-text" y="-13.03" style="text-anchor:middle;dominant-baseline:middle;font-family:Arial;font-size:14px;fill:transparent">
</text>
<text id="zigguratkcore4-1-text" y="0" transform="rotate(-90 -208.83 0)" style="text-anchor:start;dominant-baseline:middle;font-family:Arial;font-size:12px;fill:#8B4C39">
<tspan x="-208.83" dy="0">4-shell</tspan>
</text>
<rect id="zigguratkcore3-1-rect" style="fill:none;fill-opacity:0.3" stroke="#A15842" stroke-dasharray="1 1" stroke-width="0" x="280.67" y="-772.84" width="199.35" height="212.24" />
<text id="zigguratkcore3-1-text" y="-666.72" style="text-anchor:middle;dominant-baseline:middle;font-family:Arial;font-size:14px;fill:transparent">
</text>
<text id="zigguratkcore3-1-text" y="-736.35" style="text-anchor:start;dominant-baseline:middle;font-family:Arial;font-size:12px;fill:#A15842">
<tspan x="352.42" dy="0">3-shell</tspan>
</text>
<rect id="zigguratkcore2-1-rect" style="fill:none;fill-opacity:0.3" stroke="#B7644B" stroke-dasharray="1 1" stroke-width="0" x="631.8" y="-546.54" width="223.98" height="810.53" />
<text id="zigguratkcore2-1-text" y="-141.27" style="text-anchor:middle;dominant-baseline:middle;font-family:Arial;font-size:14px;fill:transparent">
</text>
<text id="zigguratkcore2-1-text" y="-510.05" style="text-anchor:start;dominant-baseline:middle;font-family:Arial;font-size:12px;fill:#B7644B">
<tspan x="715.86" dy="0">2-shell</tspan>
</text>
<rect id="zigguratannotation-1-rect" style="fill:none;fill-opacity:0.5" stroke="transparent" stroke-dasharray="0" stroke-width="0.5" x="1110.95" y="-0.07" width="0.0699999999999363" height="0.07" />
<text id="zigguratannotation-1-text" y="-0.03" style="text-anchor:middle;dominant-baseline:middle;font-family:Arial;font-size:20px;fill:transparent">
</text>
<text id="zigguratannotation-1-text" y="0" style="text-anchor:middle;dominant-baseline:middle;font-family:Arial;font-size:4px;fill:red">
<tspan x="1110.95" dy="0">.</tspan>
</text>
<text id="zigguratannotation-1-text" y="0" style="text-anchor:middle;dominant-baseline:middle;font-family:Arial;font-size:4px;fill:red">
<tspan x="-481.51" dy="0">.</tspan>
</text>
<text id="zigguratannotation-1-text" y="0" style="text-anchor:middle;dominant-baseline:middle;font-family:Arial;font-size:4px;fill:red">
<tspan x="-481.51" dy="0">.</tspan>
</text>
<g id="zigguratlink-1-segment" fill="none" stroke="#888888" stroke-dasharray="0" stroke-width="0.3" stroke-opacity="0.5">
<path d="M-141.95 -90.52 L-145.92 90.52"/>
</g>
<g id="zigguratlink-2-segment" fill="none" stroke="#888888" stroke-dasharray="0" stroke-width="0.3" stroke-opacity="0.5">
<path d="M-141.95 -90.52 L-93.02 90.52"/>
</g>
<g id="zigguratlink-3-segment" fill="none" stroke="#888888" stroke-dasharray="0" stroke-width="0.3" stroke-opacity="0.5">
<path d="M-141.95 -90.52 L-40.12 90.52"/>
</g>
<g id="zigguratlink-4-segment" fill="none" stroke="#888888" stroke-dasharray="0" stroke-width="0.3" stroke-opacity="0.5">
<path d="M-141.95 -90.52 L12.78 90.52"/>
</g>
<g id="zigguratlink-5-segment" fill="none" stroke="#888888" stroke-dasharray="0" stroke-width="0.3" stroke-opacity="0.5">
<path d="M-141.95 -90.52 L65.69 90.52"/>
</g>
<g id="zigguratlink-6-segment" fill="none" stroke="#888888" stroke-dasharray="0" stroke-width="0.3" stroke-opacity="0.5">
<path d="M-141.95 -90.52 L118.59 90.52"/>
</g>
<g id="zigguratlink-7-segment" fill="none" stroke="#888888" stroke-dasharray="0" stroke-width="0.3" stroke-opacity="0.5">
<path d="M-141.95 -90.52 L171.49 90.52"/>
</g>
<g id="zigguratlink-8-segment" fill="none" stroke="#888888" stroke-dasharray="0" stroke-width="0.3" stroke-opacity="0.5">
<path d="M-80.24 -90.52 L-145.92 90.52"/>
</g>
<g id="zigguratlink-9-segment" fill="none" stroke="#888888" stroke-dasharray="0" stroke-width="0.3" stroke-opacity="0.5">
<path d="M-80.24 -90.52 L-93.02 90.52"/>
</g>
<g id="zigguratlink-10-segment" fill="none" stroke="#888888" stroke-dasharray="0" stroke-width="0.3" stroke-opacity="0.5">
<path d="M-80.24 -90.52 L-40.12 90.52"/>
</g>
<g id="zigguratlink-11-segment" fill="none" stroke="#888888" stroke-dasharray="0" stroke-width="0.3" stroke-opacity="0.5">
<path d="M-80.24 -90.52 L12.78 90.52"/>
</g>
<g id="zigguratlink-12-segment" fill="none" stroke="#888888" stroke-dasharray="0" stroke-width="0.3" stroke-opacity="0.5">
<path d="M-80.24 -90.52 L65.69 90.52"/>
</g>
<g id="zigguratlink-13-segment" fill="none" stroke="#888888" stroke-dasharray="0" stroke-width="0.3" stroke-opacity="0.5">
<path d="M-80.24 -90.52 L118.59 90.52"/>
</g>
<g id="zigguratlink-14-segment" fill="none" stroke="#888888" stroke-dasharray="0" stroke-width="0.3" stroke-opacity="0.5">
<path d="M-80.24 -90.52 L171.49 90.52"/>
</g>
<g id="zigguratlink-15-segment" fill="none" stroke="#888888" stroke-dasharray="0" stroke-width="0.3" stroke-opacity="0.5">
<path d="M-18.52 -90.52 L-145.92 90.52"/>
</g>
<g id="zigguratlink-16-segment" fill="none" stroke="#888888" stroke-dasharray="0" stroke-width="0.3" stroke-opacity="0.5">
<path d="M-18.52 -90.52 L-40.12 90.52"/>
</g>
<g id="zigguratlink-17-segment" fill="none" stroke="#888888" stroke-dasharray="0" stroke-width="0.3" stroke-opacity="0.5">
<path d="M-18.52 -90.52 L65.69 90.52"/>
</g>
<g id="zigguratlink-18-segment" fill="none" stroke="#888888" stroke-dasharray="0" stroke-width="0.3" stroke-opacity="0.5">
<path d="M-18.52 -90.52 L171.49 90.52"/>
</g>
<g id="zigguratlink-19-segment" fill="none" stroke="#888888" stroke-dasharray="0" stroke-width="0.3" stroke-opacity="0.5">
<path d="M43.2 -90.52 L-145.92 90.52"/>
</g>
<g id="zigguratlink-20-segment" fill="none" stroke="#888888" stroke-dasharray="0" stroke-width="0.3" stroke-opacity="0.5">
<path d="M43.2 -90.52 L-93.02 90.52"/>
</g>
<g id="zigguratlink-21-segment" fill="none" stroke="#888888" stroke-dasharray="0" stroke-width="0.3" stroke-opacity="0.5">
<path d="M43.2 -90.52 L65.69 90.52"/>
</g>
<g id="zigguratlink-22-segment" fill="none" stroke="#888888" stroke-dasharray="0" stroke-width="0.3" stroke-opacity="0.5">
<path d="M43.2 -90.52 L118.59 90.52"/>
</g>
<g id="zigguratlink-23-segment" fill="none" stroke="#888888" stroke-dasharray="0" stroke-width="0.3" stroke-opacity="0.5">
<path d="M104.92 -90.52 L-145.92 90.52"/>
</g>
<g id="zigguratlink-24-segment" fill="none" stroke="#888888" stroke-dasharray="0" stroke-width="0.3" stroke-opacity="0.5">
<path d="M104.92 -90.52 L-40.12 90.52"/>
</g>
<g id="zigguratlink-25-segment" fill="none" stroke="#888888" stroke-dasharray="0" stroke-width="0.3" stroke-opacity="0.5">
<path d="M104.92 -90.52 L12.78 90.52"/>
</g>
<g id="zigguratlink-26-segment" fill="none" stroke="#888888" stroke-dasharray="0" stroke-width="0.3" stroke-opacity="0.5">
<path d="M104.92 -90.52 L171.49 90.52"/>
</g>
<g id="zigguratlink-27-segment" fill="none" stroke="#888888" stroke-dasharray="0" stroke-width="0.3" stroke-opacity="0.5">
<path d="M166.64 -90.52 L-145.92 90.52"/>
</g>
<g id="zigguratlink-28-segment" fill="none" stroke="#888888" stroke-dasharray="0" stroke-width="0.3" stroke-opacity="0.5">
<path d="M166.64 -90.52 L-93.02 90.52"/>
</g>
<g id="zigguratlink-29-segment" fill="none" stroke="#888888" stroke-dasharray="0" stroke-width="0.3" stroke-opacity="0.5">
<path d="M166.64 -90.52 L12.78 90.52"/>
</g>
<g id="zigguratlink-30-segment" fill="none" stroke="#888888" stroke-dasharray="0" stroke-width="0.3" stroke-opacity="0.5">
<path d="M166.64 -90.52 L118.59 90.52"/>
</g>
<g id="zigguratlink-31-segment" fill="none" stroke="#888888" stroke-dasharray="0" stroke-width="0.3" stroke-opacity="0.5">
<path d="M-141.95 -226.3 L308.6 -676.03"/>
</g>
<g id="zigguratlink-32-segment" fill="none" stroke="#888888" stroke-dasharray="0" stroke-width="0.3" stroke-opacity="0.5">
<path d="M-141.95 -226.3 L322.95 -653.69"/>
</g>
<g id="zigguratlink-33-segment" fill="none" stroke="#888888" stroke-dasharray="0" stroke-width="0.3" stroke-opacity="0.5">
<path d="M-141.95 -226.3 L337.3 -631.34"/>
</g>
<g id="zigguratlink-34-segment" fill="none" stroke="#888888" stroke-dasharray="0" stroke-width="0.3" stroke-opacity="0.5">
<path d="M-141.95 -226.3 L351.65 -609"/>
</g>
<g id="zigguratlink-35-segment" fill="none" stroke="#888888" stroke-dasharray="0" stroke-width="0.3" stroke-opacity="0.5">
<path d="M-141.95 -226.3 L366 -586.66"/>
</g>
<g id="zigguratlink-36-segment" fill="none" stroke="#888888" stroke-dasharray="0" stroke-width="0.3" stroke-opacity="0.5">
<path d="M-80.24 -210.46 L308.6 -676.03"/>
</g>
<g id="zigguratlink-37-segment" fill="none" stroke="#888888" stroke-dasharray="0" stroke-width="0.3" stroke-opacity="0.5">
<path d="M-80.24 -210.46 L322.95 -653.69"/>
</g>
<g id="zigguratlink-38-segment" fill="none" stroke="#888888" stroke-dasharray="0" stroke-width="0.3" stroke-opacity="0.5">
<path d="M-80.24 -210.46 L337.3 -631.34"/>
</g>
<g id="zigguratlink-39-segment" fill="none" stroke="#888888" stroke-dasharray="0" stroke-width="0.3" stroke-opacity="0.5">
<path d="M-80.24 -210.46 L351.65 -609"/>
</g>
<g id="zigguratlink-40-segment" fill="none" stroke="#888888" stroke-dasharray="0" stroke-width="0.3" stroke-opacity="0.5">
<path d="M-18.52 -194.62 L322.95 -653.69"/>
</g>
<g id="zigguratlink-41-segment" fill="none" stroke="#888888" stroke-dasharray="0" stroke-width="0.3" stroke-opacity="0.5">
<path d="M-18.52 -194.62 L366 -586.66"/>
</g>
<g id="zigguratlink-42-segment" fill="none" stroke="#888888" stroke-dasharray="0" stroke-width="0.3" stroke-opacity="0.5">
<path d="M43.2 -178.78 L308.6 -676.03"/>
</g>
<g id="zigguratlink-43-segment" fill="none" stroke="#888888" stroke-dasharray="0" stroke-width="0.3" stroke-opacity="0.5">
<path d="M43.2 -178.78 L351.65 -609"/>
</g>
<g id="zigguratlink-44-segment" fill="none" stroke="#888888" stroke-dasharray="0" stroke-width="0.3" stroke-opacity="0.5">
<path d="M104.92 -162.94 L337.3 -631.34"/>
</g>
<g id="zigguratlink-45-segment" fill="none" stroke="#888888" stroke-dasharray="0" stroke-width="0.3" stroke-opacity="0.5">
<path d="M104.92 -162.94 L366 -586.66"/>
</g>
<g id="zigguratlink-1-path" fill="none" stroke="#888888" stroke-dasharray="0" stroke-width="0.3" stroke-opacity="0.5">
<path d="M-145.92 226.3  L-56.41 225.1 L33.11 224.07 L122.63 223.36 L212.15 222.92 L301.66 222.59 L391.18 222.22 L480.7 221.65 L570.21 220.73 L659.73 219.31"/>
</g>
<g id="zigguratlink-2-path" fill="none" stroke="#888888" stroke-dasharray="0" stroke-width="0.3" stroke-opacity="0.5">
<path d="M-93.02 212.73  L-9.38 213.86 L74.26 214.83 L157.9 215.5 L241.54 215.91 L325.18 216.22 L408.81 216.57 L492.45 217.1 L576.09 217.97 L659.73 219.31"/>
</g>
<g id="zigguratlink-3-path" fill="none" stroke="#888888" stroke-dasharray="0" stroke-width="0.3" stroke-opacity="0.5">
<path d="M-141.95 -226.3  L-50.4 -271.61 L41.15 -301.2 L132.7 -319.37 L224.25 -331.15 L315.8 -341.55 L407.36 -355.59 L498.91 -378.26 L590.46 -411.23 L682.01 -449.72"/>
</g>
<g id="zigguratlink-4-path" fill="none" stroke="#888888" stroke-dasharray="0" stroke-width="0.3" stroke-opacity="0.5">
<path d="M-141.95 -226.3  L-49.5 -267.08 L42.95 -293.71 L135.4 -310.07 L227.85 -320.67 L320.31 -330.03 L412.76 -342.66 L505.21 -363.06 L597.66 -392.74 L690.11 -427.38"/>
</g>
<g id="zigguratlink-5-path" fill="none" stroke="#888888" stroke-dasharray="0" stroke-width="0.3" stroke-opacity="0.5">
<path d="M-141.95 -226.3  L-48.6 -262.55 L44.75 -286.22 L138.1 -300.76 L231.45 -310.18 L324.81 -318.5 L418.16 -329.73 L511.51 -347.87 L604.86 -374.25 L698.22 -405.04"/>
</g>
<g id="zigguratlink-6-path" fill="none" stroke="#888888" stroke-dasharray="0" stroke-width="0.3" stroke-opacity="0.5">
<path d="M-141.95 -226.3  L-47.7 -258.02 L46.55 -278.73 L140.8 -291.45 L235.06 -299.7 L329.31 -306.98 L423.56 -316.8 L517.81 -332.67 L612.07 -355.75 L706.32 -382.7"/>
</g>
<g id="zigguratlink-7-path" fill="none" stroke="#888888" stroke-dasharray="0" stroke-width="0.3" stroke-opacity="0.5">
<path d="M-141.95 -226.3  L-46.8 -253.49 L48.35 -271.24 L143.5 -282.15 L238.66 -289.21 L333.81 -295.45 L428.96 -303.88 L524.12 -317.48 L619.27 -337.26 L714.42 -360.36"/>
</g>
<g id="zigguratlink-8-path" fill="none" stroke="#888888" stroke-dasharray="0" stroke-width="0.3" stroke-opacity="0.5">
<path d="M-141.95 -226.3  L-45.9 -248.96 L50.15 -263.75 L146.2 -272.84 L242.26 -278.73 L338.31 -283.93 L434.36 -290.95 L530.42 -302.28 L626.47 -318.77 L722.52 -338.01"/>
</g>
<g id="zigguratlink-9-path" fill="none" stroke="#888888" stroke-dasharray="0" stroke-width="0.3" stroke-opacity="0.5">
<path d="M-141.95 -226.3  L-45 -244.43 L51.95 -256.26 L148.91 -263.53 L245.86 -268.24 L342.81 -272.4 L439.77 -278.02 L536.72 -287.09 L633.67 -300.28 L730.63 -315.67"/>
</g>
<g id="zigguratlink-10-path" fill="none" stroke="#888888" stroke-dasharray="0" stroke-width="0.3" stroke-opacity="0.5">
<path d="M-141.95 -226.3  L-44.1 -239.9 L53.75 -248.77 L151.61 -254.22 L249.46 -257.76 L347.31 -260.88 L445.17 -265.09 L543.02 -271.89 L640.87 -281.78 L738.73 -293.33"/>
</g>
<g id="zigguratlink-11-path" fill="none" stroke="#888888" stroke-dasharray="0" stroke-width="0.3" stroke-opacity="0.5">
<path d="M-141.95 -226.3  L-43.2 -235.36 L55.55 -241.28 L154.31 -244.92 L253.06 -247.27 L351.81 -249.35 L450.57 -252.16 L549.32 -256.7 L648.08 -263.29 L746.83 -270.99"/>
</g>
<g id="zigguratlink-12-path" fill="none" stroke="#888888" stroke-dasharray="0" stroke-width="0.3" stroke-opacity="0.5">
<path d="M-141.95 -226.3  L-42.3 -230.83 L57.35 -233.79 L157.01 -235.61 L256.66 -236.79 L356.32 -237.83 L455.97 -239.23 L555.62 -241.5 L655.28 -244.8 L754.93 -248.65"/>
</g>
<g id="zigguratlink-13-path" fill="none" stroke="#888888" stroke-dasharray="0" stroke-width="0.3" stroke-opacity="0.5">
<path d="M-141.95 -226.3  L-41.4 -226.3 L59.15 -226.3 L159.71 -226.3 L260.26 -226.3 L360.82 -226.3 L461.37 -226.3 L561.93 -226.3 L662.48 -226.3 L763.03 -226.3"/>
</g>
<g id="zigguratlink-14-path" fill="none" stroke="#888888" stroke-dasharray="0" stroke-width="0.3" stroke-opacity="0.5">
<path d="M-141.95 -226.3  L-40.5 -221.77 L60.95 -218.82 L162.41 -217 L263.86 -215.82 L365.32 -214.78 L466.77 -213.38 L568.23 -211.11 L669.68 -207.81 L771.14 -203.96"/>
</g>
<g id="zigguratlink-15-path" fill="none" stroke="#888888" stroke-dasharray="0" stroke-width="0.3" stroke-opacity="0.5">
<path d="M-80.24 -210.46  L4.46 -258.98 L89.15 -290.67 L173.85 -310.13 L258.54 -322.74 L343.24 -333.88 L427.93 -348.92 L512.62 -373.19 L597.32 -408.5 L682.01 -449.72"/>
</g>
<g id="zigguratlink-16-path" fill="none" stroke="#888888" stroke-dasharray="0" stroke-width="0.3" stroke-opacity="0.5">
<path d="M-80.24 -210.46  L5.36 -254.45 L90.95 -283.18 L176.55 -300.82 L262.14 -312.26 L347.74 -322.36 L433.33 -335.99 L518.93 -358 L604.52 -390.01 L690.11 -427.38"/>
</g>
<g id="zigguratlink-17-path" fill="none" stroke="#888888" stroke-dasharray="0" stroke-width="0.3" stroke-opacity="0.5">
<path d="M-80.24 -210.46  L6.26 -249.92 L92.75 -275.69 L179.25 -291.52 L265.74 -301.77 L352.24 -310.83 L438.73 -323.06 L525.23 -342.8 L611.72 -371.52 L698.22 -405.04"/>
</g>
<g id="zigguratlink-18-path" fill="none" stroke="#888888" stroke-dasharray="0" stroke-width="0.3" stroke-opacity="0.5">
<path d="M-80.24 -210.46  L7.16 -245.39 L94.55 -268.2 L181.95 -282.21 L269.34 -291.29 L356.74 -299.31 L444.13 -310.13 L531.53 -327.61 L618.92 -353.02 L706.32 -382.7"/>
</g>
<g id="zigguratlink-19-path" fill="none" stroke="#888888" stroke-dasharray="0" stroke-width="0.3" stroke-opacity="0.5">
<path d="M-80.24 -210.46  L8.06 -240.86 L96.36 -260.71 L184.65 -272.9 L272.95 -280.8 L361.24 -287.78 L449.54 -297.2 L537.83 -312.41 L626.13 -334.53 L714.42 -360.36"/>
</g>
<g id="zigguratlink-20-path" fill="none" stroke="#888888" stroke-dasharray="0" stroke-width="0.3" stroke-opacity="0.5">
<path d="M-80.24 -210.46  L8.96 -236.33 L98.16 -253.22 L187.35 -263.6 L276.55 -270.32 L365.74 -276.26 L454.94 -284.27 L544.13 -297.22 L633.33 -316.04 L722.52 -338.01"/>
</g>
<g id="zigguratlink-21-path" fill="none" stroke="#888888" stroke-dasharray="0" stroke-width="0.3" stroke-opacity="0.5">
<path d="M-80.24 -210.46  L9.86 -231.8 L99.96 -245.73 L190.05 -254.29 L280.15 -259.84 L370.24 -264.73 L460.34 -271.34 L550.43 -282.02 L640.53 -297.55 L730.63 -315.67"/>
</g>
<g id="zigguratlink-22-path" fill="none" stroke="#888888" stroke-dasharray="0" stroke-width="0.3" stroke-opacity="0.5">
<path d="M-80.24 -210.46  L10.76 -227.27 L101.76 -238.24 L192.75 -244.98 L283.75 -249.35 L374.74 -253.21 L465.74 -258.42 L556.74 -266.82 L647.73 -279.05 L738.73 -293.33"/>
</g>
<g id="zigguratlink-23-path" fill="none" stroke="#888888" stroke-dasharray="0" stroke-width="0.3" stroke-opacity="0.5">
<path d="M-18.52 -194.62  L66.52 -210.11 L151.56 -220.22 L236.6 -226.43 L321.64 -230.46 L406.68 -234.01 L491.71 -238.81 L576.75 -246.56 L661.79 -257.83 L746.83 -270.99"/>
</g>
<g id="zigguratlink-24-path" fill="none" stroke="#888888" stroke-dasharray="0" stroke-width="0.3" stroke-opacity="0.5">
<path d="M-18.52 -194.62  L68.32 -201.05 L155.16 -205.24 L242 -207.82 L328.84 -209.49 L415.68 -210.96 L502.52 -212.96 L589.36 -216.17 L676.2 -220.85 L763.03 -226.3"/>
</g>
<g id="zigguratlink-25-path" fill="none" stroke="#888888" stroke-dasharray="0" stroke-width="0.3" stroke-opacity="0.5">
<path d="M43.2 -178.78  L124.09 -183.89 L204.97 -187.22 L285.85 -189.27 L366.73 -190.6 L447.61 -191.77 L528.49 -193.35 L609.37 -195.91 L690.26 -199.62 L771.14 -203.96"/>
</g>
<g id="zigguratlink-26-path" fill="none" stroke="#888888" stroke-dasharray="0" stroke-width="0.3" stroke-opacity="0.5">
<path d="M104.92 -162.94  L177.15 -180.32 L249.37 -191.67 L321.59 -198.64 L393.82 -203.16 L466.04 -207.15 L538.26 -212.54 L610.49 -221.23 L682.71 -233.88 L754.93 -248.65"/>
</g>
</svg>